<?xml version="1.0" encoding="UTF-8"?><svg xmlns="http://www.w3.org/2000/svg" viewBox="0 0 1200 675"><defs><style>.d{stroke:green;}.d,.e,.f,.g,.h,.i,.j,.k,.l,.m,.n,.o,.p,.q,.r,.s{stroke-miterlimit:10;}.d,.f,.g,.h,.k,.l,.m,.n,.p,.r,.s{fill:none;}.e{fill:#0067c0;}.e,.f,.i,.j,.o,.q{stroke-width:3px;}.e,.j,.o,.q{stroke:#3d444d;}.f,.i{stroke:#2f353d;}.g{stroke:#f0f;}.h{stroke:#0067c0;}.i{fill:#0d1117;}.j{fill:#6a0dad;}.k{stroke:#ffd400;}.l{stroke:red;}.t,.q{fill:#fff;}.m{stroke:#f0f6fc;}.u{fill:#9199a1;}.n{stroke-dasharray:4;}.n,.p{stroke:#f0883e;stroke-width:2px;}.o,.v{fill:#f0f6fc;}.w{fill:#2f353d;}.r{stroke:#00aeef;}.s{stroke:#6a0dad;}.x{fill:#c9d1d9;}.y{fill:#f0883e;}</style></defs><g id="a"><rect width="1200" height="675"/></g><g id="b"><path class="w" d="M41.07,631.42c0-3.63,2.8-6.43,6.35-6.43s6.35,2.8,6.35,6.43-2.8,6.43-6.35,6.43-6.35-2.8-6.35-6.43ZM52.53,631.42c0-2.95-2.24-5.29-5.11-5.29s-5.11,2.33-5.11,5.29,2.24,5.29,5.11,5.29,5.11-2.33,5.11-5.29ZM48.98,630.27c-.21-.64-.68-1.05-1.41-1.05-1.1,0-1.75.86-1.75,2.19s.64,2.19,1.75,2.19c.73,0,1.25-.39,1.41-.98h1.28c-.2,1.28-1.3,2.19-2.7,2.19-1.85,0-3.05-1.29-3.05-3.4s1.2-3.4,3.05-3.4c1.39,0,2.47.93,2.7,2.26h-1.28Z"/><path class="w" d="M76.97,622.61c2.96,0,5,1.9,5,4.66,0,1.72-.73,3.04-3.36,6.07l-4.23,4.89v.19h7.88v1.45h-10.24v-1.02l5.8-6.77c2.07-2.45,2.55-3.35,2.55-4.78,0-1.99-1.35-3.28-3.43-3.28s-3.41,1.39-3.41,3.55v.07h-1.58v-.07c0-2.87,2.12-4.96,5.03-4.96Z"/><path class="w" d="M86.48,631.42c0-5.72,1.93-8.85,5.46-8.85s5.46,3.13,5.46,8.85-1.93,8.85-5.46,8.85-5.46-3.13-5.46-8.85ZM88.22,633.93l7.15-6.54c-.57-2.25-1.72-3.41-3.43-3.41-2.53,0-3.86,2.55-3.86,7.44,0,.91.05,1.76.14,2.51ZM95.79,631.42c0-.94-.05-1.78-.14-2.54l-7.14,6.62c.57,2.21,1.72,3.36,3.42,3.36,2.53,0,3.86-2.55,3.86-7.44Z"/><path class="w" d="M106.64,622.61c2.96,0,5,1.9,5,4.66,0,1.72-.73,3.04-3.36,6.07l-4.23,4.89v.19h7.88v1.45h-10.24v-1.02l5.8-6.77c2.07-2.45,2.55-3.35,2.55-4.78,0-1.99-1.35-3.28-3.43-3.28s-3.41,1.39-3.41,3.55v.07h-1.58v-.07c0-2.87,2.12-4.96,5.03-4.96Z"/><path class="w" d="M116.09,635.5h1.54c.19,1.95,1.82,3.3,3.95,3.3,2.32,0,3.86-1.68,3.86-4.18s-1.56-4.25-3.86-4.25c-1.63,0-3,.76-3.69,2.04h-1.49l.88-9.45h8.84v1.44h-7.58l-.5,5.98h.18c.88-.98,2.05-1.48,3.5-1.48,3.13,0,5.32,2.34,5.32,5.68s-2.26,5.62-5.59,5.62c-3,0-5.14-1.89-5.34-4.71Z"/><path class="w" d="M146.64,639.87v-16.91h1.61v8.74h.14l7.18-8.74h2l-6.41,7.48,7.1,9.43h-2.07l-6.09-8.2-1.85,2.17v6.04h-1.61Z"/><path class="w" d="M160.76,634.5v-1.88c0-3.4,2.09-5.58,5.34-5.58s5.34,2.18,5.34,5.58v1.88c0,3.4-2.09,5.58-5.34,5.58s-5.34-2.18-5.34-5.58ZM162.3,632.83v1.48c0,2.73,1.46,4.41,3.81,4.41s3.81-1.68,3.81-4.41v-1.48c0-2.73-1.46-4.41-3.81-4.41s-3.81,1.68-3.81,4.41Z"/><path class="w" d="M175.95,622.22h1.46v7.3h.15c.69-1.59,2.17-2.48,4.12-2.48,2.75,0,4.24,1.63,4.24,4.63v8.2h-1.54v-7.82c0-2.47-1-3.63-3.12-3.63-2.26,0-3.8,1.61-3.8,3.95v7.5h-1.54v-17.65Z"/><path class="w" d="M200.97,636.75c-.42,2.02-2.34,3.33-4.89,3.33-3.4,0-5.37-2.1-5.37-5.7v-1.84c0-3.33,2.06-5.51,5.19-5.51s5.12,2.16,5.12,5.93v1h-8.78v.43c0,2.64,1.49,4.31,3.83,4.31,1.72,0,2.98-.73,3.36-1.96h1.52ZM192.25,632.7h7.22c0-2.68-1.34-4.3-3.56-4.3s-3.66,1.61-3.66,4.3Z"/><path class="w" d="M205.62,627.25h1.46v2.27h.15c.69-1.59,2.17-2.48,4.12-2.48,2.75,0,4.24,1.63,4.24,4.63v8.2h-1.54v-7.82c0-2.47-1-3.63-3.12-3.63-2.26,0-3.8,1.61-3.8,3.95v7.5h-1.54v-12.62Z"/><path class="w" d="M232.87,633.06v-1.36h14.84v1.36h-14.84Z"/><path class="w" d="M265.45,639.87h-1.5v-16.91h1.89l4.07,10.88h.13l4.04-10.88h1.9v16.91h-1.5v-13.79h-.12l-3.7,9.82h-1.38l-3.7-9.82h-.12v13.79Z"/><path class="w" d="M284,639.87v-15.46h-5.2v-1.45h12v1.45h-5.2v15.46h-1.59Z"/><path class="w" d="M300.16,622.96c3.18,0,5.3,2.11,5.3,5.26s-2.12,5.26-5.3,5.26h-3.81v6.39h-1.61v-16.91h5.41ZM296.35,632.05h3.42c2.57,0,4.05-1.41,4.05-3.83s-1.49-3.83-4.05-3.83h-3.42v7.66Z"/><path class="w" d="M321.88,633.06v-1.36h14.84v1.36h-14.84Z"/><path class="w" d="M354.17,639.87v-1.24h4.44v-10.14h-4.46v-1.24h6v11.38h4.32v1.24h-10.3ZM357.75,622.46c0-.8.66-1.45,1.45-1.45s1.45.66,1.45,1.45-.66,1.45-1.45,1.45-1.45-.66-1.45-1.45Z"/><path class="w" d="M379.79,639.87h-1.44v-8.71c0-1.82-.61-2.74-1.79-2.74-1.24,0-1.99,1.12-1.99,3v8.45h-1.44v-8.72c0-1.8-.61-2.73-1.8-2.73-1.27,0-2.04,1.14-2.04,3v8.45h-1.44v-12.62h1.39v1.69h.16c.33-1.17,1.25-1.9,2.41-1.9s2.06.7,2.33,1.9h.16c.34-1.15,1.41-1.9,2.71-1.9,1.84,0,2.78,1.28,2.78,3.77v9.06Z"/><path class="w" d="M392.29,627.25h1.95l-4.99,4.89,5.34,7.73h-1.85l-4.57-6.68-1.95,1.9v4.78h-1.54v-17.65h1.54v10.97h.14l5.93-5.94Z"/><path class="w" d="M398.14,634.5v-1.88c0-3.4,2.09-5.58,5.34-5.58s5.34,2.18,5.34,5.58v1.88c0,3.4-2.09,5.58-5.34,5.58s-5.34-2.18-5.34-5.58ZM399.67,632.83v1.48c0,2.73,1.46,4.41,3.81,4.41s3.81-1.68,3.81-4.41v-1.48c0-2.73-1.46-4.41-3.81-4.41s-3.81,1.68-3.81,4.41Z"/><path class="w" d="M413.32,622.22h1.46v7.3h.15c.69-1.59,2.17-2.48,4.12-2.48,2.75,0,4.24,1.63,4.24,4.63v8.2h-1.54v-7.82c0-2.47-1-3.63-3.12-3.63-2.26,0-3.8,1.61-3.8,3.95v7.5h-1.54v-17.65Z"/><path class="w" d="M438.34,636.75c-.42,2.02-2.34,3.33-4.89,3.33-3.4,0-5.37-2.1-5.37-5.7v-1.84c0-3.33,2.06-5.51,5.19-5.51s5.12,2.16,5.12,5.93v1h-8.78v.43c0,2.64,1.49,4.31,3.83,4.31,1.72,0,2.98-.73,3.36-1.96h1.52ZM429.62,632.7h7.22c0-2.68-1.34-4.3-3.56-4.3s-3.66,1.61-3.66,4.3Z"/><path class="w" d="M443,627.25h1.46v2.27h.15c.69-1.59,2.17-2.48,4.12-2.48,2.75,0,4.24,1.63,4.24,4.63v8.2h-1.54v-7.82c0-2.47-1-3.63-3.12-3.63-2.26,0-3.8,1.61-3.8,3.95v7.5h-1.54v-12.62Z"/><path class="w" d="M457.68,636.31c0-2.21,1.58-3.54,4.37-3.67l3.66-.16v-1.2c0-1.82-1.04-2.8-2.98-2.8-1.59,0-2.7.68-3.05,1.9h-1.52c.23-1.89,2.13-3.23,4.57-3.23,2.86,0,4.52,1.5,4.52,4.07v8.67h-1.48v-1.99h-.16c-.6,1.42-1.99,2.2-3.9,2.2-2.43,0-4.03-1.5-4.03-3.79ZM465.71,635.51v-1.76l-3.55.15c-1.89.08-2.89.93-2.89,2.4s1.08,2.43,2.82,2.43c2.04,0,3.62-1.41,3.62-3.22Z"/><path class="w" d="M482.65,639.87h-1.46v-2.27h-.15c-.69,1.59-2.17,2.48-4.12,2.48-2.75,0-4.24-1.63-4.24-4.63v-8.2h1.54v7.82c0,2.47,1,3.63,3.12,3.63,2.26,0,3.8-1.61,3.8-3.95v-7.5h1.54v12.62Z"/><path class="w" d="M492.57,627.04c2.47,0,4.22,1.28,4.49,3.27h-1.51c-.27-1.23-1.42-1.99-3.02-1.99-1.76,0-2.88.84-2.88,2.16,0,1.1.69,1.71,2.41,2.11l1.71.4c2.43.57,3.53,1.64,3.53,3.42,0,2.23-1.89,3.68-4.76,3.68s-4.59-1.3-4.83-3.38h1.59c.33,1.3,1.55,2.06,3.3,2.06,1.89,0,3.09-.89,3.09-2.27,0-1.15-.67-1.76-2.39-2.17l-1.86-.45c-2.25-.53-3.35-1.63-3.35-3.35,0-2.07,1.82-3.49,4.48-3.49Z"/><path class="w" d="M512.52,636.75c-.42,2.02-2.34,3.33-4.89,3.33-3.4,0-5.37-2.1-5.37-5.7v-1.84c0-3.33,2.06-5.51,5.19-5.51s5.12,2.16,5.12,5.93v1h-8.78v.43c0,2.64,1.49,4.31,3.83,4.31,1.72,0,2.98-.73,3.36-1.96h1.52ZM503.8,632.7h7.22c0-2.68-1.34-4.3-3.56-4.3s-3.66,1.61-3.66,4.3Z"/><path class="w" d="M521.57,638.63h4.01v1.24h-8.14v-1.24h2.6v-10.14h-2.86v-1.24h4.36v3.21h.16c.43-2.25,2.1-3.53,4.56-3.53.73,0,1.44.11,1.84.28v1.68c-.59-.21-1.39-.35-2.07-.35-2.72,0-4.45,2.2-4.45,5.66v4.43Z"/><path class="w" d="M535.06,637.93c0-1.07.88-1.95,1.95-1.95s1.95.88,1.95,1.95-.88,1.95-1.95,1.95-1.95-.88-1.95-1.95Z"/><path class="w" d="M555.4,630.96c-.26-1.5-1.65-2.54-3.38-2.54-2.4,0-3.74,1.61-3.74,4.5v1.28c0,2.89,1.34,4.5,3.74,4.5,1.72,0,3.12-1.04,3.38-2.54h1.52c-.33,2.37-2.25,3.93-4.86,3.93-3.32,0-5.31-2.11-5.31-5.62v-1.79c0-3.52,1.99-5.62,5.31-5.62,2.61,0,4.54,1.56,4.86,3.93h-1.52Z"/><path class="w" d="M561.33,634.5v-1.88c0-3.4,2.09-5.58,5.34-5.58s5.34,2.18,5.34,5.58v1.88c0,3.4-2.09,5.58-5.34,5.58s-5.34-2.18-5.34-5.58ZM562.87,632.83v1.48c0,2.73,1.46,4.41,3.81,4.41s3.81-1.68,3.81-4.41v-1.48c0-2.73-1.46-4.41-3.81-4.41s-3.81,1.68-3.81,4.41Z"/><path class="w" d="M587.49,639.87h-1.44v-8.71c0-1.82-.61-2.74-1.79-2.74-1.24,0-1.99,1.12-1.99,3v8.45h-1.44v-8.72c0-1.8-.61-2.73-1.8-2.73-1.27,0-2.04,1.14-2.04,3v8.45h-1.44v-12.62h1.39v1.69h.16c.33-1.17,1.25-1.9,2.41-1.9s2.06.7,2.33,1.9h.16c.34-1.15,1.41-1.9,2.71-1.9,1.84,0,2.78,1.28,2.78,3.77v9.06Z"/><path class="w" d="M591.45,641.03l8.33-19.23h1.46l-8.33,19.23h-1.46Z"/><path class="w" d="M617.16,639.87h-1.44v-8.71c0-1.82-.61-2.74-1.79-2.74-1.24,0-1.99,1.12-1.99,3v8.45h-1.44v-8.72c0-1.8-.61-2.73-1.8-2.73-1.27,0-2.04,1.14-2.04,3v8.45h-1.44v-12.62h1.39v1.69h.16c.33-1.17,1.25-1.9,2.41-1.9s2.06.7,2.33,1.9h.16c.34-1.15,1.41-1.9,2.71-1.9,1.84,0,2.78,1.28,2.78,3.77v9.06Z"/><path class="w" d="M625.57,623.97v3.28h5.29v1.3h-5.29v7.63c0,1.56,1.08,2.4,3.08,2.4.87,0,1.79-.04,2.2-.09v1.31c-.38.07-1.56.14-2.29.14-3.04,0-4.54-1.23-4.54-3.71v-7.68h-3.4v-1.3h3.4v-3.28h1.54Z"/><path class="w" d="M646.34,632.35v2.43c0,3.15-1.99,5.31-4.92,5.31-1.83,0-3.21-.75-3.81-2.07h-.21v6.14h-1.54v-16.9h1.46v1.82h.21c.74-1.32,2.09-2.03,3.88-2.03,2.93,0,4.92,2.16,4.92,5.31ZM637.36,632.72v1.69c0,2.61,1.46,4.3,3.71,4.3s3.73-1.7,3.73-4.3v-1.69c0-2.6-1.46-4.3-3.73-4.3s-3.71,1.69-3.71,4.3Z"/><path class="v" d="M766.76,80.46v-21.14h5.11l6.01,15.19h.09l5.99-15.19h5.13v21.14h-3.96v-14.28h-2.04l4.42-6.27-8.2,20.55h-2.78l-8.2-20.55,4.42,6.27h-2.05v14.28h-3.94Z"/><path class="v" d="M797.65,80.46v-17.49h-6.12v-3.65h16.67v3.65h-6.12v17.49h-4.42Z"/><path class="v" d="M810.65,80.46v-21.14h4.42v21.14h-4.42ZM812.87,73.8v-3.47h5.19c1.27,0,2.26-.33,2.96-.97.7-.65,1.05-1.57,1.05-2.76v-.03c0-1.21-.35-2.14-1.05-2.78-.7-.64-1.69-.96-2.96-.96h-5.19v-3.52h6.27c1.48,0,2.78.3,3.9.9,1.11.6,1.98,1.44,2.6,2.53s.93,2.35.93,3.81v.03c0,1.45-.31,2.71-.93,3.79s-1.49,1.93-2.6,2.53c-1.11.6-2.41.9-3.9.9h-6.27Z"/><path class="u" d="M840.29,85.58c-.96-1.21-1.74-2.5-2.35-3.86-.61-1.36-1.06-2.82-1.36-4.36s-.45-3.18-.45-4.92.15-3.38.45-4.92c.3-1.54.75-2.99,1.37-4.35.62-1.36,1.4-2.65,2.34-3.86h2.14c-.53.62-1.02,1.41-1.46,2.39s-.84,2.06-1.18,3.26c-.34,1.2-.6,2.44-.78,3.72-.19,1.28-.28,2.54-.28,3.76s.09,2.48.28,3.76.45,2.53.78,3.73c.34,1.2.73,2.28,1.18,3.26s.94,1.77,1.46,2.39h-2.14Z"/><path class="u" d="M850.12,80.46v-18.34h-.06l-5.6,3.9v-2.65l5.62-4.04h2.58v21.14h-2.55Z"/><path class="u" d="M865.4,80.81c-1.62,0-3.01-.44-4.17-1.33s-2.04-2.15-2.66-3.78-.92-3.56-.92-5.8v-.03c0-2.24.31-4.17.92-5.8s1.5-2.89,2.66-3.77c1.16-.88,2.55-1.33,4.17-1.33s3.01.44,4.17,1.33c1.16.88,2.05,2.14,2.67,3.77s.93,3.56.93,5.8v.03c0,2.24-.31,4.17-.93,5.8s-1.51,2.89-2.67,3.78-2.55,1.33-4.17,1.33ZM865.4,78.51c1.07,0,1.99-.35,2.76-1.05.77-.7,1.35-1.69,1.76-2.98s.61-2.82.61-4.58v-.03c0-1.77-.2-3.29-.61-4.58-.41-1.29-.99-2.27-1.76-2.97s-1.69-1.04-2.76-1.04-1.99.35-2.75,1.04-1.34,1.68-1.74,2.97c-.4,1.28-.6,2.81-.6,4.58v.03c0,1.77.2,3.3.6,4.58s.98,2.28,1.74,2.98c.76.7,1.68,1.05,2.75,1.05Z"/><path class="u" d="M888.99,64.69l1.61,1.61-12.42,12.79-1.61-1.61,12.42-12.79ZM876.56,66.3l1.61-1.61,12.42,12.79-1.61,1.61-12.42-12.79Z"/><path class="u" d="M899.75,80.46v-18.34h-.06l-5.6,3.9v-2.65l5.62-4.04h2.58v21.14h-2.55Z"/><path class="u" d="M915.03,80.81c-1.62,0-3.01-.44-4.17-1.33s-2.04-2.15-2.66-3.78-.92-3.56-.92-5.8v-.03c0-2.24.31-4.17.92-5.8s1.5-2.89,2.66-3.77c1.16-.88,2.55-1.33,4.17-1.33s3.01.44,4.17,1.33c1.16.88,2.05,2.14,2.67,3.77s.93,3.56.93,5.8v.03c0,2.24-.31,4.17-.93,5.8s-1.51,2.89-2.67,3.78-2.55,1.33-4.17,1.33ZM915.03,78.51c1.07,0,1.99-.35,2.76-1.05.77-.7,1.35-1.69,1.76-2.98s.61-2.82.61-4.58v-.03c0-1.77-.2-3.29-.61-4.58-.41-1.29-.99-2.27-1.76-2.97s-1.69-1.04-2.76-1.04-1.99.35-2.75,1.04-1.34,1.68-1.74,2.97c-.4,1.28-.6,2.81-.6,4.58v.03c0,1.77.2,3.3.6,4.58s.98,2.28,1.74,2.98c.76.7,1.68,1.05,2.75,1.05Z"/><path class="u" d="M938.39,85.88c-1.25,0-2.34-.18-3.27-.54-.93-.36-1.68-.84-2.26-1.45-.57-.61-.94-1.29-1.11-2.04l-.03-.13h2.56l.06.13c.24.55.72.98,1.41,1.3.7.32,1.56.48,2.6.48,1.34,0,2.37-.34,3.11-1.03.73-.69,1.1-1.62,1.1-2.8v-1.95h-.06c-.3.57-.69,1.05-1.17,1.46s-1.03.73-1.65.96c-.62.23-1.3.34-2.03.34-1.28,0-2.4-.32-3.38-.97-.97-.65-1.73-1.56-2.27-2.74-.54-1.18-.81-2.56-.81-4.14h0c0-1.6.28-2.97.83-4.14.55-1.17,1.32-2.07,2.29-2.72s2.11-.97,3.4-.97c.72,0,1.39.12,1.99.37s1.15.58,1.62,1.01.87.93,1.18,1.49h.06v-2.58h2.55v14.81c0,1.18-.27,2.21-.82,3.08-.55.88-1.32,1.55-2.33,2.04-1.01.48-2.2.72-3.57.72ZM938.22,78.35c.87,0,1.63-.23,2.28-.7.65-.46,1.16-1.12,1.52-1.96s.55-1.82.55-2.94h0c0-1.14-.18-2.11-.55-2.94s-.88-1.47-1.53-1.93-1.41-.69-2.27-.69-1.68.23-2.34.68c-.66.45-1.17,1.1-1.53,1.93s-.53,1.81-.53,2.94h0c0,1.17.18,2.16.53,3,.36.84.87,1.48,1.53,1.93.66.46,1.45.68,2.34.68Z"/><path class="u" d="M948.41,80.46v-15.23h2.55v2.58h.06c.25-.88.69-1.58,1.32-2.09s1.37-.78,2.23-.78c.22,0,.43.01.61.04.18.02.32.05.42.07v2.48c-.1-.04-.27-.07-.52-.1s-.53-.04-.84-.04c-.65,0-1.23.15-1.72.44s-.87.71-1.14,1.27c-.27.55-.4,1.21-.4,1.98v9.4h-2.55Z"/><path class="u" d="M959.09,62.64c-.44,0-.82-.16-1.13-.47s-.47-.69-.47-1.13.16-.83.47-1.14c.31-.31.69-.46,1.13-.46s.83.15,1.13.46c.31.31.46.69.46,1.14s-.15.82-.46,1.13-.69.47-1.13.47ZM957.82,80.46v-15.23h2.55v15.23h-2.55Z"/><path class="u" d="M969.57,80.75c-1.3,0-2.43-.32-3.41-.97-.97-.65-1.72-1.57-2.26-2.75-.54-1.19-.81-2.58-.81-4.18h0c0-1.62.27-3.01.81-4.19s1.3-2.1,2.26-2.75c.97-.65,2.09-.97,3.36-.97.72,0,1.39.12,2.01.34.62.23,1.17.56,1.66.98.49.42.89.93,1.2,1.52h.06v-8.45h2.55v21.14h-2.55v-2.58h-.06c-.31.6-.71,1.11-1.19,1.53-.48.42-1.02.75-1.63.99-.61.23-1.28.35-2.01.35ZM970.06,78.49c.86,0,1.62-.23,2.29-.7s1.18-1.13,1.56-1.98c.38-.85.56-1.84.56-2.97h0c0-1.15-.19-2.14-.57-2.98-.38-.85-.9-1.5-1.56-1.97-.66-.47-1.42-.7-2.28-.7s-1.67.23-2.33.69-1.16,1.11-1.51,1.95-.53,1.84-.53,3h0c0,1.18.18,2.18.53,3.03s.86,1.5,1.51,1.96c.65.46,1.43.68,2.33.68Z"/><path class="u" d="M981.52,85.58h-2.14c.53-.62,1.02-1.41,1.46-2.39s.84-2.07,1.18-3.27c.34-1.2.6-2.44.78-3.73.19-1.28.28-2.54.28-3.76s-.09-2.47-.28-3.76c-.19-1.29-.45-2.53-.78-3.72-.34-1.2-.73-2.28-1.18-3.26s-.94-1.77-1.46-2.39h2.14c.96,1.21,1.74,2.5,2.35,3.86.61,1.36,1.06,2.81,1.36,4.35.3,1.54.45,3.18.45,4.92s-.15,3.38-.45,4.92-.75,3-1.36,4.37c-.61,1.37-1.39,2.65-2.35,3.85Z"/><rect class="i" x="105" y="132.5" width="450" height="450"/><line class="m" x1="505" y1="282.61" x2="505" y2="432.61"/><line class="m" x1="480" y1="282.61" x2="480" y2="432.61"/><line class="m" x1="455" y1="282.61" x2="455" y2="432.61"/><line class="m" x1="430" y1="282.61" x2="430" y2="432.61"/><line class="m" x1="530" y1="282.61" x2="530" y2="432.61"/><line class="m" x1="555" y1="307.61" x2="405" y2="307.61"/><line class="m" x1="555" y1="332.61" x2="405" y2="332.61"/><line class="m" x1="555" y1="357.61" x2="405" y2="357.61"/><line class="m" x1="555" y1="382.61" x2="405" y2="382.61"/><line class="m" x1="555" y1="407.61" x2="405" y2="407.61"/><line class="g" x1="505" y1="132.72" x2="505" y2="282.72"/><line class="g" x1="480" y1="132.72" x2="480" y2="282.72"/><line class="g" x1="455" y1="132.72" x2="455" y2="282.72"/><line class="g" x1="430" y1="132.72" x2="430" y2="282.72"/><line class="g" x1="530" y1="132.72" x2="530" y2="282.72"/><line class="g" x1="555" y1="157.72" x2="405" y2="157.72"/><line class="g" x1="555" y1="182.72" x2="405" y2="182.72"/><line class="g" x1="555" y1="207.72" x2="405" y2="207.72"/><line class="g" x1="555" y1="232.72" x2="405" y2="232.72"/><line class="g" x1="555" y1="257.72" x2="405" y2="257.72"/><line class="s" x1="505" y1="432.5" x2="505" y2="582.5"/><line class="s" x1="480" y1="432.5" x2="480" y2="582.5"/><line class="s" x1="455" y1="432.5" x2="455" y2="582.5"/><line class="s" x1="430" y1="432.5" x2="430" y2="582.5"/><line class="s" x1="530" y1="432.5" x2="530" y2="582.5"/><line class="s" x1="555" y1="457.5" x2="405" y2="457.5"/><line class="s" x1="555" y1="482.5" x2="405" y2="482.5"/><line class="s" x1="555" y1="507.5" x2="405" y2="507.5"/><line class="s" x1="555" y1="532.5" x2="405" y2="532.5"/><line class="s" x1="555" y1="557.5" x2="405" y2="557.5"/><line class="d" x1="205" y1="282.61" x2="205" y2="432.61"/><line class="d" x1="180" y1="282.61" x2="180" y2="432.61"/><line class="d" x1="155" y1="282.61" x2="155" y2="432.61"/><line class="d" x1="130" y1="282.61" x2="130" y2="432.61"/><line class="d" x1="230" y1="282.61" x2="230" y2="432.61"/><line class="d" x1="255" y1="307.61" x2="105" y2="307.61"/><line class="d" x1="255" y1="332.61" x2="105" y2="332.61"/><line class="d" x1="255" y1="357.61" x2="105" y2="357.61"/><line class="d" x1="255" y1="382.61" x2="105" y2="382.61"/><line class="d" x1="255" y1="407.61" x2="105" y2="407.61"/><line class="k" x1="205" y1="132.72" x2="205" y2="282.72"/><line class="k" x1="180" y1="132.72" x2="180" y2="282.72"/><line class="k" x1="155" y1="132.72" x2="155" y2="282.72"/><line class="k" x1="130" y1="132.72" x2="130" y2="282.72"/><line class="k" x1="230" y1="132.72" x2="230" y2="282.72"/><line class="k" x1="255" y1="157.72" x2="105" y2="157.72"/><line class="k" x1="255" y1="182.72" x2="105" y2="182.72"/><line class="k" x1="255" y1="207.72" x2="105" y2="207.72"/><line class="k" x1="255" y1="232.72" x2="105" y2="232.72"/><line class="k" x1="255" y1="257.72" x2="105" y2="257.72"/><line class="r" x1="205" y1="432.5" x2="205" y2="582.5"/><line class="r" x1="180" y1="432.5" x2="180" y2="582.5"/><line class="r" x1="155" y1="432.5" x2="155" y2="582.5"/><line class="r" x1="130" y1="432.5" x2="130" y2="582.5"/><line class="r" x1="230" y1="432.5" x2="230" y2="582.5"/><line class="r" x1="255" y1="457.5" x2="105" y2="457.5"/><line class="r" x1="255" y1="482.5" x2="105" y2="482.5"/><line class="r" x1="255" y1="507.5" x2="105" y2="507.5"/><line class="r" x1="255" y1="532.5" x2="105" y2="532.5"/><line class="r" x1="255" y1="557.5" x2="105" y2="557.5"/><line class="l" x1="355" y1="132.72" x2="355" y2="282.72"/><line class="l" x1="330" y1="132.72" x2="330" y2="282.72"/><line class="l" x1="305" y1="132.72" x2="305" y2="282.72"/><line class="l" x1="280" y1="132.72" x2="280" y2="282.72"/><line class="l" x1="380" y1="132.72" x2="380" y2="282.72"/><line class="l" x1="405" y1="157.72" x2="255" y2="157.72"/><line class="l" x1="405" y1="182.72" x2="255" y2="182.72"/><line class="l" x1="405" y1="207.72" x2="255" y2="207.72"/><line class="l" x1="405" y1="232.72" x2="255" y2="232.72"/><line class="l" x1="405" y1="257.72" x2="255" y2="257.72"/><line class="h" x1="355" y1="432.5" x2="355" y2="582.5"/><line class="h" x1="330" y1="432.5" x2="330" y2="582.5"/><line class="h" x1="305" y1="432.5" x2="305" y2="582.5"/><line class="h" x1="280" y1="432.5" x2="280" y2="582.5"/><line class="h" x1="380" y1="432.5" x2="380" y2="582.5"/><line class="h" x1="405" y1="457.5" x2="255" y2="457.5"/><line class="h" x1="405" y1="482.5" x2="255" y2="482.5"/><line class="h" x1="405" y1="507.5" x2="255" y2="507.5"/><line class="h" x1="405" y1="532.5" x2="255" y2="532.5"/><line class="h" x1="405" y1="557.5" x2="255" y2="557.5"/><rect class="t" x="255" y="282.5" width="150" height="150"/><rect class="x" x="330" y="282.5" width="25" height="25"/><rect class="x" x="380" y="332.5" width="25" height="25"/><rect class="x" x="380" y="382.5" width="25" height="25"/><rect class="x" x="380" y="282.5" width="25" height="25"/><rect class="x" x="355" y="407.5" width="25" height="25"/><rect class="x" x="305" y="407.5" width="25" height="25"/><rect class="x" x="280" y="282.5" width="25" height="25"/><rect class="x" x="255" y="407.5" width="25" height="25"/><rect class="x" x="255" y="357.5" width="25" height="25"/><rect class="x" x="255" y="307.5" width="25" height="25"/><rect class="x" x="355" y="307.5" width="25" height="25"/><rect class="x" x="305" y="307.5" width="25" height="25"/><rect class="x" x="330" y="332.5" width="25" height="25"/><rect class="x" x="280" y="332.5" width="25" height="25"/><rect class="x" x="355" y="357.5" width="25" height="25"/><rect class="x" x="305" y="357.5" width="25" height="25"/><rect class="x" x="330" y="382.5" width="25" height="25"/><rect class="x" x="280" y="382.5" width="25" height="25"/><rect class="f" x="105" y="132.5" width="450" height="450"/><line class="f" x1="105" y1="282.5" x2="555" y2="282.5"/><line class="f" x1="105" y1="432.5" x2="555" y2="432.5"/><line class="f" x1="255" y1="582.5" x2="255" y2="132.5"/><line class="f" x1="405" y1="582.5" x2="405" y2="132.5"/><path class="u" d="M83.05,136.11v-.75h2.79v-7.38h-.09l-2.72,1.75v-.96l2.82-1.82h.86v8.41h2.66v.75h-6.31Z"/><path class="u" d="M85.87,151.76c1.61,0,2.71,1.03,2.71,2.53,0,.93-.39,1.64-1.82,3.29l-2.29,2.65v.1h4.27v.79h-5.55v-.55l3.14-3.67c1.12-1.33,1.38-1.82,1.38-2.59,0-1.08-.73-1.78-1.86-1.78s-1.85.75-1.85,1.92v.04h-.86v-.04c0-1.56,1.15-2.68,2.72-2.68Z"/><path class="u" d="M84.82,181.01h.97c1.07,0,1.83-.75,1.83-1.79s-.73-1.69-1.81-1.69-1.78.65-1.89,1.71h-.87c.13-1.53,1.2-2.47,2.8-2.47s2.69.98,2.69,2.35c0,1.11-.56,1.9-1.54,2.15v.1c1.21.17,1.93,1.04,1.93,2.31,0,1.52-1.28,2.63-3.01,2.63s-2.96-1.02-3.05-2.53h.83c.11,1.07.98,1.77,2.19,1.77,1.33,0,2.16-.71,2.16-1.85s-.86-1.93-2.21-1.93h-1.03v-.75Z"/><path class="u" d="M87.14,209.09h-4.2v-.67l3.23-6.47h.89l-3.21,6.33v.06h3.29v-2.75h.79v2.72h1.45v.77h-1.47v2.03h-.78v-2.03Z"/><path class="u" d="M82.95,233.75h.83c.1,1.05.98,1.79,2.14,1.79,1.26,0,2.09-.91,2.09-2.27s-.84-2.3-2.09-2.3c-.88,0-1.62.41-2,1.11h-.81l.48-5.12h4.79v.78h-4.11l-.27,3.24h.1c.48-.53,1.11-.8,1.9-.8,1.69,0,2.88,1.27,2.88,3.08s-1.22,3.05-3.03,3.05c-1.62,0-2.79-1.02-2.89-2.55Z"/><path class="u" d="M85.93,261.3c-1.71,0-2.96-1.28-2.96-3.01,0-1.05.36-2.01,1.22-3.27l2.1-3.07h1.01l-2.57,3.61c-.28.41-.22.32-.26.39l.08.06c.25-.37.95-.67,1.54-.67,1.64,0,2.85,1.22,2.85,2.89,0,1.8-1.24,3.07-3,3.07ZM88.1,258.28c0-1.28-.93-2.27-2.15-2.27s-2.15.99-2.15,2.27.93,2.27,2.15,2.27,2.15-.99,2.15-2.27Z"/><path class="u" d="M88.08,277.8v-.07h-5.08v-.78h5.97v.81l-4.2,8.35h-.93l4.23-8.31Z"/><path class="u" d="M82.89,308.67c0-1.14.72-2.08,1.82-2.34v-.09c-.89-.27-1.45-1.06-1.45-2.06,0-1.42,1.13-2.42,2.72-2.42s2.72,1,2.72,2.42c0,1.01-.55,1.79-1.45,2.06v.09c1.07.22,1.82,1.18,1.82,2.34,0,1.55-1.28,2.65-3.08,2.65s-3.09-1.1-3.09-2.65ZM88.21,308.62c0-1.14-.91-1.92-2.23-1.92s-2.23.79-2.23,1.92.91,1.92,2.23,1.92,2.23-.79,2.23-1.92ZM87.85,304.23c0-1.02-.74-1.69-1.87-1.69s-1.87.67-1.87,1.69.74,1.69,1.87,1.69,1.87-.67,1.87-1.69Z"/><path class="u" d="M85.92,326.76c1.71,0,2.96,1.28,2.96,3.01,0,1.02-.36,1.96-1.25,3.27l-2.09,3.07h-1.01l2.57-3.61c.19-.27.22-.32.27-.39l-.08-.06c-.25.38-.93.67-1.51.67-1.64,0-2.85-1.23-2.85-2.89,0-1.8,1.24-3.07,3-3.07ZM83.75,329.79c0,1.28.93,2.27,2.15,2.27s2.15-.99,2.15-2.27-.93-2.27-2.15-2.27-2.15.99-2.15,2.27Z"/><path class="u" d="M79.03,361.11v-.75h2.79v-7.38h-.09l-2.72,1.75v-.96l2.82-1.82h.86v8.41h2.66v.75h-6.31Z"/><path class="u" d="M87,356.54c0-3.1,1.05-4.79,2.96-4.79s2.96,1.7,2.96,4.79-1.05,4.79-2.96,4.79-2.96-1.69-2.96-4.79ZM87.95,357.89l3.87-3.54c-.31-1.22-.93-1.85-1.86-1.85-1.37,0-2.09,1.38-2.09,4.03,0,.49.03.95.08,1.36ZM92.05,356.54c0-.51-.03-.96-.08-1.38l-3.87,3.59c.31,1.2.93,1.82,1.85,1.82,1.37,0,2.09-1.38,2.09-4.03Z"/><path class="u" d="M79.03,386.11v-.75h2.79v-7.38h-.09l-2.72,1.75v-.96l2.82-1.82h.86v8.41h2.66v.75h-6.31Z"/><path class="u" d="M87.07,386.11v-.75h2.79v-7.38h-.1l-2.72,1.75v-.96l2.82-1.82h.86v8.41h2.66v.75h-6.31Z"/><path class="u" d="M79.03,411.11v-.75h2.79v-7.38h-.09l-2.72,1.75v-.96l2.82-1.82h.86v8.41h2.66v.75h-6.31Z"/><path class="u" d="M89.89,401.76c1.61,0,2.71,1.03,2.71,2.53,0,.93-.39,1.64-1.82,3.29l-2.29,2.65v.1h4.27v.79h-5.55v-.55l3.14-3.67c1.12-1.33,1.38-1.82,1.38-2.59,0-1.08-.73-1.78-1.86-1.78s-1.85.75-1.85,1.92v.04h-.86v-.04c0-1.56,1.15-2.68,2.72-2.68Z"/><path class="u" d="M79.03,436.11v-.75h2.79v-7.38h-.09l-2.72,1.75v-.96l2.82-1.82h.86v8.41h2.66v.75h-6.31Z"/><path class="u" d="M88.84,431.01h.97c1.07,0,1.83-.75,1.83-1.79s-.73-1.69-1.81-1.69-1.78.65-1.89,1.71h-.87c.13-1.53,1.2-2.47,2.81-2.47s2.68.98,2.68,2.35c0,1.11-.57,1.9-1.54,2.15v.1c1.21.17,1.93,1.04,1.93,2.31,0,1.52-1.28,2.63-3.02,2.63s-2.96-1.02-3.05-2.53h.83c.11,1.07.98,1.77,2.19,1.77,1.33,0,2.16-.71,2.16-1.85s-.86-1.93-2.21-1.93h-1.03v-.75Z"/><path class="u" d="M79.03,461.11v-.75h2.79v-7.38h-.09l-2.72,1.75v-.96l2.82-1.82h.86v8.41h2.66v.75h-6.31Z"/><path class="u" d="M91.15,459.09h-4.2v-.67l3.23-6.47h.89l-3.21,6.33v.06h3.29v-2.75h.79v2.72h1.45v.77h-1.47v2.03h-.78v-2.03Z"/><path class="u" d="M79.03,486.11v-.75h2.79v-7.38h-.09l-2.72,1.75v-.96l2.82-1.82h.86v8.41h2.66v.75h-6.31Z"/><path class="u" d="M86.97,483.75h.83c.1,1.05.98,1.79,2.14,1.79,1.26,0,2.09-.91,2.09-2.27s-.84-2.3-2.09-2.3c-.88,0-1.62.41-2,1.11h-.81l.48-5.12h4.79v.78h-4.11l-.27,3.24h.09c.48-.53,1.11-.8,1.9-.8,1.7,0,2.88,1.27,2.88,3.08s-1.23,3.05-3.03,3.05c-1.62,0-2.79-1.02-2.89-2.55Z"/><path class="u" d="M79.03,511.11v-.75h2.79v-7.38h-.09l-2.72,1.75v-.96l2.82-1.82h.86v8.41h2.66v.75h-6.31Z"/><path class="u" d="M89.95,511.3c-1.71,0-2.96-1.28-2.96-3.01,0-1.05.36-2.01,1.22-3.27l2.09-3.07h1.01l-2.57,3.61c-.28.41-.22.32-.26.39l.08.06c.25-.37.95-.67,1.54-.67,1.64,0,2.85,1.22,2.85,2.89,0,1.8-1.24,3.07-3,3.07ZM92.12,508.28c0-1.28-.93-2.27-2.15-2.27s-2.15.99-2.15,2.27.93,2.27,2.15,2.27,2.15-.99,2.15-2.27Z"/><path class="u" d="M79.03,536.11v-.75h2.79v-7.38h-.09l-2.72,1.75v-.96l2.82-1.82h.86v8.41h2.66v.75h-6.31Z"/><path class="u" d="M92.09,527.8v-.07h-5.08v-.78h5.97v.81l-4.2,8.35h-.93l4.23-8.31Z"/><path class="u" d="M79.03,561.11v-.75h2.79v-7.38h-.09l-2.72,1.75v-.96l2.82-1.82h.86v8.41h2.66v.75h-6.31Z"/><path class="u" d="M86.91,558.67c0-1.14.72-2.08,1.81-2.34v-.09c-.89-.27-1.45-1.06-1.45-2.06,0-1.42,1.13-2.42,2.72-2.42s2.72,1,2.72,2.42c0,1.01-.54,1.79-1.45,2.06v.09c1.07.22,1.82,1.18,1.82,2.34,0,1.55-1.28,2.65-3.09,2.65s-3.08-1.1-3.08-2.65ZM92.23,558.62c0-1.14-.91-1.92-2.23-1.92s-2.23.79-2.23,1.92.91,1.92,2.23,1.92,2.23-.79,2.23-1.92ZM91.87,554.23c0-1.02-.74-1.69-1.87-1.69s-1.87.67-1.87,1.69.74,1.69,1.87,1.69,1.87-.67,1.87-1.69Z"/><path class="u" d="M79.03,586.11v-.75h2.79v-7.38h-.09l-2.72,1.75v-.96l2.82-1.82h.86v8.41h2.66v.75h-6.31Z"/><path class="u" d="M89.94,576.76c1.71,0,2.96,1.28,2.96,3.01,0,1.02-.36,1.96-1.25,3.27l-2.1,3.07h-1.01l2.57-3.61c.19-.27.22-.32.27-.39l-.08-.06c-.25.38-.93.67-1.51.67-1.64,0-2.85-1.23-2.85-2.89,0-1.8,1.24-3.07,3-3.07ZM87.77,579.79c0,1.28.93,2.27,2.15,2.27s2.15-.99,2.15-2.27-.93-2.27-2.15-2.27-2.15.99-2.15,2.27Z"/><path class="u" d="M552.27,116.73c.11,1.01.91,1.64,2.1,1.64s2-.66,2-1.66c0-.81-.53-1.31-1.74-1.62l-.66-.17c-1.59-.42-2.29-1.14-2.29-2.35,0-1.38,1.06-2.27,2.69-2.27,1.54,0,2.59.88,2.67,2.24h-.8c-.12-.96-.81-1.51-1.87-1.51-1.17,0-1.87.57-1.87,1.54,0,.79.5,1.26,1.68,1.56l.69.18c1.65.43,2.33,1.13,2.33,2.4,0,1.44-1.12,2.39-2.82,2.39s-2.8-.91-2.9-2.37h.8Z"/><path class="u" d="M106.81,116.34h-3.07l-.83,2.59h-.82l2.79-8.46h.79l2.79,8.46h-.82l-.83-2.59ZM103.95,115.64h2.64l-1.31-4.12h-.01l-1.31,4.12Z"/><path class="u" d="M527.55,115.44v3.49h-.79v-8.46h2.75c1.61,0,2.63.96,2.63,2.47,0,1.11-.63,2.02-1.61,2.31l1.73,3.67h-.9l-1.61-3.49h-2.22ZM527.55,114.75h1.86c1.25,0,1.95-.63,1.95-1.77s-.68-1.79-1.89-1.79h-1.92v3.56Z"/><path class="u" d="M505.81,118.77c-.41.22-.88.33-1.42.33-1.88,0-3.04-1.37-3.04-3.7v-1.4c0-2.33,1.16-3.7,3.04-3.7s3.04,1.37,3.04,3.7v1.4c0,1.29-.36,2.29-1,2.92l1.05,1.59h-.92l-.76-1.14ZM505.38,118.13l-1.25-1.9h.92l.93,1.41c.42-.5.64-1.27.64-2.24v-1.4c0-1.88-.86-2.96-2.24-2.96s-2.24,1.08-2.24,2.96v1.4c0,1.88.86,2.96,2.24,2.96.38,0,.71-.08,1-.23Z"/><path class="u" d="M479.7,110.47c1.59,0,2.65,1.05,2.65,2.63s-1.06,2.63-2.65,2.63h-1.9v3.19h-.8v-8.46h2.71ZM477.8,115.02h1.71c1.28,0,2.03-.7,2.03-1.92s-.74-1.92-2.03-1.92h-1.71v3.83Z"/><path class="u" d="M454.49,119.1c-1.88,0-3.04-1.37-3.04-3.7v-1.4c0-2.33,1.16-3.7,3.04-3.7s3.04,1.37,3.04,3.7v1.4c0,2.33-1.16,3.7-3.04,3.7ZM456.73,115.4v-1.4c0-1.88-.86-2.96-2.24-2.96s-2.24,1.08-2.24,2.96v1.4c0,1.88.86,2.96,2.24,2.96s2.24-1.08,2.24-2.96Z"/><path class="u" d="M426.79,118.93v-8.46h.81l3.88,7.02h.08v-7.02h.75v8.46h-.8l-3.9-7.03h-.08v7.03h-.75Z"/><path class="u" d="M402.35,118.93h-.75v-8.46h.94l2.03,5.44h.06l2.02-5.44h.95v8.46h-.75v-6.9h-.06l-1.85,4.91h-.69l-1.85-4.91h-.06v6.9Z"/><path class="u" d="M382.48,118.93h-4.92v-8.46h.8v7.73h4.12v.73Z"/><path class="u" d="M352.4,118.93v-8.46h.8v4.37h.07l3.59-4.37h1l-3.21,3.74,3.55,4.72h-1.04l-3.05-4.1-.93,1.08v3.02h-.8Z"/><path class="u" d="M327.17,116.99h.8c.04.81.67,1.37,1.55,1.37,1.03,0,1.61-.64,1.61-1.76v-5.43h-2.86v-.69h3.66v6.15c0,1.54-.91,2.48-2.4,2.48-1.37,0-2.34-.87-2.35-2.11Z"/><path class="u" d="M302.73,118.93v-.69h1.7v-7.07h-1.7v-.69h4.2v.69h-1.7v7.07h1.7v.69h-4.2Z"/><path class="u" d="M281.82,118.93v-3.97h-3.87v3.97h-.8v-8.46h.8v3.76h3.87v-3.76h.8v8.46h-.8Z"/><path class="u" d="M257.11,115.43h-2.09v-.71h2.89v1.82c0,1.51-1.18,2.57-2.83,2.57-1.95,0-3.07-1.35-3.07-3.7v-1.4c0-2.35,1.12-3.7,3.07-3.7,1.72,0,2.79,1.05,2.84,2.76h-.8c-.05-1.2-.87-2.02-2.03-2.02-1.49,0-2.27,1.02-2.27,2.96v1.4c0,1.94.78,2.96,2.27,2.96,1.25,0,2.03-.74,2.03-1.94v-.99Z"/><path class="u" d="M227.85,118.93v-8.46h4.86v.73h-4.05v3.18h3.71v.71h-3.71v3.84h-.8Z"/><path class="u" d="M207.62,118.93h-4.86v-8.46h4.86v.73h-4.06v3.04h3.84v.71h-3.84v3.25h4.06v.73Z"/><path class="u" d="M179.66,110.47c2.4,0,3.6,1.41,3.6,4.23s-1.2,4.22-3.6,4.22h-2.24v-8.46h2.24ZM178.22,118.2h1.39c1.92,0,2.83-1.12,2.83-3.5s-.91-3.5-2.83-3.5h-1.39v7Z"/><path class="u" d="M157.39,116.52h.8c0,1.51-1.18,2.58-2.84,2.58-1.95,0-3.07-1.35-3.07-3.7v-1.4c0-2.35,1.12-3.7,3.07-3.7,1.72,0,2.8,1.05,2.84,2.76h-.8c-.05-1.2-.87-2.02-2.04-2.02-1.49,0-2.27,1.02-2.27,2.96v1.4c0,1.94.78,2.96,2.27,2.96,1.22,0,2-.7,2.03-1.84Z"/><path class="u" d="M127.7,118.93v-8.46h2.6c1.54,0,2.46.78,2.46,2.09,0,.94-.59,1.71-1.43,1.86v.08c1.14.13,1.86.94,1.86,2.09,0,1.48-1.06,2.34-2.88,2.34h-2.61ZM128.5,114.2h1.45c1.3,0,1.99-.53,1.99-1.51s-.66-1.51-1.8-1.51h-1.65v3.02ZM130.2,118.22c1.41,0,2.17-.59,2.17-1.67s-.76-1.65-2.21-1.65h-1.65v3.32h1.69Z"/><path class="v" d="M109.13,80.46v-21.14h5.11l6.01,15.19h.09l5.99-15.19h5.13v21.14h-3.96v-14.28h-2.04l4.42-6.27-8.2,20.55h-2.78l-8.2-20.55,4.42,6.27h-2.05v14.28h-3.94Z"/><path class="v" d="M138.95,80.7c-1.04,0-1.97-.2-2.76-.61-.8-.4-1.42-.97-1.86-1.68-.44-.72-.67-1.54-.67-2.45v-.03c0-.96.24-1.77.72-2.45.48-.68,1.17-1.21,2.09-1.6.91-.39,2.02-.63,3.32-.72l6.12-.38v2.67l-5.48.37c-.82.05-1.45.24-1.88.57s-.64.78-.64,1.33v.03c0,.58.22,1.03.66,1.36.44.33,1.03.49,1.77.49.63,0,1.2-.12,1.71-.37.5-.25.9-.59,1.19-1.03.29-.44.43-.92.43-1.46v-4.78c0-.69-.22-1.24-.66-1.64s-1.08-.6-1.92-.6-1.44.16-1.9.49c-.47.33-.76.75-.86,1.25l-.03.13h-3.93v-.18c.1-.97.43-1.83.99-2.58.56-.75,1.34-1.34,2.34-1.77,1-.42,2.19-.64,3.57-.64s2.53.22,3.53.65c1,.43,1.77,1.05,2.32,1.84.55.79.83,1.71.83,2.77v10.77h-4.28v-2.33h-.09c-.3.53-.68.99-1.14,1.38s-.98.69-1.58.89c-.59.21-1.23.31-1.91.31Z"/><path class="v" d="M150.7,85.58v-20.83h4.28v2.74h.1c.28-.63.66-1.18,1.12-1.64.46-.46,1.01-.81,1.62-1.05.62-.24,1.3-.37,2.04-.37,1.33,0,2.47.32,3.43.97.96.65,1.69,1.58,2.21,2.8s.78,2.68.78,4.38h0c0,1.71-.26,3.17-.77,4.39-.51,1.22-1.24,2.16-2.19,2.81s-2.08.98-3.4.98c-.74,0-1.43-.12-2.07-.37s-1.19-.59-1.66-1.03c-.47-.45-.85-.98-1.14-1.6h-.09v7.81h-4.28ZM158.47,77.23c.71,0,1.33-.19,1.85-.56.52-.38.92-.91,1.19-1.6.28-.69.42-1.51.42-2.46h0c0-.97-.14-1.79-.42-2.48-.28-.69-.68-1.22-1.2-1.59s-1.13-.56-1.83-.56-1.3.19-1.83.56c-.53.38-.94.91-1.23,1.6s-.44,1.51-.44,2.46h0c0,.95.15,1.77.45,2.46.3.69.71,1.23,1.23,1.6.52.38,1.13.56,1.82.56Z"/><path class="v" d="M168.5,85.58v-20.83h4.28v2.74h.1c.28-.63.66-1.18,1.12-1.64.46-.46,1.01-.81,1.63-1.05.62-.24,1.3-.37,2.04-.37,1.33,0,2.47.32,3.43.97.96.65,1.69,1.58,2.21,2.8s.78,2.68.78,4.38h0c0,1.71-.26,3.17-.77,4.39-.51,1.22-1.24,2.16-2.19,2.81s-2.08.98-3.4.98c-.74,0-1.43-.12-2.07-.37s-1.19-.59-1.66-1.03c-.47-.45-.85-.98-1.14-1.6h-.09v7.81h-4.28ZM176.26,77.23c.71,0,1.33-.19,1.85-.56.52-.38.92-.91,1.19-1.6.28-.69.42-1.51.42-2.46h0c0-.97-.14-1.79-.42-2.48-.28-.69-.68-1.22-1.2-1.59s-1.13-.56-1.83-.56-1.3.19-1.83.56c-.53.38-.94.91-1.23,1.6s-.44,1.51-.44,2.46h0c0,.95.15,1.77.45,2.46.3.69.71,1.23,1.23,1.6.52.38,1.13.56,1.82.56Z"/><path class="v" d="M188.52,62.75c-.64,0-1.19-.22-1.63-.67s-.67-.97-.67-1.57.22-1.14.67-1.57c.45-.44.99-.65,1.63-.65s1.19.22,1.63.65c.44.43.66.96.66,1.57s-.22,1.13-.66,1.57c-.44.45-.98.67-1.63.67ZM186.37,80.46v-15.7h4.29v15.7h-4.29Z"/><path class="v" d="M193.52,80.46v-15.7h4.28v2.58h.09c.41-.9,1.02-1.61,1.82-2.12s1.79-.78,2.97-.78c1.73,0,3.06.52,4.01,1.56.94,1.04,1.41,2.48,1.41,4.33v10.14h-4.28v-9.24c0-1.03-.24-1.82-.73-2.39-.48-.57-1.2-.85-2.16-.85-.63,0-1.19.15-1.66.44s-.83.7-1.09,1.22c-.26.52-.39,1.12-.39,1.8v9.02h-4.28Z"/><path class="v" d="M218.14,85.9c-1.44,0-2.69-.2-3.76-.59-1.07-.39-1.92-.93-2.55-1.6-.63-.67-1.01-1.43-1.15-2.27l-.03-.13h4.17l.04.1c.18.38.54.72,1.1,1.01s1.28.44,2.17.44c1.1,0,1.94-.26,2.52-.79s.86-1.23.86-2.09v-2.42h-.09c-.27.55-.65,1.02-1.12,1.42-.47.4-1.03.71-1.65.93-.63.22-1.32.33-2.07.33-1.31,0-2.44-.31-3.4-.94s-1.69-1.52-2.2-2.69c-.51-1.17-.77-2.56-.77-4.18h0c0-1.68.26-3.12.78-4.31.52-1.19,1.27-2.1,2.23-2.74.96-.63,2.1-.95,3.42-.95.74,0,1.42.12,2.04.37s1.15.59,1.62,1.04c.46.45.84.98,1.12,1.6h.1v-2.68h4.28v15.26c0,1.16-.31,2.19-.93,3.07-.62.88-1.5,1.58-2.65,2.07-1.15.5-2.51.75-4.08.75ZM218.07,77.1c.7,0,1.31-.19,1.83-.56s.92-.9,1.21-1.58c.29-.68.43-1.49.43-2.43h0c0-.94-.14-1.75-.43-2.42-.29-.68-.69-1.2-1.21-1.57-.52-.37-1.13-.56-1.82-.56s-1.32.18-1.85.55c-.53.37-.93.89-1.22,1.57-.28.68-.42,1.49-.42,2.42h0c0,.95.14,1.76.42,2.45s.69,1.21,1.22,1.58,1.14.56,1.85.56Z"/><path class="v" d="M240.78,80.78c-1.74,0-3.03-.37-3.87-1.1s-1.26-1.94-1.26-3.62v-8.09h-2.18v-3.22h2.18v-3.84h4.32v3.84h2.87v3.22h-2.87v7.62c0,.73.16,1.24.49,1.53.33.29.81.43,1.46.43.2,0,.37,0,.51-.02.15-.02.28-.03.41-.05v3.13c-.23.04-.52.08-.87.11-.35.03-.74.05-1.19.05Z"/><path class="v" d="M245.3,80.46v-21.14h4.28v8.14h.09c.41-.98,1.02-1.73,1.84-2.25.81-.52,1.81-.78,2.98-.78s2.12.25,2.94.75c.82.5,1.45,1.21,1.9,2.13.44.92.67,2.01.67,3.28v9.86h-4.29v-8.98c0-1.09-.26-1.95-.78-2.57-.52-.62-1.26-.93-2.24-.93-.62,0-1.17.15-1.63.45-.46.3-.82.71-1.08,1.23-.26.52-.39,1.12-.39,1.81v8.99h-4.28Z"/><path class="v" d="M269.88,80.78c-1.6,0-2.98-.33-4.13-.99-1.15-.66-2.04-1.6-2.67-2.82s-.94-2.67-.94-4.34h0c0-1.68.31-3.13.94-4.36.62-1.23,1.5-2.17,2.63-2.84,1.13-.67,2.46-1,3.99-1s2.86.32,3.98.97c1.12.65,1.98,1.56,2.59,2.75.61,1.18.92,2.56.92,4.15v1.33h-12.93v-2.71h10.91l-2.04,2.53v-1.66c0-.92-.14-1.69-.42-2.31-.28-.62-.68-1.09-1.18-1.4-.5-.31-1.09-.47-1.75-.47s-1.25.16-1.77.48c-.51.32-.91.79-1.2,1.41-.29.62-.43,1.38-.43,2.28v1.67c0,.86.14,1.6.43,2.21.29.62.7,1.09,1.24,1.41.54.33,1.18.49,1.92.49.59,0,1.09-.09,1.52-.28s.78-.42,1.05-.7.46-.57.56-.86l.03-.09h3.93l-.04.16c-.12.58-.35,1.16-.69,1.74s-.8,1.12-1.38,1.61c-.58.49-1.29.88-2.12,1.17-.83.29-1.81.44-2.94.44Z"/><path class="v" d="M285.69,80.46v-21.14h4.42v21.14h-4.42ZM287.91,73.8v-3.47h5.19c1.27,0,2.26-.33,2.96-.97.7-.65,1.05-1.57,1.05-2.76v-.03c0-1.21-.35-2.14-1.05-2.78-.7-.64-1.69-.96-2.96-.96h-5.19v-3.52h6.27c1.48,0,2.78.3,3.9.9,1.11.6,1.98,1.44,2.6,2.53.62,1.08.93,2.35.93,3.81v.03c0,1.45-.31,2.71-.93,3.79-.62,1.08-1.49,1.93-2.6,2.53-1.11.6-2.41.9-3.9.9h-6.27Z"/><path class="v" d="M303.85,80.46v-15.7h4.28v2.74h.09c.23-.97.66-1.72,1.27-2.26s1.38-.81,2.3-.81c.23,0,.46.01.67.04s.4.07.56.12v3.78c-.18-.08-.4-.14-.67-.18-.27-.04-.57-.07-.88-.07-.7,0-1.3.14-1.8.41s-.88.67-1.14,1.2-.4,1.17-.4,1.93v8.79h-4.28Z"/><path class="v" d="M321.46,80.78c-1.59,0-2.97-.32-4.13-.97-1.16-.65-2.06-1.59-2.7-2.81-.64-1.22-.96-2.69-.96-4.39v-.03c0-1.69.32-3.14.97-4.36.65-1.22,1.55-2.15,2.72-2.81s2.52-.98,4.09-.98,2.94.32,4.11.97c1.17.65,2.07,1.58,2.72,2.8.64,1.22.97,2.67.97,4.37v.03c0,1.71-.32,3.17-.96,4.39-.64,1.22-1.54,2.16-2.7,2.8-1.16.65-2.53.97-4.12.97ZM321.47,77.42c.69,0,1.29-.19,1.8-.56.51-.38.9-.92,1.18-1.64.28-.72.42-1.59.42-2.62v-.03c0-1.01-.14-1.87-.42-2.59-.28-.72-.68-1.26-1.19-1.64-.51-.38-1.12-.56-1.81-.56s-1.28.19-1.79.57c-.51.38-.91.93-1.19,1.64s-.42,1.57-.42,2.58v.03c0,1.03.14,1.9.42,2.62.28.72.68,1.26,1.19,1.64.52.38,1.13.56,1.83.56Z"/><path class="v" d="M331.43,80.46v-15.7h4.28v2.64h.09c.32-.9.87-1.62,1.65-2.15.78-.54,1.69-.81,2.75-.81.73,0,1.39.13,1.98.38s1.08.62,1.49,1.1c.41.48.69,1.06.86,1.76h.09c.23-.66.59-1.24,1.06-1.72.47-.48,1.04-.86,1.68-1.12.65-.26,1.36-.4,2.13-.4,1.03,0,1.92.22,2.7.66s1.37,1.05,1.8,1.85.64,1.72.64,2.78v10.74h-4.28v-9.65c0-.62-.1-1.13-.3-1.55-.2-.41-.49-.73-.86-.95-.38-.22-.84-.33-1.4-.33s-1.01.12-1.41.37c-.41.25-.72.59-.95,1.03s-.34.95-.34,1.54v9.54h-4.12v-9.79c0-.57-.1-1.05-.31-1.45s-.5-.71-.87-.92c-.38-.21-.83-.32-1.35-.32s-1.01.13-1.42.39c-.41.26-.73.61-.96,1.06-.23.45-.34.97-.34,1.55v9.48h-4.28Z"/><path class="v" d="M357.33,85.58v-20.83h4.28v2.74h.1c.28-.63.66-1.18,1.12-1.64.46-.46,1.01-.81,1.62-1.05.62-.24,1.3-.37,2.04-.37,1.33,0,2.47.32,3.43.97.96.65,1.69,1.58,2.21,2.8s.78,2.68.78,4.38h0c0,1.71-.26,3.17-.77,4.39-.51,1.22-1.24,2.16-2.19,2.81s-2.08.98-3.4.98c-.74,0-1.43-.12-2.07-.37s-1.19-.59-1.66-1.03c-.47-.45-.85-.98-1.14-1.6h-.09v7.81h-4.28ZM365.1,77.23c.71,0,1.33-.19,1.85-.56.52-.38.92-.91,1.19-1.6.28-.69.42-1.51.42-2.46h0c0-.97-.14-1.79-.42-2.48-.28-.69-.68-1.22-1.2-1.59s-1.13-.56-1.83-.56-1.3.19-1.83.56c-.53.38-.94.91-1.23,1.6s-.44,1.51-.44,2.46h0c0,.95.15,1.77.45,2.46.3.69.71,1.23,1.23,1.6.52.38,1.13.56,1.82.56Z"/><path class="v" d="M381.37,80.78c-1.74,0-3.03-.37-3.87-1.1s-1.26-1.94-1.26-3.62v-8.09h-2.18v-3.22h2.18v-3.84h4.32v3.84h2.87v3.22h-2.87v7.62c0,.73.16,1.24.49,1.53.33.29.81.43,1.46.43.2,0,.37,0,.51-.02.15-.02.28-.03.41-.05v3.13c-.23.04-.52.08-.87.11-.35.03-.74.05-1.19.05Z"/><path class="u" d="M397.28,85.58c-.96-1.21-1.74-2.5-2.35-3.86-.61-1.36-1.06-2.82-1.36-4.36-.3-1.54-.45-3.18-.45-4.92s.15-3.38.45-4.92c.3-1.54.75-2.99,1.37-4.35.62-1.36,1.4-2.65,2.34-3.86h2.14c-.53.62-1.02,1.41-1.46,2.39s-.84,2.06-1.18,3.26c-.34,1.2-.6,2.44-.78,3.72-.19,1.28-.28,2.54-.28,3.76s.09,2.48.28,3.76.45,2.53.78,3.73c.34,1.2.73,2.28,1.18,3.26s.94,1.77,1.46,2.39h-2.14Z"/><path class="u" d="M407.11,80.46v-18.34h-.06l-5.6,3.9v-2.65l5.62-4.04h2.58v21.14h-2.55Z"/><path class="u" d="M422.46,58.97c.98,0,1.94.18,2.89.55.95.37,1.81.96,2.59,1.78.78.82,1.4,1.9,1.86,3.24.46,1.34.7,3,.7,4.96v.03c0,2.37-.33,4.4-.97,6.09-.65,1.69-1.58,2.97-2.81,3.86s-2.7,1.33-4.42,1.33c-1.19,0-2.27-.21-3.24-.64s-1.77-1.03-2.42-1.79c-.64-.77-1.08-1.66-1.32-2.69l-.04-.19h2.68l.06.16c.21.58.52,1.08.92,1.5.4.42.88.75,1.45.98.57.23,1.22.34,1.94.34,1.32,0,2.38-.38,3.19-1.14.8-.76,1.4-1.77,1.79-3.02.38-1.26.6-2.62.64-4.09,0-.1.01-.19.01-.29v-.29l-.63-3.47c0-.91-.21-1.73-.64-2.46-.43-.73-1-1.32-1.73-1.75-.73-.43-1.55-.65-2.45-.65s-1.71.21-2.45.64c-.73.42-1.31,1-1.74,1.72s-.64,1.53-.64,2.42v.03c0,.92.21,1.73.62,2.45s.98,1.27,1.7,1.68c.72.4,1.55.61,2.48.61s1.76-.2,2.49-.6,1.31-.95,1.74-1.66c.42-.7.64-1.5.64-2.4h0s.88-.01.88-.01v3.59h-.31c-.28.62-.7,1.19-1.26,1.71-.56.51-1.23.92-2.01,1.23-.79.31-1.66.46-2.61.46-1.34,0-2.54-.3-3.6-.91s-1.89-1.44-2.5-2.49c-.61-1.05-.92-2.25-.92-3.59v-.03c0-1.39.32-2.62.97-3.7.65-1.08,1.54-1.93,2.66-2.55,1.12-.62,2.41-.93,3.85-.93Z"/><path class="u" d="M446.29,64.69l1.61,1.61-12.42,12.79-1.61-1.61,12.42-12.79ZM433.87,66.3l1.61-1.61,12.42,12.79-1.61,1.61-12.42-12.79Z"/><path class="u" d="M457.06,80.46v-18.34h-.06l-5.6,3.9v-2.65l5.62-4.04h2.58v21.14h-2.55Z"/><path class="u" d="M472.41,58.97c.98,0,1.94.18,2.89.55.95.37,1.81.96,2.59,1.78.78.82,1.4,1.9,1.86,3.24.46,1.34.7,3,.7,4.96v.03c0,2.37-.33,4.4-.97,6.09-.65,1.69-1.58,2.97-2.81,3.86s-2.7,1.33-4.42,1.33c-1.19,0-2.27-.21-3.24-.64s-1.77-1.03-2.42-1.79c-.64-.77-1.08-1.66-1.32-2.69l-.04-.19h2.68l.06.16c.21.58.52,1.08.92,1.5.4.42.88.75,1.45.98.57.23,1.22.34,1.94.34,1.32,0,2.38-.38,3.19-1.14.8-.76,1.4-1.77,1.79-3.02.38-1.26.6-2.62.64-4.09,0-.1.01-.19.01-.29v-.29l-.63-3.47c0-.91-.21-1.73-.64-2.46-.43-.73-1-1.32-1.73-1.75-.73-.43-1.55-.65-2.45-.65s-1.71.21-2.45.64c-.73.42-1.31,1-1.74,1.72s-.64,1.53-.64,2.42v.03c0,.92.21,1.73.62,2.45s.98,1.27,1.7,1.68c.72.4,1.55.61,2.48.61s1.76-.2,2.49-.6,1.31-.95,1.74-1.66c.42-.7.64-1.5.64-2.4h0s.88-.01.88-.01v3.59h-.31c-.28.62-.7,1.19-1.26,1.71-.56.51-1.23.92-2.01,1.23-.79.31-1.66.46-2.61.46-1.34,0-2.54-.3-3.6-.91s-1.89-1.44-2.5-2.49c-.61-1.05-.92-2.25-.92-3.59v-.03c0-1.39.32-2.62.97-3.7.65-1.08,1.54-1.93,2.66-2.55,1.12-.62,2.41-.93,3.85-.93Z"/><path class="u" d="M496.02,85.88c-1.25,0-2.34-.18-3.27-.54-.93-.36-1.68-.84-2.26-1.45-.57-.61-.94-1.29-1.11-2.04l-.03-.13h2.56l.06.13c.24.55.71.98,1.41,1.3.7.32,1.57.48,2.6.48,1.34,0,2.37-.34,3.11-1.03.73-.69,1.1-1.62,1.1-2.8v-1.95h-.06c-.3.57-.69,1.05-1.17,1.46s-1.03.73-1.65.96c-.62.23-1.3.34-2.03.34-1.28,0-2.41-.32-3.38-.97-.97-.65-1.73-1.56-2.27-2.74-.54-1.18-.81-2.56-.81-4.14h0c0-1.6.28-2.97.83-4.14.55-1.17,1.32-2.07,2.29-2.72s2.11-.97,3.4-.97c.72,0,1.39.12,1.99.37s1.14.58,1.62,1.01.87.93,1.18,1.49h.06v-2.58h2.55v14.81c0,1.18-.27,2.21-.82,3.08-.55.88-1.32,1.55-2.33,2.04-1.01.48-2.2.72-3.57.72ZM495.85,78.35c.87,0,1.63-.23,2.28-.7.65-.46,1.16-1.12,1.52-1.96.37-.84.55-1.82.55-2.94h0c0-1.14-.18-2.11-.55-2.94-.37-.83-.88-1.47-1.53-1.93s-1.41-.69-2.27-.69-1.68.23-2.34.68c-.66.45-1.17,1.1-1.53,1.93-.36.83-.54,1.81-.54,2.94h0c0,1.17.18,2.16.54,3,.36.84.87,1.48,1.53,1.93.66.46,1.45.68,2.34.68Z"/><path class="u" d="M506.04,80.46v-15.23h2.55v2.58h.06c.25-.88.69-1.58,1.32-2.09s1.37-.78,2.23-.78c.22,0,.43.01.61.04.18.02.32.05.42.07v2.48c-.1-.04-.27-.07-.52-.1-.25-.03-.53-.04-.84-.04-.65,0-1.23.15-1.72.44-.49.29-.88.71-1.14,1.27-.27.55-.4,1.21-.4,1.98v9.4h-2.55Z"/><path class="u" d="M516.72,62.64c-.44,0-.82-.16-1.13-.47s-.47-.69-.47-1.13.16-.83.47-1.14c.31-.31.69-.46,1.13-.46s.83.15,1.14.46c.31.31.46.69.46,1.14s-.15.82-.46,1.13c-.31.31-.69.47-1.14.47ZM515.45,80.46v-15.23h2.55v15.23h-2.55Z"/><path class="u" d="M527.2,80.75c-1.3,0-2.43-.32-3.41-.97-.97-.65-1.73-1.57-2.26-2.75-.54-1.19-.81-2.58-.81-4.18h0c0-1.62.27-3.01.81-4.19.54-1.18,1.3-2.1,2.26-2.75.97-.65,2.08-.97,3.35-.97.72,0,1.39.12,2.01.34.62.23,1.17.56,1.66.98.49.42.89.93,1.2,1.52h.06v-8.45h2.55v21.14h-2.55v-2.58h-.06c-.31.6-.71,1.11-1.19,1.53-.48.42-1.02.75-1.63.99s-1.28.35-2.01.35ZM527.69,78.49c.86,0,1.62-.23,2.29-.7s1.18-1.13,1.56-1.98c.38-.85.56-1.84.56-2.97h0c0-1.15-.19-2.14-.57-2.98-.38-.85-.9-1.5-1.56-1.97-.66-.47-1.42-.7-2.28-.7s-1.67.23-2.33.69-1.16,1.11-1.51,1.95-.53,1.84-.53,3h0c0,1.18.18,2.18.53,3.03s.85,1.5,1.51,1.96c.65.46,1.43.68,2.33.68Z"/><path class="u" d="M539.15,85.58h-2.14c.53-.62,1.02-1.41,1.46-2.39s.84-2.07,1.18-3.27c.34-1.2.6-2.44.78-3.73.19-1.28.28-2.54.28-3.76s-.09-2.47-.28-3.76c-.19-1.29-.45-2.53-.78-3.72-.34-1.2-.73-2.28-1.18-3.26s-.94-1.77-1.46-2.39h2.14c.96,1.21,1.74,2.5,2.35,3.86.61,1.36,1.06,2.81,1.36,4.35.3,1.54.45,3.18.45,4.92s-.15,3.38-.45,4.92-.75,3-1.36,4.37c-.61,1.37-1.39,2.65-2.35,3.85Z"/><rect class="i" x="655" y="132.5" width="450" height="450"/><line class="d" x1="755" y1="282.61" x2="755" y2="432.61"/><line class="d" x1="705" y1="282.61" x2="705" y2="432.61"/><line class="d" x1="805" y1="382.61" x2="655" y2="382.61"/><line class="d" x1="805" y1="332.61" x2="655" y2="332.61"/><line class="m" x1="1055" y1="282.61" x2="1055" y2="432.61"/><line class="m" x1="1005" y1="282.61" x2="1005" y2="432.61"/><line class="m" x1="1105" y1="382.61" x2="955" y2="382.61"/><line class="m" x1="1105" y1="332.61" x2="955" y2="332.61"/><line class="h" x1="905" y1="432.5" x2="905" y2="582.5"/><line class="h" x1="855" y1="432.5" x2="855" y2="582.5"/><line class="h" x1="955" y1="532.5" x2="805" y2="532.5"/><line class="h" x1="955" y1="482.5" x2="805" y2="482.5"/><line class="s" x1="1055" y1="432.5" x2="1055" y2="582.5"/><line class="s" x1="1005" y1="432.5" x2="1005" y2="582.5"/><line class="s" x1="1105" y1="532.5" x2="955" y2="532.5"/><line class="s" x1="1105" y1="482.5" x2="955" y2="482.5"/><line class="r" x1="755" y1="432.5" x2="755" y2="582.5"/><line class="r" x1="705" y1="432.5" x2="705" y2="582.5"/><line class="r" x1="805" y1="532.5" x2="655" y2="532.5"/><line class="r" x1="805" y1="482.5" x2="655" y2="482.5"/><line class="g" x1="1055" y1="132.72" x2="1055" y2="282.72"/><line class="g" x1="1005" y1="132.72" x2="1005" y2="282.72"/><line class="g" x1="1105" y1="232.72" x2="955" y2="232.72"/><line class="g" x1="1105" y1="182.72" x2="955" y2="182.72"/><line class="k" x1="755" y1="132.72" x2="755" y2="282.72"/><line class="k" x1="705" y1="132.72" x2="705" y2="282.72"/><line class="k" x1="805" y1="182.72" x2="655" y2="182.72"/><line class="k" x1="805" y1="232.72" x2="655" y2="232.72"/><line class="l" x1="855" y1="132.72" x2="855" y2="282.72"/><line class="l" x1="905" y1="132.72" x2="905" y2="282.72"/><line class="l" x1="955" y1="182.72" x2="805" y2="182.72"/><line class="l" x1="955" y1="232.72" x2="805" y2="232.72"/><rect class="f" x="655" y="132.5" width="450" height="450"/><path class="u" d="M633.05,136.11v-.75h2.79v-7.38h-.09l-2.72,1.75v-.96l2.82-1.82h.86v8.41h2.66v.75h-6.31Z"/><path class="u" d="M635.87,176.76c1.61,0,2.71,1.03,2.71,2.53,0,.93-.39,1.64-1.82,3.29l-2.29,2.65v.1h4.27v.79h-5.55v-.55l3.14-3.67c1.12-1.33,1.38-1.82,1.38-2.59,0-1.08-.73-1.78-1.86-1.78s-1.85.75-1.85,1.92v.04h-.86v-.04c0-1.56,1.15-2.68,2.72-2.68Z"/><path class="u" d="M634.82,231.01h.97c1.07,0,1.83-.75,1.83-1.79s-.73-1.69-1.81-1.69-1.78.65-1.89,1.71h-.87c.13-1.53,1.2-2.47,2.8-2.47s2.69.98,2.69,2.35c0,1.11-.56,1.9-1.54,2.15v.1c1.21.17,1.93,1.04,1.93,2.31,0,1.52-1.28,2.63-3.01,2.63s-2.96-1.02-3.05-2.53h.83c.11,1.07.98,1.77,2.19,1.77,1.33,0,2.16-.71,2.16-1.85s-.86-1.93-2.21-1.93h-1.03v-.75Z"/><path class="u" d="M637.14,284.09h-4.2v-.67l3.23-6.47h.89l-3.21,6.33v.06h3.29v-2.75h.79v2.72h1.45v.77h-1.47v2.03h-.78v-2.03Z"/><path class="u" d="M632.95,333.75h.83c.1,1.05.98,1.79,2.14,1.79,1.26,0,2.09-.91,2.09-2.27s-.84-2.3-2.09-2.3c-.88,0-1.62.41-2,1.11h-.81l.48-5.12h4.79v.78h-4.11l-.27,3.24h.1c.48-.53,1.11-.8,1.9-.8,1.69,0,2.88,1.27,2.88,3.08s-1.22,3.05-3.03,3.05c-1.62,0-2.79-1.02-2.89-2.55Z"/><path class="u" d="M635.93,386.3c-1.71,0-2.96-1.28-2.96-3.01,0-1.05.36-2.01,1.22-3.27l2.1-3.07h1.01l-2.57,3.61c-.28.41-.22.32-.26.39l.08.06c.25-.37.95-.67,1.54-.67,1.64,0,2.85,1.22,2.85,2.89,0,1.8-1.24,3.07-3,3.07ZM638.1,383.28c0-1.28-.93-2.27-2.15-2.27s-2.15.99-2.15,2.27.93,2.27,2.15,2.27,2.15-.99,2.15-2.27Z"/><path class="u" d="M638.08,427.8v-.07h-5.08v-.78h5.97v.81l-4.2,8.35h-.93l4.23-8.31Z"/><path class="u" d="M632.89,483.67c0-1.14.72-2.08,1.82-2.34v-.09c-.89-.27-1.45-1.06-1.45-2.06,0-1.42,1.13-2.42,2.72-2.42s2.72,1,2.72,2.42c0,1.01-.55,1.79-1.45,2.06v.09c1.07.22,1.82,1.18,1.82,2.34,0,1.55-1.28,2.65-3.08,2.65s-3.09-1.1-3.09-2.65ZM638.21,483.62c0-1.14-.91-1.92-2.23-1.92s-2.23.79-2.23,1.92.91,1.92,2.23,1.92,2.23-.79,2.23-1.92ZM637.85,479.23c0-1.02-.74-1.69-1.87-1.69s-1.87.67-1.87,1.69.74,1.69,1.87,1.69,1.87-.67,1.87-1.69Z"/><path class="u" d="M635.92,526.76c1.71,0,2.96,1.28,2.96,3.01,0,1.02-.36,1.96-1.25,3.27l-2.09,3.07h-1.01l2.57-3.61c.19-.27.22-.32.27-.39l-.08-.06c-.25.38-.93.67-1.51.67-1.64,0-2.85-1.23-2.85-2.89,0-1.8,1.24-3.07,3-3.07ZM633.75,529.79c0,1.28.93,2.27,2.15,2.27s2.15-.99,2.15-2.27-.93-2.27-2.15-2.27-2.15.99-2.15,2.27Z"/><path class="u" d="M629.03,586.11v-.75h2.79v-7.38h-.09l-2.72,1.75v-.96l2.82-1.82h.86v8.41h2.66v.75h-6.31Z"/><path class="u" d="M637,581.54c0-3.1,1.05-4.79,2.96-4.79s2.96,1.7,2.96,4.79-1.05,4.79-2.96,4.79-2.96-1.69-2.96-4.79ZM637.95,582.89l3.87-3.54c-.31-1.22-.93-1.85-1.86-1.85-1.37,0-2.09,1.38-2.09,4.03,0,.49.03.95.08,1.36ZM642.05,581.54c0-.51-.03-.96-.08-1.38l-3.87,3.59c.31,1.2.93,1.82,1.85,1.82,1.37,0,2.09-1.38,2.09-4.03Z"/><path class="u" d="M1101.67,116.99h.8c.04.81.67,1.37,1.55,1.37,1.03,0,1.61-.64,1.61-1.76v-5.43h-2.86v-.69h3.66v6.15c0,1.54-.91,2.48-2.4,2.48-1.37,0-2.34-.87-2.35-2.11Z"/><path class="u" d="M656.81,116.34h-3.07l-.83,2.59h-.82l2.79-8.46h.79l2.79,8.46h-.82l-.83-2.59ZM653.95,115.64h2.64l-1.31-4.12h-.01l-1.31,4.12Z"/><path class="u" d="M1052.28,118.93v-.69h1.7v-7.07h-1.7v-.69h4.2v.69h-1.7v7.07h1.7v.69h-4.2Z"/><path class="u" d="M1006.43,118.93v-3.97h-3.87v3.97h-.8v-8.46h.8v3.76h3.87v-3.76h.8v8.46h-.8Z"/><path class="u" d="M956.78,115.43h-2.09v-.71h2.89v1.82c0,1.51-1.18,2.57-2.83,2.57-1.95,0-3.07-1.35-3.07-3.7v-1.4c0-2.35,1.12-3.7,3.07-3.7,1.72,0,2.79,1.05,2.84,2.76h-.8c-.05-1.2-.87-2.02-2.03-2.02-1.49,0-2.27,1.02-2.27,2.96v1.4c0,1.94.78,2.96,2.27,2.96,1.25,0,2.03-.74,2.03-1.94v-.99Z"/><path class="u" d="M902.58,118.93v-8.46h4.86v.73h-4.05v3.18h3.71v.71h-3.71v3.84h-.8Z"/><path class="u" d="M857.4,118.93h-4.86v-8.46h4.86v.73h-4.06v3.04h3.84v.71h-3.84v3.25h4.06v.73Z"/><path class="u" d="M804.49,110.47c2.4,0,3.6,1.41,3.6,4.23s-1.2,4.22-3.6,4.22h-2.24v-8.46h2.24ZM803.05,118.2h1.39c1.92,0,2.83-1.12,2.83-3.5s-.91-3.5-2.83-3.5h-1.39v7Z"/><path class="u" d="M757.27,116.52h.8c0,1.51-1.18,2.58-2.84,2.58-1.95,0-3.07-1.35-3.07-3.7v-1.4c0-2.35,1.12-3.7,3.07-3.7,1.72,0,2.8,1.05,2.84,2.76h-.8c-.05-1.2-.87-2.02-2.04-2.02-1.49,0-2.27,1.02-2.27,2.96v1.4c0,1.94.78,2.96,2.27,2.96,1.22,0,2-.7,2.03-1.84Z"/><path class="u" d="M702.65,118.93v-8.46h2.6c1.54,0,2.46.78,2.46,2.09,0,.94-.59,1.71-1.43,1.86v.08c1.14.13,1.86.94,1.86,2.09,0,1.48-1.06,2.34-2.88,2.34h-2.61ZM703.45,114.2h1.45c1.3,0,1.99-.53,1.99-1.51s-.66-1.51-1.8-1.51h-1.65v3.02ZM705.14,118.22c1.41,0,2.17-.59,2.17-1.67s-.76-1.65-2.21-1.65h-1.65v3.32h1.69Z"/><rect class="t" x="805" y="282.5" width="150" height="150"/><rect class="x" x="855" y="282.55" width="50" height="50"/><rect class="x" x="805" y="332.55" width="50" height="50"/><rect class="x" x="855" y="382.55" width="50" height="50"/><rect class="x" x="905" y="332.55" width="50" height="50"/><line class="f" x1="655" y1="282.5" x2="1105" y2="282.5"/><line class="f" x1="805" y1="582.5" x2="805" y2="132.5"/><line class="f" x1="955" y1="582.5" x2="955" y2="132.5"/><line class="f" x1="655" y1="432.5" x2="1105" y2="432.5"/></g><g id="c"><polyline class="n" points="1056 334 981.5 451.5 856.5 483.5"/><line class="n" x1="1055" y1="533" x2="981.5" y2="451.5"/><rect class="q" x="931.5" y="401.5" width="100" height="100" rx="50" ry="50" transform="translate(1433 -530) rotate(90)"/><rect class="o" x="1030.5" y="308.5" width="50" height="50" rx="25" ry="25" transform="translate(1389 -722) rotate(90)"/><rect class="e" x="831" y="458" width="50" height="50" rx="25" ry="25" transform="translate(1339 -373) rotate(90)"/><rect class="j" x="1030" y="508" width="50" height="50" rx="25" ry="25" transform="translate(1588 -522) rotate(90)"/><path class="y" d="M819.92,627.43h-4.17v-1.43h5.78v3.63c0,3.01-2.36,5.14-5.66,5.14-3.89,0-6.14-2.71-6.14-7.41v-2.8c0-4.7,2.25-7.41,6.14-7.41,3.43,0,5.59,2.1,5.67,5.52h-1.61c-.09-2.4-1.73-4.03-4.07-4.03-2.98,0-4.54,2.04-4.54,5.92v2.8c0,3.88,1.56,5.92,4.54,5.92,2.5,0,4.05-1.49,4.05-3.88v-1.98Z"/><path class="y" d="M825.6,634.43v-1.24h4.44v-10.14h-4.46v-1.24h6v11.38h4.32v1.24h-10.3ZM829.19,617.01c0-.8.66-1.45,1.45-1.45s1.45.66,1.45,1.45-.66,1.45-1.45,1.45-1.45-.66-1.45-1.45Z"/><path class="y" d="M840.45,633.25l7.73-10.01v-.14h-7.72v-1.3h9.56v1.18l-7.71,10v.14h7.72v1.3h-9.59v-1.17Z"/><path class="y" d="M866.05,634.43h-1.44v-8.71c0-1.82-.61-2.74-1.79-2.74-1.24,0-1.99,1.12-1.99,3v8.45h-1.44v-8.72c0-1.8-.61-2.73-1.8-2.73-1.27,0-2.04,1.14-2.04,3v8.45h-1.44v-12.62h1.39v1.69h.16c.33-1.17,1.25-1.9,2.41-1.9s2.06.7,2.33,1.9h.16c.34-1.15,1.41-1.9,2.71-1.9,1.84,0,2.78,1.28,2.78,3.77v9.06Z"/><path class="y" d="M869.57,629.06v-1.88c0-3.4,2.09-5.58,5.34-5.58s5.34,2.18,5.34,5.58v1.88c0,3.4-2.09,5.58-5.34,5.58s-5.34-2.18-5.34-5.58ZM871.11,627.38v1.48c0,2.73,1.46,4.41,3.81,4.41s3.81-1.68,3.81-4.41v-1.48c0-2.73-1.46-4.41-3.81-4.41s-3.81,1.68-3.81,4.41Z"/><path class="y" d="M893.78,616.26h1.5c-2.38,3.22-3.41,6.15-3.41,9.7s1.03,6.48,3.41,9.7h-1.5c-2.26-2.6-3.42-5.89-3.42-9.7s1.16-7.1,3.42-9.7Z"/><path class="y" d="M902.47,616.78h1.46v7.3h.15c.69-1.59,2.17-2.48,4.12-2.48,2.75,0,4.24,1.63,4.24,4.63v8.2h-1.54v-7.82c0-2.47-1-3.63-3.12-3.63-2.26,0-3.8,1.61-3.8,3.95v7.5h-1.54v-17.65Z"/><path class="y" d="M917.16,630.86c0-2.21,1.58-3.54,4.37-3.67l3.66-.16v-1.2c0-1.82-1.04-2.8-2.98-2.8-1.59,0-2.7.68-3.05,1.9h-1.52c.23-1.89,2.13-3.23,4.57-3.23,2.86,0,4.52,1.5,4.52,4.07v8.67h-1.48v-1.99h-.16c-.6,1.42-1.99,2.2-3.9,2.2-2.43,0-4.03-1.5-4.03-3.79ZM925.19,630.07v-1.76l-3.55.15c-1.89.08-2.89.93-2.89,2.4s1.08,2.43,2.82,2.43c2.04,0,3.62-1.41,3.62-3.22Z"/><path class="y" d="M932.15,621.81h1.46v2.27h.15c.69-1.59,2.17-2.48,4.12-2.48,2.75,0,4.24,1.63,4.24,4.63v8.2h-1.54v-7.82c0-2.47-1-3.63-3.12-3.63-2.26,0-3.8,1.61-3.8,3.95v7.5h-1.54v-12.62Z"/><path class="y" d="M946.49,629.33v-2.43c0-3.15,1.99-5.31,4.92-5.31,1.83,0,3.21.75,3.81,2.07h.21v-6.89h1.54v17.65h-1.46v-1.82h-.21c-.74,1.32-2.09,2.03-3.88,2.03-2.93,0-4.92-2.16-4.92-5.31ZM955.47,628.97v-1.69c0-2.61-1.46-4.3-3.71-4.3s-3.73,1.7-3.73,4.3v1.69c0,2.6,1.46,4.3,3.73,4.3s3.71-1.69,3.71-4.3Z"/><path class="y" d="M962.01,634.43v-1.24h4.44v-15.16h-4.46v-1.24h6v16.41h4.32v1.24h-10.3Z"/><path class="y" d="M986.84,631.31c-.42,2.02-2.34,3.33-4.89,3.33-3.4,0-5.37-2.1-5.37-5.7v-1.84c0-3.33,2.06-5.51,5.19-5.51s5.12,2.16,5.12,5.93v1h-8.78v.43c0,2.64,1.49,4.31,3.83,4.31,1.72,0,2.98-.73,3.36-1.96h1.52ZM978.12,627.25h7.22c0-2.68-1.34-4.3-3.56-4.3s-3.66,1.61-3.66,4.3Z"/><path class="y" d="M995.33,635.67h-1.5c2.38-3.22,3.41-6.15,3.41-9.7s-1.03-6.48-3.41-9.7h1.5c2.26,2.6,3.42,5.89,3.42,9.7s-1.16,7.1-3.42,9.7Z"/><line class="p" x1="911" y1="606" x2="950.25" y2="516.15"/><polygon class="y" points="958.22 522.82 956 503 939.95 514.83 958.22 522.82"/><path class="y" d="M1095.49,397.77h1.63l-5.58,16.91h-1.57l-5.58-16.91h1.63l4.72,14.81h.02l4.72-14.81Z"/><path class="y" d="M1110.78,411.56c-.42,2.02-2.34,3.33-4.89,3.33-3.4,0-5.37-2.1-5.37-5.7v-1.84c0-3.33,2.06-5.51,5.19-5.51s5.12,2.16,5.12,5.93v1h-8.78v.43c0,2.64,1.49,4.31,3.83,4.31,1.72,0,2.98-.73,3.36-1.96h1.52ZM1102.06,407.5h7.22c0-2.68-1.34-4.3-3.56-4.3s-3.66,1.61-3.66,4.3Z"/><path class="y" d="M1119.83,413.43h4.01v1.24h-8.14v-1.24h2.6v-10.14h-2.86v-1.24h4.36v3.21h.16c.43-2.25,2.1-3.53,4.56-3.53.73,0,1.44.11,1.84.28v1.68c-.59-.21-1.39-.35-2.07-.35-2.72,0-4.45,2.2-4.45,5.66v4.43Z"/><path class="y" d="M1134.81,398.77v3.28h5.29v1.3h-5.29v7.63c0,1.56,1.08,2.4,3.08,2.4.87,0,1.79-.04,2.2-.09v1.31c-.38.07-1.56.14-2.29.14-3.04,0-4.54-1.23-4.54-3.71v-7.68h-3.4v-1.3h3.4v-3.28h1.54Z"/><path class="y" d="M1155.29,411.56c-.42,2.02-2.34,3.33-4.89,3.33-3.4,0-5.37-2.1-5.37-5.7v-1.84c0-3.33,2.06-5.51,5.19-5.51s5.12,2.16,5.12,5.93v1h-8.78v.43c0,2.64,1.49,4.31,3.83,4.31,1.72,0,2.98-.73,3.36-1.96h1.52ZM1146.57,407.5h7.22c0-2.68-1.34-4.3-3.56-4.3s-3.66,1.61-3.66,4.3Z"/><path class="y" d="M1164.85,409.52l-3.45,5.16h-1.76l4.45-6.35-4.49-6.27h1.85l3.43,5.04h.14l3.41-5.04h1.77l-4.43,6.21,4.48,6.41h-1.84l-3.43-5.16h-.14Z"/><line class="p" x1="1128" y1="429" x2="1078.93" y2="503.04"/><polygon class="y" points="1072.23 495.1 1071 515 1088.85 506.11 1072.23 495.1"/></g></svg>