<?xml version="1.0" encoding="UTF-8"?><svg xmlns="http://www.w3.org/2000/svg" viewBox="0 0 1200 675"><defs><style>.d,.e,.f,.g,.h,.i,.j,.k,.l,.m,.n,.o,.p,.q,.r,.s,.t,.u,.v{fill:none;}.e{stroke:#7a0000;}.e,.f,.w,.g,.h,.i,.j,.k,.l,.m,.n,.x,.p,.q,.r,.y,.z,.s,.t,.u,.aa,.ab,.ac,.ad,.ae,.v,.af{stroke-miterlimit:10;}.f{stroke:green;}.w,.m,.y,.z,.aa,.ab,.ac,.ad,.ae,.af{stroke:#3d444d;}.w,.y,.aa,.ab,.ac,.ad,.ae,.af{stroke-width:2px;}.w,.ag{fill:#c9d1d9;}.g{stroke:#300352;}.h{stroke:#670067;}.i{stroke:#003d00;}.j{stroke:#003a52;}.ah{fill:#30363d;}.k,.x{stroke:#2f353d;}.k,.x,.z{stroke-width:3px;}.l{stroke:#f0f;}.n{stroke:#0067c0;}.o{stroke:#f0883e;stroke-linejoin:round;stroke-width:8px;}.x,.ai{fill:#0d1117;}.p{stroke:#ffd400;}.q{stroke:red;}.aj,.z{fill:#fff;}.ak{fill:#21262d;}.r{stroke:#f0f6fc;}.al{fill:#9199a1;}.am{fill:#484f58;}.an{fill:#2f353d;}.y{fill:red;}.s{stroke:#001f41;}.t{stroke:#00aeef;}.u{stroke:#6a0dad;}.ao,.ab{fill:#f0f6fc;}.aa{fill:#003d00;}.ac{fill:#0067c0;}.ad{fill:green;}.ap{fill:#f0883e;}.ae{fill:#ffd400;}.v{stroke:#413500;}.af{fill:#00aeef;}</style></defs><g id="a"><rect width="1200" height="675"/></g><g id="b"><rect class="x" x="105" y="132.5" width="450" height="450"/><line class="r" x1="505" y1="282.61" x2="505" y2="432.61"/><line class="r" x1="480" y1="282.61" x2="480" y2="432.61"/><line class="r" x1="455" y1="282.61" x2="455" y2="432.61"/><line class="r" x1="430" y1="282.61" x2="430" y2="432.61"/><line class="r" x1="530" y1="282.61" x2="530" y2="432.61"/><line class="r" x1="555" y1="307.61" x2="405" y2="307.61"/><line class="r" x1="555" y1="332.61" x2="405" y2="332.61"/><line class="r" x1="555" y1="357.61" x2="405" y2="357.61"/><line class="r" x1="555" y1="382.61" x2="405" y2="382.61"/><line class="r" x1="555" y1="407.61" x2="405" y2="407.61"/><line class="l" x1="505" y1="132.72" x2="505" y2="282.72"/><line class="l" x1="480" y1="132.72" x2="480" y2="282.72"/><line class="l" x1="455" y1="132.72" x2="455" y2="282.72"/><line class="l" x1="430" y1="132.72" x2="430" y2="282.72"/><line class="l" x1="530" y1="132.72" x2="530" y2="282.72"/><line class="l" x1="555" y1="157.72" x2="405" y2="157.72"/><line class="l" x1="555" y1="182.72" x2="405" y2="182.72"/><line class="l" x1="555" y1="207.72" x2="405" y2="207.72"/><line class="l" x1="555" y1="232.72" x2="405" y2="232.72"/><line class="l" x1="555" y1="257.72" x2="405" y2="257.72"/><line class="u" x1="505" y1="432.5" x2="505" y2="582.5"/><line class="u" x1="480" y1="432.5" x2="480" y2="582.5"/><line class="u" x1="455" y1="432.5" x2="455" y2="582.5"/><line class="u" x1="430" y1="432.5" x2="430" y2="582.5"/><line class="u" x1="530" y1="432.5" x2="530" y2="582.5"/><line class="u" x1="555" y1="457.5" x2="405" y2="457.5"/><line class="u" x1="555" y1="482.5" x2="405" y2="482.5"/><line class="u" x1="555" y1="507.5" x2="405" y2="507.5"/><line class="u" x1="555" y1="532.5" x2="405" y2="532.5"/><line class="u" x1="555" y1="557.5" x2="405" y2="557.5"/><line class="f" x1="205" y1="282.61" x2="205" y2="432.61"/><line class="f" x1="180" y1="282.61" x2="180" y2="432.61"/><line class="f" x1="155" y1="282.61" x2="155" y2="432.61"/><line class="f" x1="130" y1="282.61" x2="130" y2="432.61"/><line class="f" x1="230" y1="282.61" x2="230" y2="432.61"/><line class="f" x1="255" y1="307.61" x2="105" y2="307.61"/><line class="f" x1="255" y1="332.61" x2="105" y2="332.61"/><line class="f" x1="255" y1="357.61" x2="105" y2="357.61"/><line class="f" x1="255" y1="382.61" x2="105" y2="382.61"/><line class="f" x1="255" y1="407.61" x2="105" y2="407.61"/><line class="p" x1="205" y1="132.72" x2="205" y2="282.72"/><line class="p" x1="180" y1="132.72" x2="180" y2="282.72"/><line class="p" x1="155" y1="132.72" x2="155" y2="282.72"/><line class="p" x1="130" y1="132.72" x2="130" y2="282.72"/><line class="p" x1="230" y1="132.72" x2="230" y2="282.72"/><line class="p" x1="255" y1="157.72" x2="105" y2="157.72"/><line class="p" x1="255" y1="182.72" x2="105" y2="182.72"/><line class="p" x1="255" y1="207.72" x2="105" y2="207.72"/><line class="p" x1="255" y1="232.72" x2="105" y2="232.72"/><line class="p" x1="255" y1="257.72" x2="105" y2="257.72"/><line class="t" x1="205" y1="432.5" x2="205" y2="582.5"/><line class="t" x1="180" y1="432.5" x2="180" y2="582.5"/><line class="t" x1="155" y1="432.5" x2="155" y2="582.5"/><line class="t" x1="130" y1="432.5" x2="130" y2="582.5"/><line class="t" x1="230" y1="432.5" x2="230" y2="582.5"/><line class="t" x1="255" y1="457.5" x2="105" y2="457.5"/><line class="t" x1="255" y1="482.5" x2="105" y2="482.5"/><line class="t" x1="255" y1="507.5" x2="105" y2="507.5"/><line class="t" x1="255" y1="532.5" x2="105" y2="532.5"/><line class="t" x1="255" y1="557.5" x2="105" y2="557.5"/><line class="q" x1="355" y1="132.72" x2="355" y2="282.72"/><line class="q" x1="330" y1="132.72" x2="330" y2="282.72"/><line class="q" x1="305" y1="132.72" x2="305" y2="282.72"/><line class="q" x1="280" y1="132.72" x2="280" y2="282.72"/><line class="q" x1="380" y1="132.72" x2="380" y2="282.72"/><line class="q" x1="405" y1="157.72" x2="255" y2="157.72"/><line class="q" x1="405" y1="182.72" x2="255" y2="182.72"/><line class="q" x1="405" y1="207.72" x2="255" y2="207.72"/><line class="q" x1="405" y1="232.72" x2="255" y2="232.72"/><line class="q" x1="405" y1="257.72" x2="255" y2="257.72"/><line class="n" x1="355" y1="432.5" x2="355" y2="582.5"/><line class="n" x1="330" y1="432.5" x2="330" y2="582.5"/><line class="n" x1="305" y1="432.5" x2="305" y2="582.5"/><line class="n" x1="280" y1="432.5" x2="280" y2="582.5"/><line class="n" x1="380" y1="432.5" x2="380" y2="582.5"/><line class="n" x1="405" y1="457.5" x2="255" y2="457.5"/><line class="n" x1="405" y1="482.5" x2="255" y2="482.5"/><line class="n" x1="405" y1="507.5" x2="255" y2="507.5"/><line class="n" x1="405" y1="532.5" x2="255" y2="532.5"/><line class="n" x1="405" y1="557.5" x2="255" y2="557.5"/><rect class="aj" x="255" y="282.5" width="150" height="150"/><rect class="ag" x="330" y="282.5" width="25" height="25"/><rect class="ag" x="380" y="332.5" width="25" height="25"/><rect class="ag" x="380" y="382.5" width="25" height="25"/><rect class="ag" x="380" y="282.5" width="25" height="25"/><rect class="ag" x="355" y="407.5" width="25" height="25"/><rect class="ag" x="305" y="407.5" width="25" height="25"/><rect class="ag" x="280" y="282.5" width="25" height="25"/><rect class="ag" x="255" y="407.5" width="25" height="25"/><rect class="ag" x="255" y="357.5" width="25" height="25"/><rect class="ag" x="255" y="307.5" width="25" height="25"/><rect class="ag" x="355" y="307.5" width="25" height="25"/><rect class="ag" x="305" y="307.5" width="25" height="25"/><rect class="ag" x="330" y="332.5" width="25" height="25"/><rect class="ag" x="280" y="332.5" width="25" height="25"/><rect class="ag" x="355" y="357.5" width="25" height="25"/><rect class="ag" x="305" y="357.5" width="25" height="25"/><rect class="ag" x="330" y="382.5" width="25" height="25"/><rect class="ag" x="280" y="382.5" width="25" height="25"/><rect class="k" x="105" y="132.5" width="450" height="450"/><line class="k" x1="105" y1="282.5" x2="555" y2="282.5"/><line class="k" x1="105" y1="432.5" x2="555" y2="432.5"/><line class="k" x1="255" y1="582.5" x2="255" y2="132.5"/><line class="k" x1="405" y1="582.5" x2="405" y2="132.5"/><rect class="ai" x="655" y="132.5" width="450" height="450"/><rect class="ai" x="655.92" y="133.31" width="448.16" height="448.16"/><rect class="ak" x="730.61" y="208.22" width="298.77" height="298.56"/><rect class="am" x="805.31" y="282.7" width="149.39" height="149.39"/><rect class="ah" x="880" y="282.7" width="24.9" height="24.9"/><rect class="ah" x="929.79" y="332.5" width="24.9" height="24.9"/><rect class="ah" x="929.79" y="382.29" width="24.9" height="24.9"/><rect class="ah" x="929.79" y="282.7" width="24.9" height="24.9"/><rect class="ah" x="904.9" y="407.19" width="24.9" height="24.9"/><rect class="ah" x="855.1" y="407.19" width="24.9" height="24.9"/><rect class="ah" x="830.2" y="282.7" width="24.9" height="24.9"/><rect class="ah" x="805.31" y="407.19" width="24.9" height="24.9"/><rect class="ah" x="805.31" y="357.39" width="24.9" height="24.9"/><rect class="ah" x="805.31" y="307.6" width="24.9" height="24.9"/><rect class="aj" x="830.2" y="307.6" width="99.59" height="99.59"/><rect class="ag" x="904.9" y="307.6" width="24.9" height="24.9"/><rect class="ag" x="855.1" y="307.6" width="24.9" height="24.9"/><rect class="ag" x="880" y="332.5" width="24.9" height="24.9"/><rect class="ag" x="830.2" y="332.5" width="24.9" height="24.9"/><rect class="ag" x="904.9" y="357.39" width="24.9" height="24.9"/><rect class="ag" x="855.1" y="357.39" width="24.9" height="24.9"/><rect class="ag" x="880" y="382.29" width="24.9" height="24.9"/><rect class="ag" x="830.2" y="382.29" width="24.9" height="24.9"/><line class="r" x1="954.69" y1="332.5" x2="1029.38" y2="332.5"/><line class="r" x1="954.69" y1="357.39" x2="1029.38" y2="357.39"/><line class="r" x1="954.69" y1="382.29" x2="1029.38" y2="382.29"/><line class="r" x1="954.69" y1="307.6" x2="1029.38" y2="307.6"/><line class="r" x1="954.69" y1="407.19" x2="1029.38" y2="407.19"/><line class="g" x1="1054.28" y1="581.47" x2="1054.28" y2="432.09"/><line class="g" x1="1079.18" y1="581.47" x2="1079.18" y2="432.09"/><line class="g" x1="1104.08" y1="556.57" x2="954.69" y2="556.57"/><line class="g" x1="1104.08" y1="531.68" x2="954.69" y2="531.68"/><line class="m" x1="1029.38" y1="332.5" x2="1104.08" y2="332.5"/><line class="m" x1="1029.38" y1="357.39" x2="1104.08" y2="357.39"/><line class="m" x1="1029.38" y1="382.29" x2="1104.08" y2="382.29"/><line class="m" x1="1029.38" y1="307.6" x2="1104.08" y2="307.6"/><line class="m" x1="1029.38" y1="407.19" x2="1104.08" y2="407.19"/><line class="g" x1="1029.38" y1="481.88" x2="1104.08" y2="481.88"/><line class="g" x1="1029.38" y1="506.78" x2="1104.08" y2="506.78"/><line class="g" x1="1029.38" y1="456.98" x2="1104.08" y2="456.98"/><line class="r" x1="1029.38" y1="432.09" x2="1029.38" y2="282.7"/><line class="m" x1="1054.28" y1="432.09" x2="1054.28" y2="282.7"/><line class="m" x1="1079.18" y1="432.09" x2="1079.18" y2="282.7"/><line class="r" x1="1004.49" y1="432.09" x2="1004.49" y2="282.7"/><line class="r" x1="979.59" y1="432.09" x2="979.59" y2="282.7"/><line class="f" x1="805.31" y1="382.29" x2="730.61" y2="382.29"/><line class="f" x1="805.31" y1="357.39" x2="730.61" y2="357.39"/><line class="f" x1="805.31" y1="332.5" x2="730.61" y2="332.5"/><line class="f" x1="805.31" y1="407.19" x2="730.61" y2="407.19"/><line class="f" x1="805.31" y1="307.6" x2="730.61" y2="307.6"/><line class="i" x1="730.61" y1="382.29" x2="655.92" y2="382.29"/><line class="i" x1="730.61" y1="357.39" x2="655.92" y2="357.39"/><line class="i" x1="730.61" y1="332.5" x2="655.92" y2="332.5"/><line class="i" x1="730.61" y1="407.19" x2="655.92" y2="407.19"/><line class="i" x1="730.61" y1="307.6" x2="655.92" y2="307.6"/><line class="f" x1="730.61" y1="282.7" x2="730.61" y2="432.09"/><line class="i" x1="705.72" y1="282.7" x2="705.72" y2="432.09"/><line class="i" x1="680.82" y1="282.7" x2="680.82" y2="432.09"/><line class="f" x1="755.51" y1="282.7" x2="755.51" y2="432.09"/><line class="f" x1="780.41" y1="282.7" x2="780.41" y2="432.09"/><line class="q" x1="855.1" y1="282.7" x2="855.1" y2="208.01"/><line class="q" x1="880" y1="282.7" x2="880" y2="208.01"/><line class="q" x1="904.9" y1="282.7" x2="904.9" y2="208.01"/><line class="q" x1="830.2" y1="282.7" x2="830.2" y2="208.01"/><line class="q" x1="929.79" y1="282.7" x2="929.79" y2="208.01"/><line class="e" x1="855.1" y1="208.01" x2="855.1" y2="133.31"/><line class="e" x1="880" y1="208.01" x2="880" y2="133.31"/><line class="e" x1="904.9" y1="208.01" x2="904.9" y2="133.31"/><line class="e" x1="830.2" y1="208.01" x2="830.2" y2="133.31"/><line class="e" x1="929.79" y1="208.01" x2="929.79" y2="133.31"/><line class="q" x1="954.69" y1="208.01" x2="805.31" y2="208.01"/><line class="e" x1="954.69" y1="183.11" x2="805.31" y2="183.11"/><line class="e" x1="954.69" y1="158.21" x2="805.31" y2="158.21"/><line class="q" x1="954.69" y1="232.91" x2="805.31" y2="232.91"/><line class="q" x1="954.69" y1="257.8" x2="805.31" y2="257.8"/><line class="n" x1="904.9" y1="432.09" x2="904.9" y2="506.78"/><line class="n" x1="880" y1="432.09" x2="880" y2="506.78"/><line class="n" x1="855.1" y1="432.09" x2="855.1" y2="506.78"/><line class="n" x1="929.79" y1="432.09" x2="929.79" y2="506.78"/><line class="n" x1="830.2" y1="432.09" x2="830.2" y2="506.78"/><line class="s" x1="904.9" y1="506.78" x2="904.9" y2="581.47"/><line class="s" x1="880" y1="506.78" x2="880" y2="581.47"/><line class="s" x1="855.1" y1="506.78" x2="855.1" y2="581.47"/><line class="s" x1="929.79" y1="506.78" x2="929.79" y2="581.47"/><line class="g" x1="979.59" y1="506.99" x2="979.59" y2="581.69"/><line class="g" x1="1004.49" y1="506.99" x2="1004.49" y2="581.69"/><line class="g" x1="1029.38" y1="506.99" x2="1029.38" y2="581.69"/><line class="s" x1="830.2" y1="506.78" x2="830.2" y2="581.47"/><line class="n" x1="805.31" y1="506.78" x2="954.69" y2="506.78"/><line class="s" x1="805.31" y1="531.68" x2="954.69" y2="531.68"/><line class="s" x1="805.31" y1="556.57" x2="954.69" y2="556.57"/><line class="n" x1="805.31" y1="481.88" x2="954.69" y2="481.88"/><line class="n" x1="805.31" y1="456.98" x2="954.69" y2="456.98"/><line class="u" x1="954.69" y1="481.88" x2="1029.38" y2="481.88"/><line class="u" x1="954.69" y1="456.98" x2="1029.38" y2="456.98"/><line class="u" x1="1004.49" y1="506.78" x2="1004.49" y2="432.09"/><line class="u" x1="979.59" y1="506.78" x2="979.59" y2="432.09"/><polyline class="u" points="954.69 506.78 1029.38 506.78 1029.38 432.09"/><line class="v" x1="705.72" y1="133.53" x2="705.72" y2="282.91"/><line class="v" x1="680.82" y1="133.53" x2="680.82" y2="282.91"/><line class="v" x1="655.92" y1="158.43" x2="805.31" y2="158.43"/><line class="v" x1="655.92" y1="183.32" x2="805.31" y2="183.32"/><line class="v" x1="730.61" y1="233.12" x2="655.92" y2="233.12"/><line class="v" x1="730.61" y1="208.22" x2="655.92" y2="208.22"/><line class="v" x1="730.61" y1="258.02" x2="655.92" y2="258.02"/><line class="v" x1="780.41" y1="208.01" x2="780.41" y2="133.31"/><line class="v" x1="755.51" y1="208.01" x2="755.51" y2="133.31"/><line class="v" x1="730.61" y1="208.01" x2="730.61" y2="133.31"/><line class="p" x1="805.31" y1="233.12" x2="730.61" y2="233.12"/><line class="p" x1="805.31" y1="258.02" x2="730.61" y2="258.02"/><line class="p" x1="755.51" y1="208.22" x2="755.51" y2="282.91"/><line class="p" x1="780.41" y1="208.22" x2="780.41" y2="282.91"/><polyline class="p" points="805.31 208.22 730.61 208.22 730.61 282.91"/><line class="j" x1="705.72" y1="581.47" x2="705.72" y2="432.09"/><line class="j" x1="680.82" y1="581.47" x2="680.82" y2="432.09"/><line class="j" x1="655.92" y1="556.57" x2="805.31" y2="556.57"/><line class="j" x1="655.92" y1="531.68" x2="805.31" y2="531.68"/><line class="j" x1="730.61" y1="481.88" x2="655.92" y2="481.88"/><line class="j" x1="730.61" y1="506.78" x2="655.92" y2="506.78"/><line class="j" x1="730.61" y1="456.98" x2="655.92" y2="456.98"/><line class="j" x1="780.41" y1="506.99" x2="780.41" y2="581.69"/><line class="j" x1="755.51" y1="506.99" x2="755.51" y2="581.69"/><line class="j" x1="730.61" y1="506.99" x2="730.61" y2="581.69"/><line class="t" x1="805.31" y1="481.88" x2="730.61" y2="481.88"/><line class="t" x1="805.31" y1="456.98" x2="730.61" y2="456.98"/><line class="t" x1="755.51" y1="506.78" x2="755.51" y2="432.09"/><line class="t" x1="780.41" y1="506.78" x2="780.41" y2="432.09"/><polyline class="t" points="805.31 506.78 730.61 506.78 730.61 432.09"/><line class="h" x1="1054.28" y1="133.53" x2="1054.28" y2="282.91"/><line class="h" x1="1079.18" y1="133.53" x2="1079.18" y2="282.91"/><line class="h" x1="1104.08" y1="158.43" x2="954.69" y2="158.43"/><line class="h" x1="1104.08" y1="183.32" x2="954.69" y2="183.32"/><line class="h" x1="1029.38" y1="233.12" x2="1104.08" y2="233.12"/><line class="h" x1="1029.38" y1="208.22" x2="1104.08" y2="208.22"/><line class="h" x1="1029.38" y1="258.02" x2="1104.08" y2="258.02"/><line class="h" x1="979.59" y1="208.01" x2="979.59" y2="133.31"/><line class="h" x1="1004.49" y1="208.01" x2="1004.49" y2="133.31"/><line class="h" x1="1029.38" y1="208.01" x2="1029.38" y2="133.31"/><line class="l" x1="954.69" y1="233.12" x2="1029.38" y2="233.12"/><line class="l" x1="954.69" y1="258.02" x2="1029.38" y2="258.02"/><line class="l" x1="1004.49" y1="208.22" x2="1004.49" y2="282.91"/><line class="l" x1="979.59" y1="208.22" x2="979.59" y2="282.91"/><polyline class="l" points="954.69 208.22 1029.38 208.22 1029.38 282.91"/><rect class="k" x="655.92" y="133.31" width="448.16" height="448.16"/><line class="k" x1="655.92" y1="282.7" x2="1104.08" y2="282.7"/><line class="k" x1="655.92" y1="432.09" x2="1104.08" y2="432.09"/><line class="k" x1="805.31" y1="581.47" x2="805.31" y2="133.31"/><line class="k" x1="954.69" y1="581.47" x2="954.69" y2="133.31"/><path class="an" d="M41.07,631.42c0-3.63,2.8-6.43,6.35-6.43s6.35,2.8,6.35,6.43-2.8,6.43-6.35,6.43-6.35-2.8-6.35-6.43ZM52.53,631.42c0-2.95-2.24-5.29-5.11-5.29s-5.11,2.33-5.11,5.29,2.24,5.29,5.11,5.29,5.11-2.33,5.11-5.29ZM48.98,630.27c-.21-.64-.68-1.05-1.41-1.05-1.1,0-1.75.86-1.75,2.19s.64,2.19,1.75,2.19c.73,0,1.25-.39,1.41-.98h1.28c-.2,1.28-1.3,2.19-2.7,2.19-1.85,0-3.05-1.29-3.05-3.4s1.2-3.4,3.05-3.4c1.39,0,2.47.93,2.7,2.26h-1.28Z"/><path class="an" d="M76.97,622.61c2.96,0,5,1.9,5,4.66,0,1.72-.73,3.04-3.36,6.07l-4.23,4.89v.19h7.88v1.45h-10.24v-1.02l5.8-6.77c2.07-2.45,2.55-3.35,2.55-4.78,0-1.99-1.35-3.28-3.43-3.28s-3.41,1.39-3.41,3.55v.07h-1.58v-.07c0-2.87,2.12-4.96,5.03-4.96Z"/><path class="an" d="M86.48,631.42c0-5.72,1.93-8.85,5.46-8.85s5.46,3.13,5.46,8.85-1.93,8.85-5.46,8.85-5.46-3.13-5.46-8.85ZM88.22,633.93l7.15-6.54c-.57-2.25-1.72-3.41-3.43-3.41-2.53,0-3.86,2.55-3.86,7.44,0,.91.05,1.76.14,2.51ZM95.79,631.42c0-.94-.05-1.78-.14-2.54l-7.14,6.62c.57,2.21,1.72,3.36,3.42,3.36,2.53,0,3.86-2.55,3.86-7.44Z"/><path class="an" d="M106.64,622.61c2.96,0,5,1.9,5,4.66,0,1.72-.73,3.04-3.36,6.07l-4.23,4.89v.19h7.88v1.45h-10.24v-1.02l5.8-6.77c2.07-2.45,2.55-3.35,2.55-4.78,0-1.99-1.35-3.28-3.43-3.28s-3.41,1.39-3.41,3.55v.07h-1.58v-.07c0-2.87,2.12-4.96,5.03-4.96Z"/><path class="an" d="M116.09,635.5h1.54c.19,1.95,1.82,3.3,3.95,3.3,2.32,0,3.86-1.68,3.86-4.18s-1.56-4.25-3.86-4.25c-1.63,0-3,.76-3.69,2.04h-1.49l.88-9.45h8.84v1.44h-7.58l-.5,5.98h.18c.88-.98,2.05-1.48,3.5-1.48,3.13,0,5.32,2.34,5.32,5.68s-2.26,5.62-5.59,5.62c-3,0-5.14-1.89-5.34-4.71Z"/><path class="an" d="M146.64,639.87v-16.91h1.61v8.74h.14l7.18-8.74h2l-6.41,7.48,7.1,9.43h-2.07l-6.09-8.2-1.85,2.17v6.04h-1.61Z"/><path class="an" d="M160.76,634.5v-1.88c0-3.4,2.09-5.58,5.34-5.58s5.34,2.18,5.34,5.58v1.88c0,3.4-2.09,5.58-5.34,5.58s-5.34-2.18-5.34-5.58ZM162.3,632.83v1.48c0,2.73,1.46,4.41,3.81,4.41s3.81-1.68,3.81-4.41v-1.48c0-2.73-1.46-4.41-3.81-4.41s-3.81,1.68-3.81,4.41Z"/><path class="an" d="M175.95,622.22h1.46v7.3h.15c.69-1.59,2.17-2.48,4.12-2.48,2.75,0,4.24,1.63,4.24,4.63v8.2h-1.54v-7.82c0-2.47-1-3.63-3.12-3.63-2.26,0-3.8,1.61-3.8,3.95v7.5h-1.54v-17.65Z"/><path class="an" d="M200.97,636.75c-.42,2.02-2.34,3.33-4.89,3.33-3.4,0-5.37-2.1-5.37-5.7v-1.84c0-3.33,2.06-5.51,5.19-5.51s5.12,2.16,5.12,5.93v1h-8.78v.43c0,2.64,1.49,4.31,3.83,4.31,1.72,0,2.98-.73,3.36-1.96h1.52ZM192.25,632.7h7.22c0-2.68-1.34-4.3-3.56-4.3s-3.66,1.61-3.66,4.3Z"/><path class="an" d="M205.62,627.25h1.46v2.27h.15c.69-1.59,2.17-2.48,4.12-2.48,2.75,0,4.24,1.63,4.24,4.63v8.2h-1.54v-7.82c0-2.47-1-3.63-3.12-3.63-2.26,0-3.8,1.61-3.8,3.95v7.5h-1.54v-12.62Z"/><path class="an" d="M232.87,633.06v-1.36h14.84v1.36h-14.84Z"/><path class="an" d="M265.45,639.87h-1.5v-16.91h1.89l4.07,10.88h.13l4.04-10.88h1.9v16.91h-1.5v-13.79h-.12l-3.7,9.82h-1.38l-3.7-9.82h-.12v13.79Z"/><path class="an" d="M284,639.87v-15.46h-5.2v-1.45h12v1.45h-5.2v15.46h-1.59Z"/><path class="an" d="M300.16,622.96c3.18,0,5.3,2.11,5.3,5.26s-2.12,5.26-5.3,5.26h-3.81v6.39h-1.61v-16.91h5.41ZM296.35,632.05h3.42c2.57,0,4.05-1.41,4.05-3.83s-1.49-3.83-4.05-3.83h-3.42v7.66Z"/><path class="an" d="M321.88,633.06v-1.36h14.84v1.36h-14.84Z"/><path class="an" d="M354.17,639.87v-1.24h4.44v-10.14h-4.46v-1.24h6v11.38h4.32v1.24h-10.3ZM357.75,622.46c0-.8.66-1.45,1.45-1.45s1.45.66,1.45,1.45-.66,1.45-1.45,1.45-1.45-.66-1.45-1.45Z"/><path class="an" d="M379.79,639.87h-1.44v-8.71c0-1.82-.61-2.74-1.79-2.74-1.24,0-1.99,1.12-1.99,3v8.45h-1.44v-8.72c0-1.8-.61-2.73-1.8-2.73-1.27,0-2.04,1.14-2.04,3v8.45h-1.44v-12.62h1.39v1.69h.16c.33-1.17,1.25-1.9,2.41-1.9s2.06.7,2.33,1.9h.16c.34-1.15,1.41-1.9,2.71-1.9,1.84,0,2.78,1.28,2.78,3.77v9.06Z"/><path class="an" d="M392.29,627.25h1.95l-4.99,4.89,5.34,7.73h-1.85l-4.57-6.68-1.95,1.9v4.78h-1.54v-17.65h1.54v10.97h.14l5.93-5.94Z"/><path class="an" d="M398.14,634.5v-1.88c0-3.4,2.09-5.58,5.34-5.58s5.34,2.18,5.34,5.58v1.88c0,3.4-2.09,5.58-5.34,5.58s-5.34-2.18-5.34-5.58ZM399.67,632.83v1.48c0,2.73,1.46,4.41,3.81,4.41s3.81-1.68,3.81-4.41v-1.48c0-2.73-1.46-4.41-3.81-4.41s-3.81,1.68-3.81,4.41Z"/><path class="an" d="M413.32,622.22h1.46v7.3h.15c.69-1.59,2.17-2.48,4.12-2.48,2.75,0,4.24,1.63,4.24,4.63v8.2h-1.54v-7.82c0-2.47-1-3.63-3.12-3.63-2.26,0-3.8,1.61-3.8,3.95v7.5h-1.54v-17.65Z"/><path class="an" d="M438.34,636.75c-.42,2.02-2.34,3.33-4.89,3.33-3.4,0-5.37-2.1-5.37-5.7v-1.84c0-3.33,2.06-5.51,5.19-5.51s5.12,2.16,5.12,5.93v1h-8.78v.43c0,2.64,1.49,4.31,3.83,4.31,1.72,0,2.98-.73,3.36-1.96h1.52ZM429.62,632.7h7.22c0-2.68-1.34-4.3-3.56-4.3s-3.66,1.61-3.66,4.3Z"/><path class="an" d="M443,627.25h1.46v2.27h.15c.69-1.59,2.17-2.48,4.12-2.48,2.75,0,4.24,1.63,4.24,4.63v8.2h-1.54v-7.82c0-2.47-1-3.63-3.12-3.63-2.26,0-3.8,1.61-3.8,3.95v7.5h-1.54v-12.62Z"/><path class="an" d="M457.68,636.31c0-2.21,1.58-3.54,4.37-3.67l3.66-.16v-1.2c0-1.82-1.04-2.8-2.98-2.8-1.59,0-2.7.68-3.05,1.9h-1.52c.23-1.89,2.13-3.23,4.57-3.23,2.86,0,4.52,1.5,4.52,4.07v8.67h-1.48v-1.99h-.16c-.6,1.42-1.99,2.2-3.9,2.2-2.43,0-4.03-1.5-4.03-3.79ZM465.71,635.51v-1.76l-3.55.15c-1.89.08-2.89.93-2.89,2.4s1.08,2.43,2.82,2.43c2.04,0,3.62-1.41,3.62-3.22Z"/><path class="an" d="M482.65,639.87h-1.46v-2.27h-.15c-.69,1.59-2.17,2.48-4.12,2.48-2.75,0-4.24-1.63-4.24-4.63v-8.2h1.54v7.82c0,2.47,1,3.63,3.12,3.63,2.26,0,3.8-1.61,3.8-3.95v-7.5h1.54v12.62Z"/><path class="an" d="M492.57,627.04c2.47,0,4.22,1.28,4.49,3.27h-1.51c-.27-1.23-1.42-1.99-3.02-1.99-1.76,0-2.88.84-2.88,2.16,0,1.1.69,1.71,2.41,2.11l1.71.4c2.43.57,3.53,1.64,3.53,3.42,0,2.23-1.89,3.68-4.76,3.68s-4.59-1.3-4.83-3.38h1.59c.33,1.3,1.55,2.06,3.3,2.06,1.89,0,3.09-.89,3.09-2.27,0-1.15-.67-1.76-2.39-2.17l-1.86-.45c-2.25-.53-3.35-1.63-3.35-3.35,0-2.07,1.82-3.49,4.48-3.49Z"/><path class="an" d="M512.52,636.75c-.42,2.02-2.34,3.33-4.89,3.33-3.4,0-5.37-2.1-5.37-5.7v-1.84c0-3.33,2.06-5.51,5.19-5.51s5.12,2.16,5.12,5.93v1h-8.78v.43c0,2.64,1.49,4.31,3.83,4.31,1.72,0,2.98-.73,3.36-1.96h1.52ZM503.8,632.7h7.22c0-2.68-1.34-4.3-3.56-4.3s-3.66,1.61-3.66,4.3Z"/><path class="an" d="M521.57,638.63h4.01v1.24h-8.14v-1.24h2.6v-10.14h-2.86v-1.24h4.36v3.21h.16c.43-2.25,2.1-3.53,4.56-3.53.73,0,1.44.11,1.84.28v1.68c-.59-.21-1.39-.35-2.07-.35-2.72,0-4.45,2.2-4.45,5.66v4.43Z"/><path class="an" d="M535.06,637.93c0-1.07.88-1.95,1.95-1.95s1.95.88,1.95,1.95-.88,1.95-1.95,1.95-1.95-.88-1.95-1.95Z"/><path class="an" d="M555.4,630.96c-.26-1.5-1.65-2.54-3.38-2.54-2.4,0-3.74,1.61-3.74,4.5v1.28c0,2.89,1.34,4.5,3.74,4.5,1.72,0,3.12-1.04,3.38-2.54h1.52c-.33,2.37-2.25,3.93-4.86,3.93-3.32,0-5.31-2.11-5.31-5.62v-1.79c0-3.52,1.99-5.62,5.31-5.62,2.61,0,4.54,1.56,4.86,3.93h-1.52Z"/><path class="an" d="M561.33,634.5v-1.88c0-3.4,2.09-5.58,5.34-5.58s5.34,2.18,5.34,5.58v1.88c0,3.4-2.09,5.58-5.34,5.58s-5.34-2.18-5.34-5.58ZM562.87,632.83v1.48c0,2.73,1.46,4.41,3.81,4.41s3.81-1.68,3.81-4.41v-1.48c0-2.73-1.46-4.41-3.81-4.41s-3.81,1.68-3.81,4.41Z"/><path class="an" d="M587.49,639.87h-1.44v-8.71c0-1.82-.61-2.74-1.79-2.74-1.24,0-1.99,1.12-1.99,3v8.45h-1.44v-8.72c0-1.8-.61-2.73-1.8-2.73-1.27,0-2.04,1.14-2.04,3v8.45h-1.44v-12.62h1.39v1.69h.16c.33-1.17,1.25-1.9,2.41-1.9s2.06.7,2.33,1.9h.16c.34-1.15,1.41-1.9,2.71-1.9,1.84,0,2.78,1.28,2.78,3.77v9.06Z"/><path class="an" d="M591.45,641.03l8.33-19.23h1.46l-8.33,19.23h-1.46Z"/><path class="an" d="M617.16,639.87h-1.44v-8.71c0-1.82-.61-2.74-1.79-2.74-1.24,0-1.99,1.12-1.99,3v8.45h-1.44v-8.72c0-1.8-.61-2.73-1.8-2.73-1.27,0-2.04,1.14-2.04,3v8.45h-1.44v-12.62h1.39v1.69h.16c.33-1.17,1.25-1.9,2.41-1.9s2.06.7,2.33,1.9h.16c.34-1.15,1.41-1.9,2.71-1.9,1.84,0,2.78,1.28,2.78,3.77v9.06Z"/><path class="an" d="M625.57,623.97v3.28h5.29v1.3h-5.29v7.63c0,1.56,1.08,2.4,3.08,2.4.87,0,1.79-.04,2.2-.09v1.31c-.38.07-1.56.14-2.29.14-3.04,0-4.54-1.23-4.54-3.71v-7.68h-3.4v-1.3h3.4v-3.28h1.54Z"/><path class="an" d="M646.34,632.35v2.43c0,3.15-1.99,5.31-4.92,5.31-1.83,0-3.21-.75-3.81-2.07h-.21v6.14h-1.54v-16.9h1.46v1.82h.21c.74-1.32,2.09-2.03,3.88-2.03,2.93,0,4.92,2.16,4.92,5.31ZM637.36,632.72v1.69c0,2.61,1.46,4.3,3.71,4.3s3.73-1.7,3.73-4.3v-1.69c0-2.6-1.46-4.3-3.73-4.3s-3.71,1.69-3.71,4.3Z"/><path class="al" d="M83.05,136.11v-.75h2.79v-7.38h-.09l-2.72,1.75v-.96l2.82-1.82h.86v8.41h2.66v.75h-6.31Z"/><path class="al" d="M85.87,151.76c1.61,0,2.71,1.03,2.71,2.53,0,.93-.39,1.64-1.82,3.29l-2.29,2.65v.1h4.27v.79h-5.55v-.55l3.14-3.67c1.12-1.33,1.38-1.82,1.38-2.59,0-1.08-.73-1.78-1.86-1.78s-1.85.75-1.85,1.92v.04h-.86v-.04c0-1.56,1.15-2.68,2.72-2.68Z"/><path class="al" d="M84.82,181.01h.97c1.07,0,1.83-.75,1.83-1.79s-.73-1.69-1.81-1.69-1.78.65-1.89,1.71h-.87c.13-1.53,1.2-2.47,2.8-2.47s2.69.98,2.69,2.35c0,1.11-.56,1.9-1.54,2.15v.1c1.21.17,1.93,1.04,1.93,2.31,0,1.52-1.28,2.63-3.01,2.63s-2.96-1.02-3.05-2.53h.83c.11,1.07.98,1.77,2.19,1.77,1.33,0,2.16-.71,2.16-1.85s-.86-1.93-2.21-1.93h-1.03v-.75Z"/><path class="al" d="M87.14,209.09h-4.2v-.67l3.23-6.47h.89l-3.21,6.33v.06h3.29v-2.75h.79v2.72h1.45v.77h-1.47v2.03h-.78v-2.03Z"/><path class="al" d="M82.95,233.75h.83c.1,1.05.98,1.79,2.14,1.79,1.26,0,2.09-.91,2.09-2.27s-.84-2.3-2.09-2.3c-.88,0-1.62.41-2,1.11h-.81l.48-5.12h4.79v.78h-4.11l-.27,3.24h.1c.48-.53,1.11-.8,1.9-.8,1.69,0,2.88,1.27,2.88,3.08s-1.22,3.05-3.03,3.05c-1.62,0-2.79-1.02-2.89-2.55Z"/><path class="al" d="M85.93,261.3c-1.71,0-2.96-1.28-2.96-3.01,0-1.05.36-2.01,1.22-3.27l2.1-3.07h1.01l-2.57,3.61c-.28.41-.22.32-.26.39l.08.06c.25-.37.95-.67,1.54-.67,1.64,0,2.85,1.22,2.85,2.89,0,1.8-1.24,3.07-3,3.07ZM88.1,258.28c0-1.28-.93-2.27-2.15-2.27s-2.15.99-2.15,2.27.93,2.27,2.15,2.27,2.15-.99,2.15-2.27Z"/><path class="al" d="M88.08,277.8v-.07h-5.08v-.78h5.97v.81l-4.2,8.35h-.93l4.23-8.31Z"/><path class="al" d="M82.89,308.67c0-1.14.72-2.08,1.82-2.34v-.09c-.89-.27-1.45-1.06-1.45-2.06,0-1.42,1.13-2.42,2.72-2.42s2.72,1,2.72,2.42c0,1.01-.55,1.79-1.45,2.06v.09c1.07.22,1.82,1.18,1.82,2.34,0,1.55-1.28,2.65-3.08,2.65s-3.09-1.1-3.09-2.65ZM88.21,308.62c0-1.14-.91-1.92-2.23-1.92s-2.23.79-2.23,1.92.91,1.92,2.23,1.92,2.23-.79,2.23-1.92ZM87.85,304.23c0-1.02-.74-1.69-1.87-1.69s-1.87.67-1.87,1.69.74,1.69,1.87,1.69,1.87-.67,1.87-1.69Z"/><path class="al" d="M85.92,326.76c1.71,0,2.96,1.28,2.96,3.01,0,1.02-.36,1.96-1.25,3.27l-2.09,3.07h-1.01l2.57-3.61c.19-.27.22-.32.27-.39l-.08-.06c-.25.38-.93.67-1.51.67-1.64,0-2.85-1.23-2.85-2.89,0-1.8,1.24-3.07,3-3.07ZM83.75,329.79c0,1.28.93,2.27,2.15,2.27s2.15-.99,2.15-2.27-.93-2.27-2.15-2.27-2.15.99-2.15,2.27Z"/><path class="al" d="M79.03,361.11v-.75h2.79v-7.38h-.09l-2.72,1.75v-.96l2.82-1.82h.86v8.41h2.66v.75h-6.31Z"/><path class="al" d="M87,356.54c0-3.1,1.05-4.79,2.96-4.79s2.96,1.7,2.96,4.79-1.05,4.79-2.96,4.79-2.96-1.69-2.96-4.79ZM87.95,357.89l3.87-3.54c-.31-1.22-.93-1.85-1.86-1.85-1.37,0-2.09,1.38-2.09,4.03,0,.49.03.95.08,1.36ZM92.05,356.54c0-.51-.03-.96-.08-1.38l-3.87,3.59c.31,1.2.93,1.82,1.85,1.82,1.37,0,2.09-1.38,2.09-4.03Z"/><path class="al" d="M79.03,386.11v-.75h2.79v-7.38h-.09l-2.72,1.75v-.96l2.82-1.82h.86v8.41h2.66v.75h-6.31Z"/><path class="al" d="M87.07,386.11v-.75h2.79v-7.38h-.1l-2.72,1.75v-.96l2.82-1.82h.86v8.41h2.66v.75h-6.31Z"/><path class="al" d="M79.03,411.11v-.75h2.79v-7.38h-.09l-2.72,1.75v-.96l2.82-1.82h.86v8.41h2.66v.75h-6.31Z"/><path class="al" d="M89.89,401.76c1.61,0,2.71,1.03,2.71,2.53,0,.93-.39,1.64-1.82,3.29l-2.29,2.65v.1h4.27v.79h-5.55v-.55l3.14-3.67c1.12-1.33,1.38-1.82,1.38-2.59,0-1.08-.73-1.78-1.86-1.78s-1.85.75-1.85,1.92v.04h-.86v-.04c0-1.56,1.15-2.68,2.72-2.68Z"/><path class="al" d="M79.03,436.11v-.75h2.79v-7.38h-.09l-2.72,1.75v-.96l2.82-1.82h.86v8.41h2.66v.75h-6.31Z"/><path class="al" d="M88.84,431.01h.97c1.07,0,1.83-.75,1.83-1.79s-.73-1.69-1.81-1.69-1.78.65-1.89,1.71h-.87c.13-1.53,1.2-2.47,2.81-2.47s2.68.98,2.68,2.35c0,1.11-.57,1.9-1.54,2.15v.1c1.21.17,1.93,1.04,1.93,2.31,0,1.52-1.28,2.63-3.02,2.63s-2.96-1.02-3.05-2.53h.83c.11,1.07.98,1.77,2.19,1.77,1.33,0,2.16-.71,2.16-1.85s-.86-1.93-2.21-1.93h-1.03v-.75Z"/><path class="al" d="M79.03,461.11v-.75h2.79v-7.38h-.09l-2.72,1.75v-.96l2.82-1.82h.86v8.41h2.66v.75h-6.31Z"/><path class="al" d="M91.15,459.09h-4.2v-.67l3.23-6.47h.89l-3.21,6.33v.06h3.29v-2.75h.79v2.72h1.45v.77h-1.47v2.03h-.78v-2.03Z"/><path class="al" d="M79.03,486.11v-.75h2.79v-7.38h-.09l-2.72,1.75v-.96l2.82-1.82h.86v8.41h2.66v.75h-6.31Z"/><path class="al" d="M86.97,483.75h.83c.1,1.05.98,1.79,2.14,1.79,1.26,0,2.09-.91,2.09-2.27s-.84-2.3-2.09-2.3c-.88,0-1.62.41-2,1.11h-.81l.48-5.12h4.79v.78h-4.11l-.27,3.24h.09c.48-.53,1.11-.8,1.9-.8,1.7,0,2.88,1.27,2.88,3.08s-1.23,3.05-3.03,3.05c-1.62,0-2.79-1.02-2.89-2.55Z"/><path class="al" d="M79.03,511.11v-.75h2.79v-7.38h-.09l-2.72,1.75v-.96l2.82-1.82h.86v8.41h2.66v.75h-6.31Z"/><path class="al" d="M89.95,511.3c-1.71,0-2.96-1.28-2.96-3.01,0-1.05.36-2.01,1.22-3.27l2.09-3.07h1.01l-2.57,3.61c-.28.41-.22.32-.26.39l.08.06c.25-.37.95-.67,1.54-.67,1.64,0,2.85,1.22,2.85,2.89,0,1.8-1.24,3.07-3,3.07ZM92.12,508.28c0-1.28-.93-2.27-2.15-2.27s-2.15.99-2.15,2.27.93,2.27,2.15,2.27,2.15-.99,2.15-2.27Z"/><path class="al" d="M79.03,536.11v-.75h2.79v-7.38h-.09l-2.72,1.75v-.96l2.82-1.82h.86v8.41h2.66v.75h-6.31Z"/><path class="al" d="M92.09,527.8v-.07h-5.08v-.78h5.97v.81l-4.2,8.35h-.93l4.23-8.31Z"/><path class="al" d="M79.03,561.11v-.75h2.79v-7.38h-.09l-2.72,1.75v-.96l2.82-1.82h.86v8.41h2.66v.75h-6.31Z"/><path class="al" d="M86.91,558.67c0-1.14.72-2.08,1.81-2.34v-.09c-.89-.27-1.45-1.06-1.45-2.06,0-1.42,1.13-2.42,2.72-2.42s2.72,1,2.72,2.42c0,1.01-.54,1.79-1.45,2.06v.09c1.07.22,1.82,1.18,1.82,2.34,0,1.55-1.28,2.65-3.09,2.65s-3.08-1.1-3.08-2.65ZM92.23,558.62c0-1.14-.91-1.92-2.23-1.92s-2.23.79-2.23,1.92.91,1.92,2.23,1.92,2.23-.79,2.23-1.92ZM91.87,554.23c0-1.02-.74-1.69-1.87-1.69s-1.87.67-1.87,1.69.74,1.69,1.87,1.69,1.87-.67,1.87-1.69Z"/><path class="al" d="M79.03,586.11v-.75h2.79v-7.38h-.09l-2.72,1.75v-.96l2.82-1.82h.86v8.41h2.66v.75h-6.31Z"/><path class="al" d="M89.94,576.76c1.71,0,2.96,1.28,2.96,3.01,0,1.02-.36,1.96-1.25,3.27l-2.1,3.07h-1.01l2.57-3.61c.19-.27.22-.32.27-.39l-.08-.06c-.25.38-.93.67-1.51.67-1.64,0-2.85-1.23-2.85-2.89,0-1.8,1.24-3.07,3-3.07ZM87.77,579.79c0,1.28.93,2.27,2.15,2.27s2.15-.99,2.15-2.27-.93-2.27-2.15-2.27-2.15.99-2.15,2.27Z"/><path class="al" d="M552.27,116.73c.11,1.01.91,1.64,2.1,1.64s2-.66,2-1.66c0-.81-.53-1.31-1.74-1.62l-.66-.17c-1.59-.42-2.29-1.14-2.29-2.35,0-1.38,1.06-2.27,2.69-2.27,1.54,0,2.59.88,2.67,2.24h-.8c-.12-.96-.81-1.51-1.87-1.51-1.17,0-1.87.57-1.87,1.54,0,.79.5,1.26,1.68,1.56l.69.18c1.65.43,2.33,1.13,2.33,2.4,0,1.44-1.12,2.39-2.82,2.39s-2.8-.91-2.9-2.37h.8Z"/><path class="al" d="M106.81,116.34h-3.07l-.83,2.59h-.82l2.79-8.46h.79l2.79,8.46h-.82l-.83-2.59ZM103.95,115.64h2.64l-1.31-4.12h-.01l-1.31,4.12Z"/><path class="al" d="M527.55,115.44v3.49h-.79v-8.46h2.75c1.61,0,2.63.96,2.63,2.47,0,1.11-.63,2.02-1.61,2.31l1.73,3.67h-.9l-1.61-3.49h-2.22ZM527.55,114.75h1.86c1.25,0,1.95-.63,1.95-1.77s-.68-1.79-1.89-1.79h-1.92v3.56Z"/><path class="al" d="M505.81,118.77c-.41.22-.88.33-1.42.33-1.88,0-3.04-1.37-3.04-3.7v-1.4c0-2.33,1.16-3.7,3.04-3.7s3.04,1.37,3.04,3.7v1.4c0,1.29-.36,2.29-1,2.92l1.05,1.59h-.92l-.76-1.14ZM505.38,118.13l-1.25-1.9h.92l.93,1.41c.42-.5.64-1.27.64-2.24v-1.4c0-1.88-.86-2.96-2.24-2.96s-2.24,1.08-2.24,2.96v1.4c0,1.88.86,2.96,2.24,2.96.38,0,.71-.08,1-.23Z"/><path class="al" d="M479.7,110.47c1.59,0,2.65,1.05,2.65,2.63s-1.06,2.63-2.65,2.63h-1.9v3.19h-.8v-8.46h2.71ZM477.8,115.02h1.71c1.28,0,2.03-.7,2.03-1.92s-.74-1.92-2.03-1.92h-1.71v3.83Z"/><path class="al" d="M454.49,119.1c-1.88,0-3.04-1.37-3.04-3.7v-1.4c0-2.33,1.16-3.7,3.04-3.7s3.04,1.37,3.04,3.7v1.4c0,2.33-1.16,3.7-3.04,3.7ZM456.73,115.4v-1.4c0-1.88-.86-2.96-2.24-2.96s-2.24,1.08-2.24,2.96v1.4c0,1.88.86,2.96,2.24,2.96s2.24-1.08,2.24-2.96Z"/><path class="al" d="M426.79,118.93v-8.46h.81l3.88,7.02h.08v-7.02h.75v8.46h-.8l-3.9-7.03h-.08v7.03h-.75Z"/><path class="al" d="M402.35,118.93h-.75v-8.46h.94l2.03,5.44h.06l2.02-5.44h.95v8.46h-.75v-6.9h-.06l-1.85,4.91h-.69l-1.85-4.91h-.06v6.9Z"/><path class="al" d="M382.48,118.93h-4.92v-8.46h.8v7.73h4.12v.73Z"/><path class="al" d="M352.4,118.93v-8.46h.8v4.37h.07l3.59-4.37h1l-3.21,3.74,3.55,4.72h-1.04l-3.05-4.1-.93,1.08v3.02h-.8Z"/><path class="al" d="M327.17,116.99h.8c.04.81.67,1.37,1.55,1.37,1.03,0,1.61-.64,1.61-1.76v-5.43h-2.86v-.69h3.66v6.15c0,1.54-.91,2.48-2.4,2.48-1.37,0-2.34-.87-2.35-2.11Z"/><path class="al" d="M302.73,118.93v-.69h1.7v-7.07h-1.7v-.69h4.2v.69h-1.7v7.07h1.7v.69h-4.2Z"/><path class="al" d="M281.82,118.93v-3.97h-3.87v3.97h-.8v-8.46h.8v3.76h3.87v-3.76h.8v8.46h-.8Z"/><path class="al" d="M257.11,115.43h-2.09v-.71h2.89v1.82c0,1.51-1.18,2.57-2.83,2.57-1.95,0-3.07-1.35-3.07-3.7v-1.4c0-2.35,1.12-3.7,3.07-3.7,1.72,0,2.79,1.05,2.84,2.76h-.8c-.05-1.2-.87-2.02-2.03-2.02-1.49,0-2.27,1.02-2.27,2.96v1.4c0,1.94.78,2.96,2.27,2.96,1.25,0,2.03-.74,2.03-1.94v-.99Z"/><path class="al" d="M227.85,118.93v-8.46h4.86v.73h-4.05v3.18h3.71v.71h-3.71v3.84h-.8Z"/><path class="al" d="M207.62,118.93h-4.86v-8.46h4.86v.73h-4.06v3.04h3.84v.71h-3.84v3.25h4.06v.73Z"/><path class="al" d="M179.66,110.47c2.4,0,3.6,1.41,3.6,4.23s-1.2,4.22-3.6,4.22h-2.24v-8.46h2.24ZM178.22,118.2h1.39c1.92,0,2.83-1.12,2.83-3.5s-.91-3.5-2.83-3.5h-1.39v7Z"/><path class="al" d="M157.39,116.52h.8c0,1.51-1.18,2.58-2.84,2.58-1.95,0-3.07-1.35-3.07-3.7v-1.4c0-2.35,1.12-3.7,3.07-3.7,1.72,0,2.8,1.05,2.84,2.76h-.8c-.05-1.2-.87-2.02-2.04-2.02-1.49,0-2.27,1.02-2.27,2.96v1.4c0,1.94.78,2.96,2.27,2.96,1.22,0,2-.7,2.03-1.84Z"/><path class="al" d="M127.7,118.93v-8.46h2.6c1.54,0,2.46.78,2.46,2.09,0,.94-.59,1.71-1.43,1.86v.08c1.14.13,1.86.94,1.86,2.09,0,1.48-1.06,2.34-2.88,2.34h-2.61ZM128.5,114.2h1.45c1.3,0,1.99-.53,1.99-1.51s-.66-1.51-1.8-1.51h-1.65v3.02ZM130.2,118.22c1.41,0,2.17-.59,2.17-1.67s-.76-1.65-2.21-1.65h-1.65v3.32h1.69Z"/><path class="ao" d="M109.13,80.46v-21.14h5.11l6.01,15.19h.09l5.99-15.19h5.13v21.14h-3.96v-14.28h-2.04l4.42-6.27-8.2,20.55h-2.78l-8.2-20.55,4.42,6.27h-2.05v14.28h-3.94Z"/><path class="ao" d="M138.95,80.7c-1.04,0-1.97-.2-2.76-.61-.8-.4-1.42-.97-1.86-1.68-.44-.72-.67-1.54-.67-2.45v-.03c0-.96.24-1.77.72-2.45.48-.68,1.17-1.21,2.09-1.6.91-.39,2.02-.63,3.32-.72l6.12-.38v2.67l-5.48.37c-.82.05-1.45.24-1.88.57s-.64.78-.64,1.33v.03c0,.58.22,1.03.66,1.36.44.33,1.03.49,1.77.49.63,0,1.2-.12,1.71-.37.5-.25.9-.59,1.19-1.03.29-.44.43-.92.43-1.46v-4.78c0-.69-.22-1.24-.66-1.64s-1.08-.6-1.92-.6-1.44.16-1.9.49c-.47.33-.76.75-.86,1.25l-.03.13h-3.93v-.18c.1-.97.43-1.83.99-2.58.56-.75,1.34-1.34,2.34-1.77,1-.42,2.19-.64,3.57-.64s2.53.22,3.53.65c1,.43,1.77,1.05,2.32,1.84.55.79.83,1.71.83,2.77v10.77h-4.28v-2.33h-.09c-.3.53-.68.99-1.14,1.38s-.98.69-1.58.89c-.59.21-1.23.31-1.91.31Z"/><path class="ao" d="M150.7,85.58v-20.83h4.28v2.74h.1c.28-.63.66-1.18,1.12-1.64.46-.46,1.01-.81,1.62-1.05.62-.24,1.3-.37,2.04-.37,1.33,0,2.47.32,3.43.97.96.65,1.69,1.58,2.21,2.8s.78,2.68.78,4.38h0c0,1.71-.26,3.17-.77,4.39-.51,1.22-1.24,2.16-2.19,2.81s-2.08.98-3.4.98c-.74,0-1.43-.12-2.07-.37s-1.19-.59-1.66-1.03c-.47-.45-.85-.98-1.14-1.6h-.09v7.81h-4.28ZM158.47,77.23c.71,0,1.33-.19,1.85-.56.52-.38.92-.91,1.19-1.6.28-.69.42-1.51.42-2.46h0c0-.97-.14-1.79-.42-2.48-.28-.69-.68-1.22-1.2-1.59s-1.13-.56-1.83-.56-1.3.19-1.83.56c-.53.38-.94.91-1.23,1.6s-.44,1.51-.44,2.46h0c0,.95.15,1.77.45,2.46.3.69.71,1.23,1.23,1.6.52.38,1.13.56,1.82.56Z"/><path class="ao" d="M168.5,85.58v-20.83h4.28v2.74h.1c.28-.63.66-1.18,1.12-1.64.46-.46,1.01-.81,1.63-1.05.62-.24,1.3-.37,2.04-.37,1.33,0,2.47.32,3.43.97.96.65,1.69,1.58,2.21,2.8s.78,2.68.78,4.38h0c0,1.71-.26,3.17-.77,4.39-.51,1.22-1.24,2.16-2.19,2.81s-2.08.98-3.4.98c-.74,0-1.43-.12-2.07-.37s-1.19-.59-1.66-1.03c-.47-.45-.85-.98-1.14-1.6h-.09v7.81h-4.28ZM176.26,77.23c.71,0,1.33-.19,1.85-.56.52-.38.92-.91,1.19-1.6.28-.69.42-1.51.42-2.46h0c0-.97-.14-1.79-.42-2.48-.28-.69-.68-1.22-1.2-1.59s-1.13-.56-1.83-.56-1.3.19-1.83.56c-.53.38-.94.91-1.23,1.6s-.44,1.51-.44,2.46h0c0,.95.15,1.77.45,2.46.3.69.71,1.23,1.23,1.6.52.38,1.13.56,1.82.56Z"/><path class="ao" d="M188.52,62.75c-.64,0-1.19-.22-1.63-.67s-.67-.97-.67-1.57.22-1.14.67-1.57c.45-.44.99-.65,1.63-.65s1.19.22,1.63.65c.44.43.66.96.66,1.57s-.22,1.13-.66,1.57c-.44.45-.98.67-1.63.67ZM186.37,80.46v-15.7h4.29v15.7h-4.29Z"/><path class="ao" d="M193.52,80.46v-15.7h4.28v2.58h.09c.41-.9,1.02-1.61,1.82-2.12s1.79-.78,2.97-.78c1.73,0,3.06.52,4.01,1.56.94,1.04,1.41,2.48,1.41,4.33v10.14h-4.28v-9.24c0-1.03-.24-1.82-.73-2.39-.48-.57-1.2-.85-2.16-.85-.63,0-1.19.15-1.66.44s-.83.7-1.09,1.22c-.26.52-.39,1.12-.39,1.8v9.02h-4.28Z"/><path class="ao" d="M218.14,85.9c-1.44,0-2.69-.2-3.76-.59-1.07-.39-1.92-.93-2.55-1.6-.63-.67-1.01-1.43-1.15-2.27l-.03-.13h4.17l.04.1c.18.38.54.72,1.1,1.01s1.28.44,2.17.44c1.1,0,1.94-.26,2.52-.79s.86-1.23.86-2.09v-2.42h-.09c-.27.55-.65,1.02-1.12,1.42-.47.4-1.03.71-1.65.93-.63.22-1.32.33-2.07.33-1.31,0-2.44-.31-3.4-.94s-1.69-1.52-2.2-2.69c-.51-1.17-.77-2.56-.77-4.18h0c0-1.68.26-3.12.78-4.31.52-1.19,1.27-2.1,2.23-2.74.96-.63,2.1-.95,3.42-.95.74,0,1.42.12,2.04.37s1.15.59,1.62,1.04c.46.45.84.98,1.12,1.6h.1v-2.68h4.28v15.26c0,1.16-.31,2.19-.93,3.07-.62.88-1.5,1.58-2.65,2.07-1.15.5-2.51.75-4.08.75ZM218.07,77.1c.7,0,1.31-.19,1.83-.56s.92-.9,1.21-1.58c.29-.68.43-1.49.43-2.43h0c0-.94-.14-1.75-.43-2.42-.29-.68-.69-1.2-1.21-1.57-.52-.37-1.13-.56-1.82-.56s-1.32.18-1.85.55c-.53.37-.93.89-1.22,1.57-.28.68-.42,1.49-.42,2.42h0c0,.95.14,1.76.42,2.45s.69,1.21,1.22,1.58,1.14.56,1.85.56Z"/><path class="ao" d="M240.78,80.78c-1.74,0-3.03-.37-3.87-1.1s-1.26-1.94-1.26-3.62v-8.09h-2.18v-3.22h2.18v-3.84h4.32v3.84h2.87v3.22h-2.87v7.62c0,.73.16,1.24.49,1.53.33.29.81.43,1.46.43.2,0,.37,0,.51-.02.15-.02.28-.03.41-.05v3.13c-.23.04-.52.08-.87.11-.35.03-.74.05-1.19.05Z"/><path class="ao" d="M245.3,80.46v-21.14h4.28v8.14h.09c.41-.98,1.02-1.73,1.84-2.25.81-.52,1.81-.78,2.98-.78s2.12.25,2.94.75c.82.5,1.45,1.21,1.9,2.13.44.92.67,2.01.67,3.28v9.86h-4.29v-8.98c0-1.09-.26-1.95-.78-2.57-.52-.62-1.26-.93-2.24-.93-.62,0-1.17.15-1.63.45-.46.3-.82.71-1.08,1.23-.26.52-.39,1.12-.39,1.81v8.99h-4.28Z"/><path class="ao" d="M269.88,80.78c-1.6,0-2.98-.33-4.13-.99-1.15-.66-2.04-1.6-2.67-2.82s-.94-2.67-.94-4.34h0c0-1.68.31-3.13.94-4.36.62-1.23,1.5-2.17,2.63-2.84,1.13-.67,2.46-1,3.99-1s2.86.32,3.98.97c1.12.65,1.98,1.56,2.59,2.75.61,1.18.92,2.56.92,4.15v1.33h-12.93v-2.71h10.91l-2.04,2.53v-1.66c0-.92-.14-1.69-.42-2.31-.28-.62-.68-1.09-1.18-1.4-.5-.31-1.09-.47-1.75-.47s-1.25.16-1.77.48c-.51.32-.91.79-1.2,1.41-.29.62-.43,1.38-.43,2.28v1.67c0,.86.14,1.6.43,2.21.29.62.7,1.09,1.24,1.41.54.33,1.18.49,1.92.49.59,0,1.09-.09,1.52-.28s.78-.42,1.05-.7.46-.57.56-.86l.03-.09h3.93l-.04.16c-.12.58-.35,1.16-.69,1.74s-.8,1.12-1.38,1.61c-.58.49-1.29.88-2.12,1.17-.83.29-1.81.44-2.94.44Z"/><path class="ao" d="M285.69,80.46v-21.14h4.42v21.14h-4.42ZM287.91,73.8v-3.47h5.19c1.27,0,2.26-.33,2.96-.97.7-.65,1.05-1.57,1.05-2.76v-.03c0-1.21-.35-2.14-1.05-2.78-.7-.64-1.69-.96-2.96-.96h-5.19v-3.52h6.27c1.48,0,2.78.3,3.9.9,1.11.6,1.98,1.44,2.6,2.53.62,1.08.93,2.35.93,3.81v.03c0,1.45-.31,2.71-.93,3.79-.62,1.08-1.49,1.93-2.6,2.53-1.11.6-2.41.9-3.9.9h-6.27Z"/><path class="ao" d="M303.85,80.46v-15.7h4.28v2.74h.09c.23-.97.66-1.72,1.27-2.26s1.38-.81,2.3-.81c.23,0,.46.01.67.04s.4.07.56.12v3.78c-.18-.08-.4-.14-.67-.18-.27-.04-.57-.07-.88-.07-.7,0-1.3.14-1.8.41s-.88.67-1.14,1.2-.4,1.17-.4,1.93v8.79h-4.28Z"/><path class="ao" d="M321.46,80.78c-1.59,0-2.97-.32-4.13-.97-1.16-.65-2.06-1.59-2.7-2.81-.64-1.22-.96-2.69-.96-4.39v-.03c0-1.69.32-3.14.97-4.36.65-1.22,1.55-2.15,2.72-2.81s2.52-.98,4.09-.98,2.94.32,4.11.97c1.17.65,2.07,1.58,2.72,2.8.64,1.22.97,2.67.97,4.37v.03c0,1.71-.32,3.17-.96,4.39-.64,1.22-1.54,2.16-2.7,2.8-1.16.65-2.53.97-4.12.97ZM321.47,77.42c.69,0,1.29-.19,1.8-.56.51-.38.9-.92,1.18-1.64.28-.72.42-1.59.42-2.62v-.03c0-1.01-.14-1.87-.42-2.59-.28-.72-.68-1.26-1.19-1.64-.51-.38-1.12-.56-1.81-.56s-1.28.19-1.79.57c-.51.38-.91.93-1.19,1.64s-.42,1.57-.42,2.58v.03c0,1.03.14,1.9.42,2.62.28.72.68,1.26,1.19,1.64.52.38,1.13.56,1.83.56Z"/><path class="ao" d="M331.43,80.46v-15.7h4.28v2.64h.09c.32-.9.87-1.62,1.65-2.15.78-.54,1.69-.81,2.75-.81.73,0,1.39.13,1.98.38s1.08.62,1.49,1.1c.41.48.69,1.06.86,1.76h.09c.23-.66.59-1.24,1.06-1.72.47-.48,1.04-.86,1.68-1.12.65-.26,1.36-.4,2.13-.4,1.03,0,1.92.22,2.7.66s1.37,1.05,1.8,1.85.64,1.72.64,2.78v10.74h-4.28v-9.65c0-.62-.1-1.13-.3-1.55-.2-.41-.49-.73-.86-.95-.38-.22-.84-.33-1.4-.33s-1.01.12-1.41.37c-.41.25-.72.59-.95,1.03s-.34.95-.34,1.54v9.54h-4.12v-9.79c0-.57-.1-1.05-.31-1.45s-.5-.71-.87-.92c-.38-.21-.83-.32-1.35-.32s-1.01.13-1.42.39c-.41.26-.73.61-.96,1.06-.23.45-.34.97-.34,1.55v9.48h-4.28Z"/><path class="ao" d="M357.33,85.58v-20.83h4.28v2.74h.1c.28-.63.66-1.18,1.12-1.64.46-.46,1.01-.81,1.62-1.05.62-.24,1.3-.37,2.04-.37,1.33,0,2.47.32,3.43.97.96.65,1.69,1.58,2.21,2.8s.78,2.68.78,4.38h0c0,1.71-.26,3.17-.77,4.39-.51,1.22-1.24,2.16-2.19,2.81s-2.08.98-3.4.98c-.74,0-1.43-.12-2.07-.37s-1.19-.59-1.66-1.03c-.47-.45-.85-.98-1.14-1.6h-.09v7.81h-4.28ZM365.1,77.23c.71,0,1.33-.19,1.85-.56.52-.38.92-.91,1.19-1.6.28-.69.42-1.51.42-2.46h0c0-.97-.14-1.79-.42-2.48-.28-.69-.68-1.22-1.2-1.59s-1.13-.56-1.83-.56-1.3.19-1.83.56c-.53.38-.94.91-1.23,1.6s-.44,1.51-.44,2.46h0c0,.95.15,1.77.45,2.46.3.69.71,1.23,1.23,1.6.52.38,1.13.56,1.82.56Z"/><path class="ao" d="M381.37,80.78c-1.74,0-3.03-.37-3.87-1.1s-1.26-1.94-1.26-3.62v-8.09h-2.18v-3.22h2.18v-3.84h4.32v3.84h2.87v3.22h-2.87v7.62c0,.73.16,1.24.49,1.53.33.29.81.43,1.46.43.2,0,.37,0,.51-.02.15-.02.28-.03.41-.05v3.13c-.23.04-.52.08-.87.11-.35.03-.74.05-1.19.05Z"/><path class="al" d="M397.28,85.58c-.96-1.21-1.74-2.5-2.35-3.86-.61-1.36-1.06-2.82-1.36-4.36-.3-1.54-.45-3.18-.45-4.92s.15-3.38.45-4.92c.3-1.54.75-2.99,1.37-4.35.62-1.36,1.4-2.65,2.34-3.86h2.14c-.53.62-1.02,1.41-1.46,2.39s-.84,2.06-1.18,3.26c-.34,1.2-.6,2.44-.78,3.72-.19,1.28-.28,2.54-.28,3.76s.09,2.48.28,3.76.45,2.53.78,3.73c.34,1.2.73,2.28,1.18,3.26s.94,1.77,1.46,2.39h-2.14Z"/><path class="al" d="M407.11,80.46v-18.34h-.06l-5.6,3.9v-2.65l5.62-4.04h2.58v21.14h-2.55Z"/><path class="al" d="M422.46,58.97c.98,0,1.94.18,2.89.55.95.37,1.81.96,2.59,1.78.78.82,1.4,1.9,1.86,3.24.46,1.34.7,3,.7,4.96v.03c0,2.37-.33,4.4-.97,6.09-.65,1.69-1.58,2.97-2.81,3.86s-2.7,1.33-4.42,1.33c-1.19,0-2.27-.21-3.24-.64s-1.77-1.03-2.42-1.79c-.64-.77-1.08-1.66-1.32-2.69l-.04-.19h2.68l.06.16c.21.58.52,1.08.92,1.5.4.42.88.75,1.45.98.57.23,1.22.34,1.94.34,1.32,0,2.38-.38,3.19-1.14.8-.76,1.4-1.77,1.79-3.02.38-1.26.6-2.62.64-4.09,0-.1.01-.19.01-.29v-.29l-.63-3.47c0-.91-.21-1.73-.64-2.46-.43-.73-1-1.32-1.73-1.75-.73-.43-1.55-.65-2.45-.65s-1.71.21-2.45.64c-.73.42-1.31,1-1.74,1.72s-.64,1.53-.64,2.42v.03c0,.92.21,1.73.62,2.45s.98,1.27,1.7,1.68c.72.4,1.55.61,2.48.61s1.76-.2,2.49-.6,1.31-.95,1.74-1.66c.42-.7.64-1.5.64-2.4h0s.88-.01.88-.01v3.59h-.31c-.28.62-.7,1.19-1.26,1.71-.56.51-1.23.92-2.01,1.23-.79.31-1.66.46-2.61.46-1.34,0-2.54-.3-3.6-.91s-1.89-1.44-2.5-2.49c-.61-1.05-.92-2.25-.92-3.59v-.03c0-1.39.32-2.62.97-3.7.65-1.08,1.54-1.93,2.66-2.55,1.12-.62,2.41-.93,3.85-.93Z"/><path class="al" d="M446.29,64.69l1.61,1.61-12.42,12.79-1.61-1.61,12.42-12.79ZM433.87,66.3l1.61-1.61,12.42,12.79-1.61,1.61-12.42-12.79Z"/><path class="al" d="M457.06,80.46v-18.34h-.06l-5.6,3.9v-2.65l5.62-4.04h2.58v21.14h-2.55Z"/><path class="al" d="M472.41,58.97c.98,0,1.94.18,2.89.55.95.37,1.81.96,2.59,1.78.78.82,1.4,1.9,1.86,3.24.46,1.34.7,3,.7,4.96v.03c0,2.37-.33,4.4-.97,6.09-.65,1.69-1.58,2.97-2.81,3.86s-2.7,1.33-4.42,1.33c-1.19,0-2.27-.21-3.24-.64s-1.77-1.03-2.42-1.79c-.64-.77-1.08-1.66-1.32-2.69l-.04-.19h2.68l.06.16c.21.58.52,1.08.92,1.5.4.42.88.75,1.45.98.57.23,1.22.34,1.94.34,1.32,0,2.38-.38,3.19-1.14.8-.76,1.4-1.77,1.79-3.02.38-1.26.6-2.62.64-4.09,0-.1.01-.19.01-.29v-.29l-.63-3.47c0-.91-.21-1.73-.64-2.46-.43-.73-1-1.32-1.73-1.75-.73-.43-1.55-.65-2.45-.65s-1.71.21-2.45.64c-.73.42-1.31,1-1.74,1.72s-.64,1.53-.64,2.42v.03c0,.92.21,1.73.62,2.45s.98,1.27,1.7,1.68c.72.4,1.55.61,2.48.61s1.76-.2,2.49-.6,1.31-.95,1.74-1.66c.42-.7.64-1.5.64-2.4h0s.88-.01.88-.01v3.59h-.31c-.28.62-.7,1.19-1.26,1.71-.56.51-1.23.92-2.01,1.23-.79.31-1.66.46-2.61.46-1.34,0-2.54-.3-3.6-.91s-1.89-1.44-2.5-2.49c-.61-1.05-.92-2.25-.92-3.59v-.03c0-1.39.32-2.62.97-3.7.65-1.08,1.54-1.93,2.66-2.55,1.12-.62,2.41-.93,3.85-.93Z"/><path class="al" d="M496.02,85.88c-1.25,0-2.34-.18-3.27-.54-.93-.36-1.68-.84-2.26-1.45-.57-.61-.94-1.29-1.11-2.04l-.03-.13h2.56l.06.13c.24.55.71.98,1.41,1.3.7.32,1.57.48,2.6.48,1.34,0,2.37-.34,3.11-1.03.73-.69,1.1-1.62,1.1-2.8v-1.95h-.06c-.3.57-.69,1.05-1.17,1.46s-1.03.73-1.65.96c-.62.23-1.3.34-2.03.34-1.28,0-2.41-.32-3.38-.97-.97-.65-1.73-1.56-2.27-2.74-.54-1.18-.81-2.56-.81-4.14h0c0-1.6.28-2.97.83-4.14.55-1.17,1.32-2.07,2.29-2.72s2.11-.97,3.4-.97c.72,0,1.39.12,1.99.37s1.14.58,1.62,1.01.87.93,1.18,1.49h.06v-2.58h2.55v14.81c0,1.18-.27,2.21-.82,3.08-.55.88-1.32,1.55-2.33,2.04-1.01.48-2.2.72-3.57.72ZM495.85,78.35c.87,0,1.63-.23,2.28-.7.65-.46,1.16-1.12,1.52-1.96.37-.84.55-1.82.55-2.94h0c0-1.14-.18-2.11-.55-2.94-.37-.83-.88-1.47-1.53-1.93s-1.41-.69-2.27-.69-1.68.23-2.34.68c-.66.45-1.17,1.1-1.53,1.93-.36.83-.54,1.81-.54,2.94h0c0,1.17.18,2.16.54,3,.36.84.87,1.48,1.53,1.93.66.46,1.45.68,2.34.68Z"/><path class="al" d="M506.04,80.46v-15.23h2.55v2.58h.06c.25-.88.69-1.58,1.32-2.09s1.37-.78,2.23-.78c.22,0,.43.01.61.04.18.02.32.05.42.07v2.48c-.1-.04-.27-.07-.52-.1-.25-.03-.53-.04-.84-.04-.65,0-1.23.15-1.72.44-.49.29-.88.71-1.14,1.27-.27.55-.4,1.21-.4,1.98v9.4h-2.55Z"/><path class="al" d="M516.72,62.64c-.44,0-.82-.16-1.13-.47s-.47-.69-.47-1.13.16-.83.47-1.14c.31-.31.69-.46,1.13-.46s.83.15,1.14.46c.31.31.46.69.46,1.14s-.15.82-.46,1.13c-.31.31-.69.47-1.14.47ZM515.45,80.46v-15.23h2.55v15.23h-2.55Z"/><path class="al" d="M527.2,80.75c-1.3,0-2.43-.32-3.41-.97-.97-.65-1.73-1.57-2.26-2.75-.54-1.19-.81-2.58-.81-4.18h0c0-1.62.27-3.01.81-4.19.54-1.18,1.3-2.1,2.26-2.75.97-.65,2.08-.97,3.35-.97.72,0,1.39.12,2.01.34.62.23,1.17.56,1.66.98.49.42.89.93,1.2,1.52h.06v-8.45h2.55v21.14h-2.55v-2.58h-.06c-.31.6-.71,1.11-1.19,1.53-.48.42-1.02.75-1.63.99s-1.28.35-2.01.35ZM527.69,78.49c.86,0,1.62-.23,2.29-.7s1.18-1.13,1.56-1.98c.38-.85.56-1.84.56-2.97h0c0-1.15-.19-2.14-.57-2.98-.38-.85-.9-1.5-1.56-1.97-.66-.47-1.42-.7-2.28-.7s-1.67.23-2.33.69-1.16,1.11-1.51,1.95-.53,1.84-.53,3h0c0,1.18.18,2.18.53,3.03s.85,1.5,1.51,1.96c.65.46,1.43.68,2.33.68Z"/><path class="al" d="M539.15,85.58h-2.14c.53-.62,1.02-1.41,1.46-2.39s.84-2.07,1.18-3.27c.34-1.2.6-2.44.78-3.73.19-1.28.28-2.54.28-3.76s-.09-2.47-.28-3.76c-.19-1.29-.45-2.53-.78-3.72-.34-1.2-.73-2.28-1.18-3.26s-.94-1.77-1.46-2.39h2.14c.96,1.21,1.74,2.5,2.35,3.86.61,1.36,1.06,2.81,1.36,4.35.3,1.54.45,3.18.45,4.92s-.15,3.38-.45,4.92-.75,3-1.36,4.37c-.61,1.37-1.39,2.65-2.35,3.85Z"/><path class="al" d="M633.05,136.11v-.75h2.79v-7.38h-.09l-2.72,1.75v-.96l2.82-1.82h.86v8.41h2.66v.75h-6.31Z"/><path class="al" d="M635.87,151.76c1.61,0,2.71,1.03,2.71,2.53,0,.93-.39,1.64-1.82,3.29l-2.29,2.65v.1h4.27v.79h-5.55v-.55l3.14-3.67c1.12-1.33,1.38-1.82,1.38-2.59,0-1.08-.73-1.78-1.86-1.78s-1.85.75-1.85,1.92v.04h-.86v-.04c0-1.56,1.15-2.68,2.72-2.68Z"/><path class="al" d="M634.82,181.01h.97c1.07,0,1.83-.75,1.83-1.79s-.73-1.69-1.81-1.69-1.78.65-1.89,1.71h-.87c.13-1.53,1.2-2.47,2.8-2.47s2.69.98,2.69,2.35c0,1.11-.56,1.9-1.54,2.15v.1c1.21.17,1.93,1.04,1.93,2.31,0,1.52-1.28,2.63-3.01,2.63s-2.96-1.02-3.05-2.53h.83c.11,1.07.98,1.77,2.19,1.77,1.33,0,2.16-.71,2.16-1.85s-.86-1.93-2.21-1.93h-1.03v-.75Z"/><path class="al" d="M637.14,209.09h-4.2v-.67l3.23-6.47h.89l-3.21,6.33v.06h3.29v-2.75h.79v2.72h1.45v.77h-1.47v2.03h-.78v-2.03Z"/><path class="al" d="M632.95,233.75h.83c.1,1.05.98,1.79,2.14,1.79,1.26,0,2.09-.91,2.09-2.27s-.84-2.3-2.09-2.3c-.88,0-1.62.41-2,1.11h-.81l.48-5.12h4.79v.78h-4.11l-.27,3.24h.1c.48-.53,1.11-.8,1.9-.8,1.69,0,2.88,1.27,2.88,3.08s-1.22,3.05-3.03,3.05c-1.62,0-2.79-1.02-2.89-2.55Z"/><path class="al" d="M635.93,261.3c-1.71,0-2.96-1.28-2.96-3.01,0-1.05.36-2.01,1.22-3.27l2.1-3.07h1.01l-2.57,3.61c-.28.41-.22.32-.26.39l.08.06c.25-.37.95-.67,1.54-.67,1.64,0,2.85,1.22,2.85,2.89,0,1.8-1.24,3.07-3,3.07ZM638.1,258.28c0-1.28-.93-2.27-2.15-2.27s-2.15.99-2.15,2.27.93,2.27,2.15,2.27,2.15-.99,2.15-2.27Z"/><path class="al" d="M638.08,277.8v-.07h-5.08v-.78h5.97v.81l-4.2,8.35h-.93l4.23-8.31Z"/><path class="al" d="M632.89,308.67c0-1.14.72-2.08,1.82-2.34v-.09c-.89-.27-1.45-1.06-1.45-2.06,0-1.42,1.13-2.42,2.72-2.42s2.72,1,2.72,2.42c0,1.01-.55,1.79-1.45,2.06v.09c1.07.22,1.82,1.18,1.82,2.34,0,1.55-1.28,2.65-3.08,2.65s-3.09-1.1-3.09-2.65ZM638.21,308.62c0-1.14-.91-1.92-2.23-1.92s-2.23.79-2.23,1.92.91,1.92,2.23,1.92,2.23-.79,2.23-1.92ZM637.85,304.23c0-1.02-.74-1.69-1.87-1.69s-1.87.67-1.87,1.69.74,1.69,1.87,1.69,1.87-.67,1.87-1.69Z"/><path class="al" d="M635.92,326.76c1.71,0,2.96,1.28,2.96,3.01,0,1.02-.36,1.96-1.25,3.27l-2.09,3.07h-1.01l2.57-3.61c.19-.27.22-.32.27-.39l-.08-.06c-.25.38-.93.67-1.51.67-1.64,0-2.85-1.23-2.85-2.89,0-1.8,1.24-3.07,3-3.07ZM633.75,329.79c0,1.28.93,2.27,2.15,2.27s2.15-.99,2.15-2.27-.93-2.27-2.15-2.27-2.15.99-2.15,2.27Z"/><path class="al" d="M629.03,361.11v-.75h2.79v-7.38h-.09l-2.72,1.75v-.96l2.82-1.82h.86v8.41h2.66v.75h-6.31Z"/><path class="al" d="M637,356.54c0-3.1,1.05-4.79,2.96-4.79s2.96,1.7,2.96,4.79-1.05,4.79-2.96,4.79-2.96-1.69-2.96-4.79ZM637.95,357.89l3.87-3.54c-.31-1.22-.93-1.85-1.86-1.85-1.37,0-2.09,1.38-2.09,4.03,0,.49.03.95.08,1.36ZM642.05,356.54c0-.51-.03-.96-.08-1.38l-3.87,3.59c.31,1.2.93,1.82,1.85,1.82,1.37,0,2.09-1.38,2.09-4.03Z"/><path class="al" d="M629.03,386.11v-.75h2.79v-7.38h-.09l-2.72,1.75v-.96l2.82-1.82h.86v8.41h2.66v.75h-6.31Z"/><path class="al" d="M637.07,386.11v-.75h2.79v-7.38h-.1l-2.72,1.75v-.96l2.82-1.82h.86v8.41h2.66v.75h-6.31Z"/><path class="al" d="M629.03,411.11v-.75h2.79v-7.38h-.09l-2.72,1.75v-.96l2.82-1.82h.86v8.41h2.66v.75h-6.31Z"/><path class="al" d="M639.89,401.76c1.61,0,2.71,1.03,2.71,2.53,0,.93-.39,1.64-1.82,3.29l-2.29,2.65v.1h4.27v.79h-5.55v-.55l3.14-3.67c1.12-1.33,1.38-1.82,1.38-2.59,0-1.08-.73-1.78-1.86-1.78s-1.85.75-1.85,1.92v.04h-.86v-.04c0-1.56,1.15-2.68,2.72-2.68Z"/><path class="al" d="M629.03,436.11v-.75h2.79v-7.38h-.09l-2.72,1.75v-.96l2.82-1.82h.86v8.41h2.66v.75h-6.31Z"/><path class="al" d="M638.84,431.01h.97c1.07,0,1.83-.75,1.83-1.79s-.73-1.69-1.81-1.69-1.78.65-1.89,1.71h-.87c.13-1.53,1.2-2.47,2.81-2.47s2.68.98,2.68,2.35c0,1.11-.57,1.9-1.54,2.15v.1c1.21.17,1.93,1.04,1.93,2.31,0,1.52-1.28,2.63-3.02,2.63s-2.96-1.02-3.05-2.53h.83c.11,1.07.98,1.77,2.19,1.77,1.33,0,2.16-.71,2.16-1.85s-.86-1.93-2.21-1.93h-1.03v-.75Z"/><path class="al" d="M629.03,461.11v-.75h2.79v-7.38h-.09l-2.72,1.75v-.96l2.82-1.82h.86v8.41h2.66v.75h-6.31Z"/><path class="al" d="M641.15,459.09h-4.2v-.67l3.23-6.47h.89l-3.21,6.33v.06h3.29v-2.75h.79v2.72h1.45v.77h-1.47v2.03h-.78v-2.03Z"/><path class="al" d="M629.03,486.11v-.75h2.79v-7.38h-.09l-2.72,1.75v-.96l2.82-1.82h.86v8.41h2.66v.75h-6.31Z"/><path class="al" d="M636.97,483.75h.83c.1,1.05.98,1.79,2.14,1.79,1.26,0,2.09-.91,2.09-2.27s-.84-2.3-2.09-2.3c-.88,0-1.62.41-2,1.11h-.81l.48-5.12h4.79v.78h-4.11l-.27,3.24h.09c.48-.53,1.11-.8,1.9-.8,1.7,0,2.88,1.27,2.88,3.08s-1.23,3.05-3.03,3.05c-1.62,0-2.79-1.02-2.89-2.55Z"/><path class="al" d="M629.03,511.11v-.75h2.79v-7.38h-.09l-2.72,1.75v-.96l2.82-1.82h.86v8.41h2.66v.75h-6.31Z"/><path class="al" d="M639.95,511.3c-1.71,0-2.96-1.28-2.96-3.01,0-1.05.36-2.01,1.22-3.27l2.09-3.07h1.01l-2.57,3.61c-.28.41-.22.32-.26.39l.08.06c.25-.37.95-.67,1.54-.67,1.64,0,2.85,1.22,2.85,2.89,0,1.8-1.24,3.07-3,3.07ZM642.12,508.28c0-1.28-.93-2.27-2.15-2.27s-2.15.99-2.15,2.27.93,2.27,2.15,2.27,2.15-.99,2.15-2.27Z"/><path class="al" d="M629.03,536.11v-.75h2.79v-7.38h-.09l-2.72,1.75v-.96l2.82-1.82h.86v8.41h2.66v.75h-6.31Z"/><path class="al" d="M642.09,527.8v-.07h-5.08v-.78h5.97v.81l-4.2,8.35h-.93l4.23-8.31Z"/><path class="al" d="M629.03,561.11v-.75h2.79v-7.38h-.09l-2.72,1.75v-.96l2.82-1.82h.86v8.41h2.66v.75h-6.31Z"/><path class="al" d="M636.91,558.67c0-1.14.72-2.08,1.81-2.34v-.09c-.89-.27-1.45-1.06-1.45-2.06,0-1.42,1.13-2.42,2.72-2.42s2.72,1,2.72,2.42c0,1.01-.54,1.79-1.45,2.06v.09c1.07.22,1.82,1.18,1.82,2.34,0,1.55-1.28,2.65-3.09,2.65s-3.08-1.1-3.08-2.65ZM642.23,558.62c0-1.14-.91-1.92-2.23-1.92s-2.23.79-2.23,1.92.91,1.92,2.23,1.92,2.23-.79,2.23-1.92ZM641.87,554.23c0-1.02-.74-1.69-1.87-1.69s-1.87.67-1.87,1.69.74,1.69,1.87,1.69,1.87-.67,1.87-1.69Z"/><path class="al" d="M629.03,586.11v-.75h2.79v-7.38h-.09l-2.72,1.75v-.96l2.82-1.82h.86v8.41h2.66v.75h-6.31Z"/><path class="al" d="M639.94,576.76c1.71,0,2.96,1.28,2.96,3.01,0,1.02-.36,1.96-1.25,3.27l-2.1,3.07h-1.01l2.57-3.61c.19-.27.22-.32.27-.39l-.08-.06c-.25.38-.93.67-1.51.67-1.64,0-2.85-1.23-2.85-2.89,0-1.8,1.24-3.07,3-3.07ZM637.77,579.79c0,1.28.93,2.27,2.15,2.27s2.15-.99,2.15-2.27-.93-2.27-2.15-2.27-2.15.99-2.15,2.27Z"/><path class="al" d="M1102.27,116.73c.11,1.01.91,1.64,2.1,1.64s2-.66,2-1.66c0-.81-.53-1.31-1.74-1.62l-.66-.17c-1.59-.42-2.29-1.14-2.29-2.35,0-1.38,1.06-2.27,2.69-2.27,1.54,0,2.59.88,2.67,2.24h-.8c-.12-.96-.81-1.51-1.87-1.51-1.17,0-1.87.57-1.87,1.54,0,.79.5,1.26,1.68,1.56l.69.18c1.65.43,2.33,1.13,2.33,2.4,0,1.44-1.12,2.39-2.82,2.39s-2.8-.91-2.9-2.37h.8Z"/><path class="al" d="M656.81,116.34h-3.07l-.83,2.59h-.82l2.79-8.46h.79l2.79,8.46h-.82l-.83-2.59ZM653.95,115.64h2.64l-1.31-4.12h-.01l-1.31,4.12Z"/><path class="al" d="M1077.55,115.44v3.49h-.79v-8.46h2.75c1.61,0,2.63.96,2.63,2.47,0,1.11-.63,2.02-1.61,2.31l1.73,3.67h-.9l-1.61-3.49h-2.22ZM1077.55,114.75h1.86c1.25,0,1.95-.63,1.95-1.77s-.68-1.79-1.89-1.79h-1.92v3.56Z"/><path class="al" d="M1055.81,118.77c-.41.22-.88.33-1.42.33-1.88,0-3.04-1.37-3.04-3.7v-1.4c0-2.33,1.16-3.7,3.04-3.7s3.04,1.37,3.04,3.7v1.4c0,1.29-.36,2.29-1,2.92l1.05,1.59h-.92l-.76-1.14ZM1055.38,118.13l-1.25-1.9h.92l.93,1.41c.42-.5.64-1.27.64-2.24v-1.4c0-1.88-.86-2.96-2.24-2.96s-2.24,1.08-2.24,2.96v1.4c0,1.88.86,2.96,2.24,2.96.38,0,.71-.08,1-.23Z"/><path class="al" d="M1029.7,110.47c1.59,0,2.65,1.05,2.65,2.63s-1.06,2.63-2.65,2.63h-1.9v3.19h-.8v-8.46h2.71ZM1027.8,115.02h1.71c1.28,0,2.03-.7,2.03-1.92s-.74-1.92-2.03-1.92h-1.71v3.83Z"/><path class="al" d="M1004.49,119.1c-1.88,0-3.04-1.37-3.04-3.7v-1.4c0-2.33,1.16-3.7,3.04-3.7s3.04,1.37,3.04,3.7v1.4c0,2.33-1.16,3.7-3.04,3.7ZM1006.73,115.4v-1.4c0-1.88-.86-2.96-2.24-2.96s-2.24,1.08-2.24,2.96v1.4c0,1.88.86,2.96,2.24,2.96s2.24-1.08,2.24-2.96Z"/><path class="al" d="M976.79,118.93v-8.46h.81l3.88,7.02h.08v-7.02h.75v8.46h-.8l-3.9-7.03h-.08v7.03h-.75Z"/><path class="al" d="M952.35,118.93h-.75v-8.46h.94l2.03,5.44h.06l2.02-5.44h.95v8.46h-.75v-6.9h-.06l-1.85,4.91h-.69l-1.85-4.91h-.06v6.9Z"/><path class="al" d="M932.48,118.93h-4.92v-8.46h.8v7.73h4.12v.73Z"/><path class="al" d="M902.4,118.93v-8.46h.8v4.37h.07l3.59-4.37h1l-3.21,3.74,3.55,4.72h-1.04l-3.05-4.1-.93,1.08v3.02h-.8Z"/><path class="al" d="M877.17,116.99h.8c.04.81.67,1.37,1.55,1.37,1.03,0,1.61-.64,1.61-1.76v-5.43h-2.86v-.69h3.66v6.15c0,1.54-.91,2.48-2.4,2.48-1.37,0-2.34-.87-2.35-2.11Z"/><path class="al" d="M852.73,118.93v-.69h1.7v-7.07h-1.7v-.69h4.2v.69h-1.7v7.07h1.7v.69h-4.2Z"/><path class="al" d="M831.82,118.93v-3.97h-3.87v3.97h-.8v-8.46h.8v3.76h3.87v-3.76h.8v8.46h-.8Z"/><path class="al" d="M807.11,115.43h-2.09v-.71h2.89v1.82c0,1.51-1.18,2.57-2.83,2.57-1.95,0-3.07-1.35-3.07-3.7v-1.4c0-2.35,1.12-3.7,3.07-3.7,1.72,0,2.79,1.05,2.84,2.76h-.8c-.05-1.2-.87-2.02-2.03-2.02-1.49,0-2.27,1.02-2.27,2.96v1.4c0,1.94.78,2.96,2.27,2.96,1.25,0,2.03-.74,2.03-1.94v-.99Z"/><path class="al" d="M777.85,118.93v-8.46h4.86v.73h-4.05v3.18h3.71v.71h-3.71v3.84h-.8Z"/><path class="al" d="M757.62,118.93h-4.86v-8.46h4.86v.73h-4.06v3.04h3.84v.71h-3.84v3.25h4.06v.73Z"/><path class="al" d="M729.66,110.47c2.4,0,3.6,1.41,3.6,4.23s-1.2,4.22-3.6,4.22h-2.24v-8.46h2.24ZM728.22,118.2h1.39c1.92,0,2.83-1.12,2.83-3.5s-.91-3.5-2.83-3.5h-1.39v7Z"/><path class="al" d="M707.39,116.52h.8c0,1.51-1.18,2.58-2.84,2.58-1.95,0-3.07-1.35-3.07-3.7v-1.4c0-2.35,1.12-3.7,3.07-3.7,1.72,0,2.8,1.05,2.84,2.76h-.8c-.05-1.2-.87-2.02-2.04-2.02-1.49,0-2.27,1.02-2.27,2.96v1.4c0,1.94.78,2.96,2.27,2.96,1.22,0,2-.7,2.03-1.84Z"/><path class="al" d="M677.7,118.93v-8.46h2.6c1.54,0,2.46.78,2.46,2.09,0,.94-.59,1.71-1.43,1.86v.08c1.14.13,1.86.94,1.86,2.09,0,1.48-1.06,2.34-2.88,2.34h-2.61ZM678.5,114.2h1.45c1.3,0,1.99-.53,1.99-1.51s-.66-1.51-1.8-1.51h-1.65v3.02ZM680.2,118.22c1.41,0,2.17-.59,2.17-1.67s-.76-1.65-2.21-1.65h-1.65v3.32h1.69Z"/><path class="al" d="M665,80.46v-21.14h13.1v2.37h-10.46v6.78h9.92v2.34h-9.92v7.27h10.46v2.37h-13.1Z"/><path class="al" d="M679.99,80.46l5.19-7.62-5.1-7.62h2.84l3.66,5.71h.06l3.62-5.71h2.84l-5.14,7.51,5.07,7.72h-2.83l-3.65-5.8h-.06l-3.68,5.8h-2.83Z"/><path class="al" d="M699.38,80.75c-1.01,0-1.89-.19-2.65-.57s-1.36-.92-1.78-1.61c-.43-.69-.64-1.5-.64-2.42v-.03c0-.87.22-1.62.65-2.26.44-.63,1.06-1.14,1.89-1.51.82-.37,1.82-.59,2.98-.66l5.64-.32v1.98l-5.35.32c-1.02.06-1.8.3-2.37.73-.56.43-.84,1-.84,1.71v.03c0,.73.28,1.31.83,1.74.55.43,1.29.64,2.21.64.8,0,1.52-.17,2.16-.5.64-.34,1.15-.8,1.52-1.38.38-.59.56-1.25.56-1.98v-4.5c0-.93-.29-1.66-.87-2.19-.58-.53-1.4-.8-2.47-.8-.98,0-1.77.21-2.37.64-.6.43-.97.98-1.12,1.66l-.03.13h-2.46v-.16c.09-.84.38-1.6.87-2.29.49-.68,1.17-1.23,2.04-1.63.87-.4,1.9-.61,3.09-.61s2.24.21,3.11.62c.87.41,1.55.99,2.03,1.74.48.75.72,1.63.72,2.64v10.53h-2.55v-2.48h-.06c-.29.56-.68,1.04-1.17,1.46-.49.41-1.04.74-1.65.97-.61.23-1.26.34-1.94.34Z"/><path class="al" d="M709.99,80.46v-15.23h2.55v2.23h.06c.34-.75.88-1.36,1.61-1.82.73-.46,1.59-.7,2.56-.7.69,0,1.32.12,1.88.34.56.23,1.05.56,1.46,1,.41.44.72.96.94,1.59h.06c.28-.62.66-1.14,1.13-1.57.47-.44,1.02-.77,1.64-1,.62-.23,1.29-.35,2-.35,1.01,0,1.88.21,2.62.62.74.41,1.32,1,1.73,1.74.41.75.62,1.63.62,2.64v10.52h-2.55v-9.93c0-.7-.12-1.3-.37-1.8-.25-.5-.61-.88-1.08-1.14s-1.04-.4-1.71-.4-1.27.15-1.79.46c-.52.31-.92.73-1.22,1.28-.29.54-.44,1.16-.44,1.85v9.68h-2.55v-10.21c0-.62-.13-1.15-.39-1.61-.26-.46-.62-.82-1.08-1.07-.46-.25-1.01-.38-1.65-.38-.67,0-1.27.16-1.79.49-.52.33-.94.77-1.24,1.33s-.45,1.19-.45,1.9v9.55h-2.55Z"/><path class="al" d="M734.09,85.58v-20.36h2.55v2.58h.06c.32-.6.72-1.11,1.19-1.53.47-.42,1.02-.75,1.63-.99s1.28-.35,2.01-.35c1.3,0,2.43.32,3.41.97.97.65,1.73,1.57,2.26,2.75.54,1.19.81,2.58.81,4.18h0c0,1.62-.27,3.01-.81,4.19-.54,1.18-1.29,2.1-2.26,2.75-.96.65-2.08.97-3.36.97-.71,0-1.38-.12-2.01-.34-.62-.23-1.18-.56-1.66-.98-.48-.42-.89-.93-1.21-1.52h-.06v7.68h-2.55ZM741.03,78.49c.9,0,1.67-.23,2.33-.69s1.16-1.11,1.51-1.96c.35-.84.53-1.84.53-3h0c0-1.19-.18-2.19-.53-3.04-.35-.84-.85-1.49-1.51-1.95-.65-.46-1.43-.68-2.33-.68s-1.62.23-2.29.7-1.18,1.12-1.56,1.97c-.38.84-.56,1.84-.56,2.98h0c0,1.15.19,2.14.57,2.98.38.85.9,1.5,1.56,1.97.66.47,1.42.7,2.28.7Z"/><path class="al" d="M750.7,80.46v-21.14h2.55v21.14h-2.55Z"/><path class="al" d="M762.96,80.75c-1.46,0-2.71-.32-3.76-.97-1.05-.64-1.86-1.55-2.42-2.73-.56-1.18-.84-2.56-.84-4.15h0c0-1.59.28-2.97.85-4.17.57-1.2,1.36-2.13,2.39-2.8,1.03-.67,2.23-1,3.62-1s2.58.32,3.58.96c1,.64,1.77,1.54,2.31,2.69s.81,2.49.81,4.01v.94h-12.28v-1.99h11.02l-1.29,1.85v-.98c0-1.18-.18-2.16-.53-2.93-.36-.77-.85-1.35-1.47-1.72-.62-.38-1.34-.56-2.15-.56s-1.54.2-2.18.59c-.64.39-1.15.98-1.52,1.76-.37.78-.56,1.73-.56,2.86v.98c0,1.07.18,1.99.55,2.75.37.76.89,1.34,1.56,1.75.67.4,1.47.61,2.39.61.64,0,1.22-.1,1.73-.29s.93-.46,1.27-.81.59-.73.73-1.17l.04-.13h2.5l-.03.15c-.13.62-.37,1.21-.72,1.76-.36.55-.81,1.03-1.37,1.44-.56.41-1.19.74-1.9.97-.71.23-1.48.34-2.31.34Z"/><path class="al" d="M773.62,69.32c-.47,0-.86-.16-1.19-.48s-.48-.72-.48-1.19.16-.86.48-1.19.72-.48,1.19-.48.86.16,1.19.48.48.72.48,1.19-.16.86-.48,1.19-.72.48-1.19.48ZM773.62,80.66c-.47,0-.86-.16-1.19-.48s-.48-.72-.48-1.19.16-.86.48-1.19.72-.48,1.19-.48.86.16,1.19.48.48.72.48,1.19-.16.86-.48,1.19-.72.48-1.19.48Z"/><path class="ao" d="M784.54,80.46v-21.14h8.73c1.58,0,2.94.27,4.06.81,1.13.54,1.99,1.32,2.59,2.32.6,1.01.9,2.22.9,3.63v.03c0,1.4-.34,2.63-1.03,3.71-.69,1.08-1.62,1.85-2.79,2.31l4.45,8.32h-5.02l-3.93-7.65h-3.54v7.65h-4.42ZM788.96,69.44h3.82c1.09,0,1.95-.29,2.58-.88s.94-1.4.94-2.43v-.03c0-1.02-.33-1.82-.97-2.42-.65-.6-1.52-.89-2.6-.89h-3.76v6.65Z"/><path class="ao" d="M808.71,80.78c-1.14,0-2.12-.24-2.93-.71-.81-.47-1.43-1.15-1.85-2.03s-.63-1.93-.63-3.15v-10.14h4.28v9.24c0,1.03.24,1.82.73,2.39.48.57,1.2.85,2.16.85.48,0,.91-.08,1.3-.25.38-.17.71-.4.99-.71.27-.31.48-.67.63-1.1.15-.42.22-.89.22-1.4v-9.02h4.28v15.7h-4.28v-2.59h-.1c-.26.6-.62,1.11-1.06,1.55-.45.44-.98.78-1.6,1.01-.62.23-1.33.35-2.13.35Z"/><path class="ao" d="M829.96,80.78c-.75,0-1.44-.12-2.07-.36-.62-.24-1.17-.58-1.64-1.03s-.84-.99-1.13-1.61h-.09v2.68h-4.28v-21.14h4.28v8.16h.09c.29-.63.67-1.18,1.14-1.63.47-.46,1.02-.8,1.65-1.05.63-.24,1.32-.37,2.06-.37,1.32,0,2.45.32,3.41.97.95.65,1.69,1.58,2.2,2.8.52,1.22.78,2.68.78,4.39h0c0,1.71-.26,3.17-.78,4.39s-1.25,2.16-2.21,2.81-2.09.98-3.41.98ZM828.54,77.23c.71,0,1.33-.19,1.85-.56.52-.38.92-.91,1.19-1.6.28-.69.42-1.51.42-2.46h0c0-.97-.14-1.79-.42-2.48-.28-.69-.68-1.22-1.2-1.59s-1.13-.56-1.83-.56-1.3.19-1.82.56c-.52.38-.93.91-1.23,1.6-.3.69-.45,1.51-.45,2.45h0c0,.96.15,1.78.44,2.48s.7,1.23,1.23,1.6c.53.38,1.14.56,1.83.56Z"/><path class="ao" d="M847.86,80.78c-.75,0-1.44-.12-2.07-.36-.62-.24-1.17-.58-1.64-1.03s-.84-.99-1.13-1.61h-.09v2.68h-4.28v-21.14h4.28v8.16h.09c.29-.63.67-1.18,1.14-1.63.47-.46,1.02-.8,1.65-1.05.63-.24,1.32-.37,2.06-.37,1.32,0,2.45.32,3.41.97.95.65,1.69,1.58,2.2,2.8.52,1.22.78,2.68.78,4.39h0c0,1.71-.26,3.17-.78,4.39s-1.25,2.16-2.21,2.81-2.09.98-3.41.98ZM846.44,77.23c.71,0,1.33-.19,1.85-.56.52-.38.92-.91,1.19-1.6.28-.69.42-1.51.42-2.46h0c0-.97-.14-1.79-.42-2.48-.28-.69-.68-1.22-1.2-1.59s-1.13-.56-1.83-.56-1.3.19-1.82.56c-.52.38-.93.91-1.23,1.6-.3.69-.45,1.51-.45,2.45h0c0,.96.15,1.78.44,2.48s.7,1.23,1.23,1.6c.53.38,1.14.56,1.83.56Z"/><path class="ao" d="M863.61,80.78c-1.6,0-2.98-.33-4.13-.99-1.15-.66-2.04-1.6-2.67-2.82s-.94-2.67-.94-4.34h0c0-1.68.31-3.13.94-4.36.62-1.23,1.5-2.17,2.63-2.84,1.13-.67,2.46-1,3.99-1s2.86.32,3.98.97c1.12.65,1.98,1.56,2.59,2.75.61,1.18.92,2.56.92,4.15v1.33h-12.93v-2.71h10.91l-2.04,2.53v-1.66c0-.92-.14-1.69-.42-2.31-.28-.62-.68-1.09-1.18-1.4-.5-.31-1.09-.47-1.75-.47s-1.25.16-1.76.48c-.51.32-.91.79-1.2,1.41-.29.62-.43,1.38-.43,2.28v1.67c0,.86.14,1.6.43,2.21.29.62.7,1.09,1.24,1.41.54.33,1.18.49,1.92.49.59,0,1.09-.09,1.52-.28s.78-.42,1.05-.7.46-.57.56-.86l.03-.09h3.93l-.04.16c-.12.58-.35,1.16-.69,1.74s-.8,1.12-1.38,1.61c-.58.49-1.29.88-2.12,1.17-.84.29-1.81.44-2.94.44Z"/><path class="ao" d="M873.11,80.46v-15.7h4.28v2.74h.09c.23-.97.66-1.72,1.27-2.26s1.38-.81,2.3-.81c.23,0,.46.01.67.04s.4.07.56.12v3.78c-.18-.08-.4-.14-.67-.18-.27-.04-.57-.07-.88-.07-.7,0-1.3.14-1.8.41s-.88.67-1.14,1.2-.4,1.17-.4,1.93v8.79h-4.28Z"/><path class="ao" d="M890.33,80.46v-21.14h4.42v21.14h-4.42ZM892.54,80.46v-3.3h6.02c1.26,0,2.23-.26,2.9-.77.67-.51,1.01-1.26,1.01-2.23v-.03c0-.64-.15-1.19-.46-1.63-.31-.45-.77-.78-1.38-1-.61-.22-1.36-.34-2.26-.34h-5.83v-3h5.3c1.25,0,2.2-.25,2.85-.75.65-.5.97-1.21.97-2.12v-.03c0-.84-.29-1.49-.86-1.95s-1.38-.69-2.42-.69h-5.84v-3.3h6.99c1.34,0,2.49.21,3.46.64s1.71,1.04,2.24,1.84c.53.79.79,1.74.79,2.82v.03c0,.78-.18,1.5-.53,2.16-.36.66-.84,1.21-1.46,1.64-.62.43-1.31.71-2.09.81v.09c.99.06,1.86.31,2.62.77.76.45,1.36,1.05,1.79,1.79.44.74.65,1.57.65,2.5v.03c0,1.23-.29,2.29-.89,3.19-.59.9-1.43,1.59-2.52,2.09-1.09.49-2.39.74-3.9.74h-7.15Z"/><path class="ao" d="M913.82,80.7c-1.04,0-1.96-.2-2.76-.61-.79-.4-1.42-.97-1.86-1.68-.45-.72-.67-1.54-.67-2.45v-.03c0-.96.24-1.77.72-2.45.48-.68,1.17-1.21,2.09-1.6.91-.39,2.02-.63,3.32-.72l6.12-.38v2.67l-5.48.37c-.82.05-1.45.24-1.88.57s-.64.78-.64,1.33v.03c0,.58.22,1.03.66,1.36.44.33,1.03.49,1.77.49.63,0,1.2-.12,1.71-.37.5-.25.9-.59,1.19-1.03.29-.44.43-.92.43-1.46v-4.78c0-.69-.22-1.24-.66-1.64s-1.08-.6-1.92-.6-1.44.16-1.9.49c-.47.33-.76.75-.86,1.25l-.03.13h-3.93v-.18c.1-.97.43-1.83.99-2.58.56-.75,1.34-1.34,2.34-1.77,1-.42,2.19-.64,3.57-.64s2.53.22,3.53.65c1,.43,1.77,1.05,2.32,1.84.55.79.83,1.71.83,2.77v10.77h-4.28v-2.33h-.09c-.3.53-.68.99-1.14,1.38s-.98.69-1.57.89c-.59.21-1.23.31-1.91.31Z"/><path class="ao" d="M925.57,80.46v-15.7h4.28v2.58h.09c.41-.9,1.02-1.61,1.82-2.12s1.79-.78,2.97-.78c1.73,0,3.06.52,4.01,1.56.94,1.04,1.41,2.48,1.41,4.33v10.14h-4.28v-9.24c0-1.03-.24-1.82-.73-2.39-.48-.57-1.2-.85-2.16-.85-.63,0-1.19.15-1.66.44s-.83.7-1.09,1.22c-.26.52-.39,1.12-.39,1.8v9.02h-4.28Z"/><path class="ao" d="M948.67,80.78c-1.32,0-2.46-.33-3.41-.98s-1.69-1.59-2.21-2.81-.78-2.68-.78-4.38h0c0-1.72.26-3.19.78-4.4.52-1.21,1.25-2.15,2.21-2.8.96-.65,2.09-.97,3.4-.97.75,0,1.44.12,2.07.37s1.17.59,1.65,1.05c.47.45.85,1,1.14,1.63h.09v-8.16h4.28v21.14h-4.28v-2.68h-.09c-.28.62-.66,1.16-1.13,1.61s-1.02.79-1.64,1.03c-.62.24-1.31.36-2.07.36ZM950.11,77.23c.69,0,1.3-.19,1.83-.56.53-.38.94-.91,1.22-1.6.29-.69.43-1.51.43-2.46h0c0-.95-.15-1.77-.44-2.46s-.7-1.23-1.22-1.6c-.52-.38-1.13-.56-1.82-.56s-1.33.19-1.85.56-.92.9-1.2,1.59c-.28.69-.42,1.51-.42,2.47h0c0,.96.14,1.78.42,2.48.28.69.68,1.23,1.2,1.6.52.38,1.14.56,1.85.56Z"/><path class="ao" d="M976.55,80.82c-1.58,0-3-.25-4.26-.75s-2.32-1.22-3.21-2.17c-.88-.95-1.56-2.1-2.03-3.46-.47-1.36-.7-2.9-.7-4.62h0c0-2.28.41-4.22,1.23-5.84.82-1.62,1.99-2.86,3.5-3.73s3.3-1.3,5.36-1.3c1.7,0,3.2.3,4.5.91s2.36,1.43,3.17,2.47c.81,1.04,1.34,2.22,1.57,3.55l.04.22h-4.45l-.04-.16c-.35-1.02-.94-1.81-1.76-2.38-.82-.57-1.83-.86-3.02-.86s-2.16.28-3,.83c-.83.56-1.47,1.36-1.92,2.42-.45,1.05-.67,2.33-.67,3.82h0c0,1.15.13,2.17.4,3.07.26.9.65,1.67,1.15,2.29.5.62,1.11,1.1,1.82,1.44.71.33,1.5.5,2.38.5.96,0,1.8-.18,2.53-.53.73-.36,1.31-.86,1.74-1.51.43-.65.66-1.41.69-2.28v-.29s-4.8,0-4.8,0v-3.31h9.14v2.43c0,1.44-.21,2.72-.64,3.87-.43,1.14-1.04,2.11-1.85,2.92-.81.8-1.79,1.41-2.95,1.83s-2.48.63-3.94.63Z"/><path class="ao" d="M993.8,80.78c-1.14,0-2.12-.24-2.93-.71-.81-.47-1.43-1.15-1.85-2.03s-.63-1.93-.63-3.15v-10.14h4.28v9.24c0,1.03.24,1.82.72,2.39.48.57,1.2.85,2.16.85.48,0,.91-.08,1.3-.25s.72-.4.99-.71c.27-.31.48-.67.63-1.1.15-.42.22-.89.22-1.4v-9.02h4.28v15.7h-4.28v-2.59h-.1c-.26.6-.62,1.11-1.06,1.55s-.98.78-1.6,1.01c-.62.23-1.33.35-2.13.35Z"/><path class="ao" d="M1010.43,80.7c-1.04,0-1.97-.2-2.76-.61-.8-.4-1.42-.97-1.86-1.68-.45-.72-.67-1.54-.67-2.45v-.03c0-.96.24-1.77.72-2.45.48-.68,1.17-1.21,2.09-1.6.91-.39,2.02-.63,3.32-.72l6.12-.38v2.67l-5.48.37c-.82.05-1.45.24-1.88.57s-.64.78-.64,1.33v.03c0,.58.22,1.03.66,1.36.44.33,1.03.49,1.77.49.63,0,1.2-.12,1.71-.37.5-.25.9-.59,1.19-1.03.29-.44.43-.92.43-1.46v-4.78c0-.69-.22-1.24-.66-1.64s-1.08-.6-1.92-.6-1.44.16-1.9.49c-.47.33-.76.75-.86,1.25l-.03.13h-3.93v-.18c.1-.97.43-1.83.99-2.58.56-.75,1.34-1.34,2.34-1.77,1-.42,2.19-.64,3.57-.64s2.53.22,3.53.65c1,.43,1.77,1.05,2.32,1.84s.83,1.71.83,2.77v10.77h-4.28v-2.33h-.09c-.3.53-.68.99-1.14,1.38s-.98.69-1.57.89c-.59.21-1.23.31-1.91.31Z"/><path class="ao" d="M1022.18,80.46v-15.7h4.28v2.74h.09c.23-.97.66-1.72,1.27-2.26s1.38-.81,2.3-.81c.23,0,.46.01.67.04s.4.07.56.12v3.78c-.18-.08-.4-.14-.67-.18-.27-.04-.57-.07-.88-.07-.7,0-1.3.14-1.8.41s-.88.67-1.14,1.2-.4,1.17-.4,1.93v8.79h-4.28Z"/><path class="ao" d="M1038.39,80.78c-1.32,0-2.46-.33-3.41-.98s-1.69-1.59-2.21-2.81-.78-2.68-.78-4.38h0c0-1.72.26-3.19.78-4.4.52-1.21,1.25-2.15,2.21-2.8.96-.65,2.09-.97,3.4-.97.75,0,1.44.12,2.07.37s1.17.59,1.65,1.05c.47.45.85,1,1.13,1.63h.09v-8.16h4.28v21.14h-4.28v-2.68h-.09c-.28.62-.66,1.16-1.13,1.61s-1.02.79-1.64,1.03c-.62.24-1.31.36-2.07.36ZM1039.83,77.23c.69,0,1.3-.19,1.83-.56.53-.38.93-.91,1.22-1.6.29-.69.43-1.51.43-2.46h0c0-.95-.15-1.77-.44-2.46s-.7-1.23-1.22-1.6c-.52-.38-1.13-.56-1.82-.56s-1.33.19-1.85.56-.92.9-1.2,1.59c-.28.69-.42,1.51-.42,2.47h0c0,.96.14,1.78.42,2.48.28.69.68,1.23,1.2,1.6.52.38,1.14.56,1.85.56Z"/><path class="ao" d="M1050.45,80.46v-15.7h4.28v2.74h.09c.23-.97.66-1.72,1.27-2.26s1.38-.81,2.3-.81c.23,0,.46.01.67.04s.4.07.56.12v3.78c-.18-.08-.4-.14-.67-.18-.27-.04-.57-.07-.88-.07-.7,0-1.3.14-1.8.41s-.88.67-1.14,1.2-.4,1.17-.4,1.93v8.79h-4.28Z"/><path class="ao" d="M1065.67,80.7c-1.04,0-1.97-.2-2.76-.61-.8-.4-1.42-.97-1.86-1.68-.45-.72-.67-1.54-.67-2.45v-.03c0-.96.24-1.77.72-2.45.48-.68,1.17-1.21,2.09-1.6.91-.39,2.02-.63,3.32-.72l6.12-.38v2.67l-5.48.37c-.82.05-1.45.24-1.88.57s-.64.78-.64,1.33v.03c0,.58.22,1.03.66,1.36.44.33,1.03.49,1.77.49.63,0,1.2-.12,1.71-.37.5-.25.9-.59,1.19-1.03.29-.44.43-.92.43-1.46v-4.78c0-.69-.22-1.24-.66-1.64s-1.08-.6-1.92-.6-1.44.16-1.9.49c-.47.33-.76.75-.86,1.25l-.03.13h-3.93v-.18c.1-.97.43-1.83.99-2.58.56-.75,1.34-1.34,2.34-1.77,1-.42,2.19-.64,3.57-.64s2.53.22,3.53.65c1,.43,1.77,1.05,2.32,1.84s.83,1.71.83,2.77v10.77h-4.28v-2.33h-.09c-.3.53-.68.99-1.14,1.38s-.98.69-1.57.89c-.59.21-1.23.31-1.91.31Z"/><path class="ao" d="M1079.64,62.75c-.64,0-1.19-.22-1.63-.67-.44-.44-.67-.97-.67-1.57s.22-1.14.67-1.57c.44-.44.99-.65,1.63-.65s1.19.22,1.63.65c.44.43.66.96.66,1.57s-.22,1.13-.66,1.57c-.44.45-.98.67-1.63.67ZM1077.49,80.46v-15.7h4.29v15.7h-4.29Z"/><path class="ao" d="M1084.74,80.46v-21.14h4.28v21.14h-4.28Z"/><rect class="k" x="105.92" y="133.31" width="448.16" height="448.16"/><rect class="ab" x="267.5" y="320.1" width="25" height="25" rx="12.5" ry="12.5"/><rect class="ab" x="242.5" y="295.08" width="25" height="25" rx="12.5" ry="12.5"/><rect class="ab" x="242.5" y="345.11" width="25" height="25" rx="12.5" ry="12.5"/><rect class="ad" x="167.43" y="370.11" width="25" height="25" rx="12.5" ry="12.5" transform="translate(-202.68 562.54) rotate(-90)"/><rect class="aa" x="142.42" y="295.11" width="25" height="25" rx="12.5" ry="12.5" transform="translate(-152.69 462.52) rotate(-90)"/><rect class="ad" x="192.44" y="295.11" width="25" height="25" rx="12.5" ry="12.5" transform="translate(-102.67 512.55) rotate(-90)"/><rect class="ad" x="192.44" y="270.11" width="25" height="25" rx="12.5" ry="12.5" transform="translate(-77.67 487.55) rotate(-90)"/><rect class="ae" x="192.44" y="245.11" width="25" height="25" rx="12.5" ry="12.5" transform="translate(-52.67 462.55) rotate(-90)"/><rect class="ae" x="167.43" y="220.11" width="25" height="25" rx="12.5" ry="12.5" transform="translate(-52.68 412.54) rotate(-90)"/><rect class="ae" x="217.45" y="220.11" width="25" height="25" rx="12.5" ry="12.5" transform="translate(-2.66 462.56) rotate(-90)"/><rect class="d" x="105" y="132.5" width="450" height="450"/><rect class="ab" x="267.5" y="370.12" width="25" height="25" rx="12.5" ry="12.5"/><rect class="ac" x="267.5" y="495.18" width="25" height="25" rx="12.5" ry="12.5"/><rect class="y" x="242.5" y="245.06" width="25" height="25" rx="12.5" ry="12.5"/><rect class="w" x="242.5" y="320.1" width="25" height="25" rx="12.5" ry="12.5"/><rect class="af" x="217.5" y="445.16" width="25" height="25" rx="12.5" ry="12.5"/><rect class="af" x="217.5" y="470.17" width="25" height="25" rx="12.5" ry="12.5"/><rect class="ad" x="192.44" y="320.11" width="25" height="25" rx="12.5" ry="12.5" transform="translate(-127.67 537.55) rotate(-90)"/><rect class="ad" x="217.45" y="370.11" width="25" height="25" rx="12.5" ry="12.5" transform="translate(-152.66 612.56) rotate(-90)"/><rect class="ad" x="167.43" y="420.11" width="25" height="25" rx="12.5" ry="12.5" transform="translate(-252.68 612.54) rotate(-90)"/><rect class="ad" x="217.45" y="270.11" width="25" height="25" rx="12.5" ry="12.5" transform="translate(-52.66 512.56) rotate(-90)"/><rect class="d" x="105" y="132.5" width="450" height="450"/><rect class="w" x="267.5" y="395.13" width="25" height="25" rx="12.5" ry="12.5"/><rect class="ac" x="242.5" y="470.17" width="25" height="25" rx="12.5" ry="12.5"/><rect class="af" x="217.5" y="445.16" width="25" height="25" rx="12.5" ry="12.5"/><rect class="af" x="167.5" y="445.16" width="25" height="25" rx="12.5" ry="12.5"/><rect class="af" x="167.5" y="470.17" width="25" height="25" rx="12.5" ry="12.5"/><rect class="aa" x="142.42" y="370.11" width="25" height="25" rx="12.5" ry="12.5" transform="translate(-227.69 537.52) rotate(-90)"/><rect class="ad" x="217.45" y="370.11" width="25" height="25" rx="12.5" ry="12.5" transform="translate(-152.66 612.56) rotate(-90)"/><rect class="ad" x="167.43" y="395.11" width="25" height="25" rx="12.5" ry="12.5" transform="translate(-227.68 587.54) rotate(-90)"/><rect class="aa" x="117.4" y="420.11" width="25" height="25" rx="12.5" ry="12.5" transform="translate(-302.7 562.51) rotate(-90)"/><rect class="ad" x="192.44" y="420.11" width="25" height="25" rx="12.5" ry="12.5" transform="translate(-227.67 637.55) rotate(-90)"/><rect class="d" x="105" y="132.5" width="450" height="450"/><rect class="z" x="165" y="318.54" width="80" height="80" rx="40" ry="40"/><rect class="d" x="105" y="132.5" width="450" height="450"/></g><g id="c"><rect class="z" x="764.5" y="392.5" width="80" height="80" rx="40" ry="40" transform="translate(1237 -372) rotate(90)"/><polygon class="o" points="704 531 953 506 1029 432 1003 232 878 207 704 182 655 331 704 531"/><rect class="ap" x="863.5" y="192.5" width="30" height="30" rx="15" ry="15" transform="translate(1086 -671) rotate(90)"/><rect class="ap" x="689.5" y="167.5" width="30" height="30" rx="15" ry="15" transform="translate(887 -522) rotate(90)"/><rect class="ap" x="640.5" y="316.5" width="30" height="30" rx="15" ry="15" transform="translate(987 -324) rotate(90)"/><rect class="ap" x="689.5" y="516.5" width="30" height="30" rx="15" ry="15" transform="translate(1236 -173) rotate(90)"/><rect class="ap" x="938.5" y="491.5" width="30" height="30" rx="15" ry="15" transform="translate(1460 -447) rotate(90)"/><rect class="ap" x="1014.5" y="417.5" width="30" height="30" rx="15" ry="15" transform="translate(1462 -597) rotate(90)"/><rect class="ap" x="988.5" y="217.5" width="30" height="30" rx="15" ry="15" transform="translate(1236 -771) rotate(90)"/></g></svg>