<?xml version="1.0" encoding="UTF-8"?><svg xmlns="http://www.w3.org/2000/svg" viewBox="0 0 1200 675"><defs><style>.c{stroke:#7a0000;}.c,.d,.e,.f,.g,.h,.i,.j,.k,.l,.m,.n,.o,.p,.q,.r,.s,.t,.u,.v{stroke-miterlimit:10;}.c,.d,.e,.f,.g,.h,.i,.j,.k,.l,.m,.o,.p,.q,.r,.s,.t,.u,.v{fill:none;}.w{fill:#00549e;}.d{stroke:green;}.x{fill:#ffd400;}.e{stroke:#300352;}.f{stroke:#670067;}.y{fill:#f0f;}.g{stroke:#003d00;}.h{stroke:#003a52;}.z{fill:#30363d;}.i{stroke:#2f353d;stroke-width:3px;}.j{stroke:#f0f;}.k,.n{stroke:#3d444d;}.l{stroke:#0067c0;}.aa{fill:#00aeef;}.m{stroke:#ffd400;}.n,.ab{fill:#fff;}.n,.q,.r{stroke-width:2px;}.o{stroke:red;}.ac{fill:#8613d9;}.ad{fill:#21262d;}.ae{fill:#0d1117;}.p{stroke:#f0f6fc;}.af{fill:#9199a1;}.ag{fill:green;}.q{stroke-dasharray:4;}.q,.r{stroke:#f0883e;}.ah{fill:#484f58;}.ai{fill:#2f353d;}.aj{fill:red;}.s{stroke:#001f41;}.t{stroke:#00aeef;}.u{stroke:#6a0dad;}.ak{fill:#f0f6fc;}.al{fill:#c9d1d9;}.am{fill:#f0883e;}.v{stroke:#413500;}</style></defs><g id="a"><rect width="1200" height="675"/></g><g id="b"><rect class="i" x="672" y="142.9" width="410" height="410" rx="205" ry="205"/><path class="q" d="M678.99,405.12c33.12-29.88,98.85-68.69,178.15-103.01,78.6-34.01,151.3-55.29,195.86-59.25"/><path class="r" d="M596.04,195.85c111.63-15.27,226.63,44.42,282.22,152.16,52.89,102.48,159.53,161.49,265.88,153.86"/><polygon class="am" points="1142.14 511.96 1158.42 500.44 1140.3 492.1 1142.14 511.96"/><circle class="ab" cx="877" cy="348.01" r="80.92"/><circle class="aj" cx="877" cy="206.39" r="47.2"/><circle class="w" cx="877" cy="489.62" r="47.2"/><circle class="ak" cx="1018.61" cy="348.01" r="47.2"/><circle class="ag" cx="735.39" cy="348.01" r="47.2"/><circle class="x" cx="776.87" cy="247.87" r="47.2"/><circle class="ac" cx="977.13" cy="448.14" r="47.2"/><circle class="y" cx="977.13" cy="247.87" r="47.2"/><circle class="aa" cx="776.87" cy="448.14" r="47.2"/><rect class="al" x="903.97" y="294.06" width="26.97" height="26.97"/><rect class="al" x="850.03" y="294.06" width="26.97" height="26.97"/><rect class="al" x="903.97" y="348.01" width="26.97" height="26.97"/><rect class="al" x="877" y="321.03" width="26.97" height="26.97"/><rect class="al" x="850.03" y="348.01" width="26.97" height="26.97"/><rect class="al" x="823.05" y="321.03" width="26.97" height="26.97"/><rect class="al" x="877" y="374.98" width="26.97" height="26.97"/><rect class="al" x="823.05" y="374.98" width="26.97" height="26.97"/><path class="al" d="M903.97,294.06v-22.35c-8.44-2.98-17.51-4.62-26.97-4.62v26.97h26.97Z"/><path class="al" d="M850.03,294.06v-22.35c-10.05,3.55-19.19,9.03-26.97,16v6.35h26.97Z"/><path class="al" d="M937.3,294.06c-2-2.23-4.12-4.35-6.35-6.35v6.35h6.35Z"/><path class="al" d="M823.05,294.06h-6.35c-6.97,7.78-12.44,16.92-16,26.97h22.35v-26.97Z"/><path class="al" d="M930.95,348.01h26.97c0-9.46-1.64-18.53-4.62-26.97h-22.35v26.97Z"/><path class="al" d="M823.05,348.01h-26.97c0,9.46,1.64,18.53,4.62,26.97h22.35v-26.97Z"/><path class="al" d="M903.97,401.95v22.35c10.05-3.55,19.19-9.03,26.97-16v-6.35h-26.97Z"/><path class="al" d="M850.03,401.95v22.35c8.44,2.98,17.51,4.62,26.97,4.62v-26.97h-26.97Z"/><path class="al" d="M930.95,401.95h6.35c6.97-7.78,12.44-16.92,16-26.97h-22.35v26.97Z"/><path class="al" d="M816.7,401.95c2,2.23,4.12,4.35,6.35,6.35v-6.35h-6.35Z"/><path class="ai" d="M41.07,631.42c0-3.63,2.8-6.43,6.35-6.43s6.35,2.8,6.35,6.43-2.8,6.43-6.35,6.43-6.35-2.8-6.35-6.43ZM52.53,631.42c0-2.95-2.24-5.29-5.11-5.29s-5.11,2.33-5.11,5.29,2.24,5.29,5.11,5.29,5.11-2.33,5.11-5.29ZM48.98,630.27c-.21-.64-.68-1.05-1.41-1.05-1.1,0-1.75.86-1.75,2.19s.64,2.19,1.75,2.19c.73,0,1.25-.39,1.41-.98h1.28c-.2,1.28-1.3,2.19-2.7,2.19-1.85,0-3.05-1.29-3.05-3.4s1.2-3.4,3.05-3.4c1.39,0,2.47.93,2.7,2.26h-1.28Z"/><path class="ai" d="M76.97,622.61c2.96,0,5,1.9,5,4.66,0,1.72-.73,3.04-3.36,6.07l-4.23,4.89v.19h7.88v1.45h-10.24v-1.02l5.8-6.77c2.07-2.45,2.55-3.35,2.55-4.78,0-1.99-1.35-3.28-3.43-3.28s-3.41,1.39-3.41,3.55v.07h-1.58v-.07c0-2.87,2.12-4.96,5.03-4.96Z"/><path class="ai" d="M86.48,631.42c0-5.72,1.93-8.85,5.46-8.85s5.46,3.13,5.46,8.85-1.93,8.85-5.46,8.85-5.46-3.13-5.46-8.85ZM88.22,633.93l7.15-6.54c-.57-2.25-1.72-3.41-3.43-3.41-2.53,0-3.86,2.55-3.86,7.44,0,.91.05,1.76.14,2.51ZM95.79,631.42c0-.94-.05-1.78-.14-2.54l-7.14,6.62c.57,2.21,1.72,3.36,3.42,3.36,2.53,0,3.86-2.55,3.86-7.44Z"/><path class="ai" d="M106.64,622.61c2.96,0,5,1.9,5,4.66,0,1.72-.73,3.04-3.36,6.07l-4.23,4.89v.19h7.88v1.45h-10.24v-1.02l5.8-6.77c2.07-2.45,2.55-3.35,2.55-4.78,0-1.99-1.35-3.28-3.43-3.28s-3.41,1.39-3.41,3.55v.07h-1.58v-.07c0-2.87,2.12-4.96,5.03-4.96Z"/><path class="ai" d="M116.09,635.5h1.54c.19,1.95,1.82,3.3,3.95,3.3,2.32,0,3.86-1.68,3.86-4.18s-1.56-4.25-3.86-4.25c-1.63,0-3,.76-3.69,2.04h-1.49l.88-9.45h8.84v1.44h-7.58l-.5,5.98h.18c.88-.98,2.05-1.48,3.5-1.48,3.13,0,5.32,2.34,5.32,5.68s-2.26,5.62-5.59,5.62c-3,0-5.14-1.89-5.34-4.71Z"/><path class="ai" d="M146.64,639.87v-16.91h1.61v8.74h.14l7.18-8.74h2l-6.41,7.48,7.1,9.43h-2.07l-6.09-8.2-1.85,2.17v6.04h-1.61Z"/><path class="ai" d="M160.76,634.5v-1.88c0-3.4,2.09-5.58,5.34-5.58s5.34,2.18,5.34,5.58v1.88c0,3.4-2.09,5.58-5.34,5.58s-5.34-2.18-5.34-5.58ZM162.3,632.83v1.48c0,2.73,1.46,4.41,3.81,4.41s3.81-1.68,3.81-4.41v-1.48c0-2.73-1.46-4.41-3.81-4.41s-3.81,1.68-3.81,4.41Z"/><path class="ai" d="M175.95,622.22h1.46v7.3h.15c.69-1.59,2.17-2.48,4.12-2.48,2.75,0,4.24,1.63,4.24,4.63v8.2h-1.54v-7.82c0-2.47-1-3.63-3.12-3.63-2.26,0-3.8,1.61-3.8,3.95v7.5h-1.54v-17.65Z"/><path class="ai" d="M200.97,636.75c-.42,2.02-2.34,3.33-4.89,3.33-3.4,0-5.37-2.1-5.37-5.7v-1.84c0-3.33,2.06-5.51,5.19-5.51s5.12,2.16,5.12,5.93v1h-8.78v.43c0,2.64,1.49,4.31,3.83,4.31,1.72,0,2.98-.73,3.36-1.96h1.52ZM192.25,632.7h7.22c0-2.68-1.34-4.3-3.56-4.3s-3.66,1.61-3.66,4.3Z"/><path class="ai" d="M205.62,627.25h1.46v2.27h.15c.69-1.59,2.17-2.48,4.12-2.48,2.75,0,4.24,1.63,4.24,4.63v8.2h-1.54v-7.82c0-2.47-1-3.63-3.12-3.63-2.26,0-3.8,1.61-3.8,3.95v7.5h-1.54v-12.62Z"/><path class="ai" d="M232.87,633.06v-1.36h14.84v1.36h-14.84Z"/><path class="ai" d="M265.45,639.87h-1.5v-16.91h1.89l4.07,10.88h.13l4.04-10.88h1.9v16.91h-1.5v-13.79h-.12l-3.7,9.82h-1.38l-3.7-9.82h-.12v13.79Z"/><path class="ai" d="M284,639.87v-15.46h-5.2v-1.45h12v1.45h-5.2v15.46h-1.59Z"/><path class="ai" d="M300.16,622.96c3.18,0,5.3,2.11,5.3,5.26s-2.12,5.26-5.3,5.26h-3.81v6.39h-1.61v-16.91h5.41ZM296.35,632.05h3.42c2.57,0,4.05-1.41,4.05-3.83s-1.49-3.83-4.05-3.83h-3.42v7.66Z"/><path class="ai" d="M321.88,633.06v-1.36h14.84v1.36h-14.84Z"/><path class="ai" d="M354.17,639.87v-1.24h4.44v-10.14h-4.46v-1.24h6v11.38h4.32v1.24h-10.3ZM357.75,622.46c0-.8.66-1.45,1.45-1.45s1.45.66,1.45,1.45-.66,1.45-1.45,1.45-1.45-.66-1.45-1.45Z"/><path class="ai" d="M379.79,639.87h-1.44v-8.71c0-1.82-.61-2.74-1.79-2.74-1.24,0-1.99,1.12-1.99,3v8.45h-1.44v-8.72c0-1.8-.61-2.73-1.8-2.73-1.27,0-2.04,1.14-2.04,3v8.45h-1.44v-12.62h1.39v1.69h.16c.33-1.17,1.25-1.9,2.41-1.9s2.06.7,2.33,1.9h.16c.34-1.15,1.41-1.9,2.71-1.9,1.84,0,2.78,1.28,2.78,3.77v9.06Z"/><path class="ai" d="M392.29,627.25h1.95l-4.99,4.89,5.34,7.73h-1.85l-4.57-6.68-1.95,1.9v4.78h-1.54v-17.65h1.54v10.97h.14l5.93-5.94Z"/><path class="ai" d="M398.14,634.5v-1.88c0-3.4,2.09-5.58,5.34-5.58s5.34,2.18,5.34,5.58v1.88c0,3.4-2.09,5.58-5.34,5.58s-5.34-2.18-5.34-5.58ZM399.67,632.83v1.48c0,2.73,1.46,4.41,3.81,4.41s3.81-1.68,3.81-4.41v-1.48c0-2.73-1.46-4.41-3.81-4.41s-3.81,1.68-3.81,4.41Z"/><path class="ai" d="M413.32,622.22h1.46v7.3h.15c.69-1.59,2.17-2.48,4.12-2.48,2.75,0,4.24,1.63,4.24,4.63v8.2h-1.54v-7.82c0-2.47-1-3.63-3.12-3.63-2.26,0-3.8,1.61-3.8,3.95v7.5h-1.54v-17.65Z"/><path class="ai" d="M438.34,636.75c-.42,2.02-2.34,3.33-4.89,3.33-3.4,0-5.37-2.1-5.37-5.7v-1.84c0-3.33,2.06-5.51,5.19-5.51s5.12,2.16,5.12,5.93v1h-8.78v.43c0,2.64,1.49,4.31,3.83,4.31,1.72,0,2.98-.73,3.36-1.96h1.52ZM429.62,632.7h7.22c0-2.68-1.34-4.3-3.56-4.3s-3.66,1.61-3.66,4.3Z"/><path class="ai" d="M443,627.25h1.46v2.27h.15c.69-1.59,2.17-2.48,4.12-2.48,2.75,0,4.24,1.63,4.24,4.63v8.2h-1.54v-7.82c0-2.47-1-3.63-3.12-3.63-2.26,0-3.8,1.61-3.8,3.95v7.5h-1.54v-12.62Z"/><path class="ai" d="M457.68,636.31c0-2.21,1.58-3.54,4.37-3.67l3.66-.16v-1.2c0-1.82-1.04-2.8-2.98-2.8-1.59,0-2.7.68-3.05,1.9h-1.52c.23-1.89,2.13-3.23,4.57-3.23,2.86,0,4.52,1.5,4.52,4.07v8.67h-1.48v-1.99h-.16c-.6,1.42-1.99,2.2-3.9,2.2-2.43,0-4.03-1.5-4.03-3.79ZM465.71,635.51v-1.76l-3.55.15c-1.89.08-2.89.93-2.89,2.4s1.08,2.43,2.82,2.43c2.04,0,3.62-1.41,3.62-3.22Z"/><path class="ai" d="M482.65,639.87h-1.46v-2.27h-.15c-.69,1.59-2.17,2.48-4.12,2.48-2.75,0-4.24-1.63-4.24-4.63v-8.2h1.54v7.82c0,2.47,1,3.63,3.12,3.63,2.26,0,3.8-1.61,3.8-3.95v-7.5h1.54v12.62Z"/><path class="ai" d="M492.57,627.04c2.47,0,4.22,1.28,4.49,3.27h-1.51c-.27-1.23-1.42-1.99-3.02-1.99-1.76,0-2.88.84-2.88,2.16,0,1.1.69,1.71,2.41,2.11l1.71.4c2.43.57,3.53,1.64,3.53,3.42,0,2.23-1.89,3.68-4.76,3.68s-4.59-1.3-4.83-3.38h1.59c.33,1.3,1.55,2.06,3.3,2.06,1.89,0,3.09-.89,3.09-2.27,0-1.15-.67-1.76-2.39-2.17l-1.86-.45c-2.25-.53-3.35-1.63-3.35-3.35,0-2.07,1.82-3.49,4.48-3.49Z"/><path class="ai" d="M512.52,636.75c-.42,2.02-2.34,3.33-4.89,3.33-3.4,0-5.37-2.1-5.37-5.7v-1.84c0-3.33,2.06-5.51,5.19-5.51s5.12,2.16,5.12,5.93v1h-8.78v.43c0,2.64,1.49,4.31,3.83,4.31,1.72,0,2.98-.73,3.36-1.96h1.52ZM503.8,632.7h7.22c0-2.68-1.34-4.3-3.56-4.3s-3.66,1.61-3.66,4.3Z"/><path class="ai" d="M521.57,638.63h4.01v1.24h-8.14v-1.24h2.6v-10.14h-2.86v-1.24h4.36v3.21h.16c.43-2.25,2.1-3.53,4.56-3.53.73,0,1.44.11,1.84.28v1.68c-.59-.21-1.39-.35-2.07-.35-2.72,0-4.45,2.2-4.45,5.66v4.43Z"/><path class="ai" d="M535.06,637.93c0-1.07.88-1.95,1.95-1.95s1.95.88,1.95,1.95-.88,1.95-1.95,1.95-1.95-.88-1.95-1.95Z"/><path class="ai" d="M555.4,630.96c-.26-1.5-1.65-2.54-3.38-2.54-2.4,0-3.74,1.61-3.74,4.5v1.28c0,2.89,1.34,4.5,3.74,4.5,1.72,0,3.12-1.04,3.38-2.54h1.52c-.33,2.37-2.25,3.93-4.86,3.93-3.32,0-5.31-2.11-5.31-5.62v-1.79c0-3.52,1.99-5.62,5.31-5.62,2.61,0,4.54,1.56,4.86,3.93h-1.52Z"/><path class="ai" d="M561.33,634.5v-1.88c0-3.4,2.09-5.58,5.34-5.58s5.34,2.18,5.34,5.58v1.88c0,3.4-2.09,5.58-5.34,5.58s-5.34-2.18-5.34-5.58ZM562.87,632.83v1.48c0,2.73,1.46,4.41,3.81,4.41s3.81-1.68,3.81-4.41v-1.48c0-2.73-1.46-4.41-3.81-4.41s-3.81,1.68-3.81,4.41Z"/><path class="ai" d="M587.49,639.87h-1.44v-8.71c0-1.82-.61-2.74-1.79-2.74-1.24,0-1.99,1.12-1.99,3v8.45h-1.44v-8.72c0-1.8-.61-2.73-1.8-2.73-1.27,0-2.04,1.14-2.04,3v8.45h-1.44v-12.62h1.39v1.69h.16c.33-1.17,1.25-1.9,2.41-1.9s2.06.7,2.33,1.9h.16c.34-1.15,1.41-1.9,2.71-1.9,1.84,0,2.78,1.28,2.78,3.77v9.06Z"/><path class="ai" d="M591.45,641.03l8.33-19.23h1.46l-8.33,19.23h-1.46Z"/><path class="ai" d="M617.16,639.87h-1.44v-8.71c0-1.82-.61-2.74-1.79-2.74-1.24,0-1.99,1.12-1.99,3v8.45h-1.44v-8.72c0-1.8-.61-2.73-1.8-2.73-1.27,0-2.04,1.14-2.04,3v8.45h-1.44v-12.62h1.39v1.69h.16c.33-1.17,1.25-1.9,2.41-1.9s2.06.7,2.33,1.9h.16c.34-1.15,1.41-1.9,2.71-1.9,1.84,0,2.78,1.28,2.78,3.77v9.06Z"/><path class="ai" d="M625.57,623.97v3.28h5.29v1.3h-5.29v7.63c0,1.56,1.08,2.4,3.08,2.4.87,0,1.79-.04,2.2-.09v1.31c-.38.07-1.56.14-2.29.14-3.04,0-4.54-1.23-4.54-3.71v-7.68h-3.4v-1.3h3.4v-3.28h1.54Z"/><path class="ai" d="M646.34,632.35v2.43c0,3.15-1.99,5.31-4.92,5.31-1.83,0-3.21-.75-3.81-2.07h-.21v6.14h-1.54v-16.9h1.46v1.82h.21c.74-1.32,2.09-2.03,3.88-2.03,2.93,0,4.92,2.16,4.92,5.31ZM637.36,632.72v1.69c0,2.61,1.46,4.3,3.71,4.3s3.73-1.7,3.73-4.3v-1.69c0-2.6-1.46-4.3-3.73-4.3s-3.71,1.69-3.71,4.3Z"/><path class="af" d="M135.84,100.46v-21.14h2.64v21.14h-2.64ZM137.16,92.91v-2.34h5.54c1.51,0,2.69-.39,3.52-1.18s1.25-1.87,1.25-3.26v-.03c0-1.4-.42-2.49-1.25-3.27s-2-1.17-3.52-1.17h-5.54v-2.34h6.21c1.33,0,2.5.28,3.52.85s1.81,1.36,2.4,2.37c.58,1.02.87,2.19.87,3.53v.03c0,1.34-.29,2.52-.87,3.54-.58,1.03-1.38,1.83-2.4,2.4s-2.19.86-3.52.86h-6.21Z"/><path class="af" d="M152.91,100.46v-21.14h2.55v8.33h.06c.41-.86,1.02-1.53,1.83-2.01s1.78-.72,2.92-.72,2.03.26,2.85.78c.81.52,1.45,1.25,1.91,2.18s.69,2.01.69,3.24v9.33h-2.55v-8.89c0-1.38-.33-2.45-1-3.22s-1.59-1.16-2.78-1.16c-.78,0-1.47.19-2.06.56-.59.37-1.05.88-1.38,1.54-.33.65-.49,1.42-.49,2.29v8.89h-2.55Z"/><path class="af" d="M173.4,100.75c-1.01,0-1.89-.19-2.65-.57s-1.36-.92-1.78-1.61c-.43-.69-.64-1.5-.64-2.42v-.03c0-.87.22-1.62.65-2.26.44-.63,1.06-1.14,1.89-1.51.82-.37,1.82-.59,2.98-.66l5.64-.32v1.98l-5.35.32c-1.02.06-1.8.3-2.37.73-.56.43-.84,1-.84,1.71v.03c0,.73.28,1.31.83,1.74.55.43,1.29.64,2.21.64.8,0,1.52-.17,2.16-.51.64-.34,1.15-.8,1.52-1.38.38-.59.56-1.25.56-1.98v-4.5c0-.93-.29-1.66-.87-2.19-.58-.53-1.4-.8-2.47-.8-.98,0-1.77.21-2.37.64-.6.42-.97.98-1.12,1.66l-.03.13h-2.46v-.16c.09-.84.38-1.6.87-2.29.49-.68,1.17-1.23,2.04-1.63s1.9-.61,3.09-.61,2.24.21,3.11.62c.87.41,1.55.99,2.03,1.74s.72,1.63.72,2.64v10.53h-2.55v-2.48h-.06c-.29.56-.68,1.04-1.17,1.46s-1.04.74-1.65.97c-.61.23-1.26.34-1.94.34Z"/><path class="af" d="M189.41,100.75c-1.19,0-2.22-.19-3.09-.57s-1.56-.91-2.06-1.6c-.5-.68-.81-1.48-.92-2.39v-.13s2.53,0,2.53,0l.03.15c.16.76.52,1.35,1.1,1.78s1.38.64,2.42.64c.69,0,1.28-.09,1.77-.27s.86-.44,1.13-.78.4-.73.4-1.19h0c0-.56-.17-1-.5-1.33s-.93-.61-1.8-.82l-2.42-.59c-.96-.23-1.75-.54-2.38-.92-.63-.38-1.1-.84-1.41-1.38s-.47-1.19-.47-1.92h0c0-.89.24-1.67.71-2.34.47-.67,1.13-1.2,1.98-1.58.84-.38,1.81-.57,2.91-.57s2.08.2,2.91.59c.83.4,1.47.93,1.95,1.61.47.68.74,1.44.8,2.29v.19s-2.42,0-2.42,0v-.1c-.11-.74-.44-1.34-.99-1.79-.55-.45-1.3-.67-2.25-.67-.62,0-1.15.09-1.6.28s-.79.45-1.03.78c-.24.34-.36.73-.36,1.18h0c0,.36.08.67.24.94.16.28.42.52.77.73s.81.38,1.36.51l2.42.59c1.54.37,2.63.88,3.25,1.53s.94,1.52.94,2.6h0c0,.9-.26,1.69-.77,2.37-.51.68-1.21,1.22-2.11,1.6-.89.39-1.91.58-3.04.58Z"/><path class="af" d="M204.23,100.75c-1.46,0-2.71-.32-3.76-.97-1.05-.64-1.86-1.56-2.42-2.73-.56-1.18-.84-2.56-.84-4.15h0c0-1.59.28-2.97.85-4.17s1.36-2.13,2.39-2.8,2.23-1,3.62-1,2.58.32,3.58.96c1,.64,1.77,1.54,2.31,2.69s.81,2.49.81,4.01v.94h-12.28v-1.99h11.02l-1.29,1.85v-.98c0-1.18-.18-2.16-.54-2.93-.36-.77-.85-1.35-1.47-1.72s-1.34-.56-2.15-.56-1.54.2-2.18.59-1.15.98-1.52,1.76-.56,1.73-.56,2.86v.98c0,1.07.18,1.99.55,2.75.37.76.89,1.35,1.56,1.75s1.47.61,2.39.61c.64,0,1.22-.1,1.73-.29s.93-.46,1.27-.81.59-.73.73-1.17l.04-.13h2.5l-.03.15c-.13.62-.37,1.21-.73,1.76-.36.55-.81,1.03-1.37,1.44s-1.19.74-1.9.97-1.48.34-2.31.34Z"/><path class="af" d="M219.88,100.46v-21.14h2.64v21.14h-2.64Z"/><path class="af" d="M233.94,89.32c-.47,0-.86-.16-1.19-.48s-.48-.72-.48-1.19.16-.86.48-1.19.72-.48,1.19-.48.86.16,1.19.48.48.72.48,1.19-.16.86-.48,1.19-.72.48-1.19.48ZM233.94,100.66c-.47,0-.86-.16-1.19-.48s-.48-.72-.48-1.19.16-.86.48-1.19.72-.48,1.19-.48.86.16,1.19.48.48.72.48,1.19-.16.86-.48,1.19-.72.48-1.19.48Z"/><path class="ak" d="M251.23,100.46v-21.14h5.11l6.01,15.19h.09l5.99-15.19h5.13v21.14h-3.96v-14.28h-2.04l4.42-6.27-8.2,20.55h-2.78l-8.2-20.55,4.42,6.27h-2.05v14.28h-3.94Z"/><path class="ak" d="M282.12,100.46v-17.49h-6.12v-3.65h16.67v3.65h-6.12v17.49h-4.42Z"/><path class="ak" d="M295.11,100.46v-21.14h4.42v21.14h-4.42ZM297.34,93.8v-3.47h5.19c1.27,0,2.26-.32,2.96-.97s1.05-1.57,1.05-2.76v-.03c0-1.21-.35-2.14-1.05-2.78s-1.69-.96-2.96-.96h-5.19v-3.52h6.27c1.48,0,2.78.3,3.9.9s1.98,1.44,2.6,2.53c.62,1.08.93,2.35.93,3.81v.03c0,1.45-.31,2.71-.93,3.79-.62,1.08-1.49,1.93-2.6,2.53s-2.41.9-3.9.9h-6.27Z"/><path class="ak" d="M321.44,82.75c-.64,0-1.19-.22-1.63-.67-.44-.44-.67-.97-.67-1.57s.22-1.14.67-1.57c.45-.43.99-.65,1.63-.65s1.19.22,1.63.65.66.96.66,1.57-.22,1.13-.66,1.57-.98.67-1.63.67ZM319.28,100.46v-15.7h4.29v15.7h-4.29Z"/><path class="ak" d="M332.89,100.78c-1.45,0-2.68-.21-3.7-.63-1.02-.42-1.81-1-2.38-1.75s-.91-1.61-1.03-2.6v-.13s4.16,0,4.16,0l.03.13c.14.62.44,1.09.92,1.44s1.14.51,1.99.51c.55,0,1.01-.07,1.39-.2s.68-.32.89-.56c.21-.24.31-.54.31-.88h0c0-.43-.15-.77-.45-1.03s-.84-.46-1.61-.63l-2.67-.57c-1.02-.21-1.87-.52-2.55-.93s-1.2-.91-1.54-1.51-.51-1.29-.51-2.07h0c0-1.02.27-1.89.81-2.62.54-.73,1.31-1.3,2.3-1.71.99-.41,2.15-.61,3.48-.61s2.57.22,3.54.67c.97.44,1.72,1.04,2.24,1.79.52.75.8,1.59.83,2.5v.15h-3.94v-.12c-.08-.56-.34-1.02-.8-1.4-.46-.38-1.08-.56-1.87-.56-.49,0-.91.07-1.27.21s-.64.33-.83.57-.29.54-.29.88h0c0,.28.07.52.2.73.13.21.35.39.67.55s.73.29,1.26.41l2.67.57c1.65.34,2.83.85,3.55,1.54.72.68,1.08,1.6,1.08,2.75h0c0,1.04-.29,1.93-.88,2.7s-1.39,1.35-2.42,1.78c-1.03.42-2.22.64-3.57.64Z"/><path class="ak" d="M352.58,79.32l-1.05,8.1h-4.06l2.15-8.1h2.96ZM358.13,79.32l-1.05,8.1h-4.06l2.15-8.1h2.96Z"/><path class="ak" d="M368.52,100.82c-1.67,0-3.13-.25-4.37-.74-1.25-.49-2.23-1.2-2.95-2.12-.72-.92-1.12-2.03-1.19-3.33v-.23s4.16,0,4.16,0l.03.16c.1.55.34,1.02.74,1.41.39.4.91.7,1.54.92s1.35.33,2.15.33,1.53-.11,2.12-.33c.59-.22,1.05-.53,1.37-.94s.48-.88.48-1.41h0c0-.73-.28-1.29-.84-1.69-.56-.41-1.5-.74-2.81-1l-2.23-.45c-2.08-.41-3.65-1.12-4.71-2.12-1.06-1-1.59-2.3-1.59-3.89h0c0-1.3.36-2.43,1.05-3.38s1.65-1.7,2.86-2.24,2.6-.81,4.16-.81,3.04.26,4.23.77c1.19.51,2.11,1.23,2.78,2.15s1.03,2,1.1,3.24v.26s-4.16,0-4.16,0l-.03-.18c-.07-.56-.28-1.03-.62-1.42-.35-.39-.8-.69-1.36-.91s-1.2-.32-1.93-.32-1.4.11-1.95.32-.96.52-1.25.9c-.29.39-.43.83-.43,1.33h0c0,.69.28,1.23.85,1.63s1.46.73,2.67.97l2.24.45c1.47.29,2.69.7,3.63,1.22s1.65,1.17,2.1,1.96c.45.79.68,1.73.68,2.83h0c0,1.37-.34,2.55-1.02,3.54-.68.99-1.65,1.76-2.93,2.3-1.27.54-2.8.81-4.58.81Z"/><path class="ak" d="M385.61,100.78c-1.74,0-3.03-.37-3.87-1.1s-1.26-1.94-1.26-3.62v-8.09h-2.18v-3.22h2.18v-3.84h4.32v3.84h2.87v3.22h-2.87v7.62c0,.73.16,1.24.49,1.53.33.29.81.43,1.46.43.2,0,.37,0,.51-.02s.28-.03.41-.05v3.13c-.23.04-.52.08-.87.11-.35.03-.74.05-1.19.05Z"/><path class="ak" d="M394.56,100.7c-1.04,0-1.97-.2-2.76-.61-.8-.41-1.42-.97-1.86-1.68-.44-.72-.67-1.54-.67-2.45v-.03c0-.96.24-1.77.72-2.45s1.17-1.21,2.09-1.6c.91-.39,2.02-.63,3.32-.72l6.12-.38v2.67l-5.48.37c-.82.05-1.45.24-1.88.57s-.64.78-.64,1.33v.03c0,.58.22,1.03.66,1.35s1.03.49,1.77.49c.63,0,1.2-.12,1.71-.37.5-.25.9-.59,1.19-1.03.29-.43.43-.92.43-1.46v-4.78c0-.69-.22-1.24-.66-1.64s-1.08-.6-1.92-.6-1.44.16-1.9.49-.76.74-.86,1.25l-.03.13h-3.93v-.18c.1-.97.43-1.83.99-2.58.56-.75,1.34-1.34,2.34-1.77,1-.42,2.19-.64,3.57-.64s2.53.22,3.53.65,1.77,1.05,2.32,1.84c.55.79.83,1.71.83,2.77v10.77h-4.28v-2.33h-.09c-.3.53-.68.99-1.14,1.38s-.98.69-1.58.89c-.59.21-1.23.31-1.91.31Z"/><path class="ak" d="M412.55,100.78c-1.74,0-3.03-.37-3.87-1.1s-1.26-1.94-1.26-3.62v-8.09h-2.18v-3.22h2.18v-3.84h4.32v3.84h2.87v3.22h-2.87v7.62c0,.73.16,1.24.49,1.53.33.29.81.43,1.46.43.2,0,.37,0,.51-.02s.28-.03.41-.05v3.13c-.23.04-.53.08-.87.11-.35.03-.75.05-1.19.05Z"/><path class="ak" d="M419.2,82.75c-.64,0-1.19-.22-1.63-.67s-.67-.97-.67-1.57.22-1.14.67-1.57.99-.65,1.63-.65,1.19.22,1.63.65.66.96.66,1.57-.22,1.13-.66,1.57-.98.67-1.63.67ZM417.05,100.46v-15.7h4.29v15.7h-4.29Z"/><path class="ak" d="M431.37,100.78c-1.59,0-2.97-.33-4.13-1s-2.06-1.61-2.69-2.83c-.63-1.23-.94-2.68-.94-4.36h0c0-1.69.32-3.14.95-4.36s1.53-2.15,2.69-2.81c1.16-.66,2.52-.99,4.08-.99,1.43,0,2.66.27,3.71.8s1.86,1.25,2.45,2.16c.59.91.92,1.93.97,3.06v.1h-3.98v-.13c-.14-.74-.46-1.37-.98-1.88s-1.22-.76-2.11-.76c-.69,0-1.3.19-1.81.58-.51.39-.91.94-1.19,1.66-.28.72-.42,1.57-.42,2.57h0c0,1.04.14,1.91.42,2.63.28.72.67,1.26,1.19,1.64.51.38,1.12.56,1.82.56.86,0,1.55-.24,2.07-.73.52-.48.85-1.12.99-1.91l.03-.13h3.98v.09c-.07,1.14-.4,2.17-1,3.08s-1.41,1.63-2.45,2.16c-1.04.53-2.26.8-3.66.8Z"/><path class="ak" d="M456.36,100.82c-1.58,0-3-.25-4.26-.75s-2.32-1.22-3.21-2.17c-.88-.95-1.56-2.1-2.03-3.46s-.7-2.9-.7-4.62h0c0-2.28.41-4.22,1.23-5.84s1.99-2.86,3.5-3.73,3.3-1.3,5.36-1.3c1.7,0,3.2.3,4.5.91s2.36,1.43,3.17,2.47c.81,1.04,1.34,2.22,1.57,3.55l.04.22h-4.45l-.04-.16c-.35-1.02-.94-1.81-1.76-2.38s-1.83-.86-3.02-.86-2.16.28-3,.83c-.83.56-1.47,1.36-1.92,2.42-.45,1.05-.67,2.33-.67,3.82h0c0,1.15.13,2.17.4,3.07s.65,1.67,1.15,2.29c.5.62,1.11,1.1,1.82,1.44.71.33,1.5.5,2.38.5.96,0,1.8-.18,2.53-.53s1.31-.86,1.74-1.51.66-1.41.69-2.28v-.29s-4.8,0-4.8,0v-3.31h9.14v2.43c0,1.44-.21,2.72-.64,3.87-.43,1.14-1.04,2.11-1.85,2.92-.81.8-1.79,1.41-2.95,1.83s-2.48.63-3.94.63Z"/><path class="ak" d="M468.29,100.46v-15.7h4.28v2.74h.09c.23-.97.66-1.72,1.27-2.26s1.38-.81,2.3-.81c.23,0,.46.01.67.04s.4.07.56.12v3.78c-.18-.08-.4-.14-.67-.18s-.57-.07-.88-.07c-.7,0-1.3.14-1.8.41s-.88.67-1.14,1.2-.4,1.17-.4,1.93v8.79h-4.28Z"/><path class="ak" d="M481.43,82.75c-.64,0-1.19-.22-1.63-.67s-.67-.97-.67-1.57.22-1.14.67-1.57.99-.65,1.63-.65,1.19.22,1.63.65.66.96.66,1.57-.22,1.13-.66,1.57-.98.67-1.63.67ZM479.27,100.46v-15.7h4.29v15.7h-4.29Z"/><path class="ak" d="M492.24,100.78c-1.32,0-2.46-.33-3.41-.98s-1.69-1.59-2.21-2.81-.78-2.68-.78-4.38h0c0-1.72.26-3.19.78-4.4s1.25-2.15,2.21-2.8,2.09-.97,3.4-.97c.75,0,1.44.12,2.07.37s1.17.59,1.65,1.05c.47.45.85,1,1.13,1.63h.09v-8.16h4.28v21.14h-4.28v-2.68h-.09c-.28.62-.66,1.16-1.13,1.61s-1.02.79-1.64,1.03-1.31.36-2.07.36ZM493.67,97.23c.69,0,1.3-.19,1.83-.56s.93-.91,1.22-1.6c.29-.69.43-1.51.43-2.46h0c0-.95-.15-1.77-.44-2.46s-.7-1.23-1.22-1.6c-.52-.38-1.13-.56-1.82-.56s-1.33.19-1.85.56-.92.9-1.2,1.59-.42,1.51-.42,2.47h0c0,.96.14,1.78.42,2.48.28.69.68,1.23,1.2,1.6s1.14.56,1.85.56Z"/><path class="ak" d="M503.96,87.42l1.07-8.1h4.04l-2.14,8.1h-2.97ZM509.51,87.42l1.07-8.1h4.04l-2.14,8.1h-2.97Z"/><path class="af" d="M648.37,100.46v-21.14h2.64v21.14h-2.64ZM649.69,92.91v-2.34h5.54c1.51,0,2.69-.39,3.52-1.18s1.24-1.87,1.24-3.26v-.03c0-1.4-.41-2.49-1.24-3.27s-2-1.17-3.52-1.17h-5.54v-2.34h6.21c1.33,0,2.5.28,3.52.85s1.81,1.36,2.39,2.37.87,2.19.87,3.53v.03c0,1.34-.29,2.52-.87,3.54s-1.38,1.83-2.39,2.4-2.19.86-3.52.86h-6.21Z"/><path class="af" d="M665.44,100.46v-21.14h2.55v8.33h.06c.41-.86,1.02-1.53,1.83-2.01s1.78-.72,2.91-.72,2.03.26,2.85.78,1.45,1.25,1.91,2.18.69,2.01.69,3.24v9.33h-2.55v-8.89c0-1.38-.33-2.45-1-3.22s-1.59-1.16-2.78-1.16c-.78,0-1.47.19-2.06.56s-1.05.88-1.38,1.54-.49,1.42-.49,2.29v8.89h-2.55Z"/><path class="af" d="M685.93,100.75c-1.01,0-1.89-.19-2.65-.57s-1.35-.92-1.78-1.61-.64-1.5-.64-2.42v-.03c0-.87.22-1.62.65-2.26s1.06-1.14,1.89-1.51,1.82-.59,2.98-.66l5.64-.32v1.98l-5.35.32c-1.02.06-1.8.3-2.37.73s-.84,1-.84,1.71v.03c0,.73.28,1.31.83,1.74s1.29.64,2.2.64c.8,0,1.52-.17,2.16-.51s1.15-.8,1.52-1.38.56-1.25.56-1.98v-4.5c0-.93-.29-1.66-.87-2.19s-1.4-.8-2.47-.8c-.98,0-1.76.21-2.37.64s-.97.98-1.12,1.66l-.03.13h-2.46l.02-.16c.08-.84.36-1.6.86-2.29s1.17-1.23,2.04-1.63,1.9-.61,3.09-.61,2.24.21,3.11.62,1.55.99,2.03,1.74.72,1.63.72,2.64v10.53h-2.55v-2.48h-.06c-.29.56-.68,1.04-1.17,1.46s-1.04.74-1.65.97-1.26.34-1.94.34Z"/><path class="af" d="M701.94,100.75c-1.19,0-2.22-.19-3.09-.57s-1.56-.91-2.06-1.6-.81-1.48-.92-2.39v-.13s2.54,0,2.54,0l.03.15c.16.76.52,1.35,1.1,1.78s1.38.64,2.42.64c.69,0,1.28-.09,1.77-.27s.87-.44,1.13-.78.39-.73.39-1.19h0c0-.56-.17-1-.5-1.33s-.93-.61-1.8-.82l-2.42-.59c-.96-.23-1.75-.54-2.38-.92s-1.1-.84-1.41-1.38-.47-1.19-.47-1.92h0c0-.89.24-1.67.71-2.34s1.13-1.2,1.98-1.58,1.81-.57,2.91-.57,2.08.2,2.91.59,1.47.93,1.95,1.61.74,1.44.8,2.29v.19s-2.42,0-2.42,0v-.1c-.11-.74-.44-1.34-.99-1.79s-1.3-.67-2.25-.67c-.62,0-1.15.09-1.6.28s-.79.45-1.03.78-.36.73-.36,1.18h0c0,.36.08.67.24.94s.42.52.77.73.81.38,1.36.51l2.42.59c1.54.37,2.63.88,3.25,1.53s.94,1.52.94,2.6h0c0,.9-.26,1.69-.77,2.37s-1.22,1.22-2.11,1.6-1.91.58-3.04.58Z"/><path class="af" d="M716.76,100.75c-1.46,0-2.71-.32-3.76-.97s-1.86-1.56-2.42-2.73-.84-2.56-.84-4.15h0c0-1.59.28-2.97.85-4.17s1.36-2.13,2.39-2.8,2.23-1,3.62-1,2.58.32,3.58.96,1.77,1.54,2.31,2.69.8,2.49.8,4.01v.94h-12.28v-1.99h11.02l-1.29,1.85v-.98c0-1.18-.18-2.16-.53-2.93s-.85-1.35-1.47-1.72-1.34-.56-2.15-.56-1.54.2-2.18.59-1.15.98-1.52,1.76-.56,1.73-.56,2.86v.98c0,1.07.18,1.99.55,2.75s.89,1.35,1.56,1.75,1.47.61,2.39.61c.64,0,1.22-.1,1.73-.29s.93-.46,1.28-.81.59-.73.73-1.17l.04-.13h2.51l-.03.15c-.13.62-.37,1.21-.73,1.76s-.81,1.03-1.37,1.44-1.19.74-1.9.97-1.48.34-2.31.34Z"/><path class="af" d="M731.02,100.46l7.84-11.54-.63,2.04v-1.17l-7.12-10.46h3.18l5.65,8.51h1.2l-1.74.94,6.34-9.45h3l-7.31,10.59v1.17l-.63-2.04,7.78,11.41h-3.16l-5.62-8.44h-1.2l1.74-.92-6.33,9.36h-2.99Z"/><path class="af" d="M758.78,89.32c-.47,0-.86-.16-1.19-.48s-.48-.72-.48-1.19.16-.86.48-1.19.72-.48,1.19-.48.87.16,1.19.48.48.72.48,1.19-.16.86-.48,1.19-.72.48-1.19.48ZM758.78,100.66c-.47,0-.86-.16-1.19-.48s-.48-.72-.48-1.19.16-.86.48-1.19.72-.48,1.19-.48.87.16,1.19.48.48.72.48,1.19-.16.86-.48,1.19-.72.48-1.19.48Z"/><path class="ak" d="M776.06,100.46v-21.14h5.11l6.01,15.19h.09l5.99-15.19h5.13v21.14h-3.96v-14.28h-2.04l4.42-6.27-8.2,20.55h-2.78l-8.2-20.55,4.42,6.27h-2.05v14.28h-3.94Z"/><path class="ak" d="M806.96,100.46v-17.49h-6.12v-3.65h16.67v3.65h-6.12v17.49h-4.42Z"/><path class="ak" d="M819.95,100.46v-21.14h4.42v21.14h-4.42ZM822.17,93.8v-3.47h5.19c1.27,0,2.26-.32,2.96-.97s1.05-1.57,1.05-2.76v-.03c0-1.21-.35-2.14-1.05-2.78s-1.69-.96-2.96-.96h-5.19v-3.52h6.27c1.48,0,2.78.3,3.9.9s1.98,1.44,2.6,2.53.93,2.35.93,3.81v.03c0,1.45-.31,2.71-.93,3.79s-1.49,1.93-2.6,2.53-2.41.9-3.9.9h-6.27Z"/><path class="ak" d="M845.19,100.46v-12.48h-2.14v-3.22h2.14v-1.25c0-1.03.17-1.87.52-2.54s.9-1.16,1.66-1.49,1.75-.48,3-.48c.39,0,.79.02,1.19.05s.72.08.97.12v2.83c-.15-.02-.32-.04-.51-.05s-.39-.02-.59-.02c-.7,0-1.22.15-1.55.45s-.5.73-.5,1.28v1.1h3.12v3.22h-3.02v12.48h-4.28Z"/><path class="ak" d="M860.83,100.78c-1.59,0-2.97-.32-4.13-.97s-2.06-1.59-2.7-2.81-.96-2.69-.96-4.39v-.03c0-1.69.32-3.14.97-4.36s1.56-2.15,2.72-2.81,2.52-.98,4.09-.98,2.94.32,4.11.97,2.07,1.58,2.72,2.8.97,2.67.97,4.37v.03c0,1.71-.32,3.17-.96,4.39s-1.54,2.16-2.7,2.81-2.53.97-4.12.97ZM860.85,97.42c.69,0,1.29-.19,1.8-.56s.9-.92,1.18-1.64.42-1.59.42-2.61v-.03c0-1.01-.14-1.87-.42-2.59s-.68-1.26-1.19-1.64-1.12-.56-1.81-.56-1.28.19-1.79.57-.91.93-1.19,1.64-.42,1.57-.42,2.58v.03c0,1.03.14,1.9.42,2.61s.68,1.26,1.19,1.64,1.13.56,1.83.56Z"/><path class="ak" d="M870.81,100.46v-15.7h4.28v2.74h.09c.23-.97.66-1.72,1.28-2.26s1.38-.81,2.3-.81c.23,0,.46.01.67.04s.4.07.56.12v3.78c-.18-.08-.4-.14-.67-.18s-.57-.07-.88-.07c-.7,0-1.3.14-1.8.41s-.88.67-1.14,1.2-.4,1.17-.4,1.93v8.79h-4.28Z"/><path class="ak" d="M892.43,79.32l-1.05,8.1h-4.06l2.15-8.1h2.96ZM897.98,79.32l-1.05,8.1h-4.06l2.15-8.1h2.96Z"/><path class="ak" d="M900.79,100.46v-21.14h8.07c2.12,0,3.93.41,5.43,1.22s2.65,1.99,3.45,3.55,1.2,3.45,1.2,5.69v.03c0,2.24-.4,4.15-1.19,5.74s-1.95,2.81-3.45,3.65-3.32,1.26-5.44,1.26h-8.07ZM905.22,96.79h3.12c1.32,0,2.43-.26,3.33-.79s1.59-1.31,2.06-2.34.7-2.31.7-3.84v-.03c0-1.46-.24-2.71-.72-3.72s-1.17-1.78-2.08-2.31-2.01-.78-3.3-.78h-3.12v13.81Z"/><path class="ak" d="M923.89,105.63c-.42,0-.82-.02-1.21-.06s-.71-.08-.97-.13v-3.18c.15.03.34.06.59.1s.53.05.84.05c.64,0,1.15-.11,1.52-.32s.65-.59.83-1.11l.18-.51-5.54-15.7h4.7l3.54,13.12-.57-.85h.81l-.57.85,3.53-13.12h4.53l-5.39,15.98c-.41,1.23-.92,2.2-1.54,2.92s-1.37,1.23-2.23,1.52-1.88.45-3.05.45Z"/><path class="ak" d="M937.6,100.46v-15.7h4.28v2.58h.09c.41-.9,1.02-1.61,1.82-2.12s1.79-.78,2.97-.78c1.73,0,3.06.52,4.01,1.56s1.41,2.48,1.41,4.33v10.14h-4.28v-9.24c0-1.03-.24-1.82-.73-2.39s-1.2-.85-2.16-.85c-.63,0-1.19.15-1.65.44s-.83.7-1.09,1.22-.39,1.12-.39,1.8v9.02h-4.28Z"/><path class="ak" d="M959.56,100.7c-1.04,0-1.97-.2-2.76-.61s-1.42-.97-1.86-1.68-.67-1.54-.67-2.45v-.03c0-.96.24-1.77.72-2.45s1.17-1.21,2.09-1.6,2.02-.63,3.32-.72l6.12-.38v2.67l-5.48.37c-.82.05-1.45.24-1.88.57s-.64.78-.64,1.33v.03c0,.58.22,1.03.66,1.35s1.03.49,1.77.49c.63,0,1.2-.12,1.71-.37s.9-.59,1.19-1.03.43-.92.43-1.46v-4.78c0-.69-.22-1.24-.66-1.64s-1.08-.6-1.92-.6-1.44.16-1.9.49-.76.74-.87,1.25l-.03.13h-3.93l.02-.18c.09-.97.41-1.83.97-2.58s1.34-1.34,2.34-1.77,2.19-.64,3.57-.64,2.53.22,3.53.65,1.77,1.05,2.32,1.84c.55.79.83,1.71.83,2.77v10.77h-4.28v-2.33h-.09c-.3.53-.68.99-1.14,1.38s-.98.69-1.58.89-1.23.31-1.91.31Z"/><path class="ak" d="M971.31,100.46v-15.7h4.28v2.64h.09c.32-.9.87-1.62,1.65-2.15.78-.54,1.69-.81,2.75-.81.73,0,1.39.13,1.98.38s1.08.62,1.49,1.1.69,1.06.86,1.76h.09c.23-.66.59-1.24,1.06-1.72.47-.48,1.03-.86,1.68-1.12s1.36-.4,2.13-.4c1.03,0,1.92.22,2.7.66s1.37,1.05,1.8,1.85.64,1.72.64,2.78v10.74h-4.28v-9.65c0-.62-.1-1.13-.3-1.55s-.49-.73-.86-.95c-.38-.22-.84-.33-1.4-.33s-1.01.12-1.41.37c-.41.25-.72.59-.95,1.03s-.34.95-.34,1.54v9.54h-4.12v-9.79c0-.57-.1-1.05-.31-1.45s-.5-.71-.87-.92-.83-.32-1.35-.32-1.01.13-1.42.39-.73.61-.96,1.06c-.23.45-.34.97-.34,1.55v9.48h-4.28Z"/><path class="ak" d="M999.43,82.75c-.64,0-1.19-.22-1.63-.67s-.67-.97-.67-1.57.22-1.14.67-1.57.99-.65,1.63-.65,1.19.22,1.63.65.66.96.66,1.57-.22,1.13-.66,1.57-.98.67-1.63.67ZM997.28,100.46v-15.7h4.29v15.7h-4.29Z"/><path class="ak" d="M1011.61,100.78c-1.59,0-2.97-.33-4.13-1s-2.06-1.61-2.69-2.83c-.63-1.23-.94-2.68-.94-4.36h0c0-1.69.32-3.14.95-4.36s1.53-2.15,2.69-2.81c1.16-.66,2.52-.99,4.08-.99,1.43,0,2.66.27,3.71.8s1.86,1.25,2.45,2.16c.59.91.92,1.93.97,3.06v.1h-3.98v-.13c-.14-.74-.46-1.37-.98-1.88s-1.22-.76-2.11-.76c-.69,0-1.3.19-1.81.58-.51.39-.91.94-1.19,1.66-.28.72-.42,1.57-.42,2.57h0c0,1.04.14,1.91.42,2.63.28.72.67,1.26,1.19,1.64.51.38,1.12.56,1.82.56.86,0,1.55-.24,2.07-.73.52-.48.85-1.12.99-1.91l.03-.13h3.98v.09c-.07,1.14-.4,2.17-1,3.08s-1.41,1.63-2.45,2.16c-1.04.53-2.26.8-3.66.8Z"/><path class="ak" d="M1036.61,100.82c-2.09,0-3.9-.44-5.43-1.33-1.53-.88-2.71-2.14-3.54-3.78s-1.25-3.58-1.25-5.82v-.03c0-2.25.42-4.18,1.25-5.82.84-1.63,2.02-2.89,3.54-3.77s3.33-1.33,5.41-1.33,3.9.44,5.42,1.33,2.7,2.15,3.53,3.77,1.25,3.56,1.25,5.81v.03c0,2.25-.42,4.18-1.25,5.82s-2,2.89-3.52,3.78-3.33,1.33-5.43,1.33ZM1036.61,97.07c1.17,0,2.18-.3,3.02-.89s1.5-1.42,1.96-2.5.69-2.34.69-3.79v-.03c0-1.46-.23-2.73-.7-3.81-.46-1.07-1.12-1.9-1.97-2.48s-1.85-.87-3-.87-2.16.29-3.01.87-1.51,1.41-1.98,2.48c-.46,1.07-.7,2.34-.7,3.82v.03c0,1.46.23,2.73.7,3.81.46,1.07,1.12,1.9,1.97,2.49s1.86.88,3.02.88Z"/><path class="ak" d="M1049.28,100.46v-15.7h4.28v2.74h.09c.23-.97.66-1.72,1.27-2.26s1.38-.81,2.3-.81c.23,0,.46.01.67.04s.4.07.56.12v3.78c-.18-.08-.4-.14-.67-.18s-.57-.07-.88-.07c-.7,0-1.3.14-1.8.41s-.88.67-1.14,1.2-.4,1.17-.4,1.93v8.79h-4.28Z"/><path class="ak" d="M1069.5,100.78c-.75,0-1.44-.12-2.07-.36s-1.17-.58-1.64-1.03-.84-.99-1.13-1.61h-.09v2.68h-4.28v-21.14h4.28v8.16h.09c.29-.63.67-1.18,1.14-1.63s1.02-.8,1.65-1.05c.63-.24,1.32-.37,2.06-.37,1.32,0,2.45.32,3.41.97.95.65,1.69,1.58,2.21,2.8s.78,2.68.78,4.39h0c0,1.71-.26,3.17-.78,4.39s-1.25,2.16-2.21,2.81-2.09.98-3.41.98ZM1068.08,97.23c.71,0,1.33-.19,1.85-.56s.92-.91,1.19-1.6c.28-.69.42-1.51.42-2.46h0c0-.97-.14-1.79-.42-2.48s-.68-1.22-1.2-1.59-1.13-.56-1.83-.56-1.3.19-1.82.56c-.52.38-.93.91-1.23,1.6-.3.69-.45,1.51-.45,2.45h0c0,.96.15,1.78.44,2.48s.7,1.23,1.23,1.6,1.14.56,1.83.56Z"/><path class="ak" d="M1080.32,82.75c-.64,0-1.19-.22-1.63-.67s-.67-.97-.67-1.57.22-1.14.67-1.57.99-.65,1.63-.65,1.19.22,1.63.65.66.96.66,1.57-.22,1.13-.66,1.57-.98.67-1.63.67ZM1078.17,100.46v-15.7h4.29v15.7h-4.29Z"/><path class="ak" d="M1091.56,100.78c-1.74,0-3.03-.37-3.87-1.1s-1.26-1.94-1.26-3.62v-8.09h-2.18v-3.22h2.18v-3.84h4.32v3.84h2.87v3.22h-2.87v7.62c0,.73.16,1.24.49,1.53s.81.43,1.46.43c.2,0,.37,0,.51-.02s.28-.03.41-.05v3.13c-.23.04-.53.08-.87.11-.35.03-.75.05-1.19.05Z"/><path class="ak" d="M1095.43,87.42l1.07-8.1h4.04l-2.14,8.1h-2.97ZM1100.98,87.42l1.07-8.1h4.04l-2.14,8.1h-2.97Z"/><rect class="ae" x="108" y="132" width="432" height="432"/><rect class="ae" x="108.89" y="132.78" width="430.23" height="430.23"/><rect class="ad" x="180.59" y="204.69" width="286.82" height="286.61"/><rect class="ah" x="252.3" y="276.19" width="143.41" height="143.41"/><rect class="z" x="324" y="276.19" width="23.9" height="23.9"/><rect class="z" x="371.8" y="324" width="23.9" height="23.9"/><rect class="z" x="371.8" y="371.8" width="23.9" height="23.9"/><rect class="z" x="371.8" y="276.19" width="23.9" height="23.9"/><rect class="z" x="347.9" y="395.7" width="23.9" height="23.9"/><rect class="z" x="300.1" y="395.7" width="23.9" height="23.9"/><rect class="z" x="276.2" y="276.19" width="23.9" height="23.9"/><rect class="z" x="252.3" y="395.7" width="23.9" height="23.9"/><rect class="z" x="252.3" y="347.9" width="23.9" height="23.9"/><rect class="z" x="252.3" y="300.09" width="23.9" height="23.9"/><rect class="ab" x="276.2" y="300.09" width="95.61" height="95.61"/><rect class="al" x="347.9" y="300.09" width="23.9" height="23.9"/><rect class="al" x="300.1" y="300.09" width="23.9" height="23.9"/><rect class="al" x="324" y="324" width="23.9" height="23.9"/><rect class="al" x="276.2" y="324" width="23.9" height="23.9"/><rect class="al" x="347.9" y="347.9" width="23.9" height="23.9"/><rect class="al" x="300.1" y="347.9" width="23.9" height="23.9"/><rect class="al" x="324" y="371.8" width="23.9" height="23.9"/><rect class="al" x="276.2" y="371.8" width="23.9" height="23.9"/><line class="p" x1="395.7" y1="324" x2="467.41" y2="324"/><line class="p" x1="395.7" y1="347.9" x2="467.41" y2="347.9"/><line class="p" x1="395.7" y1="371.8" x2="467.41" y2="371.8"/><line class="p" x1="395.7" y1="300.09" x2="467.41" y2="300.09"/><line class="p" x1="395.7" y1="395.7" x2="467.41" y2="395.7"/><line class="e" x1="491.31" y1="563.01" x2="491.31" y2="419.6"/><line class="e" x1="515.21" y1="563.01" x2="515.21" y2="419.6"/><line class="e" x1="539.11" y1="539.11" x2="395.7" y2="539.11"/><line class="e" x1="539.11" y1="515.21" x2="395.7" y2="515.21"/><line class="k" x1="467.41" y1="324" x2="539.11" y2="324"/><line class="k" x1="467.41" y1="347.9" x2="539.11" y2="347.9"/><line class="k" x1="467.41" y1="371.8" x2="539.11" y2="371.8"/><line class="k" x1="467.41" y1="300.09" x2="539.11" y2="300.09"/><line class="k" x1="467.41" y1="395.7" x2="539.11" y2="395.7"/><line class="e" x1="467.41" y1="467.41" x2="539.11" y2="467.41"/><line class="e" x1="467.41" y1="491.31" x2="539.11" y2="491.31"/><line class="e" x1="467.41" y1="443.5" x2="539.11" y2="443.5"/><line class="p" x1="467.41" y1="419.6" x2="467.41" y2="276.19"/><line class="k" x1="491.31" y1="419.6" x2="491.31" y2="276.19"/><line class="k" x1="515.21" y1="419.6" x2="515.21" y2="276.19"/><line class="p" x1="443.51" y1="419.6" x2="443.51" y2="276.19"/><line class="p" x1="419.61" y1="419.6" x2="419.61" y2="276.19"/><line class="d" x1="252.3" y1="371.8" x2="180.59" y2="371.8"/><line class="d" x1="252.3" y1="347.9" x2="180.59" y2="347.9"/><line class="d" x1="252.3" y1="324" x2="180.59" y2="324"/><line class="d" x1="252.3" y1="395.7" x2="180.59" y2="395.7"/><line class="d" x1="252.3" y1="300.09" x2="180.59" y2="300.09"/><line class="g" x1="180.59" y1="371.8" x2="108.89" y2="371.8"/><line class="g" x1="180.59" y1="347.9" x2="108.89" y2="347.9"/><line class="g" x1="180.59" y1="324" x2="108.89" y2="324"/><line class="g" x1="180.59" y1="395.7" x2="108.89" y2="395.7"/><line class="g" x1="180.59" y1="300.09" x2="108.89" y2="300.09"/><line class="d" x1="180.59" y1="276.19" x2="180.59" y2="419.6"/><line class="g" x1="156.69" y1="276.19" x2="156.69" y2="419.6"/><line class="g" x1="132.79" y1="276.19" x2="132.79" y2="419.6"/><line class="d" x1="204.49" y1="276.19" x2="204.49" y2="419.6"/><line class="d" x1="228.39" y1="276.19" x2="228.39" y2="419.6"/><line class="o" x1="300.1" y1="276.19" x2="300.1" y2="204.49"/><line class="o" x1="324" y1="276.19" x2="324" y2="204.49"/><line class="o" x1="347.9" y1="276.19" x2="347.9" y2="204.49"/><line class="o" x1="276.2" y1="276.19" x2="276.2" y2="204.49"/><line class="o" x1="371.8" y1="276.19" x2="371.8" y2="204.49"/><line class="c" x1="300.1" y1="204.49" x2="300.1" y2="132.78"/><line class="c" x1="324" y1="204.49" x2="324" y2="132.78"/><line class="c" x1="347.9" y1="204.49" x2="347.9" y2="132.78"/><line class="c" x1="276.2" y1="204.49" x2="276.2" y2="132.78"/><line class="c" x1="371.8" y1="204.49" x2="371.8" y2="132.78"/><line class="o" x1="395.7" y1="204.49" x2="252.3" y2="204.49"/><line class="c" x1="395.7" y1="180.59" x2="252.3" y2="180.59"/><line class="c" x1="395.7" y1="156.68" x2="252.3" y2="156.68"/><line class="o" x1="395.7" y1="228.39" x2="252.3" y2="228.39"/><line class="o" x1="395.7" y1="252.29" x2="252.3" y2="252.29"/><line class="l" x1="347.9" y1="419.6" x2="347.9" y2="491.31"/><line class="l" x1="324" y1="419.6" x2="324" y2="491.31"/><line class="l" x1="300.1" y1="419.6" x2="300.1" y2="491.31"/><line class="l" x1="371.8" y1="419.6" x2="371.8" y2="491.31"/><line class="l" x1="276.2" y1="419.6" x2="276.2" y2="491.31"/><line class="s" x1="347.9" y1="491.31" x2="347.9" y2="563.01"/><line class="s" x1="324" y1="491.31" x2="324" y2="563.01"/><line class="s" x1="300.1" y1="491.31" x2="300.1" y2="563.01"/><line class="s" x1="371.8" y1="491.31" x2="371.8" y2="563.01"/><line class="e" x1="419.61" y1="491.51" x2="419.61" y2="563.22"/><line class="e" x1="443.51" y1="491.51" x2="443.51" y2="563.22"/><line class="e" x1="467.41" y1="491.51" x2="467.41" y2="563.22"/><line class="s" x1="276.2" y1="491.31" x2="276.2" y2="563.01"/><line class="l" x1="252.3" y1="491.31" x2="395.7" y2="491.31"/><line class="s" x1="252.3" y1="515.21" x2="395.7" y2="515.21"/><line class="s" x1="252.3" y1="539.11" x2="395.7" y2="539.11"/><line class="l" x1="252.3" y1="467.41" x2="395.7" y2="467.41"/><line class="l" x1="252.3" y1="443.5" x2="395.7" y2="443.5"/><line class="u" x1="395.7" y1="467.41" x2="467.41" y2="467.41"/><line class="u" x1="395.7" y1="443.5" x2="467.41" y2="443.5"/><line class="u" x1="443.51" y1="491.31" x2="443.51" y2="419.6"/><line class="u" x1="419.61" y1="491.31" x2="419.61" y2="419.6"/><polyline class="u" points="395.7 491.31 467.41 491.31 467.41 419.6"/><line class="v" x1="156.69" y1="132.99" x2="156.69" y2="276.4"/><line class="v" x1="132.79" y1="132.99" x2="132.79" y2="276.4"/><line class="v" x1="108.89" y1="156.89" x2="252.3" y2="156.89"/><line class="v" x1="108.89" y1="180.79" x2="252.3" y2="180.79"/><line class="v" x1="180.59" y1="228.59" x2="108.89" y2="228.59"/><line class="v" x1="180.59" y1="204.69" x2="108.89" y2="204.69"/><line class="v" x1="180.59" y1="252.5" x2="108.89" y2="252.5"/><line class="v" x1="228.39" y1="204.49" x2="228.39" y2="132.78"/><line class="v" x1="204.49" y1="204.49" x2="204.49" y2="132.78"/><line class="v" x1="180.59" y1="204.49" x2="180.59" y2="132.78"/><line class="m" x1="252.3" y1="228.59" x2="180.59" y2="228.59"/><line class="m" x1="252.3" y1="252.5" x2="180.59" y2="252.5"/><line class="m" x1="204.49" y1="204.69" x2="204.49" y2="276.4"/><line class="m" x1="228.39" y1="204.69" x2="228.39" y2="276.4"/><polyline class="m" points="252.3 204.69 180.59 204.69 180.59 276.4"/><line class="h" x1="156.69" y1="563.01" x2="156.69" y2="419.6"/><line class="h" x1="132.79" y1="563.01" x2="132.79" y2="419.6"/><line class="h" x1="108.89" y1="539.11" x2="252.3" y2="539.11"/><line class="h" x1="108.89" y1="515.21" x2="252.3" y2="515.21"/><line class="h" x1="180.59" y1="467.41" x2="108.89" y2="467.41"/><line class="h" x1="180.59" y1="491.31" x2="108.89" y2="491.31"/><line class="h" x1="180.59" y1="443.5" x2="108.89" y2="443.5"/><line class="h" x1="228.39" y1="491.51" x2="228.39" y2="563.22"/><line class="h" x1="204.49" y1="491.51" x2="204.49" y2="563.22"/><line class="h" x1="180.59" y1="491.51" x2="180.59" y2="563.22"/><line class="t" x1="252.3" y1="467.41" x2="180.59" y2="467.41"/><line class="t" x1="252.3" y1="443.5" x2="180.59" y2="443.5"/><line class="t" x1="204.49" y1="491.31" x2="204.49" y2="419.6"/><line class="t" x1="228.39" y1="491.31" x2="228.39" y2="419.6"/><polyline class="t" points="252.3 491.31 180.59 491.31 180.59 419.6"/><line class="f" x1="491.31" y1="132.99" x2="491.31" y2="276.4"/><line class="f" x1="515.21" y1="132.99" x2="515.21" y2="276.4"/><line class="f" x1="539.11" y1="156.89" x2="395.7" y2="156.89"/><line class="f" x1="539.11" y1="180.79" x2="395.7" y2="180.79"/><line class="f" x1="467.41" y1="228.59" x2="539.11" y2="228.59"/><line class="f" x1="467.41" y1="204.69" x2="539.11" y2="204.69"/><line class="f" x1="467.41" y1="252.5" x2="539.11" y2="252.5"/><line class="f" x1="419.61" y1="204.49" x2="419.61" y2="132.78"/><line class="f" x1="443.51" y1="204.49" x2="443.51" y2="132.78"/><line class="f" x1="467.41" y1="204.49" x2="467.41" y2="132.78"/><line class="j" x1="395.7" y1="228.59" x2="467.41" y2="228.59"/><line class="j" x1="395.7" y1="252.5" x2="467.41" y2="252.5"/><line class="j" x1="443.51" y1="204.69" x2="443.51" y2="276.4"/><line class="j" x1="419.61" y1="204.69" x2="419.61" y2="276.4"/><polyline class="j" points="395.7 204.69 467.41 204.69 467.41 276.4"/><rect class="i" x="108.89" y="132.78" width="430.23" height="430.23"/><line class="i" x1="108.89" y1="276.19" x2="539.11" y2="276.19"/><line class="i" x1="108.89" y1="419.6" x2="539.11" y2="419.6"/><line class="i" x1="252.3" y1="563.01" x2="252.3" y2="132.78"/><line class="i" x1="395.7" y1="563.01" x2="395.7" y2="132.78"/><rect class="n" x="212" y="376" width="80" height="80" rx="40" ry="40"/><path class="r" d="M1053.01,242.87c24.41-2.17,40.38.85,44.26,9.82,10.97,25.34-78.76,88.56-200.4,141.2s-229.15,74.77-240.12,49.43c-3.82-8.82,4.57-22.24,22.26-38.2"/><rect class="n" x="790" y="380" width="80" height="80" rx="40" ry="40"/></g></svg>