<?xml version="1.0" encoding="UTF-8"?><svg xmlns="http://www.w3.org/2000/svg" viewBox="0 0 1200 675"><defs><style>.d{fill:#670067;}.d,.e,.f,.g,.h,.i,.j,.k,.l,.m,.n,.o,.p,.q,.r,.s,.t,.u,.v,.w,.x,.y,.z,.aa,.ab,.ac,.ad,.ae,.af,.ag{stroke-miterlimit:10;}.d,.i,.n,.q,.v,.w,.aa,.ab,.ac,.ad,.ae,.ag{stroke:#3d444d;}.d,.i,.q,.t,.u,.v,.w,.aa,.ab,.ac,.ad,.ae,.ag{stroke-width:2px;}.ah,.e,.f,.g,.h,.j,.k,.l,.m,.n,.o,.p,.r,.s,.t,.u,.x,.y,.z,.af{fill:none;}.e{stroke:#7a0000;}.ai{fill:#1f2328;}.f{stroke:green;}.g{stroke:#300352;}.h{stroke:#670067;}.i{fill:#7a0000;}.j{stroke:#003d00;}.k{stroke:#003a52;}.aj{fill:#30363d;}.l{stroke:#2f353d;stroke-width:3px;}.m{stroke:#f0f;}.o{stroke:#0067c0;}.p{stroke:#ffd400;}.q,.ak{fill:#fff;}.r{stroke:red;}.al{fill:#21262d;}.am{fill:#0d1117;}.s{stroke:#f0f6fc;}.t,.u{stroke:#f0883e;}.an,.v{fill:#484f58;}.u{stroke-dasharray:3.9 3.9;}.ao{fill:#2f353d;}.w{fill:red;}.x{stroke:#001f41;}.y{stroke:#00aeef;}.z{stroke:#6a0dad;}.aa{fill:#f0f;}.ap,.ac{fill:#f0f6fc;}.ad{fill:green;}.aq{fill:#c9d1d9;}.ar{fill:#f0883e;}.ae{fill:#ffd400;}.af{stroke:#413500;}.ag{fill:#00aeef;}</style></defs><g id="a"><rect width="1200" height="675"/></g><g id="b"><path class="ao" d="M41.07,631.42c0-3.63,2.8-6.43,6.35-6.43s6.35,2.8,6.35,6.43-2.8,6.43-6.35,6.43-6.35-2.8-6.35-6.43ZM52.53,631.42c0-2.95-2.24-5.29-5.11-5.29s-5.11,2.33-5.11,5.29,2.24,5.29,5.11,5.29,5.11-2.33,5.11-5.29ZM48.98,630.27c-.21-.64-.68-1.05-1.41-1.05-1.1,0-1.75.86-1.75,2.19s.64,2.19,1.75,2.19c.73,0,1.25-.39,1.41-.98h1.28c-.2,1.28-1.3,2.19-2.7,2.19-1.85,0-3.05-1.29-3.05-3.4s1.2-3.4,3.05-3.4c1.39,0,2.47.93,2.7,2.26h-1.28Z"/><path class="ao" d="M76.97,622.61c2.96,0,5,1.9,5,4.66,0,1.72-.73,3.04-3.36,6.07l-4.23,4.89v.19h7.88v1.45h-10.24v-1.02l5.8-6.77c2.07-2.45,2.55-3.35,2.55-4.78,0-1.99-1.35-3.28-3.43-3.28s-3.41,1.39-3.41,3.55v.07h-1.58v-.07c0-2.87,2.12-4.96,5.03-4.96Z"/><path class="ao" d="M86.48,631.42c0-5.72,1.93-8.85,5.46-8.85s5.46,3.13,5.46,8.85-1.93,8.85-5.46,8.85-5.46-3.13-5.46-8.85ZM88.22,633.93l7.15-6.54c-.57-2.25-1.72-3.41-3.43-3.41-2.53,0-3.86,2.55-3.86,7.44,0,.91.05,1.76.14,2.51ZM95.79,631.42c0-.94-.05-1.78-.14-2.54l-7.14,6.62c.57,2.21,1.72,3.36,3.42,3.36,2.53,0,3.86-2.55,3.86-7.44Z"/><path class="ao" d="M106.64,622.61c2.96,0,5,1.9,5,4.66,0,1.72-.73,3.04-3.36,6.07l-4.23,4.89v.19h7.88v1.45h-10.24v-1.02l5.8-6.77c2.07-2.45,2.55-3.35,2.55-4.78,0-1.99-1.35-3.28-3.43-3.28s-3.41,1.39-3.41,3.55v.07h-1.58v-.07c0-2.87,2.12-4.96,5.03-4.96Z"/><path class="ao" d="M116.09,635.5h1.54c.19,1.95,1.82,3.3,3.95,3.3,2.32,0,3.86-1.68,3.86-4.18s-1.56-4.25-3.86-4.25c-1.63,0-3,.76-3.69,2.04h-1.49l.88-9.45h8.84v1.44h-7.58l-.5,5.98h.18c.88-.98,2.05-1.48,3.5-1.48,3.13,0,5.32,2.34,5.32,5.68s-2.26,5.62-5.59,5.62c-3,0-5.14-1.89-5.34-4.71Z"/><path class="ao" d="M146.64,639.87v-16.91h1.61v8.74h.14l7.18-8.74h2l-6.41,7.48,7.1,9.43h-2.07l-6.09-8.2-1.85,2.17v6.04h-1.61Z"/><path class="ao" d="M160.76,634.5v-1.88c0-3.4,2.09-5.58,5.34-5.58s5.34,2.18,5.34,5.58v1.88c0,3.4-2.09,5.58-5.34,5.58s-5.34-2.18-5.34-5.58ZM162.3,632.83v1.48c0,2.73,1.46,4.41,3.81,4.41s3.81-1.68,3.81-4.41v-1.48c0-2.73-1.46-4.41-3.81-4.41s-3.81,1.68-3.81,4.41Z"/><path class="ao" d="M175.95,622.22h1.46v7.3h.15c.69-1.59,2.17-2.48,4.12-2.48,2.75,0,4.24,1.63,4.24,4.63v8.2h-1.54v-7.82c0-2.47-1-3.63-3.12-3.63-2.26,0-3.8,1.61-3.8,3.95v7.5h-1.54v-17.65Z"/><path class="ao" d="M200.97,636.75c-.42,2.02-2.34,3.33-4.89,3.33-3.4,0-5.37-2.1-5.37-5.7v-1.84c0-3.33,2.06-5.51,5.19-5.51s5.12,2.16,5.12,5.93v1h-8.78v.43c0,2.64,1.49,4.31,3.83,4.31,1.72,0,2.98-.73,3.36-1.96h1.52ZM192.25,632.7h7.22c0-2.68-1.34-4.3-3.56-4.3s-3.66,1.61-3.66,4.3Z"/><path class="ao" d="M205.62,627.25h1.46v2.27h.15c.69-1.59,2.17-2.48,4.12-2.48,2.75,0,4.24,1.63,4.24,4.63v8.2h-1.54v-7.82c0-2.47-1-3.63-3.12-3.63-2.26,0-3.8,1.61-3.8,3.95v7.5h-1.54v-12.62Z"/><path class="ao" d="M232.87,633.06v-1.36h14.84v1.36h-14.84Z"/><path class="ao" d="M265.45,639.87h-1.5v-16.91h1.89l4.07,10.88h.13l4.04-10.88h1.9v16.91h-1.5v-13.79h-.12l-3.7,9.82h-1.38l-3.7-9.82h-.12v13.79Z"/><path class="ao" d="M284,639.87v-15.46h-5.2v-1.45h12v1.45h-5.2v15.46h-1.59Z"/><path class="ao" d="M300.16,622.96c3.18,0,5.3,2.11,5.3,5.26s-2.12,5.26-5.3,5.26h-3.81v6.39h-1.61v-16.91h5.41ZM296.35,632.05h3.42c2.57,0,4.05-1.41,4.05-3.83s-1.49-3.83-4.05-3.83h-3.42v7.66Z"/><path class="ao" d="M321.88,633.06v-1.36h14.84v1.36h-14.84Z"/><path class="ao" d="M354.17,639.87v-1.24h4.44v-10.14h-4.46v-1.24h6v11.38h4.32v1.24h-10.3ZM357.75,622.46c0-.8.66-1.45,1.45-1.45s1.45.66,1.45,1.45-.66,1.45-1.45,1.45-1.45-.66-1.45-1.45Z"/><path class="ao" d="M379.79,639.87h-1.44v-8.71c0-1.82-.61-2.74-1.79-2.74-1.24,0-1.99,1.12-1.99,3v8.45h-1.44v-8.72c0-1.8-.61-2.73-1.8-2.73-1.27,0-2.04,1.14-2.04,3v8.45h-1.44v-12.62h1.39v1.69h.16c.33-1.17,1.25-1.9,2.41-1.9s2.06.7,2.33,1.9h.16c.34-1.15,1.41-1.9,2.71-1.9,1.84,0,2.78,1.28,2.78,3.77v9.06Z"/><path class="ao" d="M392.29,627.25h1.95l-4.99,4.89,5.34,7.73h-1.85l-4.57-6.68-1.95,1.9v4.78h-1.54v-17.65h1.54v10.97h.14l5.93-5.94Z"/><path class="ao" d="M398.14,634.5v-1.88c0-3.4,2.09-5.58,5.34-5.58s5.34,2.18,5.34,5.58v1.88c0,3.4-2.09,5.58-5.34,5.58s-5.34-2.18-5.34-5.58ZM399.67,632.83v1.48c0,2.73,1.46,4.41,3.81,4.41s3.81-1.68,3.81-4.41v-1.48c0-2.73-1.46-4.41-3.81-4.41s-3.81,1.68-3.81,4.41Z"/><path class="ao" d="M413.32,622.22h1.46v7.3h.15c.69-1.59,2.17-2.48,4.12-2.48,2.75,0,4.24,1.63,4.24,4.63v8.2h-1.54v-7.82c0-2.47-1-3.63-3.12-3.63-2.26,0-3.8,1.61-3.8,3.95v7.5h-1.54v-17.65Z"/><path class="ao" d="M438.34,636.75c-.42,2.02-2.34,3.33-4.89,3.33-3.4,0-5.37-2.1-5.37-5.7v-1.84c0-3.33,2.06-5.51,5.19-5.51s5.12,2.16,5.12,5.93v1h-8.78v.43c0,2.64,1.49,4.31,3.83,4.31,1.72,0,2.98-.73,3.36-1.96h1.52ZM429.62,632.7h7.22c0-2.68-1.34-4.3-3.56-4.3s-3.66,1.61-3.66,4.3Z"/><path class="ao" d="M443,627.25h1.46v2.27h.15c.69-1.59,2.17-2.48,4.12-2.48,2.75,0,4.24,1.63,4.24,4.63v8.2h-1.54v-7.82c0-2.47-1-3.63-3.12-3.63-2.26,0-3.8,1.61-3.8,3.95v7.5h-1.54v-12.62Z"/><path class="ao" d="M457.68,636.31c0-2.21,1.58-3.54,4.37-3.67l3.66-.16v-1.2c0-1.82-1.04-2.8-2.98-2.8-1.59,0-2.7.68-3.05,1.9h-1.52c.23-1.89,2.13-3.23,4.57-3.23,2.86,0,4.52,1.5,4.52,4.07v8.67h-1.48v-1.99h-.16c-.6,1.42-1.99,2.2-3.9,2.2-2.43,0-4.03-1.5-4.03-3.79ZM465.71,635.51v-1.76l-3.55.15c-1.89.08-2.89.93-2.89,2.4s1.08,2.43,2.82,2.43c2.04,0,3.62-1.41,3.62-3.22Z"/><path class="ao" d="M482.65,639.87h-1.46v-2.27h-.15c-.69,1.59-2.17,2.48-4.12,2.48-2.75,0-4.24-1.63-4.24-4.63v-8.2h1.54v7.82c0,2.47,1,3.63,3.12,3.63,2.26,0,3.8-1.61,3.8-3.95v-7.5h1.54v12.62Z"/><path class="ao" d="M492.57,627.04c2.47,0,4.22,1.28,4.49,3.27h-1.51c-.27-1.23-1.42-1.99-3.02-1.99-1.76,0-2.88.84-2.88,2.16,0,1.1.69,1.71,2.41,2.11l1.71.4c2.43.57,3.53,1.64,3.53,3.42,0,2.23-1.89,3.68-4.76,3.68s-4.59-1.3-4.83-3.38h1.59c.33,1.3,1.55,2.06,3.3,2.06,1.89,0,3.09-.89,3.09-2.27,0-1.15-.67-1.76-2.39-2.17l-1.86-.45c-2.25-.53-3.35-1.63-3.35-3.35,0-2.07,1.82-3.49,4.48-3.49Z"/><path class="ao" d="M512.52,636.75c-.42,2.02-2.34,3.33-4.89,3.33-3.4,0-5.37-2.1-5.37-5.7v-1.84c0-3.33,2.06-5.51,5.19-5.51s5.12,2.16,5.12,5.93v1h-8.78v.43c0,2.64,1.49,4.31,3.83,4.31,1.72,0,2.98-.73,3.36-1.96h1.52ZM503.8,632.7h7.22c0-2.68-1.34-4.3-3.56-4.3s-3.66,1.61-3.66,4.3Z"/><path class="ao" d="M521.57,638.63h4.01v1.24h-8.14v-1.24h2.6v-10.14h-2.86v-1.24h4.36v3.21h.16c.43-2.25,2.1-3.53,4.56-3.53.73,0,1.44.11,1.84.28v1.68c-.59-.21-1.39-.35-2.07-.35-2.72,0-4.45,2.2-4.45,5.66v4.43Z"/><path class="ao" d="M535.06,637.93c0-1.07.88-1.95,1.95-1.95s1.95.88,1.95,1.95-.88,1.95-1.95,1.95-1.95-.88-1.95-1.95Z"/><path class="ao" d="M555.4,630.96c-.26-1.5-1.65-2.54-3.38-2.54-2.4,0-3.74,1.61-3.74,4.5v1.28c0,2.89,1.34,4.5,3.74,4.5,1.72,0,3.12-1.04,3.38-2.54h1.52c-.33,2.37-2.25,3.93-4.86,3.93-3.32,0-5.31-2.11-5.31-5.62v-1.79c0-3.52,1.99-5.62,5.31-5.62,2.61,0,4.54,1.56,4.86,3.93h-1.52Z"/><path class="ao" d="M561.33,634.5v-1.88c0-3.4,2.09-5.58,5.34-5.58s5.34,2.18,5.34,5.58v1.88c0,3.4-2.09,5.58-5.34,5.58s-5.34-2.18-5.34-5.58ZM562.87,632.83v1.48c0,2.73,1.46,4.41,3.81,4.41s3.81-1.68,3.81-4.41v-1.48c0-2.73-1.46-4.41-3.81-4.41s-3.81,1.68-3.81,4.41Z"/><path class="ao" d="M587.49,639.87h-1.44v-8.71c0-1.82-.61-2.74-1.79-2.74-1.24,0-1.99,1.12-1.99,3v8.45h-1.44v-8.72c0-1.8-.61-2.73-1.8-2.73-1.27,0-2.04,1.14-2.04,3v8.45h-1.44v-12.62h1.39v1.69h.16c.33-1.17,1.25-1.9,2.41-1.9s2.06.7,2.33,1.9h.16c.34-1.15,1.41-1.9,2.71-1.9,1.84,0,2.78,1.28,2.78,3.77v9.06Z"/><path class="ao" d="M591.45,641.03l8.33-19.23h1.46l-8.33,19.23h-1.46Z"/><path class="ao" d="M617.16,639.87h-1.44v-8.71c0-1.82-.61-2.74-1.79-2.74-1.24,0-1.99,1.12-1.99,3v8.45h-1.44v-8.72c0-1.8-.61-2.73-1.8-2.73-1.27,0-2.04,1.14-2.04,3v8.45h-1.44v-12.62h1.39v1.69h.16c.33-1.17,1.25-1.9,2.41-1.9s2.06.7,2.33,1.9h.16c.34-1.15,1.41-1.9,2.71-1.9,1.84,0,2.78,1.28,2.78,3.77v9.06Z"/><path class="ao" d="M625.57,623.97v3.28h5.29v1.3h-5.29v7.63c0,1.56,1.08,2.4,3.08,2.4.87,0,1.79-.04,2.2-.09v1.31c-.38.07-1.56.14-2.29.14-3.04,0-4.54-1.23-4.54-3.71v-7.68h-3.4v-1.3h3.4v-3.28h1.54Z"/><path class="ao" d="M646.34,632.35v2.43c0,3.15-1.99,5.31-4.92,5.31-1.83,0-3.21-.75-3.81-2.07h-.21v6.14h-1.54v-16.9h1.46v1.82h.21c.74-1.32,2.09-2.03,3.88-2.03,2.93,0,4.92,2.16,4.92,5.31ZM637.36,632.72v1.69c0,2.61,1.46,4.3,3.71,4.3s3.73-1.7,3.73-4.3v-1.69c0-2.6-1.46-4.3-3.73-4.3s-3.71,1.69-3.71,4.3Z"/></g><g id="c"><rect x="640" y="80" width="480" height="500"/><line class="l" x1="1120" y1="580" x2="1120" y2="80"/><line class="l" x1="640" y1="580" x2="640" y2="80"/><rect class="am" x="728" y="240" width="304" height="304"/><rect class="am" x="728.62" y="240.55" width="302.75" height="302.75"/><rect class="al" x="779.08" y="291.15" width="201.84" height="201.69"/><rect class="an" x="829.54" y="341.47" width="100.92" height="100.92"/><rect class="aj" x="880" y="341.47" width="16.82" height="16.82"/><rect class="aj" x="913.64" y="375.11" width="16.82" height="16.82"/><rect class="aj" x="913.64" y="408.75" width="16.82" height="16.82"/><rect class="aj" x="913.64" y="341.47" width="16.82" height="16.82"/><rect class="aj" x="896.82" y="425.57" width="16.82" height="16.82"/><rect class="aj" x="863.18" y="425.57" width="16.82" height="16.82"/><rect class="aj" x="846.36" y="341.47" width="16.82" height="16.82"/><rect class="aj" x="829.54" y="425.57" width="16.82" height="16.82"/><rect class="aj" x="829.54" y="391.93" width="16.82" height="16.82"/><rect class="aj" x="829.54" y="358.29" width="16.82" height="16.82"/><rect class="ak" x="846.36" y="358.29" width="67.28" height="67.28"/><rect class="aq" x="896.82" y="358.29" width="16.82" height="16.82"/><rect class="aq" x="863.18" y="358.29" width="16.82" height="16.82"/><rect class="aq" x="880" y="375.11" width="16.82" height="16.82"/><rect class="aq" x="846.36" y="375.11" width="16.82" height="16.82"/><rect class="aq" x="896.82" y="391.93" width="16.82" height="16.82"/><rect class="aq" x="863.18" y="391.93" width="16.82" height="16.82"/><rect class="aq" x="880" y="408.75" width="16.82" height="16.82"/><rect class="aq" x="846.36" y="408.75" width="16.82" height="16.82"/><line class="s" x1="930.46" y1="375.11" x2="980.92" y2="375.11"/><line class="s" x1="930.46" y1="391.93" x2="980.92" y2="391.93"/><line class="s" x1="930.46" y1="408.75" x2="980.92" y2="408.75"/><line class="s" x1="930.46" y1="358.29" x2="980.92" y2="358.29"/><line class="s" x1="930.46" y1="425.57" x2="980.92" y2="425.57"/><line class="g" x1="997.74" y1="543.3" x2="997.74" y2="442.39"/><line class="g" x1="1014.56" y1="543.3" x2="1014.56" y2="442.39"/><line class="g" x1="1031.38" y1="526.48" x2="930.46" y2="526.48"/><line class="g" x1="1031.38" y1="509.67" x2="930.46" y2="509.67"/><line class="n" x1="980.92" y1="375.11" x2="1031.38" y2="375.11"/><line class="n" x1="980.92" y1="391.93" x2="1031.38" y2="391.93"/><line class="n" x1="980.92" y1="408.75" x2="1031.38" y2="408.75"/><line class="n" x1="980.92" y1="358.29" x2="1031.38" y2="358.29"/><line class="n" x1="980.92" y1="425.57" x2="1031.38" y2="425.57"/><line class="g" x1="980.92" y1="476.03" x2="1031.38" y2="476.03"/><line class="g" x1="980.92" y1="492.85" x2="1031.38" y2="492.85"/><line class="g" x1="980.92" y1="459.21" x2="1031.38" y2="459.21"/><line class="s" x1="980.92" y1="442.39" x2="980.92" y2="341.47"/><line class="n" x1="997.74" y1="442.39" x2="997.74" y2="341.47"/><line class="n" x1="1014.56" y1="442.39" x2="1014.56" y2="341.47"/><line class="s" x1="964.1" y1="442.39" x2="964.1" y2="341.47"/><line class="s" x1="947.28" y1="442.39" x2="947.28" y2="341.47"/><line class="f" x1="829.54" y1="408.75" x2="779.08" y2="408.75"/><line class="f" x1="829.54" y1="391.93" x2="779.08" y2="391.93"/><line class="f" x1="829.54" y1="375.11" x2="779.08" y2="375.11"/><line class="f" x1="829.54" y1="425.57" x2="779.08" y2="425.57"/><line class="f" x1="829.54" y1="358.29" x2="779.08" y2="358.29"/><line class="j" x1="779.08" y1="408.75" x2="728.62" y2="408.75"/><line class="j" x1="779.08" y1="391.93" x2="728.62" y2="391.93"/><line class="j" x1="779.08" y1="375.11" x2="728.62" y2="375.11"/><line class="j" x1="779.08" y1="425.57" x2="728.62" y2="425.57"/><line class="j" x1="779.08" y1="358.29" x2="728.62" y2="358.29"/><line class="f" x1="779.08" y1="341.47" x2="779.08" y2="442.39"/><line class="j" x1="762.26" y1="341.47" x2="762.26" y2="442.39"/><line class="j" x1="745.44" y1="341.47" x2="745.44" y2="442.39"/><line class="f" x1="795.9" y1="341.47" x2="795.9" y2="442.39"/><line class="f" x1="812.72" y1="341.47" x2="812.72" y2="442.39"/><line class="r" x1="863.18" y1="341.47" x2="863.18" y2="291.01"/><line class="r" x1="880" y1="341.47" x2="880" y2="291.01"/><line class="r" x1="896.82" y1="341.47" x2="896.82" y2="291.01"/><line class="r" x1="846.36" y1="341.47" x2="846.36" y2="291.01"/><line class="r" x1="913.64" y1="341.47" x2="913.64" y2="291.01"/><line class="e" x1="863.18" y1="291.01" x2="863.18" y2="240.55"/><line class="e" x1="880" y1="291.01" x2="880" y2="240.55"/><line class="e" x1="896.82" y1="291.01" x2="896.82" y2="240.55"/><line class="e" x1="846.36" y1="291.01" x2="846.36" y2="240.55"/><line class="e" x1="913.64" y1="291.01" x2="913.64" y2="240.55"/><line class="r" x1="930.46" y1="291.01" x2="829.54" y2="291.01"/><line class="e" x1="930.46" y1="274.19" x2="829.54" y2="274.19"/><line class="e" x1="930.46" y1="257.37" x2="829.54" y2="257.37"/><line class="r" x1="930.46" y1="307.83" x2="829.54" y2="307.83"/><line class="r" x1="930.46" y1="324.65" x2="829.54" y2="324.65"/><line class="o" x1="896.82" y1="442.39" x2="896.82" y2="492.85"/><line class="o" x1="880" y1="442.39" x2="880" y2="492.85"/><line class="o" x1="863.18" y1="442.39" x2="863.18" y2="492.85"/><line class="o" x1="913.64" y1="442.39" x2="913.64" y2="492.85"/><line class="o" x1="846.36" y1="442.39" x2="846.36" y2="492.85"/><line class="x" x1="896.82" y1="492.85" x2="896.82" y2="543.3"/><line class="x" x1="880" y1="492.85" x2="880" y2="543.3"/><line class="x" x1="863.18" y1="492.85" x2="863.18" y2="543.3"/><line class="x" x1="913.64" y1="492.85" x2="913.64" y2="543.3"/><line class="g" x1="947.28" y1="492.99" x2="947.28" y2="543.45"/><line class="g" x1="964.1" y1="492.99" x2="964.1" y2="543.45"/><line class="g" x1="980.92" y1="492.99" x2="980.92" y2="543.45"/><line class="x" x1="846.36" y1="492.85" x2="846.36" y2="543.3"/><line class="o" x1="829.54" y1="492.85" x2="930.46" y2="492.85"/><line class="x" x1="829.54" y1="509.67" x2="930.46" y2="509.67"/><line class="x" x1="829.54" y1="526.48" x2="930.46" y2="526.48"/><line class="o" x1="829.54" y1="476.03" x2="930.46" y2="476.03"/><line class="o" x1="829.54" y1="459.21" x2="930.46" y2="459.21"/><line class="z" x1="930.46" y1="476.03" x2="980.92" y2="476.03"/><line class="z" x1="930.46" y1="459.21" x2="980.92" y2="459.21"/><line class="z" x1="964.1" y1="492.85" x2="964.1" y2="442.39"/><line class="z" x1="947.28" y1="492.85" x2="947.28" y2="442.39"/><polyline class="z" points="930.46 492.85 980.92 492.85 980.92 442.39"/><line class="af" x1="762.26" y1="240.7" x2="762.26" y2="341.61"/><line class="af" x1="745.44" y1="240.7" x2="745.44" y2="341.61"/><line class="af" x1="728.62" y1="257.52" x2="829.54" y2="257.52"/><line class="af" x1="728.62" y1="274.33" x2="829.54" y2="274.33"/><line class="af" x1="779.08" y1="307.97" x2="728.62" y2="307.97"/><line class="af" x1="779.08" y1="291.15" x2="728.62" y2="291.15"/><line class="af" x1="779.08" y1="324.79" x2="728.62" y2="324.79"/><line class="af" x1="812.72" y1="291.01" x2="812.72" y2="240.55"/><line class="af" x1="795.9" y1="291.01" x2="795.9" y2="240.55"/><line class="af" x1="779.08" y1="291.01" x2="779.08" y2="240.55"/><line class="p" x1="829.54" y1="307.97" x2="779.08" y2="307.97"/><line class="p" x1="829.54" y1="324.79" x2="779.08" y2="324.79"/><line class="p" x1="795.9" y1="291.15" x2="795.9" y2="341.61"/><line class="p" x1="812.72" y1="291.15" x2="812.72" y2="341.61"/><polyline class="p" points="829.54 291.15 779.08 291.15 779.08 341.61"/><line class="k" x1="762.26" y1="543.3" x2="762.26" y2="442.39"/><line class="k" x1="745.44" y1="543.3" x2="745.44" y2="442.39"/><line class="k" x1="728.62" y1="526.48" x2="829.54" y2="526.48"/><line class="k" x1="728.62" y1="509.67" x2="829.54" y2="509.67"/><line class="k" x1="779.08" y1="476.03" x2="728.62" y2="476.03"/><line class="k" x1="779.08" y1="492.85" x2="728.62" y2="492.85"/><line class="k" x1="779.08" y1="459.21" x2="728.62" y2="459.21"/><line class="k" x1="812.72" y1="492.99" x2="812.72" y2="543.45"/><line class="k" x1="795.9" y1="492.99" x2="795.9" y2="543.45"/><line class="k" x1="779.08" y1="492.99" x2="779.08" y2="543.45"/><line class="y" x1="829.54" y1="476.03" x2="779.08" y2="476.03"/><line class="y" x1="829.54" y1="459.21" x2="779.08" y2="459.21"/><line class="y" x1="795.9" y1="492.85" x2="795.9" y2="442.39"/><line class="y" x1="812.72" y1="492.85" x2="812.72" y2="442.39"/><polyline class="y" points="829.54 492.85 779.08 492.85 779.08 442.39"/><line class="h" x1="997.74" y1="240.7" x2="997.74" y2="341.61"/><line class="h" x1="1014.56" y1="240.7" x2="1014.56" y2="341.61"/><line class="h" x1="1031.38" y1="257.52" x2="930.46" y2="257.52"/><line class="h" x1="1031.38" y1="274.33" x2="930.46" y2="274.33"/><line class="h" x1="980.92" y1="307.97" x2="1031.38" y2="307.97"/><line class="h" x1="980.92" y1="291.15" x2="1031.38" y2="291.15"/><line class="h" x1="980.92" y1="324.79" x2="1031.38" y2="324.79"/><line class="h" x1="947.28" y1="291.01" x2="947.28" y2="240.55"/><line class="h" x1="964.1" y1="291.01" x2="964.1" y2="240.55"/><line class="h" x1="980.92" y1="291.01" x2="980.92" y2="240.55"/><line class="m" x1="930.46" y1="307.97" x2="980.92" y2="307.97"/><line class="m" x1="930.46" y1="324.79" x2="980.92" y2="324.79"/><line class="m" x1="964.1" y1="291.15" x2="964.1" y2="341.61"/><line class="m" x1="947.28" y1="291.15" x2="947.28" y2="341.61"/><polyline class="m" points="930.46 291.15 980.92 291.15 980.92 341.61"/><rect class="l" x="728.62" y="240.55" width="302.75" height="302.75"/><line class="l" x1="728.62" y1="341.47" x2="1031.38" y2="341.47"/><line class="l" x1="728.62" y1="442.39" x2="1031.38" y2="442.39"/><line class="l" x1="829.54" y1="543.3" x2="829.54" y2="240.55"/><line class="l" x1="930.46" y1="543.3" x2="930.46" y2="240.55"/><rect class="q" x="789" y="399" width="80" height="80" rx="40" ry="40"/><rect class="ab" x="896" y="301" width="80" height="80" rx="40" ry="40"/><line class="t" x1="828.64" y1="441.25" x2="830.11" y2="439.89"/><line class="u" x1="832.97" y1="437.25" x2="923.07" y2="353.92"/><line class="t" x1="924.5" y1="352.6" x2="925.96" y2="351.24"/><polygon class="ar" points="930.59 360.55 936.5 341.5 917.05 345.9 930.59 360.55"/><rect class="ai" x="700" y="80" width="400" height="120" rx="30" ry="30"/><path class="ap" d="M740.91,132.92c-1.47,0-2.81-.26-4-.77s-2.21-1.25-3.05-2.22-1.49-2.13-1.95-3.49-.68-2.88-.68-4.56h0c0-2.22.4-4.13,1.19-5.74s1.92-2.86,3.37-3.74,3.16-1.33,5.12-1.33c1.62,0,3.02.29,4.21.86s2.16,1.35,2.92,2.33,1.3,2.1,1.63,3.35l.07.28h-2.77l-.06-.16c-.49-1.34-1.24-2.38-2.26-3.11s-2.27-1.11-3.75-1.11-2.69.33-3.74,1-1.85,1.63-2.41,2.88-.84,2.74-.84,4.48h0c0,1.34.16,2.54.48,3.6s.79,1.96,1.4,2.71,1.35,1.32,2.21,1.71,1.83.59,2.9.59c1.25,0,2.35-.25,3.3-.75s1.69-1.2,2.23-2.1.8-1.94.8-3.12v-.38h-5.96v-2.31h8.6v2.01c0,1.43-.2,2.7-.61,3.82s-.99,2.08-1.76,2.86-1.71,1.38-2.82,1.79-2.37.62-3.77.62Z"/><path class="ap" d="M759.12,132.86c-1.46,0-2.71-.32-3.76-.97s-1.86-1.55-2.42-2.73-.84-2.56-.84-4.15h0c0-1.59.28-2.97.85-4.17s1.36-2.13,2.39-2.8,2.23-1,3.62-1,2.58.32,3.58.96,1.77,1.54,2.31,2.69.81,2.49.81,4.01v.94h-12.28v-1.99h11.02l-1.29,1.85v-.98c0-1.18-.18-2.16-.54-2.93s-.85-1.34-1.47-1.72-1.34-.56-2.15-.56-1.54.2-2.18.59-1.15.98-1.52,1.76-.56,1.73-.56,2.86v.98c0,1.07.18,1.99.55,2.75s.89,1.35,1.56,1.75,1.47.61,2.39.61c.64,0,1.22-.1,1.73-.29s.93-.46,1.27-.81.59-.73.73-1.17l.04-.13h2.5l-.03.15c-.13.62-.37,1.21-.73,1.76s-.81,1.03-1.37,1.44-1.19.74-1.9.97-1.48.34-2.31.34Z"/><path class="ap" d="M768.22,132.57v-15.23h2.55v2.17h.06c.41-.71,1.01-1.3,1.79-1.76s1.75-.7,2.9-.7c1.67,0,2.97.51,3.89,1.52s1.38,2.38,1.38,4.12v9.89h-2.55v-9.43c0-1.24-.29-2.19-.87-2.85s-1.46-.99-2.63-.99c-.8,0-1.5.18-2.09.54s-1.06.86-1.38,1.5-.49,1.4-.49,2.27v8.96h-2.55Z"/><path class="ap" d="M790.29,132.86c-1.46,0-2.71-.32-3.76-.97s-1.86-1.55-2.42-2.73-.84-2.56-.84-4.15h0c0-1.59.28-2.97.85-4.17s1.36-2.13,2.39-2.8,2.23-1,3.62-1,2.58.32,3.58.96,1.77,1.54,2.31,2.69.81,2.49.81,4.01v.94h-12.28v-1.99h11.02l-1.29,1.85v-.98c0-1.18-.18-2.16-.54-2.93s-.85-1.34-1.47-1.72-1.34-.56-2.15-.56-1.54.2-2.18.59-1.15.98-1.52,1.76-.56,1.73-.56,2.86v.98c0,1.07.18,1.99.55,2.75s.89,1.35,1.56,1.75,1.47.61,2.39.61c.64,0,1.22-.1,1.73-.29s.93-.46,1.27-.81.59-.73.73-1.17l.04-.13h2.5l-.03.15c-.13.62-.37,1.21-.73,1.76s-.81,1.03-1.37,1.44-1.19.74-1.9.97-1.48.34-2.31.34Z"/><path class="ap" d="M799.39,132.57v-15.23h2.55v2.58h.06c.25-.88.69-1.58,1.32-2.09s1.37-.78,2.23-.78c.22,0,.43.01.61.04s.32.05.42.07v2.48c-.1-.04-.27-.07-.52-.1s-.53-.04-.84-.04c-.65,0-1.23.15-1.72.44s-.87.72-1.14,1.27-.4,1.21-.4,1.98v9.4h-2.55Z"/><path class="ap" d="M812.79,132.86c-1.01,0-1.89-.19-2.65-.57s-1.36-.92-1.78-1.61-.64-1.5-.64-2.42v-.03c0-.87.22-1.62.65-2.26s1.06-1.14,1.89-1.51,1.82-.59,2.98-.66l5.64-.32v1.98l-5.35.32c-1.02.06-1.8.3-2.37.73s-.84,1-.84,1.71v.03c0,.73.28,1.31.83,1.74s1.29.64,2.21.64c.8,0,1.52-.17,2.16-.5s1.15-.8,1.52-1.38.56-1.25.56-1.98v-4.5c0-.93-.29-1.66-.87-2.19s-1.4-.8-2.47-.8c-.98,0-1.77.21-2.37.64s-.97.98-1.12,1.66l-.03.13h-2.46v-.16c.09-.84.38-1.6.87-2.29s1.17-1.23,2.04-1.63,1.9-.61,3.09-.61,2.24.21,3.11.62,1.55.99,2.03,1.74.72,1.63.72,2.64v10.53h-2.55v-2.48h-.06c-.29.56-.68,1.04-1.17,1.46s-1.04.74-1.65.97-1.26.34-1.94.34Z"/><path class="ap" d="M828.35,132.86c-1.4,0-2.44-.33-3.13-1s-1.04-1.72-1.04-3.18v-9.24h-2.23v-2.11h2.23v-4.12h2.64v4.12h2.9v2.11h-2.9v9.23c0,.81.18,1.36.53,1.65s.87.43,1.55.43c.16,0,.3,0,.45-.02s.27-.03.37-.04v2.07c-.16.02-.36.04-.61.07s-.5.04-.75.04Z"/><path class="ap" d="M838.27,132.86c-1.46,0-2.71-.32-3.76-.97s-1.86-1.55-2.42-2.73-.84-2.56-.84-4.15h0c0-1.59.28-2.97.85-4.17s1.36-2.13,2.39-2.8,2.23-1,3.62-1,2.58.32,3.58.96,1.77,1.54,2.31,2.69.81,2.49.81,4.01v.94h-12.28v-1.99h11.02l-1.29,1.85v-.98c0-1.18-.18-2.16-.54-2.93s-.85-1.34-1.47-1.72-1.34-.56-2.15-.56-1.54.2-2.18.59-1.15.98-1.52,1.76-.56,1.73-.56,2.86v.98c0,1.07.18,1.99.55,2.75s.89,1.35,1.56,1.75,1.47.61,2.39.61c.64,0,1.22-.1,1.73-.29s.93-.46,1.27-.81.59-.73.73-1.17l.04-.13h2.5l-.03.15c-.13.62-.37,1.21-.73,1.76s-.81,1.03-1.37,1.44-1.19.74-1.9.97-1.48.34-2.31.34Z"/><path class="ap" d="M857.97,132.86c-1.01,0-1.89-.19-2.65-.57s-1.36-.92-1.78-1.61-.64-1.5-.64-2.42v-.03c0-.87.22-1.62.65-2.26s1.06-1.14,1.89-1.51,1.82-.59,2.98-.66l5.64-.32v1.98l-5.35.32c-1.02.06-1.8.3-2.37.73s-.84,1-.84,1.71v.03c0,.73.28,1.31.83,1.74s1.29.64,2.21.64c.8,0,1.52-.17,2.16-.5s1.15-.8,1.52-1.38.56-1.25.56-1.98v-4.5c0-.93-.29-1.66-.87-2.19s-1.4-.8-2.47-.8c-.98,0-1.77.21-2.37.64s-.97.98-1.12,1.66l-.03.13h-2.46v-.16c.09-.84.38-1.6.87-2.29s1.17-1.23,2.04-1.63,1.9-.61,3.09-.61,2.24.21,3.11.62,1.55.99,2.03,1.74.72,1.63.72,2.64v10.53h-2.55v-2.48h-.06c-.29.56-.68,1.04-1.17,1.46s-1.04.74-1.65.97-1.26.34-1.94.34Z"/><path class="ap" d="M883.53,132.92c-1.75,0-3.25-.33-4.5-.98s-2.22-1.56-2.89-2.73-1.01-2.52-1.01-4.05v-13.73h2.64v13.55c0,1.08.23,2.04.68,2.86s1.11,1.47,1.97,1.94,1.9.7,3.12.7,2.26-.23,3.11-.7,1.51-1.12,1.96-1.94.67-1.78.67-2.86v-13.55h2.64v13.73c0,1.53-.33,2.88-1,4.05s-1.63,2.08-2.88,2.73-2.75.98-4.5.98Z"/><path class="ap" d="M896.01,132.57v-21.14h2.64v21.14h-2.64Z"/><path class="ap" d="M913.46,132.86c-1.4,0-2.44-.33-3.13-1s-1.04-1.72-1.04-3.18v-9.24h-2.23v-2.11h2.23v-4.12h2.64v4.12h2.9v2.11h-2.9v9.23c0,.81.18,1.36.53,1.65s.87.43,1.55.43c.16,0,.3,0,.45-.02s.27-.03.37-.04v2.07c-.16.02-.36.04-.61.07s-.5.04-.75.04Z"/><path class="ap" d="M923.42,132.86c-1.41,0-2.64-.32-3.7-.97s-1.88-1.56-2.48-2.75-.89-2.59-.89-4.2v-.03c0-1.62.29-3.02.89-4.2s1.42-2.08,2.48-2.72,2.29-.96,3.68-.96,2.64.32,3.7.96,1.88,1.55,2.48,2.72.89,2.58.89,4.2v.03c0,1.62-.3,3.02-.89,4.2s-1.41,2.09-2.47,2.74-2.29.97-3.69.97ZM923.43,130.61c.9,0,1.68-.22,2.34-.67s1.17-1.09,1.54-1.93.55-1.86.55-3.05v-.03c0-1.19-.18-2.21-.55-3.05s-.88-1.48-1.55-1.92-1.45-.66-2.35-.66-1.65.22-2.32.67-1.19,1.08-1.56,1.92-.56,1.85-.56,3.04v.03c0,1.19.19,2.21.56,3.05s.89,1.49,1.56,1.93,1.45.67,2.35.67Z"/><path class="ap" d="M943.63,132.86c-1.01,0-1.89-.19-2.65-.57s-1.36-.92-1.78-1.61-.64-1.5-.64-2.42v-.03c0-.87.22-1.62.65-2.26s1.06-1.14,1.89-1.51,1.82-.59,2.98-.66l5.64-.32v1.98l-5.35.32c-1.02.06-1.8.3-2.37.73s-.84,1-.84,1.71v.03c0,.73.28,1.31.83,1.74s1.29.64,2.21.64c.8,0,1.52-.17,2.16-.5s1.15-.8,1.52-1.38.56-1.25.56-1.98v-4.5c0-.93-.29-1.66-.87-2.19s-1.4-.8-2.47-.8c-.98,0-1.77.21-2.37.64s-.97.98-1.12,1.66l-.03.13h-2.46v-.16c.09-.84.38-1.6.87-2.29s1.17-1.23,2.04-1.63,1.9-.61,3.09-.61,2.24.21,3.11.62,1.55.99,2.03,1.74.72,1.63.72,2.64v10.53h-2.55v-2.48h-.06c-.29.56-.68,1.04-1.17,1.46s-1.04.74-1.65.97-1.26.34-1.94.34Z"/><path class="ap" d="M959.97,132.86c-1.3,0-2.43-.32-3.41-.97s-1.73-1.57-2.26-2.75-.81-2.58-.81-4.18h0c0-1.62.27-3.01.81-4.19s1.3-2.1,2.26-2.75,2.08-.97,3.35-.97c.72,0,1.39.12,2.01.34s1.17.56,1.66.98.89.93,1.2,1.52h.06v-8.45h2.55v21.14h-2.55v-2.58h-.06c-.31.6-.71,1.11-1.19,1.53s-1.02.75-1.63.99-1.28.35-2.01.35ZM960.46,130.61c.86,0,1.62-.23,2.29-.7s1.18-1.13,1.56-1.98.56-1.84.56-2.97h0c0-1.15-.19-2.14-.57-2.98s-.9-1.5-1.56-1.97-1.42-.7-2.28-.7-1.67.23-2.33.69-1.16,1.11-1.51,1.95-.53,1.84-.53,3h0c0,1.18.18,2.18.53,3.03s.85,1.5,1.51,1.96,1.43.68,2.33.68Z"/><path class="ap" d="M968.81,137.71h-.24c-.08,0-.16,0-.24-.01v-2.24h.4c.83,0,1.41-.16,1.75-.47s.51-.89.51-1.74v-15.91h2.55v15.88c0,1.54-.38,2.68-1.14,3.41s-1.95,1.09-3.58,1.09ZM972.26,114.76c-.44,0-.82-.16-1.13-.47s-.47-.69-.47-1.13.16-.83.47-1.13.69-.46,1.13-.46.83.15,1.13.46.46.69.46,1.13-.15.82-.46,1.13-.69.47-1.13.47Z"/><path class="ap" d="M982.2,132.86c-1.11,0-2.06-.23-2.85-.69s-1.39-1.11-1.8-1.96-.62-1.84-.62-3v-9.89h2.55v9.43c0,1.24.29,2.19.87,2.85s1.46.99,2.63.99c.61,0,1.15-.1,1.63-.31s.9-.5,1.25-.87.62-.83.81-1.36.28-1.12.28-1.77v-8.96h2.55v15.23h-2.55v-2.17h-.06c-.27.47-.63.89-1.06,1.26s-.95.66-1.56.88-1.29.32-2.07.32Z"/><path class="ap" d="M998.21,132.86c-1.19,0-2.22-.19-3.09-.57s-1.56-.91-2.06-1.6-.81-1.48-.92-2.39v-.13s2.53,0,2.53,0l.03.15c.16.76.52,1.36,1.1,1.78s1.38.64,2.42.64c.69,0,1.28-.09,1.77-.27s.86-.44,1.13-.78.4-.74.4-1.19h0c0-.56-.17-1-.5-1.33s-.93-.61-1.8-.82l-2.42-.59c-.96-.23-1.75-.54-2.38-.92s-1.1-.84-1.41-1.38-.47-1.19-.47-1.92h0c0-.89.24-1.67.71-2.34s1.13-1.2,1.98-1.58,1.81-.57,2.91-.57,2.08.2,2.91.59,1.47.93,1.95,1.61.74,1.44.8,2.29v.19s-2.42,0-2.42,0v-.1c-.11-.74-.44-1.34-.99-1.79s-1.3-.67-2.25-.67c-.62,0-1.15.09-1.6.28s-.79.45-1.03.78-.36.73-.36,1.18h0c0,.36.08.67.24.95s.42.52.77.72.81.38,1.36.51l2.42.59c1.54.37,2.63.88,3.25,1.53s.94,1.52.94,2.6h0c0,.9-.26,1.69-.77,2.37s-1.22,1.22-2.11,1.6-1.91.58-3.04.58Z"/><path class="ap" d="M1011.72,132.86c-1.4,0-2.44-.33-3.13-1s-1.04-1.72-1.04-3.18v-9.24h-2.23v-2.11h2.23v-4.12h2.64v4.12h2.9v2.11h-2.9v9.23c0,.81.18,1.36.53,1.65s.87.43,1.55.43c.16,0,.3,0,.45-.02s.27-.03.37-.04v2.07c-.16.02-.36.04-.61.07s-.5.04-.75.04Z"/><path class="ap" d="M1026.91,132.86c-1.4,0-2.44-.33-3.13-1s-1.04-1.72-1.04-3.18v-9.24h-2.23v-2.11h2.23v-4.12h2.64v4.12h2.9v2.11h-2.9v9.23c0,.81.18,1.36.53,1.65s.87.43,1.55.43c.16,0,.3,0,.45-.02s.27-.03.37-.04v2.07c-.16.02-.36.04-.61.07s-.5.04-.75.04Z"/><path class="ap" d="M1031.13,132.57v-21.14h2.55v8.33h.06c.41-.86,1.02-1.53,1.83-2.01s1.78-.72,2.92-.72,2.03.26,2.85.78,1.45,1.25,1.91,2.17.69,2.01.69,3.24v9.33h-2.55v-8.89c0-1.38-.33-2.45-1-3.22s-1.59-1.16-2.78-1.16c-.78,0-1.47.19-2.06.56s-1.05.88-1.38,1.54-.49,1.42-.49,2.29v8.89h-2.55Z"/><path class="ap" d="M1053.44,132.86c-1.46,0-2.71-.32-3.76-.97s-1.86-1.55-2.42-2.73-.84-2.56-.84-4.15h0c0-1.59.28-2.97.85-4.17s1.36-2.13,2.39-2.8,2.23-1,3.62-1,2.58.32,3.58.96,1.77,1.54,2.31,2.69.81,2.49.81,4.01v.94h-12.28v-1.99h11.02l-1.29,1.85v-.98c0-1.18-.18-2.16-.54-2.93s-.85-1.34-1.47-1.72-1.34-.56-2.15-.56-1.54.2-2.18.59-1.15.98-1.52,1.76-.56,1.73-.56,2.86v.98c0,1.07.18,1.99.55,2.75s.89,1.35,1.56,1.75,1.47.61,2.39.61c.64,0,1.22-.1,1.73-.29s.93-.46,1.27-.81.59-.73.73-1.17l.04-.13h2.5l-.03.15c-.13.62-.37,1.21-.73,1.76s-.81,1.03-1.37,1.44-1.19.74-1.9.97-1.48.34-2.31.34Z"/><path class="ap" d="M736.61,168.86c-1.4,0-2.44-.33-3.13-1s-1.04-1.72-1.04-3.18v-9.24h-2.23v-2.11h2.23v-4.12h2.64v4.12h2.9v2.11h-2.9v9.23c0,.81.18,1.36.53,1.65s.87.43,1.55.43c.16,0,.3,0,.45-.02s.27-.03.37-.04v2.07c-.16.02-.36.04-.61.07s-.5.04-.75.04Z"/><path class="ap" d="M746.57,168.86c-1.41,0-2.64-.32-3.7-.97s-1.88-1.56-2.48-2.75-.89-2.59-.89-4.2v-.03c0-1.62.29-3.02.89-4.2s1.42-2.08,2.48-2.72,2.29-.96,3.68-.96,2.64.32,3.7.96,1.88,1.55,2.48,2.72.89,2.58.89,4.2v.03c0,1.62-.3,3.02-.89,4.2s-1.41,2.09-2.47,2.74-2.29.97-3.69.97ZM746.58,166.61c.9,0,1.68-.22,2.34-.67s1.17-1.09,1.54-1.93.55-1.86.55-3.05v-.03c0-1.19-.18-2.21-.55-3.05s-.88-1.48-1.55-1.92-1.45-.66-2.35-.66-1.65.22-2.32.67-1.19,1.08-1.56,1.92-.56,1.85-.56,3.04v.03c0,1.19.19,2.21.56,3.05s.89,1.49,1.56,1.93,1.45.67,2.35.67Z"/><path class="ap" d="M756.18,168.57v-15.23h2.55v2.17h.06c.41-.71,1.01-1.3,1.79-1.76s1.75-.7,2.9-.7c1.67,0,2.97.51,3.89,1.52s1.38,2.38,1.38,4.12v9.89h-2.55v-9.43c0-1.24-.29-2.19-.87-2.85s-1.46-.99-2.63-.99c-.8,0-1.5.18-2.09.54s-1.06.86-1.38,1.5-.49,1.4-.49,2.27v8.96h-2.55Z"/><path class="ap" d="M778.25,168.86c-1.46,0-2.71-.32-3.76-.97s-1.86-1.55-2.42-2.73-.84-2.56-.84-4.15h0c0-1.59.28-2.97.85-4.17s1.36-2.13,2.39-2.8,2.23-1,3.62-1,2.58.32,3.58.96,1.77,1.54,2.31,2.69.81,2.49.81,4.01v.94h-12.28v-1.99h11.02l-1.29,1.85v-.98c0-1.18-.18-2.16-.54-2.93s-.85-1.34-1.47-1.72-1.34-.56-2.15-.56-1.54.2-2.18.59-1.15.98-1.52,1.76-.56,1.73-.56,2.86v.98c0,1.07.18,1.99.55,2.75s.89,1.35,1.56,1.75,1.47.61,2.39.61c.64,0,1.22-.1,1.73-.29s.93-.46,1.27-.81.59-.73.73-1.17l.04-.13h2.5l-.03.15c-.13.62-.37,1.21-.73,1.76s-.81,1.03-1.37,1.44-1.19.74-1.9.97-1.48.34-2.31.34Z"/><path class="ap" d="M799.81,168.86c-1.44,0-2.68-.32-3.74-.97s-1.88-1.57-2.45-2.75-.86-2.59-.86-4.2h0c0-1.62.29-3.01.88-4.19s1.41-2.09,2.46-2.74,2.29-.97,3.69-.97c1.27,0,2.36.25,3.27.74s1.62,1.13,2.15,1.91.84,1.61.95,2.48v.12s-2.48,0-2.48,0l-.03-.12c-.19-.76-.59-1.43-1.22-2.01s-1.51-.86-2.63-.86c-.88,0-1.65.23-2.31.7s-1.18,1.12-1.55,1.96-.56,1.84-.56,3h0c0,1.2.19,2.21.56,3.05s.9,1.48,1.57,1.93,1.44.67,2.32.67c1.04,0,1.89-.27,2.54-.8s1.08-1.22,1.3-2.07l.03-.12h2.5v.1c-.15.97-.51,1.84-1.08,2.62s-1.31,1.39-2.21,1.85-1.93.68-3.08.68Z"/><path class="ap" d="M814.84,168.86c-1.41,0-2.64-.32-3.7-.97s-1.88-1.56-2.48-2.75-.89-2.59-.89-4.2v-.03c0-1.62.29-3.02.89-4.2s1.42-2.08,2.48-2.72,2.29-.96,3.68-.96,2.64.32,3.7.96,1.88,1.55,2.48,2.72.89,2.58.89,4.2v.03c0,1.62-.3,3.02-.89,4.2s-1.41,2.09-2.47,2.74-2.29.97-3.69.97ZM814.86,166.61c.9,0,1.68-.22,2.34-.67s1.17-1.09,1.54-1.93.55-1.86.55-3.05v-.03c0-1.19-.18-2.21-.55-3.05s-.88-1.48-1.55-1.92-1.45-.66-2.35-.66-1.65.22-2.32.67-1.19,1.08-1.56,1.92-.56,1.85-.56,3.04v.03c0,1.19.19,2.21.56,3.05s.89,1.49,1.56,1.93,1.45.67,2.35.67Z"/><path class="ap" d="M824.45,168.57v-15.23h2.55v2.17h.06c.41-.71,1.01-1.3,1.79-1.76s1.75-.7,2.9-.7c1.67,0,2.97.51,3.89,1.52s1.38,2.38,1.38,4.12v9.89h-2.55v-9.43c0-1.24-.29-2.19-.87-2.85s-1.46-.99-2.63-.99c-.8,0-1.5.18-2.09.54s-1.06.86-1.38,1.5-.49,1.4-.49,2.27v8.96h-2.55Z"/><path class="ap" d="M845.21,168.86c-1.4,0-2.44-.33-3.13-1s-1.04-1.72-1.04-3.18v-9.24h-2.23v-2.11h2.23v-4.12h2.64v4.12h2.9v2.11h-2.9v9.23c0,.81.18,1.36.53,1.65s.87.43,1.55.43c.16,0,.3,0,.45-.02s.27-.03.37-.04v2.07c-.16.02-.36.04-.61.07s-.5.04-.75.04Z"/><path class="ap" d="M855.13,168.86c-1.46,0-2.71-.32-3.76-.97s-1.86-1.55-2.42-2.73-.84-2.56-.84-4.15h0c0-1.59.28-2.97.85-4.17s1.36-2.13,2.39-2.8,2.23-1,3.62-1,2.58.32,3.58.96,1.77,1.54,2.31,2.69.81,2.49.81,4.01v.94h-12.28v-1.99h11.02l-1.29,1.85v-.98c0-1.18-.18-2.16-.54-2.93s-.85-1.34-1.47-1.72-1.34-.56-2.15-.56-1.54.2-2.18.59-1.15.98-1.52,1.76-.56,1.73-.56,2.86v.98c0,1.07.18,1.99.55,2.75s.89,1.35,1.56,1.75,1.47.61,2.39.61c.64,0,1.22-.1,1.73-.29s.93-.46,1.27-.81.59-.73.73-1.17l.04-.13h2.5l-.03.15c-.13.62-.37,1.21-.73,1.76s-.81,1.03-1.37,1.44-1.19.74-1.9.97-1.48.34-2.31.34Z"/><path class="ap" d="M862.74,168.57l5.19-7.62-5.1-7.62h2.84l3.66,5.71h.06l3.62-5.71h2.84l-5.14,7.51,5.07,7.72h-2.83l-3.65-5.8h-.06l-3.68,5.8h-2.83Z"/><path class="ap" d="M882.93,168.86c-1.4,0-2.44-.33-3.13-1s-1.04-1.72-1.04-3.18v-9.24h-2.23v-2.11h2.23v-4.12h2.64v4.12h2.9v2.11h-2.9v9.23c0,.81.18,1.36.53,1.65s.87.43,1.55.43c.16,0,.3,0,.45-.02s.27-.03.37-.04v2.07c-.16.02-.36.04-.61.07s-.5.04-.75.04Z"/><path class="ar" d="M710.16,584.77h-4.17v-1.43h5.78v3.63c0,3.01-2.36,5.14-5.66,5.14-3.89,0-6.14-2.71-6.14-7.41v-2.8c0-4.7,2.25-7.41,6.14-7.41,3.43,0,5.59,2.1,5.67,5.52h-1.61c-.09-2.4-1.73-4.03-4.07-4.03-2.98,0-4.54,2.04-4.54,5.92v2.8c0,3.88,1.56,5.92,4.54,5.92,2.5,0,4.05-1.49,4.05-3.88v-1.98Z"/><path class="ar" d="M715.84,591.76v-1.24h4.44v-10.14h-4.46v-1.24h6v11.38h4.32v1.24h-10.3ZM719.42,574.35c0-.8.66-1.45,1.45-1.45s1.45.66,1.45,1.45-.66,1.45-1.45,1.45-1.45-.66-1.45-1.45Z"/><path class="ar" d="M730.69,590.59l7.73-10.01v-.14h-7.72v-1.3h9.56v1.18l-7.71,10v.14h7.72v1.3h-9.59v-1.17Z"/><path class="ar" d="M756.29,591.76h-1.44v-8.71c0-1.82-.61-2.74-1.79-2.74-1.24,0-1.99,1.12-1.99,3v8.45h-1.44v-8.72c0-1.8-.61-2.73-1.8-2.73-1.27,0-2.04,1.14-2.04,3v8.45h-1.44v-12.62h1.39v1.69h.16c.33-1.17,1.25-1.9,2.41-1.9s2.06.7,2.33,1.9h.16c.34-1.15,1.41-1.9,2.71-1.9,1.84,0,2.78,1.28,2.78,3.77v9.06Z"/><path class="ar" d="M759.81,586.4v-1.88c0-3.4,2.09-5.58,5.34-5.58s5.34,2.18,5.34,5.58v1.88c0,3.4-2.09,5.58-5.34,5.58s-5.34-2.18-5.34-5.58ZM761.34,584.72v1.48c0,2.73,1.46,4.41,3.81,4.41s3.81-1.68,3.81-4.41v-1.48c0-2.73-1.46-4.41-3.81-4.41s-3.81,1.68-3.81,4.41Z"/><path class="ar" d="M784.02,573.6h1.5c-2.38,3.22-3.41,6.15-3.41,9.7s1.03,6.48,3.41,9.7h-1.5c-2.26-2.6-3.42-5.89-3.42-9.7s1.16-7.1,3.42-9.7Z"/><path class="ar" d="M792.71,579.14h1.46v2.27h.15c.69-1.59,2.17-2.48,4.12-2.48,2.75,0,4.24,1.63,4.24,4.63v8.2h-1.54v-7.82c0-2.47-1-3.63-3.12-3.63-2.26,0-3.8,1.61-3.8,3.95v7.5h-1.54v-12.62Z"/><path class="ar" d="M817.73,588.65c-.42,2.02-2.34,3.33-4.89,3.33-3.4,0-5.37-2.1-5.37-5.7v-1.84c0-3.33,2.06-5.51,5.19-5.51s5.12,2.16,5.12,5.93v1h-8.78v.43c0,2.64,1.49,4.31,3.83,4.31,1.72,0,2.98-.73,3.36-1.96h1.52ZM809.01,584.59h7.22c0-2.68-1.34-4.3-3.56-4.3s-3.66,1.61-3.66,4.3Z"/><path class="ar" d="M831.34,591.76h-1.58l-2.3-10.48h-.15l-2.31,10.48h-1.58l-2.79-12.62h1.52l2,10.71h.14l2.3-10.71h1.57l2.3,10.71h.14l2-10.71h1.52l-2.79,12.62Z"/><path class="ar" d="M863.02,591.76h-1.44v-8.71c0-1.82-.61-2.74-1.79-2.74-1.24,0-1.99,1.12-1.99,3v8.45h-1.44v-8.72c0-1.8-.61-2.73-1.8-2.73-1.27,0-2.04,1.14-2.04,3v8.45h-1.44v-12.62h1.39v1.69h.16c.33-1.17,1.25-1.9,2.41-1.9s2.06.7,2.33,1.9h.16c.34-1.15,1.41-1.9,2.71-1.9,1.84,0,2.78,1.28,2.78,3.77v9.06Z"/><path class="ar" d="M866.54,586.4v-1.88c0-3.4,2.09-5.58,5.34-5.58s5.34,2.18,5.34,5.58v1.88c0,3.4-2.09,5.58-5.34,5.58s-5.34-2.18-5.34-5.58ZM868.07,584.72v1.48c0,2.73,1.46,4.41,3.81,4.41s3.81-1.68,3.81-4.41v-1.48c0-2.73-1.46-4.41-3.81-4.41s-3.81,1.68-3.81,4.41Z"/><path class="ar" d="M891.71,591.76h-1.46v-2.27h-.15c-.69,1.59-2.17,2.48-4.12,2.48-2.75,0-4.24-1.63-4.24-4.63v-8.2h1.54v7.82c0,2.47,1,3.63,3.12,3.63,2.26,0,3.8-1.61,3.8-3.95v-7.5h1.54v12.62Z"/><path class="ar" d="M901.62,578.93c2.47,0,4.22,1.28,4.49,3.27h-1.51c-.27-1.23-1.42-1.99-3.02-1.99-1.76,0-2.88.84-2.88,2.16,0,1.1.69,1.71,2.41,2.11l1.71.4c2.43.57,3.53,1.64,3.53,3.42,0,2.23-1.89,3.68-4.76,3.68s-4.59-1.3-4.83-3.38h1.59c.33,1.3,1.55,2.06,3.3,2.06,1.89,0,3.09-.89,3.09-2.27,0-1.15-.67-1.76-2.39-2.17l-1.86-.45c-2.25-.53-3.35-1.63-3.35-3.35,0-2.07,1.82-3.49,4.48-3.49Z"/><path class="ar" d="M921.58,588.65c-.42,2.02-2.34,3.33-4.89,3.33-3.4,0-5.37-2.1-5.37-5.7v-1.84c0-3.33,2.06-5.51,5.19-5.51s5.12,2.16,5.12,5.93v1h-8.78v.43c0,2.64,1.49,4.31,3.83,4.31,1.72,0,2.98-.73,3.36-1.96h1.52ZM912.86,584.59h7.22c0-2.68-1.34-4.3-3.56-4.3s-3.66,1.61-3.66,4.3Z"/><path class="ar" d="M930.08,593.01h-1.5c2.38-3.22,3.41-6.15,3.41-9.7s-1.03-6.48-3.41-9.7h1.5c2.26,2.6,3.42,5.89,3.42,9.7s-1.16,7.1-3.42,9.7Z"/><line class="t" x1="764.57" y1="557.39" x2="807.3" y2="477.55"/><polygon class="ar" points="814.72 484.82 814.07 464.89 797.13 475.41 814.72 484.82"/><rect x="80" y="80" width="480" height="500"/><line class="l" x1="560" y1="580" x2="560" y2="80"/><line class="l" x1="80" y1="580" x2="80" y2="80"/><rect class="ai" x="140" y="80" width="400" height="120" rx="30" ry="30"/><path class="ap" d="M172.05,130.14v-21.14h2.64v21.14h-2.64Z"/><path class="ap" d="M178.39,130.14v-15.23h2.55v2.17h.06c.41-.71,1.01-1.3,1.79-1.77s1.75-.7,2.9-.7c1.67,0,2.97.5,3.89,1.52s1.38,2.39,1.38,4.12v9.89h-2.55v-9.43c0-1.24-.29-2.19-.87-2.85s-1.46-.99-2.63-.99c-.8,0-1.5.18-2.09.53s-1.06.86-1.38,1.5-.49,1.4-.49,2.27v8.96h-2.55Z"/><path class="ap" d="M199.15,130.43c-1.4,0-2.44-.33-3.13-1s-1.04-1.72-1.04-3.18v-9.24h-2.23v-2.11h2.23v-4.12h2.64v4.12h2.9v2.11h-2.9v9.23c0,.81.18,1.36.53,1.65s.87.43,1.55.43c.16,0,.3,0,.45-.02s.27-.03.37-.04v2.07c-.16.02-.36.04-.61.07s-.5.04-.75.04Z"/><path class="ap" d="M209.07,130.43c-1.46,0-2.71-.32-3.76-.97s-1.86-1.56-2.42-2.73-.84-2.56-.84-4.15h0c0-1.59.28-2.97.85-4.17s1.36-2.13,2.39-2.8,2.23-1,3.62-1,2.58.32,3.58.96,1.77,1.54,2.31,2.69.81,2.49.81,4.01v.94h-12.28v-1.99h11.02l-1.29,1.85v-.98c0-1.18-.18-2.16-.54-2.93s-.85-1.35-1.47-1.72-1.34-.56-2.15-.56-1.54.2-2.18.59-1.15.98-1.52,1.76-.56,1.73-.56,2.86v.98c0,1.07.18,1.99.55,2.75s.89,1.34,1.56,1.75,1.47.61,2.39.61c.64,0,1.22-.1,1.73-.29s.93-.46,1.27-.81.59-.73.73-1.17l.04-.13h2.5l-.03.15c-.13.62-.37,1.21-.73,1.76s-.81,1.03-1.37,1.44-1.19.74-1.9.97-1.48.34-2.31.34Z"/><path class="ap" d="M218.16,130.14v-15.23h2.55v2.58h.06c.25-.88.69-1.58,1.32-2.09s1.37-.78,2.23-.78c.22,0,.43.01.61.04s.32.05.42.07v2.48c-.1-.04-.27-.07-.52-.1s-.53-.04-.84-.04c-.65,0-1.23.15-1.72.44s-.87.71-1.14,1.27-.4,1.21-.4,1.99v9.4h-2.55Z"/><path class="ap" d="M231.57,130.43c-1.01,0-1.89-.19-2.65-.57s-1.36-.92-1.78-1.61-.64-1.5-.64-2.42v-.03c0-.87.22-1.62.65-2.26s1.06-1.14,1.89-1.51,1.82-.59,2.98-.66l5.64-.32v1.98l-5.35.32c-1.02.06-1.8.3-2.37.73s-.84,1-.84,1.71v.03c0,.73.28,1.31.83,1.74s1.29.64,2.21.64c.8,0,1.52-.17,2.16-.51s1.15-.8,1.52-1.38.56-1.25.56-1.98v-4.5c0-.93-.29-1.66-.87-2.19s-1.4-.8-2.47-.8c-.98,0-1.77.21-2.37.64s-.97.98-1.12,1.66l-.03.13h-2.46v-.16c.09-.84.38-1.6.87-2.29s1.17-1.23,2.04-1.63,1.9-.61,3.09-.61,2.24.21,3.11.62,1.55.99,2.03,1.74.72,1.63.72,2.64v10.53h-2.55v-2.48h-.06c-.29.56-.68,1.04-1.17,1.46s-1.04.74-1.65.97-1.26.34-1.94.34Z"/><path class="ap" d="M248.49,130.43c-1.44,0-2.68-.33-3.74-.97s-1.88-1.57-2.45-2.75-.86-2.58-.86-4.2h0c0-1.62.29-3.01.88-4.19s1.41-2.09,2.46-2.74,2.29-.97,3.69-.97c1.27,0,2.36.25,3.27.74s1.62,1.13,2.15,1.91.84,1.61.95,2.48v.12s-2.48,0-2.48,0l-.03-.12c-.19-.76-.59-1.43-1.22-2.01s-1.51-.86-2.63-.86c-.88,0-1.65.23-2.31.7s-1.18,1.12-1.55,1.96-.56,1.84-.56,3h0c0,1.2.19,2.21.56,3.05s.9,1.48,1.57,1.93,1.44.67,2.32.67c1.04,0,1.89-.27,2.54-.8s1.08-1.22,1.3-2.07l.03-.12h2.5v.1c-.15.97-.51,1.84-1.08,2.61s-1.31,1.39-2.21,1.85-1.93.68-3.08.68Z"/><path class="ap" d="M262.15,130.43c-1.4,0-2.44-.33-3.13-1s-1.04-1.72-1.04-3.18v-9.24h-2.23v-2.11h2.23v-4.12h2.64v4.12h2.9v2.11h-2.9v9.23c0,.81.18,1.36.53,1.65s.87.43,1.55.43c.16,0,.3,0,.45-.02s.27-.03.37-.04v2.07c-.16.02-.36.04-.61.07s-.5.04-.75.04Z"/><path class="ap" d="M267.68,112.33c-.44,0-.82-.16-1.13-.47s-.47-.69-.47-1.13.16-.83.47-1.14.69-.46,1.13-.46.83.15,1.13.46.46.69.46,1.14-.15.82-.46,1.13-.69.47-1.13.47ZM266.4,130.14v-15.23h2.55v15.23h-2.55Z"/><path class="ap" d="M276.71,130.14l-5.61-15.23h2.68l4.2,12.52h.06l4.22-12.52h2.65l-5.6,15.23h-2.61Z"/><path class="ap" d="M292.59,130.43c-1.46,0-2.71-.32-3.76-.97s-1.86-1.56-2.42-2.73-.84-2.56-.84-4.15h0c0-1.59.28-2.97.85-4.17s1.36-2.13,2.39-2.8,2.23-1,3.62-1,2.58.32,3.58.96,1.77,1.54,2.31,2.69.81,2.49.81,4.01v.94h-12.28v-1.99h11.02l-1.29,1.85v-.98c0-1.18-.18-2.16-.54-2.93s-.85-1.35-1.47-1.72-1.34-.56-2.15-.56-1.54.2-2.18.59-1.15.98-1.52,1.76-.56,1.73-.56,2.86v.98c0,1.07.18,1.99.55,2.75s.89,1.34,1.56,1.75,1.47.61,2.39.61c.64,0,1.22-.1,1.73-.29s.93-.46,1.27-.81.59-.73.73-1.17l.04-.13h2.5l-.03.15c-.13.62-.37,1.21-.73,1.76s-.81,1.03-1.37,1.44-1.19.74-1.9.97-1.48.34-2.31.34Z"/><path class="ap" d="M312.79,130.43c-1.4,0-2.44-.33-3.13-1s-1.04-1.72-1.04-3.18v-9.24h-2.23v-2.11h2.23v-4.12h2.64v4.12h2.9v2.11h-2.9v9.23c0,.81.18,1.36.53,1.65s.87.43,1.55.43c.16,0,.3,0,.45-.02s.27-.03.37-.04v2.07c-.16.02-.36.04-.61.07s-.5.04-.75.04Z"/><path class="ap" d="M322.75,130.43c-1.41,0-2.64-.32-3.7-.97s-1.88-1.56-2.48-2.75-.89-2.58-.89-4.2v-.03c0-1.62.29-3.02.89-4.2s1.42-2.08,2.48-2.72,2.29-.96,3.68-.96,2.64.32,3.7.96,1.88,1.55,2.48,2.72.89,2.58.89,4.2v.03c0,1.62-.3,3.02-.89,4.2s-1.41,2.09-2.47,2.74-2.29.97-3.69.97ZM322.77,128.17c.9,0,1.68-.22,2.34-.67s1.17-1.09,1.54-1.93.55-1.86.55-3.05v-.03c0-1.19-.18-2.21-.55-3.05s-.88-1.48-1.55-1.92-1.45-.66-2.35-.66-1.65.22-2.32.67-1.19,1.08-1.56,1.92-.56,1.85-.56,3.04v.03c0,1.19.19,2.21.56,3.05s.89,1.49,1.56,1.93,1.45.67,2.35.67Z"/><path class="ap" d="M332.36,130.14v-15.23h2.55v2.17h.06c.41-.71,1.01-1.3,1.79-1.77s1.75-.7,2.9-.7c1.67,0,2.97.5,3.89,1.52s1.38,2.39,1.38,4.12v9.89h-2.55v-9.43c0-1.24-.29-2.19-.87-2.85s-1.46-.99-2.63-.99c-.8,0-1.5.18-2.09.53s-1.06.86-1.38,1.5-.49,1.4-.49,2.27v8.96h-2.55Z"/><path class="ap" d="M354.44,130.43c-1.46,0-2.71-.32-3.76-.97s-1.86-1.56-2.42-2.73-.84-2.56-.84-4.15h0c0-1.59.28-2.97.85-4.17s1.36-2.13,2.39-2.8,2.23-1,3.62-1,2.58.32,3.58.96,1.77,1.54,2.31,2.69.81,2.49.81,4.01v.94h-12.28v-1.99h11.02l-1.29,1.85v-.98c0-1.18-.18-2.16-.54-2.93s-.85-1.35-1.47-1.72-1.34-.56-2.15-.56-1.54.2-2.18.59-1.15.98-1.52,1.76-.56,1.73-.56,2.86v.98c0,1.07.18,1.99.55,2.75s.89,1.34,1.56,1.75,1.47.61,2.39.61c.64,0,1.22-.1,1.73-.29s.93-.46,1.27-.81.59-.73.73-1.17l.04-.13h2.5l-.03.15c-.13.62-.37,1.21-.73,1.76s-.81,1.03-1.37,1.44-1.19.74-1.9.97-1.48.34-2.31.34Z"/><path class="ap" d="M369.69,130.14v-15.23h2.55v2.23h.06c.34-.75.88-1.36,1.61-1.82s1.59-.7,2.56-.7c.69,0,1.32.11,1.88.34s1.05.56,1.46,1,.72.96.94,1.59h.06c.28-.62.66-1.14,1.13-1.58s1.02-.77,1.64-1,1.29-.35,2-.35c1.01,0,1.88.21,2.62.62s1.32,1,1.73,1.74.62,1.63.62,2.64v10.52h-2.55v-9.93c0-.7-.12-1.3-.37-1.8s-.61-.88-1.08-1.14-1.04-.4-1.71-.4-1.27.15-1.79.46-.92.73-1.22,1.27-.44,1.16-.44,1.85v9.68h-2.55v-10.21c0-.62-.13-1.15-.39-1.61s-.62-.82-1.08-1.07-1.01-.38-1.65-.38c-.67,0-1.27.16-1.79.49s-.93.77-1.24,1.33-.45,1.19-.45,1.9v9.55h-2.55Z"/><path class="ap" d="M398.24,130.43c-1.01,0-1.89-.19-2.65-.57s-1.36-.92-1.78-1.61-.64-1.5-.64-2.42v-.03c0-.87.22-1.62.65-2.26s1.06-1.14,1.89-1.51,1.82-.59,2.98-.66l5.64-.32v1.98l-5.35.32c-1.02.06-1.8.3-2.37.73s-.84,1-.84,1.71v.03c0,.73.28,1.31.83,1.74s1.29.64,2.21.64c.8,0,1.52-.17,2.16-.51s1.15-.8,1.52-1.38.56-1.25.56-1.98v-4.5c0-.93-.29-1.66-.87-2.19s-1.4-.8-2.47-.8c-.98,0-1.77.21-2.37.64s-.97.98-1.12,1.66l-.03.13h-2.46v-.16c.09-.84.38-1.6.87-2.29s1.17-1.23,2.04-1.63,1.9-.61,3.09-.61,2.24.21,3.11.62,1.55.99,2.03,1.74.72,1.63.72,2.64v10.53h-2.55v-2.48h-.06c-.29.56-.68,1.04-1.17,1.46s-1.04.74-1.65.97-1.26.34-1.94.34Z"/><path class="ap" d="M408.84,135.26v-20.36h2.55v2.58h.06c.32-.6.72-1.11,1.19-1.53s1.02-.75,1.63-.99,1.28-.35,2.01-.35c1.3,0,2.43.32,3.41.97s1.73,1.57,2.26,2.75.81,2.58.81,4.18h0c0,1.62-.27,3.01-.81,4.19s-1.29,2.1-2.26,2.75-2.08.97-3.36.97c-.71,0-1.38-.12-2.01-.34s-1.18-.56-1.66-.98-.89-.93-1.21-1.52h-.06v7.68h-2.55ZM415.79,128.17c.9,0,1.67-.23,2.33-.69s1.16-1.11,1.51-1.96.53-1.84.53-3h0c0-1.19-.18-2.2-.53-3.04s-.85-1.49-1.51-1.95-1.43-.68-2.33-.68-1.62.23-2.29.7-1.18,1.12-1.56,1.97-.56,1.84-.56,2.98h0c0,1.15.19,2.14.57,2.98s.9,1.5,1.56,1.97,1.42.7,2.28.7Z"/><path class="ap" d="M439.05,130.43c-.72,0-1.39-.12-2.01-.35s-1.16-.56-1.63-.99-.87-.93-1.19-1.53h-.06v2.58h-2.55v-21.14h2.55v8.45h.06c.32-.59.72-1.09,1.21-1.52s1.04-.75,1.66-.98,1.29-.34,2.01-.34c1.28,0,2.4.32,3.36.97s1.71,1.57,2.26,2.75.81,2.57.81,4.17h0c0,1.62-.27,3.01-.81,4.2s-1.29,2.1-2.26,2.75-2.11.97-3.41.97ZM438.55,128.17c.9,0,1.67-.23,2.33-.68s1.16-1.11,1.51-1.96.53-1.86.53-3.02h0c0-1.18-.18-2.18-.53-3.02s-.85-1.49-1.51-1.95-1.43-.69-2.33-.69-1.62.23-2.28.7-1.18,1.12-1.56,1.97-.57,1.83-.57,2.97h0c0,1.15.19,2.14.56,2.99s.9,1.51,1.56,1.98,1.43.7,2.29.7Z"/><path class="ap" d="M452.54,130.43c-1.01,0-1.89-.19-2.65-.57s-1.36-.92-1.78-1.61-.64-1.5-.64-2.42v-.03c0-.87.22-1.62.65-2.26s1.06-1.14,1.89-1.51,1.82-.59,2.98-.66l5.64-.32v1.98l-5.35.32c-1.02.06-1.8.3-2.37.73s-.84,1-.84,1.71v.03c0,.73.28,1.31.83,1.74s1.29.64,2.21.64c.8,0,1.52-.17,2.16-.51s1.15-.8,1.52-1.38.56-1.25.56-1.98v-4.5c0-.93-.29-1.66-.87-2.19s-1.4-.8-2.47-.8c-.98,0-1.77.21-2.37.64s-.97.98-1.12,1.66l-.03.13h-2.46v-.16c.09-.84.38-1.6.87-2.29s1.17-1.23,2.04-1.63,1.9-.61,3.09-.61,2.24.21,3.11.62,1.55.99,2.03,1.74.72,1.63.72,2.64v10.53h-2.55v-2.48h-.06c-.29.56-.68,1.04-1.17,1.46s-1.04.74-1.65.97-1.26.34-1.94.34Z"/><path class="ap" d="M468.55,130.43c-1.19,0-2.22-.19-3.09-.57s-1.56-.91-2.06-1.6-.81-1.48-.92-2.39v-.13s2.53,0,2.53,0l.03.15c.16.76.52,1.35,1.1,1.78s1.38.64,2.42.64c.69,0,1.28-.09,1.77-.27s.86-.44,1.13-.78.4-.73.4-1.19h0c0-.56-.17-1-.5-1.33s-.93-.61-1.8-.82l-2.42-.59c-.96-.23-1.75-.54-2.38-.92s-1.1-.84-1.41-1.38-.47-1.19-.47-1.92h0c0-.89.24-1.67.71-2.34s1.13-1.2,1.98-1.58,1.81-.57,2.91-.57,2.08.2,2.91.59,1.47.93,1.95,1.61.74,1.44.8,2.29v.19s-2.42,0-2.42,0v-.1c-.11-.74-.44-1.34-.99-1.79s-1.3-.67-2.25-.67c-.62,0-1.15.09-1.6.28s-.79.45-1.03.78-.36.73-.36,1.18h0c0,.36.08.67.24.94s.42.52.77.73.81.38,1.36.51l2.42.59c1.54.37,2.63.88,3.25,1.53s.94,1.52.94,2.6h0c0,.9-.26,1.69-.77,2.37s-1.22,1.22-2.11,1.6-1.91.58-3.04.58Z"/><path class="ap" d="M483.37,130.43c-1.46,0-2.71-.32-3.76-.97s-1.86-1.56-2.42-2.73-.84-2.56-.84-4.15h0c0-1.59.28-2.97.85-4.17s1.36-2.13,2.39-2.8,2.23-1,3.62-1,2.58.32,3.58.96,1.77,1.54,2.31,2.69.81,2.49.81,4.01v.94h-12.28v-1.99h11.02l-1.29,1.85v-.98c0-1.18-.18-2.16-.54-2.93s-.85-1.35-1.47-1.72-1.34-.56-2.15-.56-1.54.2-2.18.59-1.15.98-1.52,1.76-.56,1.73-.56,2.86v.98c0,1.07.18,1.99.55,2.75s.89,1.34,1.56,1.75,1.47.61,2.39.61c.64,0,1.22-.1,1.73-.29s.93-.46,1.27-.81.59-.73.73-1.17l.04-.13h2.5l-.03.15c-.13.62-.37,1.21-.73,1.76s-.81,1.03-1.37,1.44-1.19.74-1.9.97-1.48.34-2.31.34Z"/><path class="ap" d="M498.2,130.43c-1.3,0-2.43-.33-3.41-.97s-1.73-1.57-2.26-2.75-.81-2.58-.81-4.18h0c0-1.62.27-3.01.81-4.19s1.3-2.1,2.26-2.75,2.08-.97,3.35-.97c.72,0,1.39.11,2.01.34s1.17.56,1.66.98.89.93,1.2,1.52h.06v-8.45h2.55v21.14h-2.55v-2.58h-.06c-.31.6-.71,1.11-1.19,1.53s-1.02.75-1.63.99-1.28.35-2.01.35ZM498.7,128.17c.86,0,1.62-.23,2.29-.7s1.18-1.13,1.56-1.98.56-1.84.56-2.97h0c0-1.15-.19-2.14-.57-2.98s-.9-1.5-1.56-1.97-1.42-.7-2.28-.7-1.67.23-2.33.69-1.16,1.11-1.51,1.95-.53,1.84-.53,3h0c0,1.18.18,2.18.53,3.03s.85,1.5,1.51,1.96,1.43.68,2.33.68Z"/><path class="ap" d="M177.97,168.43c-1.41,0-2.64-.32-3.7-.97s-1.88-1.56-2.48-2.75-.89-2.58-.89-4.2v-.03c0-1.62.29-3.02.89-4.2s1.42-2.08,2.48-2.72,2.29-.96,3.68-.96,2.64.32,3.7.96,1.88,1.55,2.48,2.72.89,2.58.89,4.2v.03c0,1.62-.3,3.02-.89,4.2s-1.41,2.09-2.47,2.74-2.29.97-3.69.97ZM177.98,166.17c.9,0,1.68-.22,2.34-.67s1.17-1.09,1.54-1.93.55-1.86.55-3.05v-.03c0-1.19-.18-2.21-.55-3.05s-.88-1.48-1.55-1.92-1.45-.66-2.35-.66-1.65.22-2.32.67-1.19,1.08-1.56,1.92-.56,1.85-.56,3.04v.03c0,1.19.19,2.21.56,3.05s.89,1.49,1.56,1.93,1.45.67,2.35.67Z"/><path class="ap" d="M187.58,168.14v-15.23h2.55v2.17h.06c.41-.71,1.01-1.3,1.79-1.77s1.75-.7,2.9-.7c1.67,0,2.97.5,3.89,1.52s1.38,2.39,1.38,4.12v9.89h-2.55v-9.43c0-1.24-.29-2.19-.87-2.85s-1.46-.99-2.63-.99c-.8,0-1.5.18-2.09.53s-1.06.86-1.38,1.5-.49,1.4-.49,2.27v8.96h-2.55Z"/><path class="ap" d="M214.49,168.43c-1.4,0-2.44-.33-3.13-1s-1.04-1.72-1.04-3.18v-9.24h-2.23v-2.11h2.23v-4.12h2.64v4.12h2.9v2.11h-2.9v9.23c0,.81.18,1.36.53,1.65s.87.43,1.55.43c.16,0,.3,0,.45-.02s.27-.03.37-.04v2.07c-.16.02-.36.04-.61.07s-.5.04-.75.04Z"/><path class="ap" d="M218.71,168.14v-21.14h2.55v8.33h.06c.41-.86,1.02-1.53,1.83-2.01s1.78-.72,2.92-.72,2.03.26,2.85.78,1.45,1.25,1.91,2.18.69,2.01.69,3.24v9.33h-2.55v-8.89c0-1.38-.33-2.45-1-3.22s-1.59-1.16-2.78-1.16c-.78,0-1.47.19-2.06.56s-1.05.88-1.38,1.54-.49,1.42-.49,2.29v8.89h-2.55Z"/><path class="ap" d="M236.18,150.33c-.44,0-.82-.16-1.13-.47s-.47-.69-.47-1.13.16-.83.47-1.14.69-.46,1.13-.46.83.15,1.13.46.46.69.46,1.14-.15.82-.46,1.13-.69.47-1.13.47ZM234.91,168.14v-15.23h2.55v15.23h-2.55Z"/><path class="ap" d="M246.33,168.43c-1.19,0-2.22-.19-3.09-.57s-1.56-.91-2.06-1.6-.81-1.48-.92-2.39v-.13s2.53,0,2.53,0l.03.15c.16.76.52,1.35,1.1,1.78s1.38.64,2.42.64c.69,0,1.28-.09,1.77-.27s.86-.44,1.13-.78.4-.73.4-1.19h0c0-.56-.17-1-.5-1.33s-.93-.61-1.8-.82l-2.42-.59c-.96-.23-1.75-.54-2.38-.92s-1.1-.84-1.41-1.38-.47-1.19-.47-1.92h0c0-.89.24-1.67.71-2.34s1.13-1.2,1.98-1.58,1.81-.57,2.91-.57,2.08.2,2.91.59,1.47.93,1.95,1.61.74,1.44.8,2.29v.19s-2.42,0-2.42,0v-.1c-.11-.74-.44-1.34-.99-1.79s-1.3-.67-2.25-.67c-.62,0-1.15.09-1.6.28s-.79.45-1.03.78-.36.73-.36,1.18h0c0,.36.08.67.24.94s.42.52.77.73.81.38,1.36.51l2.42.59c1.54.37,2.63.88,3.25,1.53s.94,1.52.94,2.6h0c0,.9-.26,1.69-.77,2.37s-1.22,1.22-2.11,1.6-1.91.58-3.04.58Z"/><path class="ap" d="M266.45,168.43c-1.19,0-2.22-.19-3.09-.57s-1.56-.91-2.06-1.6-.81-1.48-.92-2.39v-.13s2.53,0,2.53,0l.03.15c.16.76.52,1.35,1.1,1.78s1.38.64,2.42.64c.69,0,1.28-.09,1.77-.27s.86-.44,1.13-.78.4-.73.4-1.19h0c0-.56-.17-1-.5-1.33s-.93-.61-1.8-.82l-2.42-.59c-.96-.23-1.75-.54-2.38-.92s-1.1-.84-1.41-1.38-.47-1.19-.47-1.92h0c0-.89.24-1.67.71-2.34s1.13-1.2,1.98-1.58,1.81-.57,2.91-.57,2.08.2,2.91.59,1.47.93,1.95,1.61.74,1.44.8,2.29v.19s-2.42,0-2.42,0v-.1c-.11-.74-.44-1.34-.99-1.79s-1.3-.67-2.25-.67c-.62,0-1.15.09-1.6.28s-.79.45-1.03.78-.36.73-.36,1.18h0c0,.36.08.67.24.94s.42.52.77.73.81.38,1.36.51l2.42.59c1.54.37,2.63.88,3.25,1.53s.94,1.52.94,2.6h0c0,.9-.26,1.69-.77,2.37s-1.22,1.22-2.11,1.6-1.91.58-3.04.58Z"/><path class="ap" d="M281.27,168.43c-1.46,0-2.71-.32-3.76-.97s-1.86-1.56-2.42-2.73-.84-2.56-.84-4.15h0c0-1.59.28-2.97.85-4.17s1.36-2.13,2.39-2.8,2.23-1,3.62-1,2.58.32,3.58.96,1.77,1.54,2.31,2.69.81,2.49.81,4.01v.94h-12.28v-1.99h11.02l-1.29,1.85v-.98c0-1.18-.18-2.16-.54-2.93s-.85-1.35-1.47-1.72-1.34-.56-2.15-.56-1.54.2-2.18.59-1.15.98-1.52,1.76-.56,1.73-.56,2.86v.98c0,1.07.18,1.99.55,2.75s.89,1.34,1.56,1.75,1.47.61,2.39.61c.64,0,1.22-.1,1.73-.29s.93-.46,1.27-.81.59-.73.73-1.17l.04-.13h2.5l-.03.15c-.13.62-.37,1.21-.73,1.76s-.81,1.03-1.37,1.44-1.19.74-1.9.97-1.48.34-2.31.34Z"/><path class="ap" d="M295.77,168.43c-1.19,0-2.22-.19-3.09-.57s-1.56-.91-2.06-1.6-.81-1.48-.92-2.39v-.13s2.53,0,2.53,0l.03.15c.16.76.52,1.35,1.1,1.78s1.38.64,2.42.64c.69,0,1.28-.09,1.77-.27s.86-.44,1.13-.78.4-.73.4-1.19h0c0-.56-.17-1-.5-1.33s-.93-.61-1.8-.82l-2.42-.59c-.96-.23-1.75-.54-2.38-.92s-1.1-.84-1.41-1.38-.47-1.19-.47-1.92h0c0-.89.24-1.67.71-2.34s1.13-1.2,1.98-1.58,1.81-.57,2.91-.57,2.08.2,2.91.59,1.47.93,1.95,1.61.74,1.44.8,2.29v.19s-2.42,0-2.42,0v-.1c-.11-.74-.44-1.34-.99-1.79s-1.3-.67-2.25-.67c-.62,0-1.15.09-1.6.28s-.79.45-1.03.78-.36.73-.36,1.18h0c0,.36.08.67.24.94s.42.52.77.73.81.38,1.36.51l2.42.59c1.54.37,2.63.88,3.25,1.53s.94,1.52.94,2.6h0c0,.9-.26,1.69-.77,2.37s-1.22,1.22-2.11,1.6-1.91.58-3.04.58Z"/><path class="ap" d="M309.73,168.43c-1.19,0-2.22-.19-3.09-.57s-1.56-.91-2.06-1.6-.81-1.48-.92-2.39v-.13s2.53,0,2.53,0l.03.15c.16.76.52,1.35,1.1,1.78s1.38.64,2.42.64c.69,0,1.28-.09,1.77-.27s.86-.44,1.13-.78.4-.73.4-1.19h0c0-.56-.17-1-.5-1.33s-.93-.61-1.8-.82l-2.42-.59c-.96-.23-1.75-.54-2.38-.92s-1.1-.84-1.41-1.38-.47-1.19-.47-1.92h0c0-.89.24-1.67.71-2.34s1.13-1.2,1.98-1.58,1.81-.57,2.91-.57,2.08.2,2.91.59,1.47.93,1.95,1.61.74,1.44.8,2.29v.19s-2.42,0-2.42,0v-.1c-.11-.74-.44-1.34-.99-1.79s-1.3-.67-2.25-.67c-.62,0-1.15.09-1.6.28s-.79.45-1.03.78-.36.73-.36,1.18h0c0,.36.08.67.24.94s.42.52.77.73.81.38,1.36.51l2.42.59c1.54.37,2.63.88,3.25,1.53s.94,1.52.94,2.6h0c0,.9-.26,1.69-.77,2.37s-1.22,1.22-2.11,1.6-1.91.58-3.04.58Z"/><path class="ap" d="M319.72,150.33c-.44,0-.82-.16-1.13-.47s-.47-.69-.47-1.13.16-.83.47-1.14.69-.46,1.13-.46.83.15,1.13.46.46.69.46,1.14-.15.82-.46,1.13-.69.47-1.13.47ZM318.45,168.14v-15.23h2.55v15.23h-2.55Z"/><path class="ap" d="M330.78,168.43c-1.41,0-2.64-.32-3.7-.97s-1.88-1.56-2.48-2.75-.89-2.58-.89-4.2v-.03c0-1.62.29-3.02.89-4.2s1.42-2.08,2.48-2.72,2.29-.96,3.68-.96,2.64.32,3.7.96,1.88,1.55,2.48,2.72.89,2.58.89,4.2v.03c0,1.62-.3,3.02-.89,4.2s-1.41,2.09-2.47,2.74-2.29.97-3.69.97ZM330.8,166.17c.9,0,1.68-.22,2.34-.67s1.17-1.09,1.54-1.93.55-1.86.55-3.05v-.03c0-1.19-.18-2.21-.55-3.05s-.88-1.48-1.55-1.92-1.45-.66-2.35-.66-1.65.22-2.32.67-1.19,1.08-1.56,1.92-.56,1.85-.56,3.04v.03c0,1.19.19,2.21.56,3.05s.89,1.49,1.56,1.93,1.45.67,2.35.67Z"/><path class="ap" d="M340.39,168.14v-15.23h2.55v2.17h.06c.41-.71,1.01-1.3,1.79-1.77s1.75-.7,2.9-.7c1.67,0,2.97.5,3.89,1.52s1.38,2.39,1.38,4.12v9.89h-2.55v-9.43c0-1.24-.29-2.19-.87-2.85s-1.46-.99-2.63-.99c-.8,0-1.5.18-2.09.53s-1.06.86-1.38,1.5-.49,1.4-.49,2.27v8.96h-2.55Z"/><path class="ap" d="M355.2,154.16l1.29-7.16h2.67l-2.14,7.16h-1.82Z"/><path class="ap" d="M365.26,168.43c-1.19,0-2.22-.19-3.09-.57s-1.56-.91-2.06-1.6-.81-1.48-.92-2.39v-.13s2.53,0,2.53,0l.03.15c.16.76.52,1.35,1.1,1.78s1.38.64,2.42.64c.69,0,1.28-.09,1.77-.27s.86-.44,1.13-.78.4-.73.4-1.19h0c0-.56-.17-1-.5-1.33s-.93-.61-1.8-.82l-2.42-.59c-.96-.23-1.75-.54-2.38-.92s-1.1-.84-1.41-1.38-.47-1.19-.47-1.92h0c0-.89.24-1.67.71-2.34s1.13-1.2,1.98-1.58,1.81-.57,2.91-.57,2.08.2,2.91.59,1.47.93,1.95,1.61.74,1.44.8,2.29v.19s-2.42,0-2.42,0v-.1c-.11-.74-.44-1.34-.99-1.79s-1.3-.67-2.25-.67c-.62,0-1.15.09-1.6.28s-.79.45-1.03.78-.36.73-.36,1.18h0c0,.36.08.67.24.94s.42.52.77.73.81.38,1.36.51l2.42.59c1.54.37,2.63.88,3.25,1.53s.94,1.52.94,2.6h0c0,.9-.26,1.69-.77,2.37s-1.22,1.22-2.11,1.6-1.91.58-3.04.58Z"/><path class="ap" d="M386.28,168.43c-1.44,0-2.68-.33-3.74-.97s-1.88-1.57-2.45-2.75-.86-2.58-.86-4.2h0c0-1.62.29-3.01.88-4.19s1.41-2.09,2.46-2.74,2.29-.97,3.69-.97c1.27,0,2.36.25,3.27.74s1.62,1.13,2.15,1.91.84,1.61.95,2.48v.12s-2.48,0-2.48,0l-.03-.12c-.19-.76-.59-1.43-1.22-2.01s-1.51-.86-2.63-.86c-.88,0-1.65.23-2.31.7s-1.18,1.12-1.55,1.96-.56,1.84-.56,3h0c0,1.2.19,2.21.56,3.05s.9,1.48,1.57,1.93,1.44.67,2.32.67c1.04,0,1.89-.27,2.54-.8s1.08-1.22,1.3-2.07l.03-.12h2.5v.1c-.15.97-.51,1.84-1.08,2.61s-1.31,1.39-2.21,1.85-1.93.68-3.08.68Z"/><path class="ap" d="M395.13,168.14v-21.14h2.55v8.33h.06c.41-.86,1.02-1.53,1.83-2.01s1.78-.72,2.92-.72,2.03.26,2.85.78,1.45,1.25,1.91,2.18.69,2.01.69,3.24v9.33h-2.55v-8.89c0-1.38-.33-2.45-1-3.22s-1.59-1.16-2.78-1.16c-.78,0-1.47.19-2.06.56s-1.05.88-1.38,1.54-.49,1.42-.49,2.29v8.89h-2.55Z"/><path class="ap" d="M415.62,168.43c-1.01,0-1.89-.19-2.65-.57s-1.36-.92-1.78-1.61-.64-1.5-.64-2.42v-.03c0-.87.22-1.62.65-2.26s1.06-1.14,1.89-1.51,1.82-.59,2.98-.66l5.64-.32v1.98l-5.35.32c-1.02.06-1.8.3-2.37.73s-.84,1-.84,1.71v.03c0,.73.28,1.31.83,1.74s1.29.64,2.21.64c.8,0,1.52-.17,2.16-.51s1.15-.8,1.52-1.38.56-1.25.56-1.98v-4.5c0-.93-.29-1.66-.87-2.19s-1.4-.8-2.47-.8c-.98,0-1.77.21-2.37.64s-.97.98-1.12,1.66l-.03.13h-2.46v-.16c.09-.84.38-1.6.87-2.29s1.17-1.23,2.04-1.63,1.9-.61,3.09-.61,2.24.21,3.11.62,1.55.99,2.03,1.74.72,1.63.72,2.64v10.53h-2.55v-2.48h-.06c-.29.56-.68,1.04-1.17,1.46s-1.04.74-1.65.97-1.26.34-1.94.34Z"/><path class="ap" d="M426.23,168.14v-15.23h2.55v2.58h.06c.25-.88.69-1.58,1.32-2.09s1.37-.78,2.23-.78c.22,0,.43.01.61.04s.32.05.42.07v2.48c-.1-.04-.27-.07-.52-.1s-.53-.04-.84-.04c-.65,0-1.23.15-1.72.44s-.87.71-1.14,1.27-.4,1.21-.4,1.99v9.4h-2.55Z"/><path class="ap" d="M439.63,168.43c-1.01,0-1.89-.19-2.65-.57s-1.36-.92-1.78-1.61-.64-1.5-.64-2.42v-.03c0-.87.22-1.62.65-2.26s1.06-1.14,1.89-1.51,1.82-.59,2.98-.66l5.64-.32v1.98l-5.35.32c-1.02.06-1.8.3-2.37.73s-.84,1-.84,1.71v.03c0,.73.28,1.31.83,1.74s1.29.64,2.21.64c.8,0,1.52-.17,2.16-.51s1.15-.8,1.52-1.38.56-1.25.56-1.98v-4.5c0-.93-.29-1.66-.87-2.19s-1.4-.8-2.47-.8c-.98,0-1.77.21-2.37.64s-.97.98-1.12,1.66l-.03.13h-2.46v-.16c.09-.84.38-1.6.87-2.29s1.17-1.23,2.04-1.63,1.9-.61,3.09-.61,2.24.21,3.11.62,1.55.99,2.03,1.74.72,1.63.72,2.64v10.53h-2.55v-2.48h-.06c-.29.56-.68,1.04-1.17,1.46s-1.04.74-1.65.97-1.26.34-1.94.34Z"/><path class="ap" d="M456.55,168.43c-1.44,0-2.68-.33-3.74-.97s-1.88-1.57-2.45-2.75-.86-2.58-.86-4.2h0c0-1.62.29-3.01.88-4.19s1.41-2.09,2.46-2.74,2.29-.97,3.69-.97c1.27,0,2.36.25,3.27.74s1.62,1.13,2.15,1.91.84,1.61.95,2.48v.12s-2.48,0-2.48,0l-.03-.12c-.19-.76-.59-1.43-1.22-2.01s-1.51-.86-2.63-.86c-.88,0-1.65.23-2.31.7s-1.18,1.12-1.55,1.96-.56,1.84-.56,3h0c0,1.2.19,2.21.56,3.05s.9,1.48,1.57,1.93,1.44.67,2.32.67c1.04,0,1.89-.27,2.54-.8s1.08-1.22,1.3-2.07l.03-.12h2.5v.1c-.15.97-.51,1.84-1.08,2.61s-1.31,1.39-2.21,1.85-1.93.68-3.08.68Z"/><path class="ap" d="M470.22,168.43c-1.4,0-2.44-.33-3.13-1s-1.04-1.72-1.04-3.18v-9.24h-2.23v-2.11h2.23v-4.12h2.64v4.12h2.9v2.11h-2.9v9.23c0,.81.18,1.36.53,1.65s.87.43,1.55.43c.16,0,.3,0,.45-.02s.27-.03.37-.04v2.07c-.16.02-.36.04-.61.07s-.5.04-.75.04Z"/><path class="ap" d="M480.14,168.43c-1.46,0-2.71-.32-3.76-.97s-1.86-1.56-2.42-2.73-.84-2.56-.84-4.15h0c0-1.59.28-2.97.85-4.17s1.36-2.13,2.39-2.8,2.23-1,3.62-1,2.58.32,3.58.96,1.77,1.54,2.31,2.69.81,2.49.81,4.01v.94h-12.28v-1.99h11.02l-1.29,1.85v-.98c0-1.18-.18-2.16-.54-2.93s-.85-1.35-1.47-1.72-1.34-.56-2.15-.56-1.54.2-2.18.59-1.15.98-1.52,1.76-.56,1.73-.56,2.86v.98c0,1.07.18,1.99.55,2.75s.89,1.34,1.56,1.75,1.47.61,2.39.61c.64,0,1.22-.1,1.73-.29s.93-.46,1.27-.81.59-.73.73-1.17l.04-.13h2.5l-.03.15c-.13.62-.37,1.21-.73,1.76s-.81,1.03-1.37,1.44-1.19.74-1.9.97-1.48.34-2.31.34Z"/><path class="ap" d="M489.23,168.14v-15.23h2.55v2.58h.06c.25-.88.69-1.58,1.32-2.09s1.37-.78,2.23-.78c.22,0,.43.01.61.04s.32.05.42.07v2.48c-.1-.04-.27-.07-.52-.1s-.53-.04-.84-.04c-.65,0-1.23.15-1.72.44s-.87.71-1.14,1.27-.4,1.21-.4,1.99v9.4h-2.55Z"/><rect class="am" x="168" y="240" width="304" height="304"/><rect class="am" x="168.62" y="240.55" width="302.75" height="302.75"/><rect class="al" x="219.08" y="291.15" width="201.84" height="201.69"/><rect class="an" x="269.54" y="341.47" width="100.92" height="100.92"/><rect class="aj" x="320" y="341.47" width="16.82" height="16.82"/><rect class="aj" x="353.64" y="375.11" width="16.82" height="16.82"/><rect class="aj" x="353.64" y="408.75" width="16.82" height="16.82"/><rect class="aj" x="353.64" y="341.47" width="16.82" height="16.82"/><rect class="aj" x="336.82" y="425.57" width="16.82" height="16.82"/><rect class="aj" x="303.18" y="425.57" width="16.82" height="16.82"/><rect class="aj" x="286.36" y="341.47" width="16.82" height="16.82"/><rect class="aj" x="269.54" y="425.57" width="16.82" height="16.82"/><rect class="aj" x="269.54" y="391.93" width="16.82" height="16.82"/><rect class="aj" x="269.54" y="358.29" width="16.82" height="16.82"/><rect class="ak" x="286.36" y="358.29" width="67.28" height="67.28"/><rect class="aq" x="336.82" y="358.29" width="16.82" height="16.82"/><rect class="aq" x="303.18" y="358.29" width="16.82" height="16.82"/><rect class="aq" x="320" y="375.11" width="16.82" height="16.82"/><rect class="aq" x="286.36" y="375.11" width="16.82" height="16.82"/><rect class="aq" x="336.82" y="391.93" width="16.82" height="16.82"/><rect class="aq" x="303.18" y="391.93" width="16.82" height="16.82"/><rect class="aq" x="320" y="408.75" width="16.82" height="16.82"/><rect class="aq" x="286.36" y="408.75" width="16.82" height="16.82"/><line class="s" x1="370.46" y1="375.11" x2="420.92" y2="375.11"/><line class="s" x1="370.46" y1="391.93" x2="420.92" y2="391.93"/><line class="s" x1="370.46" y1="408.75" x2="420.92" y2="408.75"/><line class="s" x1="370.46" y1="358.29" x2="420.92" y2="358.29"/><line class="s" x1="370.46" y1="425.57" x2="420.92" y2="425.57"/><line class="g" x1="437.74" y1="543.3" x2="437.74" y2="442.39"/><line class="g" x1="454.56" y1="543.3" x2="454.56" y2="442.39"/><line class="g" x1="471.38" y1="526.48" x2="370.46" y2="526.48"/><line class="g" x1="471.38" y1="509.67" x2="370.46" y2="509.67"/><line class="n" x1="420.92" y1="375.11" x2="471.38" y2="375.11"/><line class="n" x1="420.92" y1="391.93" x2="471.38" y2="391.93"/><line class="n" x1="420.92" y1="408.75" x2="471.38" y2="408.75"/><line class="n" x1="420.92" y1="358.29" x2="471.38" y2="358.29"/><line class="n" x1="420.92" y1="425.57" x2="471.38" y2="425.57"/><line class="g" x1="420.92" y1="476.03" x2="471.38" y2="476.03"/><line class="g" x1="420.92" y1="492.85" x2="471.38" y2="492.85"/><line class="g" x1="420.92" y1="459.21" x2="471.38" y2="459.21"/><line class="s" x1="420.92" y1="442.39" x2="420.92" y2="341.47"/><line class="n" x1="437.74" y1="442.39" x2="437.74" y2="341.47"/><line class="n" x1="454.56" y1="442.39" x2="454.56" y2="341.47"/><line class="s" x1="404.1" y1="442.39" x2="404.1" y2="341.47"/><line class="s" x1="387.28" y1="442.39" x2="387.28" y2="341.47"/><line class="f" x1="269.54" y1="408.75" x2="219.08" y2="408.75"/><line class="f" x1="269.54" y1="391.93" x2="219.08" y2="391.93"/><line class="f" x1="269.54" y1="375.11" x2="219.08" y2="375.11"/><line class="f" x1="269.54" y1="425.57" x2="219.08" y2="425.57"/><line class="f" x1="269.54" y1="358.29" x2="219.08" y2="358.29"/><line class="j" x1="219.08" y1="408.75" x2="168.62" y2="408.75"/><line class="j" x1="219.08" y1="391.93" x2="168.62" y2="391.93"/><line class="j" x1="219.08" y1="375.11" x2="168.62" y2="375.11"/><line class="j" x1="219.08" y1="425.57" x2="168.62" y2="425.57"/><line class="j" x1="219.08" y1="358.29" x2="168.62" y2="358.29"/><line class="f" x1="219.08" y1="341.47" x2="219.08" y2="442.39"/><line class="j" x1="202.26" y1="341.47" x2="202.26" y2="442.39"/><line class="j" x1="185.44" y1="341.47" x2="185.44" y2="442.39"/><line class="f" x1="235.9" y1="341.47" x2="235.9" y2="442.39"/><line class="f" x1="252.72" y1="341.47" x2="252.72" y2="442.39"/><line class="r" x1="303.18" y1="341.47" x2="303.18" y2="291.01"/><line class="r" x1="320" y1="341.47" x2="320" y2="291.01"/><line class="r" x1="336.82" y1="341.47" x2="336.82" y2="291.01"/><line class="r" x1="286.36" y1="341.47" x2="286.36" y2="291.01"/><line class="r" x1="353.64" y1="341.47" x2="353.64" y2="291.01"/><line class="e" x1="303.18" y1="291.01" x2="303.18" y2="240.55"/><line class="e" x1="320" y1="291.01" x2="320" y2="240.55"/><line class="e" x1="336.82" y1="291.01" x2="336.82" y2="240.55"/><line class="e" x1="286.36" y1="291.01" x2="286.36" y2="240.55"/><line class="e" x1="353.64" y1="291.01" x2="353.64" y2="240.55"/><line class="r" x1="370.46" y1="291.01" x2="269.54" y2="291.01"/><line class="e" x1="370.46" y1="274.19" x2="269.54" y2="274.19"/><line class="e" x1="370.46" y1="257.37" x2="269.54" y2="257.37"/><line class="r" x1="370.46" y1="307.83" x2="269.54" y2="307.83"/><line class="r" x1="370.46" y1="324.65" x2="269.54" y2="324.65"/><line class="o" x1="336.82" y1="442.39" x2="336.82" y2="492.85"/><line class="o" x1="320" y1="442.39" x2="320" y2="492.85"/><line class="o" x1="303.18" y1="442.39" x2="303.18" y2="492.85"/><line class="o" x1="353.64" y1="442.39" x2="353.64" y2="492.85"/><line class="o" x1="286.36" y1="442.39" x2="286.36" y2="492.85"/><line class="x" x1="336.82" y1="492.85" x2="336.82" y2="543.3"/><line class="x" x1="320" y1="492.85" x2="320" y2="543.3"/><line class="x" x1="303.18" y1="492.85" x2="303.18" y2="543.3"/><line class="x" x1="353.64" y1="492.85" x2="353.64" y2="543.3"/><line class="g" x1="387.28" y1="492.99" x2="387.28" y2="543.45"/><line class="g" x1="404.1" y1="492.99" x2="404.1" y2="543.45"/><line class="g" x1="420.92" y1="492.99" x2="420.92" y2="543.45"/><line class="x" x1="286.36" y1="492.85" x2="286.36" y2="543.3"/><line class="o" x1="269.54" y1="492.85" x2="370.46" y2="492.85"/><line class="x" x1="269.54" y1="509.67" x2="370.46" y2="509.67"/><line class="x" x1="269.54" y1="526.48" x2="370.46" y2="526.48"/><line class="o" x1="269.54" y1="476.03" x2="370.46" y2="476.03"/><line class="o" x1="269.54" y1="459.21" x2="370.46" y2="459.21"/><line class="z" x1="370.46" y1="476.03" x2="420.92" y2="476.03"/><line class="z" x1="370.46" y1="459.21" x2="420.92" y2="459.21"/><line class="z" x1="404.1" y1="492.85" x2="404.1" y2="442.39"/><line class="z" x1="387.28" y1="492.85" x2="387.28" y2="442.39"/><polyline class="z" points="370.46 492.85 420.92 492.85 420.92 442.39"/><line class="af" x1="202.26" y1="240.7" x2="202.26" y2="341.61"/><line class="af" x1="185.44" y1="240.7" x2="185.44" y2="341.61"/><line class="af" x1="168.62" y1="257.52" x2="269.54" y2="257.52"/><line class="af" x1="168.62" y1="274.33" x2="269.54" y2="274.33"/><line class="af" x1="219.08" y1="307.97" x2="168.62" y2="307.97"/><line class="af" x1="219.08" y1="291.15" x2="168.62" y2="291.15"/><line class="af" x1="219.08" y1="324.79" x2="168.62" y2="324.79"/><line class="af" x1="252.72" y1="291.01" x2="252.72" y2="240.55"/><line class="af" x1="235.9" y1="291.01" x2="235.9" y2="240.55"/><line class="af" x1="219.08" y1="291.01" x2="219.08" y2="240.55"/><line class="p" x1="269.54" y1="307.97" x2="219.08" y2="307.97"/><line class="p" x1="269.54" y1="324.79" x2="219.08" y2="324.79"/><line class="p" x1="235.9" y1="291.15" x2="235.9" y2="341.61"/><line class="p" x1="252.72" y1="291.15" x2="252.72" y2="341.61"/><polyline class="p" points="269.54 291.15 219.08 291.15 219.08 341.61"/><line class="k" x1="202.26" y1="543.3" x2="202.26" y2="442.39"/><line class="k" x1="185.44" y1="543.3" x2="185.44" y2="442.39"/><line class="k" x1="168.62" y1="526.48" x2="269.54" y2="526.48"/><line class="k" x1="168.62" y1="509.67" x2="269.54" y2="509.67"/><line class="k" x1="219.08" y1="476.03" x2="168.62" y2="476.03"/><line class="k" x1="219.08" y1="492.85" x2="168.62" y2="492.85"/><line class="k" x1="219.08" y1="459.21" x2="168.62" y2="459.21"/><line class="k" x1="252.72" y1="492.99" x2="252.72" y2="543.45"/><line class="k" x1="235.9" y1="492.99" x2="235.9" y2="543.45"/><line class="k" x1="219.08" y1="492.99" x2="219.08" y2="543.45"/><line class="y" x1="269.54" y1="476.03" x2="219.08" y2="476.03"/><line class="y" x1="269.54" y1="459.21" x2="219.08" y2="459.21"/><line class="y" x1="235.9" y1="492.85" x2="235.9" y2="442.39"/><line class="y" x1="252.72" y1="492.85" x2="252.72" y2="442.39"/><polyline class="y" points="269.54 492.85 219.08 492.85 219.08 442.39"/><line class="h" x1="437.74" y1="240.7" x2="437.74" y2="341.61"/><line class="h" x1="454.56" y1="240.7" x2="454.56" y2="341.61"/><line class="h" x1="471.38" y1="257.52" x2="370.46" y2="257.52"/><line class="h" x1="471.38" y1="274.33" x2="370.46" y2="274.33"/><line class="h" x1="420.92" y1="307.97" x2="471.38" y2="307.97"/><line class="h" x1="420.92" y1="291.15" x2="471.38" y2="291.15"/><line class="h" x1="420.92" y1="324.79" x2="471.38" y2="324.79"/><line class="h" x1="387.28" y1="291.01" x2="387.28" y2="240.55"/><line class="h" x1="404.1" y1="291.01" x2="404.1" y2="240.55"/><line class="h" x1="420.92" y1="291.01" x2="420.92" y2="240.55"/><line class="m" x1="370.46" y1="307.97" x2="420.92" y2="307.97"/><line class="m" x1="370.46" y1="324.79" x2="420.92" y2="324.79"/><line class="m" x1="404.1" y1="291.15" x2="404.1" y2="341.61"/><line class="m" x1="387.28" y1="291.15" x2="387.28" y2="341.61"/><polyline class="m" points="370.46 291.15 420.92 291.15 420.92 341.61"/><rect class="l" x="168.62" y="240.55" width="302.75" height="302.75"/><line class="l" x1="168.62" y1="341.47" x2="471.38" y2="341.47"/><line class="l" x1="168.62" y1="442.39" x2="471.38" y2="442.39"/><line class="l" x1="269.54" y1="543.3" x2="269.54" y2="240.55"/><line class="l" x1="370.46" y1="543.3" x2="370.46" y2="240.55"/><rect class="ac" x="328.38" y="349.78" width="16.89" height="16.89" rx="8.44" ry="8.44" transform="translate(695.05 21.4) rotate(90)"/><rect class="v" x="345.28" y="332.89" width="16.89" height="16.89" rx="8.44" ry="8.44" transform="translate(695.05 -12.39) rotate(90)"/><rect class="v" x="311.48" y="332.89" width="16.89" height="16.89" rx="8.44" ry="8.44" transform="translate(661.26 21.41) rotate(90)"/><rect class="w" x="294.59" y="282.17" width="16.89" height="16.89" rx="8.44" ry="8.44"/><rect class="i" x="345.26" y="265.28" width="16.89" height="16.89" rx="8.44" ry="8.44"/><rect class="w" x="345.33" y="298.76" width="16.89" height="16.89" rx="8.44" ry="8.44"/><rect class="aa" x="362.15" y="299.07" width="16.89" height="16.89" rx="8.44" ry="8.44"/><rect class="aa" x="379.04" y="299.07" width="16.89" height="16.89" rx="8.44" ry="8.44"/><rect class="d" x="395.93" y="282.17" width="16.89" height="16.89" rx="8.44" ry="8.44"/><rect class="aa" x="395.93" y="315.97" width="16.89" height="16.89" rx="8.44" ry="8.44"/><rect class="ah" x="168" y="240" width="304" height="304" transform="translate(712 72) rotate(90)"/><rect class="ac" x="294.59" y="349.78" width="16.89" height="16.89" rx="8.44" ry="8.44" transform="translate(661.25 55.19) rotate(90)"/><rect class="ad" x="210.1" y="349.78" width="16.89" height="16.89" rx="8.44" ry="8.44" transform="translate(576.77 139.68) rotate(90)"/><rect class="ac" x="379.07" y="332.89" width="16.89" height="16.89" rx="8.44" ry="8.44" transform="translate(728.85 -46.18) rotate(90)"/><rect class="v" x="328.38" y="332.89" width="16.89" height="16.89" rx="8.44" ry="8.44" transform="translate(678.16 4.51) rotate(90)"/><rect class="ag" x="243.89" y="316" width="16.89" height="16.89" rx="8.44" ry="8.44" transform="translate(576.78 72.11) rotate(90)"/><rect class="ae" x="227" y="316" width="16.89" height="16.89" rx="8.44" ry="8.44" transform="translate(559.89 89) rotate(90)"/><rect class="ad" x="328.37" y="299.07" width="16.89" height="16.89" rx="8.44" ry="8.44"/><rect class="ad" x="294.59" y="315.97" width="16.89" height="16.89" rx="8.44" ry="8.44"/><rect class="w" x="260.82" y="282.17" width="16.89" height="16.89" rx="8.44" ry="8.44"/><rect class="aa" x="362.15" y="315.97" width="16.89" height="16.89" rx="8.44" ry="8.44"/><rect class="ah" x="168" y="240" width="304" height="304" transform="translate(712 72) rotate(90)"/><rect class="v" x="277.69" y="349.78" width="16.89" height="16.89" rx="8.44" ry="8.44" transform="translate(644.36 72.09) rotate(90)"/><rect class="ad" x="227" y="332.89" width="16.89" height="16.89" rx="8.44" ry="8.44" transform="translate(576.78 105.89) rotate(90)"/><rect class="ae" x="243.89" y="316" width="16.89" height="16.89" rx="8.44" ry="8.44" transform="translate(576.78 72.11) rotate(90)"/><rect class="ae" x="243.89" y="282.22" width="16.89" height="16.89" rx="8.44" ry="8.44" transform="translate(543.01 38.33) rotate(90)"/><rect class="ae" x="227" y="282.22" width="16.89" height="16.89" rx="8.44" ry="8.44" transform="translate(526.11 55.22) rotate(90)"/><rect class="i" x="294.59" y="265.28" width="16.89" height="16.89" rx="8.44" ry="8.44"/><rect class="w" x="294.59" y="315.97" width="16.89" height="16.89" rx="8.44" ry="8.44"/><rect class="w" x="277.7" y="282.17" width="16.89" height="16.89" rx="8.44" ry="8.44"/><rect class="i" x="260.82" y="248.38" width="16.89" height="16.89" rx="8.44" ry="8.44"/><rect class="w" x="260.82" y="299.07" width="16.89" height="16.89" rx="8.44" ry="8.44"/><rect class="ah" x="168" y="240" width="304" height="304" transform="translate(712 72) rotate(90)"/><rect class="q" x="279.3" y="267.56" width="80" height="80" rx="40" ry="40" transform="translate(626.85 -11.74) rotate(90)"/><rect class="ah" x="168" y="240" width="304" height="304"/><path class="ar" d="M493.98,394.1h1.63l-5.58,16.91h-1.57l-5.58-16.91h1.63l4.72,14.81h.02l4.72-14.81Z"/><path class="ar" d="M509.27,407.9c-.42,2.02-2.34,3.33-4.89,3.33-3.4,0-5.37-2.1-5.37-5.7v-1.84c0-3.33,2.06-5.51,5.19-5.51s5.12,2.16,5.12,5.93v1h-8.78v.43c0,2.64,1.49,4.31,3.83,4.31,1.72,0,2.98-.73,3.36-1.96h1.52ZM500.55,403.84h7.22c0-2.68-1.34-4.3-3.56-4.3s-3.66,1.61-3.66,4.3Z"/><path class="ar" d="M518.32,409.77h4.01v1.24h-8.14v-1.24h2.6v-10.14h-2.86v-1.24h4.36v3.21h.16c.43-2.25,2.1-3.53,4.56-3.53.73,0,1.44.11,1.84.28v1.68c-.59-.21-1.39-.35-2.07-.35-2.72,0-4.45,2.2-4.45,5.66v4.43Z"/><path class="ar" d="M533.3,395.11v3.28h5.29v1.3h-5.29v7.63c0,1.56,1.08,2.4,3.08,2.4.87,0,1.79-.04,2.2-.09v1.31c-.38.07-1.56.14-2.29.14-3.04,0-4.54-1.23-4.54-3.71v-7.68h-3.4v-1.3h3.4v-3.28h1.54Z"/><path class="ar" d="M553.78,407.9c-.42,2.02-2.34,3.33-4.89,3.33-3.4,0-5.37-2.1-5.37-5.7v-1.84c0-3.33,2.06-5.51,5.19-5.51s5.12,2.16,5.12,5.93v1h-8.78v.43c0,2.64,1.49,4.31,3.83,4.31,1.72,0,2.98-.73,3.36-1.96h1.52ZM545.06,403.84h7.22c0-2.68-1.34-4.3-3.56-4.3s-3.66,1.61-3.66,4.3Z"/><path class="ar" d="M563.34,405.86l-3.45,5.16h-1.76l4.45-6.35-4.49-6.27h1.85l3.43,5.04h.14l3.41-5.04h1.77l-4.43,6.21,4.48,6.41h-1.84l-3.43-5.16h-.14Z"/><line class="t" x1="511.39" y1="381.64" x2="422.58" y2="332.9"/><polygon class="ar" points="429.94 325.57 410 326 420.34 343.05 429.94 325.57"/></g></svg>