<?xml version="1.0" encoding="UTF-8"?><svg id="a" xmlns="http://www.w3.org/2000/svg" viewBox="0 0 1088 1088"><defs><style>.b{stroke:#3d444d;}.b,.c,.d,.e,.f,.g,.h,.i,.j,.k,.l,.m,.n,.o,.p,.q,.r{fill:none;stroke-miterlimit:10;}.b,.c,.d,.f,.g,.h,.i,.j,.k,.l,.m,.n,.o,.p,.q,.r{stroke-width:4px;}.c{stroke:#00aeef;}.d{stroke:#6a0dad;}.e{stroke:#2f353d;stroke-width:8px;}.f{stroke:#f0f6fc;}.g{stroke:#f0f;}.h{stroke:#670067;}.i{stroke:#ffd400;}.j{stroke:green;}.k{stroke:#413500;}.l{stroke:#003a52;}.m{stroke:#300352;}.s{fill:#fff;}.t{fill:#21262d;}.u{fill:#0d1117;}.v{fill:#2f353d;}.n{stroke:#003d00;}.o{stroke:#001f41;}.p{stroke:red;}.q{stroke:#0067c0;}.r{stroke:#7a0000;}.w{fill:#c9d1d9;}</style></defs><rect class="u" y="-.26" width="1088" height="1088"/><path class="v" d="M1084,3.74v1080H4V3.74h1080M1092-4.26H-4v1096h1096V-4.26h0Z"/><rect class="t" x="123.7" y="124" width="840.6" height="840"/><rect class="s" x="364" y="363.74" width="360" height="360"/><rect class="w" x="485.11" y="363.74" width="120" height="120"/><rect class="w" x="485.11" y="603.74" width="120" height="120"/><rect class="w" x="365.11" y="483.74" width="120" height="120" transform="translate(-118.63 968.85) rotate(-90)"/><rect class="w" x="605.11" y="483.74" width="120" height="120" transform="translate(121.37 1208.85) rotate(-90)"/><line class="f" x1="724" y1="483.74" x2="964" y2="483.74"/><line class="f" x1="724" y1="603.74" x2="964" y2="603.74"/><line class="b" x1="964" y1="483.74" x2="1084" y2="483.74"/><line class="b" x1="964" y1="603.74" x2="1084" y2="603.74"/><line class="m" x1="964" y1="843.74" x2="1084" y2="843.74"/><line class="f" x1="964" y1="723.74" x2="964" y2="363.74"/><line class="f" x1="844" y1="723.74" x2="844" y2="363.74"/><line class="j" x1="364" y1="603.74" x2="124" y2="603.74"/><line class="j" x1="364" y1="483.74" x2="124" y2="483.74"/><line class="n" x1="124" y1="603.74" x2="4" y2="603.74"/><line class="n" x1="124" y1="483.74" x2="4" y2="483.74"/><line class="j" x1="124" y1="363.74" x2="124" y2="723.74"/><line class="j" x1="244" y1="363.74" x2="244" y2="723.74"/><line class="p" x1="484" y1="363.74" x2="484" y2="124.26"/><line class="p" x1="604" y1="363.74" x2="604" y2="124.26"/><line class="r" x1="484" y1="124.26" x2="484" y2="3.74"/><line class="r" x1="604" y1="124.26" x2="604" y2="3.74"/><line class="p" x1="724" y1="123.74" x2="364" y2="123.74"/><line class="p" x1="724" y1="243.74" x2="364" y2="243.74"/><line class="q" x1="604" y1="723.74" x2="604" y2="963.74"/><line class="q" x1="484" y1="723.74" x2="484" y2="963.74"/><line class="o" x1="604" y1="963.74" x2="604" y2="1083.74"/><line class="o" x1="484" y1="963.74" x2="484" y2="1083.74"/><line class="m" x1="844" y1="963.74" x2="844" y2="1084.26"/><line class="q" x1="364" y1="963.74" x2="724" y2="963.74"/><line class="q" x1="364" y1="843.74" x2="724" y2="843.74"/><line class="d" x1="724" y1="843.74" x2="964" y2="843.74"/><line class="d" x1="844" y1="963.74" x2="844" y2="723.74"/><polyline class="k" points="4 124.26 124 124.26 124 4.26"/><polyline class="i" points="364 124.26 124 124.26 124 364.26"/><line class="k" x1="124" y1="244.26" x2="4" y2="244.26"/><line class="k" x1="244" y1="124.26" x2="244" y2="3.74"/><line class="i" x1="364" y1="244.26" x2="124" y2="244.26"/><line class="i" x1="244" y1="124.26" x2="244" y2="364.26"/><line class="l" x1="124" y1="843.74" x2="4" y2="843.74"/><line class="l" x1="244" y1="963.74" x2="244" y2="1084.26"/><line class="c" x1="364" y1="843.74" x2="124" y2="843.74"/><line class="c" x1="244" y1="963.74" x2="244" y2="723.74"/><line class="h" x1="964" y1="244.26" x2="1084" y2="244.26"/><line class="h" x1="844" y1="124.26" x2="844" y2="3.74"/><line class="g" x1="724" y1="244.26" x2="964" y2="244.26"/><line class="g" x1="844" y1="124.26" x2="844" y2="364.26"/><polyline class="l" points="124 1084.26 124 964.26 4 964.26"/><polyline class="c" points="124 724.26 124 964.26 364 964.26"/><polyline class="h" points="1084 124.26 964 124.26 964 4.26"/><polyline class="g" points="724 124.26 964 124.26 964 364.26"/><polyline class="m" points="964 1084.26 964 964.26 1084 964.26"/><polyline class="d" points="964 724.26 964 964.26 724 964.26"/><rect class="e" x="4" y="3.74" width="1080" height="1080"/><line class="e" x1="4" y1="363.74" x2="1084" y2="363.74"/><line class="e" x1="4" y1="723.74" x2="1084" y2="723.74"/><line class="e" x1="364" y1="1083.74" x2="364" y2="3.74"/><line class="e" x1="724" y1="1083.74" x2="724" y2="3.74"/></svg>