<?xml version="1.0" encoding="UTF-8"?><svg xmlns="http://www.w3.org/2000/svg" viewBox="0 0 1200 675"><defs><style>.d{stroke:green;}.d,.e,.f,.g,.h,.i,.j,.k,.l,.m{fill:none;stroke-miterlimit:10;}.e{stroke-width:3px;}.e,.f{stroke:#2f353d;}.g{stroke:#f0f;}.h{stroke:#0067c0;}.i{stroke:#ffd400;}.j{stroke:red;}.n{fill:#fff;}.k{stroke:#f0f6fc;}.o{fill:#9199a1;}.p{fill:#2f353d;}.l{stroke:#00aeef;}.m{stroke:#6a0dad;}.q{fill:#f0f6fc;}.r{fill:#c9d1d9;}</style></defs><g id="a"><rect width="1200" height="675"/></g><g id="b"><line class="k" x1="1055" y1="282.61" x2="1055" y2="432.61"/><line class="k" x1="1030" y1="282.61" x2="1030" y2="432.61"/><line class="k" x1="1005" y1="282.61" x2="1005" y2="432.61"/><line class="k" x1="980" y1="282.61" x2="980" y2="432.61"/><line class="k" x1="1080" y1="282.61" x2="1080" y2="432.61"/><line class="k" x1="1105" y1="307.61" x2="955" y2="307.61"/><line class="k" x1="1105" y1="332.61" x2="955" y2="332.61"/><line class="k" x1="1105" y1="357.61" x2="955" y2="357.61"/><line class="k" x1="1105" y1="382.61" x2="955" y2="382.61"/><line class="k" x1="1105" y1="407.61" x2="955" y2="407.61"/><line class="g" x1="1055" y1="132.72" x2="1055" y2="282.72"/><line class="g" x1="1030" y1="132.72" x2="1030" y2="282.72"/><line class="g" x1="1005" y1="132.72" x2="1005" y2="282.72"/><line class="g" x1="980" y1="132.72" x2="980" y2="282.72"/><line class="g" x1="1080" y1="132.72" x2="1080" y2="282.72"/><line class="g" x1="1105" y1="157.72" x2="955" y2="157.72"/><line class="g" x1="1105" y1="182.72" x2="955" y2="182.72"/><line class="g" x1="1105" y1="207.72" x2="955" y2="207.72"/><line class="g" x1="1105" y1="232.72" x2="955" y2="232.72"/><line class="g" x1="1105" y1="257.72" x2="955" y2="257.72"/><line class="m" x1="1055" y1="432.5" x2="1055" y2="582.5"/><line class="m" x1="1030" y1="432.5" x2="1030" y2="582.5"/><line class="m" x1="1005" y1="432.5" x2="1005" y2="582.5"/><line class="m" x1="980" y1="432.5" x2="980" y2="582.5"/><line class="m" x1="1080" y1="432.5" x2="1080" y2="582.5"/><line class="m" x1="1105" y1="457.5" x2="955" y2="457.5"/><line class="m" x1="1105" y1="482.5" x2="955" y2="482.5"/><line class="m" x1="1105" y1="507.5" x2="955" y2="507.5"/><line class="m" x1="1105" y1="532.5" x2="955" y2="532.5"/><line class="m" x1="1105" y1="557.5" x2="955" y2="557.5"/><line class="d" x1="755" y1="282.61" x2="755" y2="432.61"/><line class="d" x1="730" y1="282.61" x2="730" y2="432.61"/><line class="d" x1="705" y1="282.61" x2="705" y2="432.61"/><line class="d" x1="680" y1="282.61" x2="680" y2="432.61"/><line class="d" x1="780" y1="282.61" x2="780" y2="432.61"/><line class="d" x1="805" y1="307.61" x2="655" y2="307.61"/><line class="d" x1="805" y1="332.61" x2="655" y2="332.61"/><line class="d" x1="805" y1="357.61" x2="655" y2="357.61"/><line class="d" x1="805" y1="382.61" x2="655" y2="382.61"/><line class="d" x1="805" y1="407.61" x2="655" y2="407.61"/><line class="i" x1="755" y1="132.72" x2="755" y2="282.72"/><line class="i" x1="730" y1="132.72" x2="730" y2="282.72"/><line class="i" x1="705" y1="132.72" x2="705" y2="282.72"/><line class="i" x1="680" y1="132.72" x2="680" y2="282.72"/><line class="i" x1="780" y1="132.72" x2="780" y2="282.72"/><line class="i" x1="805" y1="157.72" x2="655" y2="157.72"/><line class="i" x1="805" y1="182.72" x2="655" y2="182.72"/><line class="i" x1="805" y1="207.72" x2="655" y2="207.72"/><line class="i" x1="805" y1="232.72" x2="655" y2="232.72"/><line class="i" x1="805" y1="257.72" x2="655" y2="257.72"/><line class="l" x1="755" y1="432.5" x2="755" y2="582.5"/><line class="l" x1="730" y1="432.5" x2="730" y2="582.5"/><line class="l" x1="705" y1="432.5" x2="705" y2="582.5"/><line class="l" x1="680" y1="432.5" x2="680" y2="582.5"/><line class="l" x1="780" y1="432.5" x2="780" y2="582.5"/><line class="l" x1="805" y1="457.5" x2="655" y2="457.5"/><line class="l" x1="805" y1="482.5" x2="655" y2="482.5"/><line class="l" x1="805" y1="507.5" x2="655" y2="507.5"/><line class="l" x1="805" y1="532.5" x2="655" y2="532.5"/><line class="l" x1="805" y1="557.5" x2="655" y2="557.5"/><line class="j" x1="905" y1="132.72" x2="905" y2="282.72"/><line class="j" x1="880" y1="132.72" x2="880" y2="282.72"/><line class="j" x1="855" y1="132.72" x2="855" y2="282.72"/><line class="j" x1="830" y1="132.72" x2="830" y2="282.72"/><line class="j" x1="930" y1="132.72" x2="930" y2="282.72"/><line class="j" x1="955" y1="157.72" x2="805" y2="157.72"/><line class="j" x1="955" y1="182.72" x2="805" y2="182.72"/><line class="j" x1="955" y1="207.72" x2="805" y2="207.72"/><line class="j" x1="955" y1="232.72" x2="805" y2="232.72"/><line class="j" x1="955" y1="257.72" x2="805" y2="257.72"/><line class="h" x1="905" y1="432.5" x2="905" y2="582.5"/><line class="h" x1="880" y1="432.5" x2="880" y2="582.5"/><line class="h" x1="855" y1="432.5" x2="855" y2="582.5"/><line class="h" x1="830" y1="432.5" x2="830" y2="582.5"/><line class="h" x1="930" y1="432.5" x2="930" y2="582.5"/><line class="h" x1="955" y1="457.5" x2="805" y2="457.5"/><line class="h" x1="955" y1="482.5" x2="805" y2="482.5"/><line class="h" x1="955" y1="507.5" x2="805" y2="507.5"/><line class="h" x1="955" y1="532.5" x2="805" y2="532.5"/><line class="h" x1="955" y1="557.5" x2="805" y2="557.5"/><rect class="n" x="805" y="282.5" width="150" height="150"/><rect class="r" x="880" y="282.5" width="25" height="25"/><rect class="r" x="930" y="332.5" width="25" height="25"/><rect class="r" x="930" y="382.5" width="25" height="25"/><rect class="r" x="930" y="282.5" width="25" height="25"/><rect class="r" x="905" y="407.5" width="25" height="25"/><rect class="r" x="855" y="407.5" width="25" height="25"/><rect class="r" x="830" y="282.5" width="25" height="25"/><rect class="r" x="805" y="407.5" width="25" height="25"/><rect class="r" x="805" y="357.5" width="25" height="25"/><rect class="r" x="805" y="307.5" width="25" height="25"/><rect class="r" x="905" y="307.5" width="25" height="25"/><rect class="r" x="855" y="307.5" width="25" height="25"/><rect class="r" x="880" y="332.5" width="25" height="25"/><rect class="r" x="830" y="332.5" width="25" height="25"/><rect class="r" x="905" y="357.5" width="25" height="25"/><rect class="r" x="855" y="357.5" width="25" height="25"/><rect class="r" x="880" y="382.5" width="25" height="25"/><rect class="r" x="830" y="382.5" width="25" height="25"/><rect class="e" x="655" y="132.5" width="450" height="450"/><line class="e" x1="655" y1="282.5" x2="1105" y2="282.5"/><line class="e" x1="655" y1="432.5" x2="1105" y2="432.5"/><line class="e" x1="805" y1="582.5" x2="805" y2="132.5"/><line class="e" x1="955" y1="582.5" x2="955" y2="132.5"/><path class="o" d="M637.6,133.31h-3.33l-.9,2.81h-.89l3.02-9.16h.85l3.02,9.16h-.89l-.89-2.81ZM634.51,132.56h2.86l-1.42-4.47h-.01l-1.42,4.47Z"/><path class="o" d="M633.21,161.11v-9.16h2.82c1.66,0,2.66.84,2.66,2.26,0,1.02-.63,1.85-1.55,2.02v.08c1.24.14,2.02,1.02,2.02,2.27,0,1.6-1.15,2.53-3.12,2.53h-2.82ZM634.08,155.99h1.57c1.41,0,2.16-.57,2.16-1.64s-.71-1.63-1.95-1.63h-1.78v3.27ZM635.92,160.35c1.53,0,2.35-.63,2.35-1.81s-.82-1.79-2.4-1.79h-1.79v3.6h1.83Z"/><path class="o" d="M638.35,183.5h.87c0,1.63-1.28,2.8-3.07,2.8-2.11,0-3.33-1.47-3.33-4.01v-1.52c0-2.55,1.22-4.01,3.33-4.01,1.86,0,3.03,1.14,3.08,2.99h-.87c-.05-1.3-.95-2.18-2.21-2.18-1.61,0-2.46,1.1-2.46,3.21v1.52c0,2.1.84,3.21,2.46,3.21,1.33,0,2.17-.76,2.2-1.99Z"/><path class="o" d="M635.45,201.95c2.6,0,3.9,1.52,3.9,4.58s-1.3,4.58-3.9,4.58h-2.43v-9.16h2.43ZM633.89,210.33h1.51c2.08,0,3.07-1.22,3.07-3.79s-.99-3.8-3.07-3.8h-1.51v7.59Z"/><path class="o" d="M638.72,236.11h-5.27v-9.16h5.27v.79h-4.4v3.29h4.16v.77h-4.16v3.52h4.4v.79Z"/><path class="o" d="M633.62,261.11v-9.16h5.26v.79h-4.39v3.44h4.03v.77h-4.03v4.16h-.87Z"/><path class="o" d="M638.29,282.32h-2.26v-.78h3.13v1.97c0,1.63-1.28,2.79-3.07,2.79-2.11,0-3.33-1.47-3.33-4.01v-1.52c0-2.55,1.22-4.01,3.33-4.01,1.86,0,3.03,1.14,3.07,2.99h-.87c-.05-1.3-.94-2.18-2.2-2.18-1.61,0-2.46,1.1-2.46,3.21v1.52c0,2.1.84,3.21,2.46,3.21,1.35,0,2.2-.81,2.2-2.1v-1.07Z"/><path class="o" d="M638.03,311.11v-4.3h-4.19v4.3h-.87v-9.16h.87v4.08h4.19v-4.08h.87v9.16h-.87Z"/><path class="o" d="M633.66,336.11v-.75h1.84v-7.66h-1.84v-.75h4.54v.75h-1.84v7.66h1.84v.75h-4.54Z"/><path class="o" d="M633.12,359.02h.86c.04.88.72,1.48,1.68,1.48,1.11,0,1.74-.69,1.74-1.91v-5.88h-3.1v-.75h3.97v6.67c0,1.67-.99,2.68-2.6,2.68-1.49,0-2.53-.94-2.55-2.29Z"/><path class="o" d="M633.43,386.11v-9.16h.87v4.74h.08l3.89-4.74h1.09l-3.47,4.05,3.85,5.11h-1.12l-3.3-4.44-1,1.17v3.27h-.87Z"/><path class="o" d="M638.99,411.11h-5.33v-9.16h.86v8.37h4.46v.79Z"/><path class="o" d="M633.49,436.11h-.81v-9.16h1.02l2.2,5.89h.07l2.19-5.89h1.03v9.16h-.81v-7.47h-.06l-2.01,5.32h-.75l-2.01-5.32h-.06v7.47Z"/><path class="o" d="M632.95,461.11v-9.16h.88l4.2,7.61h.08v-7.61h.81v9.16h-.86l-4.22-7.61h-.08v7.61h-.81Z"/><path class="o" d="M635.94,486.3c-2.04,0-3.29-1.49-3.29-4.01v-1.52c0-2.53,1.26-4.01,3.29-4.01s3.29,1.48,3.29,4.01v1.52c0,2.53-1.26,4.01-3.29,4.01ZM638.36,482.29v-1.52c0-2.03-.93-3.21-2.43-3.21s-2.42,1.17-2.42,3.21v1.52c0,2.03.93,3.21,2.42,3.21s2.43-1.17,2.43-3.21Z"/><path class="o" d="M636.22,501.95c1.72,0,2.87,1.14,2.87,2.85s-1.15,2.85-2.87,2.85h-2.06v3.46h-.87v-9.16h2.93ZM634.16,506.88h1.85c1.39,0,2.2-.76,2.2-2.08s-.81-2.08-2.2-2.08h-1.85v4.15Z"/><path class="o" d="M637.48,535.95c-.44.24-.96.36-1.54.36-2.04,0-3.29-1.49-3.29-4.01v-1.52c0-2.53,1.26-4.01,3.29-4.01s3.29,1.48,3.29,4.01v1.52c0,1.4-.39,2.48-1.08,3.17l1.14,1.73h-1l-.82-1.24ZM637.02,535.25l-1.36-2.06h1l1.01,1.53c.45-.55.7-1.37.7-2.42v-1.52c0-2.03-.93-3.21-2.43-3.21s-2.42,1.17-2.42,3.21v1.52c0,2.03.93,3.21,2.42,3.21.41,0,.77-.08,1.08-.25Z"/><path class="o" d="M634.01,557.34v3.78h-.85v-9.16h2.98c1.75,0,2.85,1.04,2.85,2.68,0,1.21-.68,2.19-1.74,2.51l1.88,3.97h-.98l-1.74-3.78h-2.41ZM634.01,556.59h2.01c1.36,0,2.11-.68,2.11-1.92s-.74-1.94-2.04-1.94h-2.08v3.86Z"/><path class="o" d="M633.77,583.73c.12,1.1.99,1.78,2.27,1.78s2.17-.71,2.17-1.8c0-.88-.58-1.42-1.89-1.76l-.72-.18c-1.72-.45-2.47-1.23-2.47-2.54,0-1.49,1.15-2.46,2.91-2.46,1.66,0,2.81.96,2.89,2.43h-.87c-.13-1.03-.88-1.64-2.02-1.64-1.27,0-2.02.62-2.02,1.67,0,.86.54,1.36,1.81,1.69l.74.2c1.78.46,2.52,1.23,2.52,2.6,0,1.56-1.21,2.59-3.05,2.59s-3.03-.99-3.14-2.57h.87Z"/><path class="o" d="M1097.9,118.93v-.69h2.57v-6.81h-.09l-2.51,1.62v-.89l2.6-1.68h.79v7.76h2.46v.69h-5.82Z"/><path class="o" d="M1107.97,110.29c1.58,0,2.74,1.18,2.74,2.78,0,.94-.33,1.81-1.15,3.02l-1.93,2.83h-.93l2.37-3.33c.18-.25.21-.29.25-.36l-.08-.06c-.23.35-.86.62-1.39.62-1.52,0-2.63-1.13-2.63-2.67,0-1.66,1.15-2.84,2.77-2.84ZM1105.96,113.08c0,1.18.86,2.1,1.99,2.1s1.99-.91,1.99-2.1-.86-2.1-1.99-2.1-1.99.91-1.99,2.1Z"/><path class="o" d="M652.6,118.93v-.69h2.57v-6.81h-.09l-2.51,1.62v-.89l2.6-1.68h.79v7.76h2.46v.69h-5.82Z"/><path class="o" d="M1072.95,118.93v-.69h2.57v-6.81h-.09l-2.51,1.62v-.89l2.6-1.68h.79v7.76h2.46v.69h-5.82Z"/><path class="o" d="M1080.22,116.67c0-1.05.66-1.92,1.68-2.16v-.09c-.82-.25-1.34-.98-1.34-1.9,0-1.31,1.04-2.24,2.51-2.24s2.51.93,2.51,2.24c0,.93-.5,1.65-1.34,1.9v.09c.99.2,1.68,1.09,1.68,2.16,0,1.44-1.18,2.45-2.85,2.45s-2.85-1.01-2.85-2.45ZM1085.13,116.62c0-1.05-.84-1.78-2.06-1.78s-2.06.73-2.06,1.78.84,1.78,2.06,1.78,2.06-.73,2.06-1.78ZM1084.8,112.57c0-.94-.69-1.56-1.73-1.56s-1.73.62-1.73,1.56.69,1.56,1.73,1.56,1.73-.62,1.73-1.56Z"/><path class="o" d="M1048.01,118.93v-.69h2.57v-6.81h-.09l-2.51,1.62v-.89l2.6-1.68h.79v7.76h2.46v.69h-5.82Z"/><path class="o" d="M1060.07,111.26v-.06h-4.69v-.72h5.51v.75l-3.87,7.71h-.86l3.91-7.67Z"/><path class="o" d="M1023.06,118.93v-.69h2.57v-6.81h-.09l-2.51,1.62v-.89l2.6-1.68h.79v7.76h2.46v.69h-5.82Z"/><path class="o" d="M1033.14,119.1c-1.58,0-2.74-1.18-2.74-2.78,0-.97.33-1.85,1.12-3.02l1.93-2.83h.93l-2.37,3.33c-.26.38-.21.29-.24.36l.08.06c.23-.34.87-.62,1.42-.62,1.52,0,2.63,1.13,2.63,2.67,0,1.66-1.15,2.84-2.77,2.84ZM1035.14,116.31c0-1.18-.86-2.1-1.99-2.1s-1.99.91-1.99,2.1.86,2.1,1.99,2.1,1.99-.91,1.99-2.1Z"/><path class="o" d="M998.12,118.93v-.69h2.57v-6.81h-.09l-2.51,1.62v-.89l2.6-1.68h.79v7.76h2.46v.69h-5.82Z"/><path class="o" d="M1005.45,116.74h.77c.09.97.91,1.65,1.97,1.65,1.16,0,1.93-.84,1.93-2.09s-.78-2.13-1.93-2.13c-.81,0-1.5.38-1.85,1.02h-.74l.44-4.72h4.42v.72h-3.79l-.25,2.99h.09c.44-.49,1.03-.74,1.75-.74,1.56,0,2.66,1.17,2.66,2.84s-1.13,2.81-2.79,2.81c-1.5,0-2.57-.94-2.67-2.36Z"/><path class="o" d="M973.17,118.93v-.69h2.57v-6.81h-.09l-2.51,1.62v-.89l2.6-1.68h.79v7.76h2.46v.69h-5.82Z"/><path class="o" d="M984.36,117.06h-3.88v-.62l2.98-5.97h.82l-2.96,5.84v.06h3.04v-2.54h.73v2.51h1.34v.71h-1.35v1.87h-.72v-1.87Z"/><path class="o" d="M948.23,118.93v-.69h2.57v-6.81h-.09l-2.51,1.62v-.89l2.6-1.68h.79v7.76h2.46v.69h-5.82Z"/><path class="o" d="M957.28,114.21h.9c.98,0,1.69-.69,1.69-1.65s-.67-1.56-1.67-1.56-1.65.6-1.75,1.58h-.8c.12-1.41,1.11-2.29,2.59-2.29s2.48.91,2.48,2.17c0,1.03-.52,1.75-1.42,1.99v.09c1.11.16,1.78.96,1.78,2.13,0,1.41-1.18,2.43-2.78,2.43s-2.74-.94-2.81-2.34h.77c.11.99.91,1.63,2.02,1.63,1.23,0,1.99-.66,1.99-1.71s-.79-1.78-2.04-1.78h-.95v-.69Z"/><path class="o" d="M923.28,118.93v-.69h2.57v-6.81h-.09l-2.51,1.62v-.89l2.6-1.68h.79v7.76h2.46v.69h-5.82Z"/><path class="o" d="M933.31,110.29c1.48,0,2.5.95,2.5,2.33,0,.86-.36,1.52-1.68,3.04l-2.12,2.44v.09h3.94v.73h-5.12v-.51l2.9-3.39c1.04-1.22,1.28-1.68,1.28-2.39,0-1-.67-1.64-1.72-1.64s-1.71.7-1.71,1.78v.04h-.79v-.04c0-1.44,1.06-2.48,2.51-2.48Z"/><path class="o" d="M898.34,118.93v-.69h2.57v-6.81h-.09l-2.51,1.62v-.89l2.6-1.68h.79v7.76h2.46v.69h-5.82Z"/><path class="o" d="M905.76,118.93v-.69h2.57v-6.81h-.09l-2.51,1.62v-.89l2.6-1.68h.79v7.76h2.46v.69h-5.82Z"/><path class="o" d="M873.4,118.93v-.69h2.57v-6.81h-.09l-2.51,1.62v-.89l2.6-1.68h.79v7.76h2.46v.69h-5.82Z"/><path class="o" d="M880.75,114.7c0-2.86.97-4.42,2.73-4.42s2.73,1.56,2.73,4.42-.97,4.42-2.73,4.42-2.73-1.56-2.73-4.42ZM881.63,115.96l3.57-3.27c-.29-1.12-.86-1.71-1.72-1.71-1.27,0-1.93,1.28-1.93,3.72,0,.46.02.88.07,1.25ZM885.41,114.7c0-.47-.02-.89-.07-1.27l-3.57,3.31c.29,1.11.86,1.68,1.71,1.68,1.27,0,1.93-1.28,1.93-3.72Z"/><path class="o" d="M854.81,110.29c1.58,0,2.74,1.18,2.74,2.78,0,.94-.33,1.81-1.15,3.02l-1.93,2.83h-.93l2.37-3.33c.18-.25.21-.29.25-.36l-.08-.06c-.23.35-.86.62-1.39.62-1.52,0-2.63-1.13-2.63-2.67,0-1.66,1.15-2.84,2.77-2.84ZM852.81,113.08c0,1.18.86,2.1,1.99,2.1s1.99-.91,1.99-2.1-.86-2.1-1.99-2.1-1.99.91-1.99,2.1Z"/><path class="o" d="M827.07,116.67c0-1.05.66-1.92,1.68-2.16v-.09c-.82-.25-1.34-.98-1.34-1.9,0-1.31,1.04-2.24,2.51-2.24s2.51.93,2.51,2.24c0,.93-.5,1.65-1.34,1.9v.09c.99.2,1.68,1.09,1.68,2.16,0,1.44-1.18,2.45-2.85,2.45s-2.85-1.01-2.85-2.45ZM831.98,116.62c0-1.05-.84-1.78-2.06-1.78s-2.06.73-2.06,1.78.84,1.78,2.06,1.78,2.06-.73,2.06-1.78ZM831.65,112.57c0-.94-.69-1.56-1.73-1.56s-1.73.62-1.73,1.56.69,1.56,1.73,1.56,1.73-.62,1.73-1.56Z"/><path class="o" d="M806.91,111.26v-.06h-4.69v-.72h5.51v.75l-3.87,7.71h-.86l3.91-7.67Z"/><path class="o" d="M779.99,119.1c-1.58,0-2.74-1.18-2.74-2.78,0-.97.33-1.85,1.12-3.02l1.93-2.83h.93l-2.37,3.33c-.26.38-.21.29-.24.36l.08.06c.23-.34.87-.62,1.42-.62,1.52,0,2.63,1.13,2.63,2.67,0,1.66-1.15,2.84-2.77,2.84ZM781.99,116.31c0-1.18-.86-2.1-1.99-2.1s-1.99.91-1.99,2.1.86,2.1,1.99,2.1,1.99-.91,1.99-2.1Z"/><path class="o" d="M752.29,116.74h.77c.09.97.91,1.65,1.97,1.65,1.16,0,1.93-.84,1.93-2.09s-.78-2.13-1.93-2.13c-.81,0-1.5.38-1.85,1.02h-.74l.44-4.72h4.42v.72h-3.79l-.25,2.99h.09c.44-.49,1.03-.74,1.75-.74,1.56,0,2.66,1.17,2.66,2.84s-1.13,2.81-2.79,2.81c-1.5,0-2.57-.94-2.67-2.36Z"/><path class="o" d="M731.21,117.06h-3.88v-.62l2.98-5.97h.82l-2.96,5.84v.06h3.04v-2.54h.73v2.51h1.34v.71h-1.35v1.87h-.72v-1.87Z"/><path class="o" d="M704.13,114.21h.9c.98,0,1.69-.69,1.69-1.65s-.67-1.56-1.67-1.56-1.65.6-1.75,1.58h-.8c.12-1.41,1.11-2.29,2.59-2.29s2.48.91,2.48,2.17c0,1.03-.52,1.75-1.42,1.99v.09c1.11.16,1.78.96,1.78,2.13,0,1.41-1.18,2.43-2.78,2.43s-2.74-.94-2.81-2.34h.77c.11.99.91,1.63,2.02,1.63,1.23,0,1.99-.66,1.99-1.71s-.79-1.78-2.04-1.78h-.95v-.69Z"/><path class="o" d="M680.16,110.29c1.48,0,2.5.95,2.5,2.33,0,.86-.36,1.52-1.68,3.04l-2.12,2.44v.09h3.94v.73h-5.12v-.51l2.9-3.39c1.04-1.22,1.28-1.68,1.28-2.39,0-1-.67-1.64-1.72-1.64s-1.71.7-1.71,1.78v.04h-.79v-.04c0-1.44,1.06-2.48,2.51-2.48Z"/><line class="f" x1="205" y1="132.72" x2="205" y2="282.72"/><line class="f" x1="180" y1="132.72" x2="180" y2="282.72"/><circle class="p" cx="180" cy="207.72" r="5"/><line class="f" x1="155" y1="132.72" x2="155" y2="282.72"/><line class="f" x1="130" y1="132.72" x2="130" y2="282.72"/><line class="f" x1="230" y1="132.72" x2="230" y2="282.72"/><line class="f" x1="255" y1="157.72" x2="105" y2="157.72"/><line class="f" x1="255" y1="182.72" x2="105" y2="182.72"/><line class="f" x1="255" y1="207.72" x2="105" y2="207.72"/><line class="f" x1="255" y1="232.72" x2="105" y2="232.72"/><line class="f" x1="255" y1="257.72" x2="105" y2="257.72"/><line class="f" x1="205" y1="282.61" x2="205" y2="432.61"/><line class="f" x1="180" y1="282.61" x2="180" y2="432.61"/><circle class="p" cx="180" cy="357.61" r="5"/><line class="f" x1="155" y1="282.61" x2="155" y2="432.61"/><line class="f" x1="130" y1="282.61" x2="130" y2="432.61"/><line class="f" x1="230" y1="282.61" x2="230" y2="432.61"/><line class="f" x1="255" y1="307.61" x2="105" y2="307.61"/><line class="f" x1="255" y1="332.61" x2="105" y2="332.61"/><line class="f" x1="255" y1="357.61" x2="105" y2="357.61"/><line class="f" x1="255" y1="382.61" x2="105" y2="382.61"/><line class="f" x1="255" y1="407.61" x2="105" y2="407.61"/><line class="f" x1="205" y1="432.5" x2="205" y2="582.5"/><line class="f" x1="180" y1="432.5" x2="180" y2="582.5"/><circle class="p" cx="180" cy="507.5" r="5"/><line class="f" x1="155" y1="432.5" x2="155" y2="582.5"/><line class="f" x1="130" y1="432.5" x2="130" y2="582.5"/><line class="f" x1="230" y1="432.5" x2="230" y2="582.5"/><line class="f" x1="255" y1="457.5" x2="105" y2="457.5"/><line class="f" x1="255" y1="482.5" x2="105" y2="482.5"/><line class="f" x1="255" y1="507.5" x2="105" y2="507.5"/><line class="f" x1="255" y1="532.5" x2="105" y2="532.5"/><line class="f" x1="255" y1="557.5" x2="105" y2="557.5"/><line class="f" x1="505" y1="132.72" x2="505" y2="282.72"/><line class="f" x1="480" y1="132.72" x2="480" y2="282.72"/><circle class="p" cx="480" cy="207.72" r="5"/><line class="f" x1="455" y1="132.72" x2="455" y2="282.72"/><line class="f" x1="430" y1="132.72" x2="430" y2="282.72"/><line class="f" x1="530" y1="132.72" x2="530" y2="282.72"/><line class="f" x1="555" y1="157.72" x2="405" y2="157.72"/><line class="f" x1="555" y1="182.72" x2="405" y2="182.72"/><line class="f" x1="555" y1="207.72" x2="405" y2="207.72"/><line class="f" x1="555" y1="232.72" x2="405" y2="232.72"/><line class="f" x1="555" y1="257.72" x2="405" y2="257.72"/><line class="f" x1="505" y1="282.61" x2="505" y2="432.61"/><line class="f" x1="480" y1="282.61" x2="480" y2="432.61"/><circle class="p" cx="480" cy="357.61" r="5"/><line class="f" x1="455" y1="282.61" x2="455" y2="432.61"/><line class="f" x1="430" y1="282.61" x2="430" y2="432.61"/><line class="f" x1="530" y1="282.61" x2="530" y2="432.61"/><line class="f" x1="555" y1="307.61" x2="405" y2="307.61"/><line class="f" x1="555" y1="332.61" x2="405" y2="332.61"/><line class="f" x1="555" y1="357.61" x2="405" y2="357.61"/><line class="f" x1="555" y1="382.61" x2="405" y2="382.61"/><line class="f" x1="555" y1="407.61" x2="405" y2="407.61"/><line class="f" x1="505" y1="432.5" x2="505" y2="582.5"/><line class="f" x1="480" y1="432.5" x2="480" y2="582.5"/><circle class="p" cx="480" cy="507.5" r="5"/><line class="f" x1="455" y1="432.5" x2="455" y2="582.5"/><line class="f" x1="430" y1="432.5" x2="430" y2="582.5"/><line class="f" x1="530" y1="432.5" x2="530" y2="582.5"/><line class="f" x1="555" y1="457.5" x2="405" y2="457.5"/><line class="f" x1="555" y1="482.5" x2="405" y2="482.5"/><line class="f" x1="555" y1="507.5" x2="405" y2="507.5"/><line class="f" x1="555" y1="532.5" x2="405" y2="532.5"/><line class="f" x1="555" y1="557.5" x2="405" y2="557.5"/><rect class="e" x="105" y="132.5" width="450" height="450"/><line class="f" x1="105" y1="282.5" x2="555" y2="282.5"/><line class="f" x1="105" y1="432.5" x2="555" y2="432.5"/><line class="f" x1="255" y1="582.5" x2="255" y2="132.5"/><line class="f" x1="405" y1="582.5" x2="405" y2="132.5"/><path class="o" d="M83.05,136.11v-.75h2.79v-7.38h-.09l-2.72,1.75v-.96l2.82-1.82h.86v8.41h2.66v.75h-6.31Z"/><path class="o" d="M85.87,151.76c1.61,0,2.71,1.03,2.71,2.53,0,.93-.39,1.64-1.82,3.29l-2.29,2.65v.1h4.27v.79h-5.55v-.55l3.14-3.67c1.12-1.33,1.38-1.82,1.38-2.59,0-1.08-.73-1.78-1.86-1.78s-1.85.75-1.85,1.92v.04h-.86v-.04c0-1.56,1.15-2.68,2.72-2.68Z"/><path class="o" d="M84.82,181.01h.97c1.07,0,1.83-.75,1.83-1.79s-.73-1.69-1.81-1.69-1.78.65-1.89,1.71h-.87c.13-1.53,1.2-2.47,2.8-2.47s2.69.98,2.69,2.35c0,1.11-.56,1.9-1.54,2.15v.1c1.21.17,1.93,1.04,1.93,2.31,0,1.52-1.28,2.63-3.01,2.63s-2.96-1.02-3.05-2.53h.83c.11,1.07.98,1.77,2.19,1.77,1.33,0,2.16-.71,2.16-1.85s-.86-1.93-2.21-1.93h-1.03v-.75Z"/><path class="o" d="M87.14,209.09h-4.2v-.67l3.23-6.47h.89l-3.21,6.33v.06h3.29v-2.75h.79v2.72h1.45v.77h-1.47v2.03h-.78v-2.03Z"/><path class="o" d="M82.95,233.75h.83c.1,1.05.98,1.79,2.14,1.79,1.26,0,2.09-.91,2.09-2.27s-.84-2.3-2.09-2.3c-.88,0-1.62.41-2,1.11h-.81l.48-5.12h4.79v.78h-4.11l-.27,3.24h.1c.48-.53,1.11-.8,1.9-.8,1.69,0,2.88,1.27,2.88,3.08s-1.22,3.05-3.03,3.05c-1.62,0-2.79-1.02-2.89-2.55Z"/><path class="o" d="M85.93,261.3c-1.71,0-2.96-1.28-2.96-3.01,0-1.05.36-2.01,1.22-3.27l2.1-3.07h1.01l-2.57,3.61c-.28.41-.22.32-.26.39l.08.06c.25-.37.95-.67,1.54-.67,1.64,0,2.85,1.22,2.85,2.89,0,1.8-1.24,3.07-3,3.07ZM88.1,258.28c0-1.28-.93-2.27-2.15-2.27s-2.15.99-2.15,2.27.93,2.27,2.15,2.27,2.15-.99,2.15-2.27Z"/><path class="o" d="M88.08,277.8v-.07h-5.08v-.78h5.97v.81l-4.2,8.35h-.93l4.23-8.31Z"/><path class="o" d="M82.89,308.67c0-1.14.72-2.08,1.82-2.34v-.09c-.89-.27-1.45-1.06-1.45-2.06,0-1.42,1.13-2.42,2.72-2.42s2.72,1,2.72,2.42c0,1.01-.55,1.79-1.45,2.06v.09c1.07.22,1.82,1.18,1.82,2.34,0,1.55-1.28,2.65-3.08,2.65s-3.09-1.1-3.09-2.65ZM88.21,308.62c0-1.14-.91-1.92-2.23-1.92s-2.23.79-2.23,1.92.91,1.92,2.23,1.92,2.23-.79,2.23-1.92ZM87.85,304.23c0-1.02-.74-1.69-1.87-1.69s-1.87.67-1.87,1.69.74,1.69,1.87,1.69,1.87-.67,1.87-1.69Z"/><path class="o" d="M85.92,326.76c1.71,0,2.96,1.28,2.96,3.01,0,1.02-.36,1.96-1.25,3.27l-2.09,3.07h-1.01l2.57-3.61c.19-.27.22-.32.27-.39l-.08-.06c-.25.38-.93.67-1.51.67-1.64,0-2.85-1.23-2.85-2.89,0-1.8,1.24-3.07,3-3.07ZM83.75,329.79c0,1.28.93,2.27,2.15,2.27s2.15-.99,2.15-2.27-.93-2.27-2.15-2.27-2.15.99-2.15,2.27Z"/><path class="o" d="M79.03,361.11v-.75h2.79v-7.38h-.09l-2.72,1.75v-.96l2.82-1.82h.86v8.41h2.66v.75h-6.31Z"/><path class="o" d="M87,356.54c0-3.1,1.05-4.79,2.96-4.79s2.96,1.7,2.96,4.79-1.05,4.79-2.96,4.79-2.96-1.69-2.96-4.79ZM87.95,357.89l3.87-3.54c-.31-1.22-.93-1.85-1.86-1.85-1.37,0-2.09,1.38-2.09,4.03,0,.49.03.95.08,1.36ZM92.05,356.54c0-.51-.03-.96-.08-1.38l-3.87,3.59c.31,1.2.93,1.82,1.85,1.82,1.37,0,2.09-1.38,2.09-4.03Z"/><path class="o" d="M79.03,386.11v-.75h2.79v-7.38h-.09l-2.72,1.75v-.96l2.82-1.82h.86v8.41h2.66v.75h-6.31Z"/><path class="o" d="M87.07,386.11v-.75h2.79v-7.38h-.1l-2.72,1.75v-.96l2.82-1.82h.86v8.41h2.66v.75h-6.31Z"/><path class="o" d="M79.03,411.11v-.75h2.79v-7.38h-.09l-2.72,1.75v-.96l2.82-1.82h.86v8.41h2.66v.75h-6.31Z"/><path class="o" d="M89.89,401.76c1.61,0,2.71,1.03,2.71,2.53,0,.93-.39,1.64-1.82,3.29l-2.29,2.65v.1h4.27v.79h-5.55v-.55l3.14-3.67c1.12-1.33,1.38-1.82,1.38-2.59,0-1.08-.73-1.78-1.86-1.78s-1.85.75-1.85,1.92v.04h-.86v-.04c0-1.56,1.15-2.68,2.72-2.68Z"/><path class="o" d="M79.03,436.11v-.75h2.79v-7.38h-.09l-2.72,1.75v-.96l2.82-1.82h.86v8.41h2.66v.75h-6.31Z"/><path class="o" d="M88.84,431.01h.97c1.07,0,1.83-.75,1.83-1.79s-.73-1.69-1.81-1.69-1.78.65-1.89,1.71h-.87c.13-1.53,1.2-2.47,2.81-2.47s2.68.98,2.68,2.35c0,1.11-.57,1.9-1.54,2.15v.1c1.21.17,1.93,1.04,1.93,2.31,0,1.52-1.28,2.63-3.02,2.63s-2.96-1.02-3.05-2.53h.83c.11,1.07.98,1.77,2.19,1.77,1.33,0,2.16-.71,2.16-1.85s-.86-1.93-2.21-1.93h-1.03v-.75Z"/><path class="o" d="M79.03,461.11v-.75h2.79v-7.38h-.09l-2.72,1.75v-.96l2.82-1.82h.86v8.41h2.66v.75h-6.31Z"/><path class="o" d="M91.15,459.09h-4.2v-.67l3.23-6.47h.89l-3.21,6.33v.06h3.29v-2.75h.79v2.72h1.45v.77h-1.47v2.03h-.78v-2.03Z"/><path class="o" d="M79.03,486.11v-.75h2.79v-7.38h-.09l-2.72,1.75v-.96l2.82-1.82h.86v8.41h2.66v.75h-6.31Z"/><path class="o" d="M86.97,483.75h.83c.1,1.05.98,1.79,2.14,1.79,1.26,0,2.09-.91,2.09-2.27s-.84-2.3-2.09-2.3c-.88,0-1.62.41-2,1.11h-.81l.48-5.12h4.79v.78h-4.11l-.27,3.24h.09c.48-.53,1.11-.8,1.9-.8,1.7,0,2.88,1.27,2.88,3.08s-1.23,3.05-3.03,3.05c-1.62,0-2.79-1.02-2.89-2.55Z"/><path class="o" d="M79.03,511.11v-.75h2.79v-7.38h-.09l-2.72,1.75v-.96l2.82-1.82h.86v8.41h2.66v.75h-6.31Z"/><path class="o" d="M89.95,511.3c-1.71,0-2.96-1.28-2.96-3.01,0-1.05.36-2.01,1.22-3.27l2.09-3.07h1.01l-2.57,3.61c-.28.41-.22.32-.26.39l.08.06c.25-.37.95-.67,1.54-.67,1.64,0,2.85,1.22,2.85,2.89,0,1.8-1.24,3.07-3,3.07ZM92.12,508.28c0-1.28-.93-2.27-2.15-2.27s-2.15.99-2.15,2.27.93,2.27,2.15,2.27,2.15-.99,2.15-2.27Z"/><path class="o" d="M79.03,536.11v-.75h2.79v-7.38h-.09l-2.72,1.75v-.96l2.82-1.82h.86v8.41h2.66v.75h-6.31Z"/><path class="o" d="M92.09,527.8v-.07h-5.08v-.78h5.97v.81l-4.2,8.35h-.93l4.23-8.31Z"/><path class="o" d="M79.03,561.11v-.75h2.79v-7.38h-.09l-2.72,1.75v-.96l2.82-1.82h.86v8.41h2.66v.75h-6.31Z"/><path class="o" d="M86.91,558.67c0-1.14.72-2.08,1.81-2.34v-.09c-.89-.27-1.45-1.06-1.45-2.06,0-1.42,1.13-2.42,2.72-2.42s2.72,1,2.72,2.42c0,1.01-.54,1.79-1.45,2.06v.09c1.07.22,1.82,1.18,1.82,2.34,0,1.55-1.28,2.65-3.09,2.65s-3.08-1.1-3.08-2.65ZM92.23,558.62c0-1.14-.91-1.92-2.23-1.92s-2.23.79-2.23,1.92.91,1.92,2.23,1.92,2.23-.79,2.23-1.92ZM91.87,554.23c0-1.02-.74-1.69-1.87-1.69s-1.87.67-1.87,1.69.74,1.69,1.87,1.69,1.87-.67,1.87-1.69Z"/><path class="o" d="M79.03,586.11v-.75h2.79v-7.38h-.09l-2.72,1.75v-.96l2.82-1.82h.86v8.41h2.66v.75h-6.31Z"/><path class="o" d="M89.94,576.76c1.71,0,2.96,1.28,2.96,3.01,0,1.02-.36,1.96-1.25,3.27l-2.1,3.07h-1.01l2.57-3.61c.19-.27.22-.32.27-.39l-.08-.06c-.25.38-.93.67-1.51.67-1.64,0-2.85-1.23-2.85-2.89,0-1.8,1.24-3.07,3-3.07ZM87.77,579.79c0,1.28.93,2.27,2.15,2.27s2.15-.99,2.15-2.27-.93-2.27-2.15-2.27-2.15.99-2.15,2.27Z"/><path class="o" d="M547.9,118.93v-.69h2.57v-6.81h-.09l-2.51,1.62v-.89l2.6-1.68h.79v7.76h2.46v.69h-5.82Z"/><path class="o" d="M557.97,110.29c1.58,0,2.74,1.18,2.74,2.78,0,.94-.33,1.81-1.15,3.02l-1.93,2.83h-.93l2.37-3.33c.18-.25.21-.29.25-.36l-.08-.06c-.23.35-.86.62-1.39.62-1.52,0-2.63-1.13-2.63-2.67,0-1.66,1.15-2.84,2.77-2.84ZM555.96,113.08c0,1.18.86,2.1,1.99,2.1s1.99-.91,1.99-2.1-.86-2.1-1.99-2.1-1.99.91-1.99,2.1Z"/><path class="o" d="M102.6,118.93v-.69h2.57v-6.81h-.09l-2.51,1.62v-.89l2.6-1.68h.79v7.76h2.46v.69h-5.82Z"/><path class="o" d="M522.95,118.93v-.69h2.57v-6.81h-.09l-2.51,1.62v-.89l2.6-1.68h.79v7.76h2.46v.69h-5.82Z"/><path class="o" d="M530.22,116.67c0-1.05.66-1.92,1.68-2.16v-.09c-.82-.25-1.34-.98-1.34-1.9,0-1.31,1.04-2.24,2.51-2.24s2.51.93,2.51,2.24c0,.93-.5,1.65-1.34,1.9v.09c.99.2,1.68,1.09,1.68,2.16,0,1.44-1.18,2.45-2.85,2.45s-2.85-1.01-2.85-2.45ZM535.13,116.62c0-1.05-.84-1.78-2.06-1.78s-2.06.73-2.06,1.78.84,1.78,2.06,1.78,2.06-.73,2.06-1.78ZM534.8,112.57c0-.94-.69-1.56-1.73-1.56s-1.73.62-1.73,1.56.69,1.56,1.73,1.56,1.73-.62,1.73-1.56Z"/><path class="o" d="M498.01,118.93v-.69h2.57v-6.81h-.09l-2.51,1.62v-.89l2.6-1.68h.79v7.76h2.46v.69h-5.82Z"/><path class="o" d="M510.07,111.26v-.06h-4.69v-.72h5.51v.75l-3.87,7.71h-.86l3.91-7.67Z"/><path class="o" d="M473.06,118.93v-.69h2.57v-6.81h-.09l-2.51,1.62v-.89l2.6-1.68h.79v7.76h2.46v.69h-5.82Z"/><path class="o" d="M483.14,119.1c-1.58,0-2.74-1.18-2.74-2.78,0-.97.33-1.85,1.12-3.02l1.93-2.83h.93l-2.37,3.33c-.26.38-.21.29-.24.36l.08.06c.23-.34.87-.62,1.42-.62,1.52,0,2.63,1.13,2.63,2.67,0,1.66-1.15,2.84-2.77,2.84ZM485.14,116.31c0-1.18-.86-2.1-1.99-2.1s-1.99.91-1.99,2.1.86,2.1,1.99,2.1,1.99-.91,1.99-2.1Z"/><path class="o" d="M448.12,118.93v-.69h2.57v-6.81h-.09l-2.51,1.62v-.89l2.6-1.68h.79v7.76h2.46v.69h-5.82Z"/><path class="o" d="M455.45,116.74h.77c.09.97.91,1.65,1.97,1.65,1.16,0,1.93-.84,1.93-2.09s-.78-2.13-1.93-2.13c-.81,0-1.5.38-1.85,1.02h-.74l.44-4.72h4.42v.72h-3.79l-.25,2.99h.09c.44-.49,1.03-.74,1.75-.74,1.56,0,2.66,1.17,2.66,2.84s-1.13,2.81-2.79,2.81c-1.5,0-2.57-.94-2.67-2.36Z"/><path class="o" d="M423.17,118.93v-.69h2.57v-6.81h-.09l-2.51,1.62v-.89l2.6-1.68h.79v7.76h2.46v.69h-5.82Z"/><path class="o" d="M434.36,117.06h-3.88v-.62l2.98-5.97h.82l-2.96,5.84v.06h3.04v-2.54h.73v2.51h1.34v.71h-1.35v1.87h-.72v-1.87Z"/><path class="o" d="M398.23,118.93v-.69h2.57v-6.81h-.09l-2.51,1.62v-.89l2.6-1.68h.79v7.76h2.46v.69h-5.82Z"/><path class="o" d="M407.28,114.21h.9c.98,0,1.69-.69,1.69-1.65s-.67-1.56-1.67-1.56-1.65.6-1.75,1.58h-.8c.12-1.41,1.11-2.29,2.59-2.29s2.48.91,2.48,2.17c0,1.03-.52,1.75-1.42,1.99v.09c1.11.16,1.78.96,1.78,2.13,0,1.41-1.18,2.43-2.78,2.43s-2.74-.94-2.81-2.34h.77c.11.99.91,1.63,2.02,1.63,1.23,0,1.99-.66,1.99-1.71s-.79-1.78-2.04-1.78h-.95v-.69Z"/><path class="o" d="M373.28,118.93v-.69h2.57v-6.81h-.09l-2.51,1.62v-.89l2.6-1.68h.79v7.76h2.46v.69h-5.82Z"/><path class="o" d="M383.31,110.29c1.48,0,2.5.95,2.5,2.33,0,.86-.36,1.52-1.68,3.04l-2.12,2.44v.09h3.94v.73h-5.12v-.51l2.9-3.39c1.04-1.22,1.28-1.68,1.28-2.39,0-1-.67-1.64-1.72-1.64s-1.71.7-1.71,1.78v.04h-.79v-.04c0-1.44,1.06-2.48,2.51-2.48Z"/><path class="o" d="M348.34,118.93v-.69h2.57v-6.81h-.09l-2.51,1.62v-.89l2.6-1.68h.79v7.76h2.46v.69h-5.82Z"/><path class="o" d="M355.76,118.93v-.69h2.57v-6.81h-.09l-2.51,1.62v-.89l2.6-1.68h.79v7.76h2.46v.69h-5.82Z"/><path class="o" d="M323.4,118.93v-.69h2.57v-6.81h-.09l-2.51,1.62v-.89l2.6-1.68h.79v7.76h2.46v.69h-5.82Z"/><path class="o" d="M330.75,114.7c0-2.86.97-4.42,2.73-4.42s2.73,1.56,2.73,4.42-.97,4.42-2.73,4.42-2.73-1.56-2.73-4.42ZM331.63,115.96l3.57-3.27c-.29-1.12-.86-1.71-1.72-1.71-1.27,0-1.93,1.28-1.93,3.72,0,.46.02.88.07,1.25ZM335.41,114.7c0-.47-.02-.89-.07-1.27l-3.57,3.31c.29,1.11.86,1.68,1.71,1.68,1.27,0,1.93-1.28,1.93-3.72Z"/><path class="o" d="M304.81,110.29c1.58,0,2.74,1.18,2.74,2.78,0,.94-.33,1.81-1.15,3.02l-1.93,2.83h-.93l2.37-3.33c.18-.25.21-.29.25-.36l-.08-.06c-.23.35-.86.62-1.39.62-1.52,0-2.63-1.13-2.63-2.67,0-1.66,1.15-2.84,2.77-2.84ZM302.81,113.08c0,1.18.86,2.1,1.99,2.1s1.99-.91,1.99-2.1-.86-2.1-1.99-2.1-1.99.91-1.99,2.1Z"/><path class="o" d="M277.07,116.67c0-1.05.66-1.92,1.68-2.16v-.09c-.82-.25-1.34-.98-1.34-1.9,0-1.31,1.04-2.24,2.51-2.24s2.51.93,2.51,2.24c0,.93-.5,1.65-1.34,1.9v.09c.99.2,1.68,1.09,1.68,2.16,0,1.44-1.18,2.45-2.85,2.45s-2.85-1.01-2.85-2.45ZM281.98,116.62c0-1.05-.84-1.78-2.06-1.78s-2.06.73-2.06,1.78.84,1.78,2.06,1.78,2.06-.73,2.06-1.78ZM281.65,112.57c0-.94-.69-1.56-1.73-1.56s-1.73.62-1.73,1.56.69,1.56,1.73,1.56,1.73-.62,1.73-1.56Z"/><path class="o" d="M256.91,111.26v-.06h-4.69v-.72h5.51v.75l-3.87,7.71h-.86l3.91-7.67Z"/><path class="o" d="M229.99,119.1c-1.58,0-2.74-1.18-2.74-2.78,0-.97.33-1.85,1.12-3.02l1.93-2.83h.93l-2.37,3.33c-.26.38-.21.29-.24.36l.08.06c.23-.34.87-.62,1.42-.62,1.52,0,2.63,1.13,2.63,2.67,0,1.66-1.15,2.84-2.77,2.84ZM231.99,116.31c0-1.18-.86-2.1-1.99-2.1s-1.99.91-1.99,2.1.86,2.1,1.99,2.1,1.99-.91,1.99-2.1Z"/><path class="o" d="M202.29,116.74h.77c.09.97.91,1.65,1.97,1.65,1.16,0,1.93-.84,1.93-2.09s-.78-2.13-1.93-2.13c-.81,0-1.5.38-1.85,1.02h-.74l.44-4.72h4.42v.72h-3.79l-.25,2.99h.09c.44-.49,1.03-.74,1.75-.74,1.56,0,2.66,1.17,2.66,2.84s-1.13,2.81-2.79,2.81c-1.5,0-2.57-.94-2.67-2.36Z"/><path class="o" d="M181.21,117.06h-3.88v-.62l2.98-5.97h.82l-2.96,5.84v.06h3.04v-2.54h.73v2.51h1.34v.71h-1.35v1.87h-.72v-1.87Z"/><path class="o" d="M154.13,114.21h.9c.98,0,1.69-.69,1.69-1.65s-.67-1.56-1.67-1.56-1.65.6-1.75,1.58h-.8c.12-1.41,1.11-2.29,2.59-2.29s2.48.91,2.48,2.17c0,1.03-.52,1.75-1.42,1.99v.09c1.11.16,1.78.96,1.78,2.13,0,1.41-1.18,2.43-2.78,2.43s-2.74-.94-2.81-2.34h.77c.11.99.91,1.63,2.02,1.63,1.23,0,1.99-.66,1.99-1.71s-.79-1.78-2.04-1.78h-.95v-.69Z"/><path class="o" d="M130.16,110.29c1.48,0,2.5.95,2.5,2.33,0,.86-.36,1.52-1.68,3.04l-2.12,2.44v.09h3.94v.73h-5.12v-.51l2.9-3.39c1.04-1.22,1.28-1.68,1.28-2.39,0-1-.67-1.64-1.72-1.64s-1.71.7-1.71,1.78v.04h-.79v-.04c0-1.44,1.06-2.48,2.51-2.48Z"/><path class="p" d="M41.07,631.42c0-3.63,2.8-6.43,6.35-6.43s6.35,2.8,6.35,6.43-2.8,6.43-6.35,6.43-6.35-2.8-6.35-6.43ZM52.53,631.42c0-2.95-2.24-5.29-5.11-5.29s-5.11,2.33-5.11,5.29,2.24,5.29,5.11,5.29,5.11-2.33,5.11-5.29ZM48.98,630.27c-.21-.64-.68-1.05-1.41-1.05-1.1,0-1.75.86-1.75,2.19s.64,2.19,1.75,2.19c.73,0,1.25-.39,1.41-.98h1.28c-.2,1.28-1.3,2.19-2.7,2.19-1.85,0-3.05-1.29-3.05-3.4s1.2-3.4,3.05-3.4c1.39,0,2.47.93,2.7,2.26h-1.28Z"/><path class="p" d="M76.97,622.61c2.96,0,5,1.9,5,4.66,0,1.72-.73,3.04-3.36,6.07l-4.23,4.89v.19h7.88v1.45h-10.24v-1.02l5.8-6.77c2.07-2.45,2.55-3.35,2.55-4.78,0-1.99-1.35-3.28-3.43-3.28s-3.41,1.39-3.41,3.55v.07h-1.58v-.07c0-2.87,2.12-4.96,5.03-4.96Z"/><path class="p" d="M86.48,631.42c0-5.72,1.93-8.85,5.46-8.85s5.46,3.13,5.46,8.85-1.93,8.85-5.46,8.85-5.46-3.13-5.46-8.85ZM88.22,633.93l7.15-6.54c-.57-2.25-1.72-3.41-3.43-3.41-2.53,0-3.86,2.55-3.86,7.44,0,.91.05,1.76.14,2.51ZM95.79,631.42c0-.94-.05-1.78-.14-2.54l-7.14,6.62c.57,2.21,1.72,3.36,3.42,3.36,2.53,0,3.86-2.55,3.86-7.44Z"/><path class="p" d="M106.64,622.61c2.96,0,5,1.9,5,4.66,0,1.72-.73,3.04-3.36,6.07l-4.23,4.89v.19h7.88v1.45h-10.24v-1.02l5.8-6.77c2.07-2.45,2.55-3.35,2.55-4.78,0-1.99-1.35-3.28-3.43-3.28s-3.41,1.39-3.41,3.55v.07h-1.58v-.07c0-2.87,2.12-4.96,5.03-4.96Z"/><path class="p" d="M116.09,635.5h1.54c.19,1.95,1.82,3.3,3.95,3.3,2.32,0,3.86-1.68,3.86-4.18s-1.56-4.25-3.86-4.25c-1.63,0-3,.76-3.69,2.04h-1.49l.88-9.45h8.84v1.44h-7.58l-.5,5.98h.18c.88-.98,2.05-1.48,3.5-1.48,3.13,0,5.32,2.34,5.32,5.68s-2.26,5.62-5.59,5.62c-3,0-5.14-1.89-5.34-4.71Z"/><path class="p" d="M146.64,639.87v-16.91h1.61v8.74h.14l7.18-8.74h2l-6.41,7.48,7.1,9.43h-2.07l-6.09-8.2-1.85,2.17v6.04h-1.61Z"/><path class="p" d="M160.76,634.5v-1.88c0-3.4,2.09-5.58,5.34-5.58s5.34,2.18,5.34,5.58v1.88c0,3.4-2.09,5.58-5.34,5.58s-5.34-2.18-5.34-5.58ZM162.3,632.83v1.48c0,2.73,1.46,4.41,3.81,4.41s3.81-1.68,3.81-4.41v-1.48c0-2.73-1.46-4.41-3.81-4.41s-3.81,1.68-3.81,4.41Z"/><path class="p" d="M175.95,622.22h1.46v7.3h.15c.69-1.59,2.17-2.48,4.12-2.48,2.75,0,4.24,1.63,4.24,4.63v8.2h-1.54v-7.82c0-2.47-1-3.63-3.12-3.63-2.26,0-3.8,1.61-3.8,3.95v7.5h-1.54v-17.65Z"/><path class="p" d="M200.97,636.75c-.42,2.02-2.34,3.33-4.89,3.33-3.4,0-5.37-2.1-5.37-5.7v-1.84c0-3.33,2.06-5.51,5.19-5.51s5.12,2.16,5.12,5.93v1h-8.78v.43c0,2.64,1.49,4.31,3.83,4.31,1.72,0,2.98-.73,3.36-1.96h1.52ZM192.25,632.7h7.22c0-2.68-1.34-4.3-3.56-4.3s-3.66,1.61-3.66,4.3Z"/><path class="p" d="M205.62,627.25h1.46v2.27h.15c.69-1.59,2.17-2.48,4.12-2.48,2.75,0,4.24,1.63,4.24,4.63v8.2h-1.54v-7.82c0-2.47-1-3.63-3.12-3.63-2.26,0-3.8,1.61-3.8,3.95v7.5h-1.54v-12.62Z"/><path class="p" d="M232.87,633.06v-1.36h14.84v1.36h-14.84Z"/><path class="p" d="M265.45,639.87h-1.5v-16.91h1.89l4.07,10.88h.13l4.04-10.88h1.9v16.91h-1.5v-13.79h-.12l-3.7,9.82h-1.38l-3.7-9.82h-.12v13.79Z"/><path class="p" d="M284,639.87v-15.46h-5.2v-1.45h12v1.45h-5.2v15.46h-1.59Z"/><path class="p" d="M300.16,622.96c3.18,0,5.3,2.11,5.3,5.26s-2.12,5.26-5.3,5.26h-3.81v6.39h-1.61v-16.91h5.41ZM296.35,632.05h3.42c2.57,0,4.05-1.41,4.05-3.83s-1.49-3.83-4.05-3.83h-3.42v7.66Z"/><path class="p" d="M321.88,633.06v-1.36h14.84v1.36h-14.84Z"/><path class="p" d="M354.17,639.87v-1.24h4.44v-10.14h-4.46v-1.24h6v11.38h4.32v1.24h-10.3ZM357.75,622.46c0-.8.66-1.45,1.45-1.45s1.45.66,1.45,1.45-.66,1.45-1.45,1.45-1.45-.66-1.45-1.45Z"/><path class="p" d="M379.79,639.87h-1.44v-8.71c0-1.82-.61-2.74-1.79-2.74-1.24,0-1.99,1.12-1.99,3v8.45h-1.44v-8.72c0-1.8-.61-2.73-1.8-2.73-1.27,0-2.04,1.14-2.04,3v8.45h-1.44v-12.62h1.39v1.69h.16c.33-1.17,1.25-1.9,2.41-1.9s2.06.7,2.33,1.9h.16c.34-1.15,1.41-1.9,2.71-1.9,1.84,0,2.78,1.28,2.78,3.77v9.06Z"/><path class="p" d="M392.29,627.25h1.95l-4.99,4.89,5.34,7.73h-1.85l-4.57-6.68-1.95,1.9v4.78h-1.54v-17.65h1.54v10.97h.14l5.93-5.94Z"/><path class="p" d="M398.14,634.5v-1.88c0-3.4,2.09-5.58,5.34-5.58s5.34,2.18,5.34,5.58v1.88c0,3.4-2.09,5.58-5.34,5.58s-5.34-2.18-5.34-5.58ZM399.67,632.83v1.48c0,2.73,1.46,4.41,3.81,4.41s3.81-1.68,3.81-4.41v-1.48c0-2.73-1.46-4.41-3.81-4.41s-3.81,1.68-3.81,4.41Z"/><path class="p" d="M413.32,622.22h1.46v7.3h.15c.69-1.59,2.17-2.48,4.12-2.48,2.75,0,4.24,1.63,4.24,4.63v8.2h-1.54v-7.82c0-2.47-1-3.63-3.12-3.63-2.26,0-3.8,1.61-3.8,3.95v7.5h-1.54v-17.65Z"/><path class="p" d="M438.34,636.75c-.42,2.02-2.34,3.33-4.89,3.33-3.4,0-5.37-2.1-5.37-5.7v-1.84c0-3.33,2.06-5.51,5.19-5.51s5.12,2.16,5.12,5.93v1h-8.78v.43c0,2.64,1.49,4.31,3.83,4.31,1.72,0,2.98-.73,3.36-1.96h1.52ZM429.62,632.7h7.22c0-2.68-1.34-4.3-3.56-4.3s-3.66,1.61-3.66,4.3Z"/><path class="p" d="M443,627.25h1.46v2.27h.15c.69-1.59,2.17-2.48,4.12-2.48,2.75,0,4.24,1.63,4.24,4.63v8.2h-1.54v-7.82c0-2.47-1-3.63-3.12-3.63-2.26,0-3.8,1.61-3.8,3.95v7.5h-1.54v-12.62Z"/><path class="p" d="M457.68,636.31c0-2.21,1.58-3.54,4.37-3.67l3.66-.16v-1.2c0-1.82-1.04-2.8-2.98-2.8-1.59,0-2.7.68-3.05,1.9h-1.52c.23-1.89,2.13-3.23,4.57-3.23,2.86,0,4.52,1.5,4.52,4.07v8.67h-1.48v-1.99h-.16c-.6,1.42-1.99,2.2-3.9,2.2-2.43,0-4.03-1.5-4.03-3.79ZM465.71,635.51v-1.76l-3.55.15c-1.89.08-2.89.93-2.89,2.4s1.08,2.43,2.82,2.43c2.04,0,3.62-1.41,3.62-3.22Z"/><path class="p" d="M482.65,639.87h-1.46v-2.27h-.15c-.69,1.59-2.17,2.48-4.12,2.48-2.75,0-4.24-1.63-4.24-4.63v-8.2h1.54v7.82c0,2.47,1,3.63,3.12,3.63,2.26,0,3.8-1.61,3.8-3.95v-7.5h1.54v12.62Z"/><path class="p" d="M492.57,627.04c2.47,0,4.22,1.28,4.49,3.27h-1.51c-.27-1.23-1.42-1.99-3.02-1.99-1.76,0-2.88.84-2.88,2.16,0,1.1.69,1.71,2.41,2.11l1.71.4c2.43.57,3.53,1.64,3.53,3.42,0,2.23-1.89,3.68-4.76,3.68s-4.59-1.3-4.83-3.38h1.59c.33,1.3,1.55,2.06,3.3,2.06,1.89,0,3.09-.89,3.09-2.27,0-1.15-.67-1.76-2.39-2.17l-1.86-.45c-2.25-.53-3.35-1.63-3.35-3.35,0-2.07,1.82-3.49,4.48-3.49Z"/><path class="p" d="M512.52,636.75c-.42,2.02-2.34,3.33-4.89,3.33-3.4,0-5.37-2.1-5.37-5.7v-1.84c0-3.33,2.06-5.51,5.19-5.51s5.12,2.16,5.12,5.93v1h-8.78v.43c0,2.64,1.49,4.31,3.83,4.31,1.72,0,2.98-.73,3.36-1.96h1.52ZM503.8,632.7h7.22c0-2.68-1.34-4.3-3.56-4.3s-3.66,1.61-3.66,4.3Z"/><path class="p" d="M521.57,638.63h4.01v1.24h-8.14v-1.24h2.6v-10.14h-2.86v-1.24h4.36v3.21h.16c.43-2.25,2.1-3.53,4.56-3.53.73,0,1.44.11,1.84.28v1.68c-.59-.21-1.39-.35-2.07-.35-2.72,0-4.45,2.2-4.45,5.66v4.43Z"/><path class="p" d="M535.06,637.93c0-1.07.88-1.95,1.95-1.95s1.95.88,1.95,1.95-.88,1.95-1.95,1.95-1.95-.88-1.95-1.95Z"/><path class="p" d="M555.4,630.96c-.26-1.5-1.65-2.54-3.38-2.54-2.4,0-3.74,1.61-3.74,4.5v1.28c0,2.89,1.34,4.5,3.74,4.5,1.72,0,3.12-1.04,3.38-2.54h1.52c-.33,2.37-2.25,3.93-4.86,3.93-3.32,0-5.31-2.11-5.31-5.62v-1.79c0-3.52,1.99-5.62,5.31-5.62,2.61,0,4.54,1.56,4.86,3.93h-1.52Z"/><path class="p" d="M561.33,634.5v-1.88c0-3.4,2.09-5.58,5.34-5.58s5.34,2.18,5.34,5.58v1.88c0,3.4-2.09,5.58-5.34,5.58s-5.34-2.18-5.34-5.58ZM562.87,632.83v1.48c0,2.73,1.46,4.41,3.81,4.41s3.81-1.68,3.81-4.41v-1.48c0-2.73-1.46-4.41-3.81-4.41s-3.81,1.68-3.81,4.41Z"/><path class="p" d="M587.49,639.87h-1.44v-8.71c0-1.82-.61-2.74-1.79-2.74-1.24,0-1.99,1.12-1.99,3v8.45h-1.44v-8.72c0-1.8-.61-2.73-1.8-2.73-1.27,0-2.04,1.14-2.04,3v8.45h-1.44v-12.62h1.39v1.69h.16c.33-1.17,1.25-1.9,2.41-1.9s2.06.7,2.33,1.9h.16c.34-1.15,1.41-1.9,2.71-1.9,1.84,0,2.78,1.28,2.78,3.77v9.06Z"/><path class="p" d="M591.45,641.03l8.33-19.23h1.46l-8.33,19.23h-1.46Z"/><path class="p" d="M617.16,639.87h-1.44v-8.71c0-1.82-.61-2.74-1.79-2.74-1.24,0-1.99,1.12-1.99,3v8.45h-1.44v-8.72c0-1.8-.61-2.73-1.8-2.73-1.27,0-2.04,1.14-2.04,3v8.45h-1.44v-12.62h1.39v1.69h.16c.33-1.17,1.25-1.9,2.41-1.9s2.06.7,2.33,1.9h.16c.34-1.15,1.41-1.9,2.71-1.9,1.84,0,2.78,1.28,2.78,3.77v9.06Z"/><path class="p" d="M625.57,623.97v3.28h5.29v1.3h-5.29v7.63c0,1.56,1.08,2.4,3.08,2.4.87,0,1.79-.04,2.2-.09v1.31c-.38.07-1.56.14-2.29.14-3.04,0-4.54-1.23-4.54-3.71v-7.68h-3.4v-1.3h3.4v-3.28h1.54Z"/><path class="p" d="M646.34,632.35v2.43c0,3.15-1.99,5.31-4.92,5.31-1.83,0-3.21-.75-3.81-2.07h-.21v6.14h-1.54v-16.9h1.46v1.82h.21c.74-1.32,2.09-2.03,3.88-2.03,2.93,0,4.92,2.16,4.92,5.31ZM637.36,632.72v1.69c0,2.61,1.46,4.3,3.71,4.3s3.73-1.7,3.73-4.3v-1.69c0-2.6-1.46-4.3-3.73-4.3s-3.71,1.69-3.71,4.3Z"/><line class="f" x1="355" y1="132.72" x2="355" y2="282.72"/><line class="f" x1="330" y1="132.72" x2="330" y2="282.72"/><circle class="p" cx="330" cy="207.72" r="5"/><line class="f" x1="305" y1="132.72" x2="305" y2="282.72"/><line class="f" x1="280" y1="132.72" x2="280" y2="282.72"/><line class="f" x1="380" y1="132.72" x2="380" y2="282.72"/><line class="f" x1="405" y1="157.72" x2="255" y2="157.72"/><line class="f" x1="405" y1="182.72" x2="255" y2="182.72"/><line class="f" x1="405" y1="207.72" x2="255" y2="207.72"/><line class="f" x1="405" y1="232.72" x2="255" y2="232.72"/><line class="f" x1="405" y1="257.72" x2="255" y2="257.72"/><line class="f" x1="355" y1="282.61" x2="355" y2="432.61"/><line class="f" x1="330" y1="282.61" x2="330" y2="432.61"/><circle class="p" cx="330" cy="357.61" r="5"/><line class="f" x1="305" y1="282.61" x2="305" y2="432.61"/><line class="f" x1="280" y1="282.61" x2="280" y2="432.61"/><line class="f" x1="380" y1="282.61" x2="380" y2="432.61"/><line class="f" x1="405" y1="307.61" x2="255" y2="307.61"/><line class="f" x1="405" y1="332.61" x2="255" y2="332.61"/><line class="f" x1="405" y1="357.61" x2="255" y2="357.61"/><line class="f" x1="405" y1="382.61" x2="255" y2="382.61"/><line class="f" x1="405" y1="407.61" x2="255" y2="407.61"/><line class="f" x1="355" y1="432.5" x2="355" y2="582.5"/><line class="f" x1="330" y1="432.5" x2="330" y2="582.5"/><circle class="p" cx="330" cy="507.5" r="5"/><line class="f" x1="305" y1="432.5" x2="305" y2="582.5"/><line class="f" x1="280" y1="432.5" x2="280" y2="582.5"/><line class="f" x1="380" y1="432.5" x2="380" y2="582.5"/><line class="f" x1="405" y1="457.5" x2="255" y2="457.5"/><line class="f" x1="405" y1="482.5" x2="255" y2="482.5"/><line class="f" x1="405" y1="507.5" x2="255" y2="507.5"/><line class="f" x1="405" y1="532.5" x2="255" y2="532.5"/><line class="f" x1="405" y1="557.5" x2="255" y2="557.5"/><path class="q" d="M108.27,80.46v-17.49h-6.12v-3.65h16.67v3.65h-6.12v17.49h-4.42Z"/><path class="q" d="M120.99,80.46v-21.14h4.28v8.14h.09c.41-.98,1.02-1.73,1.84-2.25.82-.52,1.81-.78,2.98-.78s2.12.25,2.94.75c.82.5,1.45,1.21,1.9,2.13s.67,2.01.67,3.28v9.86h-4.29v-8.98c0-1.09-.26-1.95-.78-2.57-.52-.62-1.27-.93-2.24-.93-.62,0-1.17.15-1.63.45-.46.3-.83.71-1.08,1.23-.26.52-.39,1.12-.39,1.81v8.99h-4.28Z"/><path class="q" d="M145.57,80.78c-1.6,0-2.98-.33-4.13-.99-1.15-.66-2.04-1.6-2.67-2.82s-.94-2.67-.94-4.34h0c0-1.68.31-3.13.94-4.36.62-1.23,1.5-2.17,2.63-2.84,1.13-.67,2.46-1,3.99-1s2.86.32,3.98.97c1.12.65,1.98,1.56,2.59,2.75s.92,2.56.92,4.15v1.33h-12.94v-2.71h10.91l-2.04,2.53v-1.66c0-.92-.14-1.69-.42-2.31-.28-.62-.68-1.09-1.18-1.4s-1.09-.47-1.75-.47-1.25.16-1.77.48-.91.79-1.2,1.41c-.29.62-.43,1.38-.43,2.28v1.67c0,.86.14,1.6.43,2.21s.7,1.09,1.24,1.41c.54.33,1.18.49,1.92.49.59,0,1.09-.09,1.52-.28s.78-.42,1.05-.7.46-.57.56-.86l.03-.09h3.93l-.04.16c-.12.58-.35,1.16-.69,1.74s-.8,1.12-1.38,1.61-1.29.88-2.12,1.17-1.81.44-2.94.44Z"/><path class="q" d="M170.9,80.82c-1.58,0-3-.25-4.26-.75s-2.32-1.22-3.21-2.17-1.56-2.1-2.03-3.46c-.47-1.36-.7-2.9-.7-4.62h0c0-2.28.41-4.22,1.23-5.84.82-1.62,1.99-2.86,3.5-3.73s3.3-1.3,5.36-1.3c1.7,0,3.2.3,4.5.91s2.36,1.43,3.17,2.47c.82,1.04,1.34,2.22,1.58,3.55l.04.22h-4.45l-.04-.16c-.35-1.02-.94-1.81-1.76-2.38-.82-.57-1.83-.86-3.02-.86s-2.16.28-3,.83-1.47,1.36-1.92,2.42-.67,2.33-.67,3.82h0c0,1.15.13,2.17.4,3.07.26.9.65,1.67,1.15,2.29s1.11,1.1,1.82,1.44,1.5.5,2.38.5c.96,0,1.8-.18,2.54-.53.73-.36,1.31-.86,1.74-1.51.43-.65.66-1.41.69-2.28v-.29s-4.8,0-4.8,0v-3.31h9.14v2.43c0,1.44-.21,2.72-.64,3.87s-1.04,2.11-1.85,2.92-1.79,1.41-2.95,1.83-2.47.63-3.94.63Z"/><path class="q" d="M190.03,80.78c-1.59,0-2.97-.32-4.13-.97-1.16-.65-2.06-1.59-2.7-2.81-.64-1.22-.96-2.69-.96-4.39v-.03c0-1.69.32-3.14.97-4.36.65-1.22,1.56-2.15,2.72-2.81s2.52-.98,4.09-.98,2.94.32,4.11.97c1.17.65,2.07,1.58,2.72,2.8.64,1.22.97,2.67.97,4.37v.03c0,1.71-.32,3.17-.96,4.39s-1.54,2.16-2.7,2.8c-1.16.65-2.53.97-4.12.97ZM190.05,77.42c.69,0,1.29-.19,1.8-.56.51-.38.9-.92,1.18-1.64.28-.72.42-1.59.42-2.62v-.03c0-1.01-.14-1.87-.42-2.59-.28-.72-.68-1.26-1.19-1.64-.51-.38-1.12-.56-1.81-.56s-1.28.19-1.79.57-.91.93-1.19,1.64-.42,1.57-.42,2.58v.03c0,1.03.14,1.9.42,2.62.28.72.68,1.26,1.19,1.64.52.38,1.13.56,1.83.56Z"/><path class="q" d="M215.24,80.78c-.75,0-1.44-.12-2.06-.36-.62-.24-1.17-.58-1.64-1.03s-.85-.99-1.13-1.61h-.09v2.68h-4.28v-21.14h4.28v8.16h.09c.29-.63.67-1.18,1.14-1.63.47-.46,1.02-.8,1.65-1.05s1.32-.37,2.06-.37c1.32,0,2.45.32,3.41.97.95.65,1.69,1.58,2.2,2.8.52,1.22.78,2.68.78,4.39h0c0,1.71-.26,3.17-.78,4.39s-1.25,2.16-2.21,2.81-2.1.98-3.41.98ZM213.82,77.23c.71,0,1.33-.19,1.85-.56.52-.38.92-.91,1.19-1.6s.42-1.51.42-2.46h0c0-.97-.14-1.79-.43-2.48-.28-.69-.68-1.22-1.2-1.59s-1.13-.56-1.83-.56-1.3.19-1.82.56c-.52.38-.93.91-1.23,1.6s-.45,1.51-.45,2.45h0c0,.96.15,1.78.44,2.48s.7,1.23,1.23,1.6c.53.38,1.14.56,1.83.56Z"/><path class="q" d="M231.05,80.78c-1.59,0-2.97-.32-4.13-.97-1.16-.65-2.06-1.59-2.7-2.81-.64-1.22-.96-2.69-.96-4.39v-.03c0-1.69.32-3.14.97-4.36.65-1.22,1.56-2.15,2.72-2.81s2.52-.98,4.09-.98,2.94.32,4.11.97c1.17.65,2.07,1.58,2.72,2.8.64,1.22.97,2.67.97,4.37v.03c0,1.71-.32,3.17-.96,4.39s-1.54,2.16-2.7,2.8c-1.16.65-2.53.97-4.12.97ZM231.06,77.42c.69,0,1.29-.19,1.8-.56.51-.38.9-.92,1.18-1.64.28-.72.42-1.59.42-2.62v-.03c0-1.01-.14-1.87-.42-2.59-.28-.72-.68-1.26-1.19-1.64-.51-.38-1.12-.56-1.81-.56s-1.28.19-1.79.57-.91.93-1.19,1.64-.42,1.57-.42,2.58v.03c0,1.03.14,1.9.42,2.62.28.72.68,1.26,1.19,1.64.52.38,1.13.56,1.83.56Z"/><path class="q" d="M245.7,80.7c-1.04,0-1.97-.2-2.76-.61-.8-.4-1.42-.97-1.86-1.68-.44-.72-.67-1.54-.67-2.45v-.03c0-.96.24-1.77.72-2.45.48-.68,1.17-1.21,2.09-1.6s2.02-.63,3.32-.72l6.12-.38v2.67l-5.48.37c-.82.05-1.45.24-1.88.57s-.64.78-.64,1.33v.03c0,.58.22,1.03.66,1.36.44.33,1.03.49,1.77.49.63,0,1.2-.12,1.71-.37.5-.25.9-.59,1.19-1.03.29-.44.43-.92.43-1.46v-4.78c0-.69-.22-1.24-.66-1.64s-1.08-.6-1.92-.6-1.44.16-1.9.49c-.47.33-.76.75-.87,1.25l-.03.13h-3.93l.02-.18c.09-.97.41-1.83.97-2.58s1.34-1.34,2.34-1.77c1-.42,2.19-.64,3.57-.64s2.53.22,3.53.65c1,.43,1.77,1.05,2.32,1.84s.83,1.71.83,2.77v10.77h-4.28v-2.33h-.09c-.3.53-.68.99-1.14,1.38s-.98.69-1.58.89-1.23.31-1.91.31Z"/><path class="q" d="M257.45,80.46v-15.7h4.28v2.74h.09c.23-.97.66-1.72,1.27-2.26s1.38-.81,2.3-.81c.23,0,.46.01.67.04s.4.07.56.12v3.78c-.18-.08-.4-.14-.67-.18-.27-.04-.57-.07-.88-.07-.7,0-1.3.14-1.8.41s-.88.67-1.14,1.2-.39,1.17-.39,1.93v8.79h-4.28Z"/><path class="q" d="M273.66,80.78c-1.32,0-2.46-.33-3.41-.98s-1.7-1.59-2.21-2.81-.78-2.68-.78-4.38h0c0-1.72.26-3.19.78-4.4.52-1.21,1.26-2.15,2.21-2.8.96-.65,2.09-.97,3.4-.97.75,0,1.44.12,2.06.37s1.17.59,1.65,1.05c.47.45.85,1,1.13,1.63h.09v-8.16h4.28v21.14h-4.28v-2.68h-.09c-.28.62-.66,1.16-1.13,1.61s-1.02.79-1.64,1.03c-.62.24-1.31.36-2.07.36ZM275.1,77.23c.69,0,1.3-.19,1.83-.56.53-.38.93-.91,1.22-1.6s.43-1.51.43-2.46h0c0-.95-.15-1.77-.44-2.46s-.7-1.23-1.22-1.6c-.52-.38-1.13-.56-1.82-.56s-1.33.19-1.85.56-.92.9-1.2,1.59c-.28.69-.42,1.51-.42,2.47h0c0,.96.14,1.78.42,2.48s.68,1.23,1.2,1.6c.52.38,1.14.56,1.85.56Z"/><path class="q" d="M284.9,84.88l1.05-8.12h4.06l-2.15,8.12h-2.96Z"/><path class="q" d="M307,80.82c-1.58,0-3-.25-4.25-.75s-2.32-1.22-3.21-2.17-1.56-2.1-2.03-3.46c-.47-1.36-.7-2.9-.7-4.62h0c0-2.28.41-4.22,1.23-5.84.82-1.62,1.99-2.86,3.5-3.73s3.3-1.3,5.36-1.3c1.7,0,3.2.3,4.5.91s2.36,1.43,3.17,2.47c.82,1.04,1.34,2.22,1.57,3.55l.04.22h-4.45l-.04-.16c-.35-1.02-.94-1.81-1.76-2.38-.82-.57-1.83-.86-3.02-.86s-2.16.28-3,.83-1.47,1.36-1.92,2.42-.67,2.33-.67,3.82h0c0,1.15.13,2.17.39,3.07.26.9.65,1.67,1.15,2.29s1.11,1.1,1.82,1.44,1.5.5,2.38.5c.96,0,1.8-.18,2.53-.53.73-.36,1.31-.86,1.74-1.51.43-.65.66-1.41.69-2.28l.02-.29h-4.82v-3.31h9.14v2.43c0,1.44-.21,2.72-.64,3.87s-1.04,2.11-1.85,2.92-1.79,1.41-2.95,1.83-2.48.63-3.94.63Z"/><path class="q" d="M326.13,80.78c-1.59,0-2.97-.32-4.13-.97-1.16-.65-2.06-1.59-2.7-2.81-.64-1.22-.96-2.69-.96-4.39v-.03c0-1.69.33-3.14.97-4.36.65-1.22,1.55-2.15,2.72-2.81s2.53-.98,4.09-.98,2.94.32,4.11.97c1.17.65,2.07,1.58,2.72,2.8.64,1.22.97,2.67.97,4.37v.03c0,1.71-.32,3.17-.96,4.39s-1.54,2.16-2.7,2.8c-1.16.65-2.54.97-4.12.97ZM326.15,77.42c.69,0,1.29-.19,1.8-.56.51-.38.9-.92,1.18-1.64.28-.72.42-1.59.42-2.62v-.03c0-1.01-.14-1.87-.43-2.59-.28-.72-.68-1.26-1.19-1.64-.51-.38-1.12-.56-1.81-.56s-1.28.19-1.79.57-.91.93-1.19,1.64-.43,1.57-.43,2.58v.03c0,1.03.14,1.9.42,2.62.28.72.68,1.26,1.19,1.64.52.38,1.13.56,1.83.56Z"/><path class="q" d="M345.41,80.78c-.75,0-1.44-.12-2.06-.36-.62-.24-1.17-.58-1.64-1.03s-.85-.99-1.13-1.61h-.09v2.68h-4.28v-21.14h4.28v8.16h.09c.29-.63.67-1.18,1.14-1.63.47-.46,1.02-.8,1.65-1.05s1.32-.37,2.06-.37c1.32,0,2.45.32,3.41.97.95.65,1.69,1.58,2.2,2.8.52,1.22.78,2.68.78,4.39h0c0,1.71-.26,3.17-.78,4.39s-1.25,2.16-2.21,2.81-2.1.98-3.41.98ZM343.99,77.23c.71,0,1.33-.19,1.85-.56.52-.38.92-.91,1.19-1.6s.42-1.51.42-2.46h0c0-.97-.14-1.79-.43-2.48-.28-.69-.68-1.22-1.2-1.59s-1.13-.56-1.83-.56-1.3.19-1.82.56c-.52.38-.93.91-1.23,1.6s-.45,1.51-.45,2.45h0c0,.96.15,1.78.44,2.48s.7,1.23,1.23,1.6c.53.38,1.14.56,1.83.56Z"/><path class="q" d="M358.68,80.7c-1.04,0-1.96-.2-2.76-.61-.8-.4-1.42-.97-1.86-1.68-.44-.72-.67-1.54-.67-2.45v-.03c0-.96.24-1.77.72-2.45.48-.68,1.17-1.21,2.09-1.6s2.02-.63,3.32-.72l6.12-.38v2.67l-5.48.37c-.82.05-1.45.24-1.88.57s-.64.78-.64,1.33v.03c0,.58.22,1.03.66,1.36.44.33,1.03.49,1.77.49.63,0,1.2-.12,1.71-.37.5-.25.9-.59,1.19-1.03.29-.44.43-.92.43-1.46v-4.78c0-.69-.22-1.24-.66-1.64s-1.08-.6-1.92-.6-1.44.16-1.9.49c-.47.33-.76.75-.86,1.25l-.03.13h-3.93v-.18c.1-.97.43-1.83.99-2.58s1.34-1.34,2.34-1.77c1-.42,2.19-.64,3.57-.64s2.54.22,3.53.65c1,.43,1.77,1.05,2.32,1.84s.83,1.71.83,2.77v10.77h-4.28v-2.33h-.09c-.3.53-.68.99-1.14,1.38s-.98.69-1.57.89-1.23.31-1.91.31Z"/><path class="q" d="M370.43,80.46v-15.7h4.28v2.58h.09c.41-.9,1.02-1.61,1.82-2.12s1.79-.78,2.97-.78c1.73,0,3.06.52,4.01,1.56.94,1.04,1.41,2.48,1.41,4.33v10.14h-4.28v-9.24c0-1.03-.24-1.82-.73-2.39s-1.2-.85-2.16-.85c-.63,0-1.19.15-1.65.44s-.83.7-1.09,1.22-.39,1.12-.39,1.8v9.02h-4.28Z"/><path class="o" d="M399.2,85.58c-.96-1.21-1.74-2.5-2.35-3.86-.61-1.36-1.06-2.82-1.36-4.36s-.45-3.18-.45-4.92.15-3.38.45-4.92c.3-1.54.75-2.99,1.37-4.35.62-1.36,1.4-2.65,2.34-3.86h2.14c-.53.62-1.02,1.41-1.46,2.39s-.84,2.06-1.18,3.26c-.34,1.2-.6,2.44-.78,3.72-.19,1.28-.28,2.54-.28,3.76s.09,2.48.28,3.76.45,2.53.78,3.73c.34,1.2.73,2.28,1.18,3.26s.94,1.77,1.46,2.39h-2.14Z"/><path class="o" d="M409.03,80.46v-18.34h-.06l-5.6,3.9v-2.65l5.62-4.04h2.58v21.14h-2.55Z"/><path class="o" d="M424.38,58.97c.98,0,1.94.18,2.89.55.95.37,1.81.96,2.59,1.78.78.82,1.4,1.9,1.86,3.24.46,1.34.7,3,.7,4.96v.03c0,2.37-.33,4.4-.97,6.09-.65,1.69-1.58,2.97-2.81,3.86s-2.7,1.33-4.42,1.33c-1.19,0-2.27-.21-3.24-.64s-1.77-1.03-2.42-1.79c-.64-.77-1.08-1.66-1.32-2.69l-.04-.19h2.68l.06.16c.21.58.52,1.08.92,1.5.4.42.88.75,1.45.98.57.23,1.22.34,1.94.34,1.32,0,2.38-.38,3.19-1.14.8-.76,1.4-1.77,1.79-3.02.38-1.26.6-2.62.64-4.09,0-.1.01-.19.01-.29v-.29l-.63-3.47c0-.91-.21-1.73-.64-2.46-.43-.73-1-1.32-1.73-1.75-.73-.43-1.55-.65-2.45-.65s-1.71.21-2.45.64c-.73.42-1.31,1-1.74,1.72s-.64,1.53-.64,2.42v.03c0,.92.21,1.73.62,2.45s.98,1.27,1.7,1.68c.72.4,1.55.61,2.48.61s1.76-.2,2.49-.6,1.31-.95,1.74-1.66c.42-.7.64-1.5.64-2.4h0s.88-.01.88-.01v3.59h-.31c-.28.62-.7,1.19-1.26,1.71-.56.51-1.23.92-2.01,1.23-.79.31-1.66.46-2.61.46-1.34,0-2.54-.3-3.6-.91s-1.89-1.44-2.5-2.49c-.61-1.05-.92-2.25-.92-3.59v-.03c0-1.39.32-2.62.97-3.7.65-1.08,1.54-1.93,2.66-2.55,1.12-.62,2.41-.93,3.85-.93Z"/><path class="o" d="M448.21,64.69l1.61,1.61-12.42,12.79-1.61-1.61,12.42-12.79ZM435.79,66.3l1.61-1.61,12.42,12.79-1.61,1.61-12.42-12.79Z"/><path class="o" d="M458.98,80.46v-18.34h-.06l-5.6,3.9v-2.65l5.62-4.04h2.58v21.14h-2.55Z"/><path class="o" d="M474.33,58.97c.98,0,1.94.18,2.89.55.95.37,1.81.96,2.59,1.78.78.82,1.4,1.9,1.86,3.24.46,1.34.7,3,.7,4.96v.03c0,2.37-.33,4.4-.97,6.09-.65,1.69-1.58,2.97-2.81,3.86s-2.7,1.33-4.42,1.33c-1.19,0-2.27-.21-3.24-.64s-1.77-1.03-2.42-1.79c-.64-.77-1.08-1.66-1.32-2.69l-.04-.19h2.68l.06.16c.21.58.52,1.08.92,1.5.4.42.88.75,1.45.98.57.23,1.22.34,1.94.34,1.32,0,2.38-.38,3.19-1.14.8-.76,1.4-1.77,1.79-3.02.38-1.26.6-2.62.64-4.09,0-.1.01-.19.01-.29v-.29l-.63-3.47c0-.91-.21-1.73-.64-2.46-.43-.73-1-1.32-1.73-1.75-.73-.43-1.55-.65-2.45-.65s-1.71.21-2.45.64c-.73.42-1.31,1-1.74,1.72s-.64,1.53-.64,2.42v.03c0,.92.21,1.73.62,2.45s.98,1.27,1.7,1.68c.72.4,1.55.61,2.48.61s1.76-.2,2.49-.6,1.31-.95,1.74-1.66c.42-.7.64-1.5.64-2.4h0s.88-.01.88-.01v3.59h-.31c-.28.62-.7,1.19-1.26,1.71-.56.51-1.23.92-2.01,1.23-.79.31-1.66.46-2.61.46-1.34,0-2.54-.3-3.6-.91s-1.89-1.44-2.5-2.49c-.61-1.05-.92-2.25-.92-3.59v-.03c0-1.39.32-2.62.97-3.7.65-1.08,1.54-1.93,2.66-2.55,1.12-.62,2.41-.93,3.85-.93Z"/><path class="o" d="M497.94,85.88c-1.25,0-2.34-.18-3.27-.54-.93-.36-1.68-.84-2.26-1.45-.57-.61-.94-1.29-1.11-2.04l-.03-.13h2.56l.06.13c.24.55.71.98,1.41,1.3.7.32,1.57.48,2.6.48,1.34,0,2.37-.34,3.11-1.03.73-.69,1.1-1.62,1.1-2.8v-1.95h-.06c-.3.57-.69,1.05-1.17,1.46s-1.03.73-1.65.96c-.62.23-1.3.34-2.03.34-1.28,0-2.41-.32-3.38-.97-.97-.65-1.73-1.56-2.27-2.74-.54-1.18-.81-2.56-.81-4.14h0c0-1.6.28-2.97.83-4.14.55-1.17,1.32-2.07,2.29-2.72s2.11-.97,3.4-.97c.72,0,1.39.12,1.99.37s1.14.58,1.62,1.01.87.93,1.18,1.49h.06v-2.58h2.55v14.81c0,1.18-.27,2.21-.82,3.08-.55.88-1.32,1.55-2.33,2.04-1.01.48-2.2.72-3.57.72ZM497.77,78.35c.87,0,1.63-.23,2.28-.7.65-.46,1.16-1.12,1.52-1.96.37-.84.55-1.82.55-2.94h0c0-1.14-.18-2.11-.55-2.94-.37-.83-.88-1.47-1.53-1.93s-1.41-.69-2.27-.69-1.68.23-2.34.68c-.66.45-1.17,1.1-1.53,1.93-.36.83-.54,1.81-.54,2.94h0c0,1.17.18,2.16.54,3,.36.84.87,1.48,1.53,1.93.66.46,1.45.68,2.34.68Z"/><path class="o" d="M507.96,80.46v-15.23h2.55v2.58h.06c.25-.88.69-1.58,1.32-2.09s1.37-.78,2.23-.78c.22,0,.43.01.61.04.18.02.32.05.42.07v2.48c-.1-.04-.27-.07-.52-.1-.25-.03-.53-.04-.84-.04-.65,0-1.23.15-1.72.44-.49.29-.88.71-1.14,1.27-.27.55-.4,1.21-.4,1.98v9.4h-2.55Z"/><path class="o" d="M518.64,62.64c-.44,0-.82-.16-1.13-.47s-.47-.69-.47-1.13.16-.83.47-1.14c.31-.31.69-.46,1.13-.46s.83.15,1.14.46c.31.31.46.69.46,1.14s-.15.82-.46,1.13c-.31.31-.69.47-1.14.47ZM517.37,80.46v-15.23h2.55v15.23h-2.55Z"/><path class="o" d="M529.12,80.75c-1.3,0-2.43-.32-3.41-.97-.97-.65-1.73-1.57-2.26-2.75-.54-1.19-.81-2.58-.81-4.18h0c0-1.62.27-3.01.81-4.19.54-1.18,1.3-2.1,2.26-2.75.97-.65,2.08-.97,3.35-.97.72,0,1.39.12,2.01.34.62.23,1.17.56,1.66.98.49.42.89.93,1.2,1.52h.06v-8.45h2.55v21.14h-2.55v-2.58h-.06c-.31.6-.71,1.11-1.19,1.53-.48.42-1.02.75-1.63.99s-1.28.35-2.01.35ZM529.61,78.49c.86,0,1.62-.23,2.29-.7s1.18-1.13,1.56-1.98c.38-.85.56-1.84.56-2.97h0c0-1.15-.19-2.14-.57-2.98-.38-.85-.9-1.5-1.56-1.97-.66-.47-1.42-.7-2.28-.7s-1.67.23-2.33.69-1.16,1.11-1.51,1.95-.53,1.84-.53,3h0c0,1.18.18,2.18.53,3.03s.85,1.5,1.51,1.96c.65.46,1.43.68,2.33.68Z"/><path class="o" d="M541.07,85.58h-2.14c.53-.62,1.02-1.41,1.46-2.39s.84-2.07,1.18-3.27c.34-1.2.6-2.44.78-3.73.19-1.28.28-2.54.28-3.76s-.09-2.47-.28-3.76c-.19-1.29-.45-2.53-.78-3.72-.34-1.2-.73-2.28-1.18-3.26s-.94-1.77-1.46-2.39h2.14c.96,1.21,1.74,2.5,2.35,3.86.61,1.36,1.06,2.81,1.36,4.35.3,1.54.45,3.18.45,4.92s-.15,3.38-.45,4.92-.75,3-1.36,4.37c-.61,1.37-1.39,2.65-2.35,3.85Z"/><path class="q" d="M659.13,80.46v-21.14h5.11l6.01,15.19h.09l5.99-15.19h5.13v21.14h-3.96v-14.28h-2.04l4.42-6.27-8.2,20.55h-2.78l-8.2-20.55,4.42,6.27h-2.05v14.28h-3.94Z"/><path class="q" d="M688.95,80.7c-1.04,0-1.97-.2-2.76-.61-.8-.4-1.42-.97-1.86-1.68-.44-.72-.67-1.54-.67-2.45v-.03c0-.96.24-1.77.72-2.45.48-.68,1.17-1.21,2.09-1.6.91-.39,2.02-.63,3.32-.72l6.12-.38v2.67l-5.48.37c-.82.05-1.45.24-1.88.57s-.64.78-.64,1.33v.03c0,.58.22,1.03.66,1.36.44.33,1.03.49,1.77.49.63,0,1.2-.12,1.71-.37.5-.25.9-.59,1.19-1.03.29-.44.43-.92.43-1.46v-4.78c0-.69-.22-1.24-.66-1.64s-1.08-.6-1.92-.6-1.44.16-1.9.49c-.47.33-.76.75-.86,1.25l-.03.13h-3.93v-.18c.1-.97.43-1.83.99-2.58.56-.75,1.34-1.34,2.34-1.77,1-.42,2.19-.64,3.57-.64s2.53.22,3.53.65c1,.43,1.77,1.05,2.32,1.84.55.79.83,1.71.83,2.77v10.77h-4.28v-2.33h-.09c-.3.53-.68.99-1.14,1.38s-.98.69-1.58.89c-.59.21-1.23.31-1.91.31Z"/><path class="q" d="M700.7,85.58v-20.83h4.28v2.74h.1c.28-.63.66-1.18,1.12-1.64.46-.46,1.01-.81,1.62-1.05.62-.24,1.3-.37,2.04-.37,1.33,0,2.47.32,3.43.97.96.65,1.69,1.58,2.21,2.8s.78,2.68.78,4.38h0c0,1.71-.26,3.17-.77,4.39-.51,1.22-1.24,2.16-2.19,2.81s-2.08.98-3.4.98c-.74,0-1.43-.12-2.07-.37s-1.19-.59-1.66-1.03c-.47-.45-.85-.98-1.14-1.6h-.09v7.81h-4.28ZM708.47,77.23c.71,0,1.33-.19,1.85-.56.52-.38.92-.91,1.19-1.6.28-.69.42-1.51.42-2.46h0c0-.97-.14-1.79-.42-2.48-.28-.69-.68-1.22-1.2-1.59s-1.13-.56-1.83-.56-1.3.19-1.83.56c-.53.38-.94.91-1.23,1.6s-.44,1.51-.44,2.46h0c0,.95.15,1.77.45,2.46.3.69.71,1.23,1.23,1.6.52.38,1.13.56,1.82.56Z"/><path class="q" d="M718.5,85.58v-20.83h4.28v2.74h.1c.28-.63.66-1.18,1.12-1.64.46-.46,1.01-.81,1.63-1.05.62-.24,1.3-.37,2.04-.37,1.33,0,2.47.32,3.43.97.96.65,1.69,1.58,2.21,2.8s.78,2.68.78,4.38h0c0,1.71-.26,3.17-.77,4.39-.51,1.22-1.24,2.16-2.19,2.81s-2.08.98-3.4.98c-.74,0-1.43-.12-2.07-.37s-1.19-.59-1.66-1.03c-.47-.45-.85-.98-1.14-1.6h-.09v7.81h-4.28ZM726.26,77.23c.71,0,1.33-.19,1.85-.56.52-.38.92-.91,1.19-1.6.28-.69.42-1.51.42-2.46h0c0-.97-.14-1.79-.42-2.48-.28-.69-.68-1.22-1.2-1.59s-1.13-.56-1.83-.56-1.3.19-1.83.56c-.53.38-.94.91-1.23,1.6s-.44,1.51-.44,2.46h0c0,.95.15,1.77.45,2.46.3.69.71,1.23,1.23,1.6.52.38,1.13.56,1.82.56Z"/><path class="q" d="M738.52,62.75c-.64,0-1.19-.22-1.63-.67s-.67-.97-.67-1.57.22-1.14.67-1.57c.45-.44.99-.65,1.63-.65s1.19.22,1.63.65c.44.43.66.96.66,1.57s-.22,1.13-.66,1.57c-.44.45-.98.67-1.63.67ZM736.37,80.46v-15.7h4.29v15.7h-4.29Z"/><path class="q" d="M743.52,80.46v-15.7h4.28v2.58h.09c.41-.9,1.02-1.61,1.82-2.12s1.79-.78,2.97-.78c1.73,0,3.06.52,4.01,1.56.94,1.04,1.41,2.48,1.41,4.33v10.14h-4.28v-9.24c0-1.03-.24-1.82-.73-2.39-.48-.57-1.2-.85-2.16-.85-.63,0-1.19.15-1.66.44s-.83.7-1.09,1.22c-.26.52-.39,1.12-.39,1.8v9.02h-4.28Z"/><path class="q" d="M768.14,85.9c-1.44,0-2.69-.2-3.76-.59-1.07-.39-1.92-.93-2.55-1.6-.63-.67-1.01-1.43-1.15-2.27l-.03-.13h4.17l.04.1c.18.38.54.72,1.1,1.01s1.28.44,2.17.44c1.1,0,1.94-.26,2.52-.79s.86-1.23.86-2.09v-2.42h-.09c-.27.55-.65,1.02-1.12,1.42-.47.4-1.03.71-1.65.93-.63.22-1.32.33-2.07.33-1.31,0-2.44-.31-3.4-.94s-1.69-1.52-2.2-2.69c-.51-1.17-.77-2.56-.77-4.18h0c0-1.68.26-3.12.78-4.31.52-1.19,1.27-2.1,2.23-2.74.96-.63,2.1-.95,3.42-.95.74,0,1.42.12,2.04.37s1.15.59,1.62,1.04c.46.45.84.98,1.12,1.6h.1v-2.68h4.28v15.26c0,1.16-.31,2.19-.93,3.07-.62.88-1.5,1.58-2.65,2.07-1.15.5-2.51.75-4.08.75ZM768.07,77.1c.7,0,1.31-.19,1.83-.56s.92-.9,1.21-1.58c.29-.68.43-1.49.43-2.43h0c0-.94-.14-1.75-.43-2.42-.29-.68-.69-1.2-1.21-1.57-.52-.37-1.13-.56-1.82-.56s-1.32.18-1.85.55c-.53.37-.93.89-1.22,1.57-.28.68-.42,1.49-.42,2.42h0c0,.95.14,1.76.42,2.45s.69,1.21,1.22,1.58,1.14.56,1.85.56Z"/><path class="q" d="M790.78,80.78c-1.74,0-3.03-.37-3.87-1.1s-1.26-1.94-1.26-3.62v-8.09h-2.18v-3.22h2.18v-3.84h4.32v3.84h2.87v3.22h-2.87v7.62c0,.73.16,1.24.49,1.53.33.29.81.43,1.46.43.2,0,.37,0,.51-.02.15-.02.28-.03.41-.05v3.13c-.23.04-.52.08-.87.11-.35.03-.74.05-1.19.05Z"/><path class="q" d="M795.3,80.46v-21.14h4.28v8.14h.09c.41-.98,1.02-1.73,1.84-2.25.81-.52,1.81-.78,2.98-.78s2.12.25,2.94.75c.82.5,1.45,1.21,1.9,2.13.44.92.67,2.01.67,3.28v9.86h-4.29v-8.98c0-1.09-.26-1.95-.78-2.57-.52-.62-1.26-.93-2.24-.93-.62,0-1.17.15-1.63.45-.46.3-.82.71-1.08,1.23-.26.52-.39,1.12-.39,1.81v8.99h-4.28Z"/><path class="q" d="M819.88,80.78c-1.6,0-2.98-.33-4.13-.99-1.15-.66-2.04-1.6-2.67-2.82s-.94-2.67-.94-4.34h0c0-1.68.31-3.13.94-4.36.62-1.23,1.5-2.17,2.63-2.84,1.13-.67,2.46-1,3.99-1s2.86.32,3.98.97c1.12.65,1.98,1.56,2.59,2.75.61,1.18.92,2.56.92,4.15v1.33h-12.93v-2.71h10.91l-2.04,2.53v-1.66c0-.92-.14-1.69-.42-2.31-.28-.62-.68-1.09-1.18-1.4-.5-.31-1.09-.47-1.75-.47s-1.25.16-1.77.48c-.51.32-.91.79-1.2,1.41-.29.62-.43,1.38-.43,2.28v1.67c0,.86.14,1.6.43,2.21.29.62.7,1.09,1.24,1.41.54.33,1.18.49,1.92.49.59,0,1.09-.09,1.52-.28s.78-.42,1.05-.7.46-.57.56-.86l.03-.09h3.93l-.04.16c-.12.58-.35,1.16-.69,1.74s-.8,1.12-1.38,1.61c-.58.49-1.29.88-2.12,1.17-.83.29-1.81.44-2.94.44Z"/><path class="q" d="M835.69,80.46v-21.14h4.42v21.14h-4.42ZM837.91,73.8v-3.47h5.19c1.27,0,2.26-.33,2.96-.97.7-.65,1.05-1.57,1.05-2.76v-.03c0-1.21-.35-2.14-1.05-2.78-.7-.64-1.69-.96-2.96-.96h-5.19v-3.52h6.27c1.48,0,2.78.3,3.9.9,1.11.6,1.98,1.44,2.6,2.53.62,1.08.93,2.35.93,3.81v.03c0,1.45-.31,2.71-.93,3.79-.62,1.08-1.49,1.93-2.6,2.53-1.11.6-2.41.9-3.9.9h-6.27Z"/><path class="q" d="M853.85,80.46v-15.7h4.28v2.74h.09c.23-.97.66-1.72,1.27-2.26s1.38-.81,2.3-.81c.23,0,.46.01.67.04s.4.07.56.12v3.78c-.18-.08-.4-.14-.67-.18-.27-.04-.57-.07-.88-.07-.7,0-1.3.14-1.8.41s-.88.67-1.14,1.2-.4,1.17-.4,1.93v8.79h-4.28Z"/><path class="q" d="M871.46,80.78c-1.59,0-2.97-.32-4.13-.97-1.16-.65-2.06-1.59-2.7-2.81-.64-1.22-.96-2.69-.96-4.39v-.03c0-1.69.32-3.14.97-4.36.65-1.22,1.55-2.15,2.72-2.81s2.52-.98,4.09-.98,2.94.32,4.11.97c1.17.65,2.07,1.58,2.72,2.8.64,1.22.97,2.67.97,4.37v.03c0,1.71-.32,3.17-.96,4.39-.64,1.22-1.54,2.16-2.7,2.8-1.16.65-2.53.97-4.12.97ZM871.47,77.42c.69,0,1.29-.19,1.8-.56.51-.38.9-.92,1.18-1.64.28-.72.42-1.59.42-2.62v-.03c0-1.01-.14-1.87-.42-2.59-.28-.72-.68-1.26-1.19-1.64-.51-.38-1.12-.56-1.81-.56s-1.28.19-1.79.57c-.51.38-.91.93-1.19,1.64s-.42,1.57-.42,2.58v.03c0,1.03.14,1.9.42,2.62.28.72.68,1.26,1.19,1.64.52.38,1.13.56,1.83.56Z"/><path class="q" d="M881.43,80.46v-15.7h4.28v2.64h.09c.32-.9.87-1.62,1.65-2.15.78-.54,1.69-.81,2.75-.81.73,0,1.39.13,1.98.38s1.08.62,1.49,1.1c.41.48.69,1.06.86,1.76h.09c.23-.66.59-1.24,1.06-1.72.47-.48,1.04-.86,1.68-1.12.65-.26,1.36-.4,2.13-.4,1.03,0,1.92.22,2.7.66s1.37,1.05,1.8,1.85.64,1.72.64,2.78v10.74h-4.28v-9.65c0-.62-.1-1.13-.3-1.55-.2-.41-.49-.73-.86-.95-.38-.22-.84-.33-1.4-.33s-1.01.12-1.41.37c-.41.25-.72.59-.95,1.03s-.34.95-.34,1.54v9.54h-4.12v-9.79c0-.57-.1-1.05-.31-1.45s-.5-.71-.87-.92c-.38-.21-.83-.32-1.35-.32s-1.01.13-1.42.39c-.41.26-.73.61-.96,1.06-.23.45-.34.97-.34,1.55v9.48h-4.28Z"/><path class="q" d="M907.33,85.58v-20.83h4.28v2.74h.1c.28-.63.66-1.18,1.12-1.64.46-.46,1.01-.81,1.62-1.05.62-.24,1.3-.37,2.04-.37,1.33,0,2.47.32,3.43.97.96.65,1.69,1.58,2.21,2.8s.78,2.68.78,4.38h0c0,1.71-.26,3.17-.77,4.39-.51,1.22-1.24,2.16-2.19,2.81s-2.08.98-3.4.98c-.74,0-1.43-.12-2.07-.37s-1.19-.59-1.66-1.03c-.47-.45-.85-.98-1.14-1.6h-.09v7.81h-4.28ZM915.1,77.23c.71,0,1.33-.19,1.85-.56.52-.38.92-.91,1.19-1.6.28-.69.42-1.51.42-2.46h0c0-.97-.14-1.79-.42-2.48-.28-.69-.68-1.22-1.2-1.59s-1.13-.56-1.83-.56-1.3.19-1.83.56c-.53.38-.94.91-1.23,1.6s-.44,1.51-.44,2.46h0c0,.95.15,1.77.45,2.46.3.69.71,1.23,1.23,1.6.52.38,1.13.56,1.82.56Z"/><path class="q" d="M931.37,80.78c-1.74,0-3.03-.37-3.87-1.1s-1.26-1.94-1.26-3.62v-8.09h-2.18v-3.22h2.18v-3.84h4.32v3.84h2.87v3.22h-2.87v7.62c0,.73.16,1.24.49,1.53.33.29.81.43,1.46.43.2,0,.37,0,.51-.02.15-.02.28-.03.41-.05v3.13c-.23.04-.52.08-.87.11-.35.03-.74.05-1.19.05Z"/><path class="o" d="M947.28,85.58c-.96-1.21-1.74-2.5-2.35-3.86-.61-1.36-1.06-2.82-1.36-4.36-.3-1.54-.45-3.18-.45-4.92s.15-3.38.45-4.92c.3-1.54.75-2.99,1.37-4.35.62-1.36,1.4-2.65,2.34-3.86h2.14c-.53.62-1.02,1.41-1.46,2.39s-.84,2.06-1.18,3.26c-.34,1.2-.6,2.44-.78,3.72-.19,1.28-.28,2.54-.28,3.76s.09,2.48.28,3.76.45,2.53.78,3.73c.34,1.2.73,2.28,1.18,3.26s.94,1.77,1.46,2.39h-2.14Z"/><path class="o" d="M957.11,80.46v-18.34h-.06l-5.6,3.9v-2.65l5.62-4.04h2.58v21.14h-2.55Z"/><path class="o" d="M972.46,58.97c.98,0,1.94.18,2.89.55.95.37,1.81.96,2.59,1.78.78.82,1.4,1.9,1.86,3.24.46,1.34.7,3,.7,4.96v.03c0,2.37-.33,4.4-.97,6.09-.65,1.69-1.58,2.97-2.81,3.86s-2.7,1.33-4.42,1.33c-1.19,0-2.27-.21-3.24-.64s-1.77-1.03-2.42-1.79c-.64-.77-1.08-1.66-1.32-2.69l-.04-.19h2.68l.06.16c.21.58.52,1.08.92,1.5.4.42.88.75,1.45.98.57.23,1.22.34,1.94.34,1.32,0,2.38-.38,3.19-1.14.8-.76,1.4-1.77,1.79-3.02.38-1.26.6-2.62.64-4.09,0-.1.01-.19.01-.29v-.29l-.63-3.47c0-.91-.21-1.73-.64-2.46-.43-.73-1-1.32-1.73-1.75-.73-.43-1.55-.65-2.45-.65s-1.71.21-2.45.64c-.73.42-1.31,1-1.74,1.72s-.64,1.53-.64,2.42v.03c0,.92.21,1.73.62,2.45s.98,1.27,1.7,1.68c.72.4,1.55.61,2.48.61s1.76-.2,2.49-.6,1.31-.95,1.74-1.66c.42-.7.64-1.5.64-2.4h0s.88-.01.88-.01v3.59h-.31c-.28.62-.7,1.19-1.26,1.71-.56.51-1.23.92-2.01,1.23-.79.31-1.66.46-2.61.46-1.34,0-2.54-.3-3.6-.91s-1.89-1.44-2.5-2.49c-.61-1.05-.92-2.25-.92-3.59v-.03c0-1.39.32-2.62.97-3.7.65-1.08,1.54-1.93,2.66-2.55,1.12-.62,2.41-.93,3.85-.93Z"/><path class="o" d="M996.29,64.69l1.61,1.61-12.42,12.79-1.61-1.61,12.42-12.79ZM983.87,66.3l1.61-1.61,12.42,12.79-1.61,1.61-12.42-12.79Z"/><path class="o" d="M1007.06,80.46v-18.34h-.06l-5.6,3.9v-2.65l5.62-4.04h2.58v21.14h-2.55Z"/><path class="o" d="M1022.41,58.97c.98,0,1.94.18,2.89.55.95.37,1.81.96,2.59,1.78.78.82,1.4,1.9,1.86,3.24.46,1.34.7,3,.7,4.96v.03c0,2.37-.33,4.4-.97,6.09-.65,1.69-1.58,2.97-2.81,3.86s-2.7,1.33-4.42,1.33c-1.19,0-2.27-.21-3.24-.64s-1.77-1.03-2.42-1.79c-.64-.77-1.08-1.66-1.32-2.69l-.04-.19h2.68l.06.16c.21.58.52,1.08.92,1.5.4.42.88.75,1.45.98.57.23,1.22.34,1.94.34,1.32,0,2.38-.38,3.19-1.14.8-.76,1.4-1.77,1.79-3.02.38-1.26.6-2.62.64-4.09,0-.1.01-.19.01-.29v-.29l-.63-3.47c0-.91-.21-1.73-.64-2.46-.43-.73-1-1.32-1.73-1.75-.73-.43-1.55-.65-2.45-.65s-1.71.21-2.45.64c-.73.42-1.31,1-1.74,1.72s-.64,1.53-.64,2.42v.03c0,.92.21,1.73.62,2.45s.98,1.27,1.7,1.68c.72.4,1.55.61,2.48.61s1.76-.2,2.49-.6,1.31-.95,1.74-1.66c.42-.7.64-1.5.64-2.4h0s.88-.01.88-.01v3.59h-.31c-.28.62-.7,1.19-1.26,1.71-.56.51-1.23.92-2.01,1.23-.79.31-1.66.46-2.61.46-1.34,0-2.54-.3-3.6-.91s-1.89-1.44-2.5-2.49c-.61-1.05-.92-2.25-.92-3.59v-.03c0-1.39.32-2.62.97-3.7.65-1.08,1.54-1.93,2.66-2.55,1.12-.62,2.41-.93,3.85-.93Z"/><path class="o" d="M1046.02,85.88c-1.25,0-2.34-.18-3.27-.54-.93-.36-1.68-.84-2.26-1.45-.57-.61-.94-1.29-1.11-2.04l-.03-.13h2.56l.06.13c.24.55.71.98,1.41,1.3.7.32,1.57.48,2.6.48,1.34,0,2.37-.34,3.11-1.03.73-.69,1.1-1.62,1.1-2.8v-1.95h-.06c-.3.57-.69,1.05-1.17,1.46s-1.03.73-1.65.96c-.62.23-1.3.34-2.03.34-1.28,0-2.41-.32-3.38-.97-.97-.65-1.73-1.56-2.27-2.74-.54-1.18-.81-2.56-.81-4.14h0c0-1.6.28-2.97.83-4.14.55-1.17,1.32-2.07,2.29-2.72s2.11-.97,3.4-.97c.72,0,1.39.12,1.99.37s1.14.58,1.62,1.01.87.93,1.18,1.49h.06v-2.58h2.55v14.81c0,1.18-.27,2.21-.82,3.08-.55.88-1.32,1.55-2.33,2.04-1.01.48-2.2.72-3.57.72ZM1045.85,78.35c.87,0,1.63-.23,2.28-.7.65-.46,1.16-1.12,1.52-1.96.37-.84.55-1.82.55-2.94h0c0-1.14-.18-2.11-.55-2.94-.37-.83-.88-1.47-1.53-1.93s-1.41-.69-2.27-.69-1.68.23-2.34.68c-.66.45-1.17,1.1-1.53,1.93-.36.83-.54,1.81-.54,2.94h0c0,1.17.18,2.16.54,3,.36.84.87,1.48,1.53,1.93.66.46,1.45.68,2.34.68Z"/><path class="o" d="M1056.04,80.46v-15.23h2.55v2.58h.06c.25-.88.69-1.58,1.32-2.09s1.37-.78,2.23-.78c.22,0,.43.01.61.04.18.02.32.05.42.07v2.48c-.1-.04-.27-.07-.52-.1-.25-.03-.53-.04-.84-.04-.65,0-1.23.15-1.72.44-.49.29-.88.71-1.14,1.27-.27.55-.4,1.21-.4,1.98v9.4h-2.55Z"/><path class="o" d="M1066.72,62.64c-.44,0-.82-.16-1.13-.47s-.47-.69-.47-1.13.16-.83.47-1.14c.31-.31.69-.46,1.13-.46s.83.15,1.14.46c.31.31.46.69.46,1.14s-.15.82-.46,1.13c-.31.31-.69.47-1.14.47ZM1065.45,80.46v-15.23h2.55v15.23h-2.55Z"/><path class="o" d="M1077.2,80.75c-1.3,0-2.43-.32-3.41-.97-.97-.65-1.73-1.57-2.26-2.75-.54-1.19-.81-2.58-.81-4.18h0c0-1.62.27-3.01.81-4.19.54-1.18,1.3-2.1,2.26-2.75.97-.65,2.08-.97,3.35-.97.72,0,1.39.12,2.01.34.62.23,1.17.56,1.66.98.49.42.89.93,1.2,1.52h.06v-8.45h2.55v21.14h-2.55v-2.58h-.06c-.31.6-.71,1.11-1.19,1.53-.48.42-1.02.75-1.63.99s-1.28.35-2.01.35ZM1077.69,78.49c.86,0,1.62-.23,2.29-.7s1.18-1.13,1.56-1.98c.38-.85.56-1.84.56-2.97h0c0-1.15-.19-2.14-.57-2.98-.38-.85-.9-1.5-1.56-1.97-.66-.47-1.42-.7-2.28-.7s-1.67.23-2.33.69-1.16,1.11-1.51,1.95-.53,1.84-.53,3h0c0,1.18.18,2.18.53,3.03s.85,1.5,1.51,1.96c.65.46,1.43.68,2.33.68Z"/><path class="o" d="M1089.15,85.58h-2.14c.53-.62,1.02-1.41,1.46-2.39s.84-2.07,1.18-3.27c.34-1.2.6-2.44.78-3.73.19-1.28.28-2.54.28-3.76s-.09-2.47-.28-3.76c-.19-1.29-.45-2.53-.78-3.72-.34-1.2-.73-2.28-1.18-3.26s-.94-1.77-1.46-2.39h2.14c.96,1.21,1.74,2.5,2.35,3.86.61,1.36,1.06,2.81,1.36,4.35.3,1.54.45,3.18.45,4.92s-.15,3.38-.45,4.92-.75,3-1.36,4.37c-.61,1.37-1.39,2.65-2.35,3.85Z"/></g></svg>