<?xml version="1.0" encoding="UTF-8"?><svg id="b" xmlns="http://www.w3.org/2000/svg" viewBox="0 0 540 540"><defs><style>.d{stroke:green;}.d,.e,.f,.g,.h,.i,.j,.k,.l,.m{stroke-miterlimit:10;}.d,.e,.f,.g,.i,.j,.k,.l,.m{fill:none;}.e,.h{stroke:#2f353d;stroke-width:3px;}.f{stroke:#f0f;}.g{stroke:#0067c0;}.h{fill:#0d1117;}.i{stroke:#ffd400;}.j{stroke:red;}.n{fill:#fff;}.k{stroke:#f0f6fc;}.o{fill:#9199a1;}.l{stroke:#00aeef;}.m{stroke:#6a0dad;}.p{fill:#c9d1d9;}</style></defs><rect width="540" height="540"/><rect class="h" x="45" y="45" width="450" height="450"/><line class="k" x1="445" y1="195.11" x2="445" y2="345.11"/><line class="k" x1="420" y1="195.11" x2="420" y2="345.11"/><line class="k" x1="395" y1="195.11" x2="395" y2="345.11"/><line class="k" x1="370" y1="195.11" x2="370" y2="345.11"/><line class="k" x1="470" y1="195.11" x2="470" y2="345.11"/><line class="k" x1="495" y1="220.11" x2="345" y2="220.11"/><line class="k" x1="495" y1="245.11" x2="345" y2="245.11"/><line class="k" x1="495" y1="270.11" x2="345" y2="270.11"/><line class="k" x1="495" y1="295.11" x2="345" y2="295.11"/><line class="k" x1="495" y1="320.11" x2="345" y2="320.11"/><line class="f" x1="445" y1="45.22" x2="445" y2="195.22"/><line class="f" x1="420" y1="45.22" x2="420" y2="195.22"/><line class="f" x1="395" y1="45.22" x2="395" y2="195.22"/><line class="f" x1="370" y1="45.22" x2="370" y2="195.22"/><line class="f" x1="470" y1="45.22" x2="470" y2="195.22"/><line class="f" x1="495" y1="70.22" x2="345" y2="70.22"/><line class="f" x1="495" y1="95.22" x2="345" y2="95.22"/><line class="f" x1="495" y1="120.22" x2="345" y2="120.22"/><line class="f" x1="495" y1="145.22" x2="345" y2="145.22"/><line class="f" x1="495" y1="170.22" x2="345" y2="170.22"/><line class="m" x1="445" y1="345" x2="445" y2="495"/><line class="m" x1="420" y1="345" x2="420" y2="495"/><line class="m" x1="395" y1="345" x2="395" y2="495"/><line class="m" x1="370" y1="345" x2="370" y2="495"/><line class="m" x1="470" y1="345" x2="470" y2="495"/><line class="m" x1="495" y1="370" x2="345" y2="370"/><line class="m" x1="495" y1="395" x2="345" y2="395"/><line class="m" x1="495" y1="420" x2="345" y2="420"/><line class="m" x1="495" y1="445" x2="345" y2="445"/><line class="m" x1="495" y1="470" x2="345" y2="470"/><line class="d" x1="145" y1="195.11" x2="145" y2="345.11"/><line class="d" x1="120" y1="195.11" x2="120" y2="345.11"/><line class="d" x1="95" y1="195.11" x2="95" y2="345.11"/><line class="d" x1="70" y1="195.11" x2="70" y2="345.11"/><line class="d" x1="170" y1="195.11" x2="170" y2="345.11"/><line class="d" x1="195" y1="220.11" x2="45" y2="220.11"/><line class="d" x1="195" y1="245.11" x2="45" y2="245.11"/><line class="d" x1="195" y1="270.11" x2="45" y2="270.11"/><line class="d" x1="195" y1="295.11" x2="45" y2="295.11"/><line class="d" x1="195" y1="320.11" x2="45" y2="320.11"/><line class="i" x1="145" y1="45.22" x2="145" y2="195.22"/><line class="i" x1="120" y1="45.22" x2="120" y2="195.22"/><line class="i" x1="95" y1="45.22" x2="95" y2="195.22"/><line class="i" x1="70" y1="45.22" x2="70" y2="195.22"/><line class="i" x1="170" y1="45.22" x2="170" y2="195.22"/><line class="i" x1="195" y1="70.22" x2="45" y2="70.22"/><line class="i" x1="195" y1="95.22" x2="45" y2="95.22"/><line class="i" x1="195" y1="120.22" x2="45" y2="120.22"/><line class="i" x1="195" y1="145.22" x2="45" y2="145.22"/><line class="i" x1="195" y1="170.22" x2="45" y2="170.22"/><line class="l" x1="145" y1="345" x2="145" y2="495"/><line class="l" x1="120" y1="345" x2="120" y2="495"/><line class="l" x1="95" y1="345" x2="95" y2="495"/><line class="l" x1="70" y1="345" x2="70" y2="495"/><line class="l" x1="170" y1="345" x2="170" y2="495"/><line class="l" x1="195" y1="370" x2="45" y2="370"/><line class="l" x1="195" y1="395" x2="45" y2="395"/><line class="l" x1="195" y1="420" x2="45" y2="420"/><line class="l" x1="195" y1="445" x2="45" y2="445"/><line class="l" x1="195" y1="470" x2="45" y2="470"/><line class="j" x1="295" y1="45.22" x2="295" y2="195.22"/><line class="j" x1="270" y1="45.22" x2="270" y2="195.22"/><line class="j" x1="245" y1="45.22" x2="245" y2="195.22"/><line class="j" x1="220" y1="45.22" x2="220" y2="195.22"/><line class="j" x1="320" y1="45.22" x2="320" y2="195.22"/><line class="j" x1="345" y1="70.22" x2="195" y2="70.22"/><line class="j" x1="345" y1="95.22" x2="195" y2="95.22"/><line class="j" x1="345" y1="120.22" x2="195" y2="120.22"/><line class="j" x1="345" y1="145.22" x2="195" y2="145.22"/><line class="j" x1="345" y1="170.22" x2="195" y2="170.22"/><line class="g" x1="295" y1="345" x2="295" y2="495"/><line class="g" x1="270" y1="345" x2="270" y2="495"/><line class="g" x1="245" y1="345" x2="245" y2="495"/><line class="g" x1="220" y1="345" x2="220" y2="495"/><line class="g" x1="320" y1="345" x2="320" y2="495"/><line class="g" x1="345" y1="370" x2="195" y2="370"/><line class="g" x1="345" y1="395" x2="195" y2="395"/><line class="g" x1="345" y1="420" x2="195" y2="420"/><line class="g" x1="345" y1="445" x2="195" y2="445"/><line class="g" x1="345" y1="470" x2="195" y2="470"/><rect class="n" x="195" y="195" width="150" height="150"/><rect class="p" x="270" y="195" width="25" height="25"/><rect class="p" x="320" y="245" width="25" height="25"/><rect class="p" x="320" y="295" width="25" height="25"/><rect class="p" x="320" y="195" width="25" height="25"/><rect class="p" x="295" y="320" width="25" height="25"/><rect class="p" x="245" y="320" width="25" height="25"/><rect class="p" x="220" y="195" width="25" height="25"/><rect class="p" x="195" y="320" width="25" height="25"/><rect class="p" x="195" y="270" width="25" height="25"/><rect class="p" x="195" y="220" width="25" height="25"/><rect class="p" x="295" y="220" width="25" height="25"/><rect class="p" x="245" y="220" width="25" height="25"/><rect class="p" x="270" y="245" width="25" height="25"/><rect class="p" x="220" y="245" width="25" height="25"/><rect class="p" x="295" y="270" width="25" height="25"/><rect class="p" x="245" y="270" width="25" height="25"/><rect class="p" x="270" y="295" width="25" height="25"/><rect class="p" x="220" y="295" width="25" height="25"/><rect class="e" x="45" y="45" width="450" height="450"/><line class="e" x1="45" y1="195" x2="495" y2="195"/><line class="e" x1="45" y1="345" x2="495" y2="345"/><line class="e" x1="195" y1="495" x2="195" y2="45"/><line class="e" x1="345" y1="495" x2="345" y2="45"/><path class="o" d="M20.15,48.61v-.75h2.79v-7.38h-.09l-2.72,1.75v-.96l2.82-1.82h.86v8.41h2.66v.75h-6.31Z"/><path class="o" d="M22.97,64.26c1.61,0,2.71,1.03,2.71,2.53,0,.93-.39,1.64-1.82,3.29l-2.29,2.65v.1h4.27v.79h-5.55v-.55l3.14-3.67c1.12-1.33,1.38-1.82,1.38-2.59,0-1.08-.73-1.78-1.86-1.78s-1.85.75-1.85,1.92v.04h-.86v-.04c0-1.56,1.15-2.68,2.72-2.68Z"/><path class="o" d="M21.92,93.51h.97c1.07,0,1.83-.75,1.83-1.79s-.73-1.69-1.81-1.69-1.78.65-1.89,1.71h-.87c.13-1.53,1.2-2.47,2.8-2.47s2.69.98,2.69,2.35c0,1.11-.56,1.9-1.54,2.15v.1c1.21.17,1.93,1.04,1.93,2.31,0,1.52-1.28,2.63-3.01,2.63s-2.96-1.02-3.05-2.53h.83c.11,1.07.98,1.77,2.19,1.77,1.33,0,2.16-.71,2.16-1.85s-.86-1.93-2.21-1.93h-1.03v-.75Z"/><path class="o" d="M24.23,121.59h-4.2v-.67l3.23-6.47h.89l-3.21,6.33v.06h3.29v-2.75h.79v2.72h1.45v.77h-1.47v2.03h-.78v-2.03Z"/><path class="o" d="M20.05,146.25h.83c.1,1.05.98,1.79,2.14,1.79,1.26,0,2.09-.91,2.09-2.27s-.84-2.3-2.09-2.3c-.88,0-1.62.41-2,1.11h-.81l.48-5.12h4.79v.78h-4.11l-.27,3.24h.1c.48-.53,1.11-.8,1.9-.8,1.69,0,2.88,1.27,2.88,3.08s-1.22,3.05-3.03,3.05c-1.62,0-2.79-1.02-2.89-2.55Z"/><path class="o" d="M23.03,173.8c-1.71,0-2.96-1.28-2.96-3.01,0-1.05.36-2.01,1.22-3.27l2.1-3.07h1.01l-2.57,3.61c-.28.41-.22.32-.26.39l.08.06c.25-.37.95-.67,1.54-.67,1.64,0,2.85,1.22,2.85,2.89,0,1.8-1.24,3.07-3,3.07ZM25.2,170.78c0-1.28-.93-2.27-2.15-2.27s-2.15.99-2.15,2.27.93,2.27,2.15,2.27,2.15-.99,2.15-2.27Z"/><path class="o" d="M25.17,190.3v-.07h-5.08v-.78h5.97v.81l-4.2,8.35h-.93l4.23-8.31Z"/><path class="o" d="M19.99,221.17c0-1.14.72-2.08,1.82-2.34v-.09c-.89-.27-1.45-1.06-1.45-2.06,0-1.42,1.13-2.42,2.72-2.42s2.72,1,2.72,2.42c0,1.01-.55,1.79-1.45,2.06v.09c1.07.22,1.82,1.18,1.82,2.34,0,1.55-1.28,2.65-3.08,2.65s-3.09-1.1-3.09-2.65ZM25.31,221.12c0-1.14-.91-1.92-2.23-1.92s-2.23.79-2.23,1.92.91,1.92,2.23,1.92,2.23-.79,2.23-1.92ZM24.95,216.73c0-1.02-.74-1.69-1.87-1.69s-1.87.67-1.87,1.69.74,1.69,1.87,1.69,1.87-.67,1.87-1.69Z"/><path class="o" d="M23.02,239.26c1.71,0,2.96,1.28,2.96,3.01,0,1.02-.36,1.96-1.25,3.27l-2.09,3.07h-1.01l2.57-3.61c.19-.27.22-.32.27-.39l-.08-.06c-.25.38-.93.67-1.51.67-1.64,0-2.85-1.23-2.85-2.89,0-1.8,1.24-3.07,3-3.07ZM20.85,242.29c0,1.28.93,2.27,2.15,2.27s2.15-.99,2.15-2.27-.93-2.27-2.15-2.27-2.15.99-2.15,2.27Z"/><path class="o" d="M16.13,273.61v-.75h2.79v-7.38h-.09l-2.72,1.75v-.96l2.82-1.82h.86v8.41h2.66v.75h-6.31Z"/><path class="o" d="M24.1,269.04c0-3.1,1.05-4.79,2.96-4.79s2.96,1.7,2.96,4.79-1.05,4.79-2.96,4.79-2.96-1.69-2.96-4.79ZM25.05,270.39l3.87-3.54c-.31-1.22-.93-1.85-1.86-1.85-1.37,0-2.09,1.38-2.09,4.03,0,.49.03.95.08,1.36ZM29.15,269.04c0-.51-.03-.96-.08-1.38l-3.87,3.59c.31,1.2.93,1.82,1.85,1.82,1.37,0,2.09-1.38,2.09-4.03Z"/><path class="o" d="M16.13,298.61v-.75h2.79v-7.38h-.09l-2.72,1.75v-.96l2.82-1.82h.86v8.41h2.66v.75h-6.31Z"/><path class="o" d="M24.17,298.61v-.75h2.79v-7.38h-.1l-2.72,1.75v-.96l2.82-1.82h.86v8.41h2.66v.75h-6.31Z"/><path class="o" d="M16.13,323.61v-.75h2.79v-7.38h-.09l-2.72,1.75v-.96l2.82-1.82h.86v8.41h2.66v.75h-6.31Z"/><path class="o" d="M26.99,314.26c1.61,0,2.71,1.03,2.71,2.53,0,.93-.39,1.64-1.82,3.29l-2.29,2.65v.1h4.27v.79h-5.55v-.55l3.14-3.67c1.12-1.33,1.38-1.82,1.38-2.59,0-1.08-.73-1.78-1.86-1.78s-1.85.75-1.85,1.92v.04h-.86v-.04c0-1.56,1.15-2.68,2.72-2.68Z"/><path class="o" d="M16.13,348.61v-.75h2.79v-7.38h-.09l-2.72,1.75v-.96l2.82-1.82h.86v8.41h2.66v.75h-6.31Z"/><path class="o" d="M25.94,343.51h.97c1.07,0,1.83-.75,1.83-1.79s-.73-1.69-1.81-1.69-1.78.65-1.89,1.71h-.87c.13-1.53,1.2-2.47,2.81-2.47s2.68.98,2.68,2.35c0,1.11-.57,1.9-1.54,2.15v.1c1.21.17,1.93,1.04,1.93,2.31,0,1.52-1.28,2.63-3.02,2.63s-2.96-1.02-3.05-2.53h.83c.11,1.07.98,1.77,2.19,1.77,1.33,0,2.16-.71,2.16-1.85s-.86-1.93-2.21-1.93h-1.03v-.75Z"/><path class="o" d="M16.13,373.61v-.75h2.79v-7.38h-.09l-2.72,1.75v-.96l2.82-1.82h.86v8.41h2.66v.75h-6.31Z"/><path class="o" d="M28.25,371.59h-4.2v-.67l3.23-6.47h.89l-3.21,6.33v.06h3.29v-2.75h.79v2.72h1.45v.77h-1.47v2.03h-.78v-2.03Z"/><path class="o" d="M16.13,398.61v-.75h2.79v-7.38h-.09l-2.72,1.75v-.96l2.82-1.82h.86v8.41h2.66v.75h-6.31Z"/><path class="o" d="M24.07,396.25h.83c.1,1.05.98,1.79,2.14,1.79,1.26,0,2.09-.91,2.09-2.27s-.84-2.3-2.09-2.3c-.88,0-1.62.41-2,1.11h-.81l.48-5.12h4.79v.78h-4.11l-.27,3.24h.09c.48-.53,1.11-.8,1.9-.8,1.7,0,2.88,1.27,2.88,3.08s-1.23,3.05-3.03,3.05c-1.62,0-2.79-1.02-2.89-2.55Z"/><path class="o" d="M16.13,423.61v-.75h2.79v-7.38h-.09l-2.72,1.75v-.96l2.82-1.82h.86v8.41h2.66v.75h-6.31Z"/><path class="o" d="M27.05,423.8c-1.71,0-2.96-1.28-2.96-3.01,0-1.05.36-2.01,1.22-3.27l2.09-3.07h1.01l-2.57,3.61c-.28.41-.22.32-.26.39l.08.06c.25-.37.95-.67,1.54-.67,1.64,0,2.85,1.22,2.85,2.89,0,1.8-1.24,3.07-3,3.07ZM29.22,420.78c0-1.28-.93-2.27-2.15-2.27s-2.15.99-2.15,2.27.93,2.27,2.15,2.27,2.15-.99,2.15-2.27Z"/><path class="o" d="M16.13,448.61v-.75h2.79v-7.38h-.09l-2.72,1.75v-.96l2.82-1.82h.86v8.41h2.66v.75h-6.31Z"/><path class="o" d="M29.19,440.3v-.07h-5.08v-.78h5.97v.81l-4.2,8.35h-.93l4.23-8.31Z"/><path class="o" d="M16.13,473.61v-.75h2.79v-7.38h-.09l-2.72,1.75v-.96l2.82-1.82h.86v8.41h2.66v.75h-6.31Z"/><path class="o" d="M24.01,471.17c0-1.14.72-2.08,1.81-2.34v-.09c-.89-.27-1.45-1.06-1.45-2.06,0-1.42,1.13-2.42,2.72-2.42s2.72,1,2.72,2.42c0,1.01-.54,1.79-1.45,2.06v.09c1.07.22,1.82,1.18,1.82,2.34,0,1.55-1.28,2.65-3.09,2.65s-3.08-1.1-3.08-2.65ZM29.33,471.12c0-1.14-.91-1.92-2.23-1.92s-2.23.79-2.23,1.92.91,1.92,2.23,1.92,2.23-.79,2.23-1.92ZM28.96,466.73c0-1.02-.74-1.69-1.87-1.69s-1.87.67-1.87,1.69.74,1.69,1.87,1.69,1.87-.67,1.87-1.69Z"/><path class="o" d="M16.13,498.61v-.75h2.79v-7.38h-.09l-2.72,1.75v-.96l2.82-1.82h.86v8.41h2.66v.75h-6.31Z"/><path class="o" d="M27.04,489.26c1.71,0,2.96,1.28,2.96,3.01,0,1.02-.36,1.96-1.25,3.27l-2.1,3.07h-1.01l2.57-3.61c.19-.27.22-.32.27-.39l-.08-.06c-.25.38-.93.67-1.51.67-1.64,0-2.85-1.23-2.85-2.89,0-1.8,1.24-3.07,3-3.07ZM24.87,492.29c0,1.28.93,2.27,2.15,2.27s2.15-.99,2.15-2.27-.93-2.27-2.15-2.27-2.15.99-2.15,2.27Z"/><path class="o" d="M514.08,48.61v-.75h2.79v-7.38h-.09l-2.72,1.75v-.96l2.82-1.82h.86v8.41h2.66v.75h-6.31Z"/><path class="o" d="M516.9,64.26c1.61,0,2.71,1.03,2.71,2.53,0,.93-.39,1.64-1.82,3.29l-2.29,2.65v.1h4.27v.79h-5.55v-.55l3.14-3.67c1.12-1.33,1.38-1.82,1.38-2.59,0-1.08-.73-1.78-1.86-1.78s-1.85.75-1.85,1.92v.04h-.86v-.04c0-1.56,1.15-2.68,2.72-2.68Z"/><path class="o" d="M515.85,93.51h.97c1.07,0,1.83-.75,1.83-1.79s-.73-1.69-1.81-1.69-1.78.65-1.89,1.71h-.87c.13-1.53,1.2-2.47,2.8-2.47s2.69.98,2.69,2.35c0,1.11-.56,1.9-1.54,2.15v.1c1.21.17,1.93,1.04,1.93,2.31,0,1.52-1.28,2.63-3.01,2.63s-2.96-1.02-3.05-2.53h.83c.11,1.07.98,1.77,2.19,1.77,1.33,0,2.16-.71,2.16-1.85s-.86-1.93-2.21-1.93h-1.03v-.75Z"/><path class="o" d="M518.16,121.59h-4.2v-.67l3.23-6.47h.89l-3.21,6.33v.06h3.29v-2.75h.79v2.72h1.45v.77h-1.47v2.03h-.78v-2.03Z"/><path class="o" d="M513.98,146.25h.83c.1,1.05.98,1.79,2.14,1.79,1.26,0,2.09-.91,2.09-2.27s-.84-2.3-2.09-2.3c-.88,0-1.62.41-2,1.11h-.81l.48-5.12h4.79v.78h-4.11l-.27,3.24h.1c.48-.53,1.11-.8,1.9-.8,1.69,0,2.88,1.27,2.88,3.08s-1.22,3.05-3.03,3.05c-1.62,0-2.79-1.02-2.89-2.55Z"/><path class="o" d="M516.96,173.8c-1.71,0-2.96-1.28-2.96-3.01,0-1.05.36-2.01,1.22-3.27l2.1-3.07h1.01l-2.57,3.61c-.28.41-.22.32-.26.39l.08.06c.25-.37.95-.67,1.54-.67,1.64,0,2.85,1.22,2.85,2.89,0,1.8-1.24,3.07-3,3.07ZM519.13,170.78c0-1.28-.93-2.27-2.15-2.27s-2.15.99-2.15,2.27.93,2.27,2.15,2.27,2.15-.99,2.15-2.27Z"/><path class="o" d="M519.1,190.3v-.07h-5.08v-.78h5.97v.81l-4.2,8.35h-.93l4.23-8.31Z"/><path class="o" d="M513.92,221.17c0-1.14.72-2.08,1.82-2.34v-.09c-.89-.27-1.45-1.06-1.45-2.06,0-1.42,1.13-2.42,2.72-2.42s2.72,1,2.72,2.42c0,1.01-.55,1.79-1.45,2.06v.09c1.07.22,1.82,1.18,1.82,2.34,0,1.55-1.28,2.65-3.08,2.65s-3.09-1.1-3.09-2.65ZM519.24,221.12c0-1.14-.91-1.92-2.23-1.92s-2.23.79-2.23,1.92.91,1.92,2.23,1.92,2.23-.79,2.23-1.92ZM518.87,216.73c0-1.02-.74-1.69-1.87-1.69s-1.87.67-1.87,1.69.74,1.69,1.87,1.69,1.87-.67,1.87-1.69Z"/><path class="o" d="M516.95,239.26c1.71,0,2.96,1.28,2.96,3.01,0,1.02-.36,1.96-1.25,3.27l-2.09,3.07h-1.01l2.57-3.61c.19-.27.22-.32.27-.39l-.08-.06c-.25.38-.93.67-1.51.67-1.64,0-2.85-1.23-2.85-2.89,0-1.8,1.24-3.07,3-3.07ZM514.78,242.29c0,1.28.93,2.27,2.15,2.27s2.15-.99,2.15-2.27-.93-2.27-2.15-2.27-2.15.99-2.15,2.27Z"/><path class="o" d="M510.06,273.61v-.75h2.79v-7.38h-.09l-2.72,1.75v-.96l2.82-1.82h.86v8.41h2.66v.75h-6.31Z"/><path class="o" d="M518.03,269.04c0-3.1,1.05-4.79,2.96-4.79s2.96,1.7,2.96,4.79-1.05,4.79-2.96,4.79-2.96-1.69-2.96-4.79ZM518.98,270.39l3.87-3.54c-.31-1.22-.93-1.85-1.86-1.85-1.37,0-2.09,1.38-2.09,4.03,0,.49.03.95.08,1.36ZM523.08,269.04c0-.51-.03-.96-.08-1.38l-3.87,3.59c.31,1.2.93,1.82,1.85,1.82,1.37,0,2.09-1.38,2.09-4.03Z"/><path class="o" d="M510.06,298.61v-.75h2.79v-7.38h-.09l-2.72,1.75v-.96l2.82-1.82h.86v8.41h2.66v.75h-6.31Z"/><path class="o" d="M518.09,298.61v-.75h2.79v-7.38h-.1l-2.72,1.75v-.96l2.82-1.82h.86v8.41h2.66v.75h-6.31Z"/><path class="o" d="M510.06,323.61v-.75h2.79v-7.38h-.09l-2.72,1.75v-.96l2.82-1.82h.86v8.41h2.66v.75h-6.31Z"/><path class="o" d="M520.92,314.26c1.61,0,2.71,1.03,2.71,2.53,0,.93-.39,1.64-1.82,3.29l-2.29,2.65v.1h4.27v.79h-5.55v-.55l3.14-3.67c1.12-1.33,1.38-1.82,1.38-2.59,0-1.08-.73-1.78-1.86-1.78s-1.85.75-1.85,1.92v.04h-.86v-.04c0-1.56,1.15-2.68,2.72-2.68Z"/><path class="o" d="M510.06,348.61v-.75h2.79v-7.38h-.09l-2.72,1.75v-.96l2.82-1.82h.86v8.41h2.66v.75h-6.31Z"/><path class="o" d="M519.87,343.51h.97c1.07,0,1.83-.75,1.83-1.79s-.73-1.69-1.81-1.69-1.78.65-1.89,1.71h-.87c.13-1.53,1.2-2.47,2.81-2.47s2.68.98,2.68,2.35c0,1.11-.57,1.9-1.54,2.15v.1c1.21.17,1.93,1.04,1.93,2.31,0,1.52-1.28,2.63-3.02,2.63s-2.96-1.02-3.05-2.53h.83c.11,1.07.98,1.77,2.19,1.77,1.33,0,2.16-.71,2.16-1.85s-.86-1.93-2.21-1.93h-1.03v-.75Z"/><path class="o" d="M510.06,373.61v-.75h2.79v-7.38h-.09l-2.72,1.75v-.96l2.82-1.82h.86v8.41h2.66v.75h-6.31Z"/><path class="o" d="M522.18,371.59h-4.2v-.67l3.23-6.47h.89l-3.21,6.33v.06h3.29v-2.75h.79v2.72h1.45v.77h-1.47v2.03h-.78v-2.03Z"/><path class="o" d="M510.06,398.61v-.75h2.79v-7.38h-.09l-2.72,1.75v-.96l2.82-1.82h.86v8.41h2.66v.75h-6.31Z"/><path class="o" d="M518,396.25h.83c.1,1.05.98,1.79,2.14,1.79,1.26,0,2.09-.91,2.09-2.27s-.84-2.3-2.09-2.3c-.88,0-1.62.41-2,1.11h-.81l.48-5.12h4.79v.78h-4.11l-.27,3.24h.09c.48-.53,1.11-.8,1.9-.8,1.7,0,2.88,1.27,2.88,3.08s-1.23,3.05-3.03,3.05c-1.62,0-2.79-1.02-2.89-2.55Z"/><path class="o" d="M510.06,423.61v-.75h2.79v-7.38h-.09l-2.72,1.75v-.96l2.82-1.82h.86v8.41h2.66v.75h-6.31Z"/><path class="o" d="M520.98,423.8c-1.71,0-2.96-1.28-2.96-3.01,0-1.05.36-2.01,1.22-3.27l2.09-3.07h1.01l-2.57,3.61c-.28.41-.22.32-.26.39l.08.06c.25-.37.95-.67,1.54-.67,1.64,0,2.85,1.22,2.85,2.89,0,1.8-1.24,3.07-3,3.07ZM523.15,420.78c0-1.28-.93-2.27-2.15-2.27s-2.15.99-2.15,2.27.93,2.27,2.15,2.27,2.15-.99,2.15-2.27Z"/><path class="o" d="M510.06,448.61v-.75h2.79v-7.38h-.09l-2.72,1.75v-.96l2.82-1.82h.86v8.41h2.66v.75h-6.31Z"/><path class="o" d="M523.12,440.3v-.07h-5.08v-.78h5.97v.81l-4.2,8.35h-.93l4.23-8.31Z"/><path class="o" d="M510.06,473.61v-.75h2.79v-7.38h-.09l-2.72,1.75v-.96l2.82-1.82h.86v8.41h2.66v.75h-6.31Z"/><path class="o" d="M517.94,471.17c0-1.14.72-2.08,1.81-2.34v-.09c-.89-.27-1.45-1.06-1.45-2.06,0-1.42,1.13-2.42,2.72-2.42s2.72,1,2.72,2.42c0,1.01-.54,1.79-1.45,2.06v.09c1.07.22,1.82,1.18,1.82,2.34,0,1.55-1.28,2.65-3.09,2.65s-3.08-1.1-3.08-2.65ZM523.25,471.12c0-1.14-.91-1.92-2.23-1.92s-2.23.79-2.23,1.92.91,1.92,2.23,1.92,2.23-.79,2.23-1.92ZM522.89,466.73c0-1.02-.74-1.69-1.87-1.69s-1.87.67-1.87,1.69.74,1.69,1.87,1.69,1.87-.67,1.87-1.69Z"/><path class="o" d="M510.06,498.61v-.75h2.79v-7.38h-.09l-2.72,1.75v-.96l2.82-1.82h.86v8.41h2.66v.75h-6.31Z"/><path class="o" d="M520.97,489.26c1.71,0,2.96,1.28,2.96,3.01,0,1.02-.36,1.96-1.25,3.27l-2.1,3.07h-1.01l2.57-3.61c.19-.27.22-.32.27-.39l-.08-.06c-.25.38-.93.67-1.51.67-1.64,0-2.85-1.23-2.85-2.89,0-1.8,1.24-3.07,3-3.07ZM518.8,492.29c0,1.28.93,2.27,2.15,2.27s2.15-.99,2.15-2.27-.93-2.27-2.15-2.27-2.15.99-2.15,2.27Z"/><path class="o" d="M445.81,519.93c-.41.22-.88.33-1.42.33-1.88,0-3.04-1.37-3.04-3.7v-1.4c0-2.33,1.16-3.7,3.04-3.7s3.04,1.37,3.04,3.7v1.4c0,1.29-.36,2.29-1,2.92l1.05,1.59h-.92l-.76-1.14ZM445.38,519.28l-1.25-1.9h.92l.93,1.41c.42-.5.64-1.27.64-2.24v-1.4c0-1.88-.86-2.96-2.24-2.96s-2.24,1.08-2.24,2.96v1.4c0,1.88.86,2.96,2.24,2.96.38,0,.71-.08,1-.23Z"/><path class="o" d="M492.27,517.88c.11,1.01.91,1.64,2.1,1.64s2-.66,2-1.66c0-.81-.53-1.31-1.74-1.62l-.66-.17c-1.59-.42-2.29-1.14-2.29-2.35,0-1.38,1.06-2.27,2.69-2.27,1.54,0,2.59.88,2.67,2.24h-.8c-.12-.96-.81-1.51-1.87-1.51-1.17,0-1.87.57-1.87,1.54,0,.79.5,1.26,1.68,1.56l.69.18c1.65.43,2.33,1.13,2.33,2.4,0,1.44-1.12,2.39-2.82,2.39s-2.8-.91-2.9-2.37h.8Z"/><path class="o" d="M46.81,517.49h-3.07l-.83,2.59h-.82l2.79-8.46h.79l2.79,8.46h-.82l-.83-2.59ZM43.95,516.8h2.64l-1.31-4.12h-.01l-1.31,4.12Z"/><path class="o" d="M467.55,516.59v3.49h-.79v-8.46h2.75c1.61,0,2.63.96,2.63,2.47,0,1.11-.63,2.02-1.61,2.31l1.73,3.67h-.9l-1.61-3.49h-2.22ZM467.55,515.9h1.86c1.25,0,1.95-.63,1.95-1.77s-.68-1.79-1.89-1.79h-1.92v3.56Z"/><path class="o" d="M419.7,511.62c1.59,0,2.65,1.05,2.65,2.63s-1.06,2.63-2.65,2.63h-1.9v3.19h-.8v-8.46h2.71ZM417.8,516.17h1.71c1.28,0,2.03-.7,2.03-1.92s-.74-1.92-2.03-1.92h-1.71v3.83Z"/><path class="o" d="M394.49,520.25c-1.88,0-3.04-1.37-3.04-3.7v-1.4c0-2.33,1.16-3.7,3.04-3.7s3.04,1.37,3.04,3.7v1.4c0,2.33-1.16,3.7-3.04,3.7ZM396.73,516.55v-1.4c0-1.88-.86-2.96-2.24-2.96s-2.24,1.08-2.24,2.96v1.4c0,1.88.86,2.96,2.24,2.96s2.24-1.08,2.24-2.96Z"/><path class="o" d="M366.79,520.08v-8.46h.81l3.88,7.02h.08v-7.02h.75v8.46h-.8l-3.9-7.03h-.08v7.03h-.75Z"/><path class="o" d="M342.35,520.08h-.75v-8.46h.94l2.03,5.44h.06l2.02-5.44h.95v8.46h-.75v-6.9h-.06l-1.85,4.91h-.69l-1.85-4.91h-.06v6.9Z"/><path class="o" d="M322.48,520.08h-4.92v-8.46h.8v7.73h4.12v.73Z"/><path class="o" d="M292.4,520.08v-8.46h.8v4.37h.07l3.59-4.37h1l-3.21,3.74,3.55,4.72h-1.04l-3.05-4.1-.93,1.08v3.02h-.8Z"/><path class="o" d="M267.17,518.14h.8c.04.81.67,1.37,1.55,1.37,1.03,0,1.61-.64,1.61-1.76v-5.43h-2.86v-.69h3.66v6.15c0,1.54-.91,2.48-2.4,2.48-1.37,0-2.34-.87-2.35-2.11Z"/><path class="o" d="M242.73,520.08v-.69h1.7v-7.07h-1.7v-.69h4.2v.69h-1.7v7.07h1.7v.69h-4.2Z"/><path class="o" d="M221.82,520.08v-3.97h-3.87v3.97h-.8v-8.46h.8v3.76h3.87v-3.76h.8v8.46h-.8Z"/><path class="o" d="M197.11,516.58h-2.09v-.71h2.89v1.82c0,1.51-1.18,2.57-2.83,2.57-1.95,0-3.07-1.35-3.07-3.7v-1.4c0-2.35,1.12-3.7,3.07-3.7,1.72,0,2.79,1.05,2.84,2.76h-.8c-.05-1.2-.87-2.02-2.03-2.02-1.49,0-2.27,1.02-2.27,2.96v1.4c0,1.94.78,2.96,2.27,2.96,1.25,0,2.03-.74,2.03-1.94v-.99Z"/><path class="o" d="M167.85,520.08v-8.46h4.86v.73h-4.05v3.18h3.71v.71h-3.71v3.84h-.8Z"/><path class="o" d="M147.62,520.08h-4.86v-8.46h4.86v.73h-4.06v3.04h3.84v.71h-3.84v3.25h4.06v.73Z"/><path class="o" d="M119.66,511.62c2.4,0,3.6,1.41,3.6,4.23s-1.2,4.22-3.6,4.22h-2.24v-8.46h2.24ZM118.22,519.35h1.39c1.92,0,2.83-1.12,2.83-3.5s-.91-3.5-2.83-3.5h-1.39v7Z"/><path class="o" d="M97.39,517.67h.8c0,1.51-1.18,2.58-2.84,2.58-1.95,0-3.07-1.35-3.07-3.7v-1.4c0-2.35,1.12-3.7,3.07-3.7,1.72,0,2.8,1.05,2.84,2.76h-.8c-.05-1.2-.87-2.02-2.04-2.02-1.49,0-2.27,1.02-2.27,2.96v1.4c0,1.94.78,2.96,2.27,2.96,1.22,0,2-.7,2.03-1.84Z"/><path class="o" d="M67.7,520.08v-8.46h2.6c1.54,0,2.46.78,2.46,2.09,0,.94-.59,1.71-1.43,1.86v.08c1.14.13,1.86.94,1.86,2.09,0,1.48-1.06,2.34-2.88,2.34h-2.61ZM68.5,515.35h1.45c1.3,0,1.99-.53,1.99-1.51s-.66-1.51-1.8-1.51h-1.65v3.02ZM70.2,519.37c1.41,0,2.17-.59,2.17-1.67s-.76-1.65-2.21-1.65h-1.65v3.32h1.69Z"/><path class="o" d="M445.81,25.08c-.41.22-.88.33-1.42.33-1.88,0-3.04-1.37-3.04-3.7v-1.4c0-2.33,1.16-3.7,3.04-3.7s3.04,1.37,3.04,3.7v1.4c0,1.29-.36,2.29-1,2.92l1.05,1.59h-.92l-.76-1.14ZM445.38,24.43l-1.25-1.9h.92l.93,1.41c.42-.5.64-1.27.64-2.24v-1.4c0-1.88-.86-2.96-2.24-2.96s-2.24,1.08-2.24,2.96v1.4c0,1.88.86,2.96,2.24,2.96.38,0,.71-.08,1-.23Z"/><path class="o" d="M492.27,23.03c.11,1.01.91,1.64,2.1,1.64s2-.66,2-1.66c0-.81-.53-1.31-1.74-1.62l-.66-.17c-1.59-.42-2.29-1.14-2.29-2.35,0-1.38,1.06-2.27,2.69-2.27,1.54,0,2.59.88,2.67,2.24h-.8c-.12-.96-.81-1.51-1.87-1.51-1.17,0-1.87.57-1.87,1.54,0,.79.5,1.26,1.68,1.56l.69.18c1.65.43,2.33,1.13,2.33,2.4,0,1.44-1.12,2.39-2.82,2.39s-2.8-.91-2.9-2.37h.8Z"/><path class="o" d="M46.81,22.64h-3.07l-.83,2.59h-.82l2.79-8.46h.79l2.79,8.46h-.82l-.83-2.59ZM43.95,21.95h2.64l-1.31-4.12h-.01l-1.31,4.12Z"/><path class="o" d="M467.55,21.74v3.49h-.79v-8.46h2.75c1.61,0,2.63.96,2.63,2.47,0,1.11-.63,2.02-1.61,2.31l1.73,3.67h-.9l-1.61-3.49h-2.22ZM467.55,21.05h1.86c1.25,0,1.95-.63,1.95-1.77s-.68-1.79-1.89-1.79h-1.92v3.56Z"/><path class="o" d="M419.7,16.77c1.59,0,2.65,1.05,2.65,2.63s-1.06,2.63-2.65,2.63h-1.9v3.19h-.8v-8.46h2.71ZM417.8,21.32h1.71c1.28,0,2.03-.7,2.03-1.92s-.74-1.92-2.03-1.92h-1.71v3.83Z"/><path class="o" d="M394.49,25.4c-1.88,0-3.04-1.37-3.04-3.7v-1.4c0-2.33,1.16-3.7,3.04-3.7s3.04,1.37,3.04,3.7v1.4c0,2.33-1.16,3.7-3.04,3.7ZM396.73,21.7v-1.4c0-1.88-.86-2.96-2.24-2.96s-2.24,1.08-2.24,2.96v1.4c0,1.88.86,2.96,2.24,2.96s2.24-1.08,2.24-2.96Z"/><path class="o" d="M366.79,25.23v-8.46h.81l3.88,7.02h.08v-7.02h.75v8.46h-.8l-3.9-7.03h-.08v7.03h-.75Z"/><path class="o" d="M342.35,25.23h-.75v-8.46h.94l2.03,5.44h.06l2.02-5.44h.95v8.46h-.75v-6.9h-.06l-1.85,4.91h-.69l-1.85-4.91h-.06v6.9Z"/><path class="o" d="M322.48,25.23h-4.92v-8.46h.8v7.73h4.12v.73Z"/><path class="o" d="M292.4,25.23v-8.46h.8v4.37h.07l3.59-4.37h1l-3.21,3.74,3.55,4.72h-1.04l-3.05-4.1-.93,1.08v3.02h-.8Z"/><path class="o" d="M267.17,23.29h.8c.04.81.67,1.37,1.55,1.37,1.03,0,1.61-.64,1.61-1.76v-5.43h-2.86v-.69h3.66v6.15c0,1.54-.91,2.48-2.4,2.48-1.37,0-2.34-.87-2.35-2.11Z"/><path class="o" d="M242.73,25.23v-.69h1.7v-7.07h-1.7v-.69h4.2v.69h-1.7v7.07h1.7v.69h-4.2Z"/><path class="o" d="M221.82,25.23v-3.97h-3.87v3.97h-.8v-8.46h.8v3.76h3.87v-3.76h.8v8.46h-.8Z"/><path class="o" d="M197.11,21.73h-2.09v-.71h2.89v1.82c0,1.51-1.18,2.57-2.83,2.57-1.95,0-3.07-1.35-3.07-3.7v-1.4c0-2.35,1.12-3.7,3.07-3.7,1.72,0,2.79,1.05,2.84,2.76h-.8c-.05-1.2-.87-2.02-2.03-2.02-1.49,0-2.27,1.02-2.27,2.96v1.4c0,1.94.78,2.96,2.27,2.96,1.25,0,2.03-.74,2.03-1.94v-.99Z"/><path class="o" d="M167.85,25.23v-8.46h4.86v.73h-4.05v3.18h3.71v.71h-3.71v3.84h-.8Z"/><path class="o" d="M147.62,25.23h-4.86v-8.46h4.86v.73h-4.06v3.04h3.84v.71h-3.84v3.25h4.06v.73Z"/><path class="o" d="M119.66,16.77c2.4,0,3.6,1.41,3.6,4.23s-1.2,4.22-3.6,4.22h-2.24v-8.46h2.24ZM118.22,24.5h1.39c1.92,0,2.83-1.12,2.83-3.5s-.91-3.5-2.83-3.5h-1.39v7Z"/><path class="o" d="M97.39,22.82h.8c0,1.51-1.18,2.58-2.84,2.58-1.95,0-3.07-1.35-3.07-3.7v-1.4c0-2.35,1.12-3.7,3.07-3.7,1.72,0,2.8,1.05,2.84,2.76h-.8c-.05-1.2-.87-2.02-2.04-2.02-1.49,0-2.27,1.02-2.27,2.96v1.4c0,1.94.78,2.96,2.27,2.96,1.22,0,2-.7,2.03-1.84Z"/><path class="o" d="M67.7,25.23v-8.46h2.6c1.54,0,2.46.78,2.46,2.09,0,.94-.59,1.71-1.43,1.86v.08c1.14.13,1.86.94,1.86,2.09,0,1.48-1.06,2.34-2.88,2.34h-2.61ZM68.5,20.5h1.45c1.3,0,1.99-.53,1.99-1.51s-.66-1.51-1.8-1.51h-1.65v3.02ZM70.2,24.52c1.41,0,2.17-.59,2.17-1.67s-.76-1.65-2.21-1.65h-1.65v3.32h1.69Z"/></svg>