<?xml version="1.0" encoding="UTF-8"?><svg id="b" xmlns="http://www.w3.org/2000/svg" viewBox="0 0 1080 1080"><defs><style>.c{fill:#1f2328;}.d{stroke:#d1d5db;stroke-miterlimit:10;stroke-width:4px;}.d,.e{fill:#fff;}.f{fill:#ffd400;}.g{fill:#f0f;}.h{fill:#00aeef;}.i{fill:green;}.j{fill:#0067c0;}.k{fill:#6a0dad;}.l{fill:red;}.m{fill:#f0f6fc;}.n{fill:#c9d1d9;}</style></defs><rect class="e" x="360" y="360" width="360" height="360"/><rect class="n" x="600" y="420" width="60" height="60"/><rect class="n" x="540" y="360" width="60" height="60"/><rect class="n" x="480" y="420" width="60" height="60"/><rect class="n" x="420" y="360" width="60" height="60"/><rect class="n" x="660" y="360" width="60" height="60"/><rect class="n" x="360" y="420" width="60" height="60"/><rect class="n" x="600" y="540" width="60" height="60"/><rect class="n" x="540" y="480" width="60" height="60"/><rect class="n" x="480" y="540" width="60" height="60"/><rect class="n" x="420" y="480" width="60" height="60"/><rect class="n" x="660" y="480" width="60" height="60"/><rect class="n" x="360" y="540" width="60" height="60"/><rect class="n" x="600" y="660" width="60" height="60"/><rect class="n" x="540" y="600" width="60" height="60"/><rect class="n" x="480" y="660" width="60" height="60"/><rect class="n" x="420" y="600" width="60" height="60"/><rect class="n" x="660" y="600" width="60" height="60"/><rect class="n" x="360" y="660" width="60" height="60"/><rect class="f" width="360" height="360"/><rect class="l" x="360" width="360" height="360"/><rect class="g" x="720" width="360" height="360"/><rect class="k" x="720" y="720" width="360" height="360"/><rect class="h" y="720" width="360" height="360"/><rect class="j" x="360" y="720" width="360" height="360"/><rect class="i" y="360" width="360" height="360"/><rect class="m" x="720" y="360" width="360" height="360"/><rect class="d" x="240" y="600" width="240" height="240" rx="120" ry="120"/><path class="c" d="M107.89,183.26v-.06c0-13.45,7.88-21.83,20.39-21.83s20.39,8.41,20.39,21.83v.06c0,13.45-7.82,21.86-20.39,21.86s-20.39-8.41-20.39-21.86ZM139.64,183.26v-.06c0-8.82-4.42-14.33-11.37-14.33s-11.37,5.48-11.37,14.33v.06c0,8.85,4.42,14.36,11.37,14.36s11.37-5.6,11.37-14.36Z"/><path class="c" d="M153.62,172.97h8.55v5.48h.21c1.7-3.81,5.13-6.12,9.58-6.12,7.97,0,12.83,6.09,12.83,16.32v.03c0,10.2-4.86,16.35-12.71,16.35-4.48,0-8.03-2.29-9.73-6.01h-.18v15.62h-8.55v-41.66ZM176.09,188.68v-.03c0-5.74-2.7-9.23-6.94-9.23s-7,3.57-7,9.26v.03c0,5.65,2.84,9.23,7,9.23s6.94-3.54,6.94-9.26Z"/><path class="c" d="M188.07,188.73v-.03c0-9.99,5.89-16.38,15.09-16.38s14.97,6.24,14.97,15.73v2.64h-21.62c.09,5.01,2.81,7.94,7.18,7.94,3.52,0,5.65-1.93,6.27-3.69l.06-.18h7.85l-.09.32c-.97,4.63-5.3,9.93-14.27,9.93-9.61,0-15.44-6.24-15.44-16.29ZM196.6,185.31h13.33c-.53-4.34-3.08-6.59-6.62-6.59s-6.15,2.34-6.71,6.59Z"/><path class="c" d="M222.52,172.97h8.55v5.16h.18c1.61-3.6,4.83-5.8,9.58-5.8,6.91,0,10.84,4.42,10.84,11.78v20.27h-8.55v-18.52c0-4.1-1.93-6.45-5.77-6.45s-6.27,2.81-6.27,6.91v18.05h-8.55v-31.41Z"/><path class="c" d="M111.02,882.1h28.01v7.29h-19.16v10.14h18.08v6.91h-18.08v10.63h19.16v7.29h-28.01v-42.28Z"/><path class="c" d="M144.68,892.97h8.55v5.16h.18c1.61-3.6,4.83-5.8,9.58-5.8,6.91,0,10.84,4.42,10.84,11.78v20.27h-8.55v-18.52c0-4.1-1.93-6.45-5.77-6.45s-6.27,2.81-6.27,6.91v18.05h-8.55v-31.41Z"/><path class="c" d="M181.48,915.59v-16.17h-4.37v-6.45h4.37v-7.68h8.64v7.68h5.74v6.45h-5.74v15.23c0,2.93,1.32,3.93,3.9,3.93.76,0,1.32-.09,1.85-.15v6.27c-.97.15-2.34.32-4.13.32-6.97,0-10.25-2.7-10.25-9.43Z"/><path class="c" d="M199,908.73v-.03c0-9.99,5.89-16.38,15.09-16.38s14.97,6.24,14.97,15.73v2.64h-21.62c.09,5.01,2.81,7.94,7.18,7.94,3.52,0,5.65-1.93,6.27-3.69l.06-.18h7.85l-.09.32c-.97,4.63-5.3,9.93-14.27,9.93-9.61,0-15.44-6.24-15.44-16.29ZM207.52,905.3h13.33c-.53-4.34-3.08-6.59-6.62-6.59s-6.15,2.34-6.71,6.59Z"/><path class="c" d="M233.45,892.97h8.55v5.48h.18c.94-3.87,3.49-6.12,7.15-6.12.94,0,1.82.15,2.46.32v7.53c-.7-.29-1.88-.47-3.11-.47-4.22,0-6.68,2.52-6.68,7.09v17.58h-8.55v-31.41Z"/><path class="m" d="M811.66,162.1h17.46c9.49,0,15.12,5.04,15.12,13.54v.06c0,5.57-2.96,10.2-7.65,12.04l8.91,16.64h-10.02l-7.88-15.32h-7.09v15.32h-8.85v-42.28ZM828.15,182.35c4.39,0,7.03-2.49,7.03-6.65v-.06c0-4.04-2.78-6.62-7.15-6.62h-7.53v13.33h7.65Z"/><path class="m" d="M847.9,188.73v-.03c0-9.99,5.89-16.38,15.09-16.38s14.97,6.24,14.97,15.73v2.64h-21.62c.09,5.01,2.81,7.94,7.18,7.94,3.52,0,5.65-1.93,6.27-3.69l.06-.18h7.85l-.09.32c-.97,4.63-5.3,9.93-14.27,9.93-9.61,0-15.44-6.24-15.44-16.29ZM856.42,185.31h13.33c-.53-4.34-3.08-6.59-6.62-6.59s-6.15,2.34-6.71,6.59Z"/><path class="m" d="M884.58,195.59v-16.17h-4.37v-6.45h4.37v-7.68h8.64v7.68h5.74v6.45h-5.74v15.23c0,2.93,1.32,3.93,3.9,3.93.76,0,1.32-.09,1.85-.15v6.27c-.97.15-2.34.32-4.13.32-6.97,0-10.25-2.7-10.25-9.43Z"/><path class="m" d="M903.53,193.25v-20.27h8.55v18.49c0,4.1,1.93,6.47,5.77,6.47s6.27-2.81,6.27-6.91v-18.05h8.55v31.41h-8.55v-5.19h-.18c-1.61,3.6-4.83,5.83-9.58,5.83-6.91,0-10.84-4.42-10.84-11.78Z"/><path class="m" d="M938.25,172.97h8.55v5.48h.18c.94-3.87,3.49-6.12,7.15-6.12.94,0,1.82.15,2.46.32v7.53c-.7-.29-1.88-.47-3.11-.47-4.22,0-6.68,2.52-6.68,7.09v17.58h-8.55v-31.41Z"/><path class="m" d="M960.08,172.97h8.55v5.16h.18c1.61-3.6,4.83-5.8,9.58-5.8,6.91,0,10.84,4.42,10.84,11.78v20.27h-8.55v-18.52c0-4.1-1.93-6.45-5.77-6.45s-6.27,2.81-6.27,6.91v18.05h-8.55v-31.41Z"/><path class="m" d="M824.29,903.22v-.03c0-13.62,7.79-21.83,20.13-21.83,10.25,0,17.61,6.47,18.43,15.44l.03.26h-8.61l-.12-.5c-1-4.66-4.45-7.71-9.73-7.71-6.77,0-11.1,5.45-11.1,14.3v.03c0,8.91,4.34,14.41,11.1,14.41,5.1,0,8.67-2.93,9.81-7.94l.06-.29h8.61l-.03.32c-.82,8.99-8.23,15.41-18.46,15.41-12.36,0-20.13-8.26-20.13-21.88Z"/><path class="m" d="M867.82,882.1h8.55v42.28h-8.55v-42.28Z"/><path class="m" d="M881,908.67v-.06c0-10.11,6.15-16.29,15.53-16.29s15.59,6.12,15.59,16.29v.06c0,10.25-6.06,16.35-15.56,16.35s-15.56-6.12-15.56-16.35ZM903.42,908.67v-.06c0-6.06-2.72-9.58-6.88-9.58s-6.83,3.52-6.83,9.58v.06c0,6.15,2.67,9.64,6.88,9.64s6.83-3.52,6.83-9.64Z"/><path class="m" d="M915.22,915.06l-.03-.26h8.35l.06.26c.56,2.46,2.4,3.9,5.83,3.9,3.22,0,5.19-1.26,5.19-3.28v-.03c0-1.67-1.05-2.64-4.13-3.31l-5.33-1.11c-6.09-1.29-9.17-4.34-9.17-9.02v-.03c0-5.98,5.16-9.84,13.15-9.84s13.01,4.42,13.21,9.93v.29h-7.88l-.03-.23c-.29-2.26-2.14-3.96-5.3-3.96-2.96,0-4.8,1.32-4.8,3.34v.03c0,1.61,1.08,2.67,4.25,3.34l5.33,1.14c6.56,1.38,9.26,3.96,9.26,8.58v.03c0,6.15-5.65,10.2-13.74,10.2-8.7,0-13.54-4.01-14.21-9.96Z"/><path class="m" d="M946.25,908.73v-.03c0-9.99,5.89-16.38,15.09-16.38s14.97,6.24,14.97,15.73v2.64h-21.62c.09,5.01,2.81,7.94,7.18,7.94,3.52,0,5.65-1.93,6.27-3.69l.06-.18h7.85l-.09.32c-.97,4.63-5.3,9.93-14.27,9.93-9.61,0-15.44-6.24-15.44-16.29ZM954.77,905.3h13.33c-.53-4.34-3.08-6.59-6.62-6.59s-6.15,2.34-6.71,6.59Z"/><path class="m" d="M457.42,162.1h16.99c8.91,0,14.85,5.74,14.85,14.44v.06c0,8.7-5.95,14.44-14.85,14.44h-8.14v13.33h-8.85v-42.28ZM466.26,169.11v15.03h5.98c5.07,0,8.06-2.7,8.06-7.5v-.06c0-4.8-2.99-7.47-8.06-7.47h-5.98Z"/><path class="m" d="M491.58,188.68v-.06c0-10.11,6.15-16.29,15.53-16.29s15.59,6.12,15.59,16.29v.06c0,10.25-6.06,16.35-15.56,16.35s-15.56-6.12-15.56-16.35ZM513.99,188.68v-.06c0-6.06-2.72-9.58-6.88-9.58s-6.83,3.52-6.83,9.58v.06c0,6.15,2.67,9.64,6.88,9.64s6.83-3.52,6.83-9.64Z"/><path class="m" d="M524.56,172.97h8.61l4.75,23.29h.18l5.57-23.29h8.2l5.6,23.29h.18l4.78-23.29h8.44l-8.32,31.41h-9.11l-5.68-22.21h-.18l-5.65,22.21h-8.99l-8.35-31.41Z"/><path class="m" d="M572.61,188.73v-.03c0-9.99,5.89-16.38,15.09-16.38s14.97,6.24,14.97,15.73v2.64h-21.62c.09,5.01,2.81,7.94,7.18,7.94,3.52,0,5.65-1.93,6.27-3.69l.06-.18h7.85l-.09.32c-.97,4.63-5.3,9.93-14.27,9.93-9.61,0-15.44-6.24-15.44-16.29ZM581.14,185.31h13.33c-.53-4.34-3.08-6.59-6.62-6.59s-6.15,2.34-6.71,6.59Z"/><path class="m" d="M607.06,172.97h8.55v5.48h.18c.94-3.87,3.49-6.12,7.15-6.12.94,0,1.82.15,2.46.32v7.53c-.7-.29-1.88-.47-3.11-.47-4.22,0-6.68,2.52-6.68,7.09v17.58h-8.55v-31.41Z"/><path class="m" d="M479.07,883.6h27.69v7.29h-18.84v11.34h17.2v7h-17.2v16.64h-8.85v-42.28Z"/><path class="m" d="M511.44,883.6h8.55v42.28h-8.55v-42.28Z"/><path class="m" d="M524.62,910.18v-.06c0-10.11,6.15-16.29,15.53-16.29s15.59,6.12,15.59,16.29v.06c0,10.25-6.06,16.35-15.56,16.35s-15.56-6.12-15.56-16.35ZM547.04,910.18v-.06c0-6.06-2.72-9.58-6.88-9.58s-6.83,3.52-6.83,9.58v.06c0,6.15,2.67,9.64,6.88,9.64s6.83-3.52,6.83-9.64Z"/><path class="m" d="M557.61,894.47h8.61l4.75,23.29h.18l5.57-23.29h8.2l5.6,23.29h.18l4.78-23.29h8.44l-8.32,31.41h-9.11l-5.68-22.21h-.18l-5.65,22.21h-8.99l-8.35-31.41Z"/><path class="m" d="M109.25,543.11v-.03c0-13.54,7.76-21.71,20.16-21.71,10.17,0,17.08,5.92,18.49,13.86l.09.41h-8.88l-.12-.29c-1.41-4.1-4.78-6.47-9.55-6.47-6.97,0-11.16,5.16-11.16,14.12v.03c0,9.17,4.45,14.59,11.48,14.59,5.77,0,9.73-3.43,9.96-8.64l.03-.62h-9.67v-6.59h18.28v4.86c0,11.51-6.97,18.49-18.75,18.49-12.63,0-20.36-8.23-20.36-22Z"/><path class="m" d="M153.46,532.97h8.55v5.48h.18c.94-3.87,3.49-6.12,7.15-6.12.94,0,1.82.15,2.46.32v7.53c-.7-.29-1.88-.47-3.11-.47-4.22,0-6.68,2.52-6.68,7.09v17.58h-8.55v-31.41Z"/><path class="m" d="M173.11,548.68v-.06c0-10.11,6.15-16.29,15.53-16.29s15.59,6.12,15.59,16.29v.06c0,10.25-6.06,16.35-15.56,16.35s-15.56-6.12-15.56-16.35ZM195.53,548.68v-.06c0-6.06-2.72-9.58-6.88-9.58s-6.83,3.52-6.83,9.58v.06c0,6.15,2.67,9.64,6.88,9.64s6.83-3.52,6.83-9.64Z"/><path class="m" d="M206.1,532.97h8.61l4.75,23.29h.18l5.57-23.29h8.2l5.6,23.29h.18l4.78-23.29h8.44l-8.32,31.41h-9.11l-5.68-22.21h-.18l-5.65,22.21h-8.99l-8.35-31.41Z"/><path class="c" d="M821.25,522.1h27.69v7.29h-18.84v11.34h17.2v7h-17.2v16.64h-8.85v-42.28Z"/><path class="c" d="M851.4,548.68v-.06c0-10.11,6.15-16.29,15.53-16.29s15.59,6.12,15.59,16.29v.06c0,10.25-6.06,16.35-15.56,16.35s-15.56-6.12-15.56-16.35ZM873.81,548.68v-.06c0-6.06-2.72-9.58-6.88-9.58s-6.83,3.52-6.83,9.58v.06c0,6.15,2.67,9.64,6.88,9.64s6.83-3.52,6.83-9.64Z"/><path class="c" d="M885.76,548.65v-.03c0-10.05,6.01-16.29,15.41-16.29,8.53,0,13.95,5.24,14.27,12.04v.21h-7.94l-.06-.26c-.53-2.99-2.61-5.27-6.15-5.27-4.19,0-6.83,3.6-6.83,9.61v.03c0,6.15,2.64,9.64,6.86,9.64,3.43,0,5.57-2.11,6.15-5.27l.03-.26h7.97v.18c-.41,6.86-5.83,12.07-14.21,12.07-9.58,0-15.5-6.24-15.5-16.38Z"/><path class="c" d="M919.46,553.25v-20.27h8.55v18.49c0,4.1,1.93,6.47,5.77,6.47s6.27-2.81,6.27-6.91v-18.05h8.55v31.41h-8.55v-5.19h-.18c-1.61,3.6-4.83,5.83-9.58,5.83-6.91,0-10.84-4.42-10.84-11.78Z"/><path class="c" d="M952.88,555.06l-.03-.26h8.35l.06.26c.56,2.46,2.4,3.9,5.83,3.9,3.22,0,5.19-1.26,5.19-3.28v-.03c0-1.67-1.05-2.64-4.13-3.31l-5.33-1.11c-6.09-1.29-9.17-4.34-9.17-9.02v-.03c0-5.98,5.16-9.84,13.15-9.84s13.01,4.42,13.21,9.93v.29h-7.88l-.03-.23c-.29-2.26-2.14-3.96-5.3-3.96-2.96,0-4.8,1.32-4.8,3.34v.03c0,1.61,1.08,2.67,4.25,3.34l5.33,1.14c6.56,1.38,9.26,3.96,9.26,8.58v.03c0,6.15-5.65,10.2-13.74,10.2-8.7,0-13.54-4.01-14.21-9.96Z"/><path class="c" d="M474.66,522.1h8.85v17.17h19.04v-17.17h8.85v42.28h-8.85v-17.81h-19.04v17.81h-8.85v-42.28Z"/><path class="c" d="M516.55,548.73v-.03c0-9.99,5.89-16.38,15.09-16.38s14.97,6.24,14.97,15.73v2.64h-21.62c.09,5.01,2.81,7.94,7.18,7.94,3.52,0,5.65-1.93,6.27-3.69l.06-.18h7.85l-.09.32c-.97,4.63-5.3,9.93-14.27,9.93-9.61,0-15.44-6.24-15.44-16.29ZM525.08,545.31h13.33c-.53-4.34-3.08-6.59-6.62-6.59s-6.15,2.34-6.71,6.59Z"/><path class="c" d="M551.21,522.1h8.55v42.28h-8.55v-42.28Z"/><path class="c" d="M565.42,524.48c0-2.43,1.99-4.45,4.57-4.45s4.57,2.02,4.57,4.45-1.99,4.45-4.57,4.45-4.57-2.02-4.57-4.45ZM565.71,532.97h8.55v31.41h-8.55v-31.41Z"/><path class="c" d="M587.68,548.73l-9.79-15.76h9.64l5.65,10.61h.18l5.57-10.61h9.32l-9.81,15.53,9.73,15.88h-9.29l-5.98-10.9h-.18l-5.89,10.9h-8.99l9.84-15.64Z"/><path class="c" d="M293.89,727.45l-.03-.47h8.35l.06.32c.56,3.28,4.04,5.33,8.88,5.33s7.97-2.14,7.97-5.36v-.03c0-2.87-2.08-4.31-7.32-5.39l-4.45-.88c-8.35-1.67-12.57-5.65-12.57-12.01v-.03c0-7.73,6.74-12.83,16.11-12.83s15.79,4.89,16.2,12.3l.03.56h-8.35l-.03-.35c-.44-3.31-3.49-5.33-7.85-5.33-4.54.03-7.27,2.11-7.27,5.13v.03c0,2.67,2.17,4.22,7.03,5.19l4.48.91c8.85,1.76,12.83,5.36,12.83,12.01v.03c0,8.12-6.39,13.27-17.05,13.27-10.05,0-16.52-4.6-17.02-12.39Z"/><path class="c" d="M334.85,730.32v-16.17h-4.37v-6.45h4.37v-7.68h8.64v7.68h5.74v6.45h-5.74v15.23c0,2.93,1.32,3.93,3.9,3.93.76,0,1.32-.09,1.85-.15v6.27c-.97.15-2.34.32-4.13.32-6.97,0-10.25-2.7-10.25-9.43Z"/><path class="c" d="M352.45,730.11v-.06c0-5.71,4.42-9.05,12.22-9.55l7.76-.47v-1.93c0-2.78-1.82-4.51-5.16-4.51s-5.13,1.49-5.54,3.52l-.06.26h-7.82l.03-.35c.47-5.8,5.45-9.96,13.74-9.96s13.36,4.19,13.36,10.52v21.53h-8.55v-4.69h-.18c-1.79,3.22-5.13,5.19-9.26,5.19-6.3,0-10.55-3.96-10.55-9.49ZM365.78,733.36c3.84,0,6.65-2.46,6.65-5.74v-2.26l-6.47.41c-3.31.21-5.04,1.61-5.04,3.84v.06c0,2.31,1.9,3.69,4.86,3.69Z"/><path class="c" d="M386.5,707.7h8.55v5.48h.18c.94-3.87,3.49-6.12,7.15-6.12.94,0,1.82.15,2.46.32v7.53c-.7-.29-1.88-.47-3.11-.47-4.22,0-6.68,2.52-6.68,7.09v17.58h-8.55v-31.41Z"/><path class="c" d="M411.72,730.32v-16.17h-4.37v-6.45h4.37v-7.68h8.64v7.68h5.74v6.45h-5.74v15.23c0,2.93,1.32,3.93,3.9,3.93.76,0,1.32-.09,1.85-.15v6.27c-.97.15-2.34.32-4.13.32-6.97,0-10.25-2.7-10.25-9.43Z"/></svg>