<?xml version="1.0" encoding="UTF-8"?><svg id="a" xmlns="http://www.w3.org/2000/svg" viewBox="0 0 1024 1024"><defs><style>.b{stroke:#3d444d;}.b,.c,.d,.e,.f,.g,.h,.i,.j,.k,.l,.m,.n,.o,.p,.q,.r{fill:none;stroke-miterlimit:10;}.b,.c,.d,.f,.g,.h,.i,.j,.k,.l,.m,.n,.o,.p,.q,.r{stroke-width:4px;}.c{stroke:#00aeef;}.d{stroke:#6a0dad;}.e{stroke:#2f353d;stroke-width:8px;}.f{stroke:#f0f6fc;}.g{stroke:#f0f;}.h{stroke:#670067;}.i{stroke:#ffd400;}.j{stroke:green;}.k{stroke:#413500;}.l{stroke:#003a52;}.m{stroke:#300352;}.s{fill:#fff;}.t{fill:#21262d;}.u{fill:#0d1117;}.v{fill:#2f353d;}.n{stroke:#003d00;}.o{stroke:#001f41;}.p{stroke:red;}.q{stroke:#0067c0;}.r{stroke:#7a0000;}.w{fill:#c9d1d9;}</style></defs><rect class="u" x="-.75" y="-.99" width="1025.5" height="1025.5"/><path class="v" d="M1020.75,3.01v1017.5H3.25V3.01h1017.5M1028.75-4.99H-4.75v1033.5h1033.5V-4.99h0Z"/><rect class="t" x="116.02" y="116.31" width="791.96" height="791.39"/><rect class="s" x="342.42" y="342.17" width="339.17" height="339.17"/><rect class="w" x="456.52" y="342.17" width="113.06" height="113.06"/><rect class="w" x="456.52" y="568.28" width="113.06" height="113.06"/><rect class="w" x="343.46" y="455.23" width="113.06" height="113.06" transform="translate(-111.77 911.75) rotate(-90)"/><rect class="w" x="569.57" y="455.23" width="113.06" height="113.06" transform="translate(114.35 1137.86) rotate(-90)"/><line class="f" x1="681.58" y1="455.23" x2="907.69" y2="455.23"/><line class="f" x1="681.58" y1="568.28" x2="907.69" y2="568.28"/><line class="b" x1="907.69" y1="455.23" x2="1020.75" y2="455.23"/><line class="b" x1="907.69" y1="568.28" x2="1020.75" y2="568.28"/><line class="m" x1="907.69" y1="794.4" x2="1020.75" y2="794.4"/><line class="f" x1="907.69" y1="681.34" x2="907.69" y2="342.17"/><line class="f" x1="794.64" y1="681.34" x2="794.64" y2="342.17"/><line class="j" x1="342.42" y1="568.28" x2="116.31" y2="568.28"/><line class="j" x1="342.42" y1="455.23" x2="116.31" y2="455.23"/><line class="n" x1="116.31" y1="568.28" x2="3.25" y2="568.28"/><line class="n" x1="116.31" y1="455.23" x2="3.25" y2="455.23"/><line class="j" x1="116.31" y1="342.17" x2="116.31" y2="681.34"/><line class="j" x1="229.36" y1="342.17" x2="229.36" y2="681.34"/><line class="p" x1="455.47" y1="342.17" x2="455.47" y2="116.55"/><line class="p" x1="568.53" y1="342.17" x2="568.53" y2="116.55"/><line class="r" x1="455.47" y1="116.55" x2="455.47" y2="3.01"/><line class="r" x1="568.53" y1="116.55" x2="568.53" y2="3.01"/><line class="p" x1="681.58" y1="116.06" x2="342.42" y2="116.06"/><line class="p" x1="681.58" y1="229.12" x2="342.42" y2="229.12"/><line class="q" x1="568.53" y1="681.34" x2="568.53" y2="907.45"/><line class="q" x1="455.47" y1="681.34" x2="455.47" y2="907.45"/><line class="o" x1="568.53" y1="907.45" x2="568.53" y2="1020.51"/><line class="o" x1="455.47" y1="907.45" x2="455.47" y2="1020.51"/><line class="m" x1="794.64" y1="907.45" x2="794.64" y2="1020.99"/><line class="q" x1="342.42" y1="907.45" x2="681.58" y2="907.45"/><line class="q" x1="342.42" y1="794.4" x2="681.58" y2="794.4"/><line class="d" x1="681.58" y1="794.4" x2="907.69" y2="794.4"/><line class="d" x1="794.64" y1="907.45" x2="794.64" y2="681.34"/><polyline class="k" points="3.25 116.55 116.31 116.55 116.31 3.49"/><polyline class="i" points="342.42 116.55 116.31 116.55 116.31 342.66"/><line class="k" x1="116.31" y1="229.6" x2="3.25" y2="229.6"/><line class="k" x1="229.36" y1="116.55" x2="229.36" y2="3.01"/><line class="i" x1="342.42" y1="229.6" x2="116.31" y2="229.6"/><line class="i" x1="229.36" y1="116.55" x2="229.36" y2="342.66"/><line class="l" x1="116.31" y1="794.4" x2="3.25" y2="794.4"/><line class="l" x1="229.36" y1="907.45" x2="229.36" y2="1020.99"/><line class="c" x1="342.42" y1="794.4" x2="116.31" y2="794.4"/><line class="c" x1="229.36" y1="907.45" x2="229.36" y2="681.34"/><line class="h" x1="907.69" y1="229.6" x2="1020.75" y2="229.6"/><line class="h" x1="794.64" y1="116.55" x2="794.64" y2="3.01"/><line class="g" x1="681.58" y1="229.6" x2="907.69" y2="229.6"/><line class="g" x1="794.64" y1="116.55" x2="794.64" y2="342.66"/><polyline class="l" points="116.31 1020.99 116.31 907.94 3.25 907.94"/><polyline class="c" points="116.31 681.83 116.31 907.94 342.42 907.94"/><polyline class="h" points="1020.75 116.55 907.69 116.55 907.69 3.49"/><polyline class="g" points="681.58 116.55 907.69 116.55 907.69 342.66"/><polyline class="m" points="907.69 1020.99 907.69 907.94 1020.75 907.94"/><polyline class="d" points="907.69 681.83 907.69 907.94 681.58 907.94"/><rect class="e" x="3.25" y="3.01" width="1017.5" height="1017.5"/><line class="e" x1="3.25" y1="342.17" x2="1020.75" y2="342.17"/><line class="e" x1="3.25" y1="681.34" x2="1020.75" y2="681.34"/><line class="e" x1="342.42" y1="1020.51" x2="342.42" y2="3.01"/><line class="e" x1="681.58" y1="1020.51" x2="681.58" y2="3.01"/></svg>