<?xml version="1.0" encoding="UTF-8"?><svg id="a" xmlns="http://www.w3.org/2000/svg" viewBox="0 0 1024 1024"><defs><style>.b{fill:#7a0000;}.c{fill:#30363d;}.d{fill:#3d444d;}.e{fill:#413500;}.f{fill:#484f58;}.g{fill:#001f41;}.h{fill:#300352;}.i{fill:#003d00;}.j{fill:#003a52;}.k{fill:#670067;}</style></defs><rect class="c" x="341.33" y="341.33" width="341.33" height="341.33"/><rect class="f" x="568.89" y="398.22" width="56.89" height="56.89"/><rect class="f" x="512" y="341.33" width="56.89" height="56.89"/><rect class="f" x="455.11" y="398.22" width="56.89" height="56.89"/><rect class="f" x="398.22" y="341.33" width="56.89" height="56.89"/><rect class="f" x="625.78" y="341.33" width="56.89" height="56.89"/><rect class="f" x="341.33" y="398.22" width="56.89" height="56.89"/><rect class="f" x="568.89" y="512" width="56.89" height="56.89"/><rect class="f" x="512" y="455.11" width="56.89" height="56.89"/><rect class="f" x="455.11" y="512" width="56.89" height="56.89"/><rect class="f" x="398.22" y="455.11" width="56.89" height="56.89"/><rect class="f" x="625.78" y="455.11" width="56.89" height="56.89"/><rect class="f" x="341.33" y="512" width="56.89" height="56.89"/><rect class="f" x="568.89" y="625.78" width="56.89" height="56.89"/><rect class="f" x="512" y="568.89" width="56.89" height="56.89"/><rect class="f" x="455.11" y="625.78" width="56.89" height="56.89"/><rect class="f" x="398.22" y="568.89" width="56.89" height="56.89"/><rect class="f" x="625.78" y="568.89" width="56.89" height="56.89"/><rect class="f" x="341.33" y="625.78" width="56.89" height="56.89"/><rect class="e" width="341.33" height="341.33"/><rect class="b" x="341.33" width="341.33" height="341.33"/><rect class="k" x="682.67" width="341.33" height="341.33"/><rect class="h" x="682.67" y="682.67" width="341.33" height="341.33"/><rect class="j" y="682.67" width="341.33" height="341.33"/><rect class="g" x="341.33" y="682.67" width="341.33" height="341.33"/><rect class="i" y="341.33" width="341.33" height="341.33"/><rect class="d" x="682.67" y="341.33" width="341.33" height="341.33"/></svg>