<?xml version="1.0" encoding="UTF-8"?><svg id="a" xmlns="http://www.w3.org/2000/svg" viewBox="0 0 1024 1024"><defs><style>.b{fill:#ffd400;}.c{fill:#f0f;}.d{fill:#00aeef;}.e{fill:#fff;}.f{fill:green;}.g{fill:#0067c0;}.h{fill:#6a0dad;}.i{fill:red;}.j{fill:#f0f6fc;}.k{fill:#c9d1d9;}</style></defs><rect class="e" x="341.33" y="341.33" width="341.33" height="341.33"/><rect class="k" x="568.89" y="398.22" width="56.89" height="56.89"/><rect class="k" x="512" y="341.33" width="56.89" height="56.89"/><rect class="k" x="455.11" y="398.22" width="56.89" height="56.89"/><rect class="k" x="398.22" y="341.33" width="56.89" height="56.89"/><rect class="k" x="625.78" y="341.33" width="56.89" height="56.89"/><rect class="k" x="341.33" y="398.22" width="56.89" height="56.89"/><rect class="k" x="568.89" y="512" width="56.89" height="56.89"/><rect class="k" x="512" y="455.11" width="56.89" height="56.89"/><rect class="k" x="455.11" y="512" width="56.89" height="56.89"/><rect class="k" x="398.22" y="455.11" width="56.89" height="56.89"/><rect class="k" x="625.78" y="455.11" width="56.89" height="56.89"/><rect class="k" x="341.33" y="512" width="56.89" height="56.89"/><rect class="k" x="568.89" y="625.78" width="56.89" height="56.89"/><rect class="k" x="512" y="568.89" width="56.89" height="56.89"/><rect class="k" x="455.11" y="625.78" width="56.89" height="56.89"/><rect class="k" x="398.22" y="568.89" width="56.89" height="56.89"/><rect class="k" x="625.78" y="568.89" width="56.89" height="56.89"/><rect class="k" x="341.33" y="625.78" width="56.89" height="56.89"/><rect class="b" width="341.33" height="341.33"/><rect class="i" x="341.33" width="341.33" height="341.33"/><rect class="c" x="682.67" width="341.33" height="341.33"/><rect class="h" x="682.67" y="682.67" width="341.33" height="341.33"/><rect class="d" y="682.67" width="341.33" height="341.33"/><rect class="g" x="341.33" y="682.67" width="341.33" height="341.33"/><rect class="f" y="341.33" width="341.33" height="341.33"/><rect class="j" x="682.67" y="341.33" width="341.33" height="341.33"/></svg>