<?xml version="1.0" encoding="UTF-8"?><svg id="b" xmlns="http://www.w3.org/2000/svg" viewBox="0 0 1080 1080"><defs><style>.c{fill:#1f2328;}.d{stroke:#d1d5db;stroke-miterlimit:10;stroke-width:4px;}.d,.e{fill:#fff;}.f{fill:#ffd400;}.g{fill:#f0f;}.h{fill:#00aeef;}.i{fill:green;}.j{fill:#0067c0;}.k{fill:#6a0dad;}.l{fill:red;}.m{fill:#f0f6fc;}.n{fill:#c9d1d9;}</style></defs><rect class="e" x="360" y="360" width="360" height="360"/><rect class="n" x="600" y="420" width="60" height="60"/><rect class="n" x="540" y="360" width="60" height="60"/><rect class="n" x="480" y="420" width="60" height="60"/><rect class="n" x="420" y="360" width="60" height="60"/><rect class="n" x="660" y="360" width="60" height="60"/><rect class="n" x="360" y="420" width="60" height="60"/><rect class="n" x="600" y="540" width="60" height="60"/><rect class="n" x="540" y="480" width="60" height="60"/><rect class="n" x="480" y="540" width="60" height="60"/><rect class="n" x="420" y="480" width="60" height="60"/><rect class="n" x="660" y="480" width="60" height="60"/><rect class="n" x="360" y="540" width="60" height="60"/><rect class="n" x="600" y="660" width="60" height="60"/><rect class="n" x="540" y="600" width="60" height="60"/><rect class="n" x="480" y="660" width="60" height="60"/><rect class="n" x="420" y="600" width="60" height="60"/><rect class="n" x="660" y="600" width="60" height="60"/><rect class="n" x="360" y="660" width="60" height="60"/><rect class="f" width="360" height="360"/><rect class="l" x="360" width="360" height="360"/><rect class="g" x="720" width="360" height="360"/><rect class="k" x="720" y="720" width="360" height="360"/><rect class="h" y="720" width="360" height="360"/><rect class="j" x="360" y="720" width="360" height="360"/><rect class="i" y="360" width="360" height="360"/><rect class="m" x="720" y="360" width="360" height="360"/><rect class="d" x="240" y="600" width="240" height="240" rx="120" ry="120"/><path class="c" d="M152.9,218.25l29.77-31.05c11.43-11.89,14.06-16.46,14.06-23.5v-.12c-.06-8.61-6.56-14.82-15.76-14.82-10.55,0-18.4,7.27-18.4,16.35v.29h-10.2v-.35c0-14.65,12.66-25.49,28.42-25.49s26.48,10.25,26.48,23.5v.12c0,9.26-4.28,16.23-19.8,32.11l-20.1,20.62v.23h41.31v9.38h-55.78v-7.27Z"/><path class="c" d="M149.3,922.66v-.12c0-10.43,7.32-19.1,18.16-21.62v-.23c-9.26-2.87-15.12-9.9-15.12-18.81v-.12c0-12.77,11.66-22.21,27.66-22.21s27.66,9.43,27.66,22.21v.12c0,8.91-5.86,15.94-15.12,18.81v.23c10.84,2.52,18.16,11.19,18.16,21.62v.12c0,14.18-12.77,24.26-30.7,24.26s-30.7-10.08-30.7-24.26ZM199.98,922.02v-.12c0-9.26-8.26-15.88-19.98-15.88s-19.98,6.62-19.98,15.88v.12c0,9.14,8.32,15.7,19.98,15.7s19.98-6.56,19.98-15.7ZM197.17,882.76v-.12c0-8.2-6.97-14-17.17-14s-17.17,5.8-17.17,14v.12c0,8.2,6.97,14,17.17,14s17.17-5.8,17.17-14Z"/><path class="m" d="M910.78,207.94h-42.48v-9.55l37.09-57.42h15.59v57.71h11.95v9.26h-11.95v17.58h-10.2v-17.58ZM910.78,198.68v-48.69h-.35l-31.7,48.46v.23h32.05Z"/><path class="m" d="M865.43,872.15h-.23l-22.38,15.59v-10.61l22.5-16.17h10.31v84.55h-10.2v-73.36Z"/><path class="m" d="M895.55,903.27v-.12c0-26.84,11.54-43.59,31-43.59s31.11,16.76,31.11,43.59v.12c0,26.84-11.66,43.65-31.11,43.65s-31-16.82-31-43.65ZM947.05,903.27v-.12c0-21.21-7.62-34.34-20.51-34.34s-20.39,13.12-20.39,34.34v.12c0,21.21,7.5,34.45,20.39,34.45s20.51-13.24,20.51-34.45Z"/><path class="m" d="M509.95,203.84l-.06-.7h10.14l.06.59c.88,8.32,8.5,14.06,19.75,14.06s18.63-6.21,18.63-15.18v-.12c0-10.37-7.44-16.17-19.28-16.17h-10.61v-8.91h10.14c10.08,0,17.11-6.21,17.11-14.65v-.12c0-8.85-5.8-13.95-16.11-13.95s-17.05,5.27-17.93,13.83l-.06.59h-10.14l.06-.59c1.35-13.77,12.25-22.97,28.07-22.97s26.72,8.96,26.72,21.8v.12c0,10.43-7.38,17.58-17.93,19.8v.23c12.3,1.05,20.68,8.73,20.68,20.74v.12c0,14.12-12.42,24.55-29.36,24.55s-28.77-9.73-29.88-23.09Z"/><path class="m" d="M571.7,903.19v.12c0,28.48-12.13,45.12-32.81,45.12-14.36,0-25.08-8.2-27.89-20.51l-.18-.76h10.72l.23.64c2.52,6.97,8.55,11.31,17.23,11.31,15.76,0,21.97-15.29,22.44-33.05.06-.59.06-1.17.06-1.82h-.23c-3.4,7.5-12.07,13.59-23.55,13.59-16.11,0-28.07-11.89-28.07-27.95v-.12c0-16.64,12.66-28.71,29.94-28.71,15.59,0,32.11,10.78,32.11,42.13ZM558.99,889.95v-.06c0-10.84-8.44-19.45-19.28-19.45s-19.34,8.44-19.34,19.1v.12c0,11.02,8.03,18.93,19.16,18.93s19.45-7.85,19.45-18.63Z"/><path class="m" d="M151.87,563.07l-.06-.64h10.37l.06.47c1.05,8.38,8.55,14.77,18.69,14.77,11.48,0,19.45-7.97,19.45-19.34v-.12c-.06-11.13-8.09-19.1-19.28-19.1-5.74,0-10.66,1.7-14.41,5.1-1.52,1.41-2.87,3.05-3.98,4.98h-9.32l4.34-48.22h48.4v9.38h-39.73l-2.87,28.42h.23c3.98-5.68,11.02-8.73,19.22-8.73,16.23,0,27.95,11.78,27.95,28.01v.12c-.06,16.93-12.54,28.77-30.12,28.77-16.17,0-27.71-10.08-28.95-23.85Z"/><path class="c" d="M917.17,510.57v-.23h-45.53v-9.38h55.96v9.79l-37.62,74.77h-11.07l38.26-74.94Z"/><path class="c" d="M508.3,544.79v-.12c0-28.48,12.13-45.12,32.81-45.12,14.36,0,25.08,8.2,27.89,20.51l.18.76h-10.72l-.23-.64c-2.52-6.97-8.55-11.31-17.23-11.31-15.76,0-21.97,15.29-22.44,33.05-.06.59-.06,1.17-.06,1.82h.23c3.4-7.5,12.07-13.59,23.55-13.59,16.11,0,28.07,11.89,28.07,27.95v.12c0,16.64-12.66,28.71-29.94,28.71-15.59,0-32.11-10.78-32.11-42.13ZM540.3,577.55c10.78,0,19.34-8.44,19.34-19.1v-.12c0-11.02-8.03-18.93-19.16-18.93s-19.45,7.85-19.45,18.63v.06c0,10.84,8.44,19.45,19.28,19.45Z"/><path class="c" d="M354.61,686.88h-.23l-22.38,15.59v-10.61l22.5-16.17h10.31v84.55h-10.2v-73.36Z"/></svg>