<?xml version="1.0" encoding="UTF-8"?><svg id="b" xmlns="http://www.w3.org/2000/svg" viewBox="0 0 1080 1080"><defs><style>.c{stroke:#f0f6fc;}.c,.d,.e,.f,.g,.h,.i,.j,.k,.l,.m,.n,.o,.p,.q,.r,.s{fill:none;stroke-miterlimit:10;}.c,.d,.e,.f,.g,.i,.j,.k,.l,.m,.n,.o,.p,.q,.r,.s{stroke-width:2px;}.d{stroke:#670067;}.e{stroke:red;}.f{stroke:green;}.g{stroke:#300352;}.h{stroke:#2f353d;stroke-width:8px;}.i{stroke:#3d444d;}.t{fill:#30363d;}.j{stroke:#0067c0;}.k{stroke:#6a0dad;}.u{fill:#fff;}.v{fill:#21262d;}.w{fill:#0d1117;}.l{stroke:#f0f;}.m{stroke:#001f41;}.n{stroke:#7a0000;}.x{fill:#484f58;}.o{stroke:#ffd400;}.p{stroke:#003a52;}.q{stroke:#413500;}.r{stroke:#00aeef;}.y{fill:#c9d1d9;}.s{stroke:#003d00;}</style></defs><rect class="w" width="1080" height="1080"/><rect class="w" x="2.21" y="1.96" width="1075.57" height="1075.57"/><rect class="v" x="181.48" y="181.73" width="717.05" height="716.53"/><rect class="x" x="360.74" y="360.48" width="358.52" height="358.52"/><rect class="t" x="540" y="360.48" width="59.75" height="59.75"/><rect class="t" x="659.51" y="479.99" width="59.75" height="59.75"/><rect class="t" x="659.51" y="599.5" width="59.75" height="59.75"/><rect class="t" x="659.51" y="360.48" width="59.75" height="59.75"/><rect class="t" x="599.75" y="659.25" width="59.75" height="59.75"/><rect class="t" x="480.25" y="659.25" width="59.75" height="59.75"/><rect class="t" x="420.49" y="360.48" width="59.75" height="59.75"/><rect class="t" x="360.74" y="659.25" width="59.75" height="59.75"/><rect class="t" x="360.74" y="539.74" width="59.75" height="59.75"/><rect class="t" x="360.74" y="420.23" width="59.75" height="59.75"/><rect class="u" x="420.49" y="420.23" width="239.02" height="239.02"/><rect class="y" x="599.75" y="420.23" width="59.75" height="59.75"/><rect class="y" x="480.25" y="420.23" width="59.75" height="59.75"/><rect class="y" x="540" y="479.99" width="59.75" height="59.75"/><rect class="y" x="420.49" y="479.99" width="59.75" height="59.75"/><rect class="y" x="599.75" y="539.74" width="59.75" height="59.75"/><rect class="y" x="480.25" y="539.74" width="59.75" height="59.75"/><rect class="y" x="540" y="599.5" width="59.75" height="59.75"/><rect class="y" x="420.49" y="599.5" width="59.75" height="59.75"/><line class="c" x1="719.26" y1="479.99" x2="898.52" y2="479.99"/><line class="c" x1="719.26" y1="539.74" x2="898.52" y2="539.74"/><line class="c" x1="719.26" y1="599.5" x2="898.52" y2="599.5"/><line class="c" x1="719.26" y1="420.23" x2="898.52" y2="420.23"/><line class="c" x1="719.26" y1="659.25" x2="898.52" y2="659.25"/><line class="g" x1="958.28" y1="1077.53" x2="958.28" y2="719"/><line class="g" x1="1018.03" y1="1077.53" x2="1018.03" y2="719"/><line class="g" x1="1077.79" y1="1017.78" x2="719.26" y2="1017.78"/><line class="g" x1="1077.79" y1="958.02" x2="719.26" y2="958.02"/><line class="i" x1="898.52" y1="479.99" x2="1077.79" y2="479.99"/><line class="i" x1="898.52" y1="539.74" x2="1077.79" y2="539.74"/><line class="i" x1="898.52" y1="599.5" x2="1077.79" y2="599.5"/><line class="i" x1="898.52" y1="420.23" x2="1077.79" y2="420.23"/><line class="i" x1="898.52" y1="659.25" x2="1077.79" y2="659.25"/><line class="g" x1="898.52" y1="838.51" x2="1077.79" y2="838.51"/><line class="g" x1="898.52" y1="898.27" x2="1077.79" y2="898.27"/><line class="g" x1="898.52" y1="778.76" x2="1077.79" y2="778.76"/><line class="c" x1="898.52" y1="719" x2="898.52" y2="360.48"/><line class="i" x1="958.28" y1="719" x2="958.28" y2="360.48"/><line class="i" x1="1018.03" y1="719" x2="1018.03" y2="360.48"/><line class="c" x1="838.77" y1="719" x2="838.77" y2="360.48"/><line class="c" x1="779.02" y1="719" x2="779.02" y2="360.48"/><line class="f" x1="360.74" y1="599.5" x2="181.48" y2="599.5"/><line class="f" x1="360.74" y1="539.74" x2="181.48" y2="539.74"/><line class="f" x1="360.74" y1="479.99" x2="181.48" y2="479.99"/><line class="f" x1="360.74" y1="659.25" x2="181.48" y2="659.25"/><line class="f" x1="360.74" y1="420.23" x2="181.48" y2="420.23"/><line class="s" x1="181.48" y1="599.5" x2="2.21" y2="599.5"/><line class="s" x1="181.48" y1="539.74" x2="2.21" y2="539.74"/><line class="s" x1="181.48" y1="479.99" x2="2.21" y2="479.99"/><line class="s" x1="181.48" y1="659.25" x2="2.21" y2="659.25"/><line class="s" x1="181.48" y1="420.23" x2="2.21" y2="420.23"/><line class="f" x1="181.48" y1="360.48" x2="181.48" y2="719"/><line class="s" x1="121.72" y1="360.48" x2="121.72" y2="719"/><line class="s" x1="61.97" y1="360.48" x2="61.97" y2="719"/><line class="f" x1="241.23" y1="360.48" x2="241.23" y2="719"/><line class="f" x1="300.98" y1="360.48" x2="300.98" y2="719"/><line class="e" x1="480.25" y1="360.48" x2="480.25" y2="181.22"/><line class="e" x1="540" y1="360.48" x2="540" y2="181.22"/><line class="e" x1="599.75" y1="360.48" x2="599.75" y2="181.22"/><line class="e" x1="420.49" y1="360.48" x2="420.49" y2="181.22"/><line class="e" x1="659.51" y1="360.48" x2="659.51" y2="181.22"/><line class="n" x1="480.25" y1="181.22" x2="480.25" y2="1.96"/><line class="n" x1="540" y1="181.22" x2="540" y2="1.96"/><line class="n" x1="599.75" y1="181.22" x2="599.75" y2="1.96"/><line class="n" x1="420.49" y1="181.22" x2="420.49" y2="1.96"/><line class="n" x1="659.51" y1="181.22" x2="659.51" y2="1.96"/><line class="e" x1="719.26" y1="181.22" x2="360.74" y2="181.22"/><line class="n" x1="719.26" y1="121.46" x2="360.74" y2="121.46"/><line class="n" x1="719.26" y1="61.71" x2="360.74" y2="61.71"/><line class="e" x1="719.26" y1="240.97" x2="360.74" y2="240.97"/><line class="e" x1="719.26" y1="300.73" x2="360.74" y2="300.73"/><line class="j" x1="599.75" y1="719" x2="599.75" y2="898.27"/><line class="j" x1="540" y1="719" x2="540" y2="898.27"/><line class="j" x1="480.25" y1="719" x2="480.25" y2="898.27"/><line class="j" x1="659.51" y1="719" x2="659.51" y2="898.27"/><line class="j" x1="420.49" y1="719" x2="420.49" y2="898.27"/><line class="m" x1="599.75" y1="898.27" x2="599.75" y2="1077.53"/><line class="m" x1="540" y1="898.27" x2="540" y2="1077.53"/><line class="m" x1="480.25" y1="898.27" x2="480.25" y2="1077.53"/><line class="m" x1="659.51" y1="898.27" x2="659.51" y2="1077.53"/><line class="g" x1="779.02" y1="898.78" x2="779.02" y2="1078.04"/><line class="g" x1="838.77" y1="898.78" x2="838.77" y2="1078.04"/><line class="g" x1="898.52" y1="898.78" x2="898.52" y2="1078.04"/><line class="m" x1="420.49" y1="898.27" x2="420.49" y2="1077.53"/><line class="j" x1="360.74" y1="898.27" x2="719.26" y2="898.27"/><line class="m" x1="360.74" y1="958.02" x2="719.26" y2="958.02"/><line class="m" x1="360.74" y1="1017.78" x2="719.26" y2="1017.78"/><line class="j" x1="360.74" y1="838.51" x2="719.26" y2="838.51"/><line class="j" x1="360.74" y1="778.76" x2="719.26" y2="778.76"/><line class="k" x1="719.26" y1="838.51" x2="898.52" y2="838.51"/><line class="k" x1="719.26" y1="778.76" x2="898.52" y2="778.76"/><line class="k" x1="838.77" y1="898.27" x2="838.77" y2="719"/><line class="k" x1="779.02" y1="898.27" x2="779.02" y2="719"/><polyline class="k" points="719.26 898.27 898.52 898.27 898.52 719"/><line class="q" x1="121.72" y1="2.47" x2="121.72" y2="361"/><line class="q" x1="61.97" y1="2.47" x2="61.97" y2="361"/><line class="q" x1="2.21" y1="62.22" x2="360.74" y2="62.22"/><line class="q" x1="2.21" y1="121.98" x2="360.74" y2="121.98"/><line class="q" x1="181.48" y1="241.49" x2="2.21" y2="241.49"/><line class="q" x1="181.48" y1="181.73" x2="2.21" y2="181.73"/><line class="q" x1="181.48" y1="301.24" x2="2.21" y2="301.24"/><line class="q" x1="300.98" y1="181.22" x2="300.98" y2="1.96"/><line class="q" x1="241.23" y1="181.22" x2="241.23" y2="1.96"/><line class="q" x1="181.48" y1="181.22" x2="181.48" y2="1.96"/><line class="o" x1="360.74" y1="241.49" x2="181.48" y2="241.49"/><line class="o" x1="360.74" y1="301.24" x2="181.48" y2="301.24"/><line class="o" x1="241.23" y1="181.73" x2="241.23" y2="361"/><line class="o" x1="300.98" y1="181.73" x2="300.98" y2="361"/><polyline class="o" points="360.74 181.73 181.48 181.73 181.48 361"/><line class="p" x1="121.72" y1="1077.53" x2="121.72" y2="719"/><line class="p" x1="61.97" y1="1077.53" x2="61.97" y2="719"/><line class="p" x1="2.21" y1="1017.78" x2="360.74" y2="1017.78"/><line class="p" x1="2.21" y1="958.02" x2="360.74" y2="958.02"/><line class="p" x1="181.48" y1="838.51" x2="2.21" y2="838.51"/><line class="p" x1="181.48" y1="898.27" x2="2.21" y2="898.27"/><line class="p" x1="181.48" y1="778.76" x2="2.21" y2="778.76"/><line class="p" x1="300.98" y1="898.78" x2="300.98" y2="1078.04"/><line class="p" x1="241.23" y1="898.78" x2="241.23" y2="1078.04"/><line class="p" x1="181.48" y1="898.78" x2="181.48" y2="1078.04"/><line class="r" x1="360.74" y1="838.51" x2="181.48" y2="838.51"/><line class="r" x1="360.74" y1="778.76" x2="181.48" y2="778.76"/><line class="r" x1="241.23" y1="898.27" x2="241.23" y2="719"/><line class="r" x1="300.98" y1="898.27" x2="300.98" y2="719"/><polyline class="r" points="360.74 898.27 181.48 898.27 181.48 719"/><line class="d" x1="958.28" y1="2.47" x2="958.28" y2="361"/><line class="d" x1="1018.03" y1="2.47" x2="1018.03" y2="361"/><line class="d" x1="1077.79" y1="62.22" x2="719.26" y2="62.22"/><line class="d" x1="1077.79" y1="121.98" x2="719.26" y2="121.98"/><line class="d" x1="898.52" y1="241.49" x2="1077.79" y2="241.49"/><line class="d" x1="898.52" y1="181.73" x2="1077.79" y2="181.73"/><line class="d" x1="898.52" y1="301.24" x2="1077.79" y2="301.24"/><line class="d" x1="779.02" y1="181.22" x2="779.02" y2="1.96"/><line class="d" x1="838.77" y1="181.22" x2="838.77" y2="1.96"/><line class="d" x1="898.52" y1="181.22" x2="898.52" y2="1.96"/><line class="l" x1="719.26" y1="241.49" x2="898.52" y2="241.49"/><line class="l" x1="719.26" y1="301.24" x2="898.52" y2="301.24"/><line class="l" x1="838.77" y1="181.73" x2="838.77" y2="361"/><line class="l" x1="779.02" y1="181.73" x2="779.02" y2="361"/><polyline class="l" points="719.26 181.73 898.52 181.73 898.52 361"/><rect class="h" x="2.21" y="1.96" width="1075.57" height="1075.57"/><line class="h" x1="2.21" y1="360.48" x2="1077.79" y2="360.48"/><line class="h" x1="2.21" y1="719" x2="1077.79" y2="719"/><line class="h" x1="360.74" y1="1077.53" x2="360.74" y2="1.96"/><line class="h" x1="719.26" y1="1077.53" x2="719.26" y2="1.96"/></svg>