<?xml version="1.0" encoding="UTF-8"?><svg id="b" xmlns="http://www.w3.org/2000/svg" viewBox="0 0 1080 1080"><defs><style>.c{fill:#7a0000;}.d{fill:#30363d;}.e{stroke:#3d444d;stroke-miterlimit:10;stroke-width:4px;}.f{fill:#3d444d;}.g{fill:#413500;}.h{fill:#484f58;}.i{fill:#001f41;}.j{fill:#300352;}.k{fill:#003d00;}.l{fill:#003a52;}.m{fill:#670067;}</style></defs><rect class="d" x="360" y="360" width="360" height="360"/><rect class="h" x="600" y="420" width="60" height="60"/><rect class="h" x="540" y="360" width="60" height="60"/><rect class="h" x="480" y="420" width="60" height="60"/><rect class="h" x="420" y="360" width="60" height="60"/><rect class="h" x="660" y="360" width="60" height="60"/><rect class="h" x="360" y="420" width="60" height="60"/><rect class="h" x="600" y="540" width="60" height="60"/><rect class="h" x="540" y="480" width="60" height="60"/><rect class="h" x="480" y="540" width="60" height="60"/><rect class="h" x="420" y="480" width="60" height="60"/><rect class="h" x="660" y="480" width="60" height="60"/><rect class="h" x="360" y="540" width="60" height="60"/><rect class="h" x="600" y="660" width="60" height="60"/><rect class="h" x="540" y="600" width="60" height="60"/><rect class="h" x="480" y="660" width="60" height="60"/><rect class="h" x="420" y="600" width="60" height="60"/><rect class="h" x="660" y="600" width="60" height="60"/><rect class="h" x="360" y="660" width="60" height="60"/><rect class="g" width="360" height="360"/><rect class="c" x="360" width="360" height="360"/><rect class="m" x="720" width="360" height="360"/><rect class="j" x="720" y="720" width="360" height="360"/><rect class="l" y="720" width="360" height="360"/><rect class="i" x="360" y="720" width="360" height="360"/><rect class="k" y="360" width="360" height="360"/><rect class="f" x="720" y="360" width="360" height="360"/><rect class="e" x="240" y="600" width="240" height="240" rx="120" ry="120"/></svg>