<?xml version="1.0" encoding="UTF-8"?><svg id="b" xmlns="http://www.w3.org/2000/svg" viewBox="0 0 1080 1080"><defs><style>.c{fill:#7a0000;}.d{fill:#30363d;}.e{stroke:#3d444d;stroke-miterlimit:10;stroke-width:4px;}.f{fill:#fff;}.g{fill:#3d444d;}.h{fill:#413500;}.i{fill:#484f58;}.j{fill:#001f41;}.k{fill:#300352;}.l{fill:#f0f6fc;}.m{fill:#003d00;}.n{fill:#003a52;}.o{fill:#670067;}</style></defs><rect class="d" x="360" y="360" width="360" height="360"/><rect class="i" x="600" y="420" width="60" height="60"/><rect class="i" x="540" y="360" width="60" height="60"/><rect class="i" x="480" y="420" width="60" height="60"/><rect class="i" x="420" y="360" width="60" height="60"/><rect class="i" x="660" y="360" width="60" height="60"/><rect class="i" x="360" y="420" width="60" height="60"/><rect class="i" x="600" y="540" width="60" height="60"/><rect class="i" x="540" y="480" width="60" height="60"/><rect class="i" x="480" y="540" width="60" height="60"/><rect class="i" x="420" y="480" width="60" height="60"/><rect class="i" x="660" y="480" width="60" height="60"/><rect class="i" x="360" y="540" width="60" height="60"/><rect class="i" x="600" y="660" width="60" height="60"/><rect class="i" x="540" y="600" width="60" height="60"/><rect class="i" x="480" y="660" width="60" height="60"/><rect class="i" x="420" y="600" width="60" height="60"/><rect class="i" x="660" y="600" width="60" height="60"/><rect class="i" x="360" y="660" width="60" height="60"/><rect class="h" width="360" height="360"/><rect class="c" x="360" width="360" height="360"/><rect class="o" x="720" width="360" height="360"/><rect class="k" x="720" y="720" width="360" height="360"/><rect class="n" y="720" width="360" height="360"/><rect class="j" x="360" y="720" width="360" height="360"/><rect class="m" y="360" width="360" height="360"/><rect class="g" x="720" y="360" width="360" height="360"/><rect class="e" x="240" y="600" width="240" height="240" rx="120" ry="120"/><path class="l" d="M89.31,522.1h9.17l6.68,30.29h.18l7.79-30.29h7.76l7.79,30.29h.18l6.71-30.29h9.17l-11.22,42.28h-8.64l-7.76-28.33h-.18l-7.79,28.33h-8.64l-11.19-42.28Z"/><path class="l" d="M148.64,524.48c0-2.43,1.99-4.45,4.57-4.45s4.57,2.02,4.57,4.45-1.99,4.45-4.57,4.45-4.57-2.02-4.57-4.45ZM148.93,532.97h8.55v31.41h-8.55v-31.41Z"/><path class="l" d="M165.43,555.59v-16.17h-4.37v-6.45h4.37v-7.68h8.64v7.68h5.74v6.45h-5.74v15.23c0,2.93,1.32,3.93,3.9,3.93.76,0,1.32-.09,1.85-.15v6.27c-.97.15-2.34.32-4.13.32-6.97,0-10.25-2.7-10.25-9.43Z"/><path class="l" d="M184.73,522.1h8.55v16.29h.18c1.61-3.9,4.92-6.06,9.64-6.06,6.8,0,11.02,4.75,11.02,12.33v19.72h-8.55v-17.96c0-4.39-2.17-7-6.06-7s-6.21,2.87-6.21,6.97v17.99h-8.55v-42.28Z"/><path class="l" d="M218.45,548.73v-.03c0-9.99,5.89-16.38,15.09-16.38s14.97,6.24,14.97,15.73v2.64h-21.62c.09,5.01,2.81,7.94,7.18,7.94,3.52,0,5.65-1.93,6.27-3.69l.06-.18h7.85l-.09.32c-.97,4.63-5.3,9.93-14.27,9.93-9.61,0-15.44-6.24-15.44-16.29ZM226.98,545.31h13.33c-.53-4.34-3.08-6.59-6.62-6.59s-6.15,2.34-6.71,6.59Z"/><path class="l" d="M252.91,532.97h8.55v5.48h.18c.94-3.87,3.49-6.12,7.15-6.12.94,0,1.82.15,2.46.32v7.53c-.7-.29-1.88-.47-3.11-.47-4.22,0-6.68,2.52-6.68,7.09v17.58h-8.55v-31.41Z"/><path class="l" d="M130.58,192.72l-.03-.47h8.35l.06.32c.56,3.28,4.04,5.33,8.88,5.33s7.97-2.14,7.97-5.36v-.03c0-2.87-2.08-4.31-7.32-5.39l-4.45-.88c-8.35-1.67-12.57-5.65-12.57-12.01v-.03c0-7.73,6.74-12.83,16.11-12.83s15.79,4.89,16.2,12.3l.03.56h-8.35l-.03-.35c-.44-3.31-3.49-5.33-7.85-5.33-4.54.03-7.27,2.11-7.27,5.13v.03c0,2.67,2.17,4.22,7.03,5.19l4.48.91c8.85,1.76,12.83,5.36,12.83,12.01v.03c0,8.12-6.39,13.27-17.05,13.27-10.05,0-16.52-4.6-17.02-12.39Z"/><path class="l" d="M171.53,195.59v-16.17h-4.37v-6.45h4.37v-7.68h8.64v7.68h5.74v6.45h-5.74v15.23c0,2.93,1.32,3.93,3.9,3.93.76,0,1.32-.09,1.85-.15v6.27c-.97.15-2.34.32-4.13.32-6.97,0-10.25-2.7-10.25-9.43Z"/><path class="l" d="M190.52,164.47c0-2.43,1.99-4.45,4.57-4.45s4.57,2.02,4.57,4.45-1.99,4.45-4.57,4.45-4.57-2.02-4.57-4.45ZM190.81,172.97h8.55v31.41h-8.55v-31.41Z"/><path class="l" d="M205.28,162.1h8.55v42.28h-8.55v-42.28Z"/><path class="l" d="M219.81,162.1h8.55v42.28h-8.55v-42.28Z"/><path class="l" d="M123.03,882.1h16.14c12.66,0,20.16,7.53,20.16,20.92v.06c0,13.42-7.47,21.3-20.16,21.3h-16.14v-42.28ZM138.12,917.05c7.91,0,12.19-4.8,12.19-13.95v-.06c0-8.82-4.42-13.65-12.19-13.65h-6.24v27.66h6.24Z"/><path class="l" d="M164.31,892.97h8.55v5.48h.18c.94-3.87,3.49-6.12,7.15-6.12.94,0,1.82.15,2.46.32v7.53c-.7-.29-1.88-.47-3.11-.47-4.22,0-6.68,2.52-6.68,7.09v17.58h-8.55v-31.41Z"/><path class="l" d="M186.02,884.47c0-2.43,1.99-4.45,4.57-4.45s4.57,2.02,4.57,4.45-1.99,4.45-4.57,4.45-4.57-2.02-4.57-4.45ZM186.31,892.97h8.55v31.41h-8.55v-31.41Z"/><path class="l" d="M202.87,899.42h-4.28v-6.45h4.28v-2.52c0-6.15,2.93-8.99,10.34-8.99,1.58,0,3.31.15,4.31.35v5.65c-.59-.12-1.41-.15-2.2-.15-2.84,0-4.1,1.2-4.1,3.46v2.2h6.24v6.45h-6.04v24.96h-8.55v-24.96Z"/><path class="l" d="M224.17,915.59v-16.17h-4.37v-6.45h4.37v-7.68h8.64v7.68h5.74v6.45h-5.74v15.23c0,2.93,1.32,3.93,3.9,3.93.76,0,1.32-.09,1.85-.15v6.27c-.97.15-2.34.32-4.13.32-6.97,0-10.25-2.7-10.25-9.43Z"/><path class="l" d="M834.08,522.1h8.85v17.17h19.04v-17.17h8.85v42.28h-8.85v-17.81h-19.04v17.81h-8.85v-42.28Z"/><path class="l" d="M875.28,555.38v-.06c0-5.71,4.42-9.05,12.22-9.55l7.76-.47v-1.93c0-2.78-1.82-4.51-5.16-4.51s-5.13,1.49-5.54,3.52l-.06.26h-7.82l.03-.35c.47-5.8,5.45-9.96,13.74-9.96s13.36,4.19,13.36,10.52v21.53h-8.55v-4.69h-.18c-1.79,3.22-5.13,5.19-9.26,5.19-6.3,0-10.55-3.96-10.55-9.49ZM888.61,558.64c3.84,0,6.65-2.46,6.65-5.74v-2.26l-6.47.41c-3.31.21-5.04,1.61-5.04,3.84v.06c0,2.31,1.9,3.69,4.86,3.69Z"/><path class="l" d="M908.59,559.52l15.79-19.95v-.15h-15.56v-6.45h25.34v5.42l-14.85,19.37v.18h15.21v6.45h-25.93v-4.86Z"/><path class="l" d="M937.77,548.73v-.03c0-9.99,5.89-16.38,15.09-16.38s14.97,6.24,14.97,15.73v2.64h-21.62c.09,5.01,2.81,7.94,7.18,7.94,3.52,0,5.65-1.93,6.27-3.69l.06-.18h7.85l-.09.32c-.97,4.63-5.3,9.93-14.27,9.93-9.61,0-15.44-6.24-15.44-16.29ZM946.29,545.31h13.33c-.53-4.34-3.08-6.59-6.62-6.59s-6.15,2.34-6.71,6.59Z"/><path class="l" d="M820.86,192.72l-.03-.47h8.35l.06.32c.56,3.28,4.04,5.33,8.88,5.33s7.97-2.14,7.97-5.36v-.03c0-2.87-2.08-4.31-7.32-5.39l-4.45-.88c-8.35-1.67-12.57-5.65-12.57-12.01v-.03c0-7.73,6.74-12.83,16.11-12.83s15.79,4.89,16.2,12.3l.03.56h-8.35l-.03-.35c-.44-3.31-3.49-5.33-7.85-5.33-4.54.03-7.27,2.11-7.27,5.13v.03c0,2.67,2.17,4.22,7.03,5.19l4.48.91c8.85,1.76,12.83,5.36,12.83,12.01v.03c0,8.12-6.39,13.27-17.05,13.27-10.05,0-16.52-4.6-17.02-12.39Z"/><path class="l" d="M859.44,193.24v-20.27h8.55v18.49c0,4.1,1.93,6.47,5.77,6.47s6.27-2.81,6.27-6.91v-18.05h8.55v31.41h-8.55v-5.19h-.18c-1.61,3.6-4.83,5.83-9.58,5.83-6.91,0-10.84-4.42-10.84-11.78Z"/><path class="l" d="M894.16,172.97h8.55v5.48h.18c.94-3.87,3.49-6.12,7.15-6.12.94,0,1.82.15,2.46.32v7.53c-.7-.29-1.88-.47-3.11-.47-4.22,0-6.68,2.52-6.68,7.09v17.58h-8.55v-31.41Z"/><path class="l" d="M914.72,206.34l-.03-.26h8.32l.09.21c.67,1.55,2.96,2.9,6.53,2.9,4.42,0,6.77-2.29,6.77-5.8v-4.8h-.18c-1.64,3.28-5.16,5.36-9.7,5.36-7.85,0-12.71-5.86-12.71-15.62v-.03c0-10.02,4.92-15.97,12.86-15.97,4.42,0,7.85,2.34,9.55,6.01h.18v-5.36h8.55v30.53c0,7-5.89,11.78-15.32,11.78-8.64,0-14.09-3.9-14.91-8.94ZM936.43,188.53v-.03c0-5.6-2.78-9.08-6.94-9.08s-6.97,3.46-6.97,9.08v.03c0,5.65,2.7,9.14,6.97,9.14s6.94-3.52,6.94-9.14Z"/><path class="l" d="M949.41,188.73v-.03c0-9.99,5.89-16.38,15.09-16.38s14.97,6.24,14.97,15.73v2.64h-21.62c.09,5.01,2.81,7.94,7.18,7.94,3.52,0,5.65-1.93,6.27-3.69l.06-.18h7.85l-.09.32c-.97,4.63-5.3,9.93-14.27,9.93-9.61,0-15.44-6.24-15.44-16.29ZM957.94,185.3h13.33c-.53-4.34-3.08-6.59-6.62-6.59s-6.15,2.34-6.71,6.59Z"/><path class="l" d="M836.78,882.1h27.69v7.29h-18.84v11.34h17.2v7h-17.2v16.64h-8.85v-42.28Z"/><path class="l" d="M866.43,915.38v-.06c0-5.71,4.42-9.05,12.22-9.55l7.76-.47v-1.93c0-2.78-1.82-4.51-5.16-4.51s-5.13,1.49-5.54,3.52l-.06.26h-7.82l.03-.35c.47-5.8,5.45-9.96,13.74-9.96s13.36,4.19,13.36,10.52v21.53h-8.55v-4.69h-.18c-1.79,3.22-5.13,5.19-9.26,5.19-6.3,0-10.55-3.96-10.55-9.49ZM879.76,918.63c3.84,0,6.65-2.46,6.65-5.74v-2.26l-6.47.41c-3.31.21-5.04,1.61-5.04,3.84v.06c0,2.31,1.9,3.69,4.86,3.69Z"/><path class="l" d="M899.33,908.67v-.03c0-10.22,4.86-16.32,12.77-16.32,4.45,0,7.97,2.29,9.67,6.09h.18v-16.32h8.55v42.28h-8.55v-5.36h-.18c-1.67,3.72-5.13,6.01-9.67,6.01-7.91,0-12.77-6.15-12.77-16.35ZM921.97,908.67v-.03c0-5.65-2.87-9.23-7-9.23s-6.94,3.49-6.94,9.23v.03c0,5.71,2.67,9.26,6.94,9.26s7-3.57,7-9.26Z"/><path class="l" d="M935.07,908.73v-.03c0-9.99,5.89-16.38,15.09-16.38s14.97,6.24,14.97,15.73v2.64h-21.62c.09,5.01,2.81,7.94,7.18,7.94,3.52,0,5.65-1.93,6.27-3.69l.06-.18h7.85l-.09.32c-.97,4.63-5.3,9.93-14.27,9.93-9.61,0-15.44-6.24-15.44-16.29ZM943.6,905.3h13.33c-.53-4.34-3.08-6.59-6.62-6.59s-6.15,2.34-6.71,6.59Z"/><path class="l" d="M480.25,163.6h9.79l9.67,33.22h.18l9.64-33.22h9.81l-14.15,42.28h-10.78l-14.15-42.28Z"/><path class="l" d="M517.66,190.17v-.06c0-10.11,6.15-16.29,15.53-16.29s15.59,6.12,15.59,16.29v.06c0,10.25-6.06,16.35-15.56,16.35s-15.56-6.12-15.56-16.35ZM540.07,190.17v-.06c0-6.06-2.72-9.58-6.88-9.58s-6.83,3.52-6.83,9.58v.06c0,6.15,2.67,9.64,6.88,9.64s6.83-3.52,6.83-9.64Z"/><path class="l" d="M553.05,165.97c0-2.43,1.99-4.45,4.57-4.45s4.57,2.02,4.57,4.45-1.99,4.45-4.57,4.45-4.57-2.02-4.57-4.45ZM553.35,174.47h8.55v31.41h-8.55v-31.41Z"/><path class="l" d="M566.47,190.17v-.03c0-10.22,4.86-16.32,12.77-16.32,4.45,0,7.97,2.29,9.67,6.09h.18v-16.32h8.55v42.28h-8.55v-5.36h-.18c-1.67,3.72-5.13,6.01-9.67,6.01-7.91,0-12.77-6.15-12.77-16.35ZM589.12,190.17v-.03c0-5.65-2.87-9.23-7-9.23s-6.94,3.49-6.94,9.23v.03c0,5.71,2.67,9.26,6.94,9.26s7-3.57,7-9.26Z"/><path class="l" d="M470.48,883.6h10.4l14.74,42.28h-9.29l-3.19-10.25h-14.94l-3.19,10.25h-9.29l14.77-42.28ZM470.25,909h10.84l-5.33-17.2h-.18l-5.33,17.2Z"/><path class="l" d="M508.16,920.52h-.18v5.36h-8.55v-42.28h8.55v16.32h.18c1.73-3.81,5.21-6.09,9.7-6.09,7.88,0,12.77,6.09,12.77,16.32v.03c0,10.2-4.89,16.35-12.8,16.35-4.51,0-7.97-2.29-9.67-6.01ZM521.92,910.18v-.03c0-5.74-2.7-9.23-6.94-9.23s-7,3.57-7,9.23v.03c0,5.68,2.84,9.26,7,9.26s6.94-3.54,6.94-9.26Z"/><path class="l" d="M534.49,935.84v-6.36c.62.12,1.61.29,2.87.29,2.55,0,3.96-.73,4.72-2.87l.38-1.03-11.1-31.41h9.4l6.62,24.55h.23l6.65-24.55h9.02l-10.78,31.96c-2.46,7.41-6.68,9.79-13.65,9.79-1.67,0-3.37-.21-4.37-.38Z"/><path class="l" d="M564.84,916.56l-.03-.26h8.35l.06.26c.56,2.46,2.4,3.9,5.83,3.9,3.22,0,5.19-1.26,5.19-3.28v-.03c0-1.67-1.05-2.64-4.13-3.31l-5.33-1.11c-6.09-1.29-9.17-4.34-9.17-9.02v-.03c0-5.98,5.16-9.84,13.15-9.84s13.01,4.42,13.21,9.93v.29h-7.88l-.03-.23c-.29-2.26-2.14-3.96-5.3-3.96-2.96,0-4.8,1.32-4.8,3.34v.03c0,1.61,1.08,2.67,4.25,3.34l5.33,1.14c6.56,1.38,9.26,3.96,9.26,8.58v.03c0,6.15-5.65,10.2-13.74,10.2-8.7,0-13.54-4.01-14.21-9.96Z"/><path class="l" d="M595.72,916.56l-.03-.26h8.35l.06.26c.56,2.46,2.4,3.9,5.83,3.9,3.22,0,5.19-1.26,5.19-3.28v-.03c0-1.67-1.05-2.64-4.13-3.31l-5.33-1.11c-6.09-1.29-9.17-4.34-9.17-9.02v-.03c0-5.98,5.16-9.84,13.15-9.84s13.01,4.42,13.21,9.93v.29h-7.88l-.03-.23c-.29-2.26-2.14-3.96-5.3-3.96-2.96,0-4.8,1.32-4.8,3.34v.03c0,1.61,1.08,2.67,4.25,3.34l5.33,1.14c6.56,1.38,9.26,3.96,9.26,8.58v.03c0,6.15-5.65,10.2-13.74,10.2-8.7,0-13.54-4.01-14.21-9.96Z"/><path class="l" d="M422.8,543.23v-.03c0-13.62,7.79-21.83,20.13-21.83,10.25,0,17.61,6.47,18.43,15.44l.03.26h-8.61l-.12-.5c-1-4.66-4.45-7.71-9.73-7.71-6.77,0-11.1,5.45-11.1,14.3v.03c0,8.91,4.34,14.41,11.1,14.41,5.1,0,8.67-2.93,9.81-7.94l.06-.29h8.61l-.03.32c-.82,8.99-8.23,15.41-18.46,15.41-12.36,0-20.13-8.26-20.13-21.88Z"/><path class="l" d="M464.99,548.68v-.06c0-10.11,6.15-16.29,15.53-16.29s15.59,6.12,15.59,16.29v.06c0,10.25-6.06,16.35-15.56,16.35s-15.56-6.12-15.56-16.35ZM487.4,548.68v-.06c0-6.06-2.72-9.58-6.88-9.58s-6.83,3.52-6.83,9.58v.06c0,6.15,2.67,9.64,6.88,9.64s6.83-3.52,6.83-9.64Z"/><path class="l" d="M500.7,522.1h8.55v42.28h-8.55v-42.28Z"/><path class="l" d="M515.23,522.1h8.55v42.28h-8.55v-42.28Z"/><path class="l" d="M528.36,555.38v-.06c0-5.71,4.42-9.05,12.22-9.55l7.76-.47v-1.93c0-2.78-1.82-4.51-5.16-4.51s-5.13,1.49-5.54,3.52l-.06.26h-7.82l.03-.35c.47-5.8,5.45-9.96,13.74-9.96s13.36,4.19,13.36,10.52v21.53h-8.55v-4.69h-.18c-1.79,3.22-5.13,5.19-9.26,5.19-6.3,0-10.55-3.96-10.55-9.49ZM541.69,558.64c3.84,0,6.65-2.46,6.65-5.74v-2.26l-6.47.41c-3.31.21-5.04,1.61-5.04,3.84v.06c0,2.31,1.9,3.69,4.86,3.69Z"/><path class="l" d="M562.4,532.97h8.55v5.48h.21c1.7-3.81,5.13-6.12,9.58-6.12,7.97,0,12.83,6.09,12.83,16.32v.03c0,10.2-4.86,16.35-12.71,16.35-4.48,0-8.03-2.29-9.73-6.01h-.18v15.62h-8.55v-41.66ZM584.87,548.68v-.03c0-5.74-2.7-9.23-6.94-9.23s-7,3.57-7,9.26v.03c0,5.65,2.84,9.23,7,9.23s6.94-3.54,6.94-9.26Z"/><path class="l" d="M596.71,555.06l-.03-.26h8.35l.06.26c.56,2.46,2.4,3.9,5.83,3.9,3.22,0,5.19-1.26,5.19-3.28v-.03c0-1.67-1.05-2.64-4.13-3.31l-5.33-1.11c-6.09-1.29-9.17-4.34-9.17-9.02v-.03c0-5.98,5.16-9.84,13.15-9.84s13.01,4.42,13.21,9.93v.29h-7.88l-.03-.23c-.29-2.26-2.14-3.96-5.3-3.96-2.96,0-4.8,1.32-4.8,3.34v.03c0,1.61,1.08,2.67,4.25,3.34l5.33,1.14c6.56,1.38,9.26,3.96,9.26,8.58v.03c0,6.15-5.65,10.2-13.74,10.2-8.7,0-13.54-4.01-14.21-9.96Z"/><path class="l" d="M627.73,548.73v-.03c0-9.99,5.89-16.38,15.09-16.38s14.97,6.24,14.97,15.73v2.64h-21.62c.09,5.01,2.81,7.94,7.18,7.94,3.52,0,5.65-1.93,6.27-3.69l.06-.18h7.85l-.09.32c-.97,4.63-5.3,9.93-14.27,9.93-9.61,0-15.44-6.24-15.44-16.29ZM636.26,545.31h13.33c-.53-4.34-3.08-6.59-6.62-6.59s-6.15,2.34-6.71,6.59Z"/><path class="f" d="M311.16,696.83h28.01v7.29h-19.16v10.14h18.08v6.91h-18.08v10.63h19.16v7.29h-28.01v-42.28Z"/><path class="f" d="M344.83,707.7h8.55v5.16h.18c1.61-3.6,4.83-5.8,9.58-5.8,6.91,0,10.84,4.42,10.84,11.78v20.27h-8.55v-18.52c0-4.1-1.93-6.45-5.77-6.45s-6.27,2.81-6.27,6.91v18.05h-8.55v-31.41Z"/><path class="f" d="M378.25,723.4v-.03c0-10.22,4.86-16.32,12.77-16.32,4.45,0,7.97,2.29,9.67,6.09h.18v-16.32h8.55v42.28h-8.55v-5.36h-.18c-1.67,3.72-5.13,6.01-9.67,6.01-7.91,0-12.77-6.15-12.77-16.35ZM400.9,723.4v-.03c0-5.65-2.87-9.23-7-9.23s-6.94,3.49-6.94,9.23v.03c0,5.71,2.67,9.26,6.94,9.26s7-3.57,7-9.26Z"/></svg>