<?xml version="1.0" encoding="UTF-8"?><svg id="a" xmlns="http://www.w3.org/2000/svg" viewBox="0 0 1024 1024"><defs><style>.b{fill:#7a0000;}.c{fill:#30363d;}.d{stroke:#3d444d;stroke-miterlimit:10;stroke-width:4px;}.e{fill:#fff;}.f{fill:#3d444d;}.g{fill:#413500;}.h{fill:#484f58;}.i{fill:#001f41;}.j{fill:#300352;}.k{fill:#f0f6fc;}.l{fill:#003d00;}.m{fill:#003a52;}.n{fill:#670067;}</style></defs><rect class="c" x="341.33" y="341.33" width="341.33" height="341.33"/><rect class="h" x="568.89" y="398.22" width="56.89" height="56.89"/><rect class="h" x="512" y="341.33" width="56.89" height="56.89"/><rect class="h" x="455.11" y="398.22" width="56.89" height="56.89"/><rect class="h" x="398.22" y="341.33" width="56.89" height="56.89"/><rect class="h" x="625.78" y="341.33" width="56.89" height="56.89"/><rect class="h" x="341.33" y="398.22" width="56.89" height="56.89"/><rect class="h" x="568.89" y="512" width="56.89" height="56.89"/><rect class="h" x="512" y="455.11" width="56.89" height="56.89"/><rect class="h" x="455.11" y="512" width="56.89" height="56.89"/><rect class="h" x="398.22" y="455.11" width="56.89" height="56.89"/><rect class="h" x="625.78" y="455.11" width="56.89" height="56.89"/><rect class="h" x="341.33" y="512" width="56.89" height="56.89"/><rect class="h" x="568.89" y="625.78" width="56.89" height="56.89"/><rect class="h" x="512" y="568.89" width="56.89" height="56.89"/><rect class="h" x="455.11" y="625.78" width="56.89" height="56.89"/><rect class="h" x="398.22" y="568.89" width="56.89" height="56.89"/><rect class="h" x="625.78" y="568.89" width="56.89" height="56.89"/><rect class="h" x="341.33" y="625.78" width="56.89" height="56.89"/><rect class="g" width="341.33" height="341.33"/><rect class="b" x="341.33" width="341.33" height="341.33"/><rect class="n" x="682.67" width="341.33" height="341.33"/><rect class="j" x="682.67" y="682.67" width="341.33" height="341.33"/><rect class="m" y="682.67" width="341.33" height="341.33"/><rect class="i" x="341.33" y="682.67" width="341.33" height="341.33"/><rect class="l" y="341.33" width="341.33" height="341.33"/><rect class="f" x="682.67" y="341.33" width="341.33" height="341.33"/><rect class="d" x="227.56" y="568.89" width="227.56" height="227.56" rx="113.78" ry="113.78"/><path class="k" d="M134.02,485.8h-.29l-22.09,15.23v-12.42l22.27-15.82h12.95v84.55h-12.83v-71.54Z"/><path class="k" d="M207.61,540.53h-42.3v-11.43l35.92-56.31h18.98v56.72h11.66v11.02h-11.66v16.82h-12.6v-16.82ZM207.73,529.69v-46.52h-.35l-29.88,46.17v.35h30.23Z"/><path class="k" d="M143.83,144.47h-.29l-22.09,15.23v-12.42l22.27-15.82h12.95v84.55h-12.83v-71.54Z"/><path class="k" d="M198.62,144.47h-.29l-22.09,15.23v-12.42l22.27-15.82h12.95v84.55h-12.83v-71.54Z"/><path class="k" d="M137.85,827.14h-.29l-22.09,15.23v-12.42l22.27-15.82h12.95v84.55h-12.83v-71.54Z"/><path class="k" d="M213.5,825.5v-.29h-44.59v-11.07h57.54v11.37l-36.74,73.18h-13.77l37.56-73.18Z"/><path class="k" d="M816.1,485.8h-.29l-22.09,15.23v-12.42l22.27-15.82h12.95v84.55h-12.83v-71.54Z"/><path class="k" d="M848.09,516.33v-.12c0-28.18,12.6-44.82,33.75-44.82,15.06,0,26.37,8.61,29.06,21.21l.18.7h-13.18l-.18-.59c-2.4-6.33-7.91-10.31-16-10.31-14.53,0-20.45,14-20.98,30.76-.06.76-.06,1.52-.06,2.29h.29c3.34-7.62,11.89-13.59,23.38-13.59,16.17,0,27.83,11.78,27.83,27.77v.12c0,16.88-13.07,29-30.88,29s-33.22-12.01-33.22-42.42ZM881.14,547.74c10.02,0,17.99-7.79,17.99-17.64v-.12c0-10.2-7.5-17.46-17.81-17.46s-18.05,7.21-18.05,17.23v.06c0,10.02,7.85,17.93,17.87,17.93Z"/><path class="k" d="M817.56,144.47h-.29l-22.09,15.23v-12.42l22.27-15.82h12.95v84.55h-12.83v-71.54Z"/><path class="k" d="M849.5,193.81l-.06-.76h12.6l.06.64c.82,7.5,7.91,12.77,18.4,12.77s17.29-5.74,17.29-13.95v-.12c0-9.55-6.91-14.88-18.22-14.88h-10.25v-10.2h9.9c9.67,0,16.23-5.68,16.23-13.54v-.12c0-8.14-5.51-12.89-15.06-12.89s-15.94,4.92-16.76,12.77l-.06.53h-12.3l.06-.59c1.29-14.12,12.54-23.44,29.06-23.44s27.83,8.91,27.83,21.91v.12c0,10.49-7.5,17.52-17.81,19.69v.29c12.42,1.11,20.74,8.61,20.74,20.45v.12c0,14.47-12.71,24.79-30.64,24.79s-29.82-9.84-31-23.61Z"/><path class="k" d="M816.16,827.14h-.29l-22.09,15.23v-12.42l22.27-15.82h12.95v84.55h-12.83v-71.54Z"/><path class="k" d="M913.31,855.15v.12c0,28.18-12.6,44.82-33.75,44.82-15.06,0-26.37-8.61-29.06-21.21l-.18-.7h13.12l.23.59c2.4,6.33,7.91,10.31,16,10.31,14.53,0,20.45-14,20.98-30.76.06-.76.06-1.52.06-2.29h-.29c-3.34,7.62-11.89,13.59-23.38,13.59-16.17,0-27.89-11.78-27.89-27.77v-.12c0-16.88,13.07-29,30.94-29s33.22,12.01,33.22,42.42ZM898.13,841.73v-.06c0-10.02-7.85-17.93-17.93-17.93s-17.99,7.79-17.99,17.64v.12c0,10.2,7.56,17.46,17.81,17.46s18.11-7.21,18.11-17.23Z"/><path class="k" d="M477.81,145.89h-.29l-22.09,15.23v-12.42l22.27-15.82h12.95v84.55h-12.83v-71.54Z"/><path class="k" d="M511.21,208.41l29.77-29.94c11.25-11.25,13.77-15.7,13.77-22.27v-.12c-.06-8.03-6.15-13.77-14.71-13.77-9.9,0-16.99,6.68-17.11,15.23v.35h-12.42v-.35c0-15.12,12.83-26.07,29.36-26.07s27.83,10.2,27.83,23.85v.12c0,9.67-4.51,16.52-19.69,31.52l-19.22,18.87v.53h40.25v11.07h-57.83v-9.02Z"/><path class="k" d="M475.53,828.56h-.29l-22.09,15.23v-12.42l22.27-15.82h12.95v84.55h-12.83v-71.54Z"/><path class="k" d="M507.46,877.19v-.12c0-10.66,7.68-19.1,18.69-21.5v-.29c-9.43-2.7-15.59-9.73-15.59-18.69v-.12c0-12.89,12.01-22.32,28.83-22.32s28.89,9.43,28.89,22.32v.12c0,8.96-6.15,16-15.59,18.69v.29c11.02,2.4,18.63,10.84,18.63,21.5v.12c0,14.3-13.18,24.32-31.93,24.32s-31.93-10.02-31.93-24.32ZM557.85,876.31v-.12c0-8.61-7.62-14.82-18.46-14.82s-18.46,6.21-18.46,14.82v.12c0,8.55,7.68,14.71,18.46,14.71s18.46-6.15,18.46-14.71ZM555.27,837.76v-.12c0-7.73-6.5-13.12-15.88-13.12s-15.82,5.39-15.82,13.12v.12c0,7.68,6.45,13.12,15.82,13.12s15.88-5.45,15.88-13.12Z"/><path class="k" d="M476.58,485.8h-.29l-22.09,15.23v-12.42l22.27-15.82h12.95v84.55h-12.83v-71.54Z"/><path class="k" d="M510.33,534.55l-.06-.7h12.54l.06.47c1.11,7.62,8.03,13.48,17.46,13.48,10.66,0,18.11-7.38,18.11-17.87v-.12c-.06-10.37-7.5-17.7-17.99-17.7-5.21,0-9.73,1.52-13.12,4.57-1.58,1.35-2.93,2.99-4.04,4.86h-11.48l4.16-48.75h50.39v11.07h-39.79l-2.58,26.78h.29c3.81-5.68,10.84-8.91,19.16-8.91,16.17,0,27.83,11.66,27.83,27.83v.12c0,17.17-12.83,29.06-31.05,29.06-16.93,0-28.71-10.25-29.88-24.2Z"/><path class="e" d="M275.77,713.99l29.77-29.94c11.25-11.25,13.77-15.7,13.77-22.27v-.12c-.06-8.03-6.15-13.77-14.71-13.77-9.9,0-16.99,6.68-17.11,15.23v.35h-12.42v-.35c0-15.12,12.83-26.07,29.36-26.07s27.83,10.2,27.83,23.85v.12c0,9.67-4.51,16.52-19.69,31.52l-19.22,18.87v.53h40.25v11.07h-57.83v-9.02Z"/><path class="e" d="M343.74,680.77v-.12c0-26.84,12.07-43.59,32.29-43.59s32.29,16.76,32.29,43.59v.12c0,26.84-12.13,43.65-32.29,43.65s-32.29-16.82-32.29-43.65ZM395.07,680.77v-.12c0-20.27-7.03-32.58-19.04-32.58s-19.04,12.3-19.04,32.58v.12c0,20.27,6.97,32.7,19.04,32.7s19.04-12.42,19.04-32.7Z"/></svg>