<?xml version="1.0" encoding="UTF-8"?><svg id="b" xmlns="http://www.w3.org/2000/svg" viewBox="0 0 1080 1080"><defs><style>.c{fill:#7a0000;}.d{fill:#30363d;}.e{fill:#3d444d;}.f{fill:#413500;}.g{fill:#484f58;}.h{fill:#001f41;}.i{fill:#300352;}.j{fill:#003d00;}.k{fill:#003a52;}.l{fill:#670067;}</style></defs><rect class="d" x="360" y="360" width="360" height="360"/><rect class="g" x="600" y="420" width="60" height="60"/><rect class="g" x="540" y="360" width="60" height="60"/><rect class="g" x="480" y="420" width="60" height="60"/><rect class="g" x="420" y="360" width="60" height="60"/><rect class="g" x="660" y="360" width="60" height="60"/><rect class="g" x="360" y="420" width="60" height="60"/><rect class="g" x="600" y="540" width="60" height="60"/><rect class="g" x="540" y="480" width="60" height="60"/><rect class="g" x="480" y="540" width="60" height="60"/><rect class="g" x="420" y="480" width="60" height="60"/><rect class="g" x="660" y="480" width="60" height="60"/><rect class="g" x="360" y="540" width="60" height="60"/><rect class="g" x="600" y="660" width="60" height="60"/><rect class="g" x="540" y="600" width="60" height="60"/><rect class="g" x="480" y="660" width="60" height="60"/><rect class="g" x="420" y="600" width="60" height="60"/><rect class="g" x="660" y="600" width="60" height="60"/><rect class="g" x="360" y="660" width="60" height="60"/><rect class="f" width="360" height="360"/><rect class="c" x="360" width="360" height="360"/><rect class="l" x="720" width="360" height="360"/><rect class="i" x="720" y="720" width="360" height="360"/><rect class="k" y="720" width="360" height="360"/><rect class="h" x="360" y="720" width="360" height="360"/><rect class="j" y="360" width="360" height="360"/><rect class="e" x="720" y="360" width="360" height="360"/></svg>