<?xml version="1.0" encoding="UTF-8"?><svg id="a" xmlns="http://www.w3.org/2000/svg" viewBox="0 0 1024 1024"><defs><style>.b{stroke:#f0f6fc;}.b,.c,.d,.e,.f,.g,.h,.i,.j,.k,.l,.m,.n,.o,.p,.q,.r{fill:none;stroke-miterlimit:10;}.b,.c,.d,.e,.f,.h,.i,.j,.k,.l,.m,.n,.o,.p,.q,.r{stroke-width:2px;}.c{stroke:#670067;}.d{stroke:red;}.e{stroke:green;}.f{stroke:#300352;}.g{stroke:#2f353d;stroke-width:8px;}.h{stroke:#3d444d;}.s{fill:#30363d;}.i{stroke:#0067c0;}.j{stroke:#6a0dad;}.t{fill:#fff;}.u{fill:#21262d;}.v{fill:#0d1117;}.k{stroke:#f0f;}.l{stroke:#001f41;}.m{stroke:#7a0000;}.w{fill:#484f58;}.n{stroke:#ffd400;}.o{stroke:#003a52;}.p{stroke:#413500;}.q{stroke:#00aeef;}.x{fill:#c9d1d9;}.r{stroke:#003d00;}</style></defs><rect class="v" x="3.01" y="3.01" width="1017.99" height="1017.99"/><rect class="v" x="5.09" y="4.85" width="1013.82" height="1013.82"/><rect class="u" x="174.06" y="174.3" width="675.88" height="675.39"/><rect class="w" x="343.03" y="342.79" width="337.94" height="337.94"/><rect class="s" x="512" y="342.79" width="56.32" height="56.32"/><rect class="s" x="624.65" y="455.43" width="56.32" height="56.32"/><rect class="s" x="624.65" y="568.08" width="56.32" height="56.32"/><rect class="s" x="624.65" y="342.79" width="56.32" height="56.32"/><rect class="s" x="568.32" y="624.4" width="56.32" height="56.32"/><rect class="s" x="455.68" y="624.4" width="56.32" height="56.32"/><rect class="s" x="399.35" y="342.79" width="56.32" height="56.32"/><rect class="s" x="343.03" y="624.4" width="56.32" height="56.32"/><rect class="s" x="343.03" y="511.76" width="56.32" height="56.32"/><rect class="s" x="343.03" y="399.11" width="56.32" height="56.32"/><rect class="t" x="399.35" y="399.11" width="225.29" height="225.29"/><rect class="x" x="568.32" y="399.11" width="56.32" height="56.32"/><rect class="x" x="455.68" y="399.11" width="56.32" height="56.32"/><rect class="x" x="512" y="455.43" width="56.32" height="56.32"/><rect class="x" x="399.35" y="455.43" width="56.32" height="56.32"/><rect class="x" x="568.32" y="511.76" width="56.32" height="56.32"/><rect class="x" x="455.68" y="511.76" width="56.32" height="56.32"/><rect class="x" x="512" y="568.08" width="56.32" height="56.32"/><rect class="x" x="399.35" y="568.08" width="56.32" height="56.32"/><line class="b" x1="680.97" y1="455.43" x2="849.94" y2="455.43"/><line class="b" x1="680.97" y1="511.76" x2="849.94" y2="511.76"/><line class="b" x1="680.97" y1="568.08" x2="849.94" y2="568.08"/><line class="b" x1="680.97" y1="399.11" x2="849.94" y2="399.11"/><line class="b" x1="680.97" y1="624.4" x2="849.94" y2="624.4"/><line class="f" x1="906.26" y1="1018.66" x2="906.26" y2="680.73"/><line class="f" x1="962.58" y1="1018.66" x2="962.58" y2="680.73"/><line class="f" x1="1018.91" y1="962.34" x2="680.97" y2="962.34"/><line class="f" x1="1018.91" y1="906.02" x2="680.97" y2="906.02"/><line class="h" x1="849.94" y1="455.43" x2="1018.91" y2="455.43"/><line class="h" x1="849.94" y1="511.76" x2="1018.91" y2="511.76"/><line class="h" x1="849.94" y1="568.08" x2="1018.91" y2="568.08"/><line class="h" x1="849.94" y1="399.11" x2="1018.91" y2="399.11"/><line class="h" x1="849.94" y1="624.4" x2="1018.91" y2="624.4"/><line class="f" x1="849.94" y1="793.37" x2="1018.91" y2="793.37"/><line class="f" x1="849.94" y1="849.7" x2="1018.91" y2="849.7"/><line class="f" x1="849.94" y1="737.05" x2="1018.91" y2="737.05"/><line class="b" x1="849.94" y1="680.73" x2="849.94" y2="342.79"/><line class="h" x1="906.26" y1="680.73" x2="906.26" y2="342.79"/><line class="h" x1="962.58" y1="680.73" x2="962.58" y2="342.79"/><line class="b" x1="793.62" y1="680.73" x2="793.62" y2="342.79"/><line class="b" x1="737.29" y1="680.73" x2="737.29" y2="342.79"/><line class="e" x1="343.03" y1="568.08" x2="174.06" y2="568.08"/><line class="e" x1="343.03" y1="511.76" x2="174.06" y2="511.76"/><line class="e" x1="343.03" y1="455.43" x2="174.06" y2="455.43"/><line class="e" x1="343.03" y1="624.4" x2="174.06" y2="624.4"/><line class="e" x1="343.03" y1="399.11" x2="174.06" y2="399.11"/><line class="r" x1="174.06" y1="568.08" x2="5.09" y2="568.08"/><line class="r" x1="174.06" y1="511.76" x2="5.09" y2="511.76"/><line class="r" x1="174.06" y1="455.43" x2="5.09" y2="455.43"/><line class="r" x1="174.06" y1="624.4" x2="5.09" y2="624.4"/><line class="r" x1="174.06" y1="399.11" x2="5.09" y2="399.11"/><line class="e" x1="174.06" y1="342.79" x2="174.06" y2="680.73"/><line class="r" x1="117.74" y1="342.79" x2="117.74" y2="680.73"/><line class="r" x1="61.42" y1="342.79" x2="61.42" y2="680.73"/><line class="e" x1="230.38" y1="342.79" x2="230.38" y2="680.73"/><line class="e" x1="286.71" y1="342.79" x2="286.71" y2="680.73"/><line class="d" x1="455.68" y1="342.79" x2="455.68" y2="173.82"/><line class="d" x1="512" y1="342.79" x2="512" y2="173.82"/><line class="d" x1="568.32" y1="342.79" x2="568.32" y2="173.82"/><line class="d" x1="399.35" y1="342.79" x2="399.35" y2="173.82"/><line class="d" x1="624.65" y1="342.79" x2="624.65" y2="173.82"/><line class="m" x1="455.68" y1="173.82" x2="455.68" y2="4.85"/><line class="m" x1="512" y1="173.82" x2="512" y2="4.85"/><line class="m" x1="568.32" y1="173.82" x2="568.32" y2="4.85"/><line class="m" x1="399.35" y1="173.82" x2="399.35" y2="4.85"/><line class="m" x1="624.65" y1="173.82" x2="624.65" y2="4.85"/><line class="d" x1="680.97" y1="173.82" x2="343.03" y2="173.82"/><line class="m" x1="680.97" y1="117.5" x2="343.03" y2="117.5"/><line class="m" x1="680.97" y1="61.17" x2="343.03" y2="61.17"/><line class="d" x1="680.97" y1="230.14" x2="343.03" y2="230.14"/><line class="d" x1="680.97" y1="286.46" x2="343.03" y2="286.46"/><line class="i" x1="568.32" y1="680.73" x2="568.32" y2="849.7"/><line class="i" x1="512" y1="680.73" x2="512" y2="849.7"/><line class="i" x1="455.68" y1="680.73" x2="455.68" y2="849.7"/><line class="i" x1="624.65" y1="680.73" x2="624.65" y2="849.7"/><line class="i" x1="399.35" y1="680.73" x2="399.35" y2="849.7"/><line class="l" x1="568.32" y1="849.7" x2="568.32" y2="1018.66"/><line class="l" x1="512" y1="849.7" x2="512" y2="1018.66"/><line class="l" x1="455.68" y1="849.7" x2="455.68" y2="1018.66"/><line class="l" x1="624.65" y1="849.7" x2="624.65" y2="1018.66"/><line class="f" x1="737.29" y1="850.18" x2="737.29" y2="1019.15"/><line class="f" x1="793.62" y1="850.18" x2="793.62" y2="1019.15"/><line class="f" x1="849.94" y1="850.18" x2="849.94" y2="1019.15"/><line class="l" x1="399.35" y1="849.7" x2="399.35" y2="1018.66"/><line class="i" x1="343.03" y1="849.7" x2="680.97" y2="849.7"/><line class="l" x1="343.03" y1="906.02" x2="680.97" y2="906.02"/><line class="l" x1="343.03" y1="962.34" x2="680.97" y2="962.34"/><line class="i" x1="343.03" y1="793.37" x2="680.97" y2="793.37"/><line class="i" x1="343.03" y1="737.05" x2="680.97" y2="737.05"/><line class="j" x1="680.97" y1="793.37" x2="849.94" y2="793.37"/><line class="j" x1="680.97" y1="737.05" x2="849.94" y2="737.05"/><line class="j" x1="793.62" y1="849.7" x2="793.62" y2="680.73"/><line class="j" x1="737.29" y1="849.7" x2="737.29" y2="680.73"/><polyline class="j" points="680.97 849.7 849.94 849.7 849.94 680.73"/><line class="p" x1="117.74" y1="5.34" x2="117.74" y2="343.27"/><line class="p" x1="61.42" y1="5.34" x2="61.42" y2="343.27"/><line class="p" x1="5.09" y1="61.66" x2="343.03" y2="61.66"/><line class="p" x1="5.09" y1="117.98" x2="343.03" y2="117.98"/><line class="p" x1="174.06" y1="230.63" x2="5.09" y2="230.63"/><line class="p" x1="174.06" y1="174.3" x2="5.09" y2="174.3"/><line class="p" x1="174.06" y1="286.95" x2="5.09" y2="286.95"/><line class="p" x1="286.71" y1="173.82" x2="286.71" y2="4.85"/><line class="p" x1="230.38" y1="173.82" x2="230.38" y2="4.85"/><line class="p" x1="174.06" y1="173.82" x2="174.06" y2="4.85"/><line class="n" x1="343.03" y1="230.63" x2="174.06" y2="230.63"/><line class="n" x1="343.03" y1="286.95" x2="174.06" y2="286.95"/><line class="n" x1="230.38" y1="174.3" x2="230.38" y2="343.27"/><line class="n" x1="286.71" y1="174.3" x2="286.71" y2="343.27"/><polyline class="n" points="343.03 174.3 174.06 174.3 174.06 343.27"/><line class="o" x1="117.74" y1="1018.66" x2="117.74" y2="680.73"/><line class="o" x1="61.42" y1="1018.66" x2="61.42" y2="680.73"/><line class="o" x1="5.09" y1="962.34" x2="343.03" y2="962.34"/><line class="o" x1="5.09" y1="906.02" x2="343.03" y2="906.02"/><line class="o" x1="174.06" y1="793.37" x2="5.09" y2="793.37"/><line class="o" x1="174.06" y1="849.7" x2="5.09" y2="849.7"/><line class="o" x1="174.06" y1="737.05" x2="5.09" y2="737.05"/><line class="o" x1="286.71" y1="850.18" x2="286.71" y2="1019.15"/><line class="o" x1="230.38" y1="850.18" x2="230.38" y2="1019.15"/><line class="o" x1="174.06" y1="850.18" x2="174.06" y2="1019.15"/><line class="q" x1="343.03" y1="793.37" x2="174.06" y2="793.37"/><line class="q" x1="343.03" y1="737.05" x2="174.06" y2="737.05"/><line class="q" x1="230.38" y1="849.7" x2="230.38" y2="680.73"/><line class="q" x1="286.71" y1="849.7" x2="286.71" y2="680.73"/><polyline class="q" points="343.03 849.7 174.06 849.7 174.06 680.73"/><line class="c" x1="906.26" y1="5.34" x2="906.26" y2="343.27"/><line class="c" x1="962.58" y1="5.34" x2="962.58" y2="343.27"/><line class="c" x1="1018.91" y1="61.66" x2="680.97" y2="61.66"/><line class="c" x1="1018.91" y1="117.98" x2="680.97" y2="117.98"/><line class="c" x1="849.94" y1="230.63" x2="1018.91" y2="230.63"/><line class="c" x1="849.94" y1="174.3" x2="1018.91" y2="174.3"/><line class="c" x1="849.94" y1="286.95" x2="1018.91" y2="286.95"/><line class="c" x1="737.29" y1="173.82" x2="737.29" y2="4.85"/><line class="c" x1="793.62" y1="173.82" x2="793.62" y2="4.85"/><line class="c" x1="849.94" y1="173.82" x2="849.94" y2="4.85"/><line class="k" x1="680.97" y1="230.63" x2="849.94" y2="230.63"/><line class="k" x1="680.97" y1="286.95" x2="849.94" y2="286.95"/><line class="k" x1="793.62" y1="174.3" x2="793.62" y2="343.27"/><line class="k" x1="737.29" y1="174.3" x2="737.29" y2="343.27"/><polyline class="k" points="680.97 174.3 849.94 174.3 849.94 343.27"/><rect class="g" x="5.09" y="4.85" width="1013.82" height="1013.82"/><line class="g" x1="5.09" y1="342.79" x2="1018.91" y2="342.79"/><line class="g" x1="5.09" y1="680.73" x2="1018.91" y2="680.73"/><line class="g" x1="343.03" y1="1018.66" x2="343.03" y2="4.85"/><line class="g" x1="680.97" y1="1018.66" x2="680.97" y2="4.85"/></svg>