<?xml version="1.0" encoding="UTF-8"?><svg id="b" xmlns="http://www.w3.org/2000/svg" viewBox="0 0 1080 1080"><defs><style>.c{stroke:#3d444d;}.c,.d,.e,.f,.g,.h,.i,.j,.k,.l,.m,.n,.o,.p,.q,.r,.s{fill:none;stroke-miterlimit:10;}.c,.d,.e,.g,.h,.i,.j,.k,.l,.m,.n,.o,.p,.q,.r,.s{stroke-width:4px;}.d{stroke:#00aeef;}.e{stroke:#6a0dad;}.f{stroke:#2f353d;stroke-width:8px;}.g{stroke:#f0f6fc;}.h{stroke:#f0f;}.i{stroke:#670067;}.j{stroke:#ffd400;}.k{stroke:green;}.l{stroke:#413500;}.m{stroke:#003a52;}.n{stroke:#300352;}.t{fill:#fff;}.u{fill:#21262d;}.v{fill:#0d1117;}.w{fill:#2f353d;}.o{stroke:#003d00;}.p{stroke:#001f41;}.q{stroke:red;}.r{stroke:#0067c0;}.s{stroke:#7a0000;}.x{fill:#c9d1d9;}</style></defs><rect class="v" y="-.26" width="1080" height="1080"/><path class="w" d="M1076,3.74v1072H4V3.74h1072M1084-4.26H-4v1088h1088V-4.26h0Z"/><rect class="u" x="122.81" y="123.11" width="834.38" height="833.78"/><rect class="t" x="361.33" y="361.08" width="357.33" height="357.33"/><rect class="x" x="481.55" y="361.08" width="119.11" height="119.11"/><rect class="x" x="481.55" y="599.3" width="119.11" height="119.11"/><rect class="x" x="362.44" y="480.19" width="119.11" height="119.11" transform="translate(-117.75 961.74) rotate(-90)"/><rect class="x" x="600.66" y="480.19" width="119.11" height="119.11" transform="translate(120.47 1199.96) rotate(-90)"/><line class="g" x1="718.67" y1="480.19" x2="956.89" y2="480.19"/><line class="g" x1="718.67" y1="599.3" x2="956.89" y2="599.3"/><line class="c" x1="956.89" y1="480.19" x2="1076" y2="480.19"/><line class="c" x1="956.89" y1="599.3" x2="1076" y2="599.3"/><line class="n" x1="956.89" y1="837.52" x2="1076" y2="837.52"/><line class="g" x1="956.89" y1="718.41" x2="956.89" y2="361.08"/><line class="g" x1="837.78" y1="718.41" x2="837.78" y2="361.08"/><line class="k" x1="361.33" y1="599.3" x2="123.11" y2="599.3"/><line class="k" x1="361.33" y1="480.19" x2="123.11" y2="480.19"/><line class="o" x1="123.11" y1="599.3" x2="4" y2="599.3"/><line class="o" x1="123.11" y1="480.19" x2="4" y2="480.19"/><line class="k" x1="123.11" y1="361.08" x2="123.11" y2="718.41"/><line class="k" x1="242.22" y1="361.08" x2="242.22" y2="718.41"/><line class="q" x1="480.44" y1="361.08" x2="480.44" y2="123.37"/><line class="q" x1="599.56" y1="361.08" x2="599.56" y2="123.37"/><line class="s" x1="480.44" y1="123.37" x2="480.44" y2="3.74"/><line class="s" x1="599.56" y1="123.37" x2="599.56" y2="3.74"/><line class="q" x1="718.67" y1="122.85" x2="361.33" y2="122.85"/><line class="q" x1="718.67" y1="241.97" x2="361.33" y2="241.97"/><line class="r" x1="599.56" y1="718.41" x2="599.56" y2="956.63"/><line class="r" x1="480.44" y1="718.41" x2="480.44" y2="956.63"/><line class="p" x1="599.56" y1="956.63" x2="599.56" y2="1075.74"/><line class="p" x1="480.44" y1="956.63" x2="480.44" y2="1075.74"/><line class="n" x1="837.78" y1="956.63" x2="837.78" y2="1076.26"/><line class="r" x1="361.33" y1="956.63" x2="718.67" y2="956.63"/><line class="r" x1="361.33" y1="837.52" x2="718.67" y2="837.52"/><line class="e" x1="718.67" y1="837.52" x2="956.89" y2="837.52"/><line class="e" x1="837.78" y1="956.63" x2="837.78" y2="718.41"/><polyline class="l" points="4 123.37 123.11 123.37 123.11 4.26"/><polyline class="j" points="361.33 123.37 123.11 123.37 123.11 361.59"/><line class="l" x1="123.11" y1="242.48" x2="4" y2="242.48"/><line class="l" x1="242.22" y1="123.37" x2="242.22" y2="3.74"/><line class="j" x1="361.33" y1="242.48" x2="123.11" y2="242.48"/><line class="j" x1="242.22" y1="123.37" x2="242.22" y2="361.59"/><line class="m" x1="123.11" y1="837.52" x2="4" y2="837.52"/><line class="m" x1="242.22" y1="956.63" x2="242.22" y2="1076.26"/><line class="d" x1="361.33" y1="837.52" x2="123.11" y2="837.52"/><line class="d" x1="242.22" y1="956.63" x2="242.22" y2="718.41"/><line class="i" x1="956.89" y1="242.48" x2="1076" y2="242.48"/><line class="i" x1="837.78" y1="123.37" x2="837.78" y2="3.74"/><line class="h" x1="718.67" y1="242.48" x2="956.89" y2="242.48"/><line class="h" x1="837.78" y1="123.37" x2="837.78" y2="361.59"/><polyline class="m" points="123.11 1076.26 123.11 957.15 4 957.15"/><polyline class="d" points="123.11 718.92 123.11 957.15 361.33 957.15"/><polyline class="i" points="1076 123.37 956.89 123.37 956.89 4.26"/><polyline class="h" points="718.67 123.37 956.89 123.37 956.89 361.59"/><polyline class="n" points="956.89 1076.26 956.89 957.15 1076 957.15"/><polyline class="e" points="956.89 718.92 956.89 957.15 718.67 957.15"/><rect class="f" x="4" y="3.74" width="1072" height="1072"/><line class="f" x1="4" y1="361.08" x2="1076" y2="361.08"/><line class="f" x1="4" y1="718.41" x2="1076" y2="718.41"/><line class="f" x1="361.33" y1="1075.74" x2="361.33" y2="3.74"/><line class="f" x1="718.67" y1="1075.74" x2="718.67" y2="3.74"/></svg>