<?xml version="1.0" encoding="UTF-8"?><svg xmlns="http://www.w3.org/2000/svg" viewBox="0 0 1080 1350"><defs><style>.c{stroke:#f0f6fc;}.c,.d,.e,.f,.g,.h,.i,.j,.k,.l,.m,.n,.o,.p,.q,.r,.s,.t,.u{stroke-miterlimit:10;}.c,.e,.f,.g,.h,.i,.j,.k,.l,.m,.n,.o,.p,.q,.r,.s,.t,.u{fill:none;}.c,.e,.f,.g,.h,.j,.k,.l,.m,.n,.o,.p,.q,.r,.s,.t,.u{stroke-width:2px;}.d{stroke:#d1d5db;stroke-width:4px;}.d,.v{fill:#fff;}.e{stroke:#670067;}.w{fill:#7a0000;}.f{stroke:red;}.g{stroke:green;}.h{stroke:#300352;}.x{fill:#ffd400;}.y{fill:#f0f;}.i{stroke-width:8px;}.i,.o{stroke:#2f353d;}.j{stroke:#3d444d;}.z{fill:#30363d;}.k{stroke:#0067c0;}.aa{fill:#00aeef;}.l{stroke:#6a0dad;}.ab{fill:#21262d;}.ac{fill:#0d1117;}.m{stroke:#f0f;}.n{stroke:#001f41;}.ad{fill:#9199a1;}.ae{fill:green;}.af{fill:#3d444d;}.p{stroke:#7a0000;}.ag{fill:#413500;}.ah{fill:#484f58;}.ai{fill:#0067c0;}.aj{fill:#2f353d;}.ak{fill:#6a0dad;}.al{fill:red;}.q{stroke:#ffd400;}.am{fill:#001f41;}.r{stroke:#003a52;}.s{stroke:#413500;}.an{fill:#300352;}.ao{fill:#f0f6fc;}.ap{fill:#003d00;}.t{stroke:#00aeef;}.aq{fill:#c9d1d9;}.ar{fill:#003a52;}.u{stroke:#003d00;}.as{fill:#670067;}</style></defs><g id="a"><rect width="1080" height="1350"/></g><g id="b"><path class="ad" d="M63.68,1222.14v-1.82l7.44-7.76c.96-1,1.69-1.82,2.19-2.47.5-.65.85-1.23,1.04-1.75s.29-1.07.29-1.66v-.03c0-.72-.17-1.36-.51-1.92s-.8-.99-1.39-1.31c-.59-.32-1.27-.48-2.04-.48-.88,0-1.66.18-2.36.55-.69.37-1.24.86-1.64,1.47s-.6,1.3-.6,2.07v.07h-2.55v-.09c0-1.22.32-2.31.95-3.27.63-.96,1.49-1.72,2.57-2.27,1.08-.55,2.27-.83,3.58-.83s2.42.26,3.41.78,1.78,1.22,2.35,2.11.86,1.88.86,2.99v.03c0,.77-.14,1.52-.43,2.24s-.79,1.54-1.5,2.44c-.71.9-1.72,2.02-3.02,3.35l-5.8,5.95.78-1.63v1.63l-.78-.73h11.1v2.34h-13.95Z"/><path class="ad" d="M87.43,1222.49c-1.62,0-3.01-.44-4.17-1.33-1.16-.89-2.04-2.15-2.66-3.78s-.92-3.56-.92-5.8v-.03c0-2.24.31-4.17.92-5.8s1.5-2.89,2.66-3.77c1.16-.88,2.55-1.33,4.17-1.33s3.01.44,4.17,1.33c1.16.88,2.05,2.14,2.67,3.77.62,1.63.93,3.56.93,5.8v.03c0,2.24-.31,4.17-.93,5.8-.62,1.63-1.51,2.89-2.67,3.78s-2.55,1.33-4.17,1.33ZM87.43,1220.19c1.07,0,2-.35,2.76-1.05.77-.7,1.35-1.69,1.76-2.98.41-1.29.61-2.82.61-4.58v-.03c0-1.77-.2-3.29-.61-4.58-.4-1.28-.99-2.27-1.76-2.97-.77-.69-1.69-1.04-2.76-1.04s-1.99.35-2.75,1.04-1.34,1.68-1.74,2.97c-.4,1.29-.6,2.81-.6,4.58v.03c0,1.77.2,3.3.6,4.58s.98,2.28,1.74,2.98c.76.7,1.68,1.05,2.75,1.05Z"/><path class="ad" d="M103.58,1222.14v-21.14h2.56l13.87,19.91-3.34-3.22h1.17v-16.68h2.61v21.14h-2.56l-13.87-19.91,3.34,3.22h-1.17v16.68h-2.61Z"/><path class="ad" d="M129.88,1222.43c-1.41,0-2.64-.32-3.7-.97s-1.88-1.56-2.48-2.75c-.59-1.19-.89-2.58-.89-4.2v-.03c0-1.62.3-3.02.89-4.2.59-1.18,1.42-2.09,2.48-2.72,1.06-.64,2.29-.96,3.68-.96s2.64.32,3.7.96c1.06.64,1.88,1.55,2.48,2.72.59,1.18.89,2.58.89,4.2v.03c0,1.62-.3,3.02-.89,4.2s-1.41,2.09-2.47,2.74-2.29.97-3.69.97ZM129.89,1220.17c.9,0,1.68-.22,2.34-.67.66-.44,1.17-1.09,1.54-1.93.37-.84.55-1.86.55-3.05v-.03c0-1.19-.18-2.21-.55-3.05s-.88-1.48-1.55-1.92-1.45-.66-2.35-.66-1.65.22-2.32.67c-.67.44-1.19,1.08-1.56,1.92-.37.84-.56,1.85-.56,3.04v.03c0,1.19.19,2.21.56,3.05.37.85.89,1.49,1.56,1.93.67.45,1.45.67,2.35.67Z"/><path class="ad" d="M144.61,1222.43c-1.3,0-2.43-.33-3.41-.97-.97-.65-1.73-1.57-2.26-2.75-.54-1.19-.8-2.58-.8-4.18h0c0-1.62.27-3.01.81-4.19s1.3-2.1,2.26-2.75c.97-.65,2.08-.97,3.35-.97.72,0,1.39.11,2.01.34.62.23,1.17.56,1.66.98.49.43.89.93,1.2,1.52h.06v-8.45h2.55v21.14h-2.55v-2.58h-.06c-.31.6-.71,1.11-1.19,1.53-.48.43-1.02.75-1.63.99s-1.28.35-2.01.35ZM145.11,1220.17c.86,0,1.62-.23,2.29-.7s1.18-1.13,1.56-1.98.56-1.84.56-2.97h0c0-1.15-.19-2.14-.57-2.98-.38-.84-.9-1.5-1.56-1.97s-1.42-.7-2.28-.7-1.68.23-2.33.69-1.16,1.11-1.51,1.95-.53,1.84-.53,3h0c0,1.18.18,2.18.53,3.03s.85,1.5,1.51,1.96c.65.45,1.43.68,2.33.68Z"/><path class="ad" d="M161.17,1222.43c-1.46,0-2.71-.32-3.76-.97-1.05-.64-1.86-1.56-2.42-2.73-.56-1.18-.84-2.56-.84-4.15h0c0-1.59.28-2.97.85-4.17.57-1.2,1.36-2.13,2.39-2.8,1.03-.67,2.23-1,3.62-1s2.58.32,3.58.96c1,.64,1.77,1.54,2.31,2.69s.81,2.49.81,4.01v.94h-12.28v-1.99h11.02l-1.29,1.85v-.98c0-1.18-.18-2.16-.54-2.93-.36-.77-.85-1.34-1.47-1.72-.62-.38-1.34-.56-2.15-.56s-1.54.2-2.18.59c-.64.4-1.15.98-1.52,1.76-.37.78-.56,1.73-.56,2.86v.98c0,1.07.18,1.99.55,2.75.37.76.89,1.35,1.56,1.75.67.41,1.47.61,2.39.61.64,0,1.22-.1,1.73-.29s.93-.46,1.27-.81.59-.73.73-1.17l.04-.13h2.5l-.03.15c-.13.62-.37,1.21-.73,1.76-.36.55-.81,1.03-1.37,1.44-.56.42-1.19.74-1.9.97-.71.23-1.48.34-2.31.34Z"/><path class="ad" d="M175.07,1222.43c-1.19,0-2.22-.19-3.09-.57s-1.55-.91-2.06-1.6-.81-1.48-.92-2.39l-.02-.13h2.55l.03.15c.16.76.52,1.35,1.1,1.78.58.42,1.38.64,2.42.64.69,0,1.29-.09,1.77-.27.49-.18.86-.44,1.13-.78.26-.34.4-.74.4-1.19h0c0-.56-.17-1-.5-1.33s-.93-.61-1.8-.82l-2.42-.59c-.96-.23-1.75-.54-2.38-.92-.63-.38-1.1-.84-1.41-1.38s-.47-1.19-.47-1.92h0c0-.89.24-1.67.71-2.34s1.13-1.2,1.98-1.58,1.81-.57,2.91-.57,2.08.2,2.91.59c.83.4,1.47.93,1.95,1.61.47.68.74,1.44.8,2.29l.02.19h-2.43l-.02-.1c-.1-.74-.42-1.34-.97-1.79s-1.3-.67-2.25-.67c-.62,0-1.15.09-1.6.28s-.79.45-1.03.78c-.24.34-.36.73-.36,1.18h0c0,.36.08.67.24.94.16.28.42.52.77.73s.8.38,1.36.51l2.42.59c1.54.37,2.63.88,3.25,1.53.62.65.94,1.52.94,2.6h0c0,.9-.26,1.69-.77,2.37s-1.22,1.22-2.11,1.6c-.89.39-1.91.58-3.04.58Z"/><path class="ad" d="M69.07,1258.14v-18.34h-.06l-5.6,3.9v-2.65l5.62-4.04h2.58v21.14h-2.55Z"/><path class="ad" d="M77.24,1250.75v-2.37h14.87v2.37h-14.87ZM83.48,1256.82v-14.5h2.37v14.5h-2.37Z"/><path class="ad" d="M103.21,1236.65c.98,0,1.94.18,2.88.55.95.37,1.81.96,2.59,1.78s1.4,1.9,1.86,3.25c.46,1.34.7,3,.7,4.96v.03c0,2.37-.33,4.4-.97,6.09-.65,1.68-1.58,2.97-2.8,3.86s-2.7,1.33-4.42,1.33c-1.19,0-2.27-.21-3.24-.64s-1.77-1.03-2.42-1.79c-.64-.77-1.08-1.66-1.32-2.69l-.04-.19h2.68l.06.16c.21.58.52,1.08.92,1.5.4.43.88.75,1.45.98.57.23,1.22.34,1.94.34,1.32,0,2.38-.38,3.19-1.14s1.4-1.77,1.79-3.03c.39-1.25.6-2.62.64-4.09,0-.1.02-.19.02-.29v-.29l-.63-3.47c0-.91-.21-1.73-.64-2.46s-1-1.32-1.73-1.75c-.73-.44-1.54-.65-2.45-.65s-1.71.21-2.45.64c-.73.43-1.31,1-1.74,1.72s-.64,1.53-.64,2.42v.03c0,.92.21,1.73.62,2.45s.98,1.27,1.7,1.68c.72.41,1.55.61,2.47.61s1.76-.2,2.49-.6,1.31-.95,1.74-1.66.64-1.5.64-2.4h0s.88-.01.88-.01v3.59h-.31c-.28.62-.7,1.19-1.26,1.71-.56.51-1.23.92-2.01,1.23-.79.31-1.66.46-2.61.46-1.34,0-2.54-.3-3.6-.91s-1.89-1.44-2.5-2.49-.92-2.25-.92-3.59v-.03c0-1.39.33-2.62.97-3.7.65-1.08,1.54-1.93,2.66-2.55,1.12-.62,2.41-.93,3.85-.93Z"/><path class="ad" d="M114.54,1250.75v-2.37h14.87v2.37h-14.87ZM120.78,1256.82v-14.5h2.37v14.5h-2.37Z"/><path class="ad" d="M140.52,1236.65c.98,0,1.94.18,2.88.55.95.37,1.81.96,2.59,1.78s1.4,1.9,1.86,3.25c.46,1.34.7,3,.7,4.96v.03c0,2.37-.33,4.4-.97,6.09-.65,1.68-1.58,2.97-2.8,3.86s-2.7,1.33-4.42,1.33c-1.19,0-2.27-.21-3.24-.64s-1.77-1.03-2.42-1.79c-.64-.77-1.08-1.66-1.32-2.69l-.04-.19h2.68l.06.16c.21.58.52,1.08.92,1.5.4.43.88.75,1.45.98.57.23,1.22.34,1.94.34,1.32,0,2.38-.38,3.19-1.14s1.4-1.77,1.79-3.03c.39-1.25.6-2.62.64-4.09,0-.1.02-.19.02-.29v-.29l-.63-3.47c0-.91-.21-1.73-.64-2.46s-1-1.32-1.73-1.75c-.73-.44-1.54-.65-2.45-.65s-1.71.21-2.45.64c-.73.43-1.31,1-1.74,1.72s-.64,1.53-.64,2.42v.03c0,.92.21,1.73.62,2.45s.98,1.27,1.7,1.68c.72.41,1.55.61,2.47.61s1.76-.2,2.49-.6,1.31-.95,1.74-1.66.64-1.5.64-2.4h0s.88-.01.88-.01v3.59h-.31c-.28.62-.7,1.19-1.26,1.71-.56.51-1.23.92-2.01,1.23-.79.31-1.66.46-2.61.46-1.34,0-2.54-.3-3.6-.91s-1.89-1.44-2.5-2.49-.92-2.25-.92-3.59v-.03c0-1.39.33-2.62.97-3.7.65-1.08,1.54-1.93,2.66-2.55,1.12-.62,2.41-.93,3.85-.93Z"/><path class="ad" d="M151.85,1250.75v-2.37h14.87v2.37h-14.87ZM158.09,1256.82v-14.5h2.37v14.5h-2.37Z"/><path class="ad" d="M175.77,1258.14v-18.34h-.06l-5.6,3.9v-2.65l5.62-4.04h2.58v21.14h-2.55Z"/><path class="ao" d="M64.78,1136h8.18l9.61,24.3h.14l9.61-24.3h8.18v33.82h-6.3v-22.88h-.21l-9.12,22.88h-4.45l-9.14-22.88h-.19v22.88h-6.3v-33.82Z"/><path class="ao" d="M114.69,1141.84h-9.77v-5.84h26.65v5.84h-9.8v27.98h-7.08v-27.98Z"/><path class="ao" d="M135.96,1136h13.59c7.12,0,11.88,4.59,11.88,11.55v.05c0,6.96-4.76,11.55-11.88,11.55h-6.52v10.66h-7.08v-33.82ZM143.04,1141.6v12.02h4.78c4.05,0,6.45-2.16,6.45-6v-.05c0-3.84-2.39-5.98-6.45-5.98h-4.78Z"/><rect class="ac" width="1080" height="1080"/><rect class="ac" x="2.21" y="1.96" width="1075.57" height="1075.57"/><rect class="ab" x="181.48" y="181.73" width="717.05" height="716.53"/><rect class="ah" x="360.74" y="360.48" width="358.52" height="358.52"/><rect class="z" x="540" y="360.48" width="59.75" height="59.75"/><rect class="z" x="659.51" y="479.99" width="59.75" height="59.75"/><rect class="z" x="659.51" y="599.5" width="59.75" height="59.75"/><rect class="z" x="659.51" y="360.48" width="59.75" height="59.75"/><rect class="z" x="599.75" y="659.25" width="59.75" height="59.75"/><rect class="z" x="480.25" y="659.25" width="59.75" height="59.75"/><rect class="z" x="420.49" y="360.48" width="59.75" height="59.75"/><rect class="z" x="360.74" y="659.25" width="59.75" height="59.75"/><rect class="z" x="360.74" y="539.74" width="59.75" height="59.75"/><rect class="z" x="360.74" y="420.23" width="59.75" height="59.75"/><rect class="v" x="420.49" y="420.23" width="239.02" height="239.02"/><rect class="aq" x="599.75" y="420.23" width="59.75" height="59.75"/><rect class="aq" x="480.25" y="420.23" width="59.75" height="59.75"/><rect class="aq" x="540" y="479.99" width="59.75" height="59.75"/><rect class="aq" x="420.49" y="479.99" width="59.75" height="59.75"/><rect class="aq" x="599.75" y="539.74" width="59.75" height="59.75"/><rect class="aq" x="480.25" y="539.74" width="59.75" height="59.75"/><rect class="aq" x="540" y="599.5" width="59.75" height="59.75"/><rect class="aq" x="420.49" y="599.5" width="59.75" height="59.75"/><line class="c" x1="719.26" y1="479.99" x2="898.52" y2="479.99"/><line class="c" x1="719.26" y1="539.74" x2="898.52" y2="539.74"/><line class="c" x1="719.26" y1="599.5" x2="898.52" y2="599.5"/><line class="c" x1="719.26" y1="420.23" x2="898.52" y2="420.23"/><line class="c" x1="719.26" y1="659.25" x2="898.52" y2="659.25"/><line class="h" x1="958.28" y1="1077.53" x2="958.28" y2="719"/><line class="h" x1="1018.03" y1="1077.53" x2="1018.03" y2="719"/><line class="h" x1="1077.79" y1="1017.78" x2="719.26" y2="1017.78"/><line class="h" x1="1077.79" y1="958.02" x2="719.26" y2="958.02"/><line class="j" x1="898.52" y1="479.99" x2="1077.79" y2="479.99"/><line class="j" x1="898.52" y1="539.74" x2="1077.79" y2="539.74"/><line class="j" x1="898.52" y1="599.5" x2="1077.79" y2="599.5"/><line class="j" x1="898.52" y1="420.23" x2="1077.79" y2="420.23"/><line class="j" x1="898.52" y1="659.25" x2="1077.79" y2="659.25"/><line class="h" x1="898.52" y1="838.51" x2="1077.79" y2="838.51"/><line class="h" x1="898.52" y1="898.27" x2="1077.79" y2="898.27"/><line class="h" x1="898.52" y1="778.76" x2="1077.79" y2="778.76"/><line class="c" x1="898.52" y1="719" x2="898.52" y2="360.48"/><line class="j" x1="958.28" y1="719" x2="958.28" y2="360.48"/><line class="j" x1="1018.03" y1="719" x2="1018.03" y2="360.48"/><line class="c" x1="838.77" y1="719" x2="838.77" y2="360.48"/><line class="c" x1="779.02" y1="719" x2="779.02" y2="360.48"/><line class="g" x1="360.74" y1="599.5" x2="181.48" y2="599.5"/><line class="g" x1="360.74" y1="539.74" x2="181.48" y2="539.74"/><line class="g" x1="360.74" y1="479.99" x2="181.48" y2="479.99"/><line class="g" x1="360.74" y1="659.25" x2="181.48" y2="659.25"/><line class="g" x1="360.74" y1="420.23" x2="181.48" y2="420.23"/><line class="u" x1="181.48" y1="599.5" x2="2.21" y2="599.5"/><line class="u" x1="181.48" y1="539.74" x2="2.21" y2="539.74"/><line class="u" x1="181.48" y1="479.99" x2="2.21" y2="479.99"/><line class="u" x1="181.48" y1="659.25" x2="2.21" y2="659.25"/><line class="u" x1="181.48" y1="420.23" x2="2.21" y2="420.23"/><line class="g" x1="181.48" y1="360.48" x2="181.48" y2="719"/><line class="u" x1="121.72" y1="360.48" x2="121.72" y2="719"/><line class="u" x1="61.97" y1="360.48" x2="61.97" y2="719"/><line class="g" x1="241.23" y1="360.48" x2="241.23" y2="719"/><line class="g" x1="300.98" y1="360.48" x2="300.98" y2="719"/><line class="f" x1="480.25" y1="360.48" x2="480.25" y2="181.22"/><line class="f" x1="540" y1="360.48" x2="540" y2="181.22"/><line class="f" x1="599.75" y1="360.48" x2="599.75" y2="181.22"/><line class="f" x1="420.49" y1="360.48" x2="420.49" y2="181.22"/><line class="f" x1="659.51" y1="360.48" x2="659.51" y2="181.22"/><line class="p" x1="480.25" y1="181.22" x2="480.25" y2="1.96"/><line class="p" x1="540" y1="181.22" x2="540" y2="1.96"/><line class="p" x1="599.75" y1="181.22" x2="599.75" y2="1.96"/><line class="p" x1="420.49" y1="181.22" x2="420.49" y2="1.96"/><line class="p" x1="659.51" y1="181.22" x2="659.51" y2="1.96"/><line class="f" x1="719.26" y1="181.22" x2="360.74" y2="181.22"/><line class="p" x1="719.26" y1="121.46" x2="360.74" y2="121.46"/><line class="p" x1="719.26" y1="61.71" x2="360.74" y2="61.71"/><line class="f" x1="719.26" y1="240.97" x2="360.74" y2="240.97"/><line class="f" x1="719.26" y1="300.73" x2="360.74" y2="300.73"/><line class="k" x1="599.75" y1="719" x2="599.75" y2="898.27"/><line class="k" x1="540" y1="719" x2="540" y2="898.27"/><line class="k" x1="480.25" y1="719" x2="480.25" y2="898.27"/><line class="k" x1="659.51" y1="719" x2="659.51" y2="898.27"/><line class="k" x1="420.49" y1="719" x2="420.49" y2="898.27"/><line class="n" x1="599.75" y1="898.27" x2="599.75" y2="1077.53"/><line class="n" x1="540" y1="898.27" x2="540" y2="1077.53"/><line class="n" x1="480.25" y1="898.27" x2="480.25" y2="1077.53"/><line class="n" x1="659.51" y1="898.27" x2="659.51" y2="1077.53"/><line class="h" x1="779.02" y1="898.78" x2="779.02" y2="1078.04"/><line class="h" x1="838.77" y1="898.78" x2="838.77" y2="1078.04"/><line class="h" x1="898.52" y1="898.78" x2="898.52" y2="1078.04"/><line class="n" x1="420.49" y1="898.27" x2="420.49" y2="1077.53"/><line class="k" x1="360.74" y1="898.27" x2="719.26" y2="898.27"/><line class="n" x1="360.74" y1="958.02" x2="719.26" y2="958.02"/><line class="n" x1="360.74" y1="1017.78" x2="719.26" y2="1017.78"/><line class="k" x1="360.74" y1="838.51" x2="719.26" y2="838.51"/><line class="k" x1="360.74" y1="778.76" x2="719.26" y2="778.76"/><line class="l" x1="719.26" y1="838.51" x2="898.52" y2="838.51"/><line class="l" x1="719.26" y1="778.76" x2="898.52" y2="778.76"/><line class="l" x1="838.77" y1="898.27" x2="838.77" y2="719"/><line class="l" x1="779.02" y1="898.27" x2="779.02" y2="719"/><polyline class="l" points="719.26 898.27 898.52 898.27 898.52 719"/><line class="s" x1="121.72" y1="2.47" x2="121.72" y2="361"/><line class="s" x1="61.97" y1="2.47" x2="61.97" y2="361"/><line class="s" x1="2.21" y1="62.22" x2="360.74" y2="62.22"/><line class="s" x1="2.21" y1="121.98" x2="360.74" y2="121.98"/><line class="s" x1="181.48" y1="241.49" x2="2.21" y2="241.49"/><line class="s" x1="181.48" y1="181.73" x2="2.21" y2="181.73"/><line class="s" x1="181.48" y1="301.24" x2="2.21" y2="301.24"/><line class="s" x1="300.98" y1="181.22" x2="300.98" y2="1.96"/><line class="s" x1="241.23" y1="181.22" x2="241.23" y2="1.96"/><line class="s" x1="181.48" y1="181.22" x2="181.48" y2="1.96"/><line class="q" x1="360.74" y1="241.49" x2="181.48" y2="241.49"/><line class="q" x1="360.74" y1="301.24" x2="181.48" y2="301.24"/><line class="q" x1="241.23" y1="181.73" x2="241.23" y2="361"/><line class="q" x1="300.98" y1="181.73" x2="300.98" y2="361"/><polyline class="q" points="360.74 181.73 181.48 181.73 181.48 361"/><line class="r" x1="121.72" y1="1077.53" x2="121.72" y2="719"/><line class="r" x1="61.97" y1="1077.53" x2="61.97" y2="719"/><line class="r" x1="2.21" y1="1017.78" x2="360.74" y2="1017.78"/><line class="r" x1="2.21" y1="958.02" x2="360.74" y2="958.02"/><line class="r" x1="181.48" y1="838.51" x2="2.21" y2="838.51"/><line class="r" x1="181.48" y1="898.27" x2="2.21" y2="898.27"/><line class="r" x1="181.48" y1="778.76" x2="2.21" y2="778.76"/><line class="r" x1="300.98" y1="898.78" x2="300.98" y2="1078.04"/><line class="r" x1="241.23" y1="898.78" x2="241.23" y2="1078.04"/><line class="r" x1="181.48" y1="898.78" x2="181.48" y2="1078.04"/><line class="t" x1="360.74" y1="838.51" x2="181.48" y2="838.51"/><line class="t" x1="360.74" y1="778.76" x2="181.48" y2="778.76"/><line class="t" x1="241.23" y1="898.27" x2="241.23" y2="719"/><line class="t" x1="300.98" y1="898.27" x2="300.98" y2="719"/><polyline class="t" points="360.74 898.27 181.48 898.27 181.48 719"/><line class="e" x1="958.28" y1="2.47" x2="958.28" y2="361"/><line class="e" x1="1018.03" y1="2.47" x2="1018.03" y2="361"/><line class="e" x1="1077.79" y1="62.22" x2="719.26" y2="62.22"/><line class="e" x1="1077.79" y1="121.98" x2="719.26" y2="121.98"/><line class="e" x1="898.52" y1="241.49" x2="1077.79" y2="241.49"/><line class="e" x1="898.52" y1="181.73" x2="1077.79" y2="181.73"/><line class="e" x1="898.52" y1="301.24" x2="1077.79" y2="301.24"/><line class="e" x1="779.02" y1="181.22" x2="779.02" y2="1.96"/><line class="e" x1="838.77" y1="181.22" x2="838.77" y2="1.96"/><line class="e" x1="898.52" y1="181.22" x2="898.52" y2="1.96"/><line class="m" x1="719.26" y1="241.49" x2="898.52" y2="241.49"/><line class="m" x1="719.26" y1="301.24" x2="898.52" y2="301.24"/><line class="m" x1="838.77" y1="181.73" x2="838.77" y2="361"/><line class="m" x1="779.02" y1="181.73" x2="779.02" y2="361"/><polyline class="m" points="719.26 181.73 898.52 181.73 898.52 361"/><rect class="i" x="2.21" y="1.96" width="1075.57" height="1075.57"/><line class="i" x1="2.21" y1="360.48" x2="1077.79" y2="360.48"/><line class="i" x1="2.21" y1="719" x2="1077.79" y2="719"/><line class="i" x1="360.74" y1="1077.53" x2="360.74" y2="1.96"/><line class="i" x1="719.26" y1="1077.53" x2="719.26" y2="1.96"/><path class="x" d="M274.01,1156.94c-2.23,0-4.16-.47-5.79-1.41-1.63-.94-2.89-2.29-3.77-4.03-.89-1.74-1.33-3.81-1.33-6.21v-.03c0-2.4.45-4.46,1.34-6.2.89-1.74,2.15-3.08,3.78-4.02,1.63-.94,3.55-1.41,5.77-1.41s4.16.47,5.78,1.42c1.62.95,2.88,2.29,3.77,4.02s1.33,3.8,1.33,6.2v.03c0,2.4-.44,4.46-1.33,6.2-.89,1.74-2.14,3.08-3.76,4.03-1.62.95-3.55,1.42-5.79,1.42ZM274.01,1152.94c1.25,0,2.33-.31,3.23-.95.9-.63,1.6-1.52,2.09-2.66.49-1.15.73-2.49.73-4.05v-.03c0-1.56-.25-2.92-.74-4.06-.5-1.15-1.2-2.03-2.1-2.65-.91-.62-1.97-.93-3.2-.93s-2.3.31-3.21.93c-.91.62-1.61,1.5-2.11,2.64s-.74,2.5-.74,4.07v.03c0,1.56.25,2.92.74,4.06.5,1.15,1.2,2.03,2.1,2.66s1.98.94,3.22.94Z"/><path class="x" d="M287.53,1162.02v-22.22h4.56v2.92h.11c.3-.68.7-1.26,1.2-1.75.5-.49,1.07-.86,1.73-1.12.66-.26,1.39-.39,2.18-.39,1.42,0,2.64.35,3.66,1.04,1.02.69,1.81,1.69,2.36,2.99.55,1.3.83,2.86.83,4.67v.02c0,1.81-.27,3.37-.82,4.67-.55,1.3-1.33,2.3-2.34,3-1.01.7-2.22,1.05-3.62,1.05-.79,0-1.53-.13-2.2-.39s-1.27-.63-1.77-1.1c-.5-.47-.91-1.04-1.22-1.71h-.09v8.33h-4.56ZM295.81,1153.11c.76,0,1.42-.2,1.97-.6.55-.4.98-.97,1.27-1.71.3-.74.45-1.61.45-2.62v-.02c0-1.02-.15-1.9-.45-2.63s-.73-1.3-1.28-1.7c-.55-.4-1.2-.59-1.95-.59s-1.39.2-1.95.6c-.56.4-1,.97-1.31,1.71-.31.74-.47,1.62-.47,2.62v.02c0,1,.16,1.87.48,2.61.32.74.75,1.31,1.31,1.71.56.4,1.21.6,1.95.6Z"/><path class="x" d="M314.14,1156.89c-1.71,0-3.18-.35-4.41-1.05s-2.18-1.71-2.84-3.01c-.67-1.3-1-2.84-1-4.62v-.02c0-1.78.33-3.33,1-4.63.67-1.31,1.6-2.32,2.8-3.03,1.2-.71,2.62-1.07,4.26-1.07s3.05.35,4.24,1.04c1.19.69,2.11,1.67,2.77,2.93.65,1.26.98,2.73.98,4.42v1.42h-13.8v-2.89h11.64l-2.17,2.7v-1.77c0-.98-.15-1.8-.45-2.46-.3-.66-.72-1.16-1.26-1.49-.54-.33-1.16-.5-1.87-.5s-1.34.17-1.88.52-.97.85-1.28,1.51c-.31.66-.46,1.47-.46,2.43v1.78c0,.92.15,1.7.46,2.36s.75,1.16,1.32,1.51c.57.35,1.25.52,2.05.52.62,0,1.17-.1,1.62-.3.46-.2.83-.45,1.12-.75.29-.3.49-.61.59-.92l.03-.09h4.19l-.05.17c-.12.62-.37,1.23-.73,1.86s-.86,1.2-1.48,1.72c-.62.52-1.38.94-2.27,1.25s-1.93.47-3.13.47Z"/><path class="x" d="M324.28,1156.55v-16.75h4.56v2.75h.09c.44-.96,1.08-1.71,1.94-2.27.85-.55,1.91-.83,3.17-.83,1.84,0,3.27.55,4.27,1.66s1.51,2.65,1.51,4.62v10.81h-4.56v-9.86c0-1.09-.26-1.94-.77-2.55-.52-.6-1.28-.91-2.3-.91-.68,0-1.27.16-1.77.47s-.89.75-1.16,1.3c-.28.55-.41,1.19-.41,1.92v9.62h-4.56Z"/><path class="ae" d="M275.45,1196.94c-1.69,0-3.2-.27-4.54-.8s-2.48-1.3-3.42-2.31c-.94-1.01-1.66-2.24-2.16-3.7s-.75-3.1-.75-4.93v-.02c0-2.42.44-4.49,1.31-6.21.88-1.72,2.12-3.05,3.73-3.98,1.61-.93,3.52-1.39,5.72-1.39,1.81,0,3.41.32,4.8.97,1.39.65,2.51,1.52,3.38,2.63s1.43,2.37,1.68,3.79l.05.23h-4.75l-.05-.17c-.38-1.08-1-1.93-1.88-2.54s-1.95-.91-3.22-.91-2.3.3-3.2.89-1.57,1.45-2.05,2.58-.71,2.48-.71,4.08v.02c0,1.21.14,2.29.42,3.26.28.96.69,1.78,1.23,2.45.54.67,1.18,1.18,1.94,1.53.75.35,1.6.53,2.54.53,1.02,0,1.92-.19,2.7-.57.78-.38,1.4-.92,1.86-1.61.46-.69.7-1.5.73-2.43l.02-.31h-5.14v-3.53h9.75v2.59c0,1.53-.23,2.91-.68,4.12s-1.11,2.26-1.97,3.11c-.86.85-1.91,1.51-3.15,1.95s-2.64.67-4.2.67Z"/><path class="ae" d="M288.17,1196.55v-16.75h4.56v2.92h.09c.25-1.03.7-1.83,1.36-2.41.66-.57,1.47-.86,2.45-.86.25,0,.49.02.72.05s.43.07.59.12v4.03c-.19-.08-.43-.15-.72-.2s-.6-.07-.94-.07c-.75,0-1.39.15-1.92.44-.53.29-.94.72-1.22,1.28s-.42,1.25-.42,2.06v9.38h-4.56Z"/><path class="ae" d="M306.95,1196.89c-1.7,0-3.17-.35-4.41-1.04-1.24-.69-2.2-1.69-2.88-3-.68-1.31-1.02-2.87-1.02-4.68v-.03c0-1.8.35-3.35,1.04-4.65s1.66-2.29,2.9-2.99c1.24-.7,2.69-1.05,4.36-1.05s3.14.35,4.38,1.04c1.25.69,2.21,1.69,2.9,2.98s1.03,2.85,1.03,4.66v.03c0,1.82-.34,3.39-1.02,4.69-.68,1.3-1.64,2.3-2.88,2.99-1.24.69-2.7,1.04-4.39,1.04ZM306.96,1193.31c.74,0,1.38-.2,1.92-.6.54-.4.96-.98,1.26-1.75s.45-1.7.45-2.79v-.03c0-1.07-.15-1.99-.45-2.76s-.73-1.35-1.27-1.75c-.55-.4-1.19-.6-1.93-.6s-1.37.2-1.91.61-.97.99-1.27,1.75c-.3.76-.45,1.68-.45,2.75v.03c0,1.09.15,2.02.45,2.79s.72,1.35,1.27,1.75c.55.4,1.2.6,1.95.6Z"/><path class="ae" d="M320.7,1196.55l-4.47-16.75h4.61l2.53,12.42h.09l2.97-12.42h4.38l2.98,12.42h.09l2.55-12.42h4.5l-4.44,16.75h-4.86l-3.03-11.84h-.09l-3.02,11.84h-4.8Z"/><path class="aa" d="M265.78,1236.55v-22.55h14.94v3.89h-10.22v5.41h9.64v3.7h-9.64v5.66h10.22v3.89h-14.94Z"/><path class="aa" d="M283.73,1236.55v-16.75h4.56v2.75h.09c.44-.96,1.08-1.71,1.94-2.27.85-.55,1.91-.83,3.17-.83,1.84,0,3.27.55,4.27,1.66s1.51,2.65,1.51,4.62v10.81h-4.56v-9.86c0-1.09-.26-1.94-.77-2.55-.52-.6-1.28-.91-2.3-.91-.68,0-1.27.16-1.77.47s-.89.75-1.16,1.3c-.28.55-.41,1.19-.41,1.92v9.62h-4.56Z"/><path class="aa" d="M308.82,1236.89c-1.85,0-3.23-.39-4.12-1.17s-1.34-2.07-1.34-3.86v-8.62h-2.33v-3.44h2.33v-4.09h4.61v4.09h3.06v3.44h-3.06v8.12c0,.78.17,1.33.52,1.63.35.31.87.46,1.55.46.21,0,.39,0,.55-.02s.3-.03.44-.05v3.34c-.25.04-.56.08-.93.12-.37.04-.79.05-1.27.05Z"/><path class="aa" d="M320.93,1236.89c-1.71,0-3.18-.35-4.41-1.05s-2.18-1.71-2.84-3.01c-.67-1.3-1-2.84-1-4.62v-.02c0-1.78.33-3.33,1-4.63.67-1.31,1.6-2.32,2.8-3.03,1.2-.71,2.62-1.07,4.26-1.07s3.05.35,4.24,1.04c1.19.69,2.11,1.67,2.77,2.93.65,1.26.98,2.73.98,4.42v1.42h-13.8v-2.89h11.64l-2.17,2.7v-1.77c0-.98-.15-1.8-.45-2.46-.3-.66-.72-1.16-1.26-1.49-.54-.33-1.16-.5-1.87-.5s-1.34.17-1.88.52-.97.85-1.28,1.51c-.31.66-.46,1.47-.46,2.43v1.78c0,.92.15,1.7.46,2.36s.75,1.16,1.32,1.51c.57.35,1.25.52,2.05.52.62,0,1.17-.1,1.62-.3.46-.2.83-.45,1.12-.75.29-.3.49-.61.59-.92l.03-.09h4.19l-.05.17c-.12.62-.37,1.23-.73,1.86s-.86,1.2-1.48,1.72c-.62.52-1.38.94-2.27,1.25s-1.93.47-3.13.47Z"/><path class="aa" d="M331.07,1236.55v-16.75h4.56v2.92h.09c.25-1.03.7-1.83,1.36-2.41.66-.57,1.47-.86,2.45-.86.25,0,.49.02.72.05s.43.07.59.12v4.03c-.19-.08-.43-.15-.72-.2s-.6-.07-.94-.07c-.75,0-1.39.15-1.92.44-.53.29-.94.72-1.22,1.28s-.42,1.25-.42,2.06v9.38h-4.56Z"/><path class="aq" d="M278.76,1276.94c-1.78,0-3.34-.26-4.66-.79s-2.38-1.28-3.14-2.27-1.19-2.17-1.27-3.55l-.02-.25h4.45l.03.17c.1.58.37,1.09.79,1.51s.97.75,1.65.98,1.44.35,2.3.35,1.63-.12,2.26-.35,1.12-.57,1.46-1c.34-.43.52-.93.52-1.51v-.02c0-.76-.3-1.36-.9-1.79-.6-.43-1.6-.79-2.99-1.07l-2.38-.48c-2.22-.44-3.89-1.19-5.02-2.26-1.13-1.07-1.7-2.45-1.7-4.15v-.02c.01-1.38.39-2.57,1.12-3.59.74-1.02,1.75-1.82,3.05-2.39,1.29-.57,2.77-.86,4.44-.86s3.24.27,4.51.82,2.25,1.31,2.96,2.3,1.1,2.14,1.17,3.46l.02.28h-4.45l-.03-.19c-.07-.59-.29-1.1-.66-1.52-.37-.42-.85-.74-1.45-.97-.59-.23-1.28-.34-2.06-.34s-1.5.12-2.08.34c-.58.23-1.03.55-1.34.96-.31.41-.46.88-.46,1.41v.02c0,.72.3,1.29.91,1.73.6.43,1.55.78,2.84,1.04l2.39.48c1.57.31,2.86.75,3.88,1.3,1.01.55,1.76,1.25,2.24,2.09.48.84.73,1.85.73,3.02v.02c0,1.45-.36,2.7-1.09,3.76-.72,1.06-1.77,1.88-3.12,2.45s-2.99.87-4.88.87Z"/><path class="aq" d="M297,1276.89c-1.85,0-3.23-.39-4.12-1.17s-1.34-2.07-1.34-3.86v-8.62h-2.33v-3.44h2.33v-4.09h4.61v4.09h3.06v3.44h-3.06v8.12c0,.78.17,1.33.52,1.63.35.31.87.46,1.55.46.21,0,.39,0,.55-.02s.3-.03.44-.05v3.34c-.25.04-.56.08-.93.12-.37.04-.79.05-1.27.05Z"/><path class="aq" d="M306.54,1276.81c-1.11,0-2.1-.22-2.95-.65s-1.51-1.03-1.98-1.8-.71-1.64-.71-2.62v-.03c0-1.02.25-1.89.77-2.62.51-.72,1.25-1.29,2.23-1.71.97-.42,2.15-.67,3.54-.77l6.53-.41v2.84l-5.84.39c-.88.05-1.54.26-2,.61-.46.35-.69.83-.69,1.42v.03c0,.62.23,1.1.7,1.45.47.35,1.1.52,1.89.52.68,0,1.28-.13,1.82-.4s.96-.63,1.27-1.09c.31-.46.46-.98.46-1.55v-5.09c0-.74-.23-1.32-.7-1.75-.47-.43-1.15-.64-2.05-.64s-1.53.17-2.03.52c-.5.35-.81.79-.92,1.34l-.03.14h-4.19l.02-.19c.09-1.03.44-1.95,1.04-2.75.6-.8,1.43-1.43,2.5-1.88s2.34-.68,3.8-.68,2.7.23,3.77.7c1.06.46,1.89,1.12,2.48,1.96s.88,1.83.88,2.95v11.48h-4.56v-2.48h-.09c-.32.56-.73,1.05-1.22,1.47-.49.42-1.05.73-1.68.95s-1.31.33-2.04.33Z"/><path class="aq" d="M319.07,1276.55v-16.75h4.56v2.92h.09c.25-1.03.7-1.83,1.36-2.41.66-.57,1.47-.86,2.45-.86.25,0,.49.02.72.05s.43.07.59.12v4.03c-.19-.08-.43-.15-.72-.2s-.6-.07-.94-.07c-.75,0-1.39.15-1.92.44-.53.29-.94.72-1.22,1.28s-.42,1.25-.42,2.06v9.38h-4.56Z"/><path class="aq" d="M338,1276.89c-1.85,0-3.23-.39-4.12-1.17s-1.34-2.07-1.34-3.86v-8.62h-2.33v-3.44h2.33v-4.09h4.61v4.09h3.06v3.44h-3.06v8.12c0,.78.17,1.33.52,1.63.35.31.87.46,1.55.46.21,0,.39,0,.55-.02s.3-.03.44-.05v3.34c-.25.04-.56.08-.93.12-.37.04-.79.05-1.27.05Z"/><path class="ag" d="M391.34,1156.94c-1.78,0-3.34-.26-4.66-.79s-2.38-1.28-3.14-2.27-1.19-2.17-1.27-3.55l-.02-.25h4.45l.03.17c.1.58.37,1.09.79,1.51s.97.75,1.65.98c.68.23,1.44.35,2.3.35s1.63-.12,2.26-.35c.63-.23,1.12-.57,1.46-1,.34-.43.52-.93.52-1.51v-.02c0-.76-.3-1.36-.9-1.79-.6-.43-1.6-.79-2.99-1.07l-2.38-.48c-2.22-.44-3.89-1.19-5.02-2.26-1.13-1.07-1.7-2.45-1.7-4.15v-.02c0-1.38.38-2.57,1.12-3.59.74-1.02,1.75-1.82,3.05-2.39,1.29-.57,2.77-.86,4.44-.86s3.24.27,4.51.82,2.25,1.31,2.96,2.3c.71.98,1.1,2.14,1.17,3.46l.02.28h-4.45l-.03-.19c-.07-.59-.29-1.1-.66-1.52-.37-.42-.85-.74-1.45-.97-.59-.23-1.28-.34-2.06-.34s-1.5.12-2.08.34c-.58.23-1.03.55-1.34.96-.31.41-.46.88-.46,1.41v.02c0,.72.3,1.29.91,1.73.6.43,1.55.78,2.84,1.04l2.39.48c1.57.31,2.86.75,3.88,1.3,1.01.55,1.76,1.25,2.24,2.09.48.84.73,1.85.73,3.02v.02c0,1.45-.36,2.7-1.09,3.76-.72,1.06-1.77,1.88-3.12,2.45s-2.99.87-4.88.87Z"/><path class="ag" d="M409.57,1156.89c-1.86,0-3.23-.39-4.12-1.17-.9-.78-1.34-2.07-1.34-3.86v-8.62h-2.33v-3.44h2.33v-4.09h4.61v4.09h3.06v3.44h-3.06v8.12c0,.78.17,1.33.52,1.63.35.31.87.46,1.55.46.21,0,.39,0,.55-.02s.3-.03.44-.05v3.34c-.25.04-.56.08-.93.12-.37.04-.79.05-1.27.05Z"/><path class="ag" d="M416.67,1137.66c-.69,0-1.27-.24-1.74-.71-.47-.47-.71-1.03-.71-1.68s.24-1.22.71-1.68c.47-.46,1.05-.7,1.74-.7s1.27.23,1.73.7c.47.46.7,1.02.7,1.68s-.23,1.21-.7,1.68c-.47.47-1.05.71-1.73.71ZM414.37,1156.55v-16.75h4.58v16.75h-4.58Z"/><path class="ag" d="M422.11,1156.55v-22.55h4.56v22.55h-4.56Z"/><path class="ag" d="M429.86,1156.55v-22.55h4.56v22.55h-4.56Z"/><path class="ap" d="M387.87,1196.55l-5.98-22.55h4.91l3.56,16.16h.09l4.16-16.16h4.14l4.16,16.16h.09l3.56-16.16h4.91l-5.98,22.55h-4.61l-4.14-15.09h-.09l-4.16,15.09h-4.61Z"/><path class="ap" d="M415.98,1177.66c-.69,0-1.27-.24-1.74-.71-.47-.47-.71-1.03-.71-1.68s.24-1.22.71-1.68c.47-.46,1.05-.7,1.74-.7s1.27.23,1.73.7c.47.46.7,1.02.7,1.68s-.23,1.21-.7,1.68c-.47.47-1.05.71-1.73.71ZM413.68,1196.55v-16.75h4.58v16.75h-4.58Z"/><path class="ap" d="M427.96,1196.89c-1.86,0-3.23-.39-4.12-1.17-.9-.78-1.34-2.07-1.34-3.86v-8.62h-2.33v-3.44h2.33v-4.09h4.61v4.09h3.06v3.44h-3.06v8.12c0,.78.17,1.33.52,1.63.35.31.87.46,1.55.46.21,0,.39,0,.55-.02s.3-.03.44-.05v3.34c-.25.04-.56.08-.93.12-.37.04-.79.05-1.27.05Z"/><path class="ap" d="M432.79,1196.55v-22.55h4.56v8.69h.09c.44-1.04,1.09-1.84,1.96-2.4.87-.56,1.93-.84,3.18-.84s2.27.27,3.14.8c.88.54,1.55,1.29,2.02,2.27.47.98.71,2.15.71,3.5v10.52h-4.58v-9.58c0-1.17-.28-2.08-.83-2.74-.55-.66-1.35-.99-2.39-.99-.67,0-1.25.16-1.74.48-.5.32-.88.76-1.16,1.31-.28.56-.41,1.2-.41,1.93v9.59h-4.56Z"/><path class="ap" d="M459.01,1196.89c-1.71,0-3.18-.35-4.41-1.05-1.23-.7-2.18-1.71-2.84-3.01-.67-1.3-1-2.84-1-4.62v-.02c0-1.78.33-3.33,1-4.63.67-1.31,1.6-2.32,2.8-3.03,1.2-.71,2.62-1.07,4.26-1.07s3.05.35,4.24,1.04c1.19.69,2.11,1.67,2.77,2.93.65,1.26.98,2.73.98,4.42v1.42h-13.8v-2.89h11.64l-2.17,2.7v-1.77c0-.98-.15-1.8-.45-2.46-.3-.66-.72-1.16-1.26-1.49-.54-.33-1.16-.5-1.87-.5s-1.34.17-1.88.52-.97.85-1.28,1.51c-.31.66-.46,1.47-.46,2.43v1.78c0,.92.15,1.7.46,2.36.31.66.75,1.16,1.32,1.51.57.35,1.25.52,2.05.52.62,0,1.17-.1,1.62-.3.46-.2.83-.45,1.12-.75.29-.3.49-.61.59-.92l.03-.09h4.19l-.05.17c-.12.62-.37,1.23-.73,1.86-.37.62-.86,1.2-1.48,1.72-.62.52-1.38.94-2.27,1.25s-1.94.47-3.13.47Z"/><path class="ap" d="M469.15,1196.55v-16.75h4.56v2.92h.09c.25-1.03.7-1.83,1.36-2.41.66-.57,1.47-.86,2.45-.86.25,0,.49.02.72.05.23.03.43.07.59.12v4.03c-.19-.08-.43-.15-.72-.2-.29-.05-.61-.07-.94-.07-.75,0-1.39.15-1.92.44-.53.29-.94.72-1.22,1.28s-.42,1.25-.42,2.06v9.38h-4.56Z"/><path class="ar" d="M383.11,1236.55v-22.55h8.61c2.26,0,4.19.43,5.79,1.3,1.6.87,2.82,2.13,3.68,3.79.85,1.66,1.28,3.69,1.28,6.07v.03c0,2.39-.43,4.43-1.27,6.12-.85,1.7-2.08,3-3.68,3.89-1.61.9-3.54,1.34-5.8,1.34h-8.61ZM387.82,1232.64h3.33c1.41,0,2.59-.28,3.55-.84.96-.56,1.7-1.4,2.2-2.5.5-1.1.75-2.47.75-4.09v-.03c0-1.56-.26-2.88-.77-3.97-.51-1.08-1.25-1.9-2.22-2.46-.97-.56-2.14-.84-3.52-.84h-3.33v14.73Z"/><path class="ar" d="M405.12,1236.55v-16.75h4.56v2.92h.09c.25-1.03.7-1.83,1.36-2.41.66-.57,1.47-.86,2.45-.86.25,0,.49.02.72.05.23.03.43.07.59.12v4.03c-.19-.08-.43-.15-.72-.2-.29-.05-.61-.07-.94-.07-.75,0-1.39.15-1.92.44-.53.29-.94.72-1.22,1.28s-.42,1.25-.42,2.06v9.38h-4.56Z"/><path class="ar" d="M419.14,1217.66c-.69,0-1.27-.24-1.74-.71-.47-.47-.71-1.03-.71-1.68s.24-1.22.71-1.68c.47-.46,1.05-.7,1.74-.7s1.27.23,1.73.7c.47.46.7,1.02.7,1.68s-.23,1.21-.7,1.68c-.47.47-1.05.71-1.73.71ZM416.84,1236.55v-16.75h4.58v16.75h-4.58Z"/><path class="ar" d="M425.68,1236.55v-13.31h-2.28v-3.44h2.28v-1.33c0-1.09.18-2,.55-2.71.37-.71.96-1.24,1.77-1.59.81-.34,1.87-.52,3.2-.52.42,0,.84.02,1.27.05.43.04.77.08,1.03.13v3.02c-.16-.02-.34-.04-.55-.05-.21-.02-.42-.02-.62-.02-.75,0-1.3.16-1.66.48-.36.32-.53.77-.53,1.37v1.17h3.33v3.44h-3.22v13.31h-4.56Z"/><path class="ar" d="M442.51,1236.89c-1.86,0-3.23-.39-4.12-1.17-.9-.78-1.34-2.07-1.34-3.86v-8.62h-2.33v-3.44h2.33v-4.09h4.61v4.09h3.06v3.44h-3.06v8.12c0,.78.17,1.33.52,1.63.35.31.87.46,1.55.46.21,0,.39,0,.55-.02s.3-.03.44-.05v3.34c-.25.04-.56.08-.93.12-.37.04-.79.05-1.27.05Z"/><path class="z" d="M383.11,1276.55v-22.55h14.94v3.89h-10.22v5.41h9.64v3.7h-9.64v5.66h10.22v3.89h-14.94Z"/><path class="z" d="M401.06,1276.55v-16.75h4.56v2.75h.09c.44-.96,1.08-1.71,1.94-2.27.85-.55,1.91-.83,3.17-.83,1.84,0,3.27.55,4.27,1.66,1,1.11,1.51,2.65,1.51,4.62v10.81h-4.56v-9.86c0-1.09-.26-1.94-.77-2.55-.52-.6-1.29-.91-2.3-.91-.68,0-1.27.16-1.77.47s-.89.75-1.16,1.3c-.28.55-.41,1.19-.41,1.92v9.62h-4.56Z"/><path class="z" d="M425.7,1276.89c-1.41,0-2.62-.35-3.64-1.05-1.02-.7-1.81-1.7-2.36-3-.55-1.3-.83-2.86-.83-4.67v-.02c0-1.82.28-3.38.83-4.68.55-1.3,1.34-2.29,2.36-2.98,1.02-.69,2.23-1.04,3.62-1.04.8,0,1.54.13,2.2.39.67.26,1.25.63,1.76,1.12.5.48.91,1.07,1.21,1.74h.09v-8.7h4.56v22.55h-4.56v-2.86h-.09c-.3.67-.7,1.24-1.2,1.72-.5.48-1.08.85-1.75,1.1-.67.25-1.4.38-2.2.38ZM427.23,1273.11c.74,0,1.39-.2,1.95-.6.56-.4,1-.97,1.3-1.71.31-.74.46-1.61.46-2.62v-.02c0-1-.16-1.87-.47-2.61-.31-.74-.75-1.31-1.3-1.71-.56-.4-1.21-.6-1.95-.6s-1.42.2-1.97.59c-.55.4-.98.96-1.28,1.7-.3.73-.45,1.61-.45,2.63v.02c0,1.01.15,1.89.45,2.62.3.74.72,1.31,1.28,1.71.56.4,1.21.6,1.98.6Z"/><path class="al" d="M509.66,1156.55v-22.55h4.72v22.55h-4.72ZM512.04,1149.45v-3.7h5.53c1.35,0,2.41-.35,3.16-1.04.75-.69,1.12-1.67,1.12-2.95v-.03c0-1.29-.38-2.28-1.12-2.96-.75-.68-1.8-1.02-3.16-1.02h-5.53v-3.75h6.69c1.58,0,2.97.32,4.16.96s2.11,1.54,2.77,2.7.99,2.51.99,4.06v.03c0,1.54-.33,2.89-.99,4.05s-1.59,2.05-2.77,2.7-2.57.96-4.16.96h-6.69Z"/><path class="al" d="M536.18,1156.89c-1.7,0-3.17-.35-4.41-1.04-1.24-.69-2.2-1.69-2.88-3-.68-1.31-1.02-2.87-1.02-4.68v-.03c0-1.8.35-3.35,1.04-4.65s1.66-2.29,2.9-2.99c1.24-.7,2.69-1.05,4.36-1.05s3.14.35,4.38,1.04c1.25.69,2.21,1.69,2.9,2.98s1.03,2.85,1.03,4.66v.03c0,1.82-.34,3.39-1.02,4.69-.68,1.3-1.64,2.3-2.88,2.99-1.24.69-2.7,1.04-4.39,1.04ZM536.19,1153.31c.74,0,1.38-.2,1.92-.6.54-.4.96-.98,1.26-1.75s.45-1.7.45-2.79v-.03c0-1.07-.15-1.99-.45-2.76s-.73-1.35-1.27-1.75c-.55-.4-1.19-.6-1.93-.6s-1.37.2-1.91.61-.97.99-1.27,1.75c-.3.76-.45,1.68-.45,2.75v.03c0,1.09.15,2.02.45,2.79s.72,1.35,1.27,1.75c.55.4,1.2.6,1.95.6Z"/><path class="al" d="M549.93,1156.55l-4.47-16.75h4.61l2.53,12.42h.09l2.97-12.42h4.38l2.98,12.42h.09l2.55-12.42h4.5l-4.44,16.75h-4.86l-3.03-11.84h-.09l-3.02,11.84h-4.8Z"/><path class="al" d="M579.33,1156.89c-1.71,0-3.18-.35-4.41-1.05s-2.18-1.71-2.84-3.01c-.67-1.3-1-2.84-1-4.62v-.02c0-1.78.33-3.33,1-4.63.67-1.31,1.6-2.32,2.8-3.03,1.2-.71,2.62-1.07,4.26-1.07s3.05.35,4.24,1.04c1.19.69,2.11,1.67,2.77,2.93.65,1.26.98,2.73.98,4.42v1.42h-13.8v-2.89h11.64l-2.17,2.7v-1.77c0-.98-.15-1.8-.45-2.46-.3-.66-.72-1.16-1.26-1.49-.54-.33-1.16-.5-1.87-.5s-1.34.17-1.88.52-.97.85-1.28,1.51c-.31.66-.46,1.47-.46,2.43v1.78c0,.92.15,1.7.46,2.36s.75,1.16,1.32,1.51c.57.35,1.25.52,2.05.52.62,0,1.17-.1,1.62-.3.46-.2.83-.45,1.12-.75.29-.3.49-.61.59-.92l.03-.09h4.19l-.05.17c-.12.62-.37,1.23-.73,1.86s-.86,1.2-1.48,1.72c-.62.52-1.38.94-2.27,1.25s-1.93.47-3.13.47Z"/><path class="al" d="M589.47,1156.55v-16.75h4.56v2.92h.09c.25-1.03.7-1.83,1.36-2.41.66-.57,1.47-.86,2.45-.86.25,0,.49.02.72.05s.43.07.59.12v4.03c-.19-.08-.43-.15-.72-.2s-.6-.07-.94-.07c-.75,0-1.39.15-1.92.44-.53.29-.94.72-1.22,1.28s-.42,1.25-.42,2.06v9.38h-4.56Z"/><path class="aq" d="M528.05,1196.55v-22.55h4.72v9.16h10.16v-9.16h4.72v22.55h-4.72v-9.48h-10.16v9.48h-4.72Z"/><path class="aq" d="M558.63,1196.89c-1.71,0-3.18-.35-4.41-1.05s-2.18-1.71-2.84-3.01c-.67-1.3-1-2.84-1-4.62v-.02c0-1.78.33-3.33,1-4.63.67-1.31,1.6-2.32,2.8-3.03,1.2-.71,2.62-1.07,4.26-1.07s3.05.35,4.24,1.04c1.19.69,2.11,1.67,2.77,2.93.65,1.26.98,2.73.98,4.42v1.42h-13.8v-2.89h11.64l-2.17,2.7v-1.77c0-.98-.15-1.8-.45-2.46-.3-.66-.72-1.16-1.26-1.49-.54-.33-1.16-.5-1.87-.5s-1.34.17-1.88.52-.97.85-1.28,1.51c-.31.66-.46,1.47-.46,2.43v1.78c0,.92.15,1.7.46,2.36s.75,1.16,1.32,1.51c.57.35,1.25.52,2.05.52.62,0,1.17-.1,1.62-.3.46-.2.83-.45,1.12-.75.29-.3.49-.61.59-.92l.03-.09h4.19l-.05.17c-.12.62-.37,1.23-.73,1.86s-.86,1.2-1.48,1.72c-.62.52-1.38.94-2.27,1.25s-1.93.47-3.13.47Z"/><path class="aq" d="M568.88,1196.55v-22.55h4.56v22.55h-4.56Z"/><path class="aq" d="M578.9,1177.66c-.69,0-1.27-.24-1.74-.71-.47-.47-.71-1.03-.71-1.68s.24-1.22.71-1.68c.47-.46,1.05-.7,1.74-.7s1.27.23,1.73.7c.47.46.7,1.02.7,1.68s-.23,1.21-.7,1.68c-.47.47-1.05.71-1.73.71ZM576.6,1196.55v-16.75h4.58v16.75h-4.58Z"/><path class="aq" d="M583.07,1196.55l5.25-8.34-5.2-8.41h5.14l3.02,5.66h.09l2.97-5.66h4.97l-5.23,8.28,5.19,8.47h-4.95l-3.19-5.8h-.09l-3.14,5.8h-4.81Z"/><path class="ai" d="M532.76,1236.55v-22.55h14.77v3.89h-10.05v6.05h9.17v3.73h-9.17v8.88h-4.72Z"/><path class="ai" d="M550.02,1236.55v-22.55h4.56v22.55h-4.56Z"/><path class="ai" d="M565.35,1236.89c-1.7,0-3.17-.35-4.41-1.04-1.24-.69-2.2-1.69-2.88-3-.68-1.31-1.02-2.87-1.02-4.68v-.03c0-1.8.35-3.35,1.04-4.65s1.66-2.29,2.9-2.99c1.24-.7,2.69-1.05,4.36-1.05s3.14.35,4.38,1.04c1.25.69,2.21,1.69,2.9,2.98s1.03,2.85,1.03,4.66v.03c0,1.82-.34,3.39-1.02,4.69-.68,1.3-1.64,2.3-2.88,2.99-1.24.69-2.7,1.04-4.39,1.04ZM565.37,1233.31c.74,0,1.38-.2,1.92-.6.54-.4.96-.98,1.26-1.75s.45-1.7.45-2.79v-.03c0-1.07-.15-1.99-.45-2.76s-.73-1.35-1.27-1.75c-.55-.4-1.19-.6-1.93-.6s-1.37.2-1.91.61-.97.99-1.27,1.75c-.3.76-.45,1.68-.45,2.75v.03c0,1.09.15,2.02.45,2.79s.72,1.35,1.27,1.75c.55.4,1.2.6,1.95.6Z"/><path class="ai" d="M579.1,1236.55l-4.47-16.75h4.61l2.53,12.42h.09l2.97-12.42h4.38l2.98,12.42h.09l2.55-12.42h4.5l-4.44,16.75h-4.86l-3.03-11.84h-.09l-3.02,11.84h-4.8Z"/><path class="w" d="M647.6,1156.55l-7.53-22.55h5.22l5.16,17.72h.09l5.14-17.72h5.23l-7.55,22.55h-5.77Z"/><path class="w" d="M668.32,1156.89c-1.7,0-3.17-.35-4.41-1.04-1.24-.69-2.2-1.69-2.88-3-.68-1.31-1.02-2.87-1.02-4.68v-.03c0-1.8.35-3.35,1.04-4.65s1.66-2.29,2.9-2.99c1.24-.7,2.69-1.05,4.36-1.05s3.14.35,4.38,1.04c1.25.69,2.21,1.69,2.9,2.98s1.03,2.85,1.03,4.66v.03c0,1.82-.34,3.39-1.02,4.69-.68,1.3-1.64,2.3-2.88,2.99-1.24.69-2.7,1.04-4.39,1.04ZM668.33,1153.31c.74,0,1.38-.2,1.92-.6.54-.4.96-.98,1.26-1.75s.45-1.7.45-2.79v-.03c0-1.07-.15-1.99-.45-2.76s-.73-1.35-1.27-1.75c-.55-.4-1.19-.6-1.93-.6s-1.37.2-1.91.61-.97.99-1.27,1.75c-.3.76-.45,1.68-.45,2.75v.03c0,1.09.15,2.02.45,2.79s.72,1.35,1.27,1.75c.55.4,1.2.6,1.95.6Z"/><path class="w" d="M681.33,1137.66c-.69,0-1.27-.24-1.74-.71-.47-.47-.71-1.03-.71-1.68s.24-1.22.71-1.68c.47-.46,1.05-.7,1.74-.7s1.27.23,1.73.7c.47.46.7,1.02.7,1.68s-.23,1.21-.7,1.68c-.47.47-1.05.71-1.73.71ZM679.04,1156.55v-16.75h4.58v16.75h-4.58Z"/><path class="w" d="M692.87,1156.89c-1.41,0-2.62-.35-3.64-1.05-1.02-.7-1.81-1.7-2.36-3-.55-1.3-.83-2.86-.83-4.67v-.02c0-1.82.28-3.38.83-4.68s1.34-2.29,2.36-2.98c1.02-.69,2.23-1.04,3.62-1.04.8,0,1.54.13,2.2.39.67.26,1.25.63,1.76,1.12s.91,1.07,1.21,1.74h.09v-8.7h4.56v22.55h-4.56v-2.86h-.09c-.3.67-.7,1.24-1.2,1.72-.5.48-1.08.85-1.75,1.1s-1.4.38-2.2.38ZM694.4,1153.11c.74,0,1.39-.2,1.95-.6.56-.4,1-.97,1.3-1.71.31-.74.46-1.61.46-2.62v-.02c0-1-.16-1.87-.47-2.61-.31-.74-.75-1.31-1.3-1.71-.56-.4-1.21-.6-1.95-.6s-1.42.2-1.97.59c-.55.4-.98.96-1.28,1.7s-.45,1.61-.45,2.63v.02c0,1.01.15,1.89.45,2.62.3.74.72,1.31,1.28,1.71.56.4,1.22.6,1.98.6Z"/><path class="z" d="M650.82,1196.94c-2.07,0-3.86-.47-5.37-1.41-1.51-.94-2.68-2.28-3.5-4.02-.82-1.74-1.23-3.82-1.23-6.25v-.02c0-2.43.41-4.51,1.23-6.24.82-1.73,1.99-3.07,3.5-4,1.51-.93,3.3-1.4,5.37-1.4,1.71,0,3.24.35,4.58,1.06,1.34.71,2.42,1.68,3.23,2.92.81,1.24,1.29,2.66,1.42,4.25v.16s-4.32,0-4.32,0l-.06-.27c-.17-.83-.46-1.56-.9-2.17-.43-.61-.98-1.09-1.65-1.44s-1.44-.52-2.32-.52c-1.14,0-2.12.31-2.95.93-.83.62-1.48,1.5-1.93,2.63-.46,1.14-.68,2.49-.68,4.06v.02c0,1.58.23,2.95.68,4.1.46,1.15,1.1,2.04,1.94,2.66.84.62,1.82.93,2.95.93.85,0,1.61-.17,2.28-.5.67-.33,1.22-.81,1.67-1.45.45-.63.77-1.39.96-2.29l.03-.16h4.33v.17c-.15,1.59-.63,3.01-1.45,4.25-.82,1.24-1.9,2.21-3.24,2.91s-2.87,1.05-4.58,1.05Z"/><path class="z" d="M669.68,1196.89c-1.6,0-2.98-.35-4.14-1.04-1.17-.69-2.07-1.69-2.71-3-.64-1.31-.96-2.87-.96-4.68v-.03c0-1.8.33-3.35.98-4.65s1.56-2.29,2.72-2.99c1.17-.7,2.53-1.05,4.1-1.05s2.95.35,4.12,1.04c1.17.69,2.08,1.69,2.72,2.98s.97,2.85.97,4.66v.03c0,1.82-.32,3.39-.96,4.69-.64,1.3-1.54,2.3-2.71,2.99-1.17.69-2.54,1.04-4.13,1.04ZM669.7,1193.31c.7,0,1.3-.2,1.81-.6.51-.4.9-.98,1.18-1.75s.42-1.7.42-2.79v-.03c0-1.07-.14-1.99-.43-2.76s-.68-1.35-1.2-1.75c-.51-.4-1.12-.6-1.81-.6s-1.29.2-1.8.61c-.51.41-.91.99-1.2,1.75-.28.76-.43,1.68-.43,2.75v.03c0,1.09.14,2.02.42,2.79.28.77.68,1.35,1.2,1.75.52.4,1.13.6,1.84.6Z"/><path class="z" d="M679.79,1196.55v-22.55h4.29v22.55h-4.29Z"/><path class="z" d="M687.07,1196.55v-22.55h4.29v22.55h-4.29Z"/><path class="z" d="M698.94,1196.81c-1.05,0-1.97-.22-2.77-.65s-1.42-1.03-1.87-1.8-.67-1.64-.67-2.62v-.03c0-1.02.24-1.89.72-2.62.48-.72,1.18-1.29,2.09-1.71.92-.42,2.02-.67,3.33-.77l6.14-.41v2.84l-5.49.39c-.82.05-1.45.26-1.88.61-.43.35-.65.83-.65,1.42v.03c0,.62.22,1.1.66,1.45.44.35,1.03.52,1.78.52.64,0,1.21-.13,1.71-.4.5-.27.9-.63,1.19-1.09.29-.46.43-.98.43-1.55v-5.09c0-.74-.22-1.32-.66-1.75-.44-.43-1.08-.64-1.92-.64s-1.44.17-1.91.52c-.47.35-.76.79-.87,1.34l-.03.14h-3.94v-.19c.1-1.03.43-1.95.99-2.75.56-.8,1.35-1.43,2.35-1.88,1-.45,2.2-.68,3.58-.68s2.54.23,3.54.7c1,.46,1.78,1.12,2.33,1.96s.83,1.83.83,2.95v11.48h-4.29v-2.48h-.09c-.3.56-.69,1.05-1.15,1.47-.46.42-.99.73-1.58.95s-1.23.33-1.92.33Z"/><path class="z" d="M710.72,1202.02v-22.22h4.29v2.92h.1c.28-.68.66-1.26,1.12-1.75.46-.49,1.01-.86,1.63-1.12.62-.26,1.3-.39,2.05-.39,1.33,0,2.48.35,3.44,1.04.96.69,1.7,1.69,2.22,2.99.52,1.3.78,2.86.78,4.67v.02c0,1.81-.26,3.37-.77,4.67-.51,1.3-1.25,2.3-2.2,3-.95.7-2.09,1.05-3.41,1.05-.74,0-1.43-.13-2.07-.39s-1.19-.63-1.66-1.1c-.47-.47-.85-1.04-1.15-1.71h-.09v8.33h-4.29ZM718.5,1193.11c.71,0,1.33-.2,1.85-.6.52-.4.92-.97,1.2-1.71.28-.74.42-1.61.42-2.62v-.02c0-1.02-.14-1.9-.43-2.63s-.69-1.3-1.2-1.7c-.52-.4-1.13-.59-1.84-.59s-1.31.2-1.84.6c-.53.4-.94.97-1.23,1.71-.29.74-.44,1.62-.44,2.62v.02c0,1,.15,1.87.45,2.61.3.74.71,1.31,1.23,1.71.52.4,1.13.6,1.83.6Z"/><path class="z" d="M735.04,1196.89c-1.45,0-2.69-.22-3.71-.67s-1.82-1.07-2.39-1.87c-.57-.8-.91-1.72-1.03-2.77v-.14s4.17,0,4.17,0l.03.14c.14.66.45,1.17.92,1.53.48.37,1.15.55,2,.55.55,0,1.01-.07,1.39-.21.38-.14.68-.34.89-.6.21-.26.32-.57.32-.94v-.02c0-.45-.15-.81-.46-1.08-.3-.27-.84-.49-1.62-.67l-2.67-.61c-1.02-.23-1.87-.56-2.56-.99-.69-.43-1.2-.97-1.54-1.61s-.51-1.38-.51-2.21v-.02c0-1.07.27-2,.82-2.78s1.31-1.39,2.31-1.82c.99-.43,2.16-.65,3.49-.65s2.57.24,3.55.71c.97.47,1.72,1.11,2.25,1.91.52.8.8,1.69.83,2.67v.16h-3.95v-.12c-.08-.59-.35-1.09-.8-1.49-.46-.4-1.08-.6-1.87-.6-.49,0-.92.07-1.28.22-.36.15-.64.35-.84.61-.2.26-.29.57-.29.94v.02c0,.28.07.53.2.76.13.22.35.42.67.59.31.17.73.31,1.26.44l2.67.61c1.65.37,2.84.91,3.56,1.64.72.73,1.08,1.71,1.08,2.94v.02c0,1.09-.29,2.05-.88,2.86s-1.4,1.45-2.43,1.9-2.23.68-3.58.68Z"/><path class="z" d="M751.21,1196.89c-1.61,0-2.99-.35-4.14-1.05s-2.05-1.71-2.67-3.01c-.63-1.3-.94-2.84-.94-4.62v-.02c0-1.78.31-3.33.94-4.63.63-1.31,1.51-2.32,2.64-3.03,1.13-.71,2.46-1.07,4-1.07s2.87.35,3.99,1.04c1.12.69,1.99,1.67,2.6,2.93.61,1.26.92,2.73.92,4.42v1.42h-12.97v-2.89h10.94l-2.04,2.7v-1.77c0-.98-.14-1.8-.43-2.46-.28-.66-.68-1.16-1.18-1.49-.5-.33-1.09-.5-1.76-.5s-1.26.17-1.77.52-.92.85-1.2,1.51c-.29.66-.43,1.47-.43,2.43v1.78c0,.92.14,1.7.43,2.36.29.66.7,1.16,1.24,1.51.54.35,1.18.52,1.92.52.59,0,1.1-.1,1.53-.3.43-.2.78-.45,1.06-.75.27-.3.46-.61.56-.92l.03-.09h3.94l-.04.17c-.12.62-.35,1.23-.69,1.86s-.81,1.2-1.39,1.72c-.58.52-1.29.94-2.13,1.25s-1.82.47-2.94.47Z"/><path class="am" d="M640.07,1236.55l7.86-22.55h4.17v4.38h-1.44l-5.64,18.17h-4.95ZM644.3,1231.08l1.16-3.53h10.52l1.16,3.53h-12.83ZM656.38,1236.55l-5.62-18.17v-4.38h2.73l7.86,22.55h-4.97Z"/><path class="am" d="M673.19,1236.89c-.8,0-1.54-.13-2.2-.38s-1.25-.62-1.75-1.1c-.5-.48-.9-1.05-1.2-1.72h-.09v2.86h-4.56v-22.55h4.56v8.7h.09c.31-.68.72-1.26,1.22-1.74s1.09-.86,1.76-1.12c.67-.26,1.4-.39,2.2-.39,1.41,0,2.62.35,3.63,1.04,1.02.69,1.8,1.69,2.35,2.98s.83,2.86.83,4.68v.02c0,1.81-.28,3.37-.83,4.67-.55,1.3-1.34,2.3-2.36,3-1.02.7-2.23,1.05-3.64,1.05ZM671.68,1233.11c.76,0,1.42-.2,1.97-.6.55-.4.98-.97,1.27-1.71.3-.74.45-1.61.45-2.62v-.02c0-1.02-.15-1.9-.45-2.63s-.73-1.3-1.28-1.7c-.55-.4-1.2-.59-1.95-.59s-1.39.2-1.95.6c-.56.4-1,.97-1.31,1.71-.32.74-.48,1.61-.48,2.61v.02c0,1.01.16,1.89.47,2.62.31.74.75,1.31,1.31,1.71.56.4,1.21.6,1.95.6Z"/><path class="am" d="M684.41,1242.06c-.45,0-.88-.02-1.3-.06-.42-.04-.76-.09-1.03-.14v-3.39c.16.03.37.06.63.1.27.04.57.05.9.05.69,0,1.23-.12,1.62-.34.4-.23.69-.62.89-1.19l.19-.55-5.91-16.75h5.02l3.78,14-.61-.91h.86l-.61.91,3.77-14h4.83l-5.75,17.05c-.44,1.31-.99,2.35-1.65,3.12s-1.46,1.31-2.38,1.62c-.93.32-2.01.48-3.25.48Z"/><path class="am" d="M705.85,1236.89c-1.54,0-2.86-.22-3.95-.67s-1.93-1.07-2.54-1.87-.97-1.72-1.09-2.77l-.02-.14h4.45l.03.14c.15.66.47,1.17.98,1.53.51.37,1.22.55,2.12.55.58,0,1.08-.07,1.48-.21s.72-.34.95-.6c.22-.26.34-.57.34-.94v-.02c0-.45-.16-.81-.48-1.08-.32-.27-.9-.49-1.72-.67l-2.84-.61c-1.08-.23-1.99-.56-2.72-.99-.73-.43-1.28-.97-1.64-1.61s-.55-1.38-.55-2.21v-.02c0-1.07.29-2,.87-2.78s1.4-1.39,2.45-1.82c1.06-.43,2.29-.65,3.71-.65s2.74.24,3.77.71c1.04.47,1.83,1.11,2.39,1.91.56.8.85,1.69.88,2.67v.16h-4.2l-.02-.12c-.07-.59-.35-1.09-.84-1.49-.48-.4-1.15-.6-1.99-.6-.52,0-.97.07-1.36.22-.39.15-.68.35-.89.61-.21.26-.31.57-.31.94v.02c0,.28.07.53.21.76.14.22.38.42.71.59.33.17.78.31,1.34.44l2.84.61c1.76.37,3.02.91,3.79,1.64.77.73,1.15,1.71,1.15,2.94v.02c0,1.09-.31,2.05-.94,2.86s-1.49,1.45-2.59,1.9-2.37.68-3.8.68Z"/><path class="am" d="M722.32,1236.89c-1.54,0-2.86-.22-3.95-.67s-1.93-1.07-2.54-1.87-.97-1.72-1.09-2.77l-.02-.14h4.45l.03.14c.15.66.47,1.17.98,1.53.51.37,1.22.55,2.12.55.58,0,1.08-.07,1.48-.21s.72-.34.95-.6c.22-.26.34-.57.34-.94v-.02c0-.45-.16-.81-.48-1.08-.32-.27-.9-.49-1.72-.67l-2.84-.61c-1.08-.23-1.99-.56-2.72-.99-.73-.43-1.28-.97-1.64-1.61s-.55-1.38-.55-2.21v-.02c0-1.07.29-2,.87-2.78s1.4-1.39,2.45-1.82c1.06-.43,2.29-.65,3.71-.65s2.74.24,3.77.71c1.04.47,1.83,1.11,2.39,1.91.56.8.85,1.69.88,2.67v.16h-4.2l-.02-.12c-.07-.59-.35-1.09-.84-1.49-.48-.4-1.15-.6-1.99-.6-.52,0-.97.07-1.36.22-.39.15-.68.35-.89.61-.21.26-.31.57-.31.94v.02c0,.28.07.53.21.76.14.22.38.42.71.59.33.17.78.31,1.34.44l2.84.61c1.76.37,3.02.91,3.79,1.64.77.73,1.15,1.71,1.15,2.94v.02c0,1.09-.31,2.05-.94,2.86s-1.49,1.45-2.59,1.9-2.37.68-3.8.68Z"/><path class="y" d="M781.92,1156.55v-22.55h9.31c1.69,0,3.13.29,4.34.87s2.12,1.4,2.77,2.48c.64,1.07.96,2.37.96,3.88v.03c0,1.49-.37,2.81-1.1,3.96-.73,1.15-1.73,1.97-2.98,2.46l4.75,8.88h-5.36l-4.19-8.16h-3.78v8.16h-4.72ZM786.64,1144.8h4.08c1.17,0,2.08-.31,2.75-.94.67-.62,1-1.49,1-2.59v-.03c0-1.08-.35-1.94-1.04-2.58-.69-.63-1.62-.95-2.77-.95h-4.02v7.09Z"/><path class="y" d="M809.49,1156.89c-1.71,0-3.18-.35-4.41-1.05-1.23-.7-2.18-1.71-2.84-3.01-.67-1.3-1-2.84-1-4.62v-.02c0-1.78.33-3.33,1-4.63.67-1.31,1.6-2.32,2.8-3.03,1.2-.71,2.62-1.07,4.26-1.07s3.05.35,4.24,1.04c1.19.69,2.11,1.67,2.77,2.93.65,1.26.98,2.73.98,4.42v1.42h-13.8v-2.89h11.64l-2.17,2.7v-1.77c0-.98-.15-1.8-.45-2.46-.3-.66-.72-1.16-1.26-1.49-.54-.33-1.16-.5-1.87-.5s-1.34.17-1.88.52-.97.85-1.28,1.51c-.31.66-.46,1.47-.46,2.43v1.78c0,.92.15,1.7.46,2.36.31.66.75,1.16,1.32,1.51.57.35,1.25.52,2.05.52.62,0,1.17-.1,1.62-.3.46-.2.83-.45,1.12-.75.29-.3.49-.61.59-.92l.03-.09h4.19l-.05.17c-.12.62-.37,1.23-.73,1.86-.37.62-.86,1.2-1.48,1.72-.62.52-1.38.94-2.27,1.25s-1.94.47-3.13.47Z"/><path class="y" d="M826.28,1156.89c-1.85,0-3.23-.39-4.12-1.17-.9-.78-1.34-2.07-1.34-3.86v-8.62h-2.33v-3.44h2.33v-4.09h4.61v4.09h3.06v3.44h-3.06v8.12c0,.78.17,1.33.52,1.63.35.31.87.46,1.55.46.21,0,.39,0,.55-.02s.3-.03.44-.05v3.34c-.25.04-.56.08-.93.12-.37.04-.79.05-1.27.05Z"/><path class="y" d="M836.69,1156.89c-1.22,0-2.26-.25-3.12-.76-.87-.5-1.52-1.23-1.97-2.16-.45-.94-.67-2.06-.67-3.36v-10.81h4.56v9.86c0,1.09.26,1.94.77,2.55.52.6,1.28.91,2.3.91.51,0,.97-.09,1.38-.27.41-.18.76-.43,1.05-.76.29-.33.52-.72.67-1.17s.23-.95.23-1.49v-9.62h4.56v16.75h-4.56v-2.77h-.11c-.28.64-.66,1.19-1.13,1.66-.47.47-1.04.83-1.7,1.08-.66.25-1.42.38-2.27.38Z"/><path class="y" d="M849.44,1156.55v-16.75h4.56v2.92h.09c.25-1.03.7-1.83,1.36-2.41.66-.57,1.47-.86,2.45-.86.25,0,.49.02.72.05.23.03.43.07.59.12v4.03c-.19-.08-.43-.15-.72-.2-.29-.05-.6-.07-.94-.07-.75,0-1.39.15-1.92.44-.53.29-.94.72-1.22,1.28s-.42,1.25-.42,2.06v9.38h-4.56Z"/><path class="y" d="M861.08,1156.55v-16.75h4.56v2.75h.09c.44-.96,1.08-1.71,1.94-2.27.85-.55,1.91-.83,3.17-.83,1.84,0,3.27.55,4.27,1.66,1,1.11,1.51,2.65,1.51,4.62v10.81h-4.56v-9.86c0-1.09-.26-1.94-.77-2.55-.52-.6-1.28-.91-2.3-.91-.68,0-1.27.16-1.77.47s-.89.75-1.16,1.3c-.28.55-.41,1.19-.41,1.92v9.62h-4.56Z"/><path class="ao" d="M792.16,1196.55v-22.55h14.77v3.89h-10.05v6.05h9.17v3.73h-9.17v8.88h-4.72Z"/><path class="ao" d="M816.53,1196.89c-1.7,0-3.17-.35-4.41-1.04-1.24-.69-2.2-1.69-2.88-3-.68-1.31-1.02-2.87-1.02-4.68v-.03c0-1.8.35-3.35,1.04-4.65.69-1.3,1.66-2.29,2.9-2.99,1.24-.7,2.69-1.05,4.36-1.05s3.14.35,4.38,1.04c1.24.69,2.21,1.69,2.9,2.98s1.03,2.85,1.03,4.66v.03c0,1.82-.34,3.39-1.02,4.69-.68,1.3-1.64,2.3-2.88,2.99-1.24.69-2.7,1.04-4.39,1.04ZM816.55,1193.31c.74,0,1.38-.2,1.92-.6.54-.4.96-.98,1.26-1.75s.45-1.7.45-2.79v-.03c0-1.07-.15-1.99-.45-2.76-.3-.77-.73-1.35-1.27-1.75-.55-.4-1.19-.6-1.93-.6s-1.37.2-1.91.61-.97.99-1.27,1.75c-.3.76-.45,1.68-.45,2.75v.03c0,1.09.15,2.02.45,2.79s.72,1.35,1.27,1.75c.55.4,1.2.6,1.95.6Z"/><path class="ao" d="M834.83,1196.89c-1.7,0-3.17-.35-4.41-1.06-1.24-.71-2.2-1.72-2.87-3.02-.67-1.31-1.01-2.86-1.01-4.65v-.02c0-1.79.34-3.34,1.02-4.63.68-1.3,1.63-2.3,2.87-3s2.68-1.05,4.35-1.05c1.52,0,2.84.28,3.95.85,1.11.57,1.99,1.34,2.62,2.3.63.97.98,2.06,1.04,3.27v.11h-4.25l-.02-.14c-.14-.79-.48-1.46-1.03-2-.55-.54-1.3-.81-2.25-.81-.74,0-1.38.21-1.93.62-.55.41-.97,1-1.27,1.77s-.45,1.68-.45,2.74v.02c0,1.09.15,2.02.45,2.79s.72,1.35,1.27,1.75c.55.4,1.2.6,1.95.6.92,0,1.65-.26,2.21-.77.56-.52.91-1.2,1.05-2.04l.03-.14h4.25v.09c-.07,1.22-.43,2.31-1.06,3.28-.64.97-1.51,1.74-2.62,2.3s-2.41.85-3.9.85Z"/><path class="ao" d="M850.3,1196.89c-1.22,0-2.26-.25-3.12-.76-.87-.5-1.52-1.23-1.97-2.16-.45-.94-.67-2.06-.67-3.36v-10.81h4.56v9.86c0,1.09.26,1.94.77,2.55.52.6,1.28.91,2.3.91.51,0,.97-.09,1.38-.27.41-.18.76-.43,1.05-.76.29-.33.52-.72.67-1.17s.23-.95.23-1.49v-9.62h4.56v16.75h-4.56v-2.77h-.11c-.28.64-.66,1.19-1.13,1.66-.47.47-1.04.83-1.7,1.08-.66.25-1.42.38-2.27.38Z"/><path class="ao" d="M869.94,1196.89c-1.54,0-2.86-.22-3.95-.67-1.09-.45-1.94-1.07-2.54-1.87-.6-.8-.97-1.72-1.09-2.77l-.02-.14h4.45l.03.14c.15.66.47,1.17.98,1.53.51.37,1.22.55,2.12.55.58,0,1.08-.07,1.48-.21s.72-.34.95-.6c.22-.26.34-.57.34-.94v-.02c0-.45-.16-.81-.48-1.08-.32-.27-.9-.49-1.72-.67l-2.84-.61c-1.08-.23-1.99-.56-2.72-.99-.73-.43-1.28-.97-1.64-1.61-.37-.64-.55-1.38-.55-2.21v-.02c0-1.07.29-2,.87-2.78s1.4-1.39,2.45-1.82c1.06-.43,2.29-.65,3.71-.65s2.74.24,3.77.71c1.04.47,1.83,1.11,2.39,1.91.56.8.85,1.69.88,2.67v.16h-4.2l-.02-.12c-.07-.59-.35-1.09-.84-1.49-.48-.4-1.15-.6-1.99-.6-.52,0-.97.07-1.36.22-.39.15-.68.35-.89.61-.21.26-.31.57-.31.94v.02c0,.28.07.53.21.76.14.22.38.42.71.59.33.17.78.31,1.34.44l2.84.61c1.76.37,3.02.91,3.79,1.64.77.73,1.15,1.71,1.15,2.94v.02c0,1.09-.31,2.05-.94,2.86s-1.49,1.45-2.59,1.9c-1.1.45-2.37.68-3.8.68Z"/><path class="ak" d="M806.83,1236.94c-2.2,0-4.1-.47-5.71-1.41s-2.85-2.28-3.73-4.02c-.88-1.74-1.31-3.82-1.31-6.25v-.02c0-2.43.44-4.51,1.31-6.24s2.12-3.07,3.73-4c1.61-.93,3.51-1.4,5.71-1.4,1.82,0,3.45.35,4.88,1.06,1.43.71,2.57,1.68,3.44,2.92.86,1.24,1.37,2.66,1.52,4.25l.02.16h-4.61l-.06-.27c-.18-.83-.5-1.56-.95-2.17-.46-.61-1.04-1.09-1.75-1.44-.71-.34-1.53-.52-2.47-.52-1.21,0-2.26.31-3.14.93-.89.62-1.57,1.5-2.05,2.63-.48,1.14-.73,2.49-.73,4.06v.02c0,1.58.24,2.95.73,4.1.48,1.15,1.17,2.04,2.06,2.66.89.62,1.93.93,3.13.93.91,0,1.71-.17,2.42-.5.71-.33,1.3-.81,1.78-1.45.48-.63.82-1.39,1.02-2.29l.03-.16h4.61l-.02.17c-.15,1.59-.65,3.01-1.52,4.25-.87,1.24-2.02,2.21-3.45,2.91-1.43.7-3.05,1.05-4.88,1.05Z"/><path class="ak" d="M819.31,1236.55v-22.55h4.56v22.55h-4.56Z"/><path class="ak" d="M834.64,1236.89c-1.7,0-3.17-.35-4.41-1.04-1.24-.69-2.2-1.69-2.88-3-.68-1.31-1.02-2.87-1.02-4.68v-.03c0-1.8.35-3.35,1.04-4.65.69-1.3,1.66-2.29,2.9-2.99,1.24-.7,2.69-1.05,4.36-1.05s3.14.35,4.38,1.04c1.24.69,2.21,1.69,2.9,2.98s1.03,2.85,1.03,4.66v.03c0,1.82-.34,3.39-1.02,4.69-.68,1.3-1.64,2.3-2.88,2.99-1.24.69-2.7,1.04-4.39,1.04ZM834.66,1233.31c.74,0,1.38-.2,1.92-.6.54-.4.96-.98,1.26-1.75s.45-1.7.45-2.79v-.03c0-1.07-.15-1.99-.45-2.76-.3-.77-.73-1.35-1.27-1.75-.55-.4-1.19-.6-1.93-.6s-1.37.2-1.91.61-.97.99-1.27,1.75c-.3.76-.45,1.68-.45,2.75v.03c0,1.09.15,2.02.45,2.79s.72,1.35,1.27,1.75c.55.4,1.2.6,1.95.6Z"/><path class="ak" d="M852.17,1236.89c-1.54,0-2.86-.22-3.95-.67-1.09-.45-1.94-1.07-2.54-1.87-.6-.8-.97-1.72-1.09-2.77l-.02-.14h4.45l.03.14c.15.66.47,1.17.98,1.53.51.37,1.22.55,2.12.55.58,0,1.08-.07,1.48-.21s.72-.34.95-.6c.22-.26.34-.57.34-.94v-.02c0-.45-.16-.81-.48-1.08-.32-.27-.9-.49-1.72-.67l-2.84-.61c-1.08-.23-1.99-.56-2.72-.99-.73-.43-1.28-.97-1.64-1.61-.37-.64-.55-1.38-.55-2.21v-.02c0-1.07.29-2,.87-2.78s1.4-1.39,2.45-1.82c1.06-.43,2.29-.65,3.71-.65s2.74.24,3.77.71c1.04.47,1.83,1.11,2.39,1.91.56.8.85,1.69.88,2.67v.16h-4.2l-.02-.12c-.07-.59-.35-1.09-.84-1.49-.48-.4-1.15-.6-1.99-.6-.52,0-.97.07-1.36.22-.39.15-.68.35-.89.61-.21.26-.31.57-.31.94v.02c0,.28.07.53.21.76.14.22.38.42.71.59.33.17.78.31,1.34.44l2.84.61c1.76.37,3.02.91,3.79,1.64.77.73,1.15,1.71,1.15,2.94v.02c0,1.09-.31,2.05-.94,2.86s-1.49,1.45-2.59,1.9c-1.1.45-2.37.68-3.8.68Z"/><path class="ak" d="M869.38,1236.89c-1.71,0-3.18-.35-4.41-1.05-1.23-.7-2.18-1.71-2.84-3.01-.67-1.3-1-2.84-1-4.62v-.02c0-1.78.33-3.33,1-4.63.67-1.31,1.6-2.32,2.8-3.03,1.2-.71,2.62-1.07,4.26-1.07s3.05.35,4.24,1.04c1.19.69,2.11,1.67,2.77,2.93.65,1.26.98,2.73.98,4.42v1.42h-13.8v-2.89h11.64l-2.17,2.7v-1.77c0-.98-.15-1.8-.45-2.46-.3-.66-.72-1.16-1.26-1.49-.54-.33-1.16-.5-1.87-.5s-1.34.17-1.88.52-.97.85-1.28,1.51c-.31.66-.46,1.47-.46,2.43v1.78c0,.92.15,1.7.46,2.36.31.66.75,1.16,1.32,1.51.57.35,1.25.52,2.05.52.62,0,1.17-.1,1.62-.3.46-.2.83-.45,1.12-.75.29-.3.49-.61.59-.92l.03-.09h4.19l-.05.17c-.12.62-.37,1.23-.73,1.86-.37.62-.86,1.2-1.48,1.72-.62.52-1.38.94-2.27,1.25s-1.94.47-3.13.47Z"/><path class="as" d="M928.14,1156.94c-1.78,0-3.34-.26-4.66-.79s-2.38-1.28-3.14-2.27-1.19-2.17-1.27-3.55l-.02-.25h4.45l.03.17c.1.58.37,1.09.79,1.51s.97.75,1.65.98c.68.23,1.44.35,2.3.35s1.63-.12,2.26-.35c.63-.23,1.12-.57,1.46-1,.34-.43.52-.93.52-1.51v-.02c0-.76-.3-1.36-.9-1.79-.6-.43-1.6-.79-2.99-1.07l-2.38-.48c-2.22-.44-3.89-1.19-5.02-2.26-1.13-1.07-1.7-2.45-1.7-4.15v-.02c0-1.38.38-2.57,1.12-3.59.74-1.02,1.75-1.82,3.05-2.39,1.29-.57,2.77-.86,4.44-.86s3.24.27,4.51.82,2.25,1.31,2.96,2.3c.71.98,1.1,2.14,1.17,3.46l.02.28h-4.45l-.03-.19c-.07-.59-.29-1.1-.66-1.52-.37-.42-.85-.74-1.45-.97-.59-.23-1.28-.34-2.06-.34s-1.5.12-2.08.34c-.58.23-1.03.55-1.34.96-.31.41-.46.88-.46,1.41v.02c0,.72.3,1.29.91,1.73.6.43,1.55.78,2.84,1.04l2.39.48c1.57.31,2.86.75,3.88,1.3,1.01.55,1.76,1.25,2.24,2.09.48.84.73,1.85.73,3.02v.02c0,1.45-.36,2.7-1.09,3.76-.72,1.06-1.77,1.88-3.12,2.45s-2.99.87-4.88.87Z"/><path class="as" d="M945.41,1156.89c-1.22,0-2.26-.25-3.12-.76-.87-.5-1.52-1.23-1.97-2.16-.45-.94-.67-2.06-.67-3.36v-10.81h4.56v9.86c0,1.09.26,1.94.77,2.55.52.6,1.28.91,2.3.91.51,0,.97-.09,1.38-.27.41-.18.76-.43,1.05-.76.29-.33.52-.72.67-1.17s.23-.95.23-1.49v-9.62h4.56v16.75h-4.56v-2.77h-.11c-.28.64-.66,1.19-1.13,1.66-.47.47-1.04.83-1.7,1.08-.66.25-1.42.38-2.27.38Z"/><path class="as" d="M958.16,1156.55v-16.75h4.56v2.92h.09c.25-1.03.7-1.83,1.36-2.41.66-.57,1.47-.86,2.45-.86.25,0,.49.02.72.05.23.03.43.07.59.12v4.03c-.19-.08-.43-.15-.72-.2-.29-.05-.6-.07-.94-.07-.75,0-1.39.15-1.92.44-.53.29-.94.72-1.22,1.28s-.42,1.25-.42,2.06v9.38h-4.56Z"/><path class="as" d="M977.08,1162.36c-1.53,0-2.87-.21-4.01-.63s-2.05-.99-2.72-1.71-1.08-1.53-1.23-2.42l-.03-.14h4.45l.05.11c.19.41.58.77,1.17,1.08s1.36.47,2.31.47c1.18,0,2.07-.28,2.69-.84.61-.56.92-1.31.92-2.23v-2.58h-.09c-.29.58-.69,1.09-1.2,1.52-.51.43-1.09.76-1.77.99s-1.41.35-2.21.35c-1.4,0-2.6-.33-3.62-1-1.02-.67-1.8-1.62-2.35-2.87-.55-1.24-.82-2.73-.82-4.46v-.02c0-1.78.28-3.31.84-4.58.56-1.27,1.35-2.24,2.38-2.92,1.03-.68,2.24-1.02,3.65-1.02.79,0,1.52.13,2.17.39.66.26,1.23.63,1.73,1.11.49.48.89,1.05,1.2,1.7h.11v-2.86h4.56v16.28c0,1.24-.33,2.33-.99,3.27-.66.94-1.6,1.68-2.83,2.21-1.22.53-2.67.8-4.35.8ZM977,1152.97c.75,0,1.4-.2,1.95-.59.55-.4.98-.96,1.29-1.69.31-.73.46-1.59.46-2.59v-.02c0-.99-.15-1.85-.46-2.57-.31-.72-.74-1.28-1.3-1.68-.56-.4-1.21-.59-1.95-.59s-1.41.2-1.97.59-1,.95-1.3,1.67c-.3.72-.45,1.59-.45,2.59v.02c0,1,.15,1.87.45,2.59.3.73.73,1.29,1.3,1.69.56.4,1.22.59,1.97.59Z"/><path class="as" d="M995.86,1156.89c-1.71,0-3.18-.35-4.41-1.05-1.23-.7-2.18-1.71-2.84-3.01-.67-1.3-1-2.84-1-4.62v-.02c0-1.78.33-3.33,1-4.63.67-1.31,1.6-2.32,2.8-3.03,1.2-.71,2.62-1.07,4.26-1.07s3.05.35,4.24,1.04c1.19.69,2.11,1.67,2.77,2.93.65,1.26.98,2.73.98,4.42v1.42h-13.8v-2.89h11.64l-2.17,2.7v-1.77c0-.98-.15-1.8-.45-2.46-.3-.66-.72-1.16-1.26-1.49-.54-.33-1.16-.5-1.87-.5s-1.34.17-1.88.52-.97.85-1.28,1.51c-.31.66-.46,1.47-.46,2.43v1.78c0,.92.15,1.7.46,2.36.31.66.75,1.16,1.32,1.51.57.35,1.25.52,2.05.52.62,0,1.17-.1,1.62-.3.46-.2.83-.45,1.12-.75.29-.3.49-.61.59-.92l.03-.09h4.19l-.05.17c-.12.62-.37,1.23-.73,1.86-.37.62-.86,1.2-1.48,1.72-.62.52-1.38.94-2.27,1.25s-1.94.47-3.13.47Z"/><path class="af" d="M919.91,1196.55v-22.55h4.72v9.16h10.16v-9.16h4.72v22.55h-4.72v-9.48h-10.16v9.48h-4.72Z"/><path class="af" d="M947.5,1196.81c-1.12,0-2.1-.22-2.95-.65-.85-.43-1.51-1.03-1.98-1.8-.47-.77-.71-1.64-.71-2.62v-.03c0-1.02.25-1.89.77-2.62.51-.72,1.25-1.29,2.23-1.71.97-.42,2.15-.67,3.54-.77l6.53-.41v2.84l-5.84.39c-.88.05-1.54.26-2,.61-.46.35-.69.83-.69,1.42v.03c0,.62.23,1.1.7,1.45.47.35,1.1.52,1.89.52.68,0,1.28-.13,1.82-.4.54-.27.96-.63,1.27-1.09.31-.46.46-.98.46-1.55v-5.09c0-.74-.23-1.32-.7-1.75-.47-.43-1.15-.64-2.05-.64s-1.53.17-2.03.52c-.5.35-.81.79-.92,1.34l-.03.14h-4.19l.02-.19c.09-1.03.44-1.95,1.04-2.75.6-.8,1.43-1.43,2.5-1.88,1.07-.45,2.34-.68,3.8-.68s2.7.23,3.77.7c1.06.46,1.89,1.12,2.48,1.96.59.84.88,1.83.88,2.95v11.48h-4.56v-2.48h-.09c-.32.56-.73,1.05-1.22,1.47-.49.42-1.05.73-1.68.95-.63.22-1.31.33-2.04.33Z"/><path class="af" d="M959.63,1196.55v-2.59l8.42-10.62v-.09h-8.28v-3.44h13.52v2.89l-7.92,10.33v.09h8.11v3.44h-13.84Z"/><path class="af" d="M983.44,1196.89c-1.71,0-3.18-.35-4.41-1.05-1.23-.7-2.18-1.71-2.84-3.01-.67-1.3-1-2.84-1-4.62v-.02c0-1.78.33-3.33,1-4.63.67-1.31,1.6-2.32,2.8-3.03,1.2-.71,2.62-1.07,4.26-1.07s3.05.35,4.24,1.04c1.19.69,2.11,1.67,2.77,2.93.65,1.26.98,2.73.98,4.42v1.42h-13.8v-2.89h11.64l-2.17,2.7v-1.77c0-.98-.15-1.8-.45-2.46-.3-.66-.72-1.16-1.26-1.49-.54-.33-1.16-.5-1.87-.5s-1.34.17-1.88.52-.97.85-1.28,1.51c-.31.66-.46,1.47-.46,2.43v1.78c0,.92.15,1.7.46,2.36.31.66.75,1.16,1.32,1.51.57.35,1.25.52,2.05.52.62,0,1.17-.1,1.62-.3.46-.2.83-.45,1.12-.75.29-.3.49-.61.59-.92l.03-.09h4.19l-.05.17c-.12.62-.37,1.23-.73,1.86-.37.62-.86,1.2-1.48,1.72-.62.52-1.38.94-2.27,1.25s-1.94.47-3.13.47Z"/><path class="an" d="M919.91,1236.55v-22.55h14.77v3.89h-10.05v6.05h9.17v3.73h-9.17v8.88h-4.72Z"/><path class="an" d="M941.35,1236.81c-1.12,0-2.1-.22-2.95-.65-.85-.43-1.51-1.03-1.98-1.8-.47-.77-.71-1.64-.71-2.62v-.03c0-1.02.25-1.89.77-2.62.51-.72,1.25-1.29,2.23-1.71.97-.42,2.15-.67,3.54-.77l6.53-.41v2.84l-5.84.39c-.88.05-1.54.26-2,.61-.46.35-.69.83-.69,1.42v.03c0,.62.23,1.1.7,1.45.47.35,1.1.52,1.89.52.68,0,1.28-.13,1.82-.4.54-.27.96-.63,1.27-1.09.31-.46.46-.98.46-1.55v-5.09c0-.74-.23-1.32-.7-1.75-.47-.43-1.15-.64-2.05-.64s-1.53.17-2.03.52c-.5.35-.81.79-.92,1.34l-.03.14h-4.19l.02-.19c.09-1.03.44-1.95,1.04-2.75.6-.8,1.43-1.43,2.5-1.88,1.07-.45,2.34-.68,3.8-.68s2.7.23,3.77.7c1.06.46,1.89,1.12,2.48,1.96.59.84.88,1.83.88,2.95v11.48h-4.56v-2.48h-.09c-.32.56-.73,1.05-1.22,1.47-.49.42-1.05.73-1.68.95-.63.22-1.31.33-2.04.33Z"/><path class="an" d="M960.08,1236.89c-1.41,0-2.62-.35-3.64-1.05-1.02-.7-1.81-1.7-2.36-3-.55-1.3-.83-2.86-.83-4.67v-.02c0-1.82.28-3.38.83-4.68.55-1.3,1.34-2.29,2.36-2.98,1.02-.69,2.23-1.04,3.62-1.04.8,0,1.54.13,2.2.39.67.26,1.25.63,1.76,1.12.5.48.91,1.07,1.21,1.74h.09v-8.7h4.56v22.55h-4.56v-2.86h-.09c-.3.67-.7,1.24-1.2,1.72-.5.48-1.08.85-1.75,1.1-.67.25-1.4.38-2.2.38ZM961.61,1233.11c.74,0,1.39-.2,1.95-.6.56-.4,1-.97,1.3-1.71.31-.74.46-1.61.46-2.62v-.02c0-1-.16-1.87-.47-2.61-.31-.74-.75-1.31-1.3-1.71-.56-.4-1.21-.6-1.95-.6s-1.42.2-1.97.59c-.55.4-.98.96-1.28,1.7-.3.73-.45,1.61-.45,2.63v.02c0,1.01.15,1.89.45,2.62.3.74.72,1.31,1.28,1.71.56.4,1.22.6,1.98.6Z"/><path class="an" d="M980.56,1236.89c-1.71,0-3.18-.35-4.41-1.05-1.23-.7-2.18-1.71-2.84-3.01-.67-1.3-1-2.84-1-4.62v-.02c0-1.78.33-3.33,1-4.63.67-1.31,1.6-2.32,2.8-3.03,1.2-.71,2.62-1.07,4.26-1.07s3.05.35,4.24,1.04c1.19.69,2.11,1.67,2.77,2.93.65,1.26.98,2.73.98,4.42v1.42h-13.8v-2.89h11.64l-2.17,2.7v-1.77c0-.98-.15-1.8-.45-2.46-.3-.66-.72-1.16-1.26-1.49-.54-.33-1.16-.5-1.87-.5s-1.34.17-1.88.52-.97.85-1.28,1.51c-.31.66-.46,1.47-.46,2.43v1.78c0,.92.15,1.7.46,2.36.31.66.75,1.16,1.32,1.51.57.35,1.25.52,2.05.52.62,0,1.17-.1,1.62-.3.46-.2.83-.45,1.12-.75.29-.3.49-.61.59-.92l.03-.09h4.19l-.05.17c-.12.62-.37,1.23-.73,1.86-.37.62-.86,1.2-1.48,1.72-.62.52-1.38.94-2.27,1.25s-1.94.47-3.13.47Z"/><line class="o" x1="356.41" y1="1147" x2="366.05" y2="1147"/><polygon class="aj" points="357.86 1151.99 349.23 1147 357.86 1142.01 357.86 1151.99"/><polygon class="aj" points="364.59 1151.99 373.23 1147 364.59 1142.01 364.59 1151.99"/><line class="o" x1="356.41" y1="1187" x2="366.05" y2="1187"/><polygon class="aj" points="357.86 1191.99 349.23 1187 357.86 1182.01 357.86 1191.99"/><polygon class="aj" points="364.59 1191.99 373.23 1187 364.59 1182.01 364.59 1191.99"/><line class="o" x1="356.41" y1="1227" x2="366.05" y2="1227"/><polygon class="aj" points="357.86 1231.99 349.23 1227 357.86 1222.01 357.86 1231.99"/><polygon class="aj" points="364.59 1231.99 373.23 1227 364.59 1222.01 364.59 1231.99"/><line class="o" x1="614.81" y1="1147" x2="624.46" y2="1147"/><polygon class="aj" points="616.27 1151.99 607.63 1147 616.27 1142.01 616.27 1151.99"/><polygon class="aj" points="623 1151.99 631.63 1147 623 1142.01 623 1151.99"/><line class="o" x1="614.81" y1="1187" x2="624.46" y2="1187"/><polygon class="aj" points="616.27 1191.99 607.63 1187 616.27 1182.01 616.27 1191.99"/><polygon class="aj" points="623 1191.99 631.63 1187 623 1182.01 623 1191.99"/><line class="o" x1="614.81" y1="1227" x2="624.46" y2="1227"/><polygon class="aj" points="616.27 1231.99 607.63 1227 616.27 1222.01 616.27 1231.99"/><polygon class="aj" points="623 1231.99 631.63 1227 623 1222.01 623 1231.99"/><line class="o" x1="893.21" y1="1147" x2="902.86" y2="1147"/><polygon class="aj" points="894.67 1151.99 886.03 1147 894.67 1142.01 894.67 1151.99"/><polygon class="aj" points="901.4 1151.99 910.03 1147 901.4 1142.01 901.4 1151.99"/><line class="o" x1="893.21" y1="1187" x2="902.86" y2="1187"/><polygon class="aj" points="894.67 1191.99 886.03 1187 894.67 1182.01 894.67 1191.99"/><polygon class="aj" points="901.4 1191.99 910.03 1187 901.4 1182.01 901.4 1191.99"/><line class="o" x1="893.21" y1="1227" x2="902.86" y2="1227"/><polygon class="aj" points="894.67 1231.99 886.03 1227 894.67 1222.01 894.67 1231.99"/><polygon class="aj" points="901.4 1231.99 910.03 1227 901.4 1222.01 901.4 1231.99"/><line class="o" x1="356.41" y1="1267" x2="366.05" y2="1267"/><polygon class="aj" points="357.86 1271.99 349.23 1267 357.86 1262.01 357.86 1271.99"/><polygon class="aj" points="364.59 1271.99 373.23 1267 364.59 1262.01 364.59 1271.99"/><circle class="d" cx="361" cy="719" r="60"/></g></svg>