<?xml version="1.0" encoding="UTF-8"?><svg id="b" xmlns="http://www.w3.org/2000/svg" viewBox="0 0 1080 1080"><defs><style>.c{fill:#00549e;}.d{fill:#7a0000;}.e{fill:#ffd400;}.f{fill:#f0f;}.g{stroke-dasharray:8 8;}.g,.h{fill:none;stroke:#f0883e;stroke-miterlimit:10;stroke-width:4px;}.i{fill:#00aeef;}.j{fill:#8613d9;}.k{fill:#fff;}.l{fill:green;}.m{fill:#3d444d;}.n{fill:#413500;}.o{fill:red;}.p{fill:#001f41;}.q{fill:#300352;}.r{fill:#f0f6fc;}.s{fill:#003d00;}.t{fill:#c9d1d9;}.u{fill:#f0883e;}.v{fill:#003a52;}.w{fill:#670067;}</style></defs><rect x="0" y="0" width="1080" height="1080"/><circle class="o" cx="540" cy="317.65" r="63.53"/><circle class="d" cx="540" cy="158.82" r="63.53"/><circle class="c" cx="540" cy="762.35" r="63.53"/><circle class="p" cx="540" cy="921.18" r="63.53"/><circle class="r" cx="762.35" cy="540" r="63.53"/><circle class="m" cx="921.18" cy="540" r="63.53"/><circle class="l" cx="317.65" cy="540" r="63.53"/><circle class="s" cx="158.82" cy="540" r="63.53"/><circle class="f" cx="697.23" cy="382.77" r="63.53"/><circle class="w" cx="809.53" cy="270.47" r="63.53"/><circle class="i" cx="382.77" cy="697.23" r="63.53"/><circle class="v" cx="270.47" cy="809.53" r="63.53"/><circle class="j" cx="697.23" cy="697.23" r="63.53"/><circle class="q" cx="809.53" cy="809.53" r="63.53"/><circle class="e" cx="382.77" cy="382.77" r="63.53"/><circle class="n" cx="270.47" cy="270.47" r="63.53"/><circle class="k" cx="540" cy="540" r="95.29"/><rect class="t" x="571.76" y="476.47" width="31.76" height="31.76"/><rect class="t" x="508.24" y="476.47" width="31.76" height="31.76"/><rect class="t" x="571.76" y="540" width="31.76" height="31.76"/><rect class="t" x="540" y="508.24" width="31.76" height="31.76"/><rect class="t" x="508.24" y="540" width="31.76" height="31.76"/><rect class="t" x="476.47" y="508.24" width="31.76" height="31.76"/><rect class="t" x="540" y="571.76" width="31.76" height="31.76"/><rect class="t" x="476.47" y="571.76" width="31.76" height="31.76"/><path class="t" d="M571.76,476.47v-26.32c-9.94-3.51-20.62-5.44-31.76-5.44v31.76h31.76Z"/><path class="t" d="M508.24,476.47v-26.32c-11.84,4.19-22.6,10.63-31.76,18.84v7.48h31.76Z"/><path class="t" d="M611.01,476.47c-2.35-2.63-4.85-5.13-7.48-7.48v7.48h7.48Z"/><path class="t" d="M476.47,476.47h-7.48c-8.21,9.17-14.66,19.93-18.84,31.76h26.32v-31.76Z"/><path class="t" d="M603.53,540h31.76c0-11.14-1.93-21.83-5.44-31.76h-26.32v31.76Z"/><path class="t" d="M476.47,540h-31.76c0,11.14,1.93,21.83,5.44,31.76h26.32v-31.76Z"/><path class="t" d="M571.76,603.53v26.32c11.84-4.19,22.6-10.63,31.76-18.84v-7.48h-31.76Z"/><path class="t" d="M508.24,603.53v26.32c9.94,3.51,20.62,5.44,31.76,5.44v-31.76h-31.76Z"/><path class="t" d="M603.53,603.53h7.48c8.21-9.17,14.66-19.93,18.84-31.76h-26.32v31.76Z"/><path class="t" d="M468.99,603.53c2.35,2.63,4.85,5.13,7.48,7.48v-7.48h-7.48Z"/><path class="h" d="M565.91,153.97c8.83,86.83,7.68,208.09-3.44,285.96-12.4,86.83-32.52,86.83-44.92,0"/><polygon class="u" points="546.68 162.11 562.46 125.48 586.3 157.46 546.68 162.11"/><path class="g" d="M514.09,411.44c-8.83-86.83-7.68-208.09,3.44-285.96,12.4-86.83,32.52-86.83,44.92,0"/><polygon class="u" points="533.32 403.3 517.54 439.93 493.7 407.96 533.32 403.3"/><path class="h" d="M514.09,926.03c-8.83-86.83-7.68-208.09,3.44-285.96,12.4-86.83,32.52-86.83,44.92,0"/><polygon class="u" points="533.32 917.89 517.54 954.52 493.7 922.54 533.32 917.89"/><path class="g" d="M565.91,668.56c8.83,86.83,7.68,208.09-3.44,285.96-12.4,86.83-32.52,86.83-44.92,0"/><polygon class="u" points="546.68 676.7 562.46 640.07 586.3 672.04 546.68 676.7"/><path class="h" d="M153.97,514.09c86.83-8.83,208.09-7.68,285.96,3.44,86.83,12.41,86.83,32.52,0,44.92"/><polygon class="u" points="162.11 533.32 125.48 517.54 157.46 493.7 162.11 533.32"/><path class="g" d="M411.44,565.91c-86.83,8.83-208.09,7.68-285.96-3.44-86.83-12.41-86.83-32.52,0-44.92"/><polygon class="u" points="403.3 546.68 439.93 562.46 407.96 586.3 403.3 546.68"/><path class="h" d="M926.03,565.91c-86.83,8.83-208.09,7.68-285.96-3.44-86.83-12.41-86.83-32.52,0-44.92"/><polygon class="u" points="917.89 546.68 954.52 562.46 922.54 586.3 917.89 546.68"/><path class="g" d="M668.56,514.09c86.83-8.83,208.09-7.68,285.96,3.44,86.83,12.41,86.83,32.52,0,44.92"/><polygon class="u" points="676.7 533.32 640.07 517.54 672.04 493.7 676.7 533.32"/><path class="h" d="M285.36,248.72c67.64,55.15,152.57,141.71,199.77,204.64,52.63,70.17,38.41,84.39-31.76,31.76"/><polygon class="u" points="277.51 268.07 262.77 231.01 302.24 236.76 277.51 268.07"/><path class="g" d="M430.77,467.41c-67.64-55.15-152.57-141.71-199.77-204.64-52.63-70.17-38.41-84.39,31.76-31.76"/><polygon class="u" points="438.62 448.06 453.36 485.12 413.89 479.37 438.62 448.06"/><path class="h" d="M794.64,831.28c-67.64-55.15-152.57-141.71-199.77-204.64-52.63-70.17-38.41-84.39,31.76-31.76"/><polygon class="u" points="802.49 811.93 817.23 848.99 777.76 843.24 802.49 811.93"/><path class="g" d="M649.23,612.59c67.64,55.15,152.57,141.71,199.77,204.64,52.63,70.17,38.41,84.39-31.76,31.76"/><polygon class="u" points="641.38 631.94 626.64 594.88 666.11 600.63 641.38 631.94"/><path class="h" d="M248.72,794.64c55.15-67.64,141.71-152.57,204.64-199.77,70.17-52.63,84.39-38.41,31.76,31.76"/><polygon class="u" points="268.07 802.49 231.01 817.23 236.76 777.76 268.07 802.49"/><path class="g" d="M467.41,649.23c-55.15,67.64-141.71,152.57-204.64,199.77-70.17,52.63-84.39,38.41-31.76-31.76"/><polygon class="u" points="448.06 641.38 485.12 626.64 479.37 666.11 448.06 641.38"/><path class="h" d="M831.28,285.36c-55.15,67.64-141.71,152.57-204.64,199.77-70.17,52.63-84.39,38.41-31.76-31.76"/><polygon class="u" points="811.93 277.51 848.99 262.77 843.24 302.24 811.93 277.51"/><path class="g" d="M612.59,430.77c55.15-67.64,141.71-152.57,204.64-199.77,70.17-52.63,84.39-38.41,31.76,31.76"/><polygon class="u" points="631.94 438.62 594.88 453.36 600.63 413.89 631.94 438.62"/></svg>