<?xml version="1.0" encoding="UTF-8"?><svg id="b" xmlns="http://www.w3.org/2000/svg" viewBox="0 0 1080 1080"><defs><style>.c{fill:#ffd400;}.d{fill:#f0f;}.e{fill:#00aeef;}.f{fill:#fff;}.g{fill:green;}.h{fill:#0067c0;}.i{fill:#6a0dad;}.j{fill:red;}.k{fill:#f0f6fc;}.l{fill:#c9d1d9;}</style></defs><rect class="f" x="360" y="360" width="360" height="360"/><rect class="l" x="600" y="420" width="60" height="60"/><rect class="l" x="540" y="360" width="60" height="60"/><rect class="l" x="480" y="420" width="60" height="60"/><rect class="l" x="420" y="360" width="60" height="60"/><rect class="l" x="660" y="360" width="60" height="60"/><rect class="l" x="360" y="420" width="60" height="60"/><rect class="l" x="600" y="540" width="60" height="60"/><rect class="l" x="540" y="480" width="60" height="60"/><rect class="l" x="480" y="540" width="60" height="60"/><rect class="l" x="420" y="480" width="60" height="60"/><rect class="l" x="660" y="480" width="60" height="60"/><rect class="l" x="360" y="540" width="60" height="60"/><rect class="l" x="600" y="660" width="60" height="60"/><rect class="l" x="540" y="600" width="60" height="60"/><rect class="l" x="480" y="660" width="60" height="60"/><rect class="l" x="420" y="600" width="60" height="60"/><rect class="l" x="660" y="600" width="60" height="60"/><rect class="l" x="360" y="660" width="60" height="60"/><rect class="c" width="360" height="360"/><rect class="j" x="360" width="360" height="360"/><rect class="d" x="720" width="360" height="360"/><rect class="i" x="720" y="720" width="360" height="360"/><rect class="e" y="720" width="360" height="360"/><rect class="h" x="360" y="720" width="360" height="360"/><rect class="g" y="360" width="360" height="360"/><rect class="k" x="720" y="360" width="360" height="360"/></svg>