<?xml version="1.0" encoding="UTF-8"?><svg xmlns="http://www.w3.org/2000/svg" viewBox="0 0 1080 1350"><defs><style>.c{fill:#1f2328;}.d{stroke:#d1d5db;stroke-miterlimit:10;stroke-width:4px;}.d,.e{fill:#fff;}.f{fill:#ffd400;}.g{fill:#f0f;}.h{fill:#1f2937;}.i{fill:#6b7280;}.j{fill:#00aeef;}.k{fill:green;}.l{fill:#0067c0;}.m{fill:#6a0dad;}.n{fill:red;}.o{fill:#f0f6fc;}.p{fill:#c9d1d9;}</style></defs><g id="a"><rect class="e" width="1080" height="1350"/></g><g id="b"><rect class="e" x="360" y="360" width="360" height="360"/><rect class="p" x="600" y="420" width="60" height="60"/><rect class="p" x="540" y="360" width="60" height="60"/><rect class="p" x="480" y="420" width="60" height="60"/><rect class="p" x="420" y="360" width="60" height="60"/><rect class="p" x="660" y="360" width="60" height="60"/><rect class="p" x="360" y="420" width="60" height="60"/><rect class="p" x="600" y="540" width="60" height="60"/><rect class="p" x="540" y="480" width="60" height="60"/><rect class="p" x="480" y="540" width="60" height="60"/><rect class="p" x="420" y="480" width="60" height="60"/><rect class="p" x="660" y="480" width="60" height="60"/><rect class="p" x="360" y="540" width="60" height="60"/><rect class="p" x="600" y="660" width="60" height="60"/><rect class="p" x="540" y="600" width="60" height="60"/><rect class="p" x="480" y="660" width="60" height="60"/><rect class="p" x="420" y="600" width="60" height="60"/><rect class="p" x="660" y="600" width="60" height="60"/><rect class="p" x="360" y="660" width="60" height="60"/><rect class="f" width="360" height="360"/><rect class="n" x="360" width="360" height="360"/><rect class="g" x="720" width="360" height="360"/><rect class="m" x="720" y="720" width="360" height="360"/><rect class="j" y="720" width="360" height="360"/><rect class="l" x="360" y="720" width="360" height="360"/><rect class="k" y="360" width="360" height="360"/><rect class="o" x="720" y="360" width="360" height="360"/><rect class="d" x="240" y="600" width="240" height="240" rx="120" ry="120"/><path class="c" d="M152.9,218.25l29.77-31.05c11.43-11.89,14.06-16.46,14.06-23.5v-.12c-.06-8.61-6.56-14.82-15.76-14.82-10.55,0-18.4,7.27-18.4,16.35v.29h-10.2v-.35c0-14.65,12.66-25.49,28.42-25.49s26.48,10.25,26.48,23.5v.12c0,9.26-4.28,16.23-19.8,32.11l-20.1,20.62v.23h41.31v9.38h-55.78v-7.27Z"/><path class="c" d="M149.3,922.66v-.12c0-10.43,7.32-19.1,18.16-21.62v-.23c-9.26-2.87-15.12-9.9-15.12-18.81v-.12c0-12.77,11.66-22.21,27.66-22.21s27.66,9.43,27.66,22.21v.12c0,8.91-5.86,15.94-15.12,18.81v.23c10.84,2.52,18.16,11.19,18.16,21.62v.12c0,14.18-12.77,24.26-30.7,24.26s-30.7-10.08-30.7-24.26ZM199.98,922.02v-.12c0-9.26-8.26-15.88-19.98-15.88s-19.98,6.62-19.98,15.88v.12c0,9.14,8.32,15.7,19.98,15.7s19.98-6.56,19.98-15.7ZM197.17,882.76v-.12c0-8.2-6.97-14-17.17-14s-17.17,5.8-17.17,14v.12c0,8.2,6.97,14,17.17,14s17.17-5.8,17.17-14Z"/><path class="o" d="M910.78,207.94h-42.48v-9.55l37.09-57.42h15.59v57.71h11.95v9.26h-11.95v17.58h-10.2v-17.58ZM910.78,198.68v-48.69h-.35l-31.7,48.46v.23h32.05Z"/><path class="o" d="M865.43,872.15h-.23l-22.38,15.59v-10.61l22.5-16.17h10.31v84.55h-10.2v-73.36Z"/><path class="o" d="M895.55,903.27v-.12c0-26.84,11.54-43.59,31-43.59s31.11,16.76,31.11,43.59v.12c0,26.84-11.66,43.65-31.11,43.65s-31-16.82-31-43.65ZM947.05,903.27v-.12c0-21.21-7.62-34.34-20.51-34.34s-20.39,13.12-20.39,34.34v.12c0,21.21,7.5,34.45,20.39,34.45s20.51-13.24,20.51-34.45Z"/><path class="o" d="M509.95,203.84l-.06-.7h10.14l.06.59c.88,8.32,8.5,14.06,19.75,14.06s18.63-6.21,18.63-15.18v-.12c0-10.37-7.44-16.17-19.28-16.17h-10.61v-8.91h10.14c10.08,0,17.11-6.21,17.11-14.65v-.12c0-8.85-5.8-13.95-16.11-13.95s-17.05,5.27-17.93,13.83l-.06.59h-10.14l.06-.59c1.35-13.77,12.25-22.97,28.07-22.97s26.72,8.96,26.72,21.8v.12c0,10.43-7.38,17.58-17.93,19.8v.23c12.3,1.05,20.68,8.73,20.68,20.74v.12c0,14.12-12.42,24.55-29.36,24.55s-28.77-9.73-29.88-23.09Z"/><path class="o" d="M571.7,903.19v.12c0,28.48-12.13,45.12-32.81,45.12-14.36,0-25.08-8.2-27.89-20.51l-.18-.76h10.72l.23.64c2.52,6.97,8.55,11.31,17.23,11.31,15.76,0,21.97-15.29,22.44-33.05.06-.59.06-1.17.06-1.82h-.23c-3.4,7.5-12.07,13.59-23.55,13.59-16.11,0-28.07-11.89-28.07-27.95v-.12c0-16.64,12.66-28.71,29.94-28.71,15.59,0,32.11,10.78,32.11,42.13ZM558.99,889.95v-.06c0-10.84-8.44-19.45-19.28-19.45s-19.34,8.44-19.34,19.1v.12c0,11.02,8.03,18.93,19.16,18.93s19.45-7.85,19.45-18.63Z"/><path class="o" d="M151.88,563.07l-.06-.64h10.37l.06.47c1.05,8.38,8.55,14.77,18.69,14.77,11.48,0,19.45-7.97,19.45-19.34v-.12c-.06-11.13-8.09-19.1-19.28-19.1-5.74,0-10.66,1.7-14.41,5.1-1.52,1.41-2.87,3.05-3.98,4.98h-9.32l4.34-48.22h48.4v9.38h-39.73l-2.87,28.42h.23c3.98-5.68,11.02-8.73,19.22-8.73,16.23,0,27.95,11.78,27.95,28.01v.12c-.06,16.93-12.54,28.77-30.12,28.77-16.17,0-27.71-10.08-28.95-23.85Z"/><path class="c" d="M917.17,510.57v-.23h-45.53v-9.38h55.96v9.79l-37.62,74.77h-11.07l38.26-74.94Z"/><path class="c" d="M508.3,544.79v-.12c0-28.48,12.13-45.12,32.81-45.12,14.36,0,25.08,8.2,27.89,20.51l.18.76h-10.72l-.23-.64c-2.52-6.97-8.55-11.31-17.23-11.31-15.76,0-21.97,15.29-22.44,33.05-.06.59-.06,1.17-.06,1.82h.23c3.4-7.5,12.07-13.59,23.55-13.59,16.11,0,28.07,11.89,28.07,27.95v.12c0,16.64-12.66,28.71-29.94,28.71-15.59,0-32.11-10.78-32.11-42.13ZM540.3,577.55c10.78,0,19.34-8.44,19.34-19.1v-.12c0-11.02-8.03-18.93-19.16-18.93s-19.45,7.85-19.45,18.63v.06c0,10.84,8.44,19.45,19.28,19.45Z"/><path class="c" d="M354.61,686.88h-.23l-22.38,15.59v-10.61l22.5-16.17h10.31v84.55h-10.2v-73.36Z"/><path class="i" d="M77.1,1237.14v-18.34h-.06l-5.6,3.9v-2.65l5.62-4.04h2.58v21.14h-2.55Z"/><path class="i" d="M92.38,1237.49c-1.62,0-3.01-.44-4.17-1.33-1.16-.89-2.04-2.15-2.66-3.78s-.92-3.56-.92-5.8v-.03c0-2.24.31-4.17.92-5.8s1.5-2.89,2.66-3.77c1.16-.88,2.55-1.33,4.17-1.33s3.01.44,4.17,1.33c1.16.88,2.05,2.14,2.67,3.77.62,1.63.93,3.56.93,5.8v.03c0,2.24-.31,4.17-.93,5.8-.62,1.63-1.51,2.89-2.67,3.78s-2.55,1.33-4.17,1.33ZM92.38,1235.19c1.07,0,1.99-.35,2.76-1.05.77-.7,1.35-1.69,1.76-2.98.4-1.29.61-2.82.61-4.58v-.03c0-1.77-.2-3.29-.61-4.58-.41-1.28-.99-2.27-1.76-2.97-.77-.69-1.69-1.04-2.76-1.04s-1.99.35-2.75,1.04-1.34,1.68-1.74,2.97c-.4,1.29-.6,2.81-.6,4.58v.03c0,1.77.2,3.3.6,4.58s.98,2.28,1.74,2.98c.76.7,1.68,1.05,2.75,1.05Z"/><path class="i" d="M109.7,1237.14v-21.14h2.56l13.87,19.91-3.34-3.22h1.17v-16.68h2.61v21.14h-2.56l-13.87-19.91,3.34,3.22h-1.17v16.68h-2.61Z"/><path class="i" d="M136.59,1237.43c-1.41,0-2.64-.32-3.7-.97-1.06-.64-1.88-1.56-2.47-2.75-.59-1.19-.89-2.58-.89-4.2v-.03c0-1.62.29-3.02.89-4.2.59-1.18,1.42-2.09,2.47-2.72,1.06-.64,2.29-.96,3.68-.96s2.64.32,3.7.96c1.06.64,1.88,1.55,2.48,2.72.59,1.18.89,2.58.89,4.2v.03c0,1.62-.3,3.02-.89,4.2-.59,1.18-1.41,2.09-2.47,2.74s-2.29.97-3.69.97ZM136.61,1235.17c.9,0,1.68-.22,2.34-.67.66-.44,1.17-1.09,1.54-1.93.37-.84.55-1.86.55-3.05v-.03c0-1.19-.18-2.21-.55-3.05-.37-.84-.88-1.48-1.55-1.92-.67-.44-1.45-.66-2.35-.66s-1.65.22-2.32.67c-.67.44-1.19,1.08-1.56,1.92-.37.84-.56,1.85-.56,3.04v.03c0,1.19.19,2.21.56,3.05.37.85.89,1.49,1.56,1.93.67.45,1.45.67,2.35.67Z"/><path class="i" d="M151.93,1237.43c-1.3,0-2.43-.33-3.41-.97-.97-.65-1.73-1.57-2.26-2.75-.54-1.19-.81-2.58-.81-4.18h0c0-1.62.27-3.01.81-4.19.54-1.18,1.3-2.1,2.26-2.75.97-.65,2.08-.97,3.35-.97.72,0,1.39.11,2.01.34.62.23,1.17.56,1.66.98.49.43.89.93,1.2,1.52h.06v-8.45h2.55v21.14h-2.55v-2.58h-.06c-.31.6-.71,1.11-1.19,1.53-.48.43-1.02.75-1.63.99-.61.23-1.28.35-2.01.35ZM152.43,1235.17c.86,0,1.62-.23,2.29-.7s1.18-1.13,1.56-1.98c.38-.85.56-1.84.56-2.97h0c0-1.15-.19-2.14-.57-2.98-.38-.84-.9-1.5-1.56-1.97-.66-.47-1.42-.7-2.28-.7s-1.67.23-2.33.69-1.16,1.11-1.51,1.95-.53,1.84-.53,3h0c0,1.18.18,2.18.53,3.03s.85,1.5,1.51,1.96c.65.45,1.43.68,2.33.68Z"/><path class="i" d="M169.08,1237.43c-1.46,0-2.71-.32-3.76-.97-1.05-.64-1.86-1.56-2.42-2.73-.56-1.18-.84-2.56-.84-4.15h0c0-1.59.28-2.97.85-4.17.57-1.2,1.36-2.13,2.39-2.8,1.03-.67,2.23-1,3.62-1s2.58.32,3.58.96c1,.64,1.77,1.54,2.31,2.69s.81,2.49.81,4.01v.94h-12.28v-1.99h11.02l-1.29,1.85v-.98c0-1.18-.18-2.16-.54-2.93-.36-.77-.85-1.34-1.47-1.72-.62-.38-1.34-.56-2.15-.56s-1.54.2-2.18.59c-.64.4-1.15.98-1.52,1.76-.37.78-.56,1.73-.56,2.86v.98c0,1.07.18,1.99.55,2.75.37.76.89,1.35,1.56,1.75.67.41,1.47.61,2.39.61.64,0,1.22-.1,1.73-.29s.93-.46,1.27-.81.59-.73.73-1.17l.04-.13h2.5l-.03.15c-.13.62-.37,1.21-.73,1.76-.36.55-.81,1.03-1.37,1.44-.56.42-1.19.74-1.9.97-.71.23-1.48.34-2.31.34Z"/><path class="i" d="M183.58,1237.43c-1.19,0-2.22-.19-3.09-.57s-1.56-.91-2.06-1.6c-.5-.68-.81-1.48-.92-2.39v-.13s2.53,0,2.53,0l.03.15c.16.76.52,1.35,1.1,1.78.58.42,1.38.64,2.42.64.69,0,1.28-.09,1.77-.27.49-.18.86-.44,1.13-.78.26-.34.4-.74.4-1.19h0c0-.56-.17-1-.5-1.33s-.93-.61-1.8-.82l-2.42-.59c-.96-.23-1.75-.54-2.38-.92-.63-.38-1.1-.84-1.41-1.38s-.47-1.19-.47-1.92h0c0-.89.24-1.67.71-2.34.47-.67,1.13-1.2,1.98-1.58.84-.38,1.81-.57,2.91-.57s2.08.2,2.91.59c.83.4,1.47.93,1.95,1.61.47.68.74,1.44.8,2.29v.19s-2.42,0-2.42,0v-.1c-.11-.74-.44-1.34-.99-1.79-.55-.45-1.3-.67-2.25-.67-.62,0-1.15.09-1.6.28s-.79.45-1.03.78c-.24.34-.36.73-.36,1.18h0c0,.36.08.67.24.94.16.28.42.52.77.73s.81.38,1.36.51l2.42.59c1.54.37,2.63.88,3.25,1.53.62.65.94,1.52.94,2.6h0c0,.9-.26,1.69-.77,2.37-.51.68-1.21,1.22-2.11,1.6-.89.39-1.91.58-3.04.58Z"/><path class="i" d="M77.1,1277.14v-18.34h-.06l-5.6,3.9v-2.65l5.62-4.04h2.58v21.14h-2.55Z"/><path class="i" d="M91.09,1269.75v-2.37h14.87v2.37h-14.87ZM97.33,1275.82v-14.5h2.37v14.5h-2.37Z"/><path class="i" d="M122.9,1255.65c.98,0,1.94.18,2.89.55.95.37,1.81.96,2.59,1.78.78.82,1.4,1.9,1.86,3.25.46,1.34.7,3,.7,4.96v.03c0,2.37-.33,4.4-.97,6.09-.65,1.68-1.58,2.97-2.81,3.86s-2.7,1.33-4.42,1.33c-1.19,0-2.27-.21-3.24-.64s-1.77-1.03-2.42-1.79c-.64-.77-1.08-1.66-1.32-2.69l-.04-.19h2.68l.06.16c.21.58.52,1.08.92,1.5.4.43.88.75,1.45.98.57.23,1.22.34,1.94.34,1.32,0,2.38-.38,3.19-1.14.8-.76,1.4-1.77,1.79-3.03.38-1.25.6-2.62.64-4.09,0-.1.01-.19.01-.29v-.29l-.63-3.47c0-.91-.21-1.73-.64-2.46-.43-.73-1-1.32-1.73-1.75-.73-.44-1.55-.65-2.45-.65s-1.71.21-2.45.64c-.73.43-1.31,1-1.74,1.72s-.64,1.53-.64,2.42v.03c0,.92.21,1.73.62,2.45s.98,1.27,1.7,1.68c.72.41,1.55.61,2.48.61s1.76-.2,2.49-.6,1.31-.95,1.74-1.66c.42-.7.64-1.5.64-2.4h0s.88-.01.88-.01v3.59h-.31c-.28.62-.7,1.19-1.26,1.71-.56.51-1.23.92-2.01,1.23-.79.31-1.66.46-2.61.46-1.34,0-2.54-.3-3.6-.91-1.06-.61-1.89-1.44-2.5-2.49-.61-1.05-.92-2.25-.92-3.59v-.03c0-1.39.32-2.62.97-3.7.65-1.08,1.54-1.93,2.66-2.55,1.12-.62,2.41-.93,3.85-.93Z"/><path class="i" d="M141.5,1259.33c-.44,0-.82-.16-1.13-.47s-.47-.69-.47-1.13.16-.83.47-1.13c.31-.31.69-.46,1.13-.46s.83.15,1.14.46.46.69.46,1.13-.15.82-.46,1.13c-.31.31-.69.47-1.14.47ZM140.22,1277.14v-15.23h2.55v15.23h-2.55Z"/><path class="i" d="M146.25,1277.14v-15.23h2.55v2.17h.06c.41-.71,1.01-1.3,1.79-1.76.78-.46,1.75-.7,2.9-.7,1.67,0,2.97.5,3.89,1.52.92,1.01,1.38,2.38,1.38,4.12v9.89h-2.55v-9.43c0-1.24-.29-2.19-.87-2.85-.58-.66-1.46-.99-2.63-.99-.8,0-1.5.18-2.09.53-.6.36-1.06.86-1.38,1.5-.33.64-.49,1.4-.49,2.27v8.96h-2.55Z"/><path class="i" d="M175.38,1277.49c-1.46,0-2.72-.25-3.81-.75s-1.94-1.18-2.57-2.05c-.63-.87-.99-1.86-1.09-2.97v-.18s2.52,0,2.52,0v.15c.09.69.34,1.3.77,1.83.42.53.99.94,1.71,1.24.71.3,1.54.45,2.48.45s1.74-.16,2.44-.48c.7-.32,1.24-.77,1.63-1.34.39-.57.59-1.23.59-1.97v-.03c0-1.3-.43-2.3-1.3-3-.86-.7-2.04-1.05-3.52-1.05h-2.65v-2.23h2.53c.84,0,1.58-.16,2.23-.48.64-.32,1.15-.75,1.51-1.3.36-.55.54-1.18.54-1.88v-.03c0-.74-.16-1.37-.47-1.89s-.77-.91-1.37-1.19c-.6-.27-1.33-.41-2.19-.41s-1.57.14-2.22.42c-.65.28-1.17.68-1.56,1.19s-.62,1.13-.7,1.85v.15h-2.55v-.15c.13-1.15.5-2.16,1.11-3.02.61-.86,1.42-1.53,2.43-2.01,1.01-.48,2.18-.72,3.49-.72s2.52.23,3.52.7c1,.46,1.78,1.1,2.33,1.92.55.81.83,1.76.83,2.83v.03c0,.87-.19,1.64-.57,2.31s-.91,1.24-1.58,1.68-1.45.77-2.33.95v.06c1.54.13,2.79.65,3.74,1.56.95.91,1.43,2.12,1.43,3.62v.03c0,1.17-.32,2.22-.95,3.15s-1.5,1.66-2.61,2.19c-1.1.53-2.36.8-3.78.8Z"/><path class="i" d="M198.77,1261.38l1.61,1.61-12.42,12.79-1.61-1.61,12.42-12.79ZM186.35,1262.99l1.61-1.61,12.42,12.79-1.61,1.61-12.42-12.79Z"/><path class="i" d="M211.27,1277.49c-1.46,0-2.72-.25-3.81-.75s-1.94-1.18-2.57-2.05c-.63-.87-.99-1.86-1.09-2.97v-.18s2.52,0,2.52,0v.15c.09.69.34,1.3.77,1.83.42.53.99.94,1.71,1.24.71.3,1.54.45,2.48.45s1.74-.16,2.44-.48c.7-.32,1.24-.77,1.63-1.34.39-.57.59-1.23.59-1.97v-.03c0-1.3-.43-2.3-1.3-3-.86-.7-2.04-1.05-3.52-1.05h-2.65v-2.23h2.53c.84,0,1.58-.16,2.23-.48.64-.32,1.15-.75,1.51-1.3.36-.55.54-1.18.54-1.88v-.03c0-.74-.16-1.37-.47-1.89s-.77-.91-1.37-1.19c-.6-.27-1.33-.41-2.19-.41s-1.57.14-2.22.42c-.65.28-1.17.68-1.56,1.19s-.62,1.13-.7,1.85v.15h-2.55v-.15c.13-1.15.5-2.16,1.11-3.02.61-.86,1.42-1.53,2.43-2.01,1.01-.48,2.18-.72,3.49-.72s2.52.23,3.52.7c1,.46,1.78,1.1,2.33,1.92.55.81.83,1.76.83,2.83v.03c0,.87-.19,1.64-.57,2.31s-.91,1.24-1.58,1.68-1.45.77-2.33.95v.06c1.54.13,2.79.65,3.74,1.56.95.91,1.43,2.12,1.43,3.62v.03c0,1.17-.32,2.22-.95,3.15s-1.5,1.66-2.61,2.19c-1.1.53-2.36.8-3.78.8Z"/><path class="h" d="M71.55,1160.49l-.02-.38h6.68l.05.26c.45,2.62,3.23,4.27,7.1,4.27s6.38-1.71,6.38-4.29v-.02c0-2.3-1.66-3.45-5.86-4.31l-3.56-.7c-6.68-1.34-10.05-4.52-10.05-9.61v-.02c0-6.19,5.39-10.27,12.89-10.27s12.63,3.91,12.96,9.84l.02.45h-6.68l-.02-.28c-.35-2.65-2.79-4.27-6.28-4.27-3.63.02-5.81,1.69-5.81,4.1v.02c0,2.13,1.73,3.38,5.62,4.15l3.59.73c7.08,1.41,10.27,4.29,10.27,9.61v.02c0,6.49-5.11,10.62-13.64,10.62-8.04,0-13.22-3.68-13.62-9.91Z"/><path class="h" d="M102.92,1137.9c0-1.95,1.59-3.56,3.66-3.56s3.66,1.62,3.66,3.56-1.59,3.56-3.66,3.56-3.66-1.62-3.66-3.56ZM103.15,1144.7h6.84v25.12h-6.84v-25.12Z"/><path class="h" d="M114.13,1157.26v-.02c0-8.18,3.89-13.05,10.22-13.05,3.56,0,6.38,1.83,7.73,4.88h.14v-13.05h6.84v33.82h-6.84v-4.29h-.14c-1.34,2.98-4.1,4.8-7.73,4.8-6.33,0-10.22-4.92-10.22-13.08ZM132.25,1157.26v-.02c0-4.52-2.3-7.38-5.6-7.38s-5.55,2.79-5.55,7.38v.02c0,4.57,2.13,7.41,5.55,7.41s5.6-2.86,5.6-7.41Z"/><path class="h" d="M143.21,1157.3v-.02c0-7.99,4.71-13.1,12.07-13.1s11.98,4.99,11.98,12.59v2.11h-17.3c.07,4.01,2.25,6.35,5.74,6.35,2.81,0,4.52-1.55,5.02-2.95l.05-.14h6.28l-.07.26c-.77,3.7-4.24,7.95-11.41,7.95-7.69,0-12.35-4.99-12.35-13.03ZM150.03,1154.56h10.66c-.42-3.47-2.46-5.27-5.3-5.27s-4.92,1.88-5.37,5.27Z"/><path class="h" d="M191.46,1136h8.32l11.79,33.82h-7.43l-2.55-8.2h-11.95l-2.55,8.2h-7.43l11.81-33.82ZM191.28,1156.32h8.67l-4.27-13.76h-.14l-4.27,13.76Z"/><path class="i" d="M372.84,1156.55v-1.94l7.94-8.28c1.02-1.06,1.8-1.94,2.34-2.63.54-.69.91-1.31,1.11-1.87.2-.55.3-1.14.3-1.77v-.03c0-.77-.18-1.45-.54-2.05s-.85-1.06-1.48-1.4c-.63-.34-1.36-.51-2.18-.51-.94,0-1.78.2-2.52.59-.74.39-1.32.91-1.75,1.57-.43.66-.64,1.39-.64,2.2v.08h-2.72v-.09c0-1.3.34-2.47,1.02-3.49.68-1.03,1.59-1.83,2.74-2.42,1.15-.59,2.42-.88,3.82-.88s2.58.28,3.64.83c1.06.55,1.9,1.3,2.51,2.25.61.95.91,2.01.91,3.19v.03c0,.82-.15,1.62-.46,2.39-.31.77-.84,1.64-1.6,2.6-.76.96-1.83,2.15-3.22,3.57l-6.19,6.34.83-1.73v1.73l-.83-.78h11.84v2.5h-14.88Z"/><path class="i" d="M392.56,1156.77c-.5,0-.92-.17-1.27-.52s-.52-.77-.52-1.27.17-.92.52-1.27.77-.52,1.27-.52.92.17,1.27.52.52.77.52,1.27-.17.92-.52,1.27-.77.52-1.27.52Z"/><path class="i" d="M379.98,1196.92c-1.44,0-2.72-.28-3.84-.83-1.12-.55-2.02-1.31-2.7-2.27-.68-.96-1.07-2.05-1.19-3.27l-.02-.17h2.77l.02.12c.09.74.36,1.41.81,2.01.45.6,1.03,1.07,1.75,1.41s1.53.52,2.42.52c1.02,0,1.92-.22,2.7-.66s1.39-1.04,1.83-1.82c.44-.78.66-1.67.66-2.68v-.03c0-.99-.22-1.87-.66-2.63-.44-.77-1.05-1.37-1.82-1.8-.77-.44-1.66-.66-2.66-.66-.76,0-1.47.11-2.12.34-.65.22-1.23.57-1.73,1.02-.2.19-.39.39-.57.61-.18.22-.35.46-.49.72h-2.48l1.16-12.86h12.91v2.5h-10.59l-.77,7.58h.06c.35-.51.79-.94,1.31-1.28.52-.34,1.1-.6,1.75-.78.65-.18,1.33-.27,2.06-.27,1.45,0,2.73.32,3.85.97,1.12.65,2,1.53,2.64,2.65.64,1.12.96,2.4.96,3.85v.03c0,1.5-.34,2.83-1.03,3.98s-1.64,2.06-2.84,2.71c-1.21.65-2.59.98-4.16.98Z"/><path class="i" d="M392.56,1196.77c-.5,0-.92-.17-1.27-.52s-.52-.77-.52-1.27.17-.92.52-1.27.77-.52,1.27-.52.92.17,1.27.52.52.77.52,1.27-.17.92-.52,1.27-.77.52-1.27.52Z"/><path class="i" d="M380,1236.92c-1.59,0-3.01-.28-4.23-.83-1.23-.55-2.2-1.31-2.9-2.29-.7-.97-1.05-2.09-1.05-3.35v-.03c0-.93.2-1.79.61-2.58.41-.79.97-1.47,1.7-2.02.73-.56,1.57-.95,2.53-1.16v-.06c-1.23-.38-2.21-1.02-2.94-1.91-.73-.88-1.09-1.92-1.09-3.11v-.03c0-1.13.32-2.15.95-3.04.63-.89,1.51-1.59,2.62-2.11,1.11-.52,2.38-.77,3.8-.77s2.7.26,3.8.77,1.98,1.22,2.62,2.11c.63.89.95,1.9.95,3.04v.03c0,1.19-.36,2.22-1.09,3.11-.72.89-1.71,1.52-2.95,1.91v.06c.97.22,1.81.61,2.54,1.16.72.56,1.29,1.23,1.7,2.02.41.79.61,1.65.61,2.58v.03c0,1.26-.35,2.38-1.05,3.35-.7.97-1.66,1.74-2.9,2.29s-2.65.83-4.24.83ZM380,1234.47c1.04,0,1.96-.18,2.76-.54s1.42-.85,1.88-1.48c.46-.63.69-1.35.69-2.16v-.03c0-.82-.23-1.55-.68-2.19-.45-.63-1.08-1.13-1.88-1.5-.8-.36-1.72-.55-2.77-.55s-1.96.18-2.77.55c-.8.37-1.43.87-1.88,1.5-.45.64-.68,1.37-.68,2.19v.03c0,.81.23,1.53.69,2.16.46.63,1.09,1.12,1.89,1.48.8.36,1.72.54,2.75.54ZM380,1223.55c.91,0,1.7-.16,2.39-.48.69-.32,1.22-.76,1.61-1.32.38-.56.58-1.21.58-1.94v-.03c0-.73-.19-1.38-.58-1.94-.39-.56-.92-1-1.61-1.32-.69-.32-1.48-.48-2.39-.48s-1.7.16-2.39.48c-.69.32-1.22.76-1.61,1.32-.39.56-.58,1.21-.58,1.94v.03c0,.73.19,1.38.58,1.94.38.56.92,1,1.61,1.32.69.32,1.48.48,2.39.48Z"/><path class="i" d="M392.56,1236.77c-.5,0-.92-.17-1.27-.52s-.52-.77-.52-1.27.17-.92.52-1.27.77-.52,1.27-.52.92.17,1.27.52.52.77.52,1.27-.17.92-.52,1.27-.77.52-1.27.52Z"/><path class="i" d="M383.3,1276.55v-19.56h-.06l-5.97,4.16v-2.83l6-4.31h2.75v22.55h-2.72Z"/><path class="i" d="M392.56,1276.77c-.5,0-.92-.17-1.27-.52s-.52-.77-.52-1.27.17-.92.52-1.27.77-.52,1.27-.52.92.17,1.27.52.52.77.52,1.27-.17.92-.52,1.27-.77.52-1.27.52Z"/><path class="h" d="M422.05,1156.94c-2.23,0-4.16-.47-5.79-1.41-1.63-.94-2.89-2.29-3.77-4.03-.89-1.74-1.33-3.81-1.33-6.21v-.03c0-2.4.45-4.46,1.34-6.2.89-1.74,2.15-3.08,3.78-4.02,1.63-.94,3.55-1.41,5.77-1.41s4.16.47,5.78,1.42c1.62.95,2.88,2.29,3.77,4.02.88,1.73,1.33,3.8,1.33,6.2v.03c0,2.4-.44,4.46-1.33,6.2-.89,1.74-2.14,3.08-3.76,4.03-1.62.95-3.55,1.42-5.79,1.42ZM422.05,1152.94c1.25,0,2.33-.31,3.23-.95.9-.63,1.6-1.52,2.09-2.66.49-1.15.73-2.49.73-4.05v-.03c0-1.56-.25-2.92-.74-4.06-.5-1.15-1.2-2.03-2.1-2.65-.91-.62-1.97-.93-3.2-.93s-2.3.31-3.21.93c-.91.62-1.62,1.5-2.11,2.64-.5,1.14-.74,2.5-.74,4.07v.03c0,1.56.25,2.92.74,4.06.49,1.15,1.2,2.03,2.1,2.66s1.98.94,3.22.94Z"/><path class="h" d="M435.56,1162.02v-22.22h4.56v2.92h.11c.3-.68.7-1.26,1.2-1.75.49-.49,1.07-.86,1.73-1.12.66-.26,1.39-.39,2.18-.39,1.42,0,2.63.35,3.66,1.04,1.02.69,1.81,1.69,2.36,2.99.55,1.3.83,2.86.83,4.67v.02c0,1.81-.27,3.37-.82,4.67-.55,1.3-1.33,2.3-2.34,3-1.01.7-2.22,1.05-3.62,1.05-.79,0-1.53-.13-2.2-.39-.68-.26-1.27-.63-1.77-1.1-.5-.47-.91-1.04-1.22-1.71h-.09v8.33h-4.56ZM443.84,1153.11c.76,0,1.42-.2,1.97-.6.55-.4.98-.97,1.27-1.71.3-.74.45-1.61.45-2.62v-.02c0-1.02-.15-1.9-.45-2.63-.3-.73-.73-1.3-1.28-1.7-.55-.4-1.2-.59-1.95-.59s-1.39.2-1.95.6c-.56.4-1,.97-1.31,1.71-.31.74-.47,1.62-.47,2.62v.02c0,1,.16,1.87.48,2.61.32.74.75,1.31,1.31,1.71.56.4,1.21.6,1.95.6Z"/><path class="h" d="M462.17,1156.89c-1.71,0-3.18-.35-4.41-1.05-1.23-.7-2.18-1.71-2.84-3.01-.67-1.3-1-2.84-1-4.62v-.02c0-1.78.33-3.33,1-4.63.67-1.31,1.6-2.32,2.8-3.03,1.2-.71,2.62-1.07,4.26-1.07s3.05.35,4.24,1.04c1.19.69,2.11,1.67,2.77,2.93.65,1.26.98,2.73.98,4.42v1.42h-13.8v-2.89h11.64l-2.17,2.7v-1.77c0-.98-.15-1.8-.45-2.46-.3-.66-.72-1.16-1.26-1.49-.54-.33-1.16-.5-1.87-.5s-1.34.17-1.88.52-.97.85-1.28,1.51c-.31.66-.46,1.47-.46,2.43v1.78c0,.92.15,1.7.46,2.36.31.66.75,1.16,1.32,1.51.57.35,1.25.52,2.05.52.62,0,1.17-.1,1.62-.3.46-.2.83-.45,1.12-.75.29-.3.49-.61.59-.92l.03-.09h4.19l-.05.17c-.12.62-.37,1.23-.73,1.86-.37.62-.86,1.2-1.48,1.72-.62.52-1.38.94-2.27,1.25s-1.94.47-3.13.47Z"/><path class="h" d="M472.31,1156.55v-16.75h4.56v2.75h.09c.44-.96,1.08-1.71,1.94-2.27.85-.55,1.91-.83,3.17-.83,1.84,0,3.27.55,4.27,1.66,1,1.11,1.51,2.65,1.51,4.62v10.81h-4.56v-9.86c0-1.09-.26-1.94-.77-2.55-.52-.6-1.28-.91-2.3-.91-.68,0-1.27.16-1.77.47s-.89.75-1.16,1.3c-.28.55-.41,1.19-.41,1.92v9.62h-4.56Z"/><path class="h" d="M422.03,1196.94c-1.69,0-3.2-.27-4.54-.8-1.34-.53-2.48-1.3-3.42-2.31-.94-1.01-1.66-2.24-2.16-3.7s-.75-3.1-.75-4.93v-.02c0-2.42.44-4.49,1.31-6.21.88-1.72,2.12-3.05,3.73-3.98,1.61-.93,3.52-1.39,5.72-1.39,1.81,0,3.41.32,4.8.97,1.38.65,2.51,1.52,3.38,2.63.87,1.11,1.43,2.37,1.68,3.79l.05.23h-4.75l-.05-.17c-.38-1.08-1-1.93-1.88-2.54s-1.95-.91-3.22-.91-2.3.3-3.2.89-1.57,1.45-2.05,2.58c-.47,1.12-.71,2.48-.71,4.08v.02c0,1.21.14,2.29.42,3.26.28.96.69,1.78,1.23,2.45.54.67,1.18,1.18,1.94,1.53.75.35,1.6.53,2.54.53,1.02,0,1.92-.19,2.7-.57.78-.38,1.4-.92,1.86-1.61.46-.69.7-1.5.73-2.43l.02-.31h-5.14v-3.53h9.75v2.59c0,1.53-.23,2.91-.68,4.12s-1.11,2.26-1.97,3.11c-.86.85-1.91,1.51-3.15,1.95-1.24.45-2.64.67-4.2.67Z"/><path class="h" d="M434.75,1196.55v-16.75h4.56v2.92h.09c.25-1.03.7-1.83,1.36-2.41.66-.57,1.47-.86,2.45-.86.25,0,.49.02.72.05.23.03.43.07.59.12v4.03c-.19-.08-.43-.15-.72-.2-.29-.05-.6-.07-.94-.07-.75,0-1.39.15-1.92.44-.53.29-.94.72-1.22,1.28s-.42,1.25-.42,2.06v9.38h-4.56Z"/><path class="h" d="M453.53,1196.89c-1.7,0-3.17-.35-4.41-1.04-1.24-.69-2.2-1.69-2.88-3-.68-1.31-1.02-2.87-1.02-4.68v-.03c0-1.8.35-3.35,1.04-4.65.69-1.3,1.66-2.29,2.9-2.99,1.24-.7,2.69-1.05,4.36-1.05s3.14.35,4.38,1.04c1.24.69,2.21,1.69,2.9,2.98s1.03,2.85,1.03,4.66v.03c0,1.82-.34,3.39-1.02,4.69-.68,1.3-1.64,2.3-2.88,2.99-1.24.69-2.7,1.04-4.39,1.04ZM453.55,1193.31c.74,0,1.38-.2,1.92-.6.54-.4.96-.98,1.26-1.75s.45-1.7.45-2.79v-.03c0-1.07-.15-1.99-.45-2.76-.3-.77-.73-1.35-1.27-1.75-.55-.4-1.19-.6-1.93-.6s-1.37.2-1.91.61-.97.99-1.27,1.75c-.3.76-.45,1.68-.45,2.75v.03c0,1.09.15,2.02.45,2.79s.72,1.35,1.27,1.75c.55.4,1.2.6,1.95.6Z"/><path class="h" d="M467.28,1196.55l-4.47-16.75h4.61l2.53,12.42h.09l2.97-12.42h4.38l2.98,12.42h.09l2.55-12.42h4.5l-4.44,16.75h-4.86l-3.03-11.84h-.09l-3.02,11.84h-4.8Z"/><path class="h" d="M411.88,1236.55v-22.55h14.94v3.89h-10.22v5.41h9.64v3.7h-9.64v5.66h10.22v3.89h-14.94Z"/><path class="h" d="M429.83,1236.55v-16.75h4.56v2.75h.09c.44-.96,1.08-1.71,1.94-2.27.85-.55,1.91-.83,3.17-.83,1.84,0,3.27.55,4.27,1.66,1,1.11,1.51,2.65,1.51,4.62v10.81h-4.56v-9.86c0-1.09-.26-1.94-.77-2.55-.52-.6-1.28-.91-2.3-.91-.68,0-1.27.16-1.77.47s-.89.75-1.16,1.3c-.28.55-.41,1.19-.41,1.92v9.62h-4.56Z"/><path class="h" d="M454.92,1236.89c-1.85,0-3.23-.39-4.12-1.17-.9-.78-1.34-2.07-1.34-3.86v-8.62h-2.33v-3.44h2.33v-4.09h4.61v4.09h3.06v3.44h-3.06v8.12c0,.78.17,1.33.52,1.63.35.31.87.46,1.55.46.21,0,.39,0,.55-.02s.3-.03.44-.05v3.34c-.25.04-.56.08-.93.12-.37.04-.79.05-1.27.05Z"/><path class="h" d="M467.03,1236.89c-1.71,0-3.18-.35-4.41-1.05-1.23-.7-2.18-1.71-2.84-3.01-.67-1.3-1-2.84-1-4.62v-.02c0-1.78.33-3.33,1-4.63.67-1.31,1.6-2.32,2.8-3.03,1.2-.71,2.62-1.07,4.26-1.07s3.05.35,4.24,1.04c1.19.69,2.11,1.67,2.77,2.93.65,1.26.98,2.73.98,4.42v1.42h-13.8v-2.89h11.64l-2.17,2.7v-1.77c0-.98-.15-1.8-.45-2.46-.3-.66-.72-1.16-1.26-1.49-.54-.33-1.16-.5-1.87-.5s-1.34.17-1.88.52-.97.85-1.28,1.51c-.31.66-.46,1.47-.46,2.43v1.78c0,.92.15,1.7.46,2.36.31.66.75,1.16,1.32,1.51.57.35,1.25.52,2.05.52.62,0,1.17-.1,1.62-.3.46-.2.83-.45,1.12-.75.29-.3.49-.61.59-.92l.03-.09h4.19l-.05.17c-.12.62-.37,1.23-.73,1.86-.37.62-.86,1.2-1.48,1.72-.62.52-1.38.94-2.27,1.25s-1.94.47-3.13.47Z"/><path class="h" d="M477.17,1236.55v-16.75h4.56v2.92h.09c.25-1.03.7-1.83,1.36-2.41.66-.57,1.47-.86,2.45-.86.25,0,.49.02.72.05.23.03.43.07.59.12v4.03c-.19-.08-.43-.15-.72-.2-.29-.05-.6-.07-.94-.07-.75,0-1.39.15-1.92.44-.53.29-.94.72-1.22,1.28s-.42,1.25-.42,2.06v9.38h-4.56Z"/><path class="h" d="M420.11,1276.94c-1.78,0-3.34-.26-4.66-.79s-2.38-1.28-3.14-2.27-1.19-2.17-1.27-3.55l-.02-.25h4.45l.03.17c.1.58.37,1.09.79,1.51s.97.75,1.65.98c.68.23,1.44.35,2.3.35s1.63-.12,2.26-.35c.63-.23,1.12-.57,1.46-1,.34-.43.52-.93.52-1.51v-.02c0-.76-.3-1.36-.9-1.79-.6-.43-1.6-.79-2.99-1.07l-2.38-.48c-2.22-.44-3.89-1.19-5.02-2.26-1.13-1.07-1.7-2.45-1.7-4.15v-.02c0-1.38.38-2.57,1.12-3.59.74-1.02,1.75-1.82,3.05-2.39,1.29-.57,2.77-.86,4.44-.86s3.24.27,4.51.82,2.25,1.31,2.96,2.3c.71.98,1.1,2.14,1.17,3.46l.02.28h-4.45l-.03-.19c-.07-.59-.29-1.1-.66-1.52-.37-.42-.85-.74-1.45-.97-.59-.23-1.28-.34-2.06-.34s-1.5.12-2.08.34c-.58.23-1.03.55-1.34.96-.31.41-.46.88-.46,1.41v.02c0,.72.3,1.29.91,1.73.6.43,1.55.78,2.84,1.04l2.39.48c1.57.31,2.86.75,3.88,1.3,1.01.55,1.76,1.25,2.24,2.09.48.84.73,1.85.73,3.02v.02c0,1.45-.36,2.7-1.09,3.76-.72,1.06-1.77,1.88-3.12,2.45s-2.99.87-4.88.87Z"/><path class="h" d="M438.34,1276.89c-1.85,0-3.23-.39-4.12-1.17-.9-.78-1.34-2.07-1.34-3.86v-8.62h-2.33v-3.44h2.33v-4.09h4.61v4.09h3.06v3.44h-3.06v8.12c0,.78.17,1.33.52,1.63.35.31.87.46,1.55.46.21,0,.39,0,.55-.02s.3-.03.44-.05v3.34c-.25.04-.56.08-.93.12-.37.04-.79.05-1.27.05Z"/><path class="h" d="M447.89,1276.81c-1.12,0-2.1-.22-2.95-.65-.85-.43-1.51-1.03-1.98-1.8-.47-.77-.71-1.64-.71-2.62v-.03c0-1.02.25-1.89.77-2.62.51-.72,1.25-1.29,2.23-1.71.97-.42,2.15-.67,3.54-.77l6.53-.41v2.84l-5.84.39c-.88.05-1.54.26-2,.61-.46.35-.69.83-.69,1.42v.03c0,.62.23,1.1.7,1.45.47.35,1.1.52,1.89.52.68,0,1.28-.13,1.82-.4.54-.27.96-.63,1.27-1.09.31-.46.46-.98.46-1.55v-5.09c0-.74-.23-1.32-.7-1.75-.47-.43-1.15-.64-2.05-.64s-1.53.17-2.03.52c-.5.35-.81.79-.92,1.34l-.03.14h-4.19l.02-.19c.09-1.03.44-1.95,1.04-2.75.6-.8,1.43-1.43,2.5-1.88,1.07-.45,2.34-.68,3.8-.68s2.7.23,3.77.7c1.06.46,1.89,1.12,2.48,1.96.59.84.88,1.83.88,2.95v11.48h-4.56v-2.48h-.09c-.32.56-.73,1.05-1.22,1.47-.49.42-1.05.73-1.68.95-.63.22-1.31.33-2.04.33Z"/><path class="h" d="M460.42,1276.55v-16.75h4.56v2.92h.09c.25-1.03.7-1.83,1.36-2.41.66-.57,1.47-.86,2.45-.86.25,0,.49.02.72.05.23.03.43.07.59.12v4.03c-.19-.08-.43-.15-.72-.2-.29-.05-.6-.07-.94-.07-.75,0-1.39.15-1.92.44-.53.29-.94.72-1.22,1.28s-.42,1.25-.42,2.06v9.38h-4.56Z"/><path class="h" d="M479.34,1276.89c-1.85,0-3.23-.39-4.12-1.17-.9-.78-1.34-2.07-1.34-3.86v-8.62h-2.33v-3.44h2.33v-4.09h4.61v4.09h3.06v3.44h-3.06v8.12c0,.78.17,1.33.52,1.63.35.31.87.46,1.55.46.21,0,.39,0,.55-.02s.3-.03.44-.05v3.34c-.25.04-.56.08-.93.12-.37.04-.79.05-1.27.05Z"/><path class="i" d="M590.08,1156.92c-1.55,0-2.91-.27-4.06-.8s-2.07-1.26-2.74-2.19c-.67-.93-1.06-1.98-1.16-3.17l-.02-.19h2.7l.02.16c.08.74.35,1.39.8,1.95s1.06,1,1.82,1.32c.76.32,1.64.48,2.64.48s1.86-.17,2.6-.52c.74-.34,1.33-.82,1.74-1.43.42-.61.62-1.31.62-2.1v-.03c0-1.38-.46-2.45-1.38-3.2-.92-.74-2.17-1.12-3.76-1.12h-2.83v-2.38h2.7c.9,0,1.69-.17,2.38-.51.69-.34,1.22-.8,1.61-1.39.38-.59.58-1.26.58-2.01v-.03c0-.79-.17-1.46-.5-2.02-.33-.55-.82-.97-1.46-1.27-.64-.29-1.42-.44-2.34-.44s-1.67.15-2.37.45c-.69.3-1.25.72-1.66,1.27-.42.55-.67,1.21-.75,1.97l-.02.16h-2.7l.02-.16c.12-1.23.51-2.3,1.16-3.22.65-.92,1.52-1.63,2.59-2.14,1.08-.51,2.32-.77,3.73-.77s2.69.25,3.76.74c1.07.5,1.9,1.18,2.48,2.05.59.87.88,1.88.88,3.02v.03c0,.93-.2,1.75-.61,2.47s-.97,1.32-1.69,1.8c-.72.48-1.55.82-2.48,1.02v.06c1.65.14,2.98.69,3.99,1.66,1.02.97,1.52,2.26,1.52,3.87v.03c0,1.25-.34,2.37-1.02,3.36-.68.99-1.6,1.77-2.78,2.34-1.18.57-2.52.85-4.03.85Z"/><path class="i" d="M602.56,1156.77c-.5,0-.92-.17-1.27-.52s-.52-.77-.52-1.27.17-.92.52-1.27.77-.52,1.27-.52.92.17,1.27.52.52.77.52,1.27-.17.92-.52,1.27-.77.52-1.27.52Z"/><path class="i" d="M589.36,1196.92c-1.04,0-2.07-.2-3.08-.59-1.01-.39-1.93-1.02-2.76-1.9s-1.49-2.03-1.98-3.46c-.5-1.43-.74-3.2-.74-5.29v-.03c0-2.53.35-4.7,1.04-6.49.69-1.8,1.69-3.17,3-4.12,1.31-.95,2.88-1.42,4.71-1.42,1.28,0,2.43.23,3.46.68,1.03.45,1.88,1.09,2.57,1.91.69.82,1.16,1.78,1.41,2.88l.05.2h-2.86l-.06-.17c-.22-.62-.54-1.16-.97-1.61-.43-.45-.95-.79-1.55-1.04-.61-.24-1.3-.37-2.07-.37-1.4,0-2.53.41-3.39,1.22-.87.81-1.5,1.89-1.91,3.22-.41,1.33-.64,2.79-.68,4.38-.01.1-.02.21-.02.3v.3l.67,3.7c0,.96.23,1.83.68,2.62.45.79,1.07,1.41,1.85,1.88.78.46,1.65.7,2.61.7s1.83-.23,2.61-.68,1.4-1.06,1.86-1.84c.46-.77.69-1.63.69-2.58v-.03c0-.98-.22-1.85-.66-2.61-.44-.76-1.04-1.36-1.81-1.79-.77-.43-1.65-.65-2.64-.65s-1.86.21-2.65.64c-.79.43-1.41,1.02-1.86,1.77s-.68,1.6-.68,2.56v.02h-.94v-3.83h.33c.3-.67.75-1.27,1.35-1.82.6-.55,1.31-.98,2.15-1.31.83-.33,1.76-.49,2.78-.49,1.44,0,2.72.32,3.84.97,1.12.65,2.01,1.53,2.66,2.66.65,1.12.98,2.4.98,3.83v.03c0,1.48-.35,2.79-1.04,3.95-.69,1.15-1.64,2.06-2.84,2.72-1.2.66-2.57.99-4.11.99Z"/><path class="i" d="M602.56,1196.77c-.5,0-.92-.17-1.27-.52s-.52-.77-.52-1.27.17-.92.52-1.27.77-.52,1.27-.52.92.17,1.27.52.52.77.52,1.27-.17.92-.52,1.27-.77.52-1.27.52Z"/><path class="i" d="M589.77,1213.62c1.04,0,2.07.2,3.08.59,1.01.39,1.93,1.02,2.76,1.9s1.49,2.03,1.98,3.46c.49,1.43.74,3.2.74,5.29v.03c0,2.53-.35,4.7-1.04,6.49-.69,1.8-1.69,3.17-2.99,4.12-1.3.95-2.88,1.42-4.72,1.42-1.27,0-2.42-.23-3.45-.69s-1.89-1.1-2.58-1.91c-.69-.82-1.16-1.77-1.41-2.87l-.05-.2h2.86l.06.17c.23.62.55,1.15.98,1.6s.94.8,1.55,1.05c.61.25,1.3.37,2.07.37,1.41,0,2.54-.41,3.4-1.22s1.49-1.89,1.91-3.23c.41-1.34.64-2.79.68-4.37,0-.1.02-.21.02-.3v-.3l-.67-3.7c0-.97-.23-1.84-.68-2.62s-1.07-1.4-1.84-1.87c-.78-.46-1.65-.7-2.62-.7s-1.83.23-2.61.68-1.4,1.07-1.86,1.84c-.46.77-.69,1.63-.69,2.58v.03c0,.98.22,1.85.66,2.61.44.76,1.04,1.36,1.81,1.79.77.43,1.65.65,2.64.65s1.88-.21,2.66-.64c.78-.43,1.4-1.02,1.85-1.77s.68-1.6.68-2.56v-.02h.94v3.83h-.33c-.3.67-.75,1.27-1.34,1.82s-1.31.98-2.15,1.31c-.84.33-1.77.49-2.79.49-1.43,0-2.71-.32-3.84-.97-1.13-.65-2.02-1.53-2.67-2.66-.65-1.12-.98-2.4-.98-3.83v-.03c0-1.48.35-2.79,1.04-3.95.69-1.15,1.64-2.06,2.84-2.72,1.2-.66,2.57-.99,4.11-.99Z"/><path class="i" d="M602.56,1236.77c-.5,0-.92-.17-1.27-.52s-.52-.77-.52-1.27.17-.92.52-1.27.77-.52,1.27-.52.92.17,1.27.52.52.77.52,1.27-.17.92-.52,1.27-.77.52-1.27.52Z"/><path class="h" d="M621.88,1156.55v-22.55h4.72v22.55h-4.72ZM624.25,1149.45v-3.7h5.53c1.35,0,2.41-.35,3.16-1.04.75-.69,1.12-1.67,1.12-2.95v-.03c0-1.29-.38-2.28-1.12-2.96-.75-.68-1.8-1.02-3.16-1.02h-5.53v-3.75h6.69c1.58,0,2.97.32,4.16.96s2.11,1.54,2.77,2.7c.66,1.16.99,2.51.99,4.06v.03c0,1.54-.33,2.89-.99,4.05-.66,1.16-1.59,2.05-2.77,2.7s-2.57.96-4.16.96h-6.69Z"/><path class="h" d="M648.39,1156.89c-1.7,0-3.17-.35-4.41-1.04-1.24-.69-2.2-1.69-2.88-3-.68-1.31-1.02-2.87-1.02-4.68v-.03c0-1.8.35-3.35,1.04-4.65.69-1.3,1.66-2.29,2.9-2.99,1.24-.7,2.69-1.05,4.36-1.05s3.14.35,4.38,1.04c1.24.69,2.21,1.69,2.9,2.98s1.03,2.85,1.03,4.66v.03c0,1.82-.34,3.39-1.02,4.69-.68,1.3-1.64,2.3-2.88,2.99-1.24.69-2.7,1.04-4.39,1.04ZM648.41,1153.31c.74,0,1.38-.2,1.92-.6.54-.4.96-.98,1.26-1.75s.45-1.7.45-2.79v-.03c0-1.07-.15-1.99-.45-2.76-.3-.77-.73-1.35-1.27-1.75-.55-.4-1.19-.6-1.93-.6s-1.37.2-1.91.61-.97.99-1.27,1.75c-.3.76-.45,1.68-.45,2.75v.03c0,1.09.15,2.02.45,2.79s.72,1.35,1.27,1.75c.55.4,1.2.6,1.95.6Z"/><path class="h" d="M662.14,1156.55l-4.47-16.75h4.61l2.53,12.42h.09l2.97-12.42h4.38l2.98,12.42h.09l2.55-12.42h4.5l-4.44,16.75h-4.86l-3.03-11.84h-.09l-3.02,11.84h-4.8Z"/><path class="h" d="M691.55,1156.89c-1.71,0-3.18-.35-4.41-1.05-1.23-.7-2.18-1.71-2.84-3.01-.67-1.3-1-2.84-1-4.62v-.02c0-1.78.33-3.33,1-4.63.67-1.31,1.6-2.32,2.8-3.03,1.2-.71,2.62-1.07,4.26-1.07s3.05.35,4.24,1.04c1.19.69,2.11,1.67,2.77,2.93.65,1.26.98,2.73.98,4.42v1.42h-13.8v-2.89h11.64l-2.17,2.7v-1.77c0-.98-.15-1.8-.45-2.46-.3-.66-.72-1.16-1.26-1.49-.54-.33-1.16-.5-1.87-.5s-1.34.17-1.88.52-.97.85-1.28,1.51c-.31.66-.46,1.47-.46,2.43v1.78c0,.92.15,1.7.46,2.36.31.66.75,1.16,1.32,1.51.57.35,1.25.52,2.05.52.62,0,1.17-.1,1.62-.3.46-.2.83-.45,1.12-.75.29-.3.49-.61.59-.92l.03-.09h4.19l-.05.17c-.12.62-.37,1.23-.73,1.86-.37.62-.86,1.2-1.48,1.72-.62.52-1.38.94-2.27,1.25s-1.94.47-3.13.47Z"/><path class="h" d="M701.69,1156.55v-16.75h4.56v2.92h.09c.25-1.03.7-1.83,1.36-2.41.66-.57,1.47-.86,2.45-.86.25,0,.49.02.72.05.23.03.43.07.59.12v4.03c-.19-.08-.43-.15-.72-.2-.29-.05-.6-.07-.94-.07-.75,0-1.39.15-1.92.44-.53.29-.94.72-1.22,1.28s-.42,1.25-.42,2.06v9.38h-4.56Z"/><path class="h" d="M621.88,1196.55v-22.55h4.72v9.16h10.16v-9.16h4.72v22.55h-4.72v-9.48h-10.16v9.48h-4.72Z"/><path class="h" d="M652.45,1196.89c-1.71,0-3.18-.35-4.41-1.05-1.23-.7-2.18-1.71-2.84-3.01-.67-1.3-1-2.84-1-4.62v-.02c0-1.78.33-3.33,1-4.63.67-1.31,1.6-2.32,2.8-3.03,1.2-.71,2.62-1.07,4.26-1.07s3.05.35,4.24,1.04c1.19.69,2.11,1.67,2.77,2.93.65,1.26.98,2.73.98,4.42v1.42h-13.8v-2.89h11.64l-2.17,2.7v-1.77c0-.98-.15-1.8-.45-2.46-.3-.66-.72-1.16-1.26-1.49-.54-.33-1.16-.5-1.87-.5s-1.34.17-1.88.52-.97.85-1.28,1.51c-.31.66-.46,1.47-.46,2.43v1.78c0,.92.15,1.7.46,2.36.31.66.75,1.16,1.32,1.51.57.35,1.25.52,2.05.52.62,0,1.17-.1,1.62-.3.46-.2.83-.45,1.12-.75.29-.3.49-.61.59-.92l.03-.09h4.19l-.05.17c-.12.62-.37,1.23-.73,1.86-.37.62-.86,1.2-1.48,1.72-.62.52-1.38.94-2.27,1.25s-1.94.47-3.13.47Z"/><path class="h" d="M662.7,1196.55v-22.55h4.56v22.55h-4.56Z"/><path class="h" d="M672.72,1177.66c-.69,0-1.27-.24-1.74-.71-.47-.47-.71-1.03-.71-1.68s.24-1.22.71-1.68c.47-.46,1.05-.7,1.74-.7s1.27.23,1.73.7c.47.46.7,1.02.7,1.68s-.23,1.21-.7,1.68c-.47.47-1.05.71-1.73.71ZM670.42,1196.55v-16.75h4.58v16.75h-4.58Z"/><path class="h" d="M676.89,1196.55l5.25-8.34-5.2-8.41h5.14l3.02,5.66h.09l2.97-5.66h4.97l-5.23,8.28,5.19,8.47h-4.95l-3.19-5.8h-.09l-3.14,5.8h-4.81Z"/><path class="h" d="M621.88,1236.55v-22.55h14.77v3.89h-10.05v6.05h9.17v3.73h-9.17v8.88h-4.72Z"/><path class="h" d="M639.14,1236.55v-22.55h4.56v22.55h-4.56Z"/><path class="h" d="M654.47,1236.89c-1.7,0-3.17-.35-4.41-1.04-1.24-.69-2.2-1.69-2.88-3-.68-1.31-1.02-2.87-1.02-4.68v-.03c0-1.8.35-3.35,1.04-4.65.69-1.3,1.66-2.29,2.9-2.99,1.24-.7,2.69-1.05,4.36-1.05s3.14.35,4.38,1.04c1.24.69,2.21,1.69,2.9,2.98s1.03,2.85,1.03,4.66v.03c0,1.82-.34,3.39-1.02,4.69-.68,1.3-1.64,2.3-2.88,2.99-1.24.69-2.7,1.04-4.39,1.04ZM654.48,1233.31c.74,0,1.38-.2,1.92-.6.54-.4.96-.98,1.26-1.75s.45-1.7.45-2.79v-.03c0-1.07-.15-1.99-.45-2.76-.3-.77-.73-1.35-1.27-1.75-.55-.4-1.19-.6-1.93-.6s-1.37.2-1.91.61-.97.99-1.27,1.75c-.3.76-.45,1.68-.45,2.75v.03c0,1.09.15,2.02.45,2.79s.72,1.35,1.27,1.75c.55.4,1.2.6,1.95.6Z"/><path class="h" d="M668.22,1236.55l-4.47-16.75h4.61l2.53,12.42h.09l2.97-12.42h4.38l2.98,12.42h.09l2.55-12.42h4.5l-4.44,16.75h-4.86l-3.03-11.84h-.09l-3.02,11.84h-4.8Z"/><path class="i" d="M802.33,1156.55v-4.69h-11.33v-2.55c.66-1.02,1.31-2.04,1.98-3.06.66-1.02,1.32-2.04,1.98-3.06.66-1.02,1.32-2.04,1.98-3.06.66-1.02,1.31-2.04,1.98-3.06.66-1.02,1.32-2.04,1.98-3.06h4.16v15.39h3.19v2.47h-3.19v4.69h-2.72ZM793.78,1149.39h8.55v-12.98h-.09c-.56.87-1.12,1.73-1.69,2.59l-1.69,2.58c-.56.86-1.13,1.72-1.7,2.59-.57.87-1.13,1.73-1.7,2.59s-1.12,1.72-1.69,2.59v.06Z"/><path class="i" d="M812.56,1156.77c-.5,0-.92-.17-1.27-.52s-.52-.77-.52-1.27.17-.92.52-1.27.77-.52,1.27-.52.92.17,1.27.52.52.77.52,1.27-.17.92-.52,1.27-.77.52-1.27.52Z"/><path class="i" d="M797.56,1196.55l10.2-19.98v-.06h-12.14v-2.5h14.92v2.61l-10.03,19.94h-2.95Z"/><path class="i" d="M812.56,1196.77c-.5,0-.92-.17-1.27-.52s-.52-.77-.52-1.27.17-.92.52-1.27.77-.52,1.27-.52.92.17,1.27.52.52.77.52,1.27-.17.92-.52,1.27-.77.52-1.27.52Z"/><path class="i" d="M783.73,1236.55v-19.56h-.06l-5.97,4.16v-2.83l6-4.31h2.75v22.55h-2.72Z"/><path class="i" d="M800.03,1236.92c-1.73,0-3.21-.47-4.45-1.42-1.23-.95-2.18-2.29-2.84-4.03-.66-1.74-.98-3.8-.98-6.19v-.03c0-2.38.33-4.45.98-6.19.66-1.74,1.6-3.08,2.84-4.02,1.23-.94,2.72-1.41,4.45-1.41s3.21.47,4.45,1.41c1.24.94,2.19,2.28,2.85,4.02.66,1.74.99,3.8.99,6.19v.03c0,2.39-.33,4.45-.99,6.19-.66,1.74-1.61,3.08-2.85,4.03-1.24.95-2.72,1.42-4.45,1.42ZM800.03,1234.47c1.15,0,2.13-.37,2.95-1.12.82-.74,1.44-1.8,1.88-3.18.43-1.38.65-3,.65-4.89v-.03c0-1.88-.22-3.51-.65-4.88-.43-1.37-1.06-2.42-1.88-3.16-.82-.74-1.8-1.11-2.95-1.11s-2.12.37-2.94,1.11c-.81.74-1.43,1.79-1.86,3.16-.43,1.37-.64,3-.64,4.88v.03c0,1.89.21,3.52.64,4.89.43,1.38,1.05,2.44,1.86,3.18.81.75,1.79,1.12,2.94,1.12Z"/><path class="i" d="M812.56,1236.77c-.5,0-.92-.17-1.27-.52s-.52-.77-.52-1.27.17-.92.52-1.27.77-.52,1.27-.52.92.17,1.27.52.52.77.52,1.27-.17.92-.52,1.27-.77.52-1.27.52Z"/><path class="h" d="M831.88,1156.55v-22.55h9.31c1.69,0,3.13.29,4.34.87s2.12,1.4,2.77,2.48c.64,1.07.96,2.37.96,3.88v.03c0,1.49-.37,2.81-1.1,3.96-.73,1.15-1.73,1.97-2.98,2.46l4.75,8.88h-5.36l-4.19-8.16h-3.78v8.16h-4.72ZM836.59,1144.8h4.08c1.17,0,2.08-.31,2.75-.94.67-.62,1-1.49,1-2.59v-.03c0-1.08-.35-1.94-1.04-2.58-.69-.63-1.62-.95-2.77-.95h-4.02v7.09Z"/><path class="h" d="M859.44,1156.89c-1.71,0-3.18-.35-4.41-1.05-1.23-.7-2.18-1.71-2.84-3.01-.67-1.3-1-2.84-1-4.62v-.02c0-1.78.33-3.33,1-4.63.67-1.31,1.6-2.32,2.8-3.03,1.2-.71,2.62-1.07,4.26-1.07s3.05.35,4.24,1.04c1.19.69,2.11,1.67,2.77,2.93.65,1.26.98,2.73.98,4.42v1.42h-13.8v-2.89h11.64l-2.17,2.7v-1.77c0-.98-.15-1.8-.45-2.46-.3-.66-.72-1.16-1.26-1.49-.54-.33-1.16-.5-1.87-.5s-1.34.17-1.88.52-.97.85-1.28,1.51c-.31.66-.46,1.47-.46,2.43v1.78c0,.92.15,1.7.46,2.36.31.66.75,1.16,1.32,1.51.57.35,1.25.52,2.05.52.62,0,1.17-.1,1.62-.3.46-.2.83-.45,1.12-.75.29-.3.49-.61.59-.92l.03-.09h4.19l-.05.17c-.12.62-.37,1.23-.73,1.86-.37.62-.86,1.2-1.48,1.72-.62.52-1.38.94-2.27,1.25s-1.94.47-3.13.47Z"/><path class="h" d="M876.23,1156.89c-1.85,0-3.23-.39-4.12-1.17-.9-.78-1.34-2.07-1.34-3.86v-8.62h-2.33v-3.44h2.33v-4.09h4.61v4.09h3.06v3.44h-3.06v8.12c0,.78.17,1.33.52,1.63.35.31.87.46,1.55.46.21,0,.39,0,.55-.02s.3-.03.44-.05v3.34c-.25.04-.56.08-.93.12-.37.04-.79.05-1.27.05Z"/><path class="h" d="M886.64,1156.89c-1.22,0-2.26-.25-3.12-.76-.87-.5-1.52-1.23-1.97-2.16-.45-.94-.67-2.06-.67-3.36v-10.81h4.56v9.86c0,1.09.26,1.94.77,2.55.52.6,1.28.91,2.3.91.51,0,.97-.09,1.38-.27.41-.18.76-.43,1.05-.76.29-.33.52-.72.67-1.17s.23-.95.23-1.49v-9.62h4.56v16.75h-4.56v-2.77h-.11c-.28.64-.66,1.19-1.13,1.66-.47.47-1.04.83-1.7,1.08-.66.25-1.42.38-2.27.38Z"/><path class="h" d="M899.39,1156.55v-16.75h4.56v2.92h.09c.25-1.03.7-1.83,1.36-2.41.66-.57,1.47-.86,2.45-.86.25,0,.49.02.72.05.23.03.43.07.59.12v4.03c-.19-.08-.43-.15-.72-.2-.29-.05-.6-.07-.94-.07-.75,0-1.39.15-1.92.44-.53.29-.94.72-1.22,1.28s-.42,1.25-.42,2.06v9.38h-4.56Z"/><path class="h" d="M911.03,1156.55v-16.75h4.56v2.75h.09c.44-.96,1.08-1.71,1.94-2.27.85-.55,1.91-.83,3.17-.83,1.84,0,3.27.55,4.27,1.66,1,1.11,1.51,2.65,1.51,4.62v10.81h-4.56v-9.86c0-1.09-.26-1.94-.77-2.55-.52-.6-1.28-.91-2.3-.91-.68,0-1.27.16-1.77.47s-.89.75-1.16,1.3c-.28.55-.41,1.19-.41,1.92v9.62h-4.56Z"/><path class="h" d="M831.88,1196.55v-22.55h14.77v3.89h-10.05v6.05h9.17v3.73h-9.17v8.88h-4.72Z"/><path class="h" d="M856.25,1196.89c-1.7,0-3.17-.35-4.41-1.04-1.24-.69-2.2-1.69-2.88-3-.68-1.31-1.02-2.87-1.02-4.68v-.03c0-1.8.35-3.35,1.04-4.65.69-1.3,1.66-2.29,2.9-2.99,1.24-.7,2.69-1.05,4.36-1.05s3.14.35,4.38,1.04c1.24.69,2.21,1.69,2.9,2.98s1.03,2.85,1.03,4.66v.03c0,1.82-.34,3.39-1.02,4.69-.68,1.3-1.64,2.3-2.88,2.99-1.24.69-2.7,1.04-4.39,1.04ZM856.27,1193.31c.74,0,1.38-.2,1.92-.6.54-.4.96-.98,1.26-1.75s.45-1.7.45-2.79v-.03c0-1.07-.15-1.99-.45-2.76-.3-.77-.73-1.35-1.27-1.75-.55-.4-1.19-.6-1.93-.6s-1.37.2-1.91.61-.97.99-1.27,1.75c-.3.76-.45,1.68-.45,2.75v.03c0,1.09.15,2.02.45,2.79s.72,1.35,1.27,1.75c.55.4,1.2.6,1.95.6Z"/><path class="h" d="M874.55,1196.89c-1.7,0-3.17-.35-4.41-1.06-1.24-.71-2.2-1.72-2.87-3.02-.67-1.31-1.01-2.86-1.01-4.65v-.02c0-1.79.34-3.34,1.02-4.63.68-1.3,1.63-2.3,2.87-3s2.68-1.05,4.35-1.05c1.52,0,2.84.28,3.95.85,1.11.57,1.99,1.34,2.62,2.3.63.97.98,2.06,1.04,3.27v.11h-4.25l-.02-.14c-.14-.79-.48-1.46-1.03-2-.55-.54-1.3-.81-2.25-.81-.74,0-1.38.21-1.93.62-.55.41-.97,1-1.27,1.77s-.45,1.68-.45,2.74v.02c0,1.09.15,2.02.45,2.79s.72,1.35,1.27,1.75c.55.4,1.2.6,1.95.6.92,0,1.65-.26,2.21-.77.56-.52.91-1.2,1.05-2.04l.03-.14h4.25v.09c-.07,1.22-.43,2.31-1.06,3.28-.64.97-1.51,1.74-2.62,2.3s-2.41.85-3.9.85Z"/><path class="h" d="M890.02,1196.89c-1.22,0-2.26-.25-3.12-.76-.87-.5-1.52-1.23-1.97-2.16-.45-.94-.67-2.06-.67-3.36v-10.81h4.56v9.86c0,1.09.26,1.94.77,2.55.52.6,1.28.91,2.3.91.51,0,.97-.09,1.38-.27.41-.18.76-.43,1.05-.76.29-.33.52-.72.67-1.17s.23-.95.23-1.49v-9.62h4.56v16.75h-4.56v-2.77h-.11c-.28.64-.66,1.19-1.13,1.66-.47.47-1.04.83-1.7,1.08-.66.25-1.42.38-2.27.38Z"/><path class="h" d="M909.66,1196.89c-1.54,0-2.86-.22-3.95-.67-1.09-.45-1.94-1.07-2.54-1.87-.6-.8-.97-1.72-1.09-2.77l-.02-.14h4.45l.03.14c.15.66.47,1.17.98,1.53.51.37,1.22.55,2.12.55.58,0,1.08-.07,1.48-.21s.72-.34.95-.6c.22-.26.34-.57.34-.94v-.02c0-.45-.16-.81-.48-1.08-.32-.27-.9-.49-1.72-.67l-2.84-.61c-1.08-.23-1.99-.56-2.72-.99-.73-.43-1.28-.97-1.64-1.61-.37-.64-.55-1.38-.55-2.21v-.02c0-1.07.29-2,.87-2.78s1.4-1.39,2.45-1.82c1.06-.43,2.29-.65,3.71-.65s2.74.24,3.77.71c1.04.47,1.83,1.11,2.39,1.91.56.8.85,1.69.88,2.67v.16h-4.2l-.02-.12c-.07-.59-.35-1.09-.84-1.49-.48-.4-1.15-.6-1.99-.6-.52,0-.97.07-1.36.22-.39.15-.68.35-.89.61-.21.26-.31.57-.31.94v.02c0,.28.07.53.21.76.14.22.38.42.71.59.33.17.78.31,1.34.44l2.84.61c1.76.37,3.02.91,3.79,1.64.77.73,1.15,1.71,1.15,2.94v.02c0,1.09-.31,2.05-.94,2.86s-1.49,1.45-2.59,1.9c-1.1.45-2.37.68-3.8.68Z"/><path class="h" d="M841.91,1236.94c-2.2,0-4.1-.47-5.71-1.41s-2.85-2.28-3.73-4.02c-.88-1.74-1.31-3.82-1.31-6.25v-.02c0-2.43.44-4.51,1.31-6.24s2.12-3.07,3.73-4c1.61-.93,3.51-1.4,5.71-1.4,1.82,0,3.45.35,4.88,1.06,1.43.71,2.57,1.68,3.44,2.92.86,1.24,1.37,2.66,1.52,4.25l.02.16h-4.61l-.06-.27c-.18-.83-.5-1.56-.95-2.17-.46-.61-1.04-1.09-1.75-1.44-.71-.34-1.53-.52-2.47-.52-1.21,0-2.26.31-3.14.93-.89.62-1.57,1.5-2.05,2.63-.48,1.14-.73,2.49-.73,4.06v.02c0,1.58.24,2.95.73,4.1.48,1.15,1.17,2.04,2.06,2.66.89.62,1.93.93,3.13.93.91,0,1.71-.17,2.42-.5.71-.33,1.3-.81,1.78-1.45.48-.63.82-1.39,1.02-2.29l.03-.16h4.61l-.02.17c-.15,1.59-.65,3.01-1.52,4.25-.87,1.24-2.02,2.21-3.45,2.91-1.43.7-3.05,1.05-4.88,1.05Z"/><path class="h" d="M854.39,1236.55v-22.55h4.56v22.55h-4.56Z"/><path class="h" d="M869.72,1236.89c-1.7,0-3.17-.35-4.41-1.04-1.24-.69-2.2-1.69-2.88-3-.68-1.31-1.02-2.87-1.02-4.68v-.03c0-1.8.35-3.35,1.04-4.65.69-1.3,1.66-2.29,2.9-2.99,1.24-.7,2.69-1.05,4.36-1.05s3.14.35,4.38,1.04c1.24.69,2.21,1.69,2.9,2.98s1.03,2.85,1.03,4.66v.03c0,1.82-.34,3.39-1.02,4.69-.68,1.3-1.64,2.3-2.88,2.99-1.24.69-2.7,1.04-4.39,1.04ZM869.73,1233.31c.74,0,1.38-.2,1.92-.6.54-.4.96-.98,1.26-1.75s.45-1.7.45-2.79v-.03c0-1.07-.15-1.99-.45-2.76-.3-.77-.73-1.35-1.27-1.75-.55-.4-1.19-.6-1.93-.6s-1.37.2-1.91.61-.97.99-1.27,1.75c-.3.76-.45,1.68-.45,2.75v.03c0,1.09.15,2.02.45,2.79s.72,1.35,1.27,1.75c.55.4,1.2.6,1.95.6Z"/><path class="h" d="M887.25,1236.89c-1.54,0-2.86-.22-3.95-.67-1.09-.45-1.94-1.07-2.54-1.87-.6-.8-.97-1.72-1.09-2.77l-.02-.14h4.45l.03.14c.15.66.47,1.17.98,1.53.51.37,1.22.55,2.12.55.58,0,1.08-.07,1.48-.21s.72-.34.95-.6c.22-.26.34-.57.34-.94v-.02c0-.45-.16-.81-.48-1.08-.32-.27-.9-.49-1.72-.67l-2.84-.61c-1.08-.23-1.99-.56-2.72-.99-.73-.43-1.28-.97-1.64-1.61-.37-.64-.55-1.38-.55-2.21v-.02c0-1.07.29-2,.87-2.78s1.4-1.39,2.45-1.82c1.06-.43,2.29-.65,3.71-.65s2.74.24,3.77.71c1.04.47,1.83,1.11,2.39,1.91.56.8.85,1.69.88,2.67v.16h-4.2l-.02-.12c-.07-.59-.35-1.09-.84-1.49-.48-.4-1.15-.6-1.99-.6-.52,0-.97.07-1.36.22-.39.15-.68.35-.89.61-.21.26-.31.57-.31.94v.02c0,.28.07.53.21.76.14.22.38.42.71.59.33.17.78.31,1.34.44l2.84.61c1.76.37,3.02.91,3.79,1.64.77.73,1.15,1.71,1.15,2.94v.02c0,1.09-.31,2.05-.94,2.86s-1.49,1.45-2.59,1.9c-1.1.45-2.37.68-3.8.68Z"/><path class="h" d="M904.45,1236.89c-1.71,0-3.18-.35-4.41-1.05-1.23-.7-2.18-1.71-2.84-3.01-.67-1.3-1-2.84-1-4.62v-.02c0-1.78.33-3.33,1-4.63.67-1.31,1.6-2.32,2.8-3.03,1.2-.71,2.62-1.07,4.26-1.07s3.05.35,4.24,1.04c1.19.69,2.11,1.67,2.77,2.93.65,1.26.98,2.73.98,4.42v1.42h-13.8v-2.89h11.64l-2.17,2.7v-1.77c0-.98-.15-1.8-.45-2.46-.3-.66-.72-1.16-1.26-1.49-.54-.33-1.16-.5-1.87-.5s-1.34.17-1.88.52-.97.85-1.28,1.51c-.31.66-.46,1.47-.46,2.43v1.78c0,.92.15,1.7.46,2.36.31.66.75,1.16,1.32,1.51.57.35,1.25.52,2.05.52.62,0,1.17-.1,1.62-.3.46-.2.83-.45,1.12-.75.29-.3.49-.61.59-.92l.03-.09h4.19l-.05.17c-.12.62-.37,1.23-.73,1.86-.37.62-.86,1.2-1.48,1.72-.62.52-1.38.94-2.27,1.25s-1.94.47-3.13.47Z"/></g></svg>