<?xml version="1.0" encoding="UTF-8"?><svg id="b" xmlns="http://www.w3.org/2000/svg" viewBox="0 0 1080 1080"><defs><style>.c{stroke:#d1d5db;stroke-miterlimit:10;stroke-width:4px;}.c,.d{fill:#fff;}.e{fill:#ffd400;}.f{fill:#f0f;}.g{fill:#00aeef;}.h{fill:green;}.i{fill:#0067c0;}.j{fill:#6a0dad;}.k{fill:red;}.l{fill:#f0f6fc;}.m{fill:#c9d1d9;}</style></defs><rect class="d" x="360" y="360" width="360" height="360"/><rect class="m" x="600" y="420" width="60" height="60"/><rect class="m" x="540" y="360" width="60" height="60"/><rect class="m" x="480" y="420" width="60" height="60"/><rect class="m" x="420" y="360" width="60" height="60"/><rect class="m" x="660" y="360" width="60" height="60"/><rect class="m" x="360" y="420" width="60" height="60"/><rect class="m" x="600" y="540" width="60" height="60"/><rect class="m" x="540" y="480" width="60" height="60"/><rect class="m" x="480" y="540" width="60" height="60"/><rect class="m" x="420" y="480" width="60" height="60"/><rect class="m" x="660" y="480" width="60" height="60"/><rect class="m" x="360" y="540" width="60" height="60"/><rect class="m" x="600" y="660" width="60" height="60"/><rect class="m" x="540" y="600" width="60" height="60"/><rect class="m" x="480" y="660" width="60" height="60"/><rect class="m" x="420" y="600" width="60" height="60"/><rect class="m" x="660" y="600" width="60" height="60"/><rect class="m" x="360" y="660" width="60" height="60"/><rect class="e" width="360" height="360"/><rect class="k" x="360" width="360" height="360"/><rect class="f" x="720" width="360" height="360"/><rect class="j" x="720" y="720" width="360" height="360"/><rect class="g" y="720" width="360" height="360"/><rect class="i" x="360" y="720" width="360" height="360"/><rect class="h" y="360" width="360" height="360"/><rect class="l" x="720" y="360" width="360" height="360"/><rect class="c" x="240" y="600" width="240" height="240" rx="120" ry="120"/></svg>