<?xml version="1.0" encoding="UTF-8"?><svg xmlns="http://www.w3.org/2000/svg" viewBox="0 0 1200 675"><defs><style>.c,.d{fill:none;}.e{fill:#1f2328;}.f{fill:#7a0000;}.g{fill:#ffd400;}.h{fill:#f0f;}.i{fill:#30363d;}.j{fill:#00aeef;}.k,.l{fill:#fff;}.k,.d,.m,.n{stroke-miterlimit:10;stroke-width:2px;}.k,.m,.n{stroke:#3d444d;}.o{fill:#9199a1;}.p{fill:green;}.q{fill:#3d444d;}.d{stroke:#f0883e;}.r{fill:#413500;}.s{fill:#484f58;}.t{fill:#0067c0;}.u{fill:#2f353d;}.v{fill:#6a0dad;}.w{fill:red;}.x{fill:#001f41;}.y,.n{fill:#300352;}.z{fill:#f0f6fc;}.aa{fill:#003d00;}.ab{fill:#c9d1d9;}.ac{fill:#f0883e;}.ad{fill:#003a52;}.ae{fill:#670067;}</style></defs><g id="a"><rect width="1200" height="675"/></g><g id="b"><path class="u" d="M41.07,631.42c0-3.63,2.8-6.43,6.35-6.43s6.35,2.8,6.35,6.43-2.8,6.43-6.35,6.43-6.35-2.8-6.35-6.43ZM52.53,631.42c0-2.95-2.24-5.29-5.11-5.29s-5.11,2.33-5.11,5.29,2.24,5.29,5.11,5.29,5.11-2.33,5.11-5.29ZM48.98,630.27c-.21-.64-.68-1.05-1.41-1.05-1.1,0-1.75.86-1.75,2.19s.64,2.19,1.75,2.19c.73,0,1.25-.39,1.41-.98h1.28c-.2,1.28-1.3,2.19-2.7,2.19-1.85,0-3.05-1.29-3.05-3.4s1.2-3.4,3.05-3.4c1.39,0,2.47.93,2.7,2.26h-1.28Z"/><path class="u" d="M76.97,622.61c2.96,0,5,1.9,5,4.66,0,1.72-.73,3.04-3.36,6.07l-4.23,4.89v.19h7.88v1.45h-10.24v-1.02l5.8-6.77c2.07-2.45,2.55-3.35,2.55-4.78,0-1.99-1.35-3.28-3.43-3.28s-3.41,1.39-3.41,3.55v.07h-1.58v-.07c0-2.87,2.12-4.96,5.03-4.96Z"/><path class="u" d="M86.48,631.42c0-5.72,1.93-8.85,5.46-8.85s5.46,3.13,5.46,8.85-1.93,8.85-5.46,8.85-5.46-3.13-5.46-8.85ZM88.22,633.93l7.15-6.54c-.57-2.25-1.72-3.41-3.43-3.41-2.53,0-3.86,2.55-3.86,7.44,0,.91.05,1.76.14,2.51ZM95.79,631.42c0-.94-.05-1.78-.14-2.54l-7.14,6.62c.57,2.21,1.72,3.36,3.42,3.36,2.53,0,3.86-2.55,3.86-7.44Z"/><path class="u" d="M106.64,622.61c2.96,0,5,1.9,5,4.66,0,1.72-.73,3.04-3.36,6.07l-4.23,4.89v.19h7.88v1.45h-10.24v-1.02l5.8-6.77c2.07-2.45,2.55-3.35,2.55-4.78,0-1.99-1.35-3.28-3.43-3.28s-3.41,1.39-3.41,3.55v.07h-1.58v-.07c0-2.87,2.12-4.96,5.03-4.96Z"/><path class="u" d="M116.09,635.5h1.54c.19,1.95,1.82,3.3,3.95,3.3,2.32,0,3.86-1.68,3.86-4.18s-1.56-4.25-3.86-4.25c-1.63,0-3,.76-3.69,2.04h-1.49l.88-9.45h8.84v1.44h-7.58l-.5,5.98h.18c.88-.98,2.05-1.48,3.5-1.48,3.13,0,5.32,2.34,5.32,5.68s-2.26,5.62-5.59,5.62c-3,0-5.14-1.89-5.34-4.71Z"/><path class="u" d="M146.64,639.87v-16.91h1.61v8.74h.14l7.18-8.74h2l-6.41,7.48,7.1,9.43h-2.07l-6.09-8.2-1.85,2.17v6.04h-1.61Z"/><path class="u" d="M160.76,634.5v-1.88c0-3.4,2.09-5.58,5.34-5.58s5.34,2.18,5.34,5.58v1.88c0,3.4-2.09,5.58-5.34,5.58s-5.34-2.18-5.34-5.58ZM162.3,632.83v1.48c0,2.73,1.46,4.41,3.81,4.41s3.81-1.68,3.81-4.41v-1.48c0-2.73-1.46-4.41-3.81-4.41s-3.81,1.68-3.81,4.41Z"/><path class="u" d="M175.95,622.22h1.46v7.3h.15c.69-1.59,2.17-2.48,4.12-2.48,2.75,0,4.24,1.63,4.24,4.63v8.2h-1.54v-7.82c0-2.47-1-3.63-3.12-3.63-2.26,0-3.8,1.61-3.8,3.95v7.5h-1.54v-17.65Z"/><path class="u" d="M200.97,636.75c-.42,2.02-2.34,3.33-4.89,3.33-3.4,0-5.37-2.1-5.37-5.7v-1.84c0-3.33,2.06-5.51,5.19-5.51s5.12,2.16,5.12,5.93v1h-8.78v.43c0,2.64,1.49,4.31,3.83,4.31,1.72,0,2.98-.73,3.36-1.96h1.52ZM192.25,632.7h7.22c0-2.68-1.34-4.3-3.56-4.3s-3.66,1.61-3.66,4.3Z"/><path class="u" d="M205.62,627.25h1.46v2.27h.15c.69-1.59,2.17-2.48,4.12-2.48,2.75,0,4.24,1.63,4.24,4.63v8.2h-1.54v-7.82c0-2.47-1-3.63-3.12-3.63-2.26,0-3.8,1.61-3.8,3.95v7.5h-1.54v-12.62Z"/><path class="u" d="M232.87,633.06v-1.36h14.84v1.36h-14.84Z"/><path class="u" d="M265.45,639.87h-1.5v-16.91h1.89l4.07,10.88h.13l4.04-10.88h1.9v16.91h-1.5v-13.79h-.12l-3.7,9.82h-1.38l-3.7-9.82h-.12v13.79Z"/><path class="u" d="M284,639.87v-15.46h-5.2v-1.45h12v1.45h-5.2v15.46h-1.59Z"/><path class="u" d="M300.16,622.96c3.18,0,5.3,2.11,5.3,5.26s-2.12,5.26-5.3,5.26h-3.81v6.39h-1.61v-16.91h5.41ZM296.35,632.05h3.42c2.57,0,4.05-1.41,4.05-3.83s-1.49-3.83-4.05-3.83h-3.42v7.66Z"/><path class="u" d="M321.88,633.06v-1.36h14.84v1.36h-14.84Z"/><path class="u" d="M354.17,639.87v-1.24h4.44v-10.14h-4.46v-1.24h6v11.38h4.32v1.24h-10.3ZM357.75,622.46c0-.8.66-1.45,1.45-1.45s1.45.66,1.45,1.45-.66,1.45-1.45,1.45-1.45-.66-1.45-1.45Z"/><path class="u" d="M379.79,639.87h-1.44v-8.71c0-1.82-.61-2.74-1.79-2.74-1.24,0-1.99,1.12-1.99,3v8.45h-1.44v-8.72c0-1.8-.61-2.73-1.8-2.73-1.27,0-2.04,1.14-2.04,3v8.45h-1.44v-12.62h1.39v1.69h.16c.33-1.17,1.25-1.9,2.41-1.9s2.06.7,2.33,1.9h.16c.34-1.15,1.41-1.9,2.71-1.9,1.84,0,2.78,1.28,2.78,3.77v9.06Z"/><path class="u" d="M392.29,627.25h1.95l-4.99,4.89,5.34,7.73h-1.85l-4.57-6.68-1.95,1.9v4.78h-1.54v-17.65h1.54v10.97h.14l5.93-5.94Z"/><path class="u" d="M398.14,634.5v-1.88c0-3.4,2.09-5.58,5.34-5.58s5.34,2.18,5.34,5.58v1.88c0,3.4-2.09,5.58-5.34,5.58s-5.34-2.18-5.34-5.58ZM399.67,632.83v1.48c0,2.73,1.46,4.41,3.81,4.41s3.81-1.68,3.81-4.41v-1.48c0-2.73-1.46-4.41-3.81-4.41s-3.81,1.68-3.81,4.41Z"/><path class="u" d="M413.32,622.22h1.46v7.3h.15c.69-1.59,2.17-2.48,4.12-2.48,2.75,0,4.24,1.63,4.24,4.63v8.2h-1.54v-7.82c0-2.47-1-3.63-3.12-3.63-2.26,0-3.8,1.61-3.8,3.95v7.5h-1.54v-17.65Z"/><path class="u" d="M438.34,636.75c-.42,2.02-2.34,3.33-4.89,3.33-3.4,0-5.37-2.1-5.37-5.7v-1.84c0-3.33,2.06-5.51,5.19-5.51s5.12,2.16,5.12,5.93v1h-8.78v.43c0,2.64,1.49,4.31,3.83,4.31,1.72,0,2.98-.73,3.36-1.96h1.52ZM429.62,632.7h7.22c0-2.68-1.34-4.3-3.56-4.3s-3.66,1.61-3.66,4.3Z"/><path class="u" d="M443,627.25h1.46v2.27h.15c.69-1.59,2.17-2.48,4.12-2.48,2.75,0,4.24,1.63,4.24,4.63v8.2h-1.54v-7.82c0-2.47-1-3.63-3.12-3.63-2.26,0-3.8,1.61-3.8,3.95v7.5h-1.54v-12.62Z"/><path class="u" d="M457.68,636.31c0-2.21,1.58-3.54,4.37-3.67l3.66-.16v-1.2c0-1.82-1.04-2.8-2.98-2.8-1.59,0-2.7.68-3.05,1.9h-1.52c.23-1.89,2.13-3.23,4.57-3.23,2.86,0,4.52,1.5,4.52,4.07v8.67h-1.48v-1.99h-.16c-.6,1.42-1.99,2.2-3.9,2.2-2.43,0-4.03-1.5-4.03-3.79ZM465.71,635.51v-1.76l-3.55.15c-1.89.08-2.89.93-2.89,2.4s1.08,2.43,2.82,2.43c2.04,0,3.62-1.41,3.62-3.22Z"/><path class="u" d="M482.65,639.87h-1.46v-2.27h-.15c-.69,1.59-2.17,2.48-4.12,2.48-2.75,0-4.24-1.63-4.24-4.63v-8.2h1.54v7.82c0,2.47,1,3.63,3.12,3.63,2.26,0,3.8-1.61,3.8-3.95v-7.5h1.54v12.62Z"/><path class="u" d="M492.57,627.04c2.47,0,4.22,1.28,4.49,3.27h-1.51c-.27-1.23-1.42-1.99-3.02-1.99-1.76,0-2.88.84-2.88,2.16,0,1.1.69,1.71,2.41,2.11l1.71.4c2.43.57,3.53,1.64,3.53,3.42,0,2.23-1.89,3.68-4.76,3.68s-4.59-1.3-4.83-3.38h1.59c.33,1.3,1.55,2.06,3.3,2.06,1.89,0,3.09-.89,3.09-2.27,0-1.15-.67-1.76-2.39-2.17l-1.86-.45c-2.25-.53-3.35-1.63-3.35-3.35,0-2.07,1.82-3.49,4.48-3.49Z"/><path class="u" d="M512.52,636.75c-.42,2.02-2.34,3.33-4.89,3.33-3.4,0-5.37-2.1-5.37-5.7v-1.84c0-3.33,2.06-5.51,5.19-5.51s5.12,2.16,5.12,5.93v1h-8.78v.43c0,2.64,1.49,4.31,3.83,4.31,1.72,0,2.98-.73,3.36-1.96h1.52ZM503.8,632.7h7.22c0-2.68-1.34-4.3-3.56-4.3s-3.66,1.61-3.66,4.3Z"/><path class="u" d="M521.57,638.63h4.01v1.24h-8.14v-1.24h2.6v-10.14h-2.86v-1.24h4.36v3.21h.16c.43-2.25,2.1-3.53,4.56-3.53.73,0,1.44.11,1.84.28v1.68c-.59-.21-1.39-.35-2.07-.35-2.72,0-4.45,2.2-4.45,5.66v4.43Z"/><path class="u" d="M535.06,637.93c0-1.07.88-1.95,1.95-1.95s1.95.88,1.95,1.95-.88,1.95-1.95,1.95-1.95-.88-1.95-1.95Z"/><path class="u" d="M555.4,630.96c-.26-1.5-1.65-2.54-3.38-2.54-2.4,0-3.74,1.61-3.74,4.5v1.28c0,2.89,1.34,4.5,3.74,4.5,1.72,0,3.12-1.04,3.38-2.54h1.52c-.33,2.37-2.25,3.93-4.86,3.93-3.32,0-5.31-2.11-5.31-5.62v-1.79c0-3.52,1.99-5.62,5.31-5.62,2.61,0,4.54,1.56,4.86,3.93h-1.52Z"/><path class="u" d="M561.33,634.5v-1.88c0-3.4,2.09-5.58,5.34-5.58s5.34,2.18,5.34,5.58v1.88c0,3.4-2.09,5.58-5.34,5.58s-5.34-2.18-5.34-5.58ZM562.87,632.83v1.48c0,2.73,1.46,4.41,3.81,4.41s3.81-1.68,3.81-4.41v-1.48c0-2.73-1.46-4.41-3.81-4.41s-3.81,1.68-3.81,4.41Z"/><path class="u" d="M587.49,639.87h-1.44v-8.71c0-1.82-.61-2.74-1.79-2.74-1.24,0-1.99,1.12-1.99,3v8.45h-1.44v-8.72c0-1.8-.61-2.73-1.8-2.73-1.27,0-2.04,1.14-2.04,3v8.45h-1.44v-12.62h1.39v1.69h.16c.33-1.17,1.25-1.9,2.41-1.9s2.06.7,2.33,1.9h.16c.34-1.15,1.41-1.9,2.71-1.9,1.84,0,2.78,1.28,2.78,3.77v9.06Z"/><path class="u" d="M591.45,641.03l8.33-19.23h1.46l-8.33,19.23h-1.46Z"/><path class="u" d="M617.16,639.87h-1.44v-8.71c0-1.82-.61-2.74-1.79-2.74-1.24,0-1.99,1.12-1.99,3v8.45h-1.44v-8.72c0-1.8-.61-2.73-1.8-2.73-1.27,0-2.04,1.14-2.04,3v8.45h-1.44v-12.62h1.39v1.69h.16c.33-1.17,1.25-1.9,2.41-1.9s2.06.7,2.33,1.9h.16c.34-1.15,1.41-1.9,2.71-1.9,1.84,0,2.78,1.28,2.78,3.77v9.06Z"/><path class="u" d="M625.57,623.97v3.28h5.29v1.3h-5.29v7.63c0,1.56,1.08,2.4,3.08,2.4.87,0,1.79-.04,2.2-.09v1.31c-.38.07-1.56.14-2.29.14-3.04,0-4.54-1.23-4.54-3.71v-7.68h-3.4v-1.3h3.4v-3.28h1.54Z"/><path class="u" d="M646.34,632.35v2.43c0,3.15-1.99,5.31-4.92,5.31-1.83,0-3.21-.75-3.81-2.07h-.21v6.14h-1.54v-16.9h1.46v1.82h.21c.74-1.32,2.09-2.03,3.88-2.03,2.93,0,4.92,2.16,4.92,5.31ZM637.36,632.72v1.69c0,2.61,1.46,4.3,3.71,4.3s3.73-1.7,3.73-4.3v-1.69c0-2.6-1.46-4.3-3.73-4.3s-3.71,1.69-3.71,4.3Z"/><path class="ac" d="M1028.09,485.96h1.63l-5.58,16.91h-1.57l-5.58-16.91h1.63l4.72,14.81h.02l4.72-14.81Z"/><path class="ac" d="M1043.38,499.75c-.42,2.02-2.34,3.33-4.89,3.33-3.4,0-5.37-2.1-5.37-5.7v-1.84c0-3.33,2.06-5.51,5.19-5.51s5.12,2.16,5.12,5.93v1h-8.78v.43c0,2.64,1.49,4.31,3.83,4.31,1.72,0,2.98-.73,3.36-1.96h1.52ZM1034.66,495.7h7.22c0-2.68-1.34-4.3-3.56-4.3s-3.66,1.61-3.66,4.3Z"/><path class="ac" d="M1052.43,501.63h4.01v1.24h-8.14v-1.24h2.6v-10.14h-2.86v-1.24h4.36v3.21h.16c.43-2.25,2.1-3.53,4.56-3.53.73,0,1.44.11,1.84.28v1.68c-.59-.21-1.39-.35-2.07-.35-2.72,0-4.45,2.2-4.45,5.66v4.43Z"/><path class="ac" d="M1067.42,486.97v3.28h5.29v1.3h-5.29v7.63c0,1.56,1.08,2.4,3.08,2.4.87,0,1.79-.04,2.2-.09v1.31c-.38.07-1.56.14-2.29.14-3.04,0-4.54-1.23-4.54-3.71v-7.68h-3.4v-1.3h3.4v-3.28h1.54Z"/><path class="ac" d="M1087.89,499.75c-.42,2.02-2.34,3.33-4.89,3.33-3.4,0-5.37-2.1-5.37-5.7v-1.84c0-3.33,2.06-5.51,5.19-5.51s5.12,2.16,5.12,5.93v1h-8.78v.43c0,2.64,1.49,4.31,3.83,4.31,1.72,0,2.98-.73,3.36-1.96h1.52ZM1079.17,495.7h7.22c0-2.68-1.34-4.3-3.56-4.3s-3.66,1.61-3.66,4.3Z"/><path class="ac" d="M1097.45,497.71l-3.45,5.16h-1.76l4.45-6.35-4.49-6.27h1.85l3.43,5.04h.14l3.41-5.04h1.77l-4.43,6.21,4.48,6.41h-1.84l-3.43-5.16h-.14Z"/><rect class="c" x="236.67" y="525" width="333.33" height="40"/><path class="o" d="M278.54,532.57h-.09l-8.95,6.23v-4.24l9-6.47h4.12v33.82h-4.08v-29.34Z"/><path class="o" d="M301.89,546.3h9.98v-9.7h3.8v9.7h10.01v3.8h-10.01v9.7h-3.8v-9.7h-9.98v-3.8Z"/><path class="o" d="M366.57,544.38v.05c0,11.39-4.85,18.05-13.12,18.05-5.74,0-10.03-3.28-11.16-8.2l-.07-.3h4.29l.09.26c1.01,2.79,3.42,4.52,6.89,4.52,6.3,0,8.79-6.12,8.98-13.22.02-.23.02-.47.02-.73h-.09c-1.36,3-4.83,5.44-9.42,5.44-6.45,0-11.23-4.76-11.23-11.18v-.05c0-6.66,5.06-11.48,11.98-11.48,6.23,0,12.84,4.31,12.84,16.85ZM361.49,539.08v-.02c0-4.34-3.38-7.78-7.71-7.78s-7.73,3.38-7.73,7.64v.05c0,4.41,3.21,7.57,7.66,7.57s7.78-3.14,7.78-7.45Z"/><path class="o" d="M383.96,549.09c0-8.34,2.09-15.19,6.66-21h3.42c-3.38,3.91-5.93,13.17-5.93,21s2.55,17.11,5.93,21.02h-3.42c-4.57-5.79-6.66-12.68-6.66-21.02Z"/><path class="o" d="M407.96,553.24l-.02-.28h4.05l.02.23c.35,3.33,3.4,5.62,7.9,5.62s7.45-2.48,7.45-6.07v-.05c0-4.15-2.98-6.47-7.71-6.47h-4.24v-3.56h4.05c4.03,0,6.84-2.48,6.84-5.86v-.05c0-3.54-2.32-5.58-6.45-5.58s-6.82,2.11-7.17,5.53l-.02.23h-4.05l.02-.23c.54-5.51,4.9-9.19,11.23-9.19s10.69,3.59,10.69,8.72v.05c0,4.17-2.95,7.03-7.17,7.92v.09c4.92.42,8.27,3.49,8.27,8.3v.05c0,5.65-4.97,9.82-11.74,9.82s-11.51-3.89-11.95-9.23Z"/><path class="o" d="M450.85,536.69l8.65,8.91,8.65-8.91,2.58,2.58-8.7,8.93,8.7,8.95-2.58,2.58-8.65-8.91-8.65,8.91-2.58-2.58,8.7-8.95-8.7-8.93,2.58-2.58Z"/><path class="o" d="M486.99,553.24l-.02-.28h4.05l.02.23c.35,3.33,3.4,5.62,7.9,5.62s7.45-2.48,7.45-6.07v-.05c0-4.15-2.98-6.47-7.71-6.47h-4.24v-3.56h4.05c4.03,0,6.84-2.48,6.84-5.86v-.05c0-3.54-2.32-5.58-6.45-5.58s-6.82,2.11-7.17,5.53l-.02.23h-4.05l.02-.23c.54-5.51,4.9-9.19,11.23-9.19s10.69,3.59,10.69,8.72v.05c0,4.17-2.95,7.03-7.17,7.92v.09c4.92.42,8.27,3.49,8.27,8.3v.05c0,5.65-4.97,9.82-11.74,9.82s-11.51-3.89-11.95-9.23Z"/><path class="o" d="M524.96,570.11c3.38-3.91,5.93-13.2,5.93-21.02s-2.55-17.09-5.93-21h3.42c4.57,5.81,6.66,12.66,6.66,21s-2.09,15.23-6.66,21.02h-3.42Z"/><rect class="c" x="630" y="525" width="333.33" height="40"/><path class="o" d="M688,544.38v.05c0,11.39-4.85,18.05-13.12,18.05-5.74,0-10.03-3.28-11.16-8.2l-.07-.3h4.29l.09.26c1.01,2.79,3.42,4.52,6.89,4.52,6.3,0,8.79-6.12,8.98-13.22.02-.23.02-.47.02-.73h-.09c-1.36,3-4.83,5.44-9.42,5.44-6.45,0-11.23-4.76-11.23-11.18v-.05c0-6.66,5.06-11.48,11.98-11.48,6.23,0,12.84,4.31,12.84,16.85ZM682.92,539.08v-.02c0-4.34-3.38-7.78-7.71-7.78s-7.73,3.38-7.73,7.64v.05c0,4.41,3.21,7.57,7.66,7.57s7.78-3.14,7.78-7.45Z"/><path class="o" d="M705.39,549.09c0-8.34,2.09-15.19,6.66-21h3.42c-3.38,3.91-5.93,13.17-5.93,21s2.55,17.11,5.93,21.02h-3.42c-4.57-5.79-6.66-12.68-6.66-21.02Z"/><path class="o" d="M729.39,553.24l-.02-.28h4.05l.02.23c.35,3.33,3.4,5.62,7.9,5.62s7.45-2.48,7.45-6.07v-.05c0-4.15-2.98-6.47-7.71-6.47h-4.24v-3.56h4.05c4.03,0,6.84-2.48,6.84-5.86v-.05c0-3.54-2.32-5.58-6.45-5.58s-6.82,2.11-7.17,5.53l-.02.23h-4.05l.02-.23c.54-5.51,4.9-9.19,11.23-9.19s10.69,3.59,10.69,8.72v.05c0,4.17-2.95,7.03-7.17,7.92v.09c4.92.42,8.27,3.49,8.27,8.3v.05c0,5.65-4.97,9.82-11.74,9.82s-11.51-3.89-11.95-9.23Z"/><path class="o" d="M772.28,536.69l8.65,8.91,8.65-8.91,2.58,2.58-8.7,8.93,8.7,8.95-2.58,2.58-8.65-8.91-8.65,8.91-2.58-2.58,8.7-8.95-8.7-8.93,2.58-2.58Z"/><path class="o" d="M808.42,553.24l-.02-.28h4.05l.02.23c.35,3.33,3.4,5.62,7.9,5.62s7.45-2.48,7.45-6.07v-.05c0-4.15-2.98-6.47-7.71-6.47h-4.24v-3.56h4.05c4.03,0,6.84-2.48,6.84-5.86v-.05c0-3.54-2.32-5.58-6.45-5.58s-6.82,2.11-7.17,5.53l-.02.23h-4.05l.02-.23c.54-5.51,4.9-9.19,11.23-9.19s10.69,3.59,10.69,8.72v.05c0,4.17-2.95,7.03-7.17,7.92v.09c4.92.42,8.27,3.49,8.27,8.3v.05c0,5.65-4.97,9.82-11.74,9.82s-11.51-3.89-11.95-9.23Z"/><path class="o" d="M846.39,570.11c3.38-3.91,5.93-13.2,5.93-21.02s-2.55-17.09-5.93-21h3.42c4.57,5.81,6.66,12.66,6.66,21s-2.09,15.23-6.66,21.02h-3.42Z"/><path class="o" d="M874.35,546.3h9.98v-9.7h3.8v9.7h10.01v3.8h-10.01v9.7h-3.8v-9.7h-9.98v-3.8Z"/><path class="o" d="M922.91,532.57h-.09l-8.95,6.23v-4.24l9-6.47h4.12v33.82h-4.08v-29.34Z"/><rect class="c" x="236.67" y="80" width="333.33" height="40"/><path class="z" d="M338.86,108.1l-.02-.33h4.22l.05.33c.49,3.4,3.77,5.48,8.67,5.48s7.95-2.2,7.95-5.7v-.02c0-2.98-1.95-4.64-6.59-5.67l-3.75-.82c-6.61-1.45-9.7-4.43-9.7-9.38v-.02c.02-5.55,4.95-9.45,11.91-9.45s11.44,3.82,11.81,9.35l.02.35h-4.22l-.05-.33c-.52-3.45-3.4-5.48-7.69-5.48-4.52.02-7.48,2.18-7.48,5.44v.02c0,2.77,2.04,4.5,6.45,5.46l3.75.82c6.94,1.52,9.84,4.34,9.84,9.49v.02c0,6-4.76,9.8-12.49,9.8-7.31,0-12.26-3.59-12.68-9.38Z"/><path class="z" d="M368.55,85.86c0-1.43,1.15-2.55,2.55-2.55s2.55,1.12,2.55,2.55-1.12,2.55-2.55,2.55-2.55-1.15-2.55-2.55ZM369.06,92.54h4.08v24.38h-4.08v-24.38Z"/><path class="z" d="M377.98,104.72v-.02c0-7.69,4.17-12.63,10.29-12.63,3.45,0,6.28,1.73,7.8,4.55h.09v-13.52h4.08v33.82h-4.08v-4.12h-.09c-1.52,2.84-4.24,4.59-7.73,4.59-6.23,0-10.36-4.97-10.36-12.66ZM396.19,104.72v-.02c0-5.44-2.95-9.02-7.05-9.02-4.31,0-6.98,3.47-6.98,9.02v.02c0,5.6,2.67,9.05,6.98,9.05s7.05-3.59,7.05-9.05Z"/><path class="z" d="M405.04,104.82v-.02c0-7.55,4.31-12.73,10.97-12.73s10.71,4.95,10.71,12.26v1.5h-17.55c.09,5.02,2.86,7.95,7.2,7.95,3.09,0,5.27-1.55,5.98-3.63l.07-.21h4.01l-.05.23c-.8,4.03-4.78,7.22-10.1,7.22-7.01,0-11.23-4.9-11.23-12.56ZM409.23,102.64h13.34c-.4-4.73-3.02-6.96-6.59-6.96s-6.3,2.41-6.75,6.96Z"/><path class="z" d="M452.15,83.09h4.17l12.56,33.82h-4.43l-3.42-9.68h-13.62l-3.42,9.68h-4.43l12.59-33.82ZM448.7,103.64h11.06l-5.48-15.49h-.09l-5.48,15.49Z"/><rect class="c" x="630" y="80" width="333.33" height="40"/><path class="z" d="M732.94,108.1l-.02-.33h4.22l.05.33c.49,3.4,3.77,5.48,8.67,5.48s7.95-2.2,7.95-5.7v-.02c0-2.98-1.95-4.64-6.59-5.67l-3.75-.82c-6.61-1.45-9.7-4.43-9.7-9.38v-.02c.02-5.55,4.95-9.45,11.91-9.45s11.44,3.82,11.81,9.35l.02.35h-4.22l-.05-.33c-.52-3.45-3.4-5.48-7.69-5.48-4.52.02-7.48,2.18-7.48,5.44v.02c0,2.77,2.04,4.5,6.45,5.46l3.75.82c6.94,1.52,9.84,4.34,9.84,9.49v.02c0,6-4.76,9.8-12.49,9.8-7.31,0-12.26-3.59-12.68-9.38Z"/><path class="z" d="M762.62,85.86c0-1.43,1.15-2.55,2.55-2.55s2.55,1.12,2.55,2.55-1.12,2.55-2.55,2.55-2.55-1.15-2.55-2.55ZM763.13,92.54h4.08v24.38h-4.08v-24.38Z"/><path class="z" d="M772.05,104.72v-.02c0-7.69,4.17-12.63,10.29-12.63,3.45,0,6.28,1.73,7.8,4.55h.09v-13.52h4.08v33.82h-4.08v-4.12h-.09c-1.52,2.84-4.24,4.59-7.73,4.59-6.23,0-10.36-4.97-10.36-12.66ZM790.26,104.72v-.02c0-5.44-2.95-9.02-7.05-9.02-4.31,0-6.98,3.47-6.98,9.02v.02c0,5.6,2.67,9.05,6.98,9.05s7.05-3.59,7.05-9.05Z"/><path class="z" d="M799.11,104.82v-.02c0-7.55,4.31-12.73,10.97-12.73s10.71,4.95,10.71,12.26v1.5h-17.55c.09,5.02,2.86,7.95,7.2,7.95,3.09,0,5.27-1.55,5.98-3.63l.07-.21h4.01l-.05.23c-.8,4.03-4.78,7.22-10.1,7.22-7.01,0-11.23-4.9-11.23-12.56ZM803.3,102.64h13.34c-.4-4.73-3.02-6.96-6.59-6.96s-6.3,2.41-6.75,6.96Z"/><path class="z" d="M836.33,83.09h12.82c5.79,0,9.7,3.38,9.7,8.44v.05c0,3.49-2.62,6.89-6.12,7.38v.09c4.88.56,7.83,3.84,7.83,8.32v.05c0,5.95-4.27,9.49-11.46,9.49h-12.77v-33.82ZM840.55,86.82v10.85h6.33c4.99,0,7.71-1.99,7.71-5.65v-.05c0-3.33-2.32-5.16-6.4-5.16h-7.64ZM840.55,101.3v11.88h7.92c5.06,0,7.76-2.04,7.76-5.93v-.05c0-3.91-2.77-5.91-8.16-5.91h-7.52Z"/><line class="d" x1="1063.63" y1="159.15" x2="1057.6" y2="229.05"/><polygon class="ac" points="1047.92 225.28 1056.36 243.35 1067.79 227 1047.92 225.28"/><path class="ac" d="M985.36,113.06v-15.46h-5.2v-1.45h12v1.45h-5.2v15.46h-1.59Z"/><path class="ac" d="M1000.39,111.81h4.01v1.24h-8.14v-1.24h2.6v-10.14h-2.86v-1.24h4.36v3.21h.16c.43-2.25,2.1-3.53,4.56-3.53.73,0,1.44.11,1.84.28v1.68c-.59-.21-1.39-.35-2.07-.35-2.72,0-4.45,2.2-4.45,5.66v4.43Z"/><path class="ac" d="M1010.68,109.49c0-2.21,1.58-3.54,4.37-3.67l3.66-.16v-1.2c0-1.82-1.04-2.8-2.98-2.8-1.59,0-2.7.68-3.05,1.9h-1.52c.23-1.89,2.13-3.23,4.57-3.23,2.86,0,4.52,1.5,4.52,4.07v8.67h-1.48v-1.99h-.16c-.6,1.42-1.99,2.2-3.9,2.2-2.43,0-4.03-1.5-4.03-3.79ZM1018.71,108.7v-1.76l-3.55.15c-1.89.08-2.89.93-2.89,2.4s1.08,2.43,2.82,2.43c2.04,0,3.62-1.41,3.62-3.22Z"/><path class="ac" d="M1025.67,100.43h1.46v2.27h.15c.69-1.59,2.17-2.48,4.12-2.48,2.75,0,4.24,1.63,4.24,4.63v8.2h-1.54v-7.82c0-2.47-1-3.63-3.12-3.63-2.26,0-3.8,1.61-3.8,3.95v7.5h-1.54v-12.62Z"/><path class="ac" d="M1045.57,100.22c2.47,0,4.22,1.28,4.49,3.27h-1.51c-.27-1.23-1.42-1.99-3.02-1.99-1.76,0-2.88.84-2.88,2.16,0,1.1.69,1.71,2.41,2.11l1.71.4c2.43.57,3.53,1.64,3.53,3.42,0,2.23-1.89,3.68-4.76,3.68s-4.59-1.3-4.83-3.38h1.59c.33,1.3,1.55,2.06,3.3,2.06,1.89,0,3.09-.89,3.09-2.27,0-1.15-.67-1.76-2.39-2.17l-1.86-.45c-2.25-.53-3.35-1.63-3.35-3.35,0-2.07,1.82-3.49,4.48-3.49Z"/><path class="ac" d="M1058.59,101.74h-3.4v-1.3h3.4v-1.45c0-2.24,1.57-3.42,4.57-3.42.89,0,2.21.08,2.72.16v1.29c-.67-.08-1.86-.14-2.72-.14-1.99,0-3.04.74-3.04,2.16v1.41h5.75v1.3h-5.75v11.32h-1.54v-11.32Z"/><path class="ac" d="M1069.82,107.69v-1.88c0-3.4,2.09-5.58,5.34-5.58s5.34,2.18,5.34,5.58v1.88c0,3.4-2.09,5.58-5.34,5.58s-5.34-2.18-5.34-5.58ZM1071.36,106.01v1.48c0,2.73,1.46,4.41,3.81,4.41s3.81-1.68,3.81-4.41v-1.48c0-2.73-1.46-4.41-3.81-4.41s-3.81,1.68-3.81,4.41Z"/><path class="ac" d="M1089.41,111.81h4.01v1.24h-8.14v-1.24h2.6v-10.14h-2.86v-1.24h4.36v3.21h.16c.43-2.25,2.1-3.53,4.56-3.53.73,0,1.44.11,1.84.28v1.68c-.59-.21-1.39-.35-2.07-.35-2.72,0-4.45,2.2-4.45,5.66v4.43Z"/><path class="ac" d="M1110.82,113.06h-1.44v-8.71c0-1.82-.61-2.74-1.79-2.74-1.24,0-1.99,1.12-1.99,3v8.45h-1.44v-8.72c0-1.8-.61-2.73-1.8-2.73-1.27,0-2.04,1.14-2.04,3v8.45h-1.44v-12.62h1.39v1.69h.16c.33-1.17,1.25-1.9,2.41-1.9s2.06.7,2.33,1.9h.16c.34-1.15,1.41-1.9,2.71-1.9,1.84,0,2.78,1.28,2.78,3.77v9.06Z"/><path class="ac" d="M1124.87,109.94c-.42,2.02-2.34,3.33-4.89,3.33-3.4,0-5.37-2.1-5.37-5.7v-1.84c0-3.33,2.06-5.51,5.19-5.51s5.12,2.16,5.12,5.93v1h-8.78v.43c0,2.64,1.49,4.31,3.83,4.31,1.72,0,2.98-.73,3.36-1.96h1.52ZM1116.15,105.88h7.22c0-2.68-1.34-4.3-3.56-4.3s-3.66,1.61-3.66,4.3Z"/><path class="ac" d="M1129.03,107.96v-2.43c0-3.15,1.99-5.31,4.92-5.31,1.83,0,3.21.75,3.81,2.07h.21v-6.89h1.54v17.65h-1.46v-1.82h-.21c-.74,1.32-2.09,2.03-3.88,2.03-2.93,0-4.92-2.16-4.92-5.31ZM1138,107.59v-1.69c0-2.61-1.46-4.3-3.71-4.3s-3.73,1.7-3.73,4.3v1.69c0,2.6,1.46,4.3,3.73,4.3s3.71-1.69,3.71-4.3Z"/><path class="ac" d="M1035.01,136.06h-4.17v-1.43h5.78v3.63c0,3.01-2.36,5.14-5.66,5.14-3.89,0-6.14-2.71-6.14-7.41v-2.8c0-4.7,2.25-7.41,6.14-7.41,3.43,0,5.59,2.1,5.67,5.52h-1.61c-.09-2.4-1.73-4.03-4.07-4.03-2.98,0-4.54,2.04-4.54,5.92v2.8c0,3.88,1.56,5.92,4.54,5.92,2.5,0,4.05-1.49,4.05-3.88v-1.98Z"/><path class="ac" d="M1040.69,143.06v-1.24h4.44v-10.14h-4.46v-1.24h6v11.38h4.32v1.24h-10.3ZM1044.28,125.64c0-.8.66-1.45,1.45-1.45s1.45.66,1.45,1.45-.66,1.45-1.45,1.45-1.45-.66-1.45-1.45Z"/><path class="ac" d="M1055.54,141.88l7.73-10.01v-.14h-7.72v-1.3h9.56v1.18l-7.71,10v.14h7.72v1.3h-9.59v-1.17Z"/><path class="ac" d="M1081.14,143.06h-1.44v-8.71c0-1.82-.61-2.74-1.79-2.74-1.24,0-1.99,1.12-1.99,3v8.45h-1.44v-8.72c0-1.8-.61-2.73-1.8-2.73-1.27,0-2.04,1.14-2.04,3v8.45h-1.44v-12.62h1.39v1.69h.16c.33-1.17,1.25-1.9,2.41-1.9s2.06.7,2.33,1.9h.16c.34-1.15,1.41-1.9,2.71-1.9,1.84,0,2.78,1.28,2.78,3.77v9.06Z"/><path class="ac" d="M1084.66,137.69v-1.88c0-3.4,2.09-5.58,5.34-5.58s5.34,2.18,5.34,5.58v1.88c0,3.4-2.09,5.58-5.34,5.58s-5.34-2.18-5.34-5.58ZM1086.2,136.01v1.48c0,2.73,1.46,4.41,3.81,4.41s3.81-1.68,3.81-4.41v-1.48c0-2.73-1.46-4.41-3.81-4.41s-3.81,1.68-3.81,4.41Z"/><path class="k" d="M151.11,263.21h0c30.66,0,55.56,24.89,55.56,55.56h0c0,30.66-24.89,55.56-55.56,55.56h0c-30.66,0-55.56-24.89-55.56-55.56h0c0-30.66,24.89-55.56,55.56-55.56Z"/><path class="e" d="M151.84,307.33h-.09l-8.95,6.23v-4.24l9-6.47h4.12v33.82h-4.08v-29.34Z"/><rect class="m" x="993.33" y="263.21" width="111.11" height="111.11" rx="55.56" ry="55.56"/><path class="l" d="M1023.25,333.77l11.91-12.42c4.57-4.76,5.62-6.59,5.62-9.4v-.05c-.02-3.45-2.62-5.93-6.3-5.93-4.22,0-7.36,2.91-7.36,6.54v.12h-4.08v-.14c0-5.86,5.06-10.2,11.37-10.2s10.59,4.1,10.59,9.4v.05c0,3.7-1.71,6.49-7.92,12.84l-8.04,8.25v.09h16.52v3.75h-22.31v-2.91Z"/><path class="l" d="M1050.29,319.78v-.05c0-10.73,4.62-17.44,12.4-17.44s12.45,6.7,12.45,17.44v.05c0,10.73-4.66,17.46-12.45,17.46s-12.4-6.73-12.4-17.46ZM1070.89,319.78v-.05c0-8.48-3.05-13.73-8.2-13.73s-8.16,5.25-8.16,13.73v.05c0,8.48,3,13.78,8.16,13.78s8.2-5.3,8.2-13.78Z"/><rect class="l" x="238.86" y="154.29" width="328.95" height="328.95"/><rect class="ab" x="421.85" y="281.96" width="18.52" height="18.52"/><rect class="ab" x="403.33" y="263.44" width="18.52" height="18.52"/><rect class="ab" x="384.81" y="281.96" width="18.52" height="18.52"/><rect class="ab" x="366.3" y="263.44" width="18.52" height="18.52"/><rect class="ab" x="440.37" y="263.44" width="18.52" height="18.52"/><rect class="ab" x="347.78" y="281.96" width="18.52" height="18.52"/><rect class="ab" x="421.85" y="319" width="18.52" height="18.52"/><rect class="ab" x="403.33" y="300.48" width="18.52" height="18.52"/><rect class="ab" x="384.81" y="319" width="18.52" height="18.52"/><rect class="ab" x="366.3" y="300.48" width="18.52" height="18.52"/><rect class="ab" x="440.37" y="300.48" width="18.52" height="18.52"/><rect class="ab" x="347.78" y="319" width="18.52" height="18.52"/><rect class="ab" x="421.85" y="356.04" width="18.52" height="18.52"/><rect class="ab" x="403.33" y="337.52" width="18.52" height="18.52"/><rect class="ab" x="384.81" y="356.04" width="18.52" height="18.52"/><rect class="ab" x="366.3" y="337.52" width="18.52" height="18.52"/><rect class="ab" x="440.37" y="337.52" width="18.52" height="18.52"/><rect class="ab" x="347.78" y="356.04" width="18.52" height="18.52"/><rect class="j" x="236.67" y="374.32" width="111.11" height="111.11"/><rect class="v" x="458.89" y="374.32" width="111.11" height="111.11"/><rect class="g" x="236.67" y="152.1" width="111.11" height="111.11"/><rect class="h" x="458.89" y="152.1" width="111.11" height="111.11"/><path class="e" d="M281.38,222.66l11.91-12.42c4.57-4.76,5.62-6.59,5.62-9.4v-.05c-.02-3.45-2.62-5.93-6.3-5.93-4.22,0-7.36,2.91-7.36,6.54v.12h-4.08v-.14c0-5.86,5.06-10.2,11.37-10.2s10.59,4.1,10.59,9.4v.05c0,3.7-1.71,6.49-7.92,12.84l-8.04,8.25v.09h16.52v3.75h-22.31v-2.91Z"/><path class="e" d="M279.94,438.65v-.05c0-4.17,2.93-7.64,7.27-8.65v-.09c-3.7-1.15-6.05-3.96-6.05-7.52v-.05c0-5.11,4.66-8.88,11.06-8.88s11.06,3.77,11.06,8.88v.05c0,3.56-2.34,6.38-6.05,7.52v.09c4.34,1.01,7.27,4.48,7.27,8.65v.05c0,5.67-5.11,9.7-12.28,9.7s-12.28-4.03-12.28-9.7ZM300.21,438.39v-.05c0-3.7-3.3-6.35-7.99-6.35s-7.99,2.65-7.99,6.35v.05c0,3.66,3.33,6.28,7.99,6.28s7.99-2.62,7.99-6.28ZM299.09,422.69v-.05c0-3.28-2.79-5.6-6.87-5.6s-6.87,2.32-6.87,5.6v.05c0,3.28,2.79,5.6,6.87,5.6s6.87-2.32,6.87-5.6Z"/><path class="z" d="M518.76,218.54h-16.99v-3.82l14.84-22.97h6.23v23.09h4.78v3.7h-4.78v7.03h-4.08v-7.03ZM518.76,214.83v-19.48h-.14l-12.68,19.38v.09h12.82Z"/><path class="z" d="M500.38,418.45h-.09l-8.95,6.23v-4.24l9-6.47h4.12v33.82h-4.08v-29.34Z"/><path class="z" d="M512.91,430.89v-.05c0-10.73,4.62-17.44,12.4-17.44s12.45,6.7,12.45,17.44v.05c0,10.73-4.66,17.46-12.45,17.46s-12.4-6.73-12.4-17.46ZM533.51,430.89v-.05c0-8.48-3.05-13.73-8.2-13.73s-8.16,5.25-8.16,13.73v.05c0,8.48,3,13.78,8.16,13.78s8.2-5.3,8.2-13.78Z"/><rect class="p" x="236.67" y="263.21" width="111.11" height="111.11"/><rect class="z" x="458.89" y="263.68" width="111.11" height="111.11"/><rect class="t" x="347.78" y="374.79" width="111.11" height="111.11"/><rect class="w" x="347.78" y="152.1" width="111.11" height="111.11"/><path class="z" d="M391.31,216.9l-.02-.28h4.05l.02.23c.35,3.33,3.4,5.62,7.9,5.62s7.45-2.48,7.45-6.07v-.05c0-4.15-2.98-6.47-7.71-6.47h-4.24v-3.56h4.05c4.03,0,6.84-2.48,6.84-5.86v-.05c0-3.54-2.32-5.58-6.45-5.58s-6.82,2.11-7.17,5.53l-.02.23h-4.05l.02-.23c.54-5.51,4.9-9.19,11.23-9.19s10.69,3.59,10.69,8.72v.05c0,4.17-2.95,7.03-7.17,7.92v.09c4.92.42,8.27,3.49,8.27,8.3v.05c0,5.65-4.97,9.82-11.74,9.82s-11.51-3.89-11.95-9.23Z"/><path class="z" d="M416.01,430.72v.05c0,11.39-4.85,18.05-13.12,18.05-5.74,0-10.03-3.28-11.16-8.2l-.07-.3h4.29l.09.26c1.01,2.79,3.42,4.52,6.89,4.52,6.3,0,8.79-6.12,8.98-13.22.02-.23.02-.47.02-.73h-.09c-1.36,3-4.83,5.44-9.42,5.44-6.45,0-11.23-4.76-11.23-11.18v-.05c0-6.66,5.06-11.48,11.98-11.48,6.23,0,12.84,4.31,12.84,16.85ZM410.93,425.42v-.02c0-4.34-3.38-7.78-7.71-7.78s-7.73,3.38-7.73,7.64v.05c0,4.41,3.21,7.57,7.66,7.57s7.78-3.14,7.78-7.45Z"/><path class="z" d="M280.97,327.7l-.02-.26h4.15l.02.19c.42,3.35,3.42,5.91,7.48,5.91,4.59,0,7.78-3.19,7.78-7.73v-.05c-.02-4.45-3.23-7.64-7.71-7.64-2.3,0-4.27.68-5.77,2.04-.61.56-1.15,1.22-1.59,1.99h-3.73l1.73-19.29h19.36v3.75h-15.89l-1.15,11.37h.09c1.59-2.27,4.41-3.49,7.69-3.49,6.49,0,11.18,4.71,11.18,11.2v.05c-.02,6.77-5.02,11.51-12.05,11.51-6.47,0-11.09-4.03-11.58-9.54Z"/><path class="e" d="M521.31,306.7v-.09h-18.21v-3.75h22.38v3.91l-15.05,29.91h-4.43l15.3-29.98Z"/><path class="e" d="M390.66,320.39v-.05c0-11.39,4.85-18.05,13.12-18.05,5.74,0,10.03,3.28,11.16,8.2l.07.3h-4.29l-.09-.26c-1.01-2.79-3.42-4.52-6.89-4.52-6.3,0-8.79,6.12-8.98,13.22-.02.23-.02.47-.02.73h.09c1.36-3,4.83-5.44,9.42-5.44,6.45,0,11.23,4.76,11.23,11.18v.05c0,6.66-5.06,11.48-11.98,11.48-6.23,0-12.84-4.31-12.84-16.85ZM403.45,333.49c4.31,0,7.73-3.38,7.73-7.64v-.05c0-4.41-3.21-7.57-7.66-7.57s-7.78,3.14-7.78,7.45v.02c0,4.34,3.38,7.78,7.71,7.78Z"/><rect class="i" x="632.19" y="154.29" width="328.95" height="328.95"/><rect class="s" x="815.19" y="281.73" width="18.52" height="18.52"/><rect class="s" x="796.67" y="263.21" width="18.52" height="18.52"/><rect class="s" x="778.15" y="281.73" width="18.52" height="18.52"/><rect class="s" x="759.63" y="263.21" width="18.52" height="18.52"/><rect class="s" x="833.7" y="263.21" width="18.52" height="18.52"/><rect class="s" x="741.11" y="281.73" width="18.52" height="18.52"/><rect class="s" x="815.19" y="318.77" width="18.52" height="18.52"/><rect class="s" x="796.67" y="300.25" width="18.52" height="18.52"/><rect class="s" x="778.15" y="318.77" width="18.52" height="18.52"/><rect class="s" x="759.63" y="300.25" width="18.52" height="18.52"/><rect class="s" x="833.7" y="300.25" width="18.52" height="18.52"/><rect class="s" x="741.11" y="318.77" width="18.52" height="18.52"/><rect class="s" x="815.19" y="355.81" width="18.52" height="18.52"/><rect class="s" x="796.67" y="337.29" width="18.52" height="18.52"/><rect class="s" x="778.15" y="355.81" width="18.52" height="18.52"/><rect class="s" x="759.63" y="337.29" width="18.52" height="18.52"/><rect class="s" x="833.7" y="337.29" width="18.52" height="18.52"/><rect class="s" x="741.11" y="355.81" width="18.52" height="18.52"/><rect class="aa" x="630" y="263.21" width="111.11" height="111.11"/><rect class="q" x="852.22" y="263.21" width="111.11" height="111.11"/><rect class="y" x="852.22" y="374.32" width="111.11" height="111.11"/><rect class="ad" x="630" y="374.32" width="111.11" height="111.11"/><rect class="r" x="630" y="152.1" width="111.11" height="111.11"/><rect class="ae" x="852.22" y="152.1" width="111.11" height="111.11"/><path class="z" d="M671.53,307.33h-.09l-8.95,6.23v-4.24l9-6.47h4.12v33.82h-4.08v-29.34Z"/><path class="z" d="M700.75,329.65h-16.99v-3.82l14.84-22.97h6.23v23.09h4.78v3.7h-4.78v7.03h-4.08v-7.03ZM700.75,325.94v-19.48h-.14l-12.68,19.38v.09h12.82Z"/><path class="z" d="M675.4,196.22h-.09l-8.95,6.23v-4.24l9-6.47h4.12v33.82h-4.08v-29.34Z"/><path class="z" d="M697.16,196.22h-.09l-8.95,6.23v-4.24l9-6.47h4.12v33.82h-4.08v-29.34Z"/><path class="z" d="M672.92,418.45h-.09l-8.95,6.23v-4.24l9-6.47h4.12v33.82h-4.08v-29.34Z"/><path class="z" d="M703.3,417.81v-.09h-18.21v-3.75h22.38v3.91l-15.05,29.91h-4.43l15.3-29.98Z"/><path class="z" d="M893.45,307.33h-.09l-8.95,6.23v-4.24l9-6.47h4.12v33.82h-4.08v-29.34Z"/><path class="z" d="M905.98,320.39v-.05c0-11.39,4.85-18.05,13.12-18.05,5.74,0,10.03,3.28,11.16,8.2l.07.3h-4.29l-.09-.26c-1.01-2.79-3.42-4.52-6.89-4.52-6.3,0-8.79,6.12-8.98,13.22-.02.23-.02.47-.02.73h.09c1.36-3,4.83-5.44,9.42-5.44,6.45,0,11.23,4.76,11.23,11.18v.05c0,6.66-5.06,11.48-11.98,11.48-6.23,0-12.84-4.31-12.84-16.85ZM918.78,333.49c4.31,0,7.73-3.38,7.73-7.64v-.05c0-4.41-3.21-7.57-7.66-7.57s-7.78,3.14-7.78,7.45v.02c0,4.34,3.38,7.78,7.71,7.78Z"/><path class="z" d="M894.06,196.22h-.09l-8.95,6.23v-4.24l9-6.47h4.12v33.82h-4.08v-29.34Z"/><path class="z" d="M906.64,216.9l-.02-.28h4.05l.02.23c.35,3.33,3.4,5.62,7.9,5.62s7.45-2.48,7.45-6.07v-.05c0-4.15-2.98-6.47-7.71-6.47h-4.24v-3.56h4.05c4.03,0,6.84-2.48,6.84-5.86v-.05c0-3.54-2.32-5.58-6.45-5.58s-6.82,2.11-7.17,5.53l-.02.23h-4.05l.02-.23c.54-5.51,4.9-9.19,11.23-9.19s10.69,3.59,10.69,8.72v.05c0,4.17-2.95,7.03-7.17,7.92v.09c4.92.42,8.27,3.49,8.27,8.3v.05c0,5.65-4.97,9.82-11.74,9.82s-11.51-3.89-11.95-9.23Z"/><path class="z" d="M893.45,418.45h-.09l-8.95,6.23v-4.24l9-6.47h4.12v33.82h-4.08v-29.34Z"/><path class="z" d="M931.34,430.26v.05c0,11.39-4.85,18.05-13.12,18.05-5.74,0-10.03-3.28-11.16-8.2l-.07-.3h4.29l.09.26c1.01,2.79,3.42,4.52,6.89,4.52,6.3,0,8.79-6.12,8.98-13.22.02-.23.02-.47.02-.73h-.09c-1.36,3-4.83,5.44-9.42,5.44-6.45,0-11.23-4.76-11.23-11.18v-.05c0-6.66,5.06-11.48,11.98-11.48,6.23,0,12.84,4.31,12.84,16.85ZM926.25,424.96v-.02c0-4.34-3.38-7.78-7.71-7.78s-7.73,3.38-7.73,7.64v.05c0,4.41,3.21,7.57,7.66,7.57s7.78-3.14,7.78-7.45Z"/><rect class="x" x="741.11" y="374.79" width="111.11" height="111.11"/><rect class="f" x="741.11" y="152.56" width="111.11" height="111.11"/><path class="z" d="M783.57,196.69h-.09l-8.95,6.23v-4.24l9-6.47h4.12v33.82h-4.08v-29.34Z"/><path class="z" d="M796.71,223.12l11.91-12.42c4.57-4.76,5.62-6.59,5.62-9.4v-.05c-.02-3.45-2.62-5.93-6.3-5.93-4.22,0-7.36,2.91-7.36,6.54v.12h-4.08v-.14c0-5.86,5.06-10.2,11.37-10.2s10.59,4.1,10.59,9.4v.05c0,3.7-1.71,6.49-7.92,12.84l-8.04,8.25v.09h16.52v3.75h-22.31v-2.91Z"/><path class="z" d="M782.76,418.91h-.09l-8.95,6.23v-4.24l9-6.47h4.12v33.82h-4.08v-29.34Z"/><path class="z" d="M795.27,439.11v-.05c0-4.17,2.93-7.64,7.27-8.65v-.09c-3.7-1.15-6.05-3.96-6.05-7.52v-.05c0-5.11,4.66-8.88,11.06-8.88s11.06,3.77,11.06,8.88v.05c0,3.56-2.34,6.38-6.05,7.52v.09c4.34,1.01,7.27,4.48,7.27,8.65v.05c0,5.67-5.11,9.7-12.28,9.7s-12.28-4.03-12.28-9.7ZM815.54,438.85v-.05c0-3.7-3.3-6.35-7.99-6.35s-7.99,2.65-7.99,6.35v.05c0,3.66,3.33,6.28,7.99,6.28s7.99-2.62,7.99-6.28ZM814.42,423.15v-.05c0-3.28-2.79-5.6-6.87-5.6s-6.87,2.32-6.87,5.6v.05c0,3.28,2.79,5.6,6.87,5.6s6.87-2.32,6.87-5.6Z"/><path class="z" d="M783.11,307.33h-.09l-8.95,6.23v-4.24l9-6.47h4.12v33.82h-4.08v-29.34Z"/><path class="z" d="M796.3,327.7l-.02-.26h4.15l.02.19c.42,3.35,3.42,5.91,7.48,5.91,4.59,0,7.78-3.19,7.78-7.73v-.05c-.02-4.45-3.23-7.64-7.71-7.64-2.3,0-4.27.68-5.77,2.04-.61.56-1.15,1.22-1.59,1.99h-3.73l1.73-19.29h19.36v3.75h-15.89l-1.15,11.37h.09c1.59-2.27,4.41-3.49,7.69-3.49,6.49,0,11.18,4.71,11.18,11.2v.05c-.02,6.77-5.02,11.51-12.05,11.51-6.47,0-11.09-4.03-11.58-9.54Z"/><circle class="n" cx="915.98" cy="393.75" r="10"/><circle class="n" cx="942.98" cy="402.75" r="10"/><line class="d" x1="1014.5" y1="467.5" x2="956.1" y2="414.18"/><polygon class="ac" points="964.98 408.78 945.5 404.5 951.53 423.51 964.98 408.78"/><path class="ac" d="M113.12,508.88h-4.17v-1.43h5.78v3.63c0,3.01-2.36,5.14-5.66,5.14-3.89,0-6.14-2.71-6.14-7.41v-2.8c0-4.7,2.25-7.41,6.14-7.41,3.43,0,5.59,2.1,5.67,5.52h-1.61c-.09-2.4-1.73-4.03-4.07-4.03-2.98,0-4.54,2.04-4.54,5.92v2.8c0,3.88,1.56,5.92,4.54,5.92,2.5,0,4.05-1.49,4.05-3.88v-1.98Z"/><path class="ac" d="M118.8,515.87v-1.24h4.44v-10.14h-4.46v-1.24h6v11.38h4.32v1.24h-10.3ZM122.39,498.46c0-.8.66-1.45,1.45-1.45s1.45.66,1.45,1.45-.66,1.45-1.45,1.45-1.45-.66-1.45-1.45Z"/><path class="ac" d="M133.65,514.7l7.73-10.01v-.14h-7.72v-1.3h9.56v1.18l-7.71,10v.14h7.72v1.3h-9.59v-1.17Z"/><path class="ac" d="M159.26,515.87h-1.44v-8.71c0-1.82-.61-2.74-1.79-2.74-1.24,0-1.99,1.12-1.99,3v8.45h-1.44v-8.72c0-1.8-.61-2.73-1.8-2.73-1.27,0-2.04,1.14-2.04,3v8.45h-1.44v-12.62h1.39v1.69h.16c.33-1.17,1.25-1.9,2.41-1.9s2.06.7,2.33,1.9h.16c.34-1.15,1.41-1.9,2.71-1.9,1.84,0,2.78,1.28,2.78,3.77v9.06Z"/><path class="ac" d="M162.77,510.5v-1.88c0-3.4,2.09-5.58,5.34-5.58s5.34,2.18,5.34,5.58v1.88c0,3.4-2.09,5.58-5.34,5.58s-5.34-2.18-5.34-5.58ZM164.31,508.83v1.48c0,2.73,1.46,4.41,3.81,4.41s3.81-1.68,3.81-4.41v-1.48c0-2.73-1.46-4.41-3.81-4.41s-3.81,1.68-3.81,4.41Z"/><line class="d" x1="136.37" y1="474.35" x2="142.4" y2="404.45"/><polygon class="ac" points="152.08 408.22 143.64 390.15 132.21 406.5 152.08 408.22"/></g></svg>