<?xml version="1.0" encoding="UTF-8"?><svg xmlns="http://www.w3.org/2000/svg" viewBox="0 0 1200 630"><defs><style>.c,.d,.e,.f,.g,.h,.i,.j,.k,.l,.m,.n,.o,.p,.q,.r,.s,.t,.u{fill:none;}.d{stroke:#7a0000;}.d,.e,.f,.g,.h,.i,.j,.k,.l,.m,.n,.o,.v,.p,.q,.w,.x,.r,.s,.t,.y,.z,.aa,.ab,.ac,.u,.ad{stroke-miterlimit:10;}.e{stroke:green;}.f{stroke:#300352;}.g{stroke:#670067;}.h{stroke:#003d00;}.i{stroke:#003a52;}.ae{fill:#30363d;}.j{stroke-width:3px;}.j,.k{stroke:#2f353d;}.l{stroke:#f0f;}.m,.v,.w,.x,.y,.z,.aa,.ab,.ac,.ad{stroke:#3d444d;}.n{stroke:#0067c0;}.o{stroke:#ffd400;}.v,.af{fill:#fff;}.v,.w,.x,.y,.z,.aa,.ab,.ac,.ad{stroke-width:2px;}.p{stroke:red;}.ag{fill:#21262d;}.ah{fill:#0d1117;}.q{stroke:#f0f6fc;}.ai{fill:#9199a1;}.aj{opacity:.08;}.aj,.ak,.ab{fill:green;}.ak{opacity:.1;}.al,.w{fill:#484f58;}.am{fill:#2f353d;}.x{fill:red;}.r{stroke:#001f41;}.s{stroke:#00aeef;}.t{stroke:#6a0dad;}.an,.z{fill:#f0f6fc;}.y{fill:#003d00;}.ao{fill:#bc002d;}.aa{fill:#0067c0;}.ap{opacity:.06;}.ap,.ac{fill:#ffd400;}.aq{fill:#c9d1d9;}.u{stroke:#413500;}.ad{fill:#00aeef;}</style></defs><g id="a"><rect width="1200" height="630"/></g><g id="b"><rect class="af" x="1121" y="564" width="39" height="26"/><circle class="ao" cx="1140.5" cy="577" r="7.8"/><path class="am" d="M41.07,586.42c0-3.63,2.8-6.43,6.35-6.43s6.35,2.8,6.35,6.43-2.8,6.43-6.35,6.43-6.35-2.8-6.35-6.43ZM52.53,586.42c0-2.95-2.24-5.29-5.11-5.29s-5.11,2.33-5.11,5.29,2.24,5.29,5.11,5.29,5.11-2.33,5.11-5.29ZM48.98,585.27c-.21-.64-.68-1.05-1.41-1.05-1.1,0-1.75.86-1.75,2.19s.64,2.19,1.75,2.19c.73,0,1.25-.39,1.41-.98h1.28c-.2,1.28-1.3,2.19-2.7,2.19-1.85,0-3.05-1.29-3.05-3.4s1.2-3.4,3.05-3.4c1.39,0,2.47.93,2.7,2.26h-1.28Z"/><path class="am" d="M76.97,577.61c2.96,0,5,1.9,5,4.66,0,1.72-.73,3.04-3.36,6.07l-4.23,4.89v.19h7.88v1.45h-10.24v-1.02l5.8-6.77c2.07-2.45,2.55-3.35,2.55-4.78,0-1.99-1.35-3.28-3.43-3.28s-3.41,1.39-3.41,3.55v.07h-1.58v-.07c0-2.87,2.12-4.96,5.03-4.96Z"/><path class="am" d="M86.48,586.42c0-5.72,1.93-8.85,5.46-8.85s5.46,3.13,5.46,8.85-1.93,8.85-5.46,8.85-5.46-3.13-5.46-8.85ZM88.22,588.93l7.15-6.54c-.57-2.25-1.72-3.41-3.43-3.41-2.53,0-3.86,2.55-3.86,7.44,0,.91.05,1.76.14,2.51ZM95.79,586.42c0-.94-.05-1.78-.14-2.54l-7.14,6.62c.57,2.21,1.72,3.36,3.42,3.36,2.53,0,3.86-2.55,3.86-7.44Z"/><path class="am" d="M106.64,577.61c2.96,0,5,1.9,5,4.66,0,1.72-.73,3.04-3.36,6.07l-4.23,4.89v.19h7.88v1.45h-10.24v-1.02l5.8-6.77c2.07-2.45,2.55-3.35,2.55-4.78,0-1.99-1.35-3.28-3.43-3.28s-3.41,1.39-3.41,3.55v.07h-1.58v-.07c0-2.87,2.12-4.96,5.03-4.96Z"/><path class="am" d="M116.09,590.5h1.54c.19,1.95,1.82,3.3,3.95,3.3,2.32,0,3.86-1.68,3.86-4.18s-1.56-4.25-3.86-4.25c-1.63,0-3,.76-3.69,2.04h-1.49l.88-9.45h8.84v1.44h-7.58l-.5,5.98h.18c.88-.98,2.05-1.48,3.5-1.48,3.13,0,5.32,2.34,5.32,5.68s-2.26,5.62-5.59,5.62c-3,0-5.14-1.89-5.34-4.71Z"/><path class="am" d="M146.64,594.87v-16.91h1.61v8.74h.14l7.18-8.74h2l-6.41,7.48,7.1,9.43h-2.07l-6.09-8.2-1.85,2.17v6.04h-1.61Z"/><path class="am" d="M160.76,589.5v-1.88c0-3.4,2.09-5.58,5.34-5.58s5.34,2.18,5.34,5.58v1.88c0,3.4-2.09,5.58-5.34,5.58s-5.34-2.18-5.34-5.58ZM162.3,587.83v1.48c0,2.73,1.46,4.41,3.81,4.41s3.81-1.68,3.81-4.41v-1.48c0-2.73-1.46-4.41-3.81-4.41s-3.81,1.68-3.81,4.41Z"/><path class="am" d="M175.95,577.22h1.46v7.3h.15c.69-1.59,2.17-2.48,4.12-2.48,2.75,0,4.24,1.63,4.24,4.63v8.2h-1.54v-7.82c0-2.47-1-3.63-3.12-3.63-2.26,0-3.8,1.61-3.8,3.95v7.5h-1.54v-17.65Z"/><path class="am" d="M200.97,591.75c-.42,2.02-2.34,3.33-4.89,3.33-3.4,0-5.37-2.1-5.37-5.7v-1.84c0-3.33,2.06-5.51,5.19-5.51s5.12,2.16,5.12,5.93v1h-8.78v.43c0,2.64,1.49,4.31,3.83,4.31,1.72,0,2.98-.73,3.36-1.96h1.52ZM192.25,587.7h7.22c0-2.68-1.34-4.3-3.56-4.3s-3.66,1.61-3.66,4.3Z"/><path class="am" d="M205.62,582.25h1.46v2.27h.15c.69-1.59,2.17-2.48,4.12-2.48,2.75,0,4.24,1.63,4.24,4.63v8.2h-1.54v-7.82c0-2.47-1-3.63-3.12-3.63-2.26,0-3.8,1.61-3.8,3.95v7.5h-1.54v-12.62Z"/><path class="am" d="M232.87,588.06v-1.36h14.84v1.36h-14.84Z"/><path class="am" d="M265.45,594.87h-1.5v-16.91h1.89l4.07,10.88h.13l4.04-10.88h1.9v16.91h-1.5v-13.79h-.12l-3.7,9.82h-1.38l-3.7-9.82h-.12v13.79Z"/><path class="am" d="M284,594.87v-15.46h-5.2v-1.45h12v1.45h-5.2v15.46h-1.59Z"/><path class="am" d="M300.16,577.96c3.18,0,5.3,2.11,5.3,5.26s-2.12,5.26-5.3,5.26h-3.81v6.39h-1.61v-16.91h5.41ZM296.35,587.05h3.42c2.57,0,4.05-1.41,4.05-3.83s-1.49-3.83-4.05-3.83h-3.42v7.66Z"/><path class="am" d="M321.88,588.06v-1.36h14.84v1.36h-14.84Z"/><path class="am" d="M354.17,594.87v-1.24h4.44v-10.14h-4.46v-1.24h6v11.38h4.32v1.24h-10.3ZM357.75,577.46c0-.8.66-1.45,1.45-1.45s1.45.66,1.45,1.45-.66,1.45-1.45,1.45-1.45-.66-1.45-1.45Z"/><path class="am" d="M379.79,594.87h-1.44v-8.71c0-1.82-.61-2.74-1.79-2.74-1.24,0-1.99,1.12-1.99,3v8.45h-1.44v-8.72c0-1.8-.61-2.73-1.8-2.73-1.27,0-2.04,1.14-2.04,3v8.45h-1.44v-12.62h1.39v1.69h.16c.33-1.17,1.25-1.9,2.41-1.9s2.06.7,2.33,1.9h.16c.34-1.15,1.41-1.9,2.71-1.9,1.84,0,2.78,1.28,2.78,3.77v9.06Z"/><path class="am" d="M392.29,582.25h1.95l-4.99,4.89,5.34,7.73h-1.85l-4.57-6.68-1.95,1.9v4.78h-1.54v-17.65h1.54v10.97h.14l5.93-5.94Z"/><path class="am" d="M398.14,589.5v-1.88c0-3.4,2.09-5.58,5.34-5.58s5.34,2.18,5.34,5.58v1.88c0,3.4-2.09,5.58-5.34,5.58s-5.34-2.18-5.34-5.58ZM399.67,587.83v1.48c0,2.73,1.46,4.41,3.81,4.41s3.81-1.68,3.81-4.41v-1.48c0-2.73-1.46-4.41-3.81-4.41s-3.81,1.68-3.81,4.41Z"/><path class="am" d="M413.32,577.22h1.46v7.3h.15c.69-1.59,2.17-2.48,4.12-2.48,2.75,0,4.24,1.63,4.24,4.63v8.2h-1.54v-7.82c0-2.47-1-3.63-3.12-3.63-2.26,0-3.8,1.61-3.8,3.95v7.5h-1.54v-17.65Z"/><path class="am" d="M438.34,591.75c-.42,2.02-2.34,3.33-4.89,3.33-3.4,0-5.37-2.1-5.37-5.7v-1.84c0-3.33,2.06-5.51,5.19-5.51s5.12,2.16,5.12,5.93v1h-8.78v.43c0,2.64,1.49,4.31,3.83,4.31,1.72,0,2.98-.73,3.36-1.96h1.52ZM429.62,587.7h7.22c0-2.68-1.34-4.3-3.56-4.3s-3.66,1.61-3.66,4.3Z"/><path class="am" d="M443,582.25h1.46v2.27h.15c.69-1.59,2.17-2.48,4.12-2.48,2.75,0,4.24,1.63,4.24,4.63v8.2h-1.54v-7.82c0-2.47-1-3.63-3.12-3.63-2.26,0-3.8,1.61-3.8,3.95v7.5h-1.54v-12.62Z"/><path class="am" d="M457.68,591.31c0-2.21,1.58-3.54,4.37-3.67l3.66-.16v-1.2c0-1.82-1.04-2.8-2.98-2.8-1.59,0-2.7.68-3.05,1.9h-1.52c.23-1.89,2.13-3.23,4.57-3.23,2.86,0,4.52,1.5,4.52,4.07v8.67h-1.48v-1.99h-.16c-.6,1.42-1.99,2.2-3.9,2.2-2.43,0-4.03-1.5-4.03-3.79ZM465.71,590.51v-1.76l-3.55.15c-1.89.08-2.89.93-2.89,2.4s1.08,2.43,2.82,2.43c2.04,0,3.62-1.41,3.62-3.22Z"/><path class="am" d="M482.65,594.87h-1.46v-2.27h-.15c-.69,1.59-2.17,2.48-4.12,2.48-2.75,0-4.24-1.63-4.24-4.63v-8.2h1.54v7.82c0,2.47,1,3.63,3.12,3.63,2.26,0,3.8-1.61,3.8-3.95v-7.5h1.54v12.62Z"/><path class="am" d="M492.57,582.04c2.47,0,4.22,1.28,4.49,3.27h-1.51c-.27-1.23-1.42-1.99-3.02-1.99-1.76,0-2.88.84-2.88,2.16,0,1.1.69,1.71,2.41,2.11l1.71.4c2.43.57,3.53,1.64,3.53,3.42,0,2.23-1.89,3.68-4.76,3.68s-4.59-1.3-4.83-3.38h1.59c.33,1.3,1.55,2.06,3.3,2.06,1.89,0,3.09-.89,3.09-2.27,0-1.15-.67-1.76-2.39-2.17l-1.86-.45c-2.25-.53-3.35-1.63-3.35-3.35,0-2.07,1.82-3.49,4.48-3.49Z"/><path class="am" d="M512.52,591.75c-.42,2.02-2.34,3.33-4.89,3.33-3.4,0-5.37-2.1-5.37-5.7v-1.84c0-3.33,2.06-5.51,5.19-5.51s5.12,2.16,5.12,5.93v1h-8.78v.43c0,2.64,1.49,4.31,3.83,4.31,1.72,0,2.98-.73,3.36-1.96h1.52ZM503.8,587.7h7.22c0-2.68-1.34-4.3-3.56-4.3s-3.66,1.61-3.66,4.3Z"/><path class="am" d="M521.57,593.63h4.01v1.24h-8.14v-1.24h2.6v-10.14h-2.86v-1.24h4.36v3.21h.16c.43-2.25,2.1-3.53,4.56-3.53.73,0,1.44.11,1.84.28v1.68c-.59-.21-1.39-.35-2.07-.35-2.72,0-4.45,2.2-4.45,5.66v4.43Z"/><path class="am" d="M535.06,592.93c0-1.07.88-1.95,1.95-1.95s1.95.88,1.95,1.95-.88,1.95-1.95,1.95-1.95-.88-1.95-1.95Z"/><path class="am" d="M555.4,585.96c-.26-1.5-1.65-2.54-3.38-2.54-2.4,0-3.74,1.61-3.74,4.5v1.28c0,2.89,1.34,4.5,3.74,4.5,1.72,0,3.12-1.04,3.38-2.54h1.52c-.33,2.37-2.25,3.93-4.86,3.93-3.32,0-5.31-2.11-5.31-5.62v-1.79c0-3.52,1.99-5.62,5.31-5.62,2.61,0,4.54,1.56,4.86,3.93h-1.52Z"/><path class="am" d="M561.33,589.5v-1.88c0-3.4,2.09-5.58,5.34-5.58s5.34,2.18,5.34,5.58v1.88c0,3.4-2.09,5.58-5.34,5.58s-5.34-2.18-5.34-5.58ZM562.87,587.83v1.48c0,2.73,1.46,4.41,3.81,4.41s3.81-1.68,3.81-4.41v-1.48c0-2.73-1.46-4.41-3.81-4.41s-3.81,1.68-3.81,4.41Z"/><path class="am" d="M587.49,594.87h-1.44v-8.71c0-1.82-.61-2.74-1.79-2.74-1.24,0-1.99,1.12-1.99,3v8.45h-1.44v-8.72c0-1.8-.61-2.73-1.8-2.73-1.27,0-2.04,1.14-2.04,3v8.45h-1.44v-12.62h1.39v1.69h.16c.33-1.17,1.25-1.9,2.41-1.9s2.06.7,2.33,1.9h.16c.34-1.15,1.41-1.9,2.71-1.9,1.84,0,2.78,1.28,2.78,3.77v9.06Z"/><path class="am" d="M591.45,596.03l8.33-19.23h1.46l-8.33,19.23h-1.46Z"/><path class="am" d="M617.16,594.87h-1.44v-8.71c0-1.82-.61-2.74-1.79-2.74-1.24,0-1.99,1.12-1.99,3v8.45h-1.44v-8.72c0-1.8-.61-2.73-1.8-2.73-1.27,0-2.04,1.14-2.04,3v8.45h-1.44v-12.62h1.39v1.69h.16c.33-1.17,1.25-1.9,2.41-1.9s2.06.7,2.33,1.9h.16c.34-1.15,1.41-1.9,2.71-1.9,1.84,0,2.78,1.28,2.78,3.77v9.06Z"/><path class="am" d="M625.57,578.97v3.28h5.29v1.3h-5.29v7.63c0,1.56,1.08,2.4,3.08,2.4.87,0,1.79-.04,2.2-.09v1.31c-.38.07-1.56.14-2.29.14-3.04,0-4.54-1.23-4.54-3.71v-7.68h-3.4v-1.3h3.4v-3.28h1.54Z"/><path class="am" d="M646.34,587.35v2.43c0,3.15-1.99,5.31-4.92,5.31-1.83,0-3.21-.75-3.81-2.07h-.21v6.14h-1.54v-16.9h1.46v1.82h.21c.74-1.32,2.09-2.03,3.88-2.03,2.93,0,4.92,2.16,4.92,5.31ZM637.36,587.72v1.69c0,2.61,1.46,4.3,3.71,4.3s3.73-1.7,3.73-4.3v-1.69c0-2.6-1.46-4.3-3.73-4.3s-3.71,1.69-3.71,4.3Z"/><path class="am" d="M649.49,588.06v-1.36h12.4v1.36h-12.4Z"/><path class="am" d="M673.22,595.01c0,2.51-1.44,3.55-4.89,3.55-1.07,0-1.98-.04-2.99-.13v-1.29c.73.07,2.02.12,2.95.12,2.64,0,3.39-.57,3.39-2.6v-11.17h-5.99v-1.24h7.52v12.76ZM670.83,577.46c0-.8.66-1.45,1.45-1.45s1.45.66,1.45,1.45-.66,1.45-1.45,1.45-1.45-.66-1.45-1.45Z"/><path class="am" d="M680.22,591.31c0-2.21,1.58-3.54,4.37-3.67l3.66-.16v-1.2c0-1.82-1.04-2.8-2.98-2.8-1.59,0-2.7.68-3.05,1.9h-1.52c.23-1.89,2.13-3.23,4.57-3.23,2.86,0,4.52,1.5,4.52,4.07v8.67h-1.48v-1.99h-.16c-.6,1.42-1.99,2.2-3.9,2.2-2.43,0-4.03-1.5-4.03-3.79ZM688.25,590.51v-1.76l-3.55.15c-1.89.08-2.89.93-2.89,2.4s1.08,2.43,2.82,2.43c2.04,0,3.62-1.41,3.62-3.22Z"/><rect class="c" x="80" y="79" width="430" height="120"/><path class="an" d="M84.1,79h6.09l14.65,35.62h.18l14.65-35.62h6.09v42.28h-4.92v-32.67h-.18l-13.51,32.67h-4.45l-13.51-32.67h-.18v32.67h-4.92v-42.28Z"/><path class="an" d="M131.66,112.66v-.06c0-5.19,4.04-8.44,11.04-8.85l8.73-.5v-2.55c0-3.72-2.43-5.98-6.68-5.98-3.93,0-6.39,1.88-6.97,4.6l-.06.26h-4.92l.03-.32c.44-5.01,4.8-9.05,11.98-9.05s11.72,3.9,11.72,9.99v21.06h-5.1v-4.95h-.12c-1.79,3.34-5.45,5.54-9.52,5.54-6.06,0-10.14-3.66-10.14-9.2ZM142.94,117.44c4.8,0,8.5-3.31,8.5-7.73v-2.49l-8.14.5c-4.07.23-6.42,2.05-6.42,4.89v.06c0,2.93,2.4,4.78,6.06,4.78Z"/><path class="an" d="M163.61,90.81h5.1v5.16h.12c1.9-3.54,5.3-5.74,9.67-5.74,7.79,0,12.95,6.21,12.95,15.82v.03c0,9.61-5.21,15.79-12.86,15.79-4.31,0-7.85-2.17-9.76-5.68h-.12v15.35h-5.1v-40.72ZM186.23,106.07v-.03c0-7-3.34-11.31-8.73-11.31s-8.82,4.48-8.82,11.31v.03c0,6.8,3.69,11.28,8.82,11.28,5.39,0,8.73-4.34,8.73-11.28Z"/><path class="an" d="M197.17,90.81h5.1v5.16h.12c1.9-3.54,5.3-5.74,9.67-5.74,7.79,0,12.95,6.21,12.95,15.82v.03c0,9.61-5.21,15.79-12.86,15.79-4.31,0-7.85-2.17-9.76-5.68h-.12v15.35h-5.1v-40.72ZM219.79,106.07v-.03c0-7-3.34-11.31-8.73-11.31s-8.82,4.48-8.82,11.31v.03c0,6.8,3.69,11.28,8.82,11.28,5.39,0,8.73-4.34,8.73-11.28Z"/><path class="an" d="M230.41,82.46c0-1.79,1.44-3.19,3.19-3.19s3.19,1.41,3.19,3.19-1.41,3.19-3.19,3.19-3.19-1.44-3.19-3.19ZM231.05,90.81h5.1v30.47h-5.1v-30.47Z"/><path class="an" d="M243.69,90.81h5.1v4.34h.12c1.64-2.84,4.75-4.92,9.38-4.92,6.68,0,10.55,4.34,10.55,11.28v19.78h-5.1v-18.87c0-4.95-2.31-7.68-7-7.68s-7.94,3.43-7.94,8.61v17.93h-5.1v-30.47Z"/><path class="an" d="M275.52,124.06l-.06-.26h5.13l.12.26c.97,2.2,3.87,3.54,8.03,3.54,5.36,0,8.41-2.96,8.41-7.68v-3.9h-.12c-1.82,3.37-5.33,5.54-9.7,5.54-7.68,0-12.92-6.18-12.92-15.7v-.03c0-9.46,5.3-15.62,13.04-15.62,4.31,0,7.71,2.34,9.58,5.74h.12v-5.16h5.1v29.62c0,7.06-5.19,11.69-13.45,11.69-7.53,0-12.28-3.54-13.27-8.06ZM297.15,105.87v-.03c0-6.71-3.54-11.1-8.7-11.1-5.42,0-8.82,4.34-8.82,11.1v.03c0,6.91,3.4,11.19,8.82,11.19s8.7-4.42,8.7-11.19Z"/><path class="an" d="M323.89,113.51v-18.49h-4.45v-4.22h4.45v-8.23h5.27v8.23h5.8v4.22h-5.8v18.46c0,3.25,1.44,4.16,4.16,4.16.62,0,1.2-.09,1.64-.12v4.13c-.64.09-1.73.21-2.72.21-5.6,0-8.35-2.52-8.35-8.35Z"/><path class="an" d="M341.28,79h5.1v16.67h.12c1.64-3.43,4.95-5.45,9.49-5.45,6.47,0,10.9,5.01,10.9,12.39v18.66h-5.1v-17.78c0-5.51-2.81-8.76-7.56-8.76s-7.85,3.57-7.85,8.76v17.78h-5.1v-42.28Z"/><path class="an" d="M372.46,106.16v-.03c0-9.43,5.39-15.91,13.71-15.91s13.39,6.18,13.39,15.32v1.88h-21.94c.12,6.27,3.57,9.93,8.99,9.93,3.87,0,6.59-1.93,7.47-4.54l.09-.26h5.01l-.06.29c-1,5.04-5.98,9.02-12.63,9.02-8.76,0-14.03-6.12-14.03-15.7ZM377.71,103.43h16.67c-.5-5.92-3.78-8.7-8.23-8.7s-7.88,3.02-8.44,8.7Z"/><path class="an" d="M84.1,139h15.06c7.94,0,13.56,5.48,13.56,13.51v.06c0,8.03-5.62,13.62-13.56,13.62h-9.79v15.09h-5.27v-42.28ZM89.38,143.69v17.81h8.44c6.04,0,9.52-3.31,9.52-8.88v-.06c0-5.57-3.49-8.88-9.52-8.88h-8.44Z"/><path class="an" d="M118.57,150.81h5.1v5.16h.12c1.03-3.52,3.66-5.74,7.09-5.74.88,0,1.64.15,2.05.21v4.95c-.41-.15-1.49-.29-2.72-.29-3.96,0-6.53,2.75-6.53,7.38v18.81h-5.1v-30.47Z"/><path class="an" d="M134.7,166.04v-.06c0-9.7,5.68-15.76,14.09-15.76s14.12,6.04,14.12,15.76v.06c0,9.73-5.68,15.82-14.09,15.82s-14.12-6.12-14.12-15.82ZM157.69,166.04v-.06c0-7.15-3.52-11.25-8.91-11.25s-8.88,4.13-8.88,11.25v.06c0,7.18,3.54,11.31,8.94,11.31s8.85-4.16,8.85-11.31Z"/><path class="an" d="M168.64,150.81h5.1v4.45h.12c1.38-3.02,4.42-5.04,8.35-5.04,4.16,0,7.24,2.14,8.55,5.86h.12c1.7-3.66,5.27-5.86,9.55-5.86,6.04,0,9.93,3.96,9.93,10.02v21.04h-5.1v-19.86c0-4.19-2.31-6.68-6.33-6.68s-6.88,3.02-6.88,7.18v19.37h-5.1v-20.42c0-3.69-2.46-6.12-6.24-6.12-4.04,0-6.97,3.19-6.97,7.44v19.1h-5.1v-30.47Z"/><path class="an" d="M217.43,150.81h5.1v5.16h.12c1.9-3.54,5.3-5.74,9.67-5.74,7.79,0,12.95,6.21,12.95,15.82v.03c0,9.61-5.21,15.79-12.86,15.79-4.31,0-7.85-2.17-9.76-5.68h-.12v15.35h-5.1v-40.72ZM240.05,166.07v-.03c0-7-3.34-11.31-8.73-11.31s-8.82,4.48-8.82,11.31v.03c0,6.8,3.69,11.28,8.82,11.28,5.39,0,8.73-4.34,8.73-11.28Z"/><path class="an" d="M252.54,173.51v-18.49h-4.45v-4.22h4.45v-8.23h5.27v8.23h5.8v4.22h-5.8v18.46c0,3.25,1.44,4.16,4.16,4.16.62,0,1.2-.09,1.64-.12v4.13c-.64.09-1.73.21-2.72.21-5.6,0-8.35-2.52-8.35-8.35Z"/><path class="ai" d="M82.32,264.46v-23.96h3.45l8.3,20.19h.1l8.3-20.19h3.45v23.96h-2.79v-18.51h-1.36l3.24-4.78-9.63,23.29h-2.52l-9.63-23.29,3.24,4.78h-1.36v18.51h-2.79Z"/><path class="ai" d="M116.64,264.46v-21.27h-7.55v-2.69h18.1v2.69h-7.55v21.27h-2.99Z"/><path class="ai" d="M130.34,264.46v-23.96h2.99v23.96h-2.99ZM131.83,255.91v-2.66h6.28c1.72,0,3.04-.45,3.98-1.34.94-.89,1.41-2.12,1.41-3.69v-.03c0-1.58-.47-2.82-1.41-3.7-.94-.89-2.27-1.33-3.98-1.33h-6.28v-2.66h7.04c1.5,0,2.83.32,3.98.96,1.15.64,2.06,1.54,2.71,2.69.66,1.15.99,2.48.99,4v.03c0,1.52-.33,2.86-.99,4.02-.66,1.16-1.56,2.07-2.71,2.72-1.15.65-2.48.98-3.98.98h-7.04Z"/><path class="ai" d="M159.39,242.1c-.67,3.12-1.61,9.34-1.61,12.99,0,1.73.11,3.15.36,4.89.51-1.52,1.34-3.62,1.91-4.98l1.18.93c-.76,2.16-1.96,5.44-2.28,6.97-.1.45-.15,1.05-.13,1.44.02.31.07.75.1,1.07l-2.01.17c-.63-2.31-1.2-5.79-1.2-10.12,0-4.68,1.09-10.8,1.49-13.48.11-.72.19-1.5.2-2.14l2.51.23c-.18.51-.41,1.45-.52,2.02ZM175.54,241.78c-.06,1.19-.08,3.48-.08,5.3,0,4.76.47,9.87.47,13.23,0,2.49-1.14,5.07-5.4,5.07s-6.53-1.7-6.53-4.49c0-2.58,2.31-4.69,6.49-4.69,5.28,0,8.98,2.67,11.72,5.12l-1.25,1.91c-3.31-3.09-6.53-5.27-10.66-5.27-2.5,0-4.26,1.1-4.26,2.71,0,1.71,1.64,2.64,4.06,2.64,2.82,0,3.62-1.42,3.62-3.59,0-2.32-.44-8.43-.44-12.59,0-2.15-.01-4.16,0-5.31,0-.57-.04-1.38-.13-1.95h2.58c-.1.65-.16,1.29-.19,1.9ZM170.11,245.95c3.83,0,7.75-.29,10.97-.94v2.2c-3.42.57-7.27.82-11.02.83-1.83,0-3.47-.09-5.34-.21v-2.15c1.8.17,3.5.27,5.39.27Z"/><path class="ai" d="M219.05,263.83v2.08h-28.53v-2.08h28.53ZM198.71,238.66c-1.39,4.96-3.62,9.66-6.2,12.73-.43-.37-1.4-1-1.93-1.27,2.64-2.89,4.73-7.33,5.95-11.94l2.18.48ZM216.4,253.3v2.06h-22.42v-2.06h22.42ZM217.55,243.93v2.08h-22.14v-2.08h22.14ZM205.89,237.64v27.23h-2.21v-27.23h2.21Z"/><path class="ai" d="M227.16,243.18v8.96c0,4.48-.48,10.83-3.41,15.01-.36-.43-1.28-1.15-1.79-1.42,2.69-3.95,2.98-9.46,2.98-13.63v-8.92h2.22ZM234.18,249.62v2h-8.05v-2h8.05ZM251.1,243.18v2.09h-24.79v-2.09h24.79ZM235.41,249.62s-.01.66-.01.96c-.16,7.29-.34,9.97-1,10.82-.49.56-1,.77-1.88.85-.82.07-2.29.06-3.88-.03-.04-.61-.27-1.46-.6-2,1.51.14,2.95.15,3.51.15.46,0,.77-.05,1-.33.48-.58.64-3.02.77-10.06v-.37h2.07ZM249.1,248.46c-2.74,8.34-7.52,14.46-14.11,18.33-.32-.45-1.11-1.33-1.58-1.75,6.54-3.47,11.1-9.34,13.55-17.12l2.14.53ZM240.51,237.68c-.04,15.04,3.14,26.86,7.45,26.86.94,0,1.35-1.67,1.53-5.96.49.48,1.29.96,1.87,1.15-.4,5.39-1.23,7-3.57,7-6.43,0-9.37-13.59-9.5-29.05h2.22ZM243.52,237.84c2.05,1.02,4.59,2.58,5.86,3.7l-1.33,1.47c-1.24-1.13-3.75-2.78-5.82-3.84l1.29-1.33Z"/><path class="ai" d="M266.11,241.03h2.91l8.02,23.42h-2.8l-4.24-13.27c-.88-2.67-1.62-5.19-2.41-7.95h-.13c-.77,2.78-1.54,5.28-2.41,7.95l-4.28,13.27h-2.67l8-23.42ZM262.15,254.99h10.74v2.11h-10.74v-2.11Z"/><path class="ai" d="M280.49,241.03h2.64v23.42h-2.64v-23.42Z"/><path class="ai" d="M313.89,246.57c-2.19,1.15-6.71,3.29-9.87,5.38-3.03,1.98-4.82,4.13-4.82,6.59,0,2.72,2.59,4.45,7.75,4.45,3.52,0,7.78-.44,10.21-1.07l-.02,2.55c-2.35.42-6.11.78-10.08.78-5.94,0-10.2-1.78-10.2-6.46,0-3.36,2.22-6.04,5.98-8.54,3.3-2.22,7.87-4.4,9.97-5.57.88-.52,1.53-.91,2.17-1.44l1.23,2.04c-.66.41-1.42.81-2.32,1.28ZM304.91,250.31l-1.92,1.18c-1.58-2.57-3.53-6.92-5.23-10.86l2.25-.96c1.47,4.07,3.42,8.07,4.9,10.64Z"/><path class="ai" d="M334.42,253.07c-1.95,6.6-4.46,9.86-7.32,9.86s-5.56-3.13-5.56-8.41c0-6.88,6.12-12.88,13.86-12.88s12.14,5.24,12.14,11.63c0,6.71-4.47,11.13-11.98,12.09l-1.31-2.13c.97-.07,1.97-.22,2.7-.38,4.11-.91,8.28-3.99,8.28-9.67,0-5.16-3.61-9.48-9.86-9.48-7.09,0-11.62,5.82-11.62,10.63,0,4.18,1.94,6.01,3.43,6.01s3.33-2.17,5-7.77c.94-3.07,1.62-6.65,1.92-9.97l2.36.03c-.41,3.34-1.04,7.1-2.04,10.44Z"/><path class="ai" d="M352.43,250.89c-.26-.51-.81-1.28-1.27-1.75,5.54-2.65,10.92-7.32,13.42-11.48h2.19c3.4,4.77,9.07,9.04,14.16,11.16-.5.51-1.02,1.3-1.4,1.91-5.02-2.42-10.68-6.77-13.73-10.99-2.61,3.93-7.9,8.39-13.37,11.15ZM379.29,253.74v2.03h-26.5v-2.03h26.5ZM375.92,262.86l-.07,1.97c-8.12.41-16.82.77-22.49.98l-.28-2.13c5.54-.14,14.47-.46,22.84-.82ZM364.1,255.7c-1.48,3.08-3.34,6.88-4.95,9.36l-1.91-.65c1.54-2.53,3.47-6.58,4.47-9.39l2.38.68ZM373.55,247.61v2.01h-15.33v-2.01h15.33ZM371.07,257.43c2.97,2.54,6.14,6.03,7.63,8.44l-1.91,1.19c-1.45-2.41-4.64-6.1-7.52-8.64l1.8-.99Z"/><path class="ai" d="M395.09,243.04v1.81h-11.87v-1.81h11.87ZM386.57,256.18v10.75h-1.89v-10.75h1.89ZM394.04,247.46v1.74h-9.32v-1.74h9.32ZM394.04,251.81v1.74h-9.32v-1.74h9.32ZM393.99,238.79v1.74h-9.08v-1.74h9.08ZM394.13,256.18v9.25h-8.32v-1.79h6.41v-5.66h-6.41v-1.81h8.32ZM412.75,246.98v2.03h-17.45v-2.03h17.45ZM411.55,239.96c-3.85,1.13-9.81,1.93-14.79,2.31-.07-.49-.38-1.29-.63-1.79,4.84-.46,10.63-1.27,13.84-2.3l1.58,1.78ZM411.23,254.63v12.16h-2.14v-10.2h-9.82v10.37h-2.06v-12.33h14.01ZM410.18,263.38v1.96h-11.64v-1.96h11.64ZM405.11,240.52v15.12h-2.17v-15.12h2.17Z"/><path class="ai" d="M422.33,251.9l.89,1.73c-2.31,2.3-4.86,4.73-6.93,6.59l-1.28-1.79c1.84-1.5,4.67-4.05,7.33-6.53ZM417.22,241.84c1.59,1.78,3.44,4.21,4.27,5.77l-1.76,1.2c-.78-1.61-2.59-4.1-4.15-5.94l1.63-1.04ZM424.1,237.6v29.29h-2.1v-29.29h2.1ZM435.01,237.69v7.32c0,6.9-.98,15.42-8.86,21.88-.42-.43-1.17-.98-1.74-1.37,7.69-6.22,8.5-14.32,8.5-20.51v-7.32h2.11ZM444.34,247.17v2.13h-19.08v-2.13h19.08ZM445,265.14c-.52.41-1.23,1.22-1.58,1.77-5.51-3.35-8.57-10.04-10.13-18.45l1.82-.4c1.43,7.74,4.49,14.19,9.89,17.08ZM439.29,238.79c1.48,1.73,3.19,4.07,3.99,5.53l-1.73,1.11c-.77-1.49-2.44-3.94-3.89-5.71l1.63-.93Z"/><path class="ai" d="M453.59,260.45c-.88,2.32-2.26,4.63-4.66,5.99l-1.68-1.19c2.26-1.2,3.76-3.34,4.5-5.46l1.84.65ZM460.57,242l-.05,1.63c-4.67.22-9.42.41-12.77.53l-.12-1.78c3.24-.08,8.08-.23,12.94-.39ZM459.5,245.92v1.59h-7.99v10.89h-1.94v-12.48h9.93ZM455.02,238.14c-1.18,1.86-2.63,4.05-3.79,5.44l-1.52-.61c1.09-1.48,2.46-3.85,3.21-5.49l2.1.66ZM459.52,249.38v1.43h-8.86v-1.43h8.86ZM459.52,252.71v1.44h-8.86v-1.44h8.86ZM460.74,245.92v10.27c0,.99-.2,1.45-.96,1.75-.72.29-1.94.3-3.81.3-.1-.51-.4-1.16-.65-1.62,1.41.03,2.6.03,2.97.01.39,0,.49-.1.49-.44v-10.27h1.96ZM457.8,259.9v4.05c0,.76.32.89,2.09.89h6.23c1.39,0,1.64-.36,1.76-3,.47.33,1.3.61,1.87.72-.26,3.33-.9,4.1-3.41,4.1h-6.58c-3.22,0-4.04-.53-4.04-2.69v-4.07h2.07ZM458.16,239.17c1.77,1.44,3.68,3.53,4.51,5.04l-1.64.99c-.81-1.49-2.68-3.65-4.41-5.16l1.53-.86ZM459.74,257.88c1.93.76,4.18,2.08,5.29,3.23l-1.35,1.36c-1.09-1.12-3.33-2.53-5.25-3.37l1.31-1.22ZM465.46,237.91v6.76c0,.83.26.97,1.78.97h5.38c1.17,0,1.38-.34,1.52-2.84.44.29,1.22.58,1.79.69-.23,3.17-.84,3.97-3.12,3.97h-5.7c-2.91,0-3.64-.56-3.64-2.78v-6.77h1.99ZM465.46,248.29v7.33c0,.84.26,1,1.81,1h5.46c1.2,0,1.42-.38,1.53-2.95.46.35,1.25.63,1.82.74-.25,3.21-.86,4.03-3.16,4.03h-5.8c-2.92,0-3.65-.56-3.65-2.81v-7.34h1.99ZM474.61,250.67c-2.57,1.23-6.35,2.33-9.61,3.1-.09-.41-.38-1.06-.61-1.45,3.1-.77,6.63-1.93,8.58-3.01l1.64,1.36ZM474.27,240.1c-2.49,1.23-6.13,2.31-9.27,3.03-.09-.39-.36-1.02-.6-1.41,2.98-.78,6.38-1.91,8.22-2.95l1.65,1.33ZM470.8,259.44c2.32,1.58,4.79,3.91,5.89,5.72l-1.81,1.13c-1.01-1.78-3.44-4.2-5.75-5.83l1.67-1.02Z"/><path class="ai" d="M490.68,244.35c-.8,2.01-2.05,4.23-3.39,5.97,1.29-.82,3.16-1.3,4.6-1.3,2.45,0,4.35,1.44,4.35,3.98,0,1.63.06,5.37.09,7.32h-2.21c.11-1.72.13-5.12.1-6.75-.02-1.84-1.32-2.72-3.04-2.72-2.09,0-4.12.99-5.62,2.36-.92.86-1.82,2.04-2.89,3.31l-1.97-1.45c4.71-4.56,6.79-8.29,7.83-10.87.72-1.76,1.15-3.67,1.25-5.17l2.33.2c-.27,1.28-.61,3-1.45,5.12ZM486.74,243.1c4.33,0,9.82-.29,14.31-1.08v2.13c-4.47.7-10.34.96-14.44.96-1.39,0-3.46-.06-5.24-.18v-2.17c1.73.23,3.92.34,5.37.34ZM503.01,251.22c-2.29.9-5.39,2.13-8.48,3.75-3.23,1.68-5.59,3.46-5.59,5.75,0,2.63,2.65,3,5.98,3,2.46,0,5.86-.28,8.68-.75l-.07,2.29c-2.47.31-5.97.55-8.7.55-4.49,0-8.15-.94-8.15-4.78s3.87-6.15,7.68-8.11c3.04-1.59,5.73-2.62,7.9-3.63.91-.41,1.63-.74,2.46-1.17l.95,2.13c-.79.23-1.83.64-2.65.97Z"/><path class="ai" d="M110.28,287.92v2.16h-28.46v-2.16h28.46ZM87.25,294.98v14.44h-2.07v-14.44h2.07ZM98.19,294.98v11.86h-12.14v-2.07h10.01v-7.75h-10.01v-2.04h12.14ZM106.31,288.58v23.18c0,1.62-.41,2.4-1.61,2.77-1.22.36-3.44.37-6.58.37-.15-.61-.56-1.68-.91-2.32,2.62.12,5.21.08,5.98.06.68-.04.9-.25.9-.92v-23.15h2.22Z"/><path class="ai" d="M123.59,291.66l.38-.09,1.21.79c-2.28,5.78-7,11.07-11.36,14.02-.22-.55-.77-1.52-1.12-1.89,4.13-2.6,8.55-7.49,10.45-12.38v-.45h.44ZM123.87,291.66v1.96h-10.01v-1.96h10.01ZM120.71,285.63v7.01h-2.08v-7.01h2.08ZM120.71,298.47v16.48h-2.08v-13.97l2.08-2.5ZM126.09,303.68l-1.32,1.78c-1.08-1.38-4.08-4.46-5.34-5.58l1.29-1.16c1.01.81,4.55,4.12,5.38,4.95ZM132,304.51c-.55,5-2.07,8.51-7.34,10.46-.23-.48-.84-1.26-1.26-1.64,4.8-1.62,6.07-4.63,6.52-8.83h2.09ZM140.51,287.29v17.87h-13.32v-17.87h13.32ZM129.2,292.65h9.26v-3.56h-9.26v3.56ZM129.2,298h9.26v-3.62h-9.26v3.62ZM129.2,303.36h9.26v-3.64h-9.26v3.64ZM136.65,304.61v7.41c0,.73.14.87.92.87h2.63c.76,0,.9-.47.98-3.88.42.35,1.23.63,1.79.78-.19,3.97-.74,4.93-2.52,4.93h-3.12c-2.16,0-2.64-.6-2.64-2.71v-7.41h1.97Z"/><path class="ai" d="M156.33,286.83c-2.42,5.61-6.23,11-10.19,14.54-.24-.51-.91-1.61-1.33-2.12,3.74-3.1,7.31-7.99,9.44-13.1l2.08.69ZM152.64,292.29l.02.04v22.58h-2.13v-20.52l2.1-2.11ZM161.85,286.4v23.9c0,1.77.36,2.15,2.19,2.15h6.58c1.81,0,2.07-1.19,2.3-5.9.54.41,1.42.82,2.05.95-.36,5.2-.99,6.98-4.26,6.98h-6.79c-3.24,0-4.23-.89-4.23-4.24v-23.84h2.16ZM173.26,293.52c-3.15,2.67-7.88,5.32-12.1,7.55-.17-.48-.58-1.2-.9-1.67,4.12-2.19,8.75-5.17,11.45-7.69l1.55,1.81Z"/><path class="ai" d="M186.54,290.65c-.14,3.64-.38,11.29-.38,16.21,0,3.57,2.26,4.84,5.39,4.84,5.96,0,9.28-3.33,11.57-6.63l1.6,1.93c-2.2,3.03-6.27,7.01-13.25,7.01-4.49,0-7.63-1.83-7.63-7.02,0-4.82.33-12.87.33-16.33,0-1.12-.07-2.18-.26-3.06l2.91.02c-.16,1-.24,2.02-.28,3.04Z"/><path class="ai" d="M209.6,307.03l1.84-1.64c2.31,1.86,5.16,4.72,7.22,7.12l-1.95,1.66c-2.08-2.57-4.84-5.29-7.11-7.14Z"/><path class="ai" d="M227.32,314.23l-1.68-1.16c2.26-1.25,3.78-3.44,4.6-5.56l1.79.67c-.93,2.3-2.33,4.66-4.71,6.05ZM254.02,295.04h-27.47v-1.77h27.47v1.77ZM252.38,289.62h-24.4v-1.79h24.4v1.79ZM250.42,305.81h-20.2v-9.09h20.2v9.09ZM248.3,300.5v-2.27h-16.02v2.27h16.02ZM248.3,304.29v-2.31h-16.02v2.31h16.02ZM236.42,292.96l-2.04.57c-.23-1.03-.83-2.53-1.5-3.63l1.93-.47c.71,1.11,1.37,2.58,1.61,3.54ZM237.88,312.85h5.88c1.4,0,1.61-.39,1.74-3.32.48.3,1.33.58,1.9.72-.26,3.59-.92,4.43-3.46,4.43h-6.21c-3.13,0-3.94-.54-3.94-2.71v-4.27h2.07v4.27c0,.74.3.87,2,.87ZM243.63,309.32l-1.26,1.29c-1.13-1.01-3.37-2.56-5.21-3.58l1.2-1.14c1.81.96,4.12,2.41,5.27,3.43ZM241.22,289.06h-2.15v-3.43h2.15v3.43ZM245.7,293.54l-1.9-.53c.6-1.01,1.38-2.56,1.78-3.63l2.19.53c-.7,1.35-1.43,2.65-2.07,3.63ZM254.88,312.89l-1.74,1.12c-1.07-1.71-3.49-4.12-5.71-5.75l1.64-1c2.2,1.59,4.71,3.92,5.82,5.64Z"/><path class="ai" d="M285.45,287.15v27.72h-2.21v-25.66h-21.96v25.66h-2.14v-27.72h26.3ZM284.2,311.21v2.08h-23.85v-2.08h23.85ZM280.85,292.18c-3.54,8.32-9.38,14.31-16.87,18.1-.28-.44-.99-1.31-1.45-1.71,7.45-3.43,13.12-9.24,16.33-16.96l2,.57ZM265.05,291.62c1.32,1.72,2.65,4.03,3.1,5.57l-1.73.8c-.44-1.57-1.71-3.91-2.99-5.66l1.62-.72ZM264.78,298.39c5.83,2.3,12.85,6.19,16.29,9.3l-1.29,1.7c-3.35-3.13-10.29-7.18-16.15-9.56l1.16-1.44ZM271.31,290.61c1.15,1.89,2.21,4.4,2.49,6.03l-1.83.67c-.27-1.62-1.26-4.18-2.38-6.1l1.71-.59Z"/><path class="ai" d="M318.86,302.45v2.08h-29.01v-2.08h29.01ZM301.16,307.36c-2.27,2.79-5.92,5.76-9.18,7.64-.43-.47-1.16-1.14-1.66-1.52,3.18-1.72,6.81-4.52,8.62-6.97l2.22.85ZM317.68,292.51v2.06h-26.5v-2.06h26.5ZM299.56,285.92v17.83h-2.19v-17.83h2.19ZM309.01,306.47c3.01,2.14,7.02,5.21,9.08,7.15l-2,1.33c-1.94-1.92-5.84-5.11-8.91-7.37l1.83-1.11ZM311.21,285.92v17.83h-2.2v-17.83h2.2Z"/><path class="ai" d="M335.14,286.16c-2.16,6.98-6.02,14.04-12.09,18.33-.29-.48-.96-1.24-1.36-1.65,5.73-3.97,9.52-10.74,11.3-17.2l2.16.52ZM350.34,289.83v2.02h-27.94v-2.02h27.94ZM344.95,295.78v1.94h-14.25v17.22h-2.11v-19.16h16.36ZM345.29,301.24v1.86h-15.22v-1.86h15.22ZM345.29,306.68v1.88h-15.22v-1.88h15.22ZM346.55,295.78v16.4c0,1.32-.3,2-1.32,2.35-.99.33-2.76.33-5.55.33-.09-.58-.42-1.48-.72-2.09,2.2.1,4.17.07,4.77.05.56-.02.73-.2.73-.69v-16.37h2.11Z"/><path class="ai" d="M355.96,298.01c4.18-1.6,12.2-6.08,17.53-6.08,4.35,0,6.99,2.43,6.99,5.87s-2.23,6.34-7.23,6.34c-1.79,0-3.57-.45-4.76-.9l.06-2.25c1.21.55,2.81,1.04,4.57,1.04,3.71,0,5.1-2.05,5.1-4.33,0-1.95-1.53-3.76-4.8-3.76-5.37,0-14.84,5.48-18.87,7.25l-1.13-2.35c.87-.22,1.95-.59,2.53-.84ZM359.98,291.6c1.21,2.22,2.76,5.47,4.11,8.42,1.79,4.07,3.73,9.85,4.83,13.37l-2.45.67c-.99-3.75-2.5-8.83-4.36-13.09-1.54-3.42-3.01-6.57-4.06-8.3-.38-.62-1.01-1.59-1.49-2.2l2.33-.95c.24.51.77,1.5,1.1,2.09ZM364.6,287.96l1.63-1.18c1.05.8,3.49,2.81,4.69,4.06l-1.61,1.32c-1.25-1.25-3.32-3.16-4.71-4.2Z"/><path class="ai" d="M388.62,288.94v4.81c0,3.67-.57,8.85-3.48,12.46-.3-.41-1.15-1.12-1.59-1.34,2.7-3.35,3.05-7.87,3.05-11.14v-4.79h2.01ZM389.97,307.44c-.83,2.57-2.13,5.23-4.42,6.85l-1.76-1.19c2.17-1.46,3.57-3.93,4.31-6.33l1.87.67ZM412.58,288.94v1.8h-24.95v-1.8h24.95ZM399.74,293.01v1.57h-9.88v-1.57h9.88ZM399.17,296.87v6.68h-8.71v-1.57h6.86v-3.55h-6.86v-1.55h8.71ZM392.26,296.87v5.83h-1.81v-5.83h1.81ZM394.23,306.54v5.12c0,.8.31.96,2.07.96h6.1c1.45,0,1.68-.39,1.82-3.46.46.35,1.33.65,1.94.77-.29,3.76-.95,4.65-3.57,4.65h-6.42c-3.24,0-4.04-.58-4.04-2.9v-5.14h2.1ZM395.88,304.25c2.07.9,4.46,2.46,5.62,3.71l-1.47,1.39c-1.12-1.25-3.48-2.88-5.53-3.88l1.38-1.22ZM409.51,292.88c-1.8,5.34-5.01,9.65-8.91,12.47-.31-.41-1.11-1.12-1.56-1.48,3.87-2.55,6.88-6.6,8.46-11.47l2,.48ZM401.99,285.62c.38,10.03,4.93,18.06,8.26,18.03.85-.02,1.15-1.17,1.31-4.1.45.4,1.17.77,1.71.95-.35,3.98-1.16,5.12-3.12,5.12-4.94.02-9.68-9.23-10.2-19.99h2.05ZM405.32,285.46c1.62.5,3.61,1.41,4.63,2.22l-1.16,1.45c-.98-.82-2.94-1.83-4.59-2.38l1.12-1.29ZM407.38,306.48c2.33,1.79,4.78,4.42,5.8,6.4l-1.91,1.07c-.92-1.96-3.3-4.63-5.64-6.49l1.75-.98Z"/><path class="ai" d="M428.15,307.6c-.87,4.36-3.4,6.38-11.09,7.38-.18-.5-.7-1.42-1.11-1.86,7.12-.74,9.28-2.17,9.99-5.53h2.21ZM443.92,290.73v6.31h-2.08v-4.47h-22.5v4.47h-2v-6.31h26.58ZM421.27,286.14c1.19,1.17,2.54,2.81,3.13,3.9l-1.87,1c-.59-1.12-1.86-2.84-3.04-4.04l1.78-.86ZM439.55,295.01v13.11h-17.76v-13.11h17.76ZM423.79,298.88h13.69v-2.37h-13.69v2.37ZM423.79,302.73h13.69v-2.4h-13.69v2.4ZM423.79,306.62h13.69v-2.46h-13.69v2.46ZM429.5,285.66c.99,1.31,2.07,3.12,2.48,4.29l-1.9.76c-.4-1.2-1.42-3.04-2.4-4.38l1.83-.67ZM434.95,307.55v4.43c0,.72.23.85,1.67.85h4.93c1.24,0,1.46-.4,1.56-3.62.45.35,1.34.67,1.93.79-.25,3.88-.9,4.78-3.28,4.78h-5.32c-2.9,0-3.63-.58-3.63-2.78v-4.45h2.13ZM441.69,286.7c-1.27,1.75-2.81,3.67-4.06,4.92l-1.71-.77c1.2-1.31,2.74-3.46,3.59-4.95l2.18.8Z"/><path class="ai" d="M451.38,290.77v23.38h-1.99v-23.38h1.99ZM459.45,299.73v1.91h-8.94v-1.91h8.94ZM460.37,290.77v20.81h-9.71v-1.95h7.72v-16.93h-7.72v-1.92h9.71ZM456.65,286c-.64,1.95-1.43,4.16-2.07,5.59l-1.73-.45c.56-1.53,1.2-3.93,1.49-5.58l2.3.44ZM467.81,285.95c-1.16,4.77-3.03,9.45-5.23,12.5-.38-.33-1.27-.94-1.78-1.22,2.2-2.86,3.92-7.29,4.95-11.75l2.06.47ZM465.96,297.88c1.85,2.29,4.09,5.39,5.13,7.28l-1.83,1.16c-.98-1.95-3.17-5.15-4.98-7.48l1.67-.96ZM474.91,290.69v2h-9.91v-2h9.91ZM476.16,290.69s0,.84-.01,1.15c-.51,14.74-.97,19.68-2.24,21.23-.69.89-1.37,1.14-2.48,1.24-1.06.09-2.94.04-4.73-.07-.06-.62-.31-1.51-.71-2.08,2.09.17,4.01.19,4.74.19.64,0,1.01-.08,1.36-.51,1.07-1.15,1.59-6.45,2.03-20.68v-.47h2.02Z"/><path class="ai" d="M491.16,293.87c-1.55,4.61-4.51,10.38-7.15,13.94l-2.21-1.15c2.85-3.3,5.83-8.99,7.16-12.83.68-1.97,1.38-4.75,1.48-6.95l2.53.25c-.39,1.54-1.07,4.53-1.81,6.74ZM485.68,292.62c3.38,0,7.34-.4,11.14-1.64l.06,2.14c-3.2.88-7.35,1.56-11.21,1.54-1.17,0-2.53-.03-3.69-.08l-.16-2.15c1.15.14,2.46.2,3.86.2ZM500.47,300.32c.06,2.12.35,6.97.35,9.17,0,2.48-1.64,4.51-5.49,4.51-3.44,0-6.26-1.35-6.26-4.48,0-2.92,2.81-4.67,6.26-4.67,5.34,0,9.39,2.66,12.03,4.9l-1.23,1.94c-2.49-2.23-6.16-5.02-10.86-5.02-2.44,0-4.1,1.14-4.1,2.68s1.27,2.6,3.89,2.6,3.67-1.45,3.67-3.17c0-2.52-.35-8.21-.45-11.78h2.23c-.07,1.31-.08,2.22-.04,3.33ZM499.82,293.31l1.15-1.73c2.33,1.01,5.91,3.09,7.4,4.23l-1.29,1.88c-1.7-1.46-5.14-3.41-7.25-4.38Z"/><path class="ai" d="M104.62,341.14c-.68,3.4-2.25,8.59-4.77,11.82-2.92,3.74-6.65,6.67-12.54,8.51l-1.94-2.14c6.17-1.57,9.76-4.28,12.47-7.74,2.29-2.94,3.82-7.54,4.26-10.67h-16.62c-1.24,0-2.26.05-3.07.09v-2.53c.86.11,2.04.2,3.09.2h16.27c.46,0,1.02-.01,1.57-.16l1.73,1.12c-.2.42-.31.88-.44,1.49ZM106.01,334.01c1.96,0,3.55,1.6,3.55,3.55s-1.6,3.53-3.55,3.53-3.53-1.57-3.53-3.53,1.57-3.55,3.53-3.55ZM106.01,339.72c1.19,0,2.17-.96,2.17-2.15s-.99-2.17-2.17-2.17-2.15.99-2.15,2.17.96,2.15,2.15,2.15Z"/><path class="ai" d="M116.99,338.74h17.09c.67,0,1.82,0,2.75-.05-.06.75-.06,1.61-.06,2.37v15.79c0,.98.04,3.38.06,3.77h-2.46c.02-.39.05-2.11.05-3.37v-16.26h-17.84v16.26c0,.99.03,2.92.05,3.37h-2.45c.02-.46.07-2.72.07-3.77v-15.79c0-.7,0-1.63-.04-2.38,1.25.05,2.03.06,2.77.06ZM135.38,358.76h-19.89v-2.22h19.89v2.22Z"/><path class="ai" d="M157.34,353.86c4.85-3.07,8.69-7.79,10.5-11.67l1.38,2.42c-2.15,3.91-5.78,8.25-10.55,11.28-3.2,2.03-7.23,4.04-12.72,5.07l-1.49-2.33c5.68-.86,9.85-2.86,12.88-4.77ZM155.1,343.75l-1.77,1.8c-1.61-1.64-5.58-5.07-7.97-6.66l1.61-1.72c2.27,1.5,6.38,4.83,8.12,6.57Z"/><path class="ai" d="M194.13,341.14c-.68,3.4-2.25,8.59-4.77,11.82-2.92,3.74-6.65,6.67-12.54,8.51l-1.94-2.14c6.17-1.57,9.76-4.28,12.47-7.74,2.29-2.94,3.82-7.54,4.26-10.67h-16.62c-1.24,0-2.26.05-3.07.09v-2.53c.86.11,2.04.2,3.09.2h16.27c.46,0,1.02-.01,1.57-.16l1.73,1.12c-.2.42-.31.88-.44,1.49ZM195.53,334.01c1.96,0,3.55,1.6,3.55,3.55s-1.6,3.53-3.55,3.53-3.53-1.57-3.53-3.53,1.57-3.55,3.53-3.55ZM195.53,339.72c1.19,0,2.17-.96,2.17-2.15s-.99-2.17-2.17-2.17-2.15.99-2.15,2.17.96,2.15,2.15,2.15Z"/><path class="ai" d="M205.58,339.03c0-.87-.06-2.27-.23-3.25h2.81c-.11.96-.21,2.34-.21,3.25,0,5.24.02,17.27.02,18.64,0,1.04.06,2.67.18,3.68h-2.75c.14-.98.19-2.5.19-3.68v-18.64ZM221.66,349.66l-.99,2.41c-3.66-1.99-9.74-4.3-13.23-5.35v-2.51c4.22,1.24,10.6,3.67,14.21,5.46Z"/><path class="ai" d="M236.12,338.96v1.81h-10.29v-1.81h10.29ZM228.88,351.85v10.78h-1.8v-10.78h1.8ZM235.3,343.29v1.74h-8.17v-1.74h8.17ZM235.3,347.56v1.74h-8.17v-1.74h8.17ZM235.22,334.79v1.74h-7.88v-1.74h7.88ZM235.27,351.85v9.26h-7.15v-1.8h5.34v-5.66h-5.34v-1.8h7.15ZM239.79,335v11.4c0,4.99-.36,12.03-3.06,16.77-.34-.37-1.21-.96-1.69-1.19,2.56-4.5,2.77-10.83,2.77-15.58v-11.4h1.97ZM253.04,335v1.88h-14.11v-1.88h14.11ZM250.83,345.38v1.72h-9.61v-1.72h9.61ZM250.35,340.44v1.72h-8.8v-1.72h8.8ZM243.42,349.68v9.53h-1.68v-9.53h1.68ZM250.12,349.68v8.24h-7.48v-1.69h5.78v-4.89h-5.78v-1.67h7.48ZM246.77,337.58v8.81h-1.77v-8.81h1.77ZM254.23,335v25.16c0,1.34-.28,2.03-1.16,2.4-.86.35-2.47.39-4.88.39-.08-.56-.37-1.54-.66-2.14,1.82.07,3.53.04,4.07.02.48-.02.63-.15.63-.66v-25.16h2Z"/><path class="ai" d="M266.51,344.77c-1.6,2.14-4.59,4.55-6.89,5.75-.29-.45-.87-1.07-1.29-1.39,2.32-1,5.26-3.09,6.78-5l1.39.64ZM287.57,360.39v1.82h-29.01v-1.82h29.01ZM273.63,335.78v1.62h-14.76v-1.62h14.76ZM272.79,339.13v5.8h-12.94v-5.8h12.94ZM285.47,351.42v1.81h-24.73v-1.81h24.73ZM261.64,343.44h9.31v-2.82h-9.31v2.82ZM265.98,354.73v6.62h-2.07v-6.62h2.07ZM267.21,333.62v16.91h-1.92v-16.91h1.92ZM273.06,347.86l-1.06,1.47c-1.21-.85-4.51-2.7-5.92-3.41l1.09-1c1.12.51,4.9,2.4,5.9,2.94ZM274.05,352.08v9.19h-2.12v-9.19h2.12ZM285.61,338.31c-1.64,6.47-5.75,10.1-11.74,12.3-.23-.43-.87-1.25-1.3-1.6,5.79-1.81,9.64-5.18,11.02-10.95l2.01.24ZM279.63,334.07c-1.1,3.69-3.05,7.08-5.38,9.28-.28-.38-1.04-1.12-1.49-1.47,2.25-1.96,3.97-4.97,4.92-8.25l1.95.44ZM283.45,355.87v1.7h-10.35v-1.7h10.35ZM288,349.03c-.41.4-.95,1.2-1.23,1.7-6.09-2.27-9.54-7.18-11.01-11.39l1.41-1.01c1.38,4.12,4.77,8.77,10.84,10.7ZM287.46,337.27v1.79h-11.37l.89-1.79h10.48Z"/><path class="ai" d="M304.82,349.07c-1.95,6.6-4.46,9.86-7.32,9.86s-5.56-3.13-5.56-8.41c0-6.88,6.12-12.88,13.86-12.88s12.14,5.24,12.14,11.63c0,6.71-4.47,11.13-11.98,12.09l-1.31-2.13c.97-.07,1.97-.22,2.7-.38,4.11-.91,8.28-3.99,8.28-9.67,0-5.16-3.61-9.48-9.86-9.48-7.09,0-11.62,5.82-11.62,10.63,0,4.18,1.94,6.01,3.43,6.01s3.33-2.17,5-7.77c.94-3.07,1.62-6.65,1.92-9.97l2.36.03c-.41,3.34-1.04,7.1-2.04,10.44Z"/><path class="ai" d="M339.17,339.23v2.24c-3.97.89-8.77,1.43-12.18,1.43-1.37,0-2.51-.04-3.68-.13l-.06-2.22c1.49.19,2.67.23,3.8.23,3.45,0,8.19-.54,12.12-1.56ZM333.4,337.8c-.47,2.33-1.14,5.9-2.01,9.08-1.15,4.56-3.32,11.18-4.99,14.63l-2.5-.84c1.93-3.32,4.15-9.79,5.35-14.3.79-2.95,1.63-7.05,1.86-8.7.12-.84.17-1.89.12-2.54l2.72.23c-.19.67-.42,1.84-.54,2.45ZM337.18,355.76c0,1.52.84,3.07,5.59,3.07,2.09,0,4.27-.23,6.19-.63l-.08,2.32c-1.71.25-3.85.45-6.14.45-4.97,0-7.71-1.49-7.71-4.65,0-1.18.2-2.32.48-3.68l2.13.21c-.29,1.07-.46,2.06-.46,2.92ZM342.96,344.84c1.88,0,3.82.07,5.53.27l-.07,2.18c-1.64-.21-3.5-.37-5.37-.37s-3.92.12-5.88.33v-2.14c1.66-.15,3.76-.26,5.79-.26Z"/><path class="ai" d="M372.86,338.13c-1.11,5.22-3.4,11.9-5.86,15.38-2.36,3.32-4.73,5.86-7.65,5.86-2.39,0-4.35-1.98-4.35-5.65,0-3.98,2.44-8.19,5.78-10.43,3.12-2.13,6.25-2.97,9.51-2.97,6.22,0,10.72,4.19,10.72,10.36s-4.53,10.17-11.42,11.12l-1.32-2.01c6.62-.59,10.49-4.08,10.49-9.19,0-4.79-3.47-8.3-8.72-8.3-3.07,0-5.89,1.01-8.44,2.9-2.74,1.99-4.54,5.49-4.54,8.4,0,2.21.99,3.56,2.49,3.56,2.16,0,4.48-2.86,6.09-5.44,2.05-3.23,4.24-9.07,5.08-13.86.1-.59.2-1.6.19-2.33l2.46.23c-.2.78-.38,1.79-.52,2.39ZM361,340.06c.82,3.04,2.63,7.96,3.95,10.2,1.09,1.89,2.57,4.02,4.11,5.49l-1.78,1.47c-1.29-1.43-2.52-3.05-3.75-5.21-1.5-2.42-3.36-7.29-4.53-11.15-.3-1-.66-2.06-1.03-2.83l2.37-.75c.17.84.43,1.89.66,2.79Z"/><path class="ai" d="M399.49,349.07c-1.95,6.6-4.46,9.86-7.32,9.86s-5.56-3.13-5.56-8.41c0-6.88,6.12-12.88,13.86-12.88s12.14,5.24,12.14,11.63c0,6.71-4.47,11.13-11.98,12.09l-1.31-2.13c.97-.07,1.97-.22,2.7-.38,4.11-.91,8.28-3.99,8.28-9.67,0-5.16-3.61-9.48-9.86-9.48-7.09,0-11.62,5.82-11.62,10.63,0,4.18,1.94,6.01,3.43,6.01s3.33-2.17,5-7.77c.94-3.07,1.62-6.65,1.92-9.97l2.36.03c-.41,3.34-1.04,7.1-2.04,10.44Z"/><path class="ai" d="M430.74,355.37v1.92h-13.95v-1.92h13.95ZM430.46,337.15v1.92h-13.28v-1.92h13.28ZM429.97,341.61v11.05h-12.21v-11.05h12.21ZM419.43,346.33h8.81v-3.08h-8.81v3.08ZM419.43,351.03h8.81v-3.14h-8.81v3.14ZM424.79,333.61v8.7h-1.95v-8.7h1.95ZM424.62,342.43v9.39h.17v11.22h-1.95v-11.22h.16v-9.39h1.61ZM446.31,360.19v1.93h-16.65v-1.93h16.65ZM443.34,335.26l.41-.09,1.35.57c-2.28,7.43-7.9,11.82-14.05,13.91-.23-.53-.74-1.31-1.16-1.75,5.7-1.68,11.15-5.94,13.06-12.24v-.39h.4ZM443.54,335.26v1.9h-12.44v-1.9h12.44ZM444.88,352.47v1.87h-13.18v-1.87h13.18ZM446.67,347.78c-.45.43-1.04,1.22-1.34,1.79-5.99-1.88-10.45-6.14-12.78-11.91l1.82-.54c2.06,5.16,6.49,9.12,12.3,10.66ZM439.31,348.21v13.11h-2.11v-13.11h2.11Z"/><path class="ai" d="M478.49,360.47v1.7h-29.01v-1.7h29.01ZM478.29,343.85v1.69h-28.62v-1.69h28.62ZM475.93,356.93v1.55h-23.79v-1.55h23.79ZM475.21,347.05v7.99h-22.13v-7.99h22.13ZM474.25,334.67v7.76h-20.59v-7.76h20.59ZM455.11,350.36h17.99v-1.91h-17.99v1.91ZM455.11,353.66h17.99v-1.95h-17.99v1.95ZM455.72,337.88h16.39v-1.86h-16.39v1.86ZM455.72,341.08h16.39v-1.9h-16.39v1.9ZM464.96,347.57v13.78h-2.1v-13.78h2.1Z"/><path class="ai" d="M484.7,339.39c1.96-.21,8.14-.84,14.04-1.33,3.53-.3,6.43-.48,8.55-.55v2.27c-1.85-.01-4.66.03-6.26.51-4.7,1.55-7.45,6.56-7.45,10.34,0,6.42,6,8.43,11.17,8.62l-.82,2.33c-5.79-.2-12.59-3.26-12.59-10.45,0-5.06,3.12-9.21,6.2-10.98-3.51.38-11.95,1.19-15.38,1.9l-.26-2.52c1.21-.03,2.19-.1,2.82-.16ZM505.34,348.33l-1.52.7c-.71-1.51-1.67-3.22-2.63-4.54l1.48-.65c.73,1.05,1.96,3.04,2.67,4.48ZM508.94,346.97l-1.51.73c-.75-1.52-1.73-3.16-2.72-4.49l1.45-.68c.77,1.04,2.04,3.01,2.79,4.44Z"/><path class="ai" d="M82.43,390.56c2.16.71,4.91,1.97,6.28,2.99l-1.17,1.84c-1.35-1.05-4.03-2.41-6.24-3.19l1.13-1.64ZM88.2,398.73l1.58,1.38c-1.65,3.39-3.89,7.47-5.74,10.43l-1.83-1.42c1.69-2.46,4.19-6.74,5.99-10.38ZM84.19,381.88c2.15.82,4.81,2.25,6.13,3.38l-1.26,1.8c-1.28-1.17-3.87-2.69-6.05-3.61l1.18-1.57ZM95.22,383.38v10.49c0,5.29-.71,12.48-5.88,17.16-.3-.44-1.12-1.12-1.6-1.39,4.92-4.43,5.42-10.77,5.42-15.79v-10.47h2.06ZM105.23,383.38v2.05h-10.97v-2.05h10.97ZM97.06,392.13c2.34,1.74,4.92,4.26,6.04,6.13l-1.7,1.41c-1.06-1.86-3.58-4.47-5.91-6.28l1.57-1.26ZM105.97,383.38v23.01c0,1.04.06,1.65.25,1.78.17.13.39.17.65.17h1.12c.31,0,.65-.05.83-.18.16-.15.29-.49.34-1.18.08-.73.12-2.39.14-4.54.47.45,1.16.83,1.77,1-.01,1.78-.1,3.96-.26,4.76-.17.86-.45,1.39-.93,1.69-.46.33-1.04.43-1.72.43h-1.74c-.61,0-1.31-.17-1.82-.57-.51-.42-.71-.99-.71-3.64v-22.72h2.09Z"/><path class="ai" d="M119.08,383.9v11.63c0,4.83-.54,11.35-4.35,15.6-.32-.43-1.18-1.15-1.66-1.42,3.55-4,3.9-9.68,3.9-14.19v-11.62h2.1ZM139.05,399.04v2.03h-21.07v-2.03h21.07ZM139.07,383.9v2.07h-20.89v-2.07h20.89ZM139,391.38v2.03h-20.82v-2.03h20.82ZM129.22,384.67v26.01h-2.16v-26.01h2.16ZM140.29,383.9v24.02c0,1.48-.37,2.17-1.41,2.53-1.04.34-2.89.38-5.93.34-.09-.55-.45-1.5-.75-2.08,2.33.08,4.52.05,5.14.03s.84-.21.84-.82v-24.02h2.12Z"/><path class="ai" d="M148.85,386.77v23.38h-1.99v-23.38h1.99ZM156.91,395.73v1.91h-8.94v-1.91h8.94ZM157.84,386.77v20.81h-9.71v-1.95h7.72v-16.93h-7.72v-1.92h9.71ZM154.12,382c-.64,1.95-1.43,4.16-2.07,5.59l-1.73-.45c.56-1.53,1.2-3.93,1.49-5.58l2.3.44ZM165.28,381.95c-1.16,4.77-3.03,9.45-5.23,12.5-.38-.33-1.27-.94-1.78-1.22,2.2-2.86,3.92-7.29,4.95-11.75l2.06.47ZM163.42,393.88c1.85,2.29,4.09,5.39,5.13,7.28l-1.83,1.16c-.98-1.95-3.17-5.15-4.98-7.48l1.67-.96ZM172.37,386.69v2h-9.91v-2h9.91ZM173.62,386.69s0,.84-.01,1.15c-.51,14.74-.97,19.68-2.24,21.23-.69.89-1.37,1.14-2.48,1.24-1.06.09-2.94.04-4.73-.07-.06-.62-.31-1.51-.71-2.08,2.09.17,4.01.19,4.74.19.64,0,1.01-.08,1.36-.51,1.07-1.15,1.59-6.45,2.03-20.68v-.47h2.02Z"/><path class="ai" d="M188.58,389.87c-1.55,4.61-4.51,10.38-7.15,13.94l-2.21-1.15c2.85-3.3,5.83-8.99,7.16-12.83.68-1.97,1.38-4.75,1.48-6.95l2.53.25c-.39,1.54-1.07,4.53-1.81,6.74ZM183.11,388.62c3.38,0,7.34-.4,11.14-1.64l.06,2.14c-3.2.88-7.35,1.56-11.21,1.54-1.17,0-2.53-.03-3.69-.08l-.16-2.15c1.15.14,2.46.2,3.86.2ZM197.9,396.32c.06,2.12.35,6.97.35,9.17,0,2.48-1.64,4.51-5.49,4.51-3.44,0-6.26-1.35-6.26-4.48,0-2.92,2.81-4.67,6.26-4.67,5.34,0,9.39,2.66,12.03,4.9l-1.23,1.94c-2.49-2.23-6.16-5.02-10.86-5.02-2.44,0-4.1,1.14-4.1,2.68s1.27,2.6,3.89,2.6,3.67-1.45,3.67-3.17c0-2.52-.35-8.21-.45-11.78h2.23c-.07,1.31-.08,2.22-.04,3.33ZM197.25,389.31l1.15-1.73c2.33,1.01,5.91,3.09,7.4,4.23l-1.29,1.88c-1.7-1.46-5.14-3.41-7.25-4.38Z"/><path class="ai" d="M231.98,388.69c-.68,3.4-2.25,8.59-4.77,11.82-2.92,3.74-6.65,6.67-12.54,8.51l-1.94-2.14c6.17-1.57,9.76-4.28,12.47-7.74,2.29-2.94,3.82-7.54,4.26-10.67h-16.62c-1.24,0-2.26.05-3.07.09v-2.53c.86.11,2.04.2,3.09.2h16.27c.46,0,1.02,0,1.57-.16l1.73,1.11c-.2.42-.31.88-.44,1.49Z"/><path class="ai" d="M239.67,406.01v-18.46c0-.8-.13-2.21-.24-2.79h2.82c-.12.71-.22,1.91-.22,2.77v18.43c6.29-1.57,13.75-5.8,17.71-10.96l1.29,1.98c-4.12,5.15-10.7,9.11-18.76,11.41-.33.09-.79.24-1.25.5l-1.63-1.39c.21-.46.28-.87.28-1.48Z"/><path class="ai" d="M269.74,394.93h17.6c1.61,0,2.7-.09,3.39-.16v2.78c-.64-.03-1.93-.13-3.37-.13h-17.62c-1.76,0-3.38.05-4.34.13v-2.78c.93.07,2.51.16,4.34.16Z"/><path class="ai" d="M317.45,402.94l.67,2.2c-4.41.56-16.31,1.89-20.89,2.32-.8.07-1.69.2-2.59.33l-.44-2.64c.93.02,1.98,0,2.89-.05,4.63-.26,16.28-1.55,20.35-2.15ZM307.24,387.51c-1,3.23-4.77,14.93-6.14,18.14l-2.58.08c1.61-3.62,5.38-15.39,6.32-18.71.39-1.46.52-2.15.61-2.97l2.86.6c-.31.75-.64,1.52-1.07,2.86ZM321.54,408.41l-2.38,1.07c-1.23-3.4-4.54-10.07-6.85-13.08l2.14-.96c2.24,3.25,5.79,9.72,7.08,12.97Z"/><path class="ai" d="M349.06,388.5c-.58,3.87-1.23,8.39-3.52,11.97-2.58,4.07-6.95,7.35-12.09,8.99l-1.94-1.95c4.78-1.29,9.28-4.11,11.92-8.22,1.85-2.88,2.75-7.06,3.07-10.91h-18.07v6.61c0,.46.02,1.19.08,1.94h-2.57c.07-.74.1-1.39.1-1.94v-6.85c0-.71-.04-1.37-.12-2.04.83.06,1.96.08,3.32.08h16.63c.62,0,1.33-.04,1.83-.17l1.74,1.11c-.14.29-.34,1.08-.39,1.37Z"/><path class="ai" d="M358.73,394.93h17.6c1.61,0,2.7-.09,3.39-.16v2.78c-.64-.03-1.93-.13-3.37-.13h-17.62c-1.76,0-3.38.05-4.34.13v-2.78c.93.07,2.51.16,4.34.16Z"/><path class="ai" d="M397.54,386.01c-1.83,3.48-5.09,8.06-10.34,11.52l-1.98-1.47c5.51-3.27,8.71-8.02,10.08-10.91.29-.53.73-1.62.91-2.39l2.64.88c-.48.78-1.01,1.79-1.31,2.37ZM408.94,390.03c-.86,3.29-2.85,7.62-5.69,11.08-2.89,3.52-6.71,6.45-12.71,8.65l-2.06-1.88c5.76-1.68,9.83-4.59,12.76-8.05,2.54-3,4.53-7.2,5.2-10.22h-12.05l.94-2.06h10.39c.84,0,1.49-.09,1.97-.29l1.91,1.15c-.24.42-.54,1.14-.68,1.6Z"/><path class="ai" d="M415.82,387.39c1.96-.21,8.14-.84,14.04-1.33,3.53-.3,6.43-.48,8.55-.55v2.27c-1.85-.01-4.66.03-6.26.51-4.7,1.55-7.45,6.56-7.45,10.34,0,6.42,6,8.43,11.17,8.62l-.82,2.33c-5.79-.2-12.59-3.26-12.59-10.45,0-5.06,3.12-9.21,6.2-10.98-3.51.38-11.95,1.19-15.38,1.9l-.26-2.52c1.21-.03,2.19-.1,2.82-.16ZM436.46,396.33l-1.52.7c-.71-1.51-1.67-3.22-2.63-4.54l1.48-.65c.73,1.05,1.96,3.04,2.67,4.48ZM440.07,394.97l-1.51.73c-.75-1.52-1.73-3.16-2.72-4.49l1.45-.68c.77,1.04,2.04,3.01,2.79,4.44Z"/><path class="ai" d="M459.8,387.37c4.02,0,7.81.02,9.27.03l-.02,2.12c-1.76-.1-4.59-.15-9.28-.15-5.44,0-12.39.21-17.2.59l-.06-2.22c4.26-.08,12.19-.37,17.29-.37ZM454.42,403.17c-2.73,0-5.21-1.86-5.21-5.27,0-3.09,2.54-5.48,5.51-5.48,3.63,0,5.47,2.7,5.47,6.35,0,4.36-2.05,9.08-9.42,11.3l-1.93-1.87c5.91-1.38,9.16-4.38,9.16-9.59,0-3.05-1.46-4.28-3.27-4.28s-3.38,1.39-3.38,3.54,1.55,3.32,3.4,3.32c2.07,0,3.35-1.76,2.93-5.09l1.53.9c0,4.13-1.99,6.17-4.79,6.17ZM459.16,385.08c-.07,2.07-.01,8.18.02,10.72l-2.17-1.21c0-1.3-.02-7.71-.13-9.5-.04-.77-.15-1.65-.2-1.89h2.62c-.05.33-.14,1.5-.15,1.88Z"/><polygon class="ah" points="1080 458.47 840.98 362.6 840.98 75 1080 170.87 1080 458.47"/><polygon class="ah" points="1079.51 457.61 841.47 362.14 841.47 75.72 1079.51 171.19 1079.51 457.61"/><polygon class="ag" points="1039.84 393.96 881.15 330.31 881.15 139.5 1039.84 203.15 1039.84 393.96"/><polygon class="al" points="1000.16 330.31 920.82 298.49 920.82 203.02 1000.16 234.84 1000.16 330.31"/><polygon class="ae" points="973.72 240.14 960.49 234.84 960.49 218.93 973.72 224.23 973.72 240.14"/><polygon class="ae" points="1000.16 282.58 986.94 277.27 986.94 261.36 1000.16 266.66 1000.16 282.58"/><polygon class="ae" points="1000.16 314.4 986.94 309.1 986.94 293.18 1000.16 298.49 1000.16 314.4"/><polygon class="ae" points="1000.16 250.75 986.94 245.45 986.94 229.54 1000.16 234.84 1000.16 250.75"/><polygon class="ae" points="986.94 325.01 973.72 319.7 973.72 303.79 986.94 309.1 986.94 325.01"/><polygon class="ae" points="960.49 314.4 947.27 309.1 947.27 293.18 960.49 298.49 960.49 314.4"/><polygon class="ae" points="947.27 229.54 934.04 224.23 934.04 208.32 947.27 213.62 947.27 229.54"/><polygon class="ae" points="934.04 303.79 920.82 298.49 920.82 282.58 934.04 287.88 934.04 303.79"/><polygon class="ae" points="934.04 271.97 920.82 266.66 920.82 250.75 934.04 256.06 934.04 271.97"/><polygon class="ae" points="934.04 240.14 920.82 234.84 920.82 218.93 934.04 224.23 934.04 240.14"/><polygon class="af" points="986.94 309.1 934.04 287.88 934.04 224.23 986.94 245.45 986.94 309.1"/><polygon class="aq" points="986.94 261.36 973.72 256.06 973.72 240.14 986.94 245.45 986.94 261.36"/><polygon class="aq" points="960.49 250.75 947.27 245.45 947.27 229.54 960.49 234.84 960.49 250.75"/><polygon class="aq" points="973.72 271.97 960.49 266.66 960.49 250.75 973.72 256.06 973.72 271.97"/><polygon class="aq" points="947.27 261.36 934.04 256.06 934.04 240.14 947.27 245.45 947.27 261.36"/><polygon class="aq" points="986.94 293.18 973.72 287.88 973.72 271.97 986.94 277.27 986.94 293.18"/><polygon class="aq" points="960.49 282.58 947.27 277.27 947.27 261.36 960.49 266.66 960.49 282.58"/><polygon class="aq" points="973.72 303.79 960.49 298.49 960.49 282.58 973.72 287.88 973.72 303.79"/><polygon class="aq" points="947.27 293.18 934.04 287.88 934.04 271.97 947.27 277.27 947.27 293.18"/><line class="q" x1="1000.16" y1="266.66" x2="1039.84" y2="282.58"/><line class="q" x1="1000.16" y1="282.58" x2="1039.84" y2="298.49"/><line class="q" x1="1000.16" y1="298.49" x2="1039.84" y2="314.4"/><line class="q" x1="1000.16" y1="250.75" x2="1039.84" y2="266.66"/><line class="q" x1="1000.16" y1="314.4" x2="1039.84" y2="330.31"/><line class="f" x1="1053.06" y1="447" x2="1053.06" y2="351.53"/><line class="f" x1="1066.29" y1="452.31" x2="1066.29" y2="356.83"/><line class="f" x1="1079.51" y1="441.7" x2="1000.16" y2="409.87"/><line class="f" x1="1079.51" y1="425.79" x2="1000.16" y2="393.96"/><line class="m" x1="1039.84" y1="282.58" x2="1079.51" y2="298.49"/><line class="m" x1="1039.84" y1="298.49" x2="1079.51" y2="314.4"/><line class="m" x1="1039.84" y1="314.4" x2="1079.51" y2="330.31"/><line class="m" x1="1039.84" y1="266.66" x2="1079.51" y2="282.58"/><line class="m" x1="1039.84" y1="330.31" x2="1079.51" y2="346.23"/><line class="f" x1="1039.84" y1="378.05" x2="1079.51" y2="393.96"/><line class="f" x1="1039.84" y1="393.96" x2="1079.51" y2="409.87"/><line class="f" x1="1039.84" y1="362.14" x2="1079.51" y2="378.05"/><line class="q" x1="1039.84" y1="346.23" x2="1039.84" y2="250.75"/><line class="m" x1="1053.06" y1="351.53" x2="1053.06" y2="256.06"/><line class="m" x1="1066.29" y1="356.83" x2="1066.29" y2="261.36"/><line class="q" x1="1026.61" y1="340.92" x2="1026.61" y2="245.45"/><line class="q" x1="1013.39" y1="335.62" x2="1013.39" y2="240.14"/><line class="e" x1="920.82" y1="266.66" x2="881.15" y2="250.75"/><line class="e" x1="920.82" y1="250.75" x2="881.15" y2="234.84"/><line class="e" x1="920.82" y1="234.84" x2="881.15" y2="218.93"/><line class="e" x1="920.82" y1="282.58" x2="881.15" y2="266.66"/><line class="e" x1="920.82" y1="218.93" x2="881.15" y2="203.02"/><line class="h" x1="881.15" y1="250.75" x2="841.47" y2="234.84"/><line class="h" x1="881.15" y1="234.84" x2="841.47" y2="218.93"/><line class="h" x1="881.15" y1="218.93" x2="841.47" y2="203.02"/><line class="h" x1="881.15" y1="266.66" x2="841.47" y2="250.75"/><line class="h" x1="881.15" y1="203.02" x2="841.47" y2="187.1"/><line class="e" x1="881.15" y1="187.1" x2="881.15" y2="282.58"/><line class="h" x1="867.92" y1="181.8" x2="867.92" y2="277.27"/><line class="h" x1="854.7" y1="176.49" x2="854.7" y2="271.97"/><line class="e" x1="894.37" y1="192.41" x2="894.37" y2="287.88"/><line class="e" x1="907.59" y1="197.71" x2="907.59" y2="293.18"/><line class="p" x1="947.27" y1="213.62" x2="947.27" y2="165.89"/><line class="p" x1="960.49" y1="218.93" x2="960.49" y2="171.19"/><line class="p" x1="973.72" y1="224.23" x2="973.72" y2="176.49"/><line class="p" x1="934.04" y1="208.32" x2="934.04" y2="160.58"/><line class="p" x1="986.94" y1="229.54" x2="986.94" y2="181.8"/><line class="d" x1="947.27" y1="165.89" x2="947.27" y2="118.15"/><line class="d" x1="960.49" y1="171.19" x2="960.49" y2="123.45"/><line class="d" x1="973.72" y1="176.49" x2="973.72" y2="128.76"/><line class="d" x1="934.04" y1="160.58" x2="934.04" y2="112.85"/><line class="d" x1="986.94" y1="181.8" x2="986.94" y2="134.06"/><line class="p" x1="1000.16" y1="187.1" x2="920.82" y2="155.28"/><line class="d" x1="1000.16" y1="171.19" x2="920.82" y2="139.37"/><line class="d" x1="1000.16" y1="155.28" x2="920.82" y2="123.45"/><line class="p" x1="1000.16" y1="203.02" x2="920.82" y2="171.19"/><line class="p" x1="1000.16" y1="218.93" x2="920.82" y2="187.1"/><line class="n" x1="973.72" y1="319.7" x2="973.72" y2="367.44"/><line class="n" x1="960.49" y1="314.4" x2="960.49" y2="362.14"/><line class="n" x1="947.27" y1="309.1" x2="947.27" y2="356.83"/><line class="n" x1="986.94" y1="325.01" x2="986.94" y2="372.75"/><line class="n" x1="934.04" y1="303.79" x2="934.04" y2="351.53"/><line class="r" x1="973.72" y1="367.44" x2="973.72" y2="415.18"/><line class="r" x1="960.49" y1="362.14" x2="960.49" y2="409.87"/><line class="r" x1="947.27" y1="356.83" x2="947.27" y2="404.57"/><line class="r" x1="986.94" y1="372.75" x2="986.94" y2="420.48"/><line class="f" x1="1013.39" y1="383.49" x2="1013.39" y2="431.23"/><line class="f" x1="1026.61" y1="388.79" x2="1026.61" y2="436.53"/><line class="f" x1="1039.84" y1="394.1" x2="1039.84" y2="441.84"/><line class="r" x1="934.04" y1="351.53" x2="934.04" y2="399.27"/><line class="n" x1="920.82" y1="346.23" x2="1000.16" y2="378.05"/><line class="r" x1="920.82" y1="362.14" x2="1000.16" y2="393.96"/><line class="r" x1="920.82" y1="378.05" x2="1000.16" y2="409.87"/><line class="n" x1="920.82" y1="330.31" x2="1000.16" y2="362.14"/><line class="n" x1="920.82" y1="314.4" x2="1000.16" y2="346.23"/><line class="t" x1="1000.16" y1="362.14" x2="1039.84" y2="378.05"/><line class="t" x1="1000.16" y1="346.23" x2="1039.84" y2="362.14"/><line class="t" x1="1026.61" y1="388.66" x2="1026.61" y2="340.92"/><line class="t" x1="1013.39" y1="383.35" x2="1013.39" y2="335.62"/><polyline class="t" points="1000.16 378.05 1039.84 393.96 1039.84 346.23"/><line class="u" x1="867.92" y1="86.46" x2="867.92" y2="181.94"/><line class="u" x1="854.7" y1="81.16" x2="854.7" y2="176.63"/><line class="u" x1="841.47" y1="91.77" x2="920.82" y2="123.59"/><line class="u" x1="841.47" y1="107.68" x2="920.82" y2="139.5"/><line class="u" x1="881.15" y1="155.42" x2="841.47" y2="139.5"/><line class="u" x1="881.15" y1="139.5" x2="841.47" y2="123.59"/><line class="u" x1="881.15" y1="171.33" x2="841.47" y2="155.42"/><line class="u" x1="907.59" y1="149.97" x2="907.59" y2="102.24"/><line class="u" x1="894.37" y1="144.67" x2="894.37" y2="96.93"/><line class="u" x1="881.15" y1="139.37" x2="881.15" y2="91.63"/><line class="o" x1="920.82" y1="171.33" x2="881.15" y2="155.42"/><line class="o" x1="920.82" y1="187.24" x2="881.15" y2="171.33"/><line class="o" x1="894.37" y1="144.81" x2="894.37" y2="192.54"/><line class="o" x1="907.59" y1="150.11" x2="907.59" y2="197.85"/><polyline class="o" points="920.82 155.42 881.15 139.5 881.15 187.24"/><line class="i" x1="867.92" y1="372.75" x2="867.92" y2="277.27"/><line class="i" x1="854.7" y1="367.44" x2="854.7" y2="271.97"/><line class="i" x1="841.47" y1="346.23" x2="920.82" y2="378.05"/><line class="i" x1="841.47" y1="330.31" x2="920.82" y2="362.14"/><line class="i" x1="881.15" y1="314.4" x2="841.47" y2="298.49"/><line class="i" x1="881.15" y1="330.31" x2="841.47" y2="314.4"/><line class="i" x1="881.15" y1="298.49" x2="841.47" y2="282.58"/><line class="i" x1="907.59" y1="341.06" x2="907.59" y2="388.79"/><line class="i" x1="894.37" y1="335.75" x2="894.37" y2="383.49"/><line class="i" x1="881.15" y1="330.45" x2="881.15" y2="378.19"/><line class="s" x1="920.82" y1="330.31" x2="881.15" y2="314.4"/><line class="s" x1="920.82" y1="314.4" x2="881.15" y2="298.49"/><line class="s" x1="894.37" y1="335.62" x2="894.37" y2="287.88"/><line class="s" x1="907.59" y1="340.92" x2="907.59" y2="293.18"/><polyline class="s" points="920.82 346.23 881.15 330.31 881.15 282.58"/><line class="g" x1="1053.06" y1="160.72" x2="1053.06" y2="256.19"/><line class="g" x1="1066.29" y1="166.02" x2="1066.29" y2="261.5"/><line class="g" x1="1079.51" y1="187.24" x2="1000.16" y2="155.42"/><line class="g" x1="1079.51" y1="203.15" x2="1000.16" y2="171.33"/><line class="g" x1="1039.84" y1="219.06" x2="1079.51" y2="234.98"/><line class="g" x1="1039.84" y1="203.15" x2="1079.51" y2="219.06"/><line class="g" x1="1039.84" y1="234.98" x2="1079.51" y2="250.89"/><line class="g" x1="1013.39" y1="192.41" x2="1013.39" y2="144.67"/><line class="g" x1="1026.61" y1="197.71" x2="1026.61" y2="149.97"/><line class="g" x1="1039.84" y1="203.02" x2="1039.84" y2="155.28"/><line class="l" x1="1000.16" y1="203.15" x2="1039.84" y2="219.06"/><line class="l" x1="1000.16" y1="219.06" x2="1039.84" y2="234.98"/><line class="l" x1="1026.61" y1="197.85" x2="1026.61" y2="245.58"/><line class="l" x1="1013.39" y1="192.54" x2="1013.39" y2="240.28"/><polyline class="l" points="1000.16 187.24 1039.84 203.15 1039.84 250.89"/><polygon class="j" points="1079.51 457.61 841.47 362.14 841.47 75.72 1079.51 171.19 1079.51 457.61"/><line class="j" x1="841.47" y1="171.19" x2="1079.51" y2="266.66"/><line class="j" x1="841.47" y1="266.66" x2="1079.51" y2="362.14"/><line class="j" x1="920.82" y1="393.96" x2="920.82" y2="107.54"/><line class="j" x1="1000.16" y1="425.79" x2="1000.16" y2="139.37"/><polygon class="ap" points="1022.75 482.6 783.74 386.73 783.74 99.13 1022.75 195 1022.75 482.6"/><path class="z" d="M876.69,272.29h0c-3.67-1.47-6.64-6.24-6.64-10.65h0c0-4.41,2.97-6.8,6.64-5.33h0c3.67,1.47,6.64,6.24,6.64,10.65h0c0,4.41-2.97,6.8-6.64,5.33Z"/><path class="w" d="M863.41,250.98h0c-3.67-1.47-6.64-6.24-6.64-10.65h0c0-4.41,2.97-6.8,6.64-5.33h0c3.67,1.47,6.64,6.24,6.64,10.65h0c0,4.41-2.97,6.8-6.64,5.33Z"/><path class="w" d="M863.41,282.95h0c-3.67-1.47-6.64-6.24-6.64-10.65h0c0-4.41,2.97-6.8,6.64-5.33h0c3.67,1.47,6.64,6.24,6.64,10.65h0c0,4.41-2.97,6.8-6.64,5.33Z"/><path class="ab" d="M830.17,277.61h0c0,4.41-2.97,6.8-6.64,5.33h0c-3.67-1.47-6.64-6.24-6.64-10.65h0c0-4.41,2.97-6.8,6.64-5.33h0c3.67,1.47,6.64,6.24,6.64,10.65Z"/><path class="y" d="M816.89,224.34h0c0,4.41-2.97,6.8-6.64,5.33h0c-3.67-1.47-6.64-6.24-6.64-10.65h0c0-4.41,2.97-6.8,6.64-5.33h0c3.67,1.47,6.64,6.24,6.64,10.65Z"/><path class="ab" d="M843.46,235h0c0,4.41-2.97,6.8-6.64,5.33h0c-3.67-1.47-6.64-6.24-6.64-10.65h0c0-4.41,2.97-6.8,6.64-5.33h0c3.67,1.47,6.64,6.24,6.64,10.65Z"/><path class="ab" d="M843.46,219.02h0c0,4.41-2.97,6.8-6.64,5.33h0c-3.67-1.47-6.64-6.24-6.64-10.65h0c0-4.41,2.97-6.8,6.64-5.33h0c3.67,1.47,6.64,6.24,6.64,10.65Z"/><path class="ac" d="M843.46,203.04h0c0,4.41-2.97,6.8-6.64,5.33h0c-3.67-1.47-6.64-6.24-6.64-10.65h0c0-4.41,2.97-6.8,6.64-5.33h0c3.67,1.47,6.64,6.24,6.64,10.65Z"/><path class="ac" d="M830.17,181.74h0c0,4.41-2.97,6.8-6.64,5.33h0c-3.67-1.47-6.64-6.24-6.64-10.65h0c0-4.41,2.97-6.8,6.64-5.33h0c3.67,1.47,6.64,6.24,6.64,10.65Z"/><path class="ac" d="M856.75,192.4h0c0,4.41-2.97,6.8-6.64,5.33h0c-3.67-1.47-6.64-6.24-6.64-10.65h0c0-4.41,2.97-6.8,6.64-5.33h0c3.67,1.47,6.64,6.24,6.64,10.65Z"/><polygon class="aj" points="965.51 506.73 726.49 410.87 726.49 123.27 965.51 219.13 965.51 506.73"/><path class="z" d="M819.44,328.39h0c-3.67-1.47-6.64-6.24-6.64-10.65h0c0-4.41,2.97-6.8,6.64-5.33h0c3.67,1.47,6.64,6.24,6.64,10.65h0c0,4.41-2.97,6.8-6.64,5.33Z"/><path class="aa" d="M819.44,408.32h0c-3.67-1.47-6.64-6.24-6.64-10.65h0c0-4.41,2.97-6.8,6.64-5.33h0c3.67,1.47,6.64,6.24,6.64,10.65h0c0,4.41-2.97,6.8-6.64,5.33Z"/><path class="x" d="M806.16,243.14h0c-3.67-1.47-6.64-6.24-6.64-10.65h0c0-4.41,2.97-6.8,6.64-5.33h0c3.67,1.47,6.64,6.24,6.64,10.65h0c0,4.41-2.97,6.8-6.64,5.33Z"/><path class="w" d="M806.16,291.09h0c-3.67-1.47-6.64-6.24-6.64-10.65h0c0-4.41,2.97-6.8,6.64-5.33h0c3.67,1.47,6.64,6.24,6.64,10.65h0c0,4.41-2.97,6.8-6.64,5.33Z"/><path class="ad" d="M792.89,365.7h0c-3.67-1.47-6.64-6.24-6.64-10.65h0c0-4.41,2.97-6.8,6.64-5.33h0c3.67,1.47,6.64,6.24,6.64,10.65h0c0,4.41-2.97,6.8-6.64,5.33Z"/><path class="ad" d="M792.89,381.68h0c-3.67-1.47-6.64-6.24-6.64-10.65h0c0-4.41,2.97-6.8,6.64-5.33h0c3.67,1.47,6.64,6.24,6.64,10.65h0c0,4.41-2.97,6.8-6.64,5.33Z"/><path class="ab" d="M786.21,275.11h0c0,4.41-2.97,6.8-6.64,5.33h0c-3.67-1.47-6.64-6.24-6.64-10.65h0c0-4.41,2.97-6.8,6.64-5.33h0c3.67,1.47,6.64,6.24,6.64,10.65Z"/><path class="ab" d="M799.5,312.4h0c0,4.41-2.97,6.8-6.64,5.33h0c-3.67-1.47-6.64-6.24-6.64-10.65h0c0-4.41,2.97-6.8,6.64-5.33h0c3.67,1.47,6.64,6.24,6.64,10.65Z"/><path class="ab" d="M772.93,333.69h0c0,4.41-2.97,6.8-6.64,5.33h0c-3.67-1.47-6.64-6.24-6.64-10.65h0c0-4.41,2.97-6.8,6.64-5.33h0c3.67,1.47,6.64,6.24,6.64,10.65Z"/><path class="ab" d="M799.5,248.48h0c0,4.41-2.97,6.8-6.64,5.33h0c-3.67-1.47-6.64-6.24-6.64-10.65h0c0-4.41,2.97-6.8,6.64-5.33h0c3.67,1.47,6.64,6.24,6.64,10.65Z"/><polygon class="ak" points="908.26 530.87 669.25 435 669.25 147.4 908.26 243.27 908.26 530.87"/><path class="w" d="M762.2,368.51h0c-3.67-1.47-6.64-6.24-6.64-10.65h0c0-4.41,2.97-6.8,6.64-5.33h0c3.67,1.47,6.64,6.24,6.64,10.65h0c0,4.41-2.97,6.8-6.64,5.33Z"/><path class="aa" d="M748.92,411.14h0c-3.67-1.47-6.64-6.24-6.64-10.65h0c0-4.41,2.97-6.8,6.64-5.33h0c3.67,1.47,6.64,6.24,6.64,10.65h0c0,4.41-2.97,6.8-6.64,5.33Z"/><path class="ad" d="M735.64,389.83h0c-3.67-1.47-6.64-6.24-6.64-10.65h0c0-4.41,2.97-6.8,6.64-5.33h0c3.67,1.47,6.64,6.24,6.64,10.65h0c0,4.41-2.97,6.8-6.64,5.33Z"/><path class="ad" d="M709.08,379.18h0c-3.67-1.47-6.64-6.24-6.64-10.65h0c0-4.41,2.97-6.8,6.64-5.33h0c3.67,1.47,6.64,6.24,6.64,10.65h0c0,4.41-2.97,6.8-6.64,5.33Z"/><path class="ad" d="M709.08,395.16h0c-3.67-1.47-6.64-6.24-6.64-10.65h0c0-4.41,2.97-6.8,6.64-5.33h0c3.67,1.47,6.64,6.24,6.64,10.65h0c0,4.41-2.97,6.8-6.64,5.33Z"/><path class="y" d="M702.4,320.54h0c0,4.41-2.97,6.8-6.64,5.33h0c-3.67-1.47-6.64-6.24-6.64-10.65h0c0-4.41,2.97-6.8,6.64-5.33h0c3.67,1.47,6.64,6.24,6.64,10.65Z"/><path class="ab" d="M742.25,336.53h0c0,4.41-2.97,6.8-6.64,5.33h0c-3.67-1.47-6.64-6.24-6.64-10.65h0c0-4.41,2.97-6.8,6.64-5.33h0c3.67,1.47,6.64,6.24,6.64,10.65Z"/><path class="ab" d="M715.68,341.85h0c0,4.41-2.97,6.8-6.64,5.33h0c-3.67-1.47-6.64-6.24-6.64-10.65h0c0-4.41,2.97-6.8,6.64-5.33h0c3.67,1.47,6.64,6.24,6.64,10.65Z"/><path class="y" d="M689.11,347.17h0c0,4.41-2.97,6.8-6.64,5.33h0c-3.67-1.47-6.64-6.24-6.64-10.65h0c0-4.41,2.97-6.8,6.64-5.33h0c3.67,1.47,6.64,6.24,6.64,10.65Z"/><path class="ab" d="M728.97,363.16h0c0,4.41-2.97,6.8-6.64,5.33h0c-3.67-1.47-6.64-6.24-6.64-10.65h0c0-4.41,2.97-6.8,6.64-5.33h0c3.67,1.47,6.64,6.24,6.64,10.65Z"/><polygon class="k" points="851.02 555 612 459.13 612 171.53 851.02 267.4 851.02 555"/><path class="v" d="M665.11,363.93h0c-12.22-4.9-22.13-20.8-22.13-35.51h0c0-14.71,9.91-22.66,22.13-17.75h0c12.22,4.9,22.13,20.8,22.13,35.51h0c0,14.71-9.91,22.66-22.13,17.75Z"/></g></svg>