<svg width='81' height='81' xmlns='http://www.w3.org/2000/svg'>
<rect x="0" y="0" width="9" height="9" fill="rgb(255, 252, 240)" fill-opacity="1.000"/>
<rect x="9" y="0" width="9" height="9" fill="rgb(16, 15, 15)" fill-opacity="1.000"/>
<rect x="18" y="0" width="9" height="9" fill="rgb(255, 252, 240)" fill-opacity="1.000"/>
<rect x="27" y="0" width="9" height="9" fill="rgb(16, 15, 15)" fill-opacity="1.000"/>
<rect x="36" y="0" width="9" height="9" fill="rgb(255, 252, 240)" fill-opacity="1.000"/>
<rect x="45" y="0" width="9" height="9" fill="rgb(16, 15, 15)" fill-opacity="1.000"/>
<rect x="54" y="0" width="9" height="9" fill="rgb(255, 252, 240)" fill-opacity="1.000"/>
<rect x="63" y="0" width="9" height="9" fill="rgb(16, 15, 15)" fill-opacity="1.000"/>
<rect x="72" y="0" width="9" height="9" fill="rgb(255, 252, 240)" fill-opacity="1.000"/>
<rect x="0" y="9" width="9" height="9" fill="rgb(16, 15, 15)" fill-opacity="1.000"/>
<rect x="9" y="9" width="9" height="9" fill="rgb(255, 252, 240)" fill-opacity="1.000"/>
<rect x="18" y="9" width="9" height="9" fill="rgb(16, 15, 15)" fill-opacity="1.000"/>
<rect x="27" y="9" width="9" height="9" fill="rgb(255, 252, 240)" fill-opacity="1.000"/>
<rect x="36" y="9" width="9" height="9" fill="rgb(16, 15, 15)" fill-opacity="1.000"/>
<rect x="45" y="9" width="9" height="9" fill="rgb(255, 252, 240)" fill-opacity="1.000"/>
<rect x="54" y="9" width="9" height="9" fill="rgb(16, 15, 15)" fill-opacity="1.000"/>
<rect x="63" y="9" width="9" height="9" fill="rgb(255, 252, 240)" fill-opacity="1.000"/>
<rect x="72" y="9" width="9" height="9" fill="rgb(16, 15, 15)" fill-opacity="1.000"/>
<rect x="0" y="18" width="9" height="9" fill="rgb(255, 252, 240)" fill-opacity="1.000"/>
<rect x="9" y="18" width="9" height="9" fill="rgb(16, 15, 15)" fill-opacity="1.000"/>
<rect x="18" y="18" width="9" height="9" fill="rgb(255, 252, 240)" fill-opacity="1.000"/>
<rect x="27" y="18" width="9" height="9" fill="rgb(16, 15, 15)" fill-opacity="1.000"/>
<rect x="36" y="18" width="9" height="9" fill="rgb(255, 252, 240)" fill-opacity="1.000"/>
<rect x="45" y="18" width="9" height="9" fill="rgb(16, 15, 15)" fill-opacity="1.000"/>
<rect x="54" y="18" width="9" height="9" fill="rgb(255, 252, 240)" fill-opacity="1.000"/>
<rect x="63" y="18" width="9" height="9" fill="rgb(16, 15, 15)" fill-opacity="1.000"/>
<rect x="72" y="18" width="9" height="9" fill="rgb(255, 252, 240)" fill-opacity="1.000"/>
<rect x="0" y="27" width="9" height="9" fill="rgb(16, 15, 15)" fill-opacity="1.000"/>
<rect x="9" y="27" width="9" height="9" fill="rgb(255, 252, 240)" fill-opacity="1.000"/>
<rect x="18" y="27" width="9" height="9" fill="rgb(16, 15, 15)" fill-opacity="1.000"/>
<rect x="27" y="27" width="9" height="9" fill="rgb(255, 252, 240)" fill-opacity="1.000"/>
<rect x="36" y="27" width="9" height="9" fill="rgb(16, 15, 15)" fill-opacity="1.000"/>
<rect x="45" y="27" width="9" height="9" fill="rgb(255, 252, 240)" fill-opacity="1.000"/>
<rect x="54" y="27" width="9" height="9" fill="rgb(16, 15, 15)" fill-opacity="1.000"/>
<rect x="63" y="27" width="9" height="9" fill="rgb(255, 252, 240)" fill-opacity="1.000"/>
<rect x="72" y="27" width="9" height="9" fill="rgb(16, 15, 15)" fill-opacity="1.000"/>
<rect x="0" y="36" width="9" height="9" fill="rgb(255, 252, 240)" fill-opacity="1.000"/>
<rect x="9" y="36" width="9" height="9" fill="rgb(16, 15, 15)" fill-opacity="1.000"/>
<rect x="18" y="36" width="9" height="9" fill="rgb(255, 252, 240)" fill-opacity="1.000"/>
<rect x="27" y="36" width="9" height="9" fill="rgb(16, 15, 15)" fill-opacity="1.000"/>
<rect x="36" y="36" width="9" height="9" fill="rgb(255, 252, 240)" fill-opacity="1.000"/>
<rect x="45" y="36" width="9" height="9" fill="rgb(16, 15, 15)" fill-opacity="1.000"/>
<rect x="54" y="36" width="9" height="9" fill="rgb(255, 252, 240)" fill-opacity="1.000"/>
<rect x="63" y="36" width="9" height="9" fill="rgb(16, 15, 15)" fill-opacity="1.000"/>
<rect x="72" y="36" width="9" height="9" fill="rgb(255, 252, 240)" fill-opacity="1.000"/>
<rect x="0" y="45" width="9" height="9" fill="rgb(16, 15, 15)" fill-opacity="1.000"/>
<rect x="9" y="45" width="9" height="9" fill="rgb(255, 252, 240)" fill-opacity="1.000"/>
<rect x="18" y="45" width="9" height="9" fill="rgb(16, 15, 15)" fill-opacity="1.000"/>
<rect x="27" y="45" width="9" height="9" fill="rgb(255, 252, 240)" fill-opacity="1.000"/>
<rect x="36" y="45" width="9" height="9" fill="rgb(16, 15, 15)" fill-opacity="1.000"/>
<rect x="45" y="45" width="9" height="9" fill="rgb(255, 252, 240)" fill-opacity="1.000"/>
<rect x="54" y="45" width="9" height="9" fill="rgb(16, 15, 15)" fill-opacity="1.000"/>
<rect x="63" y="45" width="9" height="9" fill="rgb(255, 252, 240)" fill-opacity="1.000"/>
<rect x="72" y="45" width="9" height="9" fill="rgb(16, 15, 15)" fill-opacity="1.000"/>
<rect x="0" y="54" width="9" height="9" fill="rgb(255, 252, 240)" fill-opacity="1.000"/>
<rect x="9" y="54" width="9" height="9" fill="rgb(16, 15, 15)" fill-opacity="1.000"/>
<rect x="18" y="54" width="9" height="9" fill="rgb(255, 252, 240)" fill-opacity="1.000"/>
<rect x="27" y="54" width="9" height="9" fill="rgb(16, 15, 15)" fill-opacity="1.000"/>
<rect x="36" y="54" width="9" height="9" fill="rgb(255, 252, 240)" fill-opacity="1.000"/>
<rect x="45" y="54" width="9" height="9" fill="rgb(16, 15, 15)" fill-opacity="1.000"/>
<rect x="54" y="54" width="9" height="9" fill="rgb(255, 252, 240)" fill-opacity="1.000"/>
<rect x="63" y="54" width="9" height="9" fill="rgb(16, 15, 15)" fill-opacity="1.000"/>
<rect x="72" y="54" width="9" height="9" fill="rgb(255, 252, 240)" fill-opacity="1.000"/>
<rect x="0" y="63" width="9" height="9" fill="rgb(16, 15, 15)" fill-opacity="1.000"/>
<rect x="9" y="63" width="9" height="9" fill="rgb(255, 252, 240)" fill-opacity="1.000"/>
<rect x="18" y="63" width="9" height="9" fill="rgb(16, 15, 15)" fill-opacity="1.000"/>
<rect x="27" y="63" width="9" height="9" fill="rgb(255, 252, 240)" fill-opacity="1.000"/>
<rect x="36" y="63" width="9" height="9" fill="rgb(16, 15, 15)" fill-opacity="1.000"/>
<rect x="45" y="63" width="9" height="9" fill="rgb(255, 252, 240)" fill-opacity="1.000"/>
<rect x="54" y="63" width="9" height="9" fill="rgb(16, 15, 15)" fill-opacity="1.000"/>
<rect x="63" y="63" width="9" height="9" fill="rgb(255, 252, 240)" fill-opacity="1.000"/>
<rect x="72" y="63" width="9" height="9" fill="rgb(16, 15, 15)" fill-opacity="1.000"/>
<rect x="0" y="72" width="9" height="9" fill="rgb(255, 252, 240)" fill-opacity="1.000"/>
<rect x="9" y="72" width="9" height="9" fill="rgb(16, 15, 15)" fill-opacity="1.000"/>
<rect x="18" y="72" width="9" height="9" fill="rgb(255, 252, 240)" fill-opacity="1.000"/>
<rect x="27" y="72" width="9" height="9" fill="rgb(16, 15, 15)" fill-opacity="1.000"/>
<rect x="36" y="72" width="9" height="9" fill="rgb(255, 252, 240)" fill-opacity="1.000"/>
<rect x="45" y="72" width="9" height="9" fill="rgb(16, 15, 15)" fill-opacity="1.000"/>
<rect x="54" y="72" width="9" height="9" fill="rgb(255, 252, 240)" fill-opacity="1.000"/>
<rect x="63" y="72" width="9" height="9" fill="rgb(16, 15, 15)" fill-opacity="1.000"/>
<rect x="72" y="72" width="9" height="9" fill="rgb(255, 252, 240)" fill-opacity="1.000"/>
<rect x="0" y="0" width="9" height="9" fill="rgb(160, 124, 12)" fill-opacity="1.000"/>
<rect x="9" y="0" width="9" height="9" fill="rgb(161, 112, 19)" fill-opacity="1.000"/>
<rect x="18" y="0" width="9" height="9" fill="rgb(161, 96, 27)" fill-opacity="1.000"/>
<rect x="27" y="0" width="9" height="9" fill="rgb(163, 78, 37)" fill-opacity="1.000"/>
<rect x="36" y="0" width="9" height="9" fill="rgb(163, 57, 48)" fill-opacity="1.000"/>
<rect x="45" y="0" width="9" height="9" fill="rgb(162, 59, 69)" fill-opacity="1.000"/>
<rect x="54" y="0" width="9" height="9" fill="rgb(160, 61, 88)" fill-opacity="1.000"/>
<rect x="63" y="0" width="9" height="9" fill="rgb(159, 63, 102)" fill-opacity="1.000"/>
<rect x="72" y="0" width="9" height="9" fill="rgb(158, 65, 114)" fill-opacity="1.000"/>
<rect x="0" y="9" width="9" height="9" fill="rgb(150, 123, 16)" fill-opacity="1.000"/>
<rect x="9" y="9" width="9" height="9" fill="rgb(208, 162, 21)" fill-opacity="1.000"/>
<rect x="18" y="9" width="9" height="9" fill="rgb(208, 141, 32)" fill-opacity="1.000"/>
<rect x="27" y="9" width="9" height="9" fill="rgb(209, 112, 47)" fill-opacity="1.000"/>
<rect x="36" y="9" width="9" height="9" fill="rgb(209, 77, 65)" fill-opacity="1.000"/>
<rect x="45" y="9" width="9" height="9" fill="rgb(208, 84, 100)" fill-opacity="1.000"/>
<rect x="54" y="9" width="9" height="9" fill="rgb(207, 89, 129)" fill-opacity="1.000"/>
<rect x="63" y="9" width="9" height="9" fill="rgb(206, 93, 151)" fill-opacity="1.000"/>
<rect x="72" y="9" width="9" height="9" fill="rgb(156, 80, 119)" fill-opacity="1.000"/>
<rect x="0" y="18" width="9" height="9" fill="rgb(136, 122, 21)" fill-opacity="1.000"/>
<rect x="9" y="18" width="9" height="9" fill="rgb(190, 160, 30)" fill-opacity="1.000"/>
<rect x="18" y="18" width="9" height="9" fill="rgb(208, 162, 21)" fill-opacity="0.667"/>
<rect x="27" y="18" width="9" height="9" fill="rgb(208, 127, 39)" fill-opacity="0.667"/>
<rect x="36" y="18" width="9" height="9" fill="rgb(209, 77, 65)" fill-opacity="0.667"/>
<rect x="45" y="18" width="9" height="9" fill="rgb(207, 86, 116)" fill-opacity="0.667"/>
<rect x="54" y="18" width="9" height="9" fill="rgb(206, 93, 151)" fill-opacity="0.667"/>
<rect x="63" y="18" width="9" height="9" fill="rgb(218, 133, 173)" fill-opacity="1.000"/>
<rect x="72" y="18" width="9" height="9" fill="rgb(154, 98, 124)" fill-opacity="1.000"/>
<rect x="0" y="27" width="9" height="9" fill="rgb(120, 120, 28)" fill-opacity="1.000"/>
<rect x="9" y="27" width="9" height="9" fill="rgb(165, 157, 42)" fill-opacity="1.000"/>
<rect x="18" y="27" width="9" height="9" fill="rgb(178, 159, 36)" fill-opacity="0.667"/>
<rect x="27" y="27" width="9" height="9" fill="rgb(208, 162, 21)" fill-opacity="0.333"/>
<rect x="36" y="27" width="9" height="9" fill="rgb(209, 77, 65)" fill-opacity="0.333"/>
<rect x="45" y="27" width="9" height="9" fill="rgb(206, 93, 151)" fill-opacity="0.333"/>
<rect x="54" y="27" width="9" height="9" fill="rgb(226, 158, 187)" fill-opacity="0.667"/>
<rect x="63" y="27" width="9" height="9" fill="rgb(235, 187, 204)" fill-opacity="1.000"/>
<rect x="72" y="27" width="9" height="9" fill="rgb(151, 120, 131)" fill-opacity="1.000"/>
<rect x="0" y="36" width="9" height="9" fill="rgb(102, 119, 34)" fill-opacity="1.000"/>
<rect x="9" y="36" width="9" height="9" fill="rgb(135, 154, 57)" fill-opacity="1.000"/>
<rect x="18" y="36" width="9" height="9" fill="rgb(135, 154, 57)" fill-opacity="0.667"/>
<rect x="27" y="36" width="9" height="9" fill="rgb(135, 154, 57)" fill-opacity="0.333"/>
<rect x="36" y="36" width="9" height="9" fill="rgb(255, 252, 240)" fill-opacity="0.000"/>
<rect x="45" y="36" width="9" height="9" fill="rgb(255, 252, 240)" fill-opacity="0.333"/>
<rect x="54" y="36" width="9" height="9" fill="rgb(255, 252, 240)" fill-opacity="0.667"/>
<rect x="63" y="36" width="9" height="9" fill="rgb(255, 252, 240)" fill-opacity="1.000"/>
<rect x="72" y="36" width="9" height="9" fill="rgb(147, 145, 139)" fill-opacity="1.000"/>
<rect x="0" y="45" width="9" height="9" fill="rgb(83, 122, 62)" fill-opacity="1.000"/>
<rect x="9" y="45" width="9" height="9" fill="rgb(103, 160, 99)" fill-opacity="1.000"/>
<rect x="18" y="45" width="9" height="9" fill="rgb(90, 163, 117)" fill-opacity="0.667"/>
<rect x="27" y="45" width="9" height="9" fill="rgb(58, 169, 159)" fill-opacity="0.333"/>
<rect x="36" y="45" width="9" height="9" fill="rgb(67, 133, 190)" fill-opacity="0.333"/>
<rect x="45" y="45" width="9" height="9" fill="rgb(139, 126, 200)" fill-opacity="0.333"/>
<rect x="54" y="45" width="9" height="9" fill="rgb(187, 178, 216)" fill-opacity="0.667"/>
<rect x="63" y="45" width="9" height="9" fill="rgb(207, 200, 224)" fill-opacity="1.000"/>
<rect x="72" y="45" width="9" height="9" fill="rgb(134, 127, 144)" fill-opacity="1.000"/>
<rect x="0" y="54" width="9" height="9" fill="rgb(67, 125, 85)" fill-opacity="1.000"/>
<rect x="9" y="54" width="9" height="9" fill="rgb(77, 165, 133)" fill-opacity="1.000"/>
<rect x="18" y="54" width="9" height="9" fill="rgb(58, 169, 159)" fill-opacity="0.667"/>
<rect x="27" y="54" width="9" height="9" fill="rgb(62, 154, 172)" fill-opacity="0.667"/>
<rect x="36" y="54" width="9" height="9" fill="rgb(67, 133, 190)" fill-opacity="0.667"/>
<rect x="45" y="54" width="9" height="9" fill="rgb(110, 129, 196)" fill-opacity="0.667"/>
<rect x="54" y="54" width="9" height="9" fill="rgb(139, 126, 200)" fill-opacity="0.667"/>
<rect x="63" y="54" width="9" height="9" fill="rgb(168, 158, 210)" fill-opacity="1.000"/>
<rect x="72" y="54" width="9" height="9" fill="rgb(122, 112, 148)" fill-opacity="1.000"/>
<rect x="0" y="63" width="9" height="9" fill="rgb(53, 126, 105)" fill-opacity="1.000"/>
<rect x="9" y="63" width="9" height="9" fill="rgb(58, 169, 159)" fill-opacity="1.000"/>
<rect x="18" y="63" width="9" height="9" fill="rgb(60, 160, 167)" fill-opacity="1.000"/>
<rect x="27" y="63" width="9" height="9" fill="rgb(63, 148, 177)" fill-opacity="1.000"/>
<rect x="36" y="63" width="9" height="9" fill="rgb(67, 133, 190)" fill-opacity="1.000"/>
<rect x="45" y="63" width="9" height="9" fill="rgb(96, 130, 194)" fill-opacity="1.000"/>
<rect x="54" y="63" width="9" height="9" fill="rgb(121, 128, 197)" fill-opacity="1.000"/>
<rect x="63" y="63" width="9" height="9" fill="rgb(139, 126, 200)" fill-opacity="1.000"/>
<rect x="72" y="63" width="9" height="9" fill="rgb(111, 99, 151)" fill-opacity="1.000"/>
<rect x="0" y="72" width="9" height="9" fill="rgb(42, 128, 121)" fill-opacity="1.000"/>
<rect x="9" y="72" width="9" height="9" fill="rgb(43, 123, 126)" fill-opacity="1.000"/>
<rect x="18" y="72" width="9" height="9" fill="rgb(44, 117, 133)" fill-opacity="1.000"/>
<rect x="27" y="72" width="9" height="9" fill="rgb(45, 108, 141)" fill-opacity="1.000"/>
<rect x="36" y="72" width="9" height="9" fill="rgb(47, 100, 150)" fill-opacity="1.000"/>
<rect x="45" y="72" width="9" height="9" fill="rgb(64, 96, 152)" fill-opacity="1.000"/>
<rect x="54" y="72" width="9" height="9" fill="rgb(80, 93, 153)" fill-opacity="1.000"/>
<rect x="63" y="72" width="9" height="9" fill="rgb(93, 90, 153)" fill-opacity="1.000"/>
<rect x="72" y="72" width="9" height="9" fill="rgb(103, 88, 154)" fill-opacity="1.000"/>
</svg>
