<svg width="48" height="48" viewBox="0 0 48 48" fill="none" xmlns="http://www.w3.org/2000/svg">
<g clip-path="url(#clip0_2295_69662)">
<rect width="48" height="48" fill="#FFFCF0"/>
<path d="M32 16H24V24H32V16Z" fill="#100F0F"/>
<path d="M24 24H16V32H24V24Z" fill="#100F0F"/>
<g clip-path="url(#clip1_2295_69662)">
<path d="M16 0H0V16H16V0Z" fill="#D0A215"/>
<path d="M32 0H16V16H32V0Z" fill="#D14D41"/>
<path d="M48 0H32V16H48V0Z" fill="#CE5D97"/>
<path d="M16 16H0V32H16V16Z" fill="#879A39"/>
<path d="M48 16H32V32H48V16Z" fill="#FFFCF0"/>
<path d="M16 32H0V48H16V32Z" fill="#3AA99F"/>
<path d="M32 32H16V48H32V32Z" fill="#4385BE"/>
<path d="M48 32H32V48H48V32Z" fill="#8B7EC8"/>
</g>
</g>
<defs>
<clipPath id="clip0_2295_69662">
<rect width="48" height="48" fill="white"/>
</clipPath>
<clipPath id="clip1_2295_69662">
<rect width="48" height="48" fill="white"/>
</clipPath>
</defs>
</svg>
