<?xml version="1.0" encoding="UTF-8"?><svg xmlns="http://www.w3.org/2000/svg" viewBox="0 0 1200 675"><defs><style>.k,.l{fill:none;}.m{fill:#1f2328;}.n{fill:#7a0000;}.o{fill:#ffd400;}.p{fill:#f0f;}.q{fill:#30363d;}.r{fill:#00aeef;}.s,.t{fill:#fff;}.s,.l,.u,.v{stroke-miterlimit:10;stroke-width:2px;}.s,.u,.v{stroke:#3d444d;}.w{fill:#9199a1;}.x{fill:green;}.y{fill:#3d444d;}.l{stroke:#f0883e;}.z{fill:#413500;}.aa{fill:#484f58;}.ab{fill:#0067c0;}.ac{fill:#2f353d;}.ad{fill:#6a0dad;}.ae{fill:red;}.af{fill:#001f41;}.ag,.v{fill:#300352;}.ah{fill:#f0f6fc;}.ai{fill:#003d00;}.aj{fill:#c9d1d9;}.ak{fill:#f0883e;}.al{fill:#003a52;}.am{fill:#670067;}</style></defs><g id="a"><rect width="1200" height="675"/></g><g id="b"><path class="ac" d="M41.07,631.42c0-3.63,2.8-6.43,6.35-6.43s6.35,2.8,6.35,6.43-2.8,6.43-6.35,6.43-6.35-2.8-6.35-6.43ZM52.53,631.42c0-2.95-2.24-5.29-5.11-5.29s-5.11,2.33-5.11,5.29,2.24,5.29,5.11,5.29,5.11-2.33,5.11-5.29ZM48.98,630.27c-.21-.64-.68-1.05-1.41-1.05-1.1,0-1.75.86-1.75,2.19s.64,2.19,1.75,2.19c.73,0,1.25-.39,1.41-.98h1.28c-.2,1.28-1.3,2.19-2.7,2.19-1.85,0-3.05-1.29-3.05-3.4s1.2-3.4,3.05-3.4c1.39,0,2.47.93,2.7,2.26h-1.28Z"/><path class="ac" d="M76.97,622.61c2.96,0,5,1.9,5,4.66,0,1.72-.73,3.04-3.36,6.07l-4.23,4.89v.19h7.88v1.45h-10.24v-1.02l5.8-6.77c2.07-2.45,2.55-3.35,2.55-4.78,0-1.99-1.35-3.28-3.43-3.28s-3.41,1.39-3.41,3.55v.07h-1.58v-.07c0-2.87,2.12-4.96,5.03-4.96Z"/><path class="ac" d="M86.48,631.42c0-5.72,1.93-8.85,5.46-8.85s5.46,3.13,5.46,8.85-1.93,8.85-5.46,8.85-5.46-3.13-5.46-8.85ZM88.22,633.93l7.15-6.54c-.57-2.25-1.72-3.41-3.43-3.41-2.53,0-3.86,2.55-3.86,7.44,0,.91.05,1.76.14,2.51ZM95.79,631.42c0-.94-.05-1.78-.14-2.54l-7.14,6.62c.57,2.21,1.72,3.36,3.42,3.36,2.53,0,3.86-2.55,3.86-7.44Z"/><path class="ac" d="M106.64,622.61c2.96,0,5,1.9,5,4.66,0,1.72-.73,3.04-3.36,6.07l-4.23,4.89v.19h7.88v1.45h-10.24v-1.02l5.8-6.77c2.07-2.45,2.55-3.35,2.55-4.78,0-1.99-1.35-3.28-3.43-3.28s-3.41,1.39-3.41,3.55v.07h-1.58v-.07c0-2.87,2.12-4.96,5.03-4.96Z"/><path class="ac" d="M116.09,635.5h1.54c.19,1.95,1.82,3.3,3.95,3.3,2.32,0,3.86-1.68,3.86-4.18s-1.56-4.25-3.86-4.25c-1.63,0-3,.76-3.69,2.04h-1.49l.88-9.45h8.84v1.44h-7.58l-.5,5.98h.18c.88-.98,2.05-1.48,3.5-1.48,3.13,0,5.32,2.34,5.32,5.68s-2.26,5.62-5.59,5.62c-3,0-5.14-1.89-5.34-4.71Z"/><path class="ac" d="M146.64,639.87v-16.91h1.61v8.74h.14l7.18-8.74h2l-6.41,7.48,7.1,9.43h-2.07l-6.09-8.2-1.85,2.17v6.04h-1.61Z"/><path class="ac" d="M160.76,634.5v-1.88c0-3.4,2.09-5.58,5.34-5.58s5.34,2.18,5.34,5.58v1.88c0,3.4-2.09,5.58-5.34,5.58s-5.34-2.18-5.34-5.58ZM162.3,632.83v1.48c0,2.73,1.46,4.41,3.81,4.41s3.81-1.68,3.81-4.41v-1.48c0-2.73-1.46-4.41-3.81-4.41s-3.81,1.68-3.81,4.41Z"/><path class="ac" d="M175.95,622.22h1.46v7.3h.15c.69-1.59,2.17-2.48,4.12-2.48,2.75,0,4.24,1.63,4.24,4.63v8.2h-1.54v-7.82c0-2.47-1-3.63-3.12-3.63-2.26,0-3.8,1.61-3.8,3.95v7.5h-1.54v-17.65Z"/><path class="ac" d="M200.97,636.75c-.42,2.02-2.34,3.33-4.89,3.33-3.4,0-5.37-2.1-5.37-5.7v-1.84c0-3.33,2.06-5.51,5.19-5.51s5.12,2.16,5.12,5.93v1h-8.78v.43c0,2.64,1.49,4.31,3.83,4.31,1.72,0,2.98-.73,3.36-1.96h1.52ZM192.25,632.7h7.22c0-2.68-1.34-4.3-3.56-4.3s-3.66,1.61-3.66,4.3Z"/><path class="ac" d="M205.62,627.25h1.46v2.27h.15c.69-1.59,2.17-2.48,4.12-2.48,2.75,0,4.24,1.63,4.24,4.63v8.2h-1.54v-7.82c0-2.47-1-3.63-3.12-3.63-2.26,0-3.8,1.61-3.8,3.95v7.5h-1.54v-12.62Z"/><path class="ac" d="M232.87,633.06v-1.36h14.84v1.36h-14.84Z"/><path class="ac" d="M265.45,639.87h-1.5v-16.91h1.89l4.07,10.88h.13l4.04-10.88h1.9v16.91h-1.5v-13.79h-.12l-3.7,9.82h-1.38l-3.7-9.82h-.12v13.79Z"/><path class="ac" d="M284,639.87v-15.46h-5.2v-1.45h12v1.45h-5.2v15.46h-1.59Z"/><path class="ac" d="M300.16,622.96c3.18,0,5.3,2.11,5.3,5.26s-2.12,5.26-5.3,5.26h-3.81v6.39h-1.61v-16.91h5.41ZM296.35,632.05h3.42c2.57,0,4.05-1.41,4.05-3.83s-1.49-3.83-4.05-3.83h-3.42v7.66Z"/><path class="ac" d="M321.88,633.06v-1.36h14.84v1.36h-14.84Z"/><path class="ac" d="M354.17,639.87v-1.24h4.44v-10.14h-4.46v-1.24h6v11.38h4.32v1.24h-10.3ZM357.75,622.46c0-.8.66-1.45,1.45-1.45s1.45.66,1.45,1.45-.66,1.45-1.45,1.45-1.45-.66-1.45-1.45Z"/><path class="ac" d="M379.79,639.87h-1.44v-8.71c0-1.82-.61-2.74-1.79-2.74-1.24,0-1.99,1.12-1.99,3v8.45h-1.44v-8.72c0-1.8-.61-2.73-1.8-2.73-1.27,0-2.04,1.14-2.04,3v8.45h-1.44v-12.62h1.39v1.69h.16c.33-1.17,1.25-1.9,2.41-1.9s2.06.7,2.33,1.9h.16c.34-1.15,1.41-1.9,2.71-1.9,1.84,0,2.78,1.28,2.78,3.77v9.06Z"/><path class="ac" d="M392.29,627.25h1.95l-4.99,4.89,5.34,7.73h-1.85l-4.57-6.68-1.95,1.9v4.78h-1.54v-17.65h1.54v10.97h.14l5.93-5.94Z"/><path class="ac" d="M398.14,634.5v-1.88c0-3.4,2.09-5.58,5.34-5.58s5.34,2.18,5.34,5.58v1.88c0,3.4-2.09,5.58-5.34,5.58s-5.34-2.18-5.34-5.58ZM399.67,632.83v1.48c0,2.73,1.46,4.41,3.81,4.41s3.81-1.68,3.81-4.41v-1.48c0-2.73-1.46-4.41-3.81-4.41s-3.81,1.68-3.81,4.41Z"/><path class="ac" d="M413.32,622.22h1.46v7.3h.15c.69-1.59,2.17-2.48,4.12-2.48,2.75,0,4.24,1.63,4.24,4.63v8.2h-1.54v-7.82c0-2.47-1-3.63-3.12-3.63-2.26,0-3.8,1.61-3.8,3.95v7.5h-1.54v-17.65Z"/><path class="ac" d="M438.34,636.75c-.42,2.02-2.34,3.33-4.89,3.33-3.4,0-5.37-2.1-5.37-5.7v-1.84c0-3.33,2.06-5.51,5.19-5.51s5.12,2.16,5.12,5.93v1h-8.78v.43c0,2.64,1.49,4.31,3.83,4.31,1.72,0,2.98-.73,3.36-1.96h1.52ZM429.62,632.7h7.22c0-2.68-1.34-4.3-3.56-4.3s-3.66,1.61-3.66,4.3Z"/><path class="ac" d="M443,627.25h1.46v2.27h.15c.69-1.59,2.17-2.48,4.12-2.48,2.75,0,4.24,1.63,4.24,4.63v8.2h-1.54v-7.82c0-2.47-1-3.63-3.12-3.63-2.26,0-3.8,1.61-3.8,3.95v7.5h-1.54v-12.62Z"/><path class="ac" d="M457.68,636.31c0-2.21,1.58-3.54,4.37-3.67l3.66-.16v-1.2c0-1.82-1.04-2.8-2.98-2.8-1.59,0-2.7.68-3.05,1.9h-1.52c.23-1.89,2.13-3.23,4.57-3.23,2.86,0,4.52,1.5,4.52,4.07v8.67h-1.48v-1.99h-.16c-.6,1.42-1.99,2.2-3.9,2.2-2.43,0-4.03-1.5-4.03-3.79ZM465.71,635.51v-1.76l-3.55.15c-1.89.08-2.89.93-2.89,2.4s1.08,2.43,2.82,2.43c2.04,0,3.62-1.41,3.62-3.22Z"/><path class="ac" d="M482.65,639.87h-1.46v-2.27h-.15c-.69,1.59-2.17,2.48-4.12,2.48-2.75,0-4.24-1.63-4.24-4.63v-8.2h1.54v7.82c0,2.47,1,3.63,3.12,3.63,2.26,0,3.8-1.61,3.8-3.95v-7.5h1.54v12.62Z"/><path class="ac" d="M492.57,627.04c2.47,0,4.22,1.28,4.49,3.27h-1.51c-.27-1.23-1.42-1.99-3.02-1.99-1.76,0-2.88.84-2.88,2.16,0,1.1.69,1.71,2.41,2.11l1.71.4c2.43.57,3.53,1.64,3.53,3.42,0,2.23-1.89,3.68-4.76,3.68s-4.59-1.3-4.83-3.38h1.59c.33,1.3,1.55,2.06,3.3,2.06,1.89,0,3.09-.89,3.09-2.27,0-1.15-.67-1.76-2.39-2.17l-1.86-.45c-2.25-.53-3.35-1.63-3.35-3.35,0-2.07,1.82-3.49,4.48-3.49Z"/><path class="ac" d="M512.52,636.75c-.42,2.02-2.34,3.33-4.89,3.33-3.4,0-5.37-2.1-5.37-5.7v-1.84c0-3.33,2.06-5.51,5.19-5.51s5.12,2.16,5.12,5.93v1h-8.78v.43c0,2.64,1.49,4.31,3.83,4.31,1.72,0,2.98-.73,3.36-1.96h1.52ZM503.8,632.7h7.22c0-2.68-1.34-4.3-3.56-4.3s-3.66,1.61-3.66,4.3Z"/><path class="ac" d="M521.57,638.63h4.01v1.24h-8.14v-1.24h2.6v-10.14h-2.86v-1.24h4.36v3.21h.16c.43-2.25,2.1-3.53,4.56-3.53.73,0,1.44.11,1.84.28v1.68c-.59-.21-1.39-.35-2.07-.35-2.72,0-4.45,2.2-4.45,5.66v4.43Z"/><path class="ac" d="M535.06,637.93c0-1.07.88-1.95,1.95-1.95s1.95.88,1.95,1.95-.88,1.95-1.95,1.95-1.95-.88-1.95-1.95Z"/><path class="ac" d="M555.4,630.96c-.26-1.5-1.65-2.54-3.38-2.54-2.4,0-3.74,1.61-3.74,4.5v1.28c0,2.89,1.34,4.5,3.74,4.5,1.72,0,3.12-1.04,3.38-2.54h1.52c-.33,2.37-2.25,3.93-4.86,3.93-3.32,0-5.31-2.11-5.31-5.62v-1.79c0-3.52,1.99-5.62,5.31-5.62,2.61,0,4.54,1.56,4.86,3.93h-1.52Z"/><path class="ac" d="M561.33,634.5v-1.88c0-3.4,2.09-5.58,5.34-5.58s5.34,2.18,5.34,5.58v1.88c0,3.4-2.09,5.58-5.34,5.58s-5.34-2.18-5.34-5.58ZM562.87,632.83v1.48c0,2.73,1.46,4.41,3.81,4.41s3.81-1.68,3.81-4.41v-1.48c0-2.73-1.46-4.41-3.81-4.41s-3.81,1.68-3.81,4.41Z"/><path class="ac" d="M587.49,639.87h-1.44v-8.71c0-1.82-.61-2.74-1.79-2.74-1.24,0-1.99,1.12-1.99,3v8.45h-1.44v-8.72c0-1.8-.61-2.73-1.8-2.73-1.27,0-2.04,1.14-2.04,3v8.45h-1.44v-12.62h1.39v1.69h.16c.33-1.17,1.25-1.9,2.41-1.9s2.06.7,2.33,1.9h.16c.34-1.15,1.41-1.9,2.71-1.9,1.84,0,2.78,1.28,2.78,3.77v9.06Z"/><path class="ac" d="M591.45,641.03l8.33-19.23h1.46l-8.33,19.23h-1.46Z"/><path class="ac" d="M617.16,639.87h-1.44v-8.71c0-1.82-.61-2.74-1.79-2.74-1.24,0-1.99,1.12-1.99,3v8.45h-1.44v-8.72c0-1.8-.61-2.73-1.8-2.73-1.27,0-2.04,1.14-2.04,3v8.45h-1.44v-12.62h1.39v1.69h.16c.33-1.17,1.25-1.9,2.41-1.9s2.06.7,2.33,1.9h.16c.34-1.15,1.41-1.9,2.71-1.9,1.84,0,2.78,1.28,2.78,3.77v9.06Z"/><path class="ac" d="M625.57,623.97v3.28h5.29v1.3h-5.29v7.63c0,1.56,1.08,2.4,3.08,2.4.87,0,1.79-.04,2.2-.09v1.31c-.38.07-1.56.14-2.29.14-3.04,0-4.54-1.23-4.54-3.71v-7.68h-3.4v-1.3h3.4v-3.28h1.54Z"/><path class="ac" d="M646.34,632.35v2.43c0,3.15-1.99,5.31-4.92,5.31-1.83,0-3.21-.75-3.81-2.07h-.21v6.14h-1.54v-16.9h1.46v1.82h.21c.74-1.32,2.09-2.03,3.88-2.03,2.93,0,4.92,2.16,4.92,5.31ZM637.36,632.72v1.69c0,2.61,1.46,4.3,3.71,4.3s3.73-1.7,3.73-4.3v-1.69c0-2.6-1.46-4.3-3.73-4.3s-3.71,1.69-3.71,4.3Z"/><path class="ak" d="M1028.09,485.96h1.63l-5.58,16.91h-1.57l-5.58-16.91h1.63l4.72,14.81h.02l4.72-14.81Z"/><path class="ak" d="M1043.38,499.75c-.42,2.02-2.34,3.33-4.89,3.33-3.4,0-5.37-2.1-5.37-5.7v-1.84c0-3.33,2.06-5.51,5.19-5.51s5.12,2.16,5.12,5.93v1h-8.78v.43c0,2.64,1.49,4.31,3.83,4.31,1.72,0,2.98-.73,3.36-1.96h1.52ZM1034.66,495.7h7.22c0-2.68-1.34-4.3-3.56-4.3s-3.66,1.61-3.66,4.3Z"/><path class="ak" d="M1052.43,501.63h4.01v1.24h-8.14v-1.24h2.6v-10.14h-2.86v-1.24h4.36v3.21h.16c.43-2.25,2.1-3.53,4.56-3.53.73,0,1.44.11,1.84.28v1.68c-.59-.21-1.39-.35-2.07-.35-2.72,0-4.45,2.2-4.45,5.66v4.43Z"/><path class="ak" d="M1067.42,486.97v3.28h5.29v1.3h-5.29v7.63c0,1.56,1.08,2.4,3.08,2.4.87,0,1.79-.04,2.2-.09v1.31c-.38.07-1.56.14-2.29.14-3.04,0-4.54-1.23-4.54-3.71v-7.68h-3.4v-1.3h3.4v-3.28h1.54Z"/><path class="ak" d="M1087.89,499.75c-.42,2.02-2.34,3.33-4.89,3.33-3.4,0-5.37-2.1-5.37-5.7v-1.84c0-3.33,2.06-5.51,5.19-5.51s5.12,2.16,5.12,5.93v1h-8.78v.43c0,2.64,1.49,4.31,3.83,4.31,1.72,0,2.98-.73,3.36-1.96h1.52ZM1079.17,495.7h7.22c0-2.68-1.34-4.3-3.56-4.3s-3.66,1.61-3.66,4.3Z"/><path class="ak" d="M1097.45,497.71l-3.45,5.16h-1.76l4.45-6.35-4.49-6.27h1.85l3.43,5.04h.14l3.41-5.04h1.77l-4.43,6.21,4.48,6.41h-1.84l-3.43-5.16h-.14Z"/><rect class="k" x="236.67" y="525" width="333.33" height="40"/><path class="w" d="M278.54,532.57h-.09l-8.95,6.23v-4.24l9-6.47h4.12v33.82h-4.08v-29.34Z"/><path class="w" d="M301.89,546.3h9.98v-9.7h3.8v9.7h10.01v3.8h-10.01v9.7h-3.8v-9.7h-9.98v-3.8Z"/><path class="w" d="M366.57,544.38v.05c0,11.39-4.85,18.05-13.12,18.05-5.74,0-10.03-3.28-11.16-8.2l-.07-.3h4.29l.09.26c1.01,2.79,3.42,4.52,6.89,4.52,6.3,0,8.79-6.12,8.98-13.22.02-.23.02-.47.02-.73h-.09c-1.36,3-4.83,5.44-9.42,5.44-6.45,0-11.23-4.76-11.23-11.18v-.05c0-6.66,5.06-11.48,11.98-11.48,6.23,0,12.84,4.31,12.84,16.85ZM361.49,539.08v-.02c0-4.34-3.38-7.78-7.71-7.78s-7.73,3.38-7.73,7.64v.05c0,4.41,3.21,7.57,7.66,7.57s7.78-3.14,7.78-7.45Z"/><path class="w" d="M383.96,549.09c0-8.34,2.09-15.19,6.66-21h3.42c-3.38,3.91-5.93,13.17-5.93,21s2.55,17.11,5.93,21.02h-3.42c-4.57-5.79-6.66-12.68-6.66-21.02Z"/><path class="w" d="M407.96,553.24l-.02-.28h4.05l.02.23c.35,3.33,3.4,5.62,7.9,5.62s7.45-2.48,7.45-6.07v-.05c0-4.15-2.98-6.47-7.71-6.47h-4.24v-3.56h4.05c4.03,0,6.84-2.48,6.84-5.86v-.05c0-3.54-2.32-5.58-6.45-5.58s-6.82,2.11-7.17,5.53l-.02.23h-4.05l.02-.23c.54-5.51,4.9-9.19,11.23-9.19s10.69,3.59,10.69,8.72v.05c0,4.17-2.95,7.03-7.17,7.92v.09c4.92.42,8.27,3.49,8.27,8.3v.05c0,5.65-4.97,9.82-11.74,9.82s-11.51-3.89-11.95-9.23Z"/><path class="w" d="M450.85,536.69l8.65,8.91,8.65-8.91,2.58,2.58-8.7,8.93,8.7,8.95-2.58,2.58-8.65-8.91-8.65,8.91-2.58-2.58,8.7-8.95-8.7-8.93,2.58-2.58Z"/><path class="w" d="M486.99,553.24l-.02-.28h4.05l.02.23c.35,3.33,3.4,5.62,7.9,5.62s7.45-2.48,7.45-6.07v-.05c0-4.15-2.98-6.47-7.71-6.47h-4.24v-3.56h4.05c4.03,0,6.84-2.48,6.84-5.86v-.05c0-3.54-2.32-5.58-6.45-5.58s-6.82,2.11-7.17,5.53l-.02.23h-4.05l.02-.23c.54-5.51,4.9-9.19,11.23-9.19s10.69,3.59,10.69,8.72v.05c0,4.17-2.95,7.03-7.17,7.92v.09c4.92.42,8.27,3.49,8.27,8.3v.05c0,5.65-4.97,9.82-11.74,9.82s-11.51-3.89-11.95-9.23Z"/><path class="w" d="M524.96,570.11c3.38-3.91,5.93-13.2,5.93-21.02s-2.55-17.09-5.93-21h3.42c4.57,5.81,6.66,12.66,6.66,21s-2.09,15.23-6.66,21.02h-3.42Z"/><rect class="k" x="630" y="525" width="333.33" height="40"/><path class="w" d="M688,544.38v.05c0,11.39-4.85,18.05-13.12,18.05-5.74,0-10.03-3.28-11.16-8.2l-.07-.3h4.29l.09.26c1.01,2.79,3.42,4.52,6.89,4.52,6.3,0,8.79-6.12,8.98-13.22.02-.23.02-.47.02-.73h-.09c-1.36,3-4.83,5.44-9.42,5.44-6.45,0-11.23-4.76-11.23-11.18v-.05c0-6.66,5.06-11.48,11.98-11.48,6.23,0,12.84,4.31,12.84,16.85ZM682.92,539.08v-.02c0-4.34-3.38-7.78-7.71-7.78s-7.73,3.38-7.73,7.64v.05c0,4.41,3.21,7.57,7.66,7.57s7.78-3.14,7.78-7.45Z"/><path class="w" d="M705.39,549.09c0-8.34,2.09-15.19,6.66-21h3.42c-3.38,3.91-5.93,13.17-5.93,21s2.55,17.11,5.93,21.02h-3.42c-4.57-5.79-6.66-12.68-6.66-21.02Z"/><path class="w" d="M729.39,553.24l-.02-.28h4.05l.02.23c.35,3.33,3.4,5.62,7.9,5.62s7.45-2.48,7.45-6.07v-.05c0-4.15-2.98-6.47-7.71-6.47h-4.24v-3.56h4.05c4.03,0,6.84-2.48,6.84-5.86v-.05c0-3.54-2.32-5.58-6.45-5.58s-6.82,2.11-7.17,5.53l-.02.23h-4.05l.02-.23c.54-5.51,4.9-9.19,11.23-9.19s10.69,3.59,10.69,8.72v.05c0,4.17-2.95,7.03-7.17,7.92v.09c4.92.42,8.27,3.49,8.27,8.3v.05c0,5.65-4.97,9.82-11.74,9.82s-11.51-3.89-11.95-9.23Z"/><path class="w" d="M772.28,536.69l8.65,8.91,8.65-8.91,2.58,2.58-8.7,8.93,8.7,8.95-2.58,2.58-8.65-8.91-8.65,8.91-2.58-2.58,8.7-8.95-8.7-8.93,2.58-2.58Z"/><path class="w" d="M808.42,553.24l-.02-.28h4.05l.02.23c.35,3.33,3.4,5.62,7.9,5.62s7.45-2.48,7.45-6.07v-.05c0-4.15-2.98-6.47-7.71-6.47h-4.24v-3.56h4.05c4.03,0,6.84-2.48,6.84-5.86v-.05c0-3.54-2.32-5.58-6.45-5.58s-6.82,2.11-7.17,5.53l-.02.23h-4.05l.02-.23c.54-5.51,4.9-9.19,11.23-9.19s10.69,3.59,10.69,8.72v.05c0,4.17-2.95,7.03-7.17,7.92v.09c4.92.42,8.27,3.49,8.27,8.3v.05c0,5.65-4.97,9.82-11.74,9.82s-11.51-3.89-11.95-9.23Z"/><path class="w" d="M846.39,570.11c3.38-3.91,5.93-13.2,5.93-21.02s-2.55-17.09-5.93-21h3.42c4.57,5.81,6.66,12.66,6.66,21s-2.09,15.23-6.66,21.02h-3.42Z"/><path class="w" d="M874.35,546.3h9.98v-9.7h3.8v9.7h10.01v3.8h-10.01v9.7h-3.8v-9.7h-9.98v-3.8Z"/><path class="w" d="M922.91,532.57h-.09l-8.95,6.23v-4.24l9-6.47h4.12v33.82h-4.08v-29.34Z"/><rect class="k" x="236.67" y="80" width="333.33" height="40"/><path class="ah" d="M338.86,108.1l-.02-.33h4.22l.05.33c.49,3.4,3.77,5.48,8.67,5.48s7.95-2.2,7.95-5.7v-.02c0-2.98-1.95-4.64-6.59-5.67l-3.75-.82c-6.61-1.45-9.7-4.43-9.7-9.38v-.02c.02-5.55,4.95-9.45,11.91-9.45s11.44,3.82,11.81,9.35l.02.35h-4.22l-.05-.33c-.52-3.45-3.4-5.48-7.69-5.48-4.52.02-7.48,2.18-7.48,5.44v.02c0,2.77,2.04,4.5,6.45,5.46l3.75.82c6.94,1.52,9.84,4.34,9.84,9.49v.02c0,6-4.76,9.8-12.49,9.8-7.31,0-12.26-3.59-12.68-9.38Z"/><path class="ah" d="M368.55,85.86c0-1.43,1.15-2.55,2.55-2.55s2.55,1.12,2.55,2.55-1.12,2.55-2.55,2.55-2.55-1.15-2.55-2.55ZM369.06,92.54h4.08v24.38h-4.08v-24.38Z"/><path class="ah" d="M377.98,104.72v-.02c0-7.69,4.17-12.63,10.29-12.63,3.45,0,6.28,1.73,7.8,4.55h.09v-13.52h4.08v33.82h-4.08v-4.12h-.09c-1.52,2.84-4.24,4.59-7.73,4.59-6.23,0-10.36-4.97-10.36-12.66ZM396.19,104.72v-.02c0-5.44-2.95-9.02-7.05-9.02-4.31,0-6.98,3.47-6.98,9.02v.02c0,5.6,2.67,9.05,6.98,9.05s7.05-3.59,7.05-9.05Z"/><path class="ah" d="M405.04,104.82v-.02c0-7.55,4.31-12.73,10.97-12.73s10.71,4.95,10.71,12.26v1.5h-17.55c.09,5.02,2.86,7.95,7.2,7.95,3.09,0,5.27-1.55,5.98-3.63l.07-.21h4.01l-.05.23c-.8,4.03-4.78,7.22-10.1,7.22-7.01,0-11.23-4.9-11.23-12.56ZM409.23,102.64h13.34c-.4-4.73-3.02-6.96-6.59-6.96s-6.3,2.41-6.75,6.96Z"/><path class="ah" d="M452.15,83.09h4.17l12.56,33.82h-4.43l-3.42-9.68h-13.62l-3.42,9.68h-4.43l12.59-33.82ZM448.7,103.64h11.06l-5.48-15.49h-.09l-5.48,15.49Z"/><rect class="k" x="630" y="80" width="333.33" height="40"/><path class="ah" d="M732.94,108.1l-.02-.33h4.22l.05.33c.49,3.4,3.77,5.48,8.67,5.48s7.95-2.2,7.95-5.7v-.02c0-2.98-1.95-4.64-6.59-5.67l-3.75-.82c-6.61-1.45-9.7-4.43-9.7-9.38v-.02c.02-5.55,4.95-9.45,11.91-9.45s11.44,3.82,11.81,9.35l.02.35h-4.22l-.05-.33c-.52-3.45-3.4-5.48-7.69-5.48-4.52.02-7.48,2.18-7.48,5.44v.02c0,2.77,2.04,4.5,6.45,5.46l3.75.82c6.94,1.52,9.84,4.34,9.84,9.49v.02c0,6-4.76,9.8-12.49,9.8-7.31,0-12.26-3.59-12.68-9.38Z"/><path class="ah" d="M762.62,85.86c0-1.43,1.15-2.55,2.55-2.55s2.55,1.12,2.55,2.55-1.12,2.55-2.55,2.55-2.55-1.15-2.55-2.55ZM763.13,92.54h4.08v24.38h-4.08v-24.38Z"/><path class="ah" d="M772.05,104.72v-.02c0-7.69,4.17-12.63,10.29-12.63,3.45,0,6.28,1.73,7.8,4.55h.09v-13.52h4.08v33.82h-4.08v-4.12h-.09c-1.52,2.84-4.24,4.59-7.73,4.59-6.23,0-10.36-4.97-10.36-12.66ZM790.26,104.72v-.02c0-5.44-2.95-9.02-7.05-9.02-4.31,0-6.98,3.47-6.98,9.02v.02c0,5.6,2.67,9.05,6.98,9.05s7.05-3.59,7.05-9.05Z"/><path class="ah" d="M799.11,104.82v-.02c0-7.55,4.31-12.73,10.97-12.73s10.71,4.95,10.71,12.26v1.5h-17.55c.09,5.02,2.86,7.95,7.2,7.95,3.09,0,5.27-1.55,5.98-3.63l.07-.21h4.01l-.05.23c-.8,4.03-4.78,7.22-10.1,7.22-7.01,0-11.23-4.9-11.23-12.56ZM803.3,102.64h13.34c-.4-4.73-3.02-6.96-6.59-6.96s-6.3,2.41-6.75,6.96Z"/><path class="ah" d="M836.33,83.09h12.82c5.79,0,9.7,3.38,9.7,8.44v.05c0,3.49-2.62,6.89-6.12,7.38v.09c4.88.56,7.83,3.84,7.83,8.32v.05c0,5.95-4.27,9.49-11.46,9.49h-12.77v-33.82ZM840.55,86.82v10.85h6.33c4.99,0,7.71-1.99,7.71-5.65v-.05c0-3.33-2.32-5.16-6.4-5.16h-7.64ZM840.55,101.3v11.88h7.92c5.06,0,7.76-2.04,7.76-5.93v-.05c0-3.91-2.77-5.91-8.16-5.91h-7.52Z"/><line class="l" x1="1063.63" y1="159.15" x2="1057.6" y2="229.05"/><polygon class="ak" points="1047.92 225.28 1056.36 243.35 1067.79 227 1047.92 225.28"/><path class="ak" d="M985.36,113.06v-15.46h-5.2v-1.45h12v1.45h-5.2v15.46h-1.59Z"/><path class="ak" d="M1000.39,111.81h4.01v1.24h-8.14v-1.24h2.6v-10.14h-2.86v-1.24h4.36v3.21h.16c.43-2.25,2.1-3.53,4.56-3.53.73,0,1.44.11,1.84.28v1.68c-.59-.21-1.39-.35-2.07-.35-2.72,0-4.45,2.2-4.45,5.66v4.43Z"/><path class="ak" d="M1010.68,109.49c0-2.21,1.58-3.54,4.37-3.67l3.66-.16v-1.2c0-1.82-1.04-2.8-2.98-2.8-1.59,0-2.7.68-3.05,1.9h-1.52c.23-1.89,2.13-3.23,4.57-3.23,2.86,0,4.52,1.5,4.52,4.07v8.67h-1.48v-1.99h-.16c-.6,1.42-1.99,2.2-3.9,2.2-2.43,0-4.03-1.5-4.03-3.79ZM1018.71,108.7v-1.76l-3.55.15c-1.89.08-2.89.93-2.89,2.4s1.08,2.43,2.82,2.43c2.04,0,3.62-1.41,3.62-3.22Z"/><path class="ak" d="M1025.67,100.43h1.46v2.27h.15c.69-1.59,2.17-2.48,4.12-2.48,2.75,0,4.24,1.63,4.24,4.63v8.2h-1.54v-7.82c0-2.47-1-3.63-3.12-3.63-2.26,0-3.8,1.61-3.8,3.95v7.5h-1.54v-12.62Z"/><path class="ak" d="M1045.57,100.22c2.47,0,4.22,1.28,4.49,3.27h-1.51c-.27-1.23-1.42-1.99-3.02-1.99-1.76,0-2.88.84-2.88,2.16,0,1.1.69,1.71,2.41,2.11l1.71.4c2.43.57,3.53,1.64,3.53,3.42,0,2.23-1.89,3.68-4.76,3.68s-4.59-1.3-4.83-3.38h1.59c.33,1.3,1.55,2.06,3.3,2.06,1.89,0,3.09-.89,3.09-2.27,0-1.15-.67-1.76-2.39-2.17l-1.86-.45c-2.25-.53-3.35-1.63-3.35-3.35,0-2.07,1.82-3.49,4.48-3.49Z"/><path class="ak" d="M1058.59,101.74h-3.4v-1.3h3.4v-1.45c0-2.24,1.57-3.42,4.57-3.42.89,0,2.21.08,2.72.16v1.29c-.67-.08-1.86-.14-2.72-.14-1.99,0-3.04.74-3.04,2.16v1.41h5.75v1.3h-5.75v11.32h-1.54v-11.32Z"/><path class="ak" d="M1069.82,107.69v-1.88c0-3.4,2.09-5.58,5.34-5.58s5.34,2.18,5.34,5.58v1.88c0,3.4-2.09,5.58-5.34,5.58s-5.34-2.18-5.34-5.58ZM1071.36,106.01v1.48c0,2.73,1.46,4.41,3.81,4.41s3.81-1.68,3.81-4.41v-1.48c0-2.73-1.46-4.41-3.81-4.41s-3.81,1.68-3.81,4.41Z"/><path class="ak" d="M1089.41,111.81h4.01v1.24h-8.14v-1.24h2.6v-10.14h-2.86v-1.24h4.36v3.21h.16c.43-2.25,2.1-3.53,4.56-3.53.73,0,1.44.11,1.84.28v1.68c-.59-.21-1.39-.35-2.07-.35-2.72,0-4.45,2.2-4.45,5.66v4.43Z"/><path class="ak" d="M1110.82,113.06h-1.44v-8.71c0-1.82-.61-2.74-1.79-2.74-1.24,0-1.99,1.12-1.99,3v8.45h-1.44v-8.72c0-1.8-.61-2.73-1.8-2.73-1.27,0-2.04,1.14-2.04,3v8.45h-1.44v-12.62h1.39v1.69h.16c.33-1.17,1.25-1.9,2.41-1.9s2.06.7,2.33,1.9h.16c.34-1.15,1.41-1.9,2.71-1.9,1.84,0,2.78,1.28,2.78,3.77v9.06Z"/><path class="ak" d="M1124.87,109.94c-.42,2.02-2.34,3.33-4.89,3.33-3.4,0-5.37-2.1-5.37-5.7v-1.84c0-3.33,2.06-5.51,5.19-5.51s5.12,2.16,5.12,5.93v1h-8.78v.43c0,2.64,1.49,4.31,3.83,4.31,1.72,0,2.98-.73,3.36-1.96h1.52ZM1116.15,105.88h7.22c0-2.68-1.34-4.3-3.56-4.3s-3.66,1.61-3.66,4.3Z"/><path class="ak" d="M1129.03,107.96v-2.43c0-3.15,1.99-5.31,4.92-5.31,1.83,0,3.21.75,3.81,2.07h.21v-6.89h1.54v17.65h-1.46v-1.82h-.21c-.74,1.32-2.09,2.03-3.88,2.03-2.93,0-4.92-2.16-4.92-5.31ZM1138,107.59v-1.69c0-2.61-1.46-4.3-3.71-4.3s-3.73,1.7-3.73,4.3v1.69c0,2.6,1.46,4.3,3.73,4.3s3.71-1.69,3.71-4.3Z"/><path class="ak" d="M1035.01,136.06h-4.17v-1.43h5.78v3.63c0,3.01-2.36,5.14-5.66,5.14-3.89,0-6.14-2.71-6.14-7.41v-2.8c0-4.7,2.25-7.41,6.14-7.41,3.43,0,5.59,2.1,5.67,5.52h-1.61c-.09-2.4-1.73-4.03-4.07-4.03-2.98,0-4.54,2.04-4.54,5.92v2.8c0,3.88,1.56,5.92,4.54,5.92,2.5,0,4.05-1.49,4.05-3.88v-1.98Z"/><path class="ak" d="M1040.69,143.06v-1.24h4.44v-10.14h-4.46v-1.24h6v11.38h4.32v1.24h-10.3ZM1044.28,125.64c0-.8.66-1.45,1.45-1.45s1.45.66,1.45,1.45-.66,1.45-1.45,1.45-1.45-.66-1.45-1.45Z"/><path class="ak" d="M1055.54,141.88l7.73-10.01v-.14h-7.72v-1.3h9.56v1.18l-7.71,10v.14h7.72v1.3h-9.59v-1.17Z"/><path class="ak" d="M1081.14,143.06h-1.44v-8.71c0-1.82-.61-2.74-1.79-2.74-1.24,0-1.99,1.12-1.99,3v8.45h-1.44v-8.72c0-1.8-.61-2.73-1.8-2.73-1.27,0-2.04,1.14-2.04,3v8.45h-1.44v-12.62h1.39v1.69h.16c.33-1.17,1.25-1.9,2.41-1.9s2.06.7,2.33,1.9h.16c.34-1.15,1.41-1.9,2.71-1.9,1.84,0,2.78,1.28,2.78,3.77v9.06Z"/><path class="ak" d="M1084.66,137.69v-1.88c0-3.4,2.09-5.58,5.34-5.58s5.34,2.18,5.34,5.58v1.88c0,3.4-2.09,5.58-5.34,5.58s-5.34-2.18-5.34-5.58ZM1086.2,136.01v1.48c0,2.73,1.46,4.41,3.81,4.41s3.81-1.68,3.81-4.41v-1.48c0-2.73-1.46-4.41-3.81-4.41s-3.81,1.68-3.81,4.41Z"/><rect class="s" x="95.56" y="263.21" width="111.11" height="111.11"/><path class="m" d="M118.59,324.39l-.02-.23h2.93l.03.23c.34,2.36,2.62,3.81,6.02,3.81s5.52-1.53,5.52-3.96v-.02c0-2.07-1.35-3.22-4.58-3.94l-2.61-.57c-4.59-1.01-6.74-3.08-6.74-6.51v-.02c.02-3.86,3.44-6.56,8.27-6.56s7.94,2.65,8.21,6.5l.02.24h-2.93l-.03-.23c-.36-2.39-2.36-3.81-5.34-3.81-3.14.02-5.19,1.51-5.19,3.78v.02c0,1.92,1.42,3.13,4.48,3.79l2.6.57c4.82,1.06,6.84,3.01,6.84,6.59v.02c0,4.17-3.3,6.81-8.68,6.81-5.08,0-8.51-2.49-8.81-6.51Z"/><path class="m" d="M139.91,326.2v-10.27h-2.48v-2.34h2.48v-4.57h2.93v4.57h3.22v2.34h-3.22v10.26c0,1.81.8,2.31,2.31,2.31.34,0,.67-.05.91-.06v2.3c-.36.05-.96.11-1.51.11-3.11,0-4.64-1.4-4.64-4.64Z"/><path class="m" d="M148.08,325.73v-.03c0-2.88,2.25-4.69,6.14-4.92l4.85-.28v-1.42c0-2.07-1.35-3.32-3.71-3.32-2.18,0-3.55,1.04-3.88,2.56l-.03.15h-2.74l.02-.18c.24-2.78,2.67-5.03,6.66-5.03s6.51,2.17,6.51,5.55v11.71h-2.83v-2.75h-.06c-.99,1.86-3.03,3.08-5.29,3.08-3.37,0-5.63-2.04-5.63-5.11ZM154.35,328.38c2.67,0,4.72-1.84,4.72-4.3v-1.38l-4.53.28c-2.26.13-3.57,1.14-3.57,2.72v.03c0,1.63,1.33,2.65,3.37,2.65Z"/><path class="m" d="M165.5,313.58h2.83v2.87h.07c.57-1.95,2.04-3.19,3.94-3.19.49,0,.91.08,1.14.11v2.75c-.23-.08-.83-.16-1.51-.16-2.2,0-3.63,1.53-3.63,4.1v10.45h-2.83v-16.93Z"/><path class="m" d="M177.45,326.2v-10.27h-2.48v-2.34h2.48v-4.57h2.93v4.57h3.22v2.34h-3.22v10.26c0,1.81.8,2.31,2.31,2.31.34,0,.67-.05.91-.06v2.3c-.36.05-.96.11-1.51.11-3.11,0-4.64-1.4-4.64-4.64Z"/><rect class="u" x="993.33" y="263.21" width="111.11" height="111.11"/><path class="ah" d="M1023.96,307.02h14.56v2.64h-11.62v7.54h11.02v2.6h-11.02v8.08h11.62v2.64h-14.56v-23.49Z"/><path class="ah" d="M1041.92,313.58h2.83v2.41h.07c.91-1.58,2.64-2.73,5.21-2.73,3.71,0,5.86,2.41,5.86,6.27v10.99h-2.83v-10.48c0-2.75-1.29-4.27-3.89-4.27s-4.41,1.9-4.41,4.79v9.96h-2.83v-16.93Z"/><path class="ah" d="M1058.66,322.05v-.02c0-5.34,2.9-8.78,7.15-8.78,2.39,0,4.36,1.2,5.42,3.16h.07v-9.39h2.83v23.49h-2.83v-2.87h-.07c-1.06,1.97-2.95,3.19-5.37,3.19-4.33,0-7.2-3.45-7.2-8.79ZM1071.31,322.05v-.02c0-3.78-2.05-6.27-4.9-6.27-3,0-4.85,2.41-4.85,6.27v.02c0,3.89,1.86,6.28,4.85,6.28s4.9-2.49,4.9-6.28Z"/><rect class="t" x="238.86" y="154.29" width="328.95" height="328.95"/><rect class="aj" x="421.85" y="281.96" width="18.52" height="18.52"/><rect class="aj" x="403.33" y="263.44" width="18.52" height="18.52"/><rect class="aj" x="384.81" y="281.96" width="18.52" height="18.52"/><rect class="aj" x="366.3" y="263.44" width="18.52" height="18.52"/><rect class="aj" x="440.37" y="263.44" width="18.52" height="18.52"/><rect class="aj" x="347.78" y="281.96" width="18.52" height="18.52"/><rect class="aj" x="421.85" y="319" width="18.52" height="18.52"/><rect class="aj" x="403.33" y="300.48" width="18.52" height="18.52"/><rect class="aj" x="384.81" y="319" width="18.52" height="18.52"/><rect class="aj" x="366.3" y="300.48" width="18.52" height="18.52"/><rect class="aj" x="440.37" y="300.48" width="18.52" height="18.52"/><rect class="aj" x="347.78" y="319" width="18.52" height="18.52"/><rect class="aj" x="421.85" y="356.04" width="18.52" height="18.52"/><rect class="aj" x="403.33" y="337.52" width="18.52" height="18.52"/><rect class="aj" x="384.81" y="356.04" width="18.52" height="18.52"/><rect class="aj" x="366.3" y="337.52" width="18.52" height="18.52"/><rect class="aj" x="440.37" y="337.52" width="18.52" height="18.52"/><rect class="aj" x="347.78" y="356.04" width="18.52" height="18.52"/><rect class="r" x="236.67" y="374.32" width="111.11" height="111.11"/><rect class="ad" x="458.89" y="374.32" width="111.11" height="111.11"/><rect class="o" x="236.67" y="152.1" width="111.11" height="111.11"/><rect class="p" x="458.89" y="152.1" width="111.11" height="111.11"/><path class="m" d="M254.93,207.66v-.03c0-7.44,4.18-12.11,10.84-12.11s10.81,4.67,10.81,12.11v.03c0,7.46-4.15,12.13-10.81,12.13s-10.84-4.67-10.84-12.13ZM273.58,207.66v-.03c0-5.76-3.03-9.41-7.81-9.41s-7.85,3.63-7.85,9.41v.03c0,5.78,3.03,9.43,7.85,9.43s7.81-3.7,7.81-9.43Z"/><path class="m" d="M279.78,202.47h2.83v2.87h.07c1.06-1.97,2.95-3.19,5.37-3.19,4.33,0,7.2,3.45,7.2,8.79v.02c0,5.34-2.9,8.78-7.15,8.78-2.39,0-4.36-1.21-5.42-3.16h-.07v8.53h-2.83v-22.63ZM292.35,210.95v-.02c0-3.89-1.86-6.28-4.85-6.28s-4.9,2.49-4.9,6.28v.02c0,3.78,2.05,6.27,4.9,6.27,3,0,4.85-2.41,4.85-6.27Z"/><path class="m" d="M297.26,211v-.02c0-5.24,3-8.84,7.62-8.84s7.44,3.44,7.44,8.51v1.04h-12.19c.07,3.48,1.99,5.52,5,5.52,2.15,0,3.66-1.07,4.15-2.52l.05-.15h2.78l-.03.16c-.55,2.8-3.32,5.01-7.02,5.01-4.87,0-7.8-3.4-7.8-8.73ZM300.17,209.49h9.26c-.28-3.29-2.1-4.84-4.58-4.84s-4.38,1.68-4.69,4.84Z"/><path class="m" d="M315.16,202.47h2.83v2.41h.07c.91-1.58,2.64-2.73,5.21-2.73,3.71,0,5.86,2.41,5.86,6.27v10.99h-2.83v-10.48c0-2.75-1.29-4.27-3.89-4.27s-4.41,1.9-4.41,4.79v9.96h-2.83v-16.93Z"/><path class="m" d="M258.07,418.13h14.56v2.64h-11.62v7.54h11.02v2.6h-11.02v8.08h11.62v2.64h-14.56v-23.49Z"/><path class="m" d="M276.04,424.69h2.83v2.41h.07c.91-1.58,2.64-2.73,5.21-2.73,3.71,0,5.86,2.41,5.86,6.27v10.99h-2.83v-10.48c0-2.75-1.29-4.27-3.89-4.27s-4.41,1.9-4.41,4.79v9.96h-2.83v-16.93Z"/><path class="m" d="M294.46,437.31v-10.27h-2.48v-2.34h2.48v-4.58h2.93v4.58h3.22v2.34h-3.22v10.26c0,1.81.8,2.31,2.31,2.31.34,0,.67-.05.91-.06v2.3c-.36.05-.96.11-1.51.11-3.11,0-4.64-1.4-4.64-4.64Z"/><path class="m" d="M302.32,433.22v-.02c0-5.24,3-8.84,7.62-8.84s7.44,3.44,7.44,8.51v1.04h-12.19c.07,3.48,1.99,5.52,5,5.52,2.15,0,3.66-1.07,4.15-2.52l.05-.15h2.78l-.03.16c-.55,2.8-3.32,5.01-7.02,5.01-4.87,0-7.8-3.4-7.8-8.73ZM305.24,431.71h9.26c-.28-3.29-2.1-4.84-4.58-4.84s-4.38,1.68-4.69,4.84Z"/><path class="m" d="M320.22,424.69h2.83v2.87h.07c.57-1.95,2.03-3.19,3.94-3.19.49,0,.91.08,1.14.11v2.75c-.23-.08-.83-.16-1.51-.16-2.2,0-3.63,1.53-3.63,4.1v10.45h-2.83v-16.93Z"/><rect class="k" x="468.15" y="179.88" width="92.59" height="55.56"/><path class="ah" d="M470.49,195.91h8.81c4.53,0,7.49,2.77,7.49,7v.03c0,3.26-1.79,5.78-4.72,6.71l5.44,9.75h-3.44l-5.03-9.3h-5.62v9.3h-2.93v-23.49ZM479.03,207.52c3.01,0,4.72-1.63,4.72-4.51v-.03c0-2.8-1.84-4.46-4.85-4.46h-5.49v9h5.62Z"/><path class="ah" d="M489.19,211v-.02c0-5.24,3-8.84,7.62-8.84s7.44,3.44,7.44,8.51v1.04h-12.19c.07,3.48,1.99,5.52,5,5.52,2.15,0,3.66-1.07,4.15-2.52l.05-.15h2.78l-.03.16c-.55,2.8-3.32,5.01-7.02,5.01-4.87,0-7.8-3.4-7.8-8.73ZM492.1,209.49h9.26c-.28-3.29-2.1-4.84-4.58-4.84s-4.38,1.68-4.69,4.84Z"/><path class="ah" d="M507.95,215.09v-10.27h-2.48v-2.34h2.48v-4.57h2.93v4.57h3.22v2.34h-3.22v10.26c0,1.81.8,2.31,2.31,2.31.34,0,.67-.05.91-.06v2.3c-.36.05-.96.11-1.51.11-3.11,0-4.64-1.4-4.64-4.64Z"/><path class="ah" d="M517.05,213.46v-10.99h2.83v10.49c0,2.75,1.29,4.27,3.89,4.27s4.41-1.9,4.41-4.79v-9.96h2.83v16.93h-2.83v-2.41h-.07c-.91,1.58-2.64,2.74-5.21,2.74-3.71,0-5.86-2.41-5.86-6.27Z"/><path class="ah" d="M534.69,202.47h2.83v2.87h.07c.57-1.95,2.03-3.19,3.94-3.19.49,0,.91.08,1.14.11v2.75c-.23-.08-.83-.16-1.51-.16-2.2,0-3.63,1.53-3.63,4.1v10.45h-2.83v-16.93Z"/><path class="ah" d="M544.96,202.47h2.83v2.41h.07c.91-1.58,2.64-2.73,5.21-2.73,3.71,0,5.86,2.41,5.86,6.27v10.99h-2.83v-10.48c0-2.75-1.29-4.27-3.89-4.27s-4.41,1.9-4.41,4.79v9.96h-2.83v-16.93Z"/><rect class="k" x="468.15" y="402.1" width="92.59" height="55.56"/><path class="ah" d="M475.84,429.87v-.02c0-7.39,4.18-12.11,10.73-12.11,4.88,0,8.68,2.96,9.57,7.41l.03.16h-2.96l-.11-.36c-.91-2.85-3.22-4.51-6.53-4.51-4.69,0-7.72,3.7-7.72,9.41v.02c0,5.71,3.04,9.44,7.72,9.44,3.29,0,5.57-1.63,6.59-4.72l.05-.15h2.96l-.03.16c-.9,4.49-4.66,7.41-9.57,7.41-6.53,0-10.73-4.75-10.73-12.15Z"/><path class="ah" d="M499.33,418.13h2.83v23.49h-2.83v-23.49Z"/><path class="ah" d="M505.15,433.16v-.03c0-5.39,3.16-8.76,7.83-8.76s7.85,3.35,7.85,8.76v.03c0,5.41-3.16,8.79-7.83,8.79s-7.85-3.4-7.85-8.79ZM517.93,433.16v-.03c0-3.97-1.95-6.25-4.95-6.25s-4.93,2.3-4.93,6.25v.03c0,3.99,1.97,6.28,4.97,6.28s4.92-2.31,4.92-6.28Z"/><path class="ah" d="M522.94,436.88l-.02-.15h2.83l.03.16c.34,1.69,1.6,2.69,3.91,2.69s3.66-.96,3.66-2.49v-.02c0-1.22-.64-1.9-2.56-2.38l-2.69-.65c-3.19-.77-4.74-2.25-4.74-4.69v-.02c0-2.91,2.56-4.98,6.22-4.98s6.07,2.17,6.29,5l.02.21h-2.7l-.02-.11c-.23-1.64-1.48-2.74-3.58-2.74s-3.32.99-3.32,2.49v.02c0,1.16.77,1.95,2.64,2.41l2.69.65c3.42.83,4.66,2.18,4.66,4.59v.02c0,2.96-2.8,5.05-6.58,5.05-3.99,0-6.4-2.04-6.74-5.06Z"/><path class="ah" d="M538.36,433.22v-.02c0-5.24,3-8.84,7.62-8.84s7.44,3.44,7.44,8.51v1.04h-12.19c.07,3.48,1.99,5.52,5,5.52,2.15,0,3.66-1.07,4.15-2.52l.05-.15h2.78l-.03.16c-.55,2.8-3.32,5.01-7.02,5.01-4.87,0-7.8-3.4-7.8-8.73ZM541.27,431.71h9.26c-.28-3.29-2.1-4.84-4.58-4.84s-4.38,1.68-4.69,4.84Z"/><rect class="x" x="236.67" y="263.21" width="111.11" height="111.11"/><rect class="ah" x="458.89" y="263.68" width="111.11" height="111.11"/><rect class="ab" x="347.78" y="374.79" width="111.11" height="111.11"/><rect class="ae" x="347.78" y="152.1" width="111.11" height="111.11"/><rect class="k" x="357.04" y="179.88" width="92.59" height="55.56"/><path class="ah" d="M361.95,195.91h8.37c4.41,0,7.54,3.04,7.54,7.51v.03c0,4.46-3.13,7.57-7.54,7.57h-5.44v8.38h-2.93v-23.49ZM364.88,198.51v9.9h4.69c3.35,0,5.29-1.84,5.29-4.93v-.03c0-3.09-1.94-4.93-5.29-4.93h-4.69Z"/><path class="ah" d="M379.13,210.93v-.03c0-5.39,3.16-8.76,7.83-8.76s7.85,3.35,7.85,8.76v.03c0,5.41-3.16,8.79-7.83,8.79s-7.85-3.4-7.85-8.79ZM391.91,210.93v-.03c0-3.97-1.95-6.25-4.95-6.25s-4.93,2.3-4.93,6.25v.03c0,3.99,1.97,6.28,4.97,6.28s4.92-2.31,4.92-6.28Z"/><path class="ah" d="M396.26,202.47h2.82l3.39,13.77h.06l3.83-13.77h2.74l3.84,13.77h.06l3.39-13.77h2.8l-4.72,16.93h-2.88l-3.83-13.11h-.07l-3.81,13.11h-2.88l-4.74-16.93Z"/><path class="ah" d="M420.66,211v-.02c0-5.24,3-8.84,7.62-8.84s7.44,3.44,7.44,8.51v1.04h-12.19c.07,3.48,1.99,5.52,5,5.52,2.15,0,3.66-1.07,4.15-2.52l.05-.15h2.78l-.03.16c-.55,2.8-3.32,5.01-7.02,5.01-4.87,0-7.8-3.4-7.8-8.73ZM423.58,209.49h9.26c-.28-3.29-2.1-4.84-4.58-4.84s-4.38,1.68-4.69,4.84Z"/><path class="ah" d="M438.57,202.47h2.83v2.87h.07c.57-1.95,2.03-3.19,3.94-3.19.49,0,.91.08,1.14.11v2.75c-.23-.08-.83-.16-1.51-.16-2.2,0-3.63,1.53-3.63,4.1v10.45h-2.83v-16.93Z"/><rect class="k" x="357.04" y="402.56" width="92.59" height="55.56"/><path class="ah" d="M372.65,418.59h14.26v2.64h-11.33v8.08h10.4v2.6h-10.4v10.18h-2.93v-23.49Z"/><path class="ah" d="M389.95,418.59h2.83v23.49h-2.83v-23.49Z"/><path class="ah" d="M395.78,433.62v-.03c0-5.39,3.16-8.76,7.83-8.76s7.85,3.35,7.85,8.76v.03c0,5.41-3.16,8.79-7.83,8.79s-7.85-3.4-7.85-8.79ZM408.56,433.62v-.03c0-3.97-1.95-6.25-4.95-6.25s-4.93,2.3-4.93,6.25v.03c0,3.99,1.97,6.28,4.97,6.28s4.92-2.31,4.92-6.28Z"/><path class="ah" d="M412.92,425.15h2.82l3.39,13.77h.06l3.83-13.77h2.74l3.84,13.77h.06l3.39-13.77h2.8l-4.72,16.93h-2.88l-3.83-13.11h-.07l-3.81,13.11h-2.88l-4.74-16.93Z"/><rect class="k" x="245.93" y="290.99" width="92.59" height="55.56"/><path class="ah" d="M256.32,318.64v-.02c0-7.34,4.2-12,10.76-12,5.41,0,8.64,3.11,9.74,7.26l.08.31h-3.08l-.07-.18c-1.09-2.98-3.37-4.69-6.67-4.69-4.84,0-7.77,3.5-7.77,9.3v.02c0,5.91,2.98,9.56,7.77,9.56,4.17,0,7.03-2.7,7.03-6.64v-.42h-6.63v-2.57h9.56v2.23c0,6.35-3.7,10.11-9.96,10.11s-10.76-4.77-10.76-12.26Z"/><path class="ah" d="M280.34,313.58h2.83v2.87h.07c.57-1.95,2.03-3.19,3.94-3.19.49,0,.91.08,1.14.11v2.75c-.23-.08-.83-.16-1.51-.16-2.2,0-3.63,1.53-3.63,4.1v10.45h-2.83v-16.93Z"/><path class="ah" d="M288.97,322.05v-.03c0-5.39,3.16-8.76,7.83-8.76s7.85,3.35,7.85,8.76v.03c0,5.41-3.16,8.79-7.83,8.79s-7.85-3.4-7.85-8.79ZM301.75,322.05v-.03c0-3.97-1.95-6.25-4.95-6.25s-4.93,2.3-4.93,6.25v.03c0,3.99,1.97,6.28,4.97,6.28s4.92-2.31,4.92-6.28Z"/><path class="ah" d="M306.11,313.58h2.82l3.39,13.77h.06l3.83-13.77h2.74l3.84,13.77h.07l3.39-13.77h2.8l-4.72,16.93h-2.88l-3.83-13.11h-.07l-3.81,13.11h-2.88l-4.74-16.93Z"/><path class="m" d="M474.52,307.02h14.26v2.64h-11.33v8.08h10.4v2.6h-10.4v10.18h-2.93v-23.49Z"/><path class="m" d="M490.2,322.05v-.03c0-5.39,3.16-8.76,7.83-8.76s7.85,3.35,7.85,8.76v.03c0,5.41-3.16,8.79-7.83,8.79s-7.85-3.4-7.85-8.79ZM502.98,322.05v-.03c0-3.97-1.95-6.25-4.95-6.25s-4.93,2.3-4.93,6.25v.03c0,3.99,1.97,6.28,4.97,6.28s4.92-2.31,4.92-6.28Z"/><path class="m" d="M507.89,322.03v-.02c0-5.34,3.11-8.76,7.81-8.76,4.22,0,6.71,2.8,7.07,5.7l.02.13h-2.77l-.03-.13c-.42-1.69-1.79-3.19-4.28-3.19-2.95,0-4.92,2.44-4.92,6.28v.02c0,3.94,2.02,6.27,4.95,6.27,2.31,0,3.79-1.3,4.27-3.19l.03-.13h2.78l-.02.11c-.46,3.22-3.24,5.71-7.07,5.71-4.8,0-7.85-3.42-7.85-8.81Z"/><path class="m" d="M525.34,324.57v-10.99h2.83v10.49c0,2.75,1.29,4.27,3.89,4.27s4.41-1.9,4.41-4.79v-9.96h2.83v16.93h-2.83v-2.41h-.07c-.91,1.58-2.64,2.74-5.21,2.74-3.71,0-5.86-2.41-5.86-6.27Z"/><path class="m" d="M542.25,325.77l-.02-.15h2.83l.03.16c.34,1.69,1.6,2.69,3.91,2.69s3.66-.96,3.66-2.49v-.02c0-1.22-.64-1.9-2.56-2.38l-2.69-.65c-3.19-.77-4.74-2.25-4.74-4.69v-.02c0-2.91,2.56-4.98,6.22-4.98s6.07,2.17,6.29,5l.02.21h-2.7l-.02-.11c-.23-1.64-1.48-2.74-3.58-2.74s-3.32.99-3.32,2.49v.02c0,1.16.77,1.95,2.64,2.41l2.69.65c3.42.83,4.66,2.18,4.66,4.59v.02c0,2.96-2.8,5.05-6.58,5.05-3.99,0-6.4-2.04-6.74-5.06Z"/><path class="m" d="M370.78,307.02h2.93v10.16h12.89v-10.16h2.93v23.49h-2.93v-10.7h-12.89v10.7h-2.93v-23.49Z"/><path class="m" d="M392.82,322.11v-.02c0-5.24,3-8.84,7.62-8.84s7.44,3.44,7.44,8.51v1.04h-12.19c.07,3.48,1.99,5.52,5,5.52,2.15,0,3.66-1.07,4.15-2.52l.05-.15h2.78l-.03.16c-.55,2.8-3.32,5.01-7.02,5.01-4.87,0-7.8-3.4-7.8-8.73ZM395.74,320.6h9.26c-.28-3.29-2.1-4.84-4.58-4.84s-4.38,1.68-4.69,4.84Z"/><path class="m" d="M410.87,307.02h2.83v23.49h-2.83v-23.49Z"/><path class="m" d="M417.35,308.94c0-.99.8-1.77,1.77-1.77s1.77.78,1.77,1.77-.78,1.77-1.77,1.77-1.77-.8-1.77-1.77ZM417.71,313.58h2.83v16.93h-2.83v-16.93Z"/><path class="m" d="M428.84,322.05l-5.67-8.47h3.16l4.07,6.35h.07l4.02-6.35h3.16l-5.71,8.35,5.63,8.58h-3.14l-4.05-6.45h-.07l-4.09,6.45h-3.14l5.76-8.47Z"/><rect class="q" x="632.19" y="154.29" width="328.95" height="328.95"/><rect class="aa" x="815.19" y="281.73" width="18.52" height="18.52"/><rect class="aa" x="796.67" y="263.21" width="18.52" height="18.52"/><rect class="aa" x="778.15" y="281.73" width="18.52" height="18.52"/><rect class="aa" x="759.63" y="263.21" width="18.52" height="18.52"/><rect class="aa" x="833.7" y="263.21" width="18.52" height="18.52"/><rect class="aa" x="741.11" y="281.73" width="18.52" height="18.52"/><rect class="aa" x="815.19" y="318.77" width="18.52" height="18.52"/><rect class="aa" x="796.67" y="300.25" width="18.52" height="18.52"/><rect class="aa" x="778.15" y="318.77" width="18.52" height="18.52"/><rect class="aa" x="759.63" y="300.25" width="18.52" height="18.52"/><rect class="aa" x="833.7" y="300.25" width="18.52" height="18.52"/><rect class="aa" x="741.11" y="318.77" width="18.52" height="18.52"/><rect class="aa" x="815.19" y="355.81" width="18.52" height="18.52"/><rect class="aa" x="796.67" y="337.29" width="18.52" height="18.52"/><rect class="aa" x="778.15" y="355.81" width="18.52" height="18.52"/><rect class="aa" x="759.63" y="337.29" width="18.52" height="18.52"/><rect class="aa" x="833.7" y="337.29" width="18.52" height="18.52"/><rect class="aa" x="741.11" y="355.81" width="18.52" height="18.52"/><rect class="ai" x="630" y="263.21" width="111.11" height="111.11"/><rect class="y" x="852.22" y="263.21" width="111.11" height="111.11"/><rect class="ag" x="852.22" y="374.32" width="111.11" height="111.11"/><rect class="al" x="630" y="374.32" width="111.11" height="111.11"/><rect class="z" x="630" y="152.1" width="111.11" height="111.11"/><rect class="am" x="852.22" y="152.1" width="111.11" height="111.11"/><rect class="k" x="639.26" y="290.99" width="92.59" height="55.56"/><path class="ah" d="M639.98,307.02h3.03l4.69,19.29h.06l5.27-19.29h2.93l5.27,19.29h.06l4.69-19.29h3.03l-6.33,23.49h-2.74l-5.41-18.82h-.06l-5.41,18.82h-2.74l-6.33-23.49Z"/><path class="ah" d="M671.49,308.94c0-.99.79-1.77,1.76-1.77s1.76.78,1.76,1.77-.77,1.77-1.76,1.77-1.76-.8-1.76-1.77ZM671.84,313.58h2.8v16.93h-2.8v-16.93Z"/><path class="ah" d="M679.42,326.2v-10.27h-2.45v-2.34h2.45v-4.57h2.9v4.57h3.19v2.34h-3.19v10.26c0,1.81.79,2.31,2.29,2.31.34,0,.66-.05.9-.06v2.3c-.35.05-.95.11-1.5.11-3.08,0-4.59-1.4-4.59-4.64Z"/><path class="ah" d="M688.76,307.02h2.8v9.26h.06c.9-1.91,2.72-3.03,5.22-3.03,3.56,0,5.99,2.78,5.99,6.89v10.37h-2.8v-9.88c0-3.06-1.55-4.87-4.16-4.87s-4.32,1.99-4.32,4.87v9.88h-2.8v-23.49Z"/><path class="ah" d="M705.68,322.11v-.02c0-5.24,2.96-8.84,7.54-8.84s7.36,3.44,7.36,8.51v1.04h-12.07c.06,3.48,1.97,5.52,4.95,5.52,2.13,0,3.63-1.07,4.11-2.52l.05-.15h2.75l-.03.16c-.55,2.8-3.29,5.01-6.95,5.01-4.82,0-7.72-3.4-7.72-8.73ZM708.56,320.6h9.17c-.27-3.29-2.08-4.84-4.53-4.84s-4.33,1.68-4.64,4.84Z"/><path class="ah" d="M723.5,313.58h2.8v2.87h.06c.56-1.95,2.01-3.19,3.9-3.19.48,0,.9.08,1.13.11v2.75c-.23-.08-.82-.16-1.5-.16-2.17,0-3.59,1.53-3.59,4.1v10.45h-2.8v-16.93Z"/><path class="ah" d="M661.57,213.28l-.02-.23h2.93l.03.23c.34,2.36,2.62,3.81,6.02,3.81s5.52-1.53,5.52-3.96v-.02c0-2.07-1.35-3.22-4.58-3.94l-2.61-.57c-4.59-1.01-6.74-3.08-6.74-6.51v-.02c.02-3.86,3.44-6.56,8.27-6.56s7.94,2.65,8.21,6.5l.02.24h-2.93l-.03-.23c-.36-2.39-2.36-3.81-5.34-3.81-3.14.02-5.19,1.51-5.19,3.78v.02c0,1.92,1.42,3.13,4.48,3.79l2.6.57c4.82,1.06,6.84,3.01,6.84,6.59v.02c0,4.17-3.3,6.81-8.68,6.81-5.08,0-8.51-2.49-8.81-6.51Z"/><path class="ah" d="M682.89,215.09v-10.27h-2.48v-2.34h2.48v-4.57h2.93v4.57h3.22v2.34h-3.22v10.26c0,1.81.8,2.31,2.31,2.31.34,0,.67-.05.91-.06v2.3c-.36.05-.96.11-1.51.11-3.11,0-4.64-1.4-4.64-4.64Z"/><path class="ah" d="M691.89,197.83c0-.99.8-1.77,1.77-1.77s1.77.78,1.77,1.77-.78,1.77-1.77,1.77-1.77-.8-1.77-1.77ZM692.25,202.47h2.83v16.93h-2.83v-16.93Z"/><path class="ah" d="M699.08,195.91h2.83v23.49h-2.83v-23.49Z"/><path class="ah" d="M705.88,195.91h2.83v23.49h-2.83v-23.49Z"/><path class="ah" d="M657.87,418.13h7.9c6.95,0,11.09,4.33,11.09,11.71v.03c0,7.41-4.1,11.75-11.09,11.75h-7.9v-23.49ZM665.57,438.99c5.32,0,8.29-3.26,8.29-9.08v-.03c0-5.86-2.96-9.1-8.29-9.1h-4.77v18.22h4.77Z"/><path class="ah" d="M680.05,424.69h2.83v2.87h.07c.57-1.95,2.03-3.19,3.94-3.19.49,0,.91.08,1.14.11v2.75c-.23-.08-.83-.16-1.51-.16-2.2,0-3.63,1.53-3.63,4.1v10.45h-2.83v-16.93Z"/><path class="ah" d="M690.15,420.05c0-.99.8-1.77,1.77-1.77s1.77.78,1.77,1.77-.78,1.77-1.77,1.77-1.77-.8-1.77-1.77ZM690.5,424.69h2.83v16.93h-2.83v-16.93Z"/><path class="ah" d="M698.11,427.04h-2.36v-2.34h2.36v-2.08c0-3.26,1.51-4.8,4.64-4.8.63,0,1.3.05,1.73.11v2.3c-.34-.05-.78-.06-1.22-.06-1.56,0-2.34.8-2.34,2.47v2.07h3.48v2.34h-3.45v14.59h-2.83v-14.59Z"/><path class="ah" d="M708.18,437.31v-10.27h-2.48v-2.34h2.48v-4.57h2.93v4.57h3.22v2.34h-3.22v10.26c0,1.81.8,2.31,2.31,2.31.34,0,.67-.05.91-.06v2.3c-.36.05-.96.11-1.51.11-3.11,0-4.64-1.4-4.64-4.64Z"/><path class="ah" d="M874.36,307.02h2.93v10.16h12.89v-10.16h2.93v23.49h-2.93v-10.7h-12.89v10.7h-2.93v-23.49Z"/><path class="ah" d="M896.05,325.73v-.03c0-2.88,2.25-4.69,6.14-4.92l4.85-.28v-1.42c0-2.07-1.35-3.32-3.71-3.32-2.18,0-3.55,1.04-3.88,2.56l-.03.15h-2.74l.02-.18c.24-2.78,2.67-5.03,6.66-5.03s6.51,2.17,6.51,5.55v11.71h-2.83v-2.75h-.06c-.99,1.86-3.03,3.08-5.29,3.08-3.37,0-5.63-2.04-5.63-5.11ZM902.32,328.38c2.67,0,4.72-1.84,4.72-4.3v-1.38l-4.53.28c-2.26.13-3.57,1.14-3.57,2.72v.03c0,1.63,1.33,2.65,3.37,2.65Z"/><path class="ah" d="M912.95,328.49l9.36-12.52v-.05h-9.34v-2.34h12.57v2.07l-9.3,12.47v.05h9.35v2.34h-12.63v-2.02Z"/><path class="ah" d="M927.42,322.11v-.02c0-5.24,3-8.84,7.62-8.84s7.44,3.44,7.44,8.51v1.04h-12.19c.07,3.48,1.99,5.52,5,5.52,2.15,0,3.66-1.07,4.15-2.52l.05-.15h2.78l-.03.16c-.55,2.8-3.32,5.01-7.02,5.01-4.87,0-7.8-3.4-7.8-8.73ZM930.33,320.6h9.26c-.28-3.29-2.1-4.84-4.58-4.84s-4.38,1.68-4.69,4.84Z"/><rect class="k" x="861.48" y="179.88" width="92.59" height="55.56"/><path class="ah" d="M867.85,213.28l-.02-.23h2.93l.03.23c.34,2.36,2.62,3.81,6.02,3.81s5.52-1.53,5.52-3.96v-.02c0-2.07-1.35-3.22-4.58-3.94l-2.61-.57c-4.59-1.01-6.74-3.08-6.74-6.51v-.02c.02-3.86,3.44-6.56,8.27-6.56s7.94,2.65,8.21,6.5l.02.24h-2.93l-.03-.23c-.36-2.39-2.36-3.81-5.34-3.81-3.14.02-5.19,1.51-5.19,3.78v.02c0,1.92,1.42,3.13,4.48,3.79l2.6.57c4.82,1.06,6.84,3.01,6.84,6.59v.02c0,4.17-3.3,6.81-8.68,6.81-5.08,0-8.51-2.49-8.81-6.51Z"/><path class="ah" d="M888.23,213.46v-10.99h2.83v10.49c0,2.75,1.29,4.27,3.89,4.27s4.41-1.9,4.41-4.79v-9.96h2.83v16.93h-2.83v-2.41h-.07c-.91,1.58-2.64,2.74-5.21,2.74-3.71,0-5.86-2.41-5.86-6.27Z"/><path class="ah" d="M905.87,202.47h2.83v2.87h.07c.57-1.95,2.04-3.19,3.94-3.19.49,0,.91.08,1.14.11v2.75c-.23-.08-.83-.16-1.51-.16-2.2,0-3.63,1.53-3.63,4.1v10.45h-2.83v-16.93Z"/><path class="ah" d="M915.12,220.95l-.03-.15h2.85l.07.15c.54,1.22,2.15,1.97,4.46,1.97,2.98,0,4.67-1.64,4.67-4.27v-2.17h-.07c-1.01,1.87-2.96,3.08-5.39,3.08-4.27,0-7.18-3.44-7.18-8.73v-.02c0-5.26,2.95-8.68,7.25-8.68,2.39,0,4.28,1.3,5.32,3.19h.07v-2.87h2.83v16.46c0,3.92-2.88,6.5-7.47,6.5-4.18,0-6.82-1.97-7.38-4.48ZM927.13,210.84v-.02c0-3.73-1.97-6.17-4.84-6.17-3.01,0-4.9,2.41-4.9,6.17v.02c0,3.84,1.89,6.22,4.9,6.22s4.84-2.46,4.84-6.22Z"/><path class="ah" d="M932.79,211v-.02c0-5.24,3-8.84,7.62-8.84s7.44,3.44,7.44,8.51v1.04h-12.19c.07,3.48,1.99,5.52,5,5.52,2.15,0,3.66-1.07,4.15-2.52l.05-.15h2.78l-.03.16c-.55,2.8-3.32,5.01-7.02,5.01-4.87,0-7.8-3.4-7.8-8.73ZM935.71,209.49h9.26c-.28-3.29-2.1-4.84-4.58-4.84s-4.38,1.68-4.69,4.84Z"/><rect class="k" x="861.48" y="402.1" width="92.59" height="55.56"/><path class="ah" d="M875.7,418.13h14.26v2.64h-11.33v8.08h10.4v2.6h-10.4v10.18h-2.93v-23.49Z"/><path class="ah" d="M891.03,436.84v-.03c0-2.88,2.25-4.69,6.14-4.92l4.85-.28v-1.42c0-2.07-1.35-3.32-3.71-3.32-2.18,0-3.55,1.04-3.88,2.56l-.03.15h-2.74l.02-.18c.24-2.78,2.67-5.03,6.66-5.03s6.51,2.17,6.51,5.55v11.71h-2.83v-2.75h-.06c-.99,1.86-3.03,3.08-5.29,3.08-3.37,0-5.63-2.04-5.63-5.11ZM897.3,439.49c2.67,0,4.72-1.84,4.72-4.3v-1.38l-4.53.28c-2.26.13-3.57,1.14-3.57,2.72v.03c0,1.63,1.33,2.65,3.37,2.65Z"/><path class="ah" d="M907.62,433.16v-.02c0-5.34,2.9-8.78,7.15-8.78,2.39,0,4.36,1.2,5.42,3.16h.07v-9.39h2.83v23.49h-2.83v-2.87h-.07c-1.06,1.97-2.95,3.19-5.37,3.19-4.33,0-7.2-3.45-7.2-8.79ZM920.27,433.16v-.02c0-3.78-2.05-6.27-4.9-6.27-3,0-4.85,2.41-4.85,6.27v.02c0,3.89,1.86,6.28,4.85,6.28s4.9-2.49,4.9-6.28Z"/><path class="ah" d="M926.07,433.22v-.02c0-5.24,3-8.84,7.62-8.84s7.44,3.44,7.44,8.51v1.04h-12.19c.07,3.48,1.99,5.52,5,5.52,2.15,0,3.66-1.07,4.15-2.52l.05-.15h2.78l-.03.16c-.55,2.8-3.32,5.01-7.02,5.01-4.87,0-7.8-3.4-7.8-8.73ZM928.99,431.71h9.26c-.28-3.29-2.1-4.84-4.58-4.84s-4.38,1.68-4.69,4.84Z"/><rect class="af" x="741.11" y="374.79" width="111.11" height="111.11"/><rect class="n" x="741.11" y="152.56" width="111.11" height="111.11"/><rect class="k" x="750.37" y="180.34" width="92.59" height="55.56"/><path class="ah" d="M766.19,196.37h3.08l7,19.98h.06l7-19.98h3.08l-8.66,23.49h-2.9l-8.66-23.49Z"/><path class="ah" d="M785.54,211.4v-.03c0-5.39,3.16-8.76,7.83-8.76s7.85,3.35,7.85,8.76v.03c0,5.41-3.16,8.79-7.83,8.79s-7.85-3.4-7.85-8.79ZM798.32,211.4v-.03c0-3.97-1.95-6.25-4.95-6.25s-4.93,2.3-4.93,6.25v.03c0,3.99,1.97,6.28,4.97,6.28s4.92-2.31,4.92-6.28Z"/><path class="ah" d="M803.89,198.29c0-.99.8-1.77,1.77-1.77s1.77.78,1.77,1.77-.78,1.77-1.77,1.77-1.77-.8-1.77-1.77ZM804.24,202.93h2.83v16.93h-2.83v-16.93Z"/><path class="ah" d="M810.1,211.4v-.02c0-5.34,2.9-8.78,7.15-8.78,2.39,0,4.36,1.2,5.42,3.16h.07v-9.39h2.83v23.49h-2.83v-2.87h-.07c-1.06,1.97-2.95,3.19-5.37,3.19-4.33,0-7.2-3.45-7.2-8.79ZM822.75,211.4v-.02c0-3.78-2.05-6.27-4.9-6.27-3,0-4.85,2.41-4.85,6.27v.02c0,3.89,1.86,6.28,4.85,6.28s4.9-2.49,4.9-6.28Z"/><rect class="k" x="750.37" y="402.56" width="92.59" height="55.56"/><path class="ah" d="M762.71,418.59h2.9l8.73,23.49h-3.08l-2.38-6.72h-9.46l-2.38,6.72h-3.08l8.74-23.49ZM760.32,432.87h7.68l-3.81-10.76h-.07l-3.81,10.76Z"/><path class="ah" d="M779.62,439.22h-.07v2.87h-2.83v-23.49h2.83v9.39h.07c1.06-1.95,3.03-3.16,5.42-3.16,4.25,0,7.15,3.44,7.15,8.78v.02c0,5.34-2.87,8.79-7.2,8.79-2.43,0-4.31-1.22-5.37-3.19ZM789.29,433.62v-.02c0-3.86-1.86-6.27-4.85-6.27s-4.9,2.49-4.9,6.27v.02c0,3.79,2.04,6.28,4.9,6.28s4.85-2.39,4.85-6.28Z"/><path class="ah" d="M794.49,447.65v-2.31c.24.05.57.1.91.1,1.79,0,2.78-.46,3.47-2.38l.34-.96-6.28-16.95h3.03l4.67,14.1h.07l4.69-14.1h2.98l-6.61,17.99c-1.2,3.24-2.69,4.64-5.75,4.64-.55,0-1.16-.06-1.51-.13Z"/><path class="ah" d="M809.86,437.35l-.02-.15h2.83l.03.16c.34,1.69,1.6,2.69,3.91,2.69s3.66-.96,3.66-2.49v-.02c0-1.22-.64-1.9-2.56-2.38l-2.69-.65c-3.19-.77-4.74-2.25-4.74-4.69v-.02c0-2.91,2.56-4.98,6.22-4.98s6.07,2.17,6.29,5l.02.21h-2.7l-.02-.11c-.23-1.64-1.48-2.74-3.58-2.74s-3.32.99-3.32,2.49v.02c0,1.16.77,1.95,2.64,2.41l2.69.65c3.42.83,4.66,2.18,4.66,4.59v.02c0,2.96-2.8,5.05-6.58,5.05-3.99,0-6.4-2.04-6.74-5.06Z"/><path class="ah" d="M825.37,437.35l-.02-.15h2.83l.03.16c.34,1.69,1.6,2.69,3.91,2.69s3.66-.96,3.66-2.49v-.02c0-1.22-.64-1.9-2.56-2.38l-2.69-.65c-3.19-.77-4.74-2.25-4.74-4.69v-.02c0-2.91,2.56-4.98,6.22-4.98s6.07,2.17,6.29,5l.02.21h-2.7l-.02-.11c-.23-1.64-1.48-2.74-3.58-2.74s-3.32.99-3.32,2.49v.02c0,1.16.77,1.95,2.64,2.41l2.69.65c3.42.83,4.66,2.18,4.66,4.59v.02c0,2.96-2.8,5.05-6.58,5.05-3.99,0-6.4-2.04-6.74-5.06Z"/><path class="ah" d="M751.41,318.76v-.02c0-7.39,3.18-12.11,8.16-12.11,3.71,0,6.6,2.96,7.28,7.41l.03.16h-2.25l-.09-.36c-.69-2.85-2.45-4.51-4.96-4.51-3.56,0-5.87,3.7-5.87,9.41v.02c0,5.71,2.31,9.44,5.87,9.44,2.5,0,4.23-1.63,5.01-4.72l.04-.15h2.25l-.03.16c-.68,4.49-3.54,7.41-7.28,7.41-4.96,0-8.16-4.75-8.16-12.15Z"/><path class="ah" d="M768.52,322.05v-.03c0-5.39,2.4-8.76,5.95-8.76s5.96,3.35,5.96,8.76v.03c0,5.41-2.4,8.79-5.95,8.79s-5.96-3.4-5.96-8.79ZM778.23,322.05v-.03c0-3.97-1.49-6.25-3.76-6.25s-3.75,2.3-3.75,6.25v.03c0,3.99,1.5,6.28,3.77,6.28s3.74-2.31,3.74-6.28Z"/><path class="ah" d="M782.71,307.02h2.15v23.49h-2.15v-23.49Z"/><path class="ah" d="M787.88,307.02h2.15v23.49h-2.15v-23.49Z"/><path class="ah" d="M792.42,325.73v-.03c0-2.88,1.71-4.69,4.67-4.92l3.69-.28v-1.42c0-2.07-1.03-3.32-2.82-3.32-1.66,0-2.7,1.04-2.95,2.56l-.02.15h-2.08v-.18c.2-2.78,2.04-5.03,5.07-5.03s4.95,2.17,4.95,5.55v11.71h-2.15v-2.75h-.05c-.75,1.86-2.3,3.08-4.02,3.08-2.56,0-4.28-2.04-4.28-5.11ZM797.18,328.38c2.03,0,3.59-1.84,3.59-4.3v-1.38l-3.44.28c-1.72.13-2.71,1.14-2.71,2.72v.03c0,1.63,1.01,2.65,2.56,2.65Z"/><path class="ah" d="M805.65,313.58h2.15v2.87h.05c.8-1.97,2.24-3.19,4.08-3.19,3.29,0,5.47,3.45,5.47,8.79v.02c0,5.34-2.2,8.78-5.43,8.78-1.82,0-3.32-1.21-4.12-3.16h-.05v8.53h-2.15v-22.63ZM815.21,322.06v-.02c0-3.89-1.41-6.28-3.69-6.28s-3.72,2.49-3.72,6.28v.02c0,3.78,1.56,6.27,3.72,6.27,2.28,0,3.69-2.41,3.69-6.27Z"/><path class="ah" d="M819.01,325.77v-.15s2.14,0,2.14,0l.02.16c.26,1.69,1.21,2.69,2.97,2.69s2.78-.96,2.78-2.49v-.02c0-1.22-.48-1.9-1.94-2.38l-2.04-.65c-2.42-.77-3.6-2.25-3.6-4.69v-.02c0-2.91,1.94-4.98,4.73-4.98s4.62,2.17,4.78,5v.21s-2.04,0-2.04,0v-.11c-.19-1.64-1.14-2.74-2.74-2.74s-2.52.99-2.52,2.49v.02c0,1.16.58,1.95,2,2.41l2.04.65c2.6.83,3.54,2.18,3.54,4.59v.02c0,2.96-2.13,5.05-5,5.05-3.03,0-4.86-2.04-5.12-5.06Z"/><path class="ah" d="M830.73,322.11v-.02c0-5.24,2.28-8.84,5.79-8.84s5.66,3.44,5.66,8.51v1.04h-9.27c.05,3.48,1.51,5.52,3.8,5.52,1.63,0,2.78-1.07,3.16-2.52l.04-.15h2.12l-.02.16c-.42,2.8-2.52,5.01-5.33,5.01-3.7,0-5.93-3.4-5.93-8.73ZM832.94,320.6h7.04c-.21-3.29-1.6-4.84-3.48-4.84s-3.33,1.68-3.56,4.84Z"/><circle class="v" cx="915.98" cy="393.75" r="10"/><circle class="v" cx="942.98" cy="402.75" r="10"/><line class="l" x1="1014.5" y1="467.5" x2="956.1" y2="414.18"/><polygon class="ak" points="964.98 408.78 945.5 404.5 951.53 423.51 964.98 408.78"/><path class="ak" d="M113.12,508.88h-4.17v-1.43h5.78v3.63c0,3.01-2.36,5.14-5.66,5.14-3.89,0-6.14-2.71-6.14-7.41v-2.8c0-4.7,2.25-7.41,6.14-7.41,3.43,0,5.59,2.1,5.67,5.52h-1.61c-.09-2.4-1.73-4.03-4.07-4.03-2.98,0-4.54,2.04-4.54,5.92v2.8c0,3.88,1.56,5.92,4.54,5.92,2.5,0,4.05-1.49,4.05-3.88v-1.98Z"/><path class="ak" d="M118.8,515.87v-1.24h4.44v-10.14h-4.46v-1.24h6v11.38h4.32v1.24h-10.3ZM122.39,498.46c0-.8.66-1.45,1.45-1.45s1.45.66,1.45,1.45-.66,1.45-1.45,1.45-1.45-.66-1.45-1.45Z"/><path class="ak" d="M133.65,514.7l7.73-10.01v-.14h-7.72v-1.3h9.56v1.18l-7.71,10v.14h7.72v1.3h-9.59v-1.17Z"/><path class="ak" d="M159.26,515.87h-1.44v-8.71c0-1.82-.61-2.74-1.79-2.74-1.24,0-1.99,1.12-1.99,3v8.45h-1.44v-8.72c0-1.8-.61-2.73-1.8-2.73-1.27,0-2.04,1.14-2.04,3v8.45h-1.44v-12.62h1.39v1.69h.16c.33-1.17,1.25-1.9,2.41-1.9s2.06.7,2.33,1.9h.16c.34-1.15,1.41-1.9,2.71-1.9,1.84,0,2.78,1.28,2.78,3.77v9.06Z"/><path class="ak" d="M162.77,510.5v-1.88c0-3.4,2.09-5.58,5.34-5.58s5.34,2.18,5.34,5.58v1.88c0,3.4-2.09,5.58-5.34,5.58s-5.34-2.18-5.34-5.58ZM164.31,508.83v1.48c0,2.73,1.46,4.41,3.81,4.41s3.81-1.68,3.81-4.41v-1.48c0-2.73-1.46-4.41-3.81-4.41s-3.81,1.68-3.81,4.41Z"/><line class="l" x1="136.37" y1="474.35" x2="142.4" y2="404.45"/><polygon class="ak" points="152.08 408.22 143.64 390.15 132.21 406.5 152.08 408.22"/></g></svg>