<?xml version="1.0" encoding="UTF-8"?><svg xmlns="http://www.w3.org/2000/svg" viewBox="0 0 1200 675"><defs><style>.k,.l,.m{fill:none;}.n{fill:#1f2328;}.o{fill:#ff931e;}.p{fill:#ffd400;}.q{fill:#f0f;}.l{stroke:#2f353d;stroke-width:3px;}.l,.m{stroke-miterlimit:10;}.r{fill:#00aeef;}.s{fill:#fff;}.t{fill:green;}.m{stroke:#f0883e;stroke-width:2px;}.u{fill:#0067c0;}.v{fill:#2f353d;}.w{fill:#6a0dad;}.x{fill:red;}.y{fill:#f0f6fc;}.z{fill:#c9d1d9;}.aa{fill:#f0883e;}</style></defs><g id="a"><rect width="1200" height="675"/></g><g id="b"><rect class="s" x="550" y="232" width="100" height="100"/><rect class="z" x="630" y="252" width="20" height="20"/><rect class="z" x="610" y="232" width="20" height="20"/><rect class="z" x="590" y="252" width="20" height="20"/><rect class="z" x="570" y="232" width="20" height="20"/><rect class="z" x="550" y="252" width="20" height="20"/><rect class="z" x="630" y="292" width="20" height="20"/><rect class="z" x="610" y="272" width="20" height="20"/><rect class="z" x="590" y="292" width="20" height="20"/><rect class="z" x="570" y="272" width="20" height="20"/><rect class="z" x="550" y="292" width="20" height="20"/><rect class="z" x="610" y="312" width="20" height="20"/><rect class="z" x="570" y="312" width="20" height="20"/><path class="v" d="M41.07,631.42c0-3.63,2.8-6.43,6.35-6.43s6.35,2.8,6.35,6.43-2.8,6.43-6.35,6.43-6.35-2.8-6.35-6.43ZM52.53,631.42c0-2.95-2.24-5.29-5.11-5.29s-5.11,2.33-5.11,5.29,2.24,5.29,5.11,5.29,5.11-2.33,5.11-5.29ZM48.98,630.27c-.21-.64-.68-1.05-1.41-1.05-1.1,0-1.75.86-1.75,2.19s.64,2.19,1.75,2.19c.73,0,1.25-.39,1.41-.98h1.28c-.2,1.28-1.3,2.19-2.7,2.19-1.85,0-3.05-1.29-3.05-3.4s1.2-3.4,3.05-3.4c1.39,0,2.47.93,2.7,2.26h-1.28Z"/><path class="v" d="M76.97,622.61c2.96,0,5,1.9,5,4.66,0,1.72-.73,3.04-3.36,6.07l-4.23,4.89v.19h7.88v1.45h-10.24v-1.02l5.8-6.77c2.07-2.45,2.55-3.35,2.55-4.78,0-1.99-1.35-3.28-3.43-3.28s-3.41,1.39-3.41,3.55v.07h-1.58v-.07c0-2.87,2.12-4.96,5.03-4.96Z"/><path class="v" d="M86.48,631.42c0-5.72,1.93-8.85,5.46-8.85s5.46,3.13,5.46,8.85-1.93,8.85-5.46,8.85-5.46-3.13-5.46-8.85ZM88.22,633.93l7.15-6.54c-.57-2.25-1.72-3.41-3.43-3.41-2.53,0-3.86,2.55-3.86,7.44,0,.91.05,1.76.14,2.51ZM95.79,631.42c0-.94-.05-1.78-.14-2.54l-7.14,6.62c.57,2.21,1.72,3.36,3.42,3.36,2.53,0,3.86-2.55,3.86-7.44Z"/><path class="v" d="M106.64,622.61c2.96,0,5,1.9,5,4.66,0,1.72-.73,3.04-3.36,6.07l-4.23,4.89v.19h7.88v1.45h-10.24v-1.02l5.8-6.77c2.07-2.45,2.55-3.35,2.55-4.78,0-1.99-1.35-3.28-3.43-3.28s-3.41,1.39-3.41,3.55v.07h-1.58v-.07c0-2.87,2.12-4.96,5.03-4.96Z"/><path class="v" d="M116.09,635.5h1.54c.19,1.95,1.82,3.3,3.95,3.3,2.32,0,3.86-1.68,3.86-4.18s-1.56-4.25-3.86-4.25c-1.63,0-3,.76-3.69,2.04h-1.49l.88-9.45h8.84v1.44h-7.58l-.5,5.98h.18c.88-.98,2.05-1.48,3.5-1.48,3.13,0,5.32,2.34,5.32,5.68s-2.26,5.62-5.59,5.62c-3,0-5.14-1.89-5.34-4.71Z"/><path class="v" d="M146.64,639.87v-16.91h1.61v8.74h.14l7.18-8.74h2l-6.41,7.48,7.1,9.43h-2.07l-6.09-8.2-1.85,2.17v6.04h-1.61Z"/><path class="v" d="M160.76,634.5v-1.88c0-3.4,2.09-5.58,5.34-5.58s5.34,2.18,5.34,5.58v1.88c0,3.4-2.09,5.58-5.34,5.58s-5.34-2.18-5.34-5.58ZM162.3,632.83v1.48c0,2.73,1.46,4.41,3.81,4.41s3.81-1.68,3.81-4.41v-1.48c0-2.73-1.46-4.41-3.81-4.41s-3.81,1.68-3.81,4.41Z"/><path class="v" d="M175.95,622.22h1.46v7.3h.15c.69-1.59,2.17-2.48,4.12-2.48,2.75,0,4.24,1.63,4.24,4.63v8.2h-1.54v-7.82c0-2.47-1-3.63-3.12-3.63-2.26,0-3.8,1.61-3.8,3.95v7.5h-1.54v-17.65Z"/><path class="v" d="M200.97,636.75c-.42,2.02-2.34,3.33-4.89,3.33-3.4,0-5.37-2.1-5.37-5.7v-1.84c0-3.33,2.06-5.51,5.19-5.51s5.12,2.16,5.12,5.93v1h-8.78v.43c0,2.64,1.49,4.31,3.83,4.31,1.72,0,2.98-.73,3.36-1.96h1.52ZM192.25,632.7h7.22c0-2.68-1.34-4.3-3.56-4.3s-3.66,1.61-3.66,4.3Z"/><path class="v" d="M205.62,627.25h1.46v2.27h.15c.69-1.59,2.17-2.48,4.12-2.48,2.75,0,4.24,1.63,4.24,4.63v8.2h-1.54v-7.82c0-2.47-1-3.63-3.12-3.63-2.26,0-3.8,1.61-3.8,3.95v7.5h-1.54v-12.62Z"/><path class="v" d="M232.87,633.06v-1.36h14.84v1.36h-14.84Z"/><path class="v" d="M265.45,639.87h-1.5v-16.91h1.89l4.07,10.88h.13l4.04-10.88h1.9v16.91h-1.5v-13.79h-.12l-3.7,9.82h-1.38l-3.7-9.82h-.12v13.79Z"/><path class="v" d="M284,639.87v-15.46h-5.2v-1.45h12v1.45h-5.2v15.46h-1.59Z"/><path class="v" d="M300.16,622.96c3.18,0,5.3,2.11,5.3,5.26s-2.12,5.26-5.3,5.26h-3.81v6.39h-1.61v-16.91h5.41ZM296.35,632.05h3.42c2.57,0,4.05-1.41,4.05-3.83s-1.49-3.83-4.05-3.83h-3.42v7.66Z"/><path class="v" d="M321.88,633.06v-1.36h14.84v1.36h-14.84Z"/><path class="v" d="M354.17,639.87v-1.24h4.44v-10.14h-4.46v-1.24h6v11.38h4.32v1.24h-10.3ZM357.75,622.46c0-.8.66-1.45,1.45-1.45s1.45.66,1.45,1.45-.66,1.45-1.45,1.45-1.45-.66-1.45-1.45Z"/><path class="v" d="M379.79,639.87h-1.44v-8.71c0-1.82-.61-2.74-1.79-2.74-1.24,0-1.99,1.12-1.99,3v8.45h-1.44v-8.72c0-1.8-.61-2.73-1.8-2.73-1.27,0-2.04,1.14-2.04,3v8.45h-1.44v-12.62h1.39v1.69h.16c.33-1.17,1.25-1.9,2.41-1.9s2.06.7,2.33,1.9h.16c.34-1.15,1.41-1.9,2.71-1.9,1.84,0,2.78,1.28,2.78,3.77v9.06Z"/><path class="v" d="M392.29,627.25h1.95l-4.99,4.89,5.34,7.73h-1.85l-4.57-6.68-1.95,1.9v4.78h-1.54v-17.65h1.54v10.97h.14l5.93-5.94Z"/><path class="v" d="M398.14,634.5v-1.88c0-3.4,2.09-5.58,5.34-5.58s5.34,2.18,5.34,5.58v1.88c0,3.4-2.09,5.58-5.34,5.58s-5.34-2.18-5.34-5.58ZM399.67,632.83v1.48c0,2.73,1.46,4.41,3.81,4.41s3.81-1.68,3.81-4.41v-1.48c0-2.73-1.46-4.41-3.81-4.41s-3.81,1.68-3.81,4.41Z"/><path class="v" d="M413.32,622.22h1.46v7.3h.15c.69-1.59,2.17-2.48,4.12-2.48,2.75,0,4.24,1.63,4.24,4.63v8.2h-1.54v-7.82c0-2.47-1-3.63-3.12-3.63-2.26,0-3.8,1.61-3.8,3.95v7.5h-1.54v-17.65Z"/><path class="v" d="M438.34,636.75c-.42,2.02-2.34,3.33-4.89,3.33-3.4,0-5.37-2.1-5.37-5.7v-1.84c0-3.33,2.06-5.51,5.19-5.51s5.12,2.16,5.12,5.93v1h-8.78v.43c0,2.64,1.49,4.31,3.83,4.31,1.72,0,2.98-.73,3.36-1.96h1.52ZM429.62,632.7h7.22c0-2.68-1.34-4.3-3.56-4.3s-3.66,1.61-3.66,4.3Z"/><path class="v" d="M443,627.25h1.46v2.27h.15c.69-1.59,2.17-2.48,4.12-2.48,2.75,0,4.24,1.63,4.24,4.63v8.2h-1.54v-7.82c0-2.47-1-3.63-3.12-3.63-2.26,0-3.8,1.61-3.8,3.95v7.5h-1.54v-12.62Z"/><path class="v" d="M457.68,636.31c0-2.21,1.58-3.54,4.37-3.67l3.66-.16v-1.2c0-1.82-1.04-2.8-2.98-2.8-1.59,0-2.7.68-3.05,1.9h-1.52c.23-1.89,2.13-3.23,4.57-3.23,2.86,0,4.52,1.5,4.52,4.07v8.67h-1.48v-1.99h-.16c-.6,1.42-1.99,2.2-3.9,2.2-2.43,0-4.03-1.5-4.03-3.79ZM465.71,635.51v-1.76l-3.55.15c-1.89.08-2.89.93-2.89,2.4s1.08,2.43,2.82,2.43c2.04,0,3.62-1.41,3.62-3.22Z"/><path class="v" d="M482.65,639.87h-1.46v-2.27h-.15c-.69,1.59-2.17,2.48-4.12,2.48-2.75,0-4.24-1.63-4.24-4.63v-8.2h1.54v7.82c0,2.47,1,3.63,3.12,3.63,2.26,0,3.8-1.61,3.8-3.95v-7.5h1.54v12.62Z"/><path class="v" d="M492.57,627.04c2.47,0,4.22,1.28,4.49,3.27h-1.51c-.27-1.23-1.42-1.99-3.02-1.99-1.76,0-2.88.84-2.88,2.16,0,1.1.69,1.71,2.41,2.11l1.71.4c2.43.57,3.53,1.64,3.53,3.42,0,2.23-1.89,3.68-4.76,3.68s-4.59-1.3-4.83-3.38h1.59c.33,1.3,1.55,2.06,3.3,2.06,1.89,0,3.09-.89,3.09-2.27,0-1.15-.67-1.76-2.39-2.17l-1.86-.45c-2.25-.53-3.35-1.63-3.35-3.35,0-2.07,1.82-3.49,4.48-3.49Z"/><path class="v" d="M512.52,636.75c-.42,2.02-2.34,3.33-4.89,3.33-3.4,0-5.37-2.1-5.37-5.7v-1.84c0-3.33,2.06-5.51,5.19-5.51s5.12,2.16,5.12,5.93v1h-8.78v.43c0,2.64,1.49,4.31,3.83,4.31,1.72,0,2.98-.73,3.36-1.96h1.52ZM503.8,632.7h7.22c0-2.68-1.34-4.3-3.56-4.3s-3.66,1.61-3.66,4.3Z"/><path class="v" d="M521.57,638.63h4.01v1.24h-8.14v-1.24h2.6v-10.14h-2.86v-1.24h4.36v3.21h.16c.43-2.25,2.1-3.53,4.56-3.53.73,0,1.44.11,1.84.28v1.68c-.59-.21-1.39-.35-2.07-.35-2.72,0-4.45,2.2-4.45,5.66v4.43Z"/><path class="v" d="M535.06,637.93c0-1.07.88-1.95,1.95-1.95s1.95.88,1.95,1.95-.88,1.95-1.95,1.95-1.95-.88-1.95-1.95Z"/><path class="v" d="M555.4,630.96c-.26-1.5-1.65-2.54-3.38-2.54-2.4,0-3.74,1.61-3.74,4.5v1.28c0,2.89,1.34,4.5,3.74,4.5,1.72,0,3.12-1.04,3.38-2.54h1.52c-.33,2.37-2.25,3.93-4.86,3.93-3.32,0-5.31-2.11-5.31-5.62v-1.79c0-3.52,1.99-5.62,5.31-5.62,2.61,0,4.54,1.56,4.86,3.93h-1.52Z"/><path class="v" d="M561.33,634.5v-1.88c0-3.4,2.09-5.58,5.34-5.58s5.34,2.18,5.34,5.58v1.88c0,3.4-2.09,5.58-5.34,5.58s-5.34-2.18-5.34-5.58ZM562.87,632.83v1.48c0,2.73,1.46,4.41,3.81,4.41s3.81-1.68,3.81-4.41v-1.48c0-2.73-1.46-4.41-3.81-4.41s-3.81,1.68-3.81,4.41Z"/><path class="v" d="M587.49,639.87h-1.44v-8.71c0-1.82-.61-2.74-1.79-2.74-1.24,0-1.99,1.12-1.99,3v8.45h-1.44v-8.72c0-1.8-.61-2.73-1.8-2.73-1.27,0-2.04,1.14-2.04,3v8.45h-1.44v-12.62h1.39v1.69h.16c.33-1.17,1.25-1.9,2.41-1.9s2.06.7,2.33,1.9h.16c.34-1.15,1.41-1.9,2.71-1.9,1.84,0,2.78,1.28,2.78,3.77v9.06Z"/><path class="v" d="M591.45,641.03l8.33-19.23h1.46l-8.33,19.23h-1.46Z"/><path class="v" d="M617.16,639.87h-1.44v-8.71c0-1.82-.61-2.74-1.79-2.74-1.24,0-1.99,1.12-1.99,3v8.45h-1.44v-8.72c0-1.8-.61-2.73-1.8-2.73-1.27,0-2.04,1.14-2.04,3v8.45h-1.44v-12.62h1.39v1.69h.16c.33-1.17,1.25-1.9,2.41-1.9s2.06.7,2.33,1.9h.16c.34-1.15,1.41-1.9,2.71-1.9,1.84,0,2.78,1.28,2.78,3.77v9.06Z"/><path class="v" d="M625.57,623.97v3.28h5.29v1.3h-5.29v7.63c0,1.56,1.08,2.4,3.08,2.4.87,0,1.79-.04,2.2-.09v1.31c-.38.07-1.56.14-2.29.14-3.04,0-4.54-1.23-4.54-3.71v-7.68h-3.4v-1.3h3.4v-3.28h1.54Z"/><path class="v" d="M646.34,632.35v2.43c0,3.15-1.99,5.31-4.92,5.31-1.83,0-3.21-.75-3.81-2.07h-.21v6.14h-1.54v-16.9h1.46v1.82h.21c.74-1.32,2.09-2.03,3.88-2.03,2.93,0,4.92,2.16,4.92,5.31ZM637.36,632.72v1.69c0,2.61,1.46,4.3,3.71,4.3s3.73-1.7,3.73-4.3v-1.69c0-2.6-1.46-4.3-3.73-4.3s-3.71,1.69-3.71,4.3Z"/><path class="y" d="M829.91,525.32v-.02c0-8.81,4.79-14.39,12.27-14.39,6.16,0,9.85,3.73,11.1,8.71l.09.37h-3.51l-.07-.21c-1.24-3.57-3.84-5.62-7.61-5.62-5.51,0-8.85,4.2-8.85,11.15v.02c0,7.09,3.4,11.46,8.85,11.46,4.75,0,8.02-3.24,8.02-7.97v-.51h-7.55v-3.09h10.89v2.68c0,7.62-4.21,12.13-11.36,12.13s-12.27-5.72-12.27-14.71Z"/><path class="y" d="M857.3,519.25h3.23v3.44h.07c.65-2.34,2.32-3.83,4.49-3.83.56,0,1.04.1,1.3.14v3.3c-.26-.1-.95-.2-1.72-.2-2.51,0-4.14,1.84-4.14,4.92v12.54h-3.23v-20.31Z"/><path class="y" d="M867.13,529.48v-.02c0-6.29,3.41-10.61,8.68-10.61s8.48,4.12,8.48,10.21v1.25h-13.9c.07,4.18,2.26,6.62,5.7,6.62,2.45,0,4.17-1.29,4.73-3.03l.06-.18h3.17l-.04.2c-.63,3.36-3.79,6.02-8,6.02-5.55,0-8.89-4.08-8.89-10.47ZM870.45,527.67h10.56c-.31-3.95-2.39-5.8-5.21-5.8s-4.99,2.01-5.34,5.8Z"/><path class="y" d="M886.6,529.48v-.02c0-6.29,3.41-10.61,8.68-10.61s8.48,4.12,8.48,10.21v1.25h-13.9c.07,4.18,2.26,6.62,5.7,6.62,2.45,0,4.18-1.29,4.73-3.03l.05-.18h3.17l-.04.2c-.63,3.36-3.79,6.02-8,6.02-5.55,0-8.89-4.08-8.89-10.47ZM889.92,527.67h10.56c-.32-3.95-2.39-5.8-5.21-5.8s-4.99,2.01-5.34,5.8Z"/><path class="y" d="M907.27,511.38h3.23v16.84h.07l8.46-8.96h3.91l-8.37,8.77,8.63,11.54h-3.75l-7.16-9.47-1.8,1.82v7.66h-3.23v-28.18Z"/><path class="y" d="M933.74,511.38h9.54c5.03,0,8.59,3.65,8.59,9v.04c0,5.35-3.56,9.08-8.59,9.08h-6.2v10.06h-3.34v-28.18ZM937.08,514.5v11.88h5.34c3.82,0,6.03-2.21,6.03-5.92v-.04c0-3.71-2.21-5.92-6.03-5.92h-5.34Z"/><path class="y" d="M955.36,511.38h3.23v11.11h.07c1.04-2.29,3.13-3.63,6.01-3.63,4.1,0,6.9,3.34,6.9,8.26v12.44h-3.23v-11.86c0-3.67-1.78-5.84-4.79-5.84s-4.97,2.38-4.97,5.84v11.86h-3.23v-28.18Z"/><path class="y" d="M975.47,513.68c0-1.19.91-2.13,2.02-2.13s2.02.94,2.02,2.13-.89,2.13-2.02,2.13-2.02-.96-2.02-2.13ZM975.88,519.25h3.23v20.31h-3.23v-20.31Z"/><path class="y" d="M983.67,511.38h3.23v28.18h-3.23v-28.18Z"/><path class="y" d="M990.32,529.4v-.04c0-6.46,3.6-10.51,8.92-10.51s8.94,4.02,8.94,10.51v.04c0,6.48-3.6,10.55-8.92,10.55s-8.94-4.08-8.94-10.55ZM1004.88,529.4v-.04c0-4.77-2.23-7.5-5.64-7.5s-5.62,2.75-5.62,7.5v.04c0,4.79,2.24,7.54,5.66,7.54s5.6-2.77,5.6-7.54Z"/><path class="y" d="M1010.6,533.88l-.02-.18h3.23l.04.2c.39,2.03,1.82,3.22,4.45,3.22s4.17-1.15,4.17-2.99v-.02c0-1.46-.72-2.29-2.91-2.85l-3.06-.78c-3.64-.92-5.4-2.7-5.4-5.62v-.02c0-3.5,2.91-5.98,7.09-5.98s6.92,2.6,7.16,6l.02.25h-3.08l-.02-.14c-.26-1.97-1.69-3.28-4.08-3.28s-3.79,1.19-3.79,2.99v.02c0,1.39.87,2.34,3.01,2.89l3.06.78c3.9,1,5.31,2.62,5.31,5.51v.02c0,3.55-3.19,6.05-7.5,6.05-4.54,0-7.29-2.44-7.68-6.07Z"/><path class="y" d="M1028.17,529.4v-.04c0-6.46,3.6-10.51,8.92-10.51s8.94,4.02,8.94,10.51v.04c0,6.48-3.6,10.55-8.92,10.55s-8.94-4.08-8.94-10.55ZM1042.73,529.4v-.04c0-4.77-2.23-7.5-5.64-7.5s-5.62,2.75-5.62,7.5v.04c0,4.79,2.24,7.54,5.66,7.54s5.6-2.77,5.6-7.54Z"/><path class="y" d="M1049.28,519.25h3.23v3.44h.07c1.21-2.36,3.36-3.83,6.12-3.83,4.94,0,8.2,4.14,8.2,10.55v.02c0,6.41-3.3,10.53-8.15,10.53-2.73,0-4.97-1.45-6.18-3.79h-.07v10.23h-3.23v-27.15ZM1063.61,529.42v-.02c0-4.67-2.12-7.54-5.53-7.54s-5.59,2.99-5.59,7.54v.02c0,4.53,2.34,7.52,5.59,7.52,3.41,0,5.53-2.89,5.53-7.52Z"/><path class="y" d="M1070.32,511.38h3.23v11.11h.07c1.04-2.29,3.13-3.63,6.01-3.63,4.1,0,6.9,3.34,6.9,8.26v12.44h-3.23v-11.86c0-3.67-1.78-5.84-4.79-5.84s-4.97,2.38-4.97,5.84v11.86h-3.23v-28.18Z"/><path class="y" d="M1090.77,546.24v-2.77c.28.06.65.12,1.04.12,2.04,0,3.17-.55,3.95-2.85l.39-1.15-7.16-20.33h3.45l5.32,16.91h.07l5.34-16.91h3.4l-7.53,21.58c-1.37,3.89-3.06,5.57-6.55,5.57-.63,0-1.32-.08-1.72-.16Z"/><path class="y" d="M453.11,525.46v-.02c0-8.87,4.77-14.53,12.23-14.53,5.57,0,9.89,3.55,10.91,8.89l.04.2h-3.38l-.13-.43c-1.04-3.42-3.67-5.41-7.44-5.41-5.34,0-8.79,4.43-8.79,11.29v.02c0,6.86,3.47,11.33,8.79,11.33,3.75,0,6.35-1.95,7.51-5.66l.06-.18h3.38l-.04.2c-1.02,5.39-5.31,8.89-10.91,8.89-7.44,0-12.23-5.7-12.23-14.57Z"/><path class="y" d="M478.77,529.4v-.04c0-6.46,3.6-10.51,8.92-10.51s8.94,4.02,8.94,10.51v.04c0,6.48-3.6,10.55-8.92,10.55s-8.94-4.08-8.94-10.55ZM493.33,529.4v-.04c0-4.77-2.23-7.5-5.64-7.5s-5.62,2.75-5.62,7.5v.04c0,4.79,2.25,7.54,5.66,7.54s5.6-2.77,5.6-7.54Z"/><path class="y" d="M500.05,511.38h3.23v28.18h-3.23v-28.18Z"/><path class="y" d="M506.69,529.4v-.04c0-6.46,3.6-10.51,8.92-10.51s8.94,4.02,8.94,10.51v.04c0,6.48-3.6,10.55-8.92,10.55s-8.94-4.08-8.94-10.55ZM521.26,529.4v-.04c0-4.77-2.23-7.5-5.64-7.5s-5.62,2.75-5.62,7.5v.04c0,4.79,2.25,7.54,5.66,7.54s5.6-2.77,5.6-7.54Z"/><path class="y" d="M527.81,519.25h3.23v3.44h.07c.65-2.34,2.32-3.83,4.49-3.83.56,0,1.04.1,1.3.14v3.3c-.26-.1-.95-.2-1.73-.2-2.5,0-4.14,1.84-4.14,4.92v12.54h-3.23v-20.31Z"/><path class="y" d="M546.77,525.48v-.04c0-8.93,4.77-14.53,12.36-14.53s12.32,5.61,12.32,14.53v.04c0,8.95-4.73,14.55-12.32,14.55s-12.36-5.61-12.36-14.55ZM568.03,525.48v-.04c0-6.91-3.45-11.29-8.91-11.29s-8.94,4.36-8.94,11.29v.04c0,6.93,3.45,11.31,8.94,11.31s8.91-4.43,8.91-11.31Z"/><path class="y" d="M575.1,519.25h3.23v3.44h.07c1.21-2.36,3.36-3.83,6.12-3.83,4.94,0,8.2,4.14,8.2,10.55v.02c0,6.41-3.3,10.53-8.15,10.53-2.73,0-4.97-1.45-6.18-3.79h-.07v10.23h-3.23v-27.15ZM589.43,529.42v-.02c0-4.67-2.12-7.54-5.53-7.54s-5.58,2.99-5.58,7.54v.02c0,4.53,2.34,7.52,5.58,7.52,3.41,0,5.53-2.89,5.53-7.52Z"/><path class="y" d="M596.96,534.39v-12.32h-2.82v-2.81h2.82v-5.49h3.34v5.49h3.67v2.81h-3.67v12.3c0,2.17.91,2.77,2.63,2.77.39,0,.76-.06,1.04-.08v2.75c-.41.06-1.09.14-1.73.14-3.54,0-5.29-1.68-5.29-5.57Z"/><path class="y" d="M607.22,513.68c0-1.19.91-2.13,2.02-2.13s2.02.94,2.02,2.13-.89,2.13-2.02,2.13-2.02-.96-2.02-2.13ZM607.63,519.25h3.23v20.31h-3.23v-20.31Z"/><path class="y" d="M615.26,519.25h3.23v2.97h.07c.87-2.01,2.8-3.36,5.29-3.36,2.63,0,4.58,1.43,5.42,3.91h.07c1.08-2.44,3.34-3.91,6.05-3.91,3.82,0,6.29,2.64,6.29,6.68v14.02h-3.23v-13.24c0-2.79-1.47-4.45-4.01-4.45s-4.36,2.01-4.36,4.79v12.91h-3.23v-13.61c0-2.46-1.56-4.08-3.95-4.08-2.56,0-4.42,2.13-4.42,4.96v12.73h-3.23v-20.31Z"/><path class="y" d="M645.57,513.68c0-1.19.91-2.13,2.02-2.13s2.02.94,2.02,2.13-.89,2.13-2.02,2.13-2.02-.96-2.02-2.13ZM645.98,519.25h3.23v20.31h-3.23v-20.31Z"/><path class="y" d="M653.2,537.14l10.67-15.02v-.06h-10.65v-2.81h14.32v2.48l-10.59,14.96v.06h10.65v2.81h-14.4v-2.42Z"/><path class="y" d="M670.6,533.82v-.04c0-3.46,2.56-5.62,7-5.9l5.53-.33v-1.7c0-2.48-1.54-3.98-4.23-3.98-2.49,0-4.04,1.25-4.42,3.07l-.04.18h-3.12l.02-.21c.28-3.34,3.04-6.04,7.59-6.04s7.42,2.6,7.42,6.66v14.04h-3.23v-3.3h-.07c-1.13,2.23-3.45,3.69-6.03,3.69-3.84,0-6.42-2.44-6.42-6.13ZM677.75,537c3.04,0,5.38-2.21,5.38-5.16v-1.66l-5.16.33c-2.58.16-4.06,1.37-4.06,3.26v.04c0,1.95,1.52,3.18,3.84,3.18Z"/><path class="y" d="M691.44,534.39v-12.32h-2.82v-2.81h2.82v-5.49h3.34v5.49h3.67v2.81h-3.67v12.3c0,2.17.91,2.77,2.63,2.77.39,0,.76-.06,1.04-.08v2.75c-.41.06-1.09.14-1.73.14-3.54,0-5.29-1.68-5.29-5.57Z"/><path class="y" d="M701.7,513.68c0-1.19.91-2.13,2.02-2.13s2.02.94,2.02,2.13-.89,2.13-2.02,2.13-2.02-.96-2.02-2.13ZM702.11,519.25h3.23v20.31h-3.23v-20.31Z"/><path class="y" d="M708.79,529.4v-.04c0-6.46,3.6-10.51,8.92-10.51s8.94,4.02,8.94,10.51v.04c0,6.48-3.6,10.55-8.92,10.55s-8.94-4.08-8.94-10.55ZM723.36,529.4v-.04c0-4.77-2.23-7.5-5.64-7.5s-5.62,2.75-5.62,7.5v.04c0,4.79,2.25,7.54,5.66,7.54s5.6-2.77,5.6-7.54Z"/><path class="y" d="M729.91,519.25h3.23v2.89h.07c1.04-1.89,3.01-3.28,5.94-3.28,4.23,0,6.68,2.89,6.68,7.52v13.18h-3.23v-12.58c0-3.3-1.47-5.12-4.43-5.12s-5.03,2.29-5.03,5.74v11.95h-3.23v-20.31Z"/><path class="y" d="M116.18,511.38h17.11v3.16h-13.59v9.69h12.48v3.12h-12.48v12.21h-3.52v-28.18Z"/><path class="y" d="M136.95,513.68c0-1.19.96-2.13,2.13-2.13s2.13.94,2.13,2.13-.94,2.13-2.13,2.13-2.13-.96-2.13-2.13ZM137.38,519.25h3.4v20.31h-3.4v-20.31Z"/><path class="y" d="M144.05,519.25h3.57l5.61,16.7h.08l5.62-16.7h3.54l-7.46,20.31h-3.48l-7.48-20.31Z"/><path class="y" d="M163.75,529.48v-.02c0-6.29,3.59-10.61,9.14-10.61s8.93,4.12,8.93,10.21v1.25h-14.63c.08,4.18,2.38,6.62,6,6.62,2.58,0,4.39-1.29,4.98-3.03l.06-.18h3.34l-.04.2c-.66,3.36-3.98,6.02-8.42,6.02-5.84,0-9.36-4.08-9.36-10.47ZM167.25,527.67h11.11c-.33-3.95-2.52-5.8-5.49-5.8s-5.25,2.01-5.62,5.8Z"/><path class="y" d="M194.77,511.38h17.46v3.16h-13.95v9.04h13.22v3.12h-13.22v9.69h13.95v3.16h-17.46v-28.18Z"/><path class="y" d="M216.9,511.38h3.4v28.18h-3.4v-28.18Z"/><path class="y" d="M224.29,529.48v-.02c0-6.29,3.59-10.61,9.14-10.61s8.93,4.12,8.93,10.21v1.25h-14.63c.08,4.18,2.38,6.62,6,6.62,2.58,0,4.39-1.29,4.98-3.03l.06-.18h3.34l-.04.2c-.66,3.36-3.98,6.02-8.42,6.02-5.84,0-9.36-4.08-9.36-10.47ZM227.79,527.67h11.11c-.33-3.95-2.52-5.8-5.49-5.8s-5.25,2.01-5.62,5.8Z"/><path class="y" d="M246.18,519.25h3.4v2.97h.08c.92-2.01,2.95-3.36,5.57-3.36,2.77,0,4.82,1.43,5.7,3.91h.08c1.13-2.44,3.52-3.91,6.37-3.91,4.02,0,6.62,2.64,6.62,6.68v14.02h-3.4v-13.24c0-2.79-1.54-4.45-4.22-4.45s-4.59,2.01-4.59,4.79v12.91h-3.4v-13.61c0-2.46-1.64-4.08-4.16-4.08-2.7,0-4.65,2.13-4.65,4.96v12.73h-3.4v-20.31Z"/><path class="y" d="M277.71,529.48v-.02c0-6.29,3.59-10.61,9.14-10.61s8.93,4.12,8.93,10.21v1.25h-14.63c.08,4.18,2.38,6.62,6,6.62,2.58,0,4.39-1.29,4.98-3.03l.06-.18h3.34l-.04.2c-.66,3.36-3.98,6.02-8.42,6.02-5.84,0-9.36-4.08-9.36-10.47ZM281.21,527.67h11.11c-.33-3.95-2.52-5.8-5.49-5.8s-5.25,2.01-5.62,5.8Z"/><path class="y" d="M299.6,519.25h3.4v2.89h.08c1.09-1.89,3.16-3.28,6.25-3.28,4.45,0,7.03,2.89,7.03,7.52v13.18h-3.4v-12.58c0-3.3-1.54-5.12-4.67-5.12s-5.29,2.29-5.29,5.74v11.95h-3.4v-20.31Z"/><path class="y" d="M322.11,534.39v-12.32h-2.97v-2.81h2.97v-5.49h3.52v5.49h3.87v2.81h-3.87v12.3c0,2.17.96,2.77,2.77,2.77.41,0,.8-.06,1.09-.08v2.75c-.43.06-1.15.14-1.82.14-3.73,0-5.57-1.68-5.57-5.57Z"/><path class="y" d="M332.64,533.88l-.02-.18h3.4l.04.2c.41,2.03,1.91,3.22,4.69,3.22s4.39-1.15,4.39-2.99v-.02c0-1.46-.76-2.29-3.07-2.85l-3.22-.78c-3.83-.92-5.68-2.7-5.68-5.62v-.02c0-3.5,3.07-5.98,7.46-5.98s7.29,2.6,7.54,6l.02.25h-3.24l-.02-.14c-.27-1.97-1.78-3.28-4.3-3.28s-3.98,1.19-3.98,2.99v.02c0,1.39.92,2.34,3.16,2.89l3.22.78c4.1,1,5.59,2.62,5.59,5.51v.02c0,3.55-3.36,6.05-7.89,6.05-4.79,0-7.68-2.44-8.09-6.07Z"/><rect class="k" x="555" y="247" width="90" height="70"/><path class="n" d="M568.37,258.8h-6.4v-2.37h15.33v2.37h-6.4v18.76h-2.53v-18.76Z"/><path class="n" d="M576.35,262.33h2.45v2.58h.06c.49-1.76,1.76-2.87,3.41-2.87.42,0,.79.07.98.1v2.48c-.2-.07-.72-.15-1.31-.15-1.9,0-3.14,1.38-3.14,3.69v9.4h-2.45v-15.23Z"/><path class="n" d="M584.36,273.26v-.03c0-2.59,1.94-4.22,5.3-4.42l4.19-.25v-1.27c0-1.86-1.17-2.99-3.21-2.99-1.88,0-3.07.94-3.35,2.3l-.03.13h-2.36v-.16c.22-2.5,2.32-4.53,5.77-4.53s5.63,1.95,5.63,5v10.53h-2.45v-2.48h-.06c-.86,1.67-2.62,2.77-4.57,2.77-2.91,0-4.87-1.83-4.87-4.6ZM589.77,275.65c2.31,0,4.08-1.66,4.08-3.87v-1.25l-3.91.25c-1.96.12-3.08,1.03-3.08,2.45v.03c0,1.46,1.15,2.39,2.91,2.39Z"/><path class="n" d="M599.4,262.33h2.45v2.17h.06c.79-1.42,2.28-2.46,4.5-2.46,3.21,0,5.06,2.17,5.06,5.64v9.89h-2.45v-9.43c0-2.48-1.11-3.84-3.36-3.84s-3.81,1.71-3.81,4.31v8.96h-2.45v-15.23Z"/><path class="n" d="M613.94,273.31v-.13s2.43,0,2.43,0l.03.15c.29,1.52,1.38,2.42,3.38,2.42s3.17-.86,3.17-2.24h0c0-1.11-.55-1.73-2.21-2.15l-2.32-.59c-2.76-.69-4.09-2.02-4.09-4.22h0c0-2.64,2.21-4.5,5.37-4.5s5.25,1.95,5.43,4.5v.19s-2.32,0-2.32,0v-.1c-.21-1.48-1.29-2.46-3.11-2.46s-2.87.89-2.87,2.24h0c0,1.05.66,1.77,2.28,2.18l2.32.59c2.95.75,4.02,1.96,4.02,4.13h0c0,2.68-2.42,4.56-5.68,4.56-3.45,0-5.53-1.83-5.82-4.56Z"/><path class="n" d="M628.06,267.81h9v2.37h-9v-2.37Z"/><path class="n" d="M563.07,292.33h2.45v2.58h.06c.92-1.77,2.55-2.87,4.64-2.87,3.74,0,6.22,3.11,6.22,7.91h0c0,4.82-2.5,7.91-6.18,7.91-2.07,0-3.77-1.08-4.68-2.84h-.06v7.68h-2.45v-20.36ZM573.93,299.97h0c0-3.52-1.6-5.67-4.19-5.67s-4.23,2.24-4.23,5.65h0c0,3.41,1.77,5.65,4.23,5.65,2.59,0,4.19-2.17,4.19-5.64Z"/><path class="n" d="M578.29,303.26v-.03c0-2.59,1.94-4.22,5.3-4.42l4.19-.25v-1.27c0-1.86-1.17-2.99-3.21-2.99-1.88,0-3.07.94-3.35,2.3l-.03.13h-2.36v-.16c.22-2.5,2.32-4.53,5.77-4.53s5.63,1.95,5.63,5v10.53h-2.45v-2.48h-.06c-.86,1.67-2.62,2.77-4.57,2.77-2.91,0-4.87-1.83-4.87-4.6ZM583.71,305.65c2.31,0,4.08-1.66,4.08-3.87v-1.25l-3.91.25c-1.96.12-3.08,1.03-3.08,2.45v.03c0,1.46,1.15,2.39,2.91,2.39Z"/><path class="n" d="M593.34,292.33h2.45v2.58h.06c.49-1.76,1.76-2.87,3.41-2.87.42,0,.79.07.98.1v2.48c-.2-.07-.72-.15-1.31-.15-1.9,0-3.14,1.38-3.14,3.69v9.4h-2.45v-15.23Z"/><path class="n" d="M600.79,300.01h0c0-4.73,2.59-7.97,6.58-7.97s6.43,3.09,6.43,7.66v.94h-10.54c.06,3.13,1.72,4.97,4.32,4.97,1.86,0,3.17-.97,3.59-2.27l.04-.13h2.41l-.03.15c-.48,2.52-2.87,4.51-6.06,4.51-4.21,0-6.74-3.06-6.74-7.85ZM603.31,298.65h8c-.24-2.96-1.81-4.35-3.95-4.35s-3.78,1.51-4.05,4.35Z"/><path class="n" d="M616.26,292.33h2.45v2.17h.06c.79-1.42,2.28-2.46,4.5-2.46,3.21,0,5.06,2.17,5.06,5.64v9.89h-2.45v-9.43c0-2.48-1.11-3.84-3.36-3.84s-3.81,1.71-3.81,4.31v8.96h-2.45v-15.23Z"/><path class="n" d="M632.18,303.69v-9.24h-2.14v-2.11h2.14v-4.12h2.53v4.12h2.79v2.11h-2.79v9.23c0,1.63.69,2.08,2,2.08.3,0,.58-.04.79-.06v2.07c-.31.04-.83.1-1.31.1-2.69,0-4.01-1.26-4.01-4.17Z"/><rect class="x" x="550" y="132" width="100" height="100"/><rect class="k" x="555" y="147" width="90" height="70"/><path class="y" d="M577.08,171.43h7.92c4.07,0,6.74,2.49,6.74,6.3v.03c0,2.93-1.61,5.2-4.25,6.04l4.89,8.77h-3.09l-4.53-8.36h-5.05v8.36h-2.64v-21.14ZM584.77,181.88c2.71,0,4.25-1.46,4.25-4.06v-.03c0-2.52-1.66-4.01-4.37-4.01h-4.94v8.1h5.05Z"/><path class="y" d="M593.91,185.01h0c0-4.73,2.7-7.97,6.86-7.97s6.69,3.09,6.69,7.66v.94h-10.97c.06,3.13,1.79,4.97,4.5,4.97,1.93,0,3.3-.97,3.74-2.27l.04-.13h2.5l-.03.15c-.5,2.52-2.99,4.51-6.31,4.51-4.38,0-7.02-3.06-7.02-7.85ZM596.53,183.65h8.33c-.25-2.96-1.89-4.35-4.12-4.35s-3.94,1.51-4.22,4.35Z"/><path class="y" d="M609.27,184.95h0c0-4.82,2.61-7.91,6.43-7.91,2.15,0,3.93,1.08,4.88,2.84h.06v-8.45h2.55v21.14h-2.55v-2.58h-.06c-.95,1.77-2.65,2.87-4.83,2.87-3.9,0-6.47-3.11-6.47-7.91ZM620.65,184.95h0c0-3.41-1.85-5.65-4.41-5.65-2.7,0-4.37,2.17-4.37,5.64h0c0,3.52,1.67,5.67,4.37,5.67s4.41-2.24,4.41-5.65Z"/><rect class="u" x="550" y="332" width="100" height="100"/><rect class="k" x="555" y="347" width="90" height="70"/><path class="y" d="M574.34,371.43h8.01c3.62,0,6.06,2.11,6.06,5.27v.03c0,2.18-1.64,4.31-3.82,4.61v.06c3.05.35,4.89,2.4,4.89,5.2v.03c0,3.72-2.67,5.93-7.16,5.93h-7.98v-21.14ZM576.97,373.76v6.78h3.96c3.12,0,4.82-1.25,4.82-3.53v-.03c0-2.08-1.45-3.22-4-3.22h-4.78ZM576.97,382.81v7.43h4.95c3.16,0,4.85-1.27,4.85-3.71v-.03c0-2.45-1.73-3.69-5.1-3.69h-4.7Z"/><path class="y" d="M592.21,371.43h2.55v21.14h-2.55v-21.14Z"/><path class="y" d="M598.12,387.22v-9.89h2.55v9.43c0,2.48,1.16,3.84,3.5,3.84s3.97-1.71,3.97-4.31v-8.96h2.55v15.23h-2.55v-2.17h-.06c-.82,1.42-2.37,2.46-4.69,2.46-3.34,0-5.27-2.17-5.27-5.64Z"/><path class="y" d="M613.26,385.01h0c0-4.73,2.7-7.97,6.86-7.97s6.69,3.09,6.69,7.66v.94h-10.97c.06,3.13,1.79,4.97,4.5,4.97,1.93,0,3.3-.97,3.74-2.27l.04-.13h2.5l-.03.15c-.5,2.52-2.99,4.51-6.31,4.51-4.38,0-7.02-3.06-7.02-7.85ZM615.88,383.65h8.33c-.25-2.96-1.89-4.35-4.12-4.35s-3.94,1.51-4.22,4.35Z"/><rect class="t" x="450" y="232" width="100" height="100"/><rect class="k" x="455" y="247" width="90" height="70"/><path class="y" d="M463.11,281.89h0c0-6.62,3.78-10.81,9.68-10.81,4.86,0,7.78,2.8,8.76,6.53l.07.28h-2.77l-.06-.16c-.98-2.68-3.03-4.22-6.01-4.22-4.35,0-6.99,3.15-6.99,8.36h0c0,5.33,2.68,8.61,6.99,8.61,3.75,0,6.33-2.43,6.33-5.98v-.38h-5.96v-2.31h8.6v2.01c0,5.71-3.33,9.1-8.96,9.1s-9.68-4.29-9.68-11.03Z"/><path class="y" d="M484.73,277.33h2.55v2.58h.06c.51-1.76,1.83-2.87,3.54-2.87.44,0,.82.07,1.03.1v2.48c-.21-.07-.75-.15-1.36-.15-1.98,0-3.27,1.38-3.27,3.69v9.4h-2.55v-15.23Z"/><path class="y" d="M492.49,285.01h0c0-4.73,2.7-7.97,6.86-7.97s6.69,3.09,6.69,7.66v.94h-10.97c.06,3.13,1.79,4.97,4.5,4.97,1.93,0,3.3-.97,3.74-2.27l.04-.13h2.5l-.03.15c-.5,2.52-2.99,4.51-6.31,4.51-4.38,0-7.02-3.06-7.02-7.85ZM495.11,283.65h8.33c-.25-2.96-1.89-4.35-4.12-4.35s-3.94,1.51-4.22,4.35Z"/><path class="y" d="M507.86,285.01h0c0-4.73,2.7-7.97,6.86-7.97s6.69,3.09,6.69,7.66v.94h-10.97c.06,3.13,1.79,4.97,4.5,4.97,1.93,0,3.3-.97,3.74-2.27l.04-.13h2.5l-.03.15c-.5,2.52-2.99,4.51-6.31,4.51-4.38,0-7.02-3.06-7.02-7.85ZM510.48,283.65h8.33c-.25-2.96-1.89-4.35-4.12-4.35s-3.94,1.51-4.22,4.35Z"/><path class="y" d="M523.97,277.33h2.55v2.17h.06c.82-1.42,2.37-2.46,4.69-2.46,3.34,0,5.27,2.17,5.27,5.64v9.89h-2.55v-9.43c0-2.48-1.16-3.84-3.5-3.84s-3.97,1.71-3.97,4.31v8.96h-2.55v-15.23Z"/><rect class="k" x="455" y="147" width="90" height="70"/><path class="p" d="M467.58,183.47l-7.5-12.04h3l5.77,9.49h.09l5.77-9.49h3l-7.5,12.04v9.1h-2.64v-9.1Z"/><path class="p" d="M476.2,185.01h0c0-4.73,2.7-7.97,6.86-7.97s6.69,3.09,6.69,7.66v.94h-10.97c.06,3.13,1.79,4.97,4.5,4.97,1.93,0,3.3-.97,3.74-2.27l.04-.13h2.5l-.03.15c-.5,2.52-2.99,4.51-6.31,4.51-4.38,0-7.02-3.06-7.02-7.85ZM478.83,183.65h8.33c-.25-2.96-1.89-4.35-4.12-4.35s-3.94,1.51-4.22,4.35Z"/><path class="p" d="M492.45,171.43h2.55v21.14h-2.55v-21.14Z"/><path class="p" d="M498.57,171.43h2.55v21.14h-2.55v-21.14Z"/><path class="p" d="M503.82,184.95v-.03c0-4.85,2.84-7.88,7.05-7.88s7.06,3.02,7.06,7.88v.03c0,4.86-2.84,7.91-7.05,7.91s-7.06-3.06-7.06-7.91ZM515.31,184.95v-.03c0-3.57-1.76-5.62-4.45-5.62s-4.44,2.07-4.44,5.62v.03c0,3.59,1.77,5.65,4.47,5.65s4.42-2.08,4.42-5.65Z"/><path class="p" d="M519.24,177.33h2.53l3.05,12.39h.06l3.44-12.39h2.46l3.46,12.39h.06l3.05-12.39h2.52l-4.25,15.23h-2.59l-3.44-11.79h-.06l-3.43,11.79h-2.59l-4.26-15.23Z"/><rect class="k" x="455" y="347" width="90" height="70"/><path class="r" d="M468.36,381.99h0c0-6.67,3.76-10.91,9.65-10.91,4.39,0,7.81,2.67,8.61,6.67l.03.15h-2.67l-.1-.32c-.82-2.56-2.9-4.06-5.87-4.06-4.22,0-6.94,3.33-6.94,8.47h0c0,5.16,2.74,8.51,6.94,8.51,2.96,0,5.01-1.46,5.93-4.25l.04-.13h2.67l-.03.15c-.81,4.04-4.19,6.67-8.61,6.67-5.87,0-9.65-4.28-9.65-10.93Z"/><path class="r" d="M489.47,397.58v-2.08c.22.04.51.09.82.09,1.61,0,2.5-.41,3.12-2.14l.31-.86-5.65-15.25h2.72l4.2,12.69h.06l4.22-12.69h2.68l-5.95,16.19c-1.08,2.92-2.42,4.17-5.17,4.17-.5,0-1.04-.06-1.36-.12Z"/><path class="r" d="M503.05,388.26v-.03c0-2.59,2.02-4.22,5.52-4.42l4.37-.25v-1.27c0-1.86-1.22-2.99-3.34-2.99-1.96,0-3.19.94-3.49,2.3l-.03.13h-2.46v-.16c.23-2.5,2.42-4.53,6.01-4.53s5.86,1.95,5.86,5v10.53h-2.55v-2.48h-.06c-.89,1.67-2.72,2.77-4.76,2.77-3.03,0-5.07-1.83-5.07-4.6ZM508.69,390.65c2.4,0,4.25-1.66,4.25-3.87v-1.25l-4.07.25c-2.04.12-3.21,1.03-3.21,2.45v.03c0,1.46,1.2,2.39,3.03,2.39Z"/><path class="r" d="M518.72,377.33h2.55v2.17h.06c.82-1.42,2.37-2.46,4.69-2.46,3.34,0,5.27,2.17,5.27,5.64v9.89h-2.55v-9.43c0-2.48-1.16-3.84-3.5-3.84s-3.97,1.71-3.97,4.31v8.96h-2.55v-15.23Z"/><rect class="y" x="650" y="232" width="100" height="100"/><rect class="k" x="655" y="247" width="90" height="70"/><path class="n" d="M663.64,271.43h2.75l4.26,17.36h.06l4.79-17.36h2.67l4.79,17.36h.06l4.26-17.36h2.75l-5.76,21.14h-2.49l-4.92-16.93h-.06l-4.92,16.93h-2.49l-5.76-21.14Z"/><path class="n" d="M692.49,271.43h2.55v8.33h.06c.82-1.71,2.48-2.72,4.75-2.72,3.24,0,5.45,2.5,5.45,6.2v9.33h-2.55v-8.89c0-2.75-1.41-4.38-3.78-4.38s-3.93,1.79-3.93,4.38v8.89h-2.55v-21.14Z"/><path class="n" d="M708.36,273.16c0-.89.72-1.6,1.6-1.6s1.6.7,1.6,1.6-.7,1.6-1.6,1.6-1.6-.72-1.6-1.6ZM708.69,277.33h2.55v15.23h-2.55v-15.23Z"/><path class="n" d="M715.48,288.69v-9.24h-2.23v-2.11h2.23v-4.12h2.64v4.12h2.9v2.11h-2.9v9.23c0,1.63.72,2.08,2.08,2.08.31,0,.6-.04.82-.06v2.07c-.32.04-.86.1-1.36.1-2.8,0-4.17-1.26-4.17-4.17Z"/><path class="n" d="M722.56,285.01h0c0-4.73,2.7-7.97,6.86-7.97s6.69,3.09,6.69,7.66v.94h-10.97c.06,3.13,1.79,4.97,4.5,4.97,1.93,0,3.3-.97,3.74-2.27l.04-.13h2.5l-.03.15c-.5,2.52-2.99,4.51-6.31,4.51-4.38,0-7.02-3.06-7.02-7.85ZM725.18,283.65h8.33c-.25-2.96-1.89-4.35-4.12-4.35s-3.94,1.51-4.22,4.35Z"/><rect class="k" x="655" y="147" width="90" height="70"/><path class="q" d="M657.24,171.43h2.44l5.86,17.81h.07l5.86-17.81h2.44v21.14h-1.97v-16.33h-.07l-5.4,16.33h-1.78l-5.4-16.33h-.07v16.33h-1.97v-21.14Z"/><path class="q" d="M676.03,188.26v-.03c0-2.59,1.62-4.22,4.42-4.42l3.49-.25v-1.27c0-1.86-.97-2.99-2.67-2.99-1.57,0-2.55.94-2.79,2.3l-.02.13h-1.97v-.16c.19-2.5,1.93-4.53,4.8-4.53s4.69,1.95,4.69,5v10.53h-2.04v-2.48h-.05c-.71,1.67-2.18,2.77-3.81,2.77-2.43,0-4.05-1.83-4.05-4.6ZM680.54,190.65c1.92,0,3.4-1.66,3.4-3.87v-1.25l-3.26.25c-1.63.12-2.57,1.03-2.57,2.45v.03c0,1.46.96,2.39,2.43,2.39Z"/><path class="q" d="M688.42,193.96l-.02-.13h2.05l.05.13c.39,1.1,1.55,1.77,3.21,1.77,2.14,0,3.36-1.48,3.36-3.84v-1.95h-.05c-.73,1.68-2.13,2.77-3.88,2.77-3.07,0-5.17-3.09-5.17-7.85h0c0-4.75,2.12-7.82,5.21-7.82,1.72,0,3.08,1.17,3.83,2.87h.05v-2.58h2.04v14.81c0,3.53-2.07,5.84-5.38,5.84-3.01,0-4.91-1.77-5.31-4.03ZM697.06,184.86h0c0-3.37-1.42-5.57-3.48-5.57-2.17,0-3.53,2.17-3.53,5.55h0c0,3.47,1.36,5.61,3.53,5.61s3.48-2.21,3.48-5.6Z"/><path class="q" d="M701.14,185.01h0c0-4.73,2.16-7.97,5.48-7.97s5.36,3.09,5.36,7.66v.94h-8.78c.05,3.13,1.43,4.97,3.6,4.97,1.55,0,2.64-.97,2.99-2.27l.04-.13h2l-.02.15c-.4,2.52-2.39,4.51-5.05,4.51-3.5,0-5.61-3.06-5.61-7.85ZM703.24,183.65h6.67c-.2-2.96-1.51-4.35-3.29-4.35s-3.15,1.51-3.38,4.35Z"/><path class="q" d="M714.03,177.33h2.04v2.17h.05c.66-1.42,1.9-2.46,3.75-2.46,2.67,0,4.22,2.17,4.22,5.64v9.89h-2.04v-9.43c0-2.48-.93-3.84-2.8-3.84s-3.18,1.71-3.18,4.31v8.96h-2.04v-15.23Z"/><path class="q" d="M727.3,188.69v-9.24h-1.78v-2.11h1.78v-4.12h2.11v4.12h2.32v2.11h-2.32v9.23c0,1.63.57,2.08,1.66,2.08.25,0,.48-.04.66-.06v2.07c-.26.04-.69.1-1.09.1-2.24,0-3.34-1.26-3.34-4.17Z"/><path class="q" d="M733.18,188.26v-.03c0-2.59,1.62-4.22,4.42-4.42l3.49-.25v-1.27c0-1.86-.97-2.99-2.67-2.99-1.57,0-2.55.94-2.79,2.3l-.02.13h-1.97v-.16c.19-2.5,1.93-4.53,4.8-4.53s4.69,1.95,4.69,5v10.53h-2.04v-2.48h-.05c-.71,1.67-2.18,2.77-3.81,2.77-2.43,0-4.05-1.83-4.05-4.6ZM737.69,190.65c1.92,0,3.4-1.66,3.4-3.87v-1.25l-3.26.25c-1.63.12-2.57,1.03-2.57,2.45v.03c0,1.46.96,2.39,2.43,2.39Z"/><rect class="k" x="655" y="347" width="90" height="70"/><path class="w" d="M661.88,371.43h7.53c3.97,0,6.78,2.74,6.78,6.75v.03c0,4.01-2.81,6.81-6.78,6.81h-4.89v7.54h-2.64v-21.14ZM664.51,373.77v8.91h4.22c3.02,0,4.76-1.66,4.76-4.44v-.03c0-2.78-1.74-4.44-4.76-4.44h-4.22Z"/><path class="w" d="M678.74,387.22v-9.89h2.55v9.43c0,2.48,1.16,3.84,3.5,3.84s3.97-1.71,3.97-4.31v-8.96h2.55v15.23h-2.55v-2.17h-.06c-.82,1.42-2.37,2.46-4.69,2.46-3.34,0-5.27-2.17-5.27-5.64Z"/><path class="w" d="M694.62,377.33h2.55v2.58h.06c.51-1.76,1.83-2.87,3.54-2.87.44,0,.82.07,1.03.1v2.48c-.21-.07-.75-.15-1.36-.15-1.98,0-3.27,1.38-3.27,3.69v9.4h-2.55v-15.23Z"/><path class="w" d="M703.86,377.33h2.55v2.58h.06c.95-1.77,2.65-2.87,4.83-2.87,3.9,0,6.47,3.11,6.47,7.91h0c0,4.82-2.61,7.91-6.43,7.91-2.15,0-3.93-1.08-4.88-2.84h-.06v7.68h-2.55v-20.36ZM715.17,384.97h0c0-3.52-1.67-5.67-4.37-5.67s-4.41,2.24-4.41,5.65h0c0,3.41,1.85,5.65,4.41,5.65,2.7,0,4.37-2.17,4.37-5.64Z"/><path class="w" d="M720.47,371.43h2.55v21.14h-2.55v-21.14Z"/><path class="w" d="M725.71,385.01h0c0-4.73,2.7-7.97,6.86-7.97s6.69,3.09,6.69,7.66v.94h-10.97c.06,3.13,1.79,4.97,4.5,4.97,1.93,0,3.3-.97,3.74-2.27l.04-.13h2.5l-.03.15c-.5,2.52-2.99,4.51-6.31,4.51-4.38,0-7.02-3.06-7.02-7.85ZM728.34,383.65h8.33c-.25-2.96-1.89-4.35-4.12-4.35s-3.94,1.51-4.22,4.35Z"/><rect class="k" x="823.62" y="147" width="90" height="70"/><path class="p" d="M831.94,173.8h-6.4v-2.37h15.33v2.37h-6.4v18.76h-2.53v-18.76Z"/><path class="p" d="M838.65,185.01h0c0-4.73,2.59-7.97,6.58-7.97s6.43,3.09,6.43,7.66v.94h-10.54c.06,3.13,1.72,4.97,4.32,4.97,1.86,0,3.17-.97,3.59-2.27l.04-.13h2.41l-.03.15c-.48,2.52-2.87,4.51-6.06,4.51-4.21,0-6.74-3.06-6.74-7.85ZM841.17,183.65h8c-.24-2.96-1.81-4.35-3.95-4.35s-3.78,1.51-4.05,4.35Z"/><path class="p" d="M853.4,184.94h0c0-4.82,2.69-7.9,6.75-7.9,3.64,0,5.8,2.52,6.11,5.13v.12s-2.38,0-2.38,0l-.03-.12c-.37-1.52-1.55-2.87-3.7-2.87-2.55,0-4.25,2.2-4.25,5.65h0c0,3.56,1.74,5.65,4.28,5.65,2,0,3.28-1.17,3.69-2.87l.03-.12h2.41v.1c-.41,2.9-2.81,5.14-6.12,5.14-4.15,0-6.78-3.08-6.78-7.92Z"/><path class="p" d="M868.67,171.43h2.45v8.33h.06c.79-1.71,2.38-2.72,4.56-2.72,3.11,0,5.23,2.5,5.23,6.2v9.33h-2.45v-8.89c0-2.75-1.35-4.38-3.63-4.38s-3.77,1.79-3.77,4.38v8.89h-2.45v-21.14Z"/><path class="p" d="M884.07,177.33h2.45v2.17h.06c.79-1.42,2.28-2.46,4.5-2.46,3.21,0,5.06,2.17,5.06,5.64v9.89h-2.45v-9.43c0-2.48-1.11-3.84-3.36-3.84s-3.81,1.71-3.81,4.31v8.96h-2.45v-15.23Z"/><path class="p" d="M898.53,185.01h0c0-4.73,2.59-7.97,6.58-7.97s6.43,3.09,6.43,7.66v.94h-10.54c.06,3.13,1.72,4.97,4.32,4.97,1.86,0,3.17-.97,3.59-2.27l.04-.13h2.41l-.03.15c-.48,2.52-2.87,4.51-6.06,4.51-4.21,0-6.74-3.06-6.74-7.85ZM901.05,183.65h8c-.24-2.96-1.81-4.35-3.95-4.35s-3.78,1.51-4.05,4.35Z"/><rect class="k" x="823.62" y="347" width="90" height="70"/><path class="r" d="M833.36,371.43h2.53v18.76h9.79v2.37h-12.32v-21.14Z"/><path class="r" d="M846.95,384.95v-.03c0-4.85,2.73-7.88,6.77-7.88s6.78,3.02,6.78,7.88v.03c0,4.86-2.73,7.91-6.77,7.91s-6.78-3.06-6.78-7.91ZM857.99,384.95v-.03c0-3.57-1.69-5.62-4.28-5.62s-4.26,2.07-4.26,5.62v.03c0,3.59,1.7,5.65,4.29,5.65s4.25-2.08,4.25-5.65Z"/><path class="r" d="M862.77,393.96l-.03-.13h2.46l.06.13c.46,1.1,1.86,1.77,3.85,1.77,2.57,0,4.04-1.48,4.04-3.84v-1.95h-.06c-.87,1.68-2.56,2.77-4.66,2.77-3.69,0-6.2-3.09-6.2-7.85h0c0-4.75,2.55-7.82,6.26-7.82,2.07,0,3.7,1.17,4.6,2.87h.06v-2.58h2.45v14.81c0,3.53-2.49,5.84-6.46,5.84-3.62,0-5.9-1.77-6.37-4.03ZM873.15,384.86h0c0-3.37-1.7-5.57-4.18-5.57-2.6,0-4.24,2.17-4.24,5.55h0c0,3.47,1.63,5.61,4.24,5.61s4.18-2.21,4.18-5.6Z"/><path class="r" d="M878.04,384.95v-.03c0-4.85,2.73-7.88,6.77-7.88s6.78,3.02,6.78,7.88v.03c0,4.86-2.73,7.91-6.77,7.91s-6.78-3.06-6.78-7.91ZM889.08,384.95v-.03c0-3.57-1.69-5.62-4.28-5.62s-4.26,2.07-4.26,5.62v.03c0,3.59,1.7,5.65,4.29,5.65s4.25-2.08,4.25-5.65Z"/><path class="r" d="M893.41,388.31v-.13s2.43,0,2.43,0l.03.15c.29,1.52,1.38,2.42,3.38,2.42s3.17-.86,3.17-2.24h0c0-1.11-.55-1.73-2.21-2.15l-2.32-.59c-2.76-.69-4.09-2.02-4.09-4.22h0c0-2.64,2.21-4.5,5.37-4.5s5.25,1.95,5.43,4.5v.19s-2.32,0-2.32,0v-.1c-.21-1.48-1.29-2.46-3.11-2.46s-2.87.89-2.87,2.24h0c0,1.05.66,1.77,2.28,2.18l2.32.59c2.95.75,4.02,1.96,4.02,4.13h0c0,2.68-2.42,4.56-5.68,4.56-3.45,0-5.53-1.83-5.82-4.56Z"/><rect class="k" x="1023.62" y="147" width="90" height="70"/><path class="q" d="M1030.59,181.99h0c0-6.67,3.62-10.91,9.27-10.91,4.22,0,7.5,2.67,8.27,6.67l.03.15h-2.56l-.1-.32c-.79-2.56-2.79-4.06-5.64-4.06-4.05,0-6.67,3.33-6.67,8.47h0c0,5.16,2.63,8.51,6.67,8.51,2.84,0,4.81-1.46,5.7-4.25l.04-.13h2.56l-.03.15c-.77,4.04-4.02,6.67-8.27,6.67-5.64,0-9.27-4.28-9.27-10.93Z"/><path class="q" d="M1050.88,171.43h2.45v8.33h.06c.79-1.71,2.38-2.72,4.56-2.72,3.11,0,5.23,2.5,5.23,6.2v9.33h-2.45v-8.89c0-2.75-1.35-4.38-3.63-4.38s-3.77,1.79-3.77,4.38v8.89h-2.45v-21.14Z"/><path class="q" d="M1065.69,188.26v-.03c0-2.59,1.94-4.22,5.3-4.42l4.19-.25v-1.27c0-1.86-1.17-2.99-3.21-2.99-1.88,0-3.07.94-3.35,2.3l-.03.13h-2.36v-.16c.22-2.5,2.32-4.53,5.77-4.53s5.63,1.95,5.63,5v10.53h-2.45v-2.48h-.06c-.86,1.67-2.62,2.77-4.57,2.77-2.91,0-4.87-1.83-4.87-4.6ZM1071.11,190.65c2.31,0,4.08-1.66,4.08-3.87v-1.25l-3.91.25c-1.96.12-3.08,1.03-3.08,2.45v.03c0,1.46,1.15,2.39,2.91,2.39Z"/><path class="q" d="M1080.02,184.95v-.03c0-4.85,2.73-7.88,6.77-7.88s6.78,3.02,6.78,7.88v.03c0,4.86-2.73,7.91-6.77,7.91s-6.78-3.06-6.78-7.91ZM1091.07,184.95v-.03c0-3.57-1.69-5.62-4.28-5.62s-4.26,2.07-4.26,5.62v.03c0,3.59,1.7,5.65,4.29,5.65s4.25-2.08,4.25-5.65Z"/><path class="q" d="M1095.39,188.31v-.13s2.43,0,2.43,0l.03.15c.29,1.52,1.38,2.42,3.38,2.42s3.17-.86,3.17-2.24h0c0-1.11-.55-1.73-2.21-2.15l-2.32-.59c-2.76-.69-4.09-2.02-4.09-4.22h0c0-2.64,2.21-4.5,5.37-4.5s5.25,1.95,5.43,4.5v.19s-2.32,0-2.32,0v-.1c-.21-1.48-1.29-2.46-3.11-2.46s-2.87.89-2.87,2.24h0c0,1.05.66,1.77,2.28,2.18l2.32.59c2.95.75,4.02,1.96,4.02,4.13h0c0,2.68-2.42,4.56-5.68,4.56-3.45,0-5.53-1.83-5.82-4.56Z"/><rect class="k" x="1023.62" y="347" width="90" height="70"/><path class="w" d="M1043.19,371.43h13.1v2.37h-10.46v6.78h9.92v2.34h-9.92v7.27h10.46v2.37h-13.1v-21.14Z"/><path class="w" d="M1059.37,377.33h2.55v2.58h.06c.51-1.76,1.83-2.87,3.54-2.87.44,0,.82.07,1.03.1v2.48c-.21-.07-.75-.15-1.36-.15-1.98,0-3.27,1.38-3.27,3.69v9.4h-2.55v-15.23Z"/><path class="w" d="M1067.13,384.95v-.03c0-4.85,2.84-7.88,7.05-7.88s7.06,3.02,7.06,7.88v.03c0,4.86-2.84,7.91-7.05,7.91s-7.06-3.06-7.06-7.91ZM1078.63,384.95v-.03c0-3.57-1.76-5.62-4.45-5.62s-4.44,2.07-4.44,5.62v.03c0,3.59,1.77,5.65,4.47,5.65s4.42-2.08,4.42-5.65Z"/><path class="w" d="M1083.14,388.31v-.13s2.53,0,2.53,0l.03.15c.31,1.52,1.44,2.42,3.52,2.42s3.3-.86,3.3-2.24h0c0-1.11-.57-1.73-2.3-2.15l-2.42-.59c-2.87-.69-4.26-2.02-4.26-4.22h0c0-2.64,2.3-4.5,5.6-4.5s5.46,1.95,5.65,4.5v.19s-2.42,0-2.42,0v-.1c-.22-1.48-1.35-2.46-3.24-2.46s-2.99.89-2.99,2.24h0c0,1.05.69,1.77,2.37,2.18l2.42.59c3.08.75,4.19,1.96,4.19,4.13h0c0,2.68-2.52,4.56-5.92,4.56-3.59,0-5.76-1.83-6.06-4.56Z"/><rect class="l" x="81.38" y="232" width="300" height="100"/><rect class="k" x="186.38" y="247" width="90" height="70"/><path class="o" d="M200.02,271.43h13.1v2.37h-10.46v6.78h9.92v2.34h-9.92v7.27h10.46v2.37h-13.1v-21.14Z"/><path class="o" d="M215.58,288.26v-.03c0-2.59,2.02-4.22,5.52-4.42l4.37-.25v-1.27c0-1.86-1.22-2.99-3.34-2.99-1.96,0-3.19.94-3.49,2.3l-.03.13h-2.46v-.16c.23-2.5,2.42-4.53,6.01-4.53s5.86,1.95,5.86,5v10.53h-2.55v-2.48h-.06c-.89,1.67-2.72,2.77-4.76,2.77-3.03,0-5.07-1.83-5.07-4.6ZM221.22,290.65c2.4,0,4.25-1.66,4.25-3.87v-1.25l-4.07.25c-2.04.12-3.21,1.03-3.21,2.45v.03c0,1.46,1.2,2.39,3.03,2.39Z"/><path class="o" d="M231.25,277.33h2.55v2.58h.06c.51-1.76,1.83-2.87,3.54-2.87.44,0,.82.07,1.03.1v2.48c-.21-.07-.75-.15-1.36-.15-1.98,0-3.27,1.38-3.27,3.69v9.4h-2.55v-15.23Z"/><path class="o" d="M242,288.69v-9.24h-2.23v-2.11h2.23v-4.12h2.64v4.12h2.9v2.11h-2.9v9.23c0,1.63.72,2.08,2.08,2.08.31,0,.6-.04.82-.06v2.07c-.32.04-.86.1-1.36.1-2.8,0-4.17-1.26-4.17-4.17Z"/><path class="o" d="M250.4,271.43h2.55v8.33h.06c.82-1.71,2.48-2.72,4.75-2.72,3.24,0,5.45,2.5,5.45,6.2v9.33h-2.55v-8.89c0-2.75-1.41-4.38-3.78-4.38s-3.93,1.79-3.93,4.38v8.89h-2.55v-21.14Z"/><rect class="l" x="181.38" y="132" width="100" height="300"/><rect class="k" x="186.38" y="147" width="90" height="70"/><path class="x" d="M210.48,171.43h12.83v2.37h-10.2v7.27h9.36v2.34h-9.36v9.16h-2.64v-21.14Z"/><path class="x" d="M225.76,173.16c0-.89.72-1.6,1.6-1.6s1.6.7,1.6,1.6-.7,1.6-1.6,1.6-1.6-.72-1.6-1.6ZM226.08,177.33h2.55v15.23h-2.55v-15.23Z"/><path class="x" d="M232.1,177.33h2.55v2.58h.06c.51-1.76,1.83-2.87,3.54-2.87.44,0,.82.07,1.03.1v2.48c-.21-.07-.75-.15-1.36-.15-1.98,0-3.27,1.38-3.27,3.69v9.4h-2.55v-15.23Z"/><path class="x" d="M239.87,185.01h0c0-4.73,2.7-7.97,6.86-7.97s6.69,3.09,6.69,7.66v.94h-10.97c.06,3.13,1.79,4.97,4.5,4.97,1.93,0,3.3-.97,3.74-2.27l.04-.13h2.5l-.03.15c-.5,2.52-2.99,4.51-6.31,4.51-4.38,0-7.02-3.06-7.02-7.85ZM242.49,183.65h8.33c-.25-2.96-1.89-4.35-4.12-4.35s-3.94,1.51-4.22,4.35Z"/><rect class="k" x="186.38" y="347" width="90" height="70"/><path class="u" d="M195.07,371.43h2.75l4.26,17.36h.06l4.79-17.36h2.67l4.79,17.36h.06l4.26-17.36h2.75l-5.76,21.14h-2.49l-4.92-16.93h-.06l-4.92,16.93h-2.49l-5.76-21.14Z"/><path class="u" d="M221.12,388.26v-.03c0-2.59,2.02-4.22,5.52-4.42l4.37-.25v-1.27c0-1.86-1.22-2.99-3.34-2.99-1.96,0-3.19.94-3.49,2.3l-.03.13h-2.46v-.16c.23-2.5,2.42-4.53,6.01-4.53s5.86,1.95,5.86,5v10.53h-2.55v-2.48h-.06c-.89,1.67-2.72,2.77-4.76,2.77-3.03,0-5.07-1.83-5.07-4.6ZM226.76,390.65c2.4,0,4.25-1.66,4.25-3.87v-1.25l-4.07.25c-2.04.12-3.21,1.03-3.21,2.45v.03c0,1.46,1.2,2.39,3.03,2.39Z"/><path class="u" d="M237.57,388.69v-9.24h-2.23v-2.11h2.23v-4.12h2.64v4.12h2.9v2.11h-2.9v9.23c0,1.63.72,2.08,2.08,2.08.31,0,.6-.04.82-.06v2.07c-.32.04-.86.1-1.36.1-2.8,0-4.17-1.26-4.17-4.17Z"/><path class="u" d="M244.64,385.01h0c0-4.73,2.7-7.97,6.86-7.97s6.69,3.09,6.69,7.66v.94h-10.97c.06,3.13,1.79,4.97,4.5,4.97,1.93,0,3.3-.97,3.74-2.27l.04-.13h2.5l-.03.15c-.5,2.52-2.99,4.51-6.31,4.51-4.38,0-7.02-3.06-7.02-7.85ZM247.26,383.65h8.33c-.25-2.96-1.89-4.35-4.12-4.35s-3.94,1.51-4.22,4.35Z"/><path class="u" d="M260.75,377.33h2.55v2.58h.06c.51-1.76,1.83-2.87,3.54-2.87.44,0,.82.07,1.03.1v2.48c-.21-.07-.75-.15-1.36-.15-1.98,0-3.27,1.38-3.27,3.69v9.4h-2.55v-15.23Z"/><rect class="k" x="86.38" y="247" width="90" height="70"/><path class="t" d="M94.76,271.43h2.75l4.26,17.36h.06l4.79-17.36h2.67l4.79,17.36h.06l4.26-17.36h2.75l-5.76,21.14h-2.49l-4.92-16.93h-.06l-4.92,16.93h-2.49l-5.76-21.14Z"/><path class="t" d="M121.11,284.95v-.03c0-4.85,2.84-7.88,7.05-7.88s7.06,3.02,7.06,7.88v.03c0,4.86-2.84,7.91-7.05,7.91s-7.06-3.06-7.06-7.91ZM132.61,284.95v-.03c0-3.57-1.76-5.62-4.45-5.62s-4.44,2.07-4.44,5.62v.03c0,3.59,1.77,5.65,4.47,5.65s4.42-2.08,4.42-5.65Z"/><path class="t" d="M137.03,284.95v-.03c0-4.85,2.84-7.88,7.05-7.88s7.06,3.02,7.06,7.88v.03c0,4.86-2.84,7.91-7.05,7.91s-7.06-3.06-7.06-7.91ZM148.53,284.95v-.03c0-3.57-1.76-5.62-4.45-5.62s-4.44,2.07-4.44,5.62v.03c0,3.59,1.77,5.65,4.47,5.65s4.42-2.08,4.42-5.65Z"/><path class="t" d="M152.95,284.95h0c0-4.82,2.61-7.91,6.43-7.91,2.15,0,3.93,1.08,4.88,2.84h.06v-8.45h2.55v21.14h-2.55v-2.58h-.06c-.95,1.77-2.65,2.87-4.83,2.87-3.9,0-6.47-3.11-6.47-7.91ZM164.34,284.95h0c0-3.41-1.85-5.65-4.41-5.65-2.7,0-4.37,2.17-4.37,5.64h0c0,3.52,1.67,5.67,4.37,5.67s4.41-2.24,4.41-5.65Z"/><rect class="k" x="286.38" y="247" width="90" height="70"/><path class="y" d="M298.32,271.43h3.05l7.32,17.81h.09l7.32-17.81h3.05v21.14h-2.46v-16.33h-.09l-6.75,16.33h-2.23l-6.75-16.33h-.09v16.33h-2.46v-21.14Z"/><path class="y" d="M322.1,285.01h0c0-4.73,2.7-7.97,6.86-7.97s6.69,3.09,6.69,7.66v.94h-10.97c.06,3.13,1.79,4.97,4.5,4.97,1.93,0,3.3-.97,3.74-2.27l.04-.13h2.5l-.03.15c-.5,2.52-2.99,4.51-6.31,4.51-4.38,0-7.02-3.06-7.02-7.85ZM324.73,283.65h8.33c-.25-2.96-1.89-4.35-4.12-4.35s-3.94,1.51-4.22,4.35Z"/><path class="y" d="M338.99,288.69v-9.24h-2.23v-2.11h2.23v-4.12h2.64v4.12h2.9v2.11h-2.9v9.23c0,1.63.72,2.08,2.08,2.08.31,0,.6-.04.82-.06v2.07c-.32.04-.86.1-1.36.1-2.8,0-4.17-1.26-4.17-4.17Z"/><path class="y" d="M346.35,288.26v-.03c0-2.59,2.02-4.22,5.52-4.42l4.37-.25v-1.27c0-1.86-1.22-2.99-3.34-2.99-1.96,0-3.19.94-3.49,2.3l-.03.13h-2.46v-.16c.23-2.5,2.42-4.53,6.01-4.53s5.86,1.95,5.86,5v10.53h-2.55v-2.48h-.06c-.89,1.67-2.72,2.77-4.76,2.77-3.03,0-5.07-1.83-5.07-4.6ZM351.99,290.65c2.4,0,4.25-1.66,4.25-3.87v-1.25l-4.07.25c-2.04.12-3.21,1.03-3.21,2.45v.03c0,1.46,1.2,2.39,3.03,2.39Z"/><path class="y" d="M362.15,271.43h2.55v21.14h-2.55v-21.14Z"/><rect class="l" x="81.38" y="232" width="300" height="100"/><rect class="k" x="186.38" y="247" width="90" height="70"/><path class="o" d="M200.02,271.43h13.1v2.37h-10.46v6.78h9.92v2.34h-9.92v7.27h10.46v2.37h-13.1v-21.14Z"/><path class="o" d="M215.58,288.26v-.03c0-2.59,2.02-4.22,5.52-4.42l4.37-.25v-1.27c0-1.86-1.22-2.99-3.34-2.99-1.96,0-3.19.94-3.49,2.3l-.03.13h-2.46v-.16c.23-2.5,2.42-4.53,6.01-4.53s5.86,1.95,5.86,5v10.53h-2.55v-2.48h-.06c-.89,1.67-2.72,2.77-4.76,2.77-3.03,0-5.07-1.83-5.07-4.6ZM221.22,290.65c2.4,0,4.25-1.66,4.25-3.87v-1.25l-4.07.25c-2.04.12-3.21,1.03-3.21,2.45v.03c0,1.46,1.2,2.39,3.03,2.39Z"/><path class="o" d="M231.25,277.33h2.55v2.58h.06c.51-1.76,1.83-2.87,3.54-2.87.44,0,.82.07,1.03.1v2.48c-.21-.07-.75-.15-1.36-.15-1.98,0-3.27,1.38-3.27,3.69v9.4h-2.55v-15.23Z"/><path class="o" d="M242,288.69v-9.24h-2.23v-2.11h2.23v-4.12h2.64v4.12h2.9v2.11h-2.9v9.23c0,1.63.72,2.08,2.08,2.08.31,0,.6-.04.82-.06v2.07c-.32.04-.86.1-1.36.1-2.8,0-4.17-1.26-4.17-4.17Z"/><path class="o" d="M250.4,271.43h2.55v8.33h.06c.82-1.71,2.48-2.72,4.75-2.72,3.24,0,5.45,2.5,5.45,6.2v9.33h-2.55v-8.89c0-2.75-1.41-4.38-3.78-4.38s-3.93,1.79-3.93,4.38v8.89h-2.55v-21.14Z"/><rect class="l" x="181.38" y="132" width="100" height="300"/><rect class="k" x="186.38" y="147" width="90" height="70"/><path class="x" d="M210.48,171.43h12.83v2.37h-10.2v7.27h9.36v2.34h-9.36v9.16h-2.64v-21.14Z"/><path class="x" d="M225.76,173.16c0-.89.72-1.6,1.6-1.6s1.6.7,1.6,1.6-.7,1.6-1.6,1.6-1.6-.72-1.6-1.6ZM226.08,177.33h2.55v15.23h-2.55v-15.23Z"/><path class="x" d="M232.1,177.33h2.55v2.58h.06c.51-1.76,1.83-2.87,3.54-2.87.44,0,.82.07,1.03.1v2.48c-.21-.07-.75-.15-1.36-.15-1.98,0-3.27,1.38-3.27,3.69v9.4h-2.55v-15.23Z"/><path class="x" d="M239.87,185.01h0c0-4.73,2.7-7.97,6.86-7.97s6.69,3.09,6.69,7.66v.94h-10.97c.06,3.13,1.79,4.97,4.5,4.97,1.93,0,3.3-.97,3.74-2.27l.04-.13h2.5l-.03.15c-.5,2.52-2.99,4.51-6.31,4.51-4.38,0-7.02-3.06-7.02-7.85ZM242.49,183.65h8.33c-.25-2.96-1.89-4.35-4.12-4.35s-3.94,1.51-4.22,4.35Z"/><rect class="k" x="186.38" y="347" width="90" height="70"/><path class="u" d="M195.07,371.43h2.75l4.26,17.36h.06l4.79-17.36h2.67l4.79,17.36h.06l4.26-17.36h2.75l-5.76,21.14h-2.49l-4.92-16.93h-.06l-4.92,16.93h-2.49l-5.76-21.14Z"/><path class="u" d="M221.12,388.26v-.03c0-2.59,2.02-4.22,5.52-4.42l4.37-.25v-1.27c0-1.86-1.22-2.99-3.34-2.99-1.96,0-3.19.94-3.49,2.3l-.03.13h-2.46v-.16c.23-2.5,2.42-4.53,6.01-4.53s5.86,1.95,5.86,5v10.53h-2.55v-2.48h-.06c-.89,1.67-2.72,2.77-4.76,2.77-3.03,0-5.07-1.83-5.07-4.6ZM226.76,390.65c2.4,0,4.25-1.66,4.25-3.87v-1.25l-4.07.25c-2.04.12-3.21,1.03-3.21,2.45v.03c0,1.46,1.2,2.39,3.03,2.39Z"/><path class="u" d="M237.57,388.69v-9.24h-2.23v-2.11h2.23v-4.12h2.64v4.12h2.9v2.11h-2.9v9.23c0,1.63.72,2.08,2.08,2.08.31,0,.6-.04.82-.06v2.07c-.32.04-.86.1-1.36.1-2.8,0-4.17-1.26-4.17-4.17Z"/><path class="u" d="M244.64,385.01h0c0-4.73,2.7-7.97,6.86-7.97s6.69,3.09,6.69,7.66v.94h-10.97c.06,3.13,1.79,4.97,4.5,4.97,1.93,0,3.3-.97,3.74-2.27l.04-.13h2.5l-.03.15c-.5,2.52-2.99,4.51-6.31,4.51-4.38,0-7.02-3.06-7.02-7.85ZM247.26,383.65h8.33c-.25-2.96-1.89-4.35-4.12-4.35s-3.94,1.51-4.22,4.35Z"/><path class="u" d="M260.75,377.33h2.55v2.58h.06c.51-1.76,1.83-2.87,3.54-2.87.44,0,.82.07,1.03.1v2.48c-.21-.07-.75-.15-1.36-.15-1.98,0-3.27,1.38-3.27,3.69v9.4h-2.55v-15.23Z"/><rect class="k" x="86.38" y="247" width="90" height="70"/><path class="t" d="M94.76,271.43h2.75l4.26,17.36h.06l4.79-17.36h2.67l4.79,17.36h.06l4.26-17.36h2.75l-5.76,21.14h-2.49l-4.92-16.93h-.06l-4.92,16.93h-2.49l-5.76-21.14Z"/><path class="t" d="M121.11,284.95v-.03c0-4.85,2.84-7.88,7.05-7.88s7.06,3.02,7.06,7.88v.03c0,4.86-2.84,7.91-7.05,7.91s-7.06-3.06-7.06-7.91ZM132.61,284.95v-.03c0-3.57-1.76-5.62-4.45-5.62s-4.44,2.07-4.44,5.62v.03c0,3.59,1.77,5.65,4.47,5.65s4.42-2.08,4.42-5.65Z"/><path class="t" d="M137.03,284.95v-.03c0-4.85,2.84-7.88,7.05-7.88s7.06,3.02,7.06,7.88v.03c0,4.86-2.84,7.91-7.05,7.91s-7.06-3.06-7.06-7.91ZM148.53,284.95v-.03c0-3.57-1.76-5.62-4.45-5.62s-4.44,2.07-4.44,5.62v.03c0,3.59,1.77,5.65,4.47,5.65s4.42-2.08,4.42-5.65Z"/><path class="t" d="M152.95,284.95h0c0-4.82,2.61-7.91,6.43-7.91,2.15,0,3.93,1.08,4.88,2.84h.06v-8.45h2.55v21.14h-2.55v-2.58h-.06c-.95,1.77-2.65,2.87-4.83,2.87-3.9,0-6.47-3.11-6.47-7.91ZM164.34,284.95h0c0-3.41-1.85-5.65-4.41-5.65-2.7,0-4.37,2.17-4.37,5.64h0c0,3.52,1.67,5.67,4.37,5.67s4.41-2.24,4.41-5.65Z"/><rect class="k" x="286.38" y="247" width="90" height="70"/><path class="y" d="M298.32,271.43h3.05l7.32,17.81h.09l7.32-17.81h3.05v21.14h-2.46v-16.33h-.09l-6.75,16.33h-2.23l-6.75-16.33h-.09v16.33h-2.46v-21.14Z"/><path class="y" d="M322.1,285.01h0c0-4.73,2.7-7.97,6.86-7.97s6.69,3.09,6.69,7.66v.94h-10.97c.06,3.13,1.79,4.97,4.5,4.97,1.93,0,3.3-.97,3.74-2.27l.04-.13h2.5l-.03.15c-.5,2.52-2.99,4.51-6.31,4.51-4.38,0-7.02-3.06-7.02-7.85ZM324.73,283.65h8.33c-.25-2.96-1.89-4.35-4.12-4.35s-3.94,1.51-4.22,4.35Z"/><path class="y" d="M338.99,288.69v-9.24h-2.23v-2.11h2.23v-4.12h2.64v4.12h2.9v2.11h-2.9v9.23c0,1.63.72,2.08,2.08,2.08.31,0,.6-.04.82-.06v2.07c-.32.04-.86.1-1.36.1-2.8,0-4.17-1.26-4.17-4.17Z"/><path class="y" d="M346.35,288.26v-.03c0-2.59,2.02-4.22,5.52-4.42l4.37-.25v-1.27c0-1.86-1.22-2.99-3.34-2.99-1.96,0-3.19.94-3.49,2.3l-.03.13h-2.46v-.16c.23-2.5,2.42-4.53,6.01-4.53s5.86,1.95,5.86,5v10.53h-2.55v-2.48h-.06c-.89,1.67-2.72,2.77-4.76,2.77-3.03,0-5.07-1.83-5.07-4.6ZM351.99,290.65c2.4,0,4.25-1.66,4.25-3.87v-1.25l-4.07.25c-2.04.12-3.21,1.03-3.21,2.45v.03c0,1.46,1.2,2.39,3.03,2.39Z"/><path class="y" d="M362.15,271.43h2.55v21.14h-2.55v-21.14Z"/><rect class="l" x="818.62" y="232" width="300" height="100"/><rect class="k" x="923.62" y="247" width="90" height="70"/><path class="z" d="M937.27,271.43h13.1v2.37h-10.46v6.78h9.92v2.34h-9.92v7.27h10.46v2.37h-13.1v-21.14Z"/><path class="z" d="M952.82,288.26v-.03c0-2.59,2.02-4.22,5.52-4.42l4.37-.25v-1.27c0-1.86-1.22-2.99-3.34-2.99-1.96,0-3.19.94-3.49,2.3l-.03.13h-2.46v-.16c.23-2.5,2.42-4.53,6.01-4.53s5.86,1.95,5.86,5v10.53h-2.55v-2.48h-.06c-.89,1.67-2.72,2.77-4.76,2.77-3.03,0-5.07-1.83-5.07-4.6ZM958.46,290.65c2.4,0,4.25-1.66,4.25-3.87v-1.25l-4.07.25c-2.04.12-3.21,1.03-3.21,2.45v.03c0,1.46,1.2,2.39,3.03,2.39Z"/><path class="z" d="M968.5,277.33h2.55v2.58h.06c.51-1.76,1.83-2.87,3.54-2.87.44,0,.82.07,1.03.1v2.48c-.21-.07-.75-.15-1.36-.15-1.98,0-3.27,1.38-3.27,3.69v9.4h-2.55v-15.23Z"/><path class="z" d="M979.25,288.69v-9.24h-2.23v-2.11h2.23v-4.12h2.64v4.12h2.9v2.11h-2.9v9.23c0,1.63.72,2.08,2.08,2.08.31,0,.6-.04.82-.06v2.07c-.32.04-.86.1-1.36.1-2.8,0-4.17-1.26-4.17-4.17Z"/><path class="z" d="M987.64,271.43h2.55v8.33h.06c.82-1.71,2.48-2.72,4.75-2.72,3.24,0,5.45,2.5,5.45,6.2v9.33h-2.55v-8.89c0-2.75-1.41-4.38-3.78-4.38s-3.93,1.79-3.93,4.38v8.89h-2.55v-21.14Z"/><rect class="l" x="918.62" y="132" width="100" height="300"/><rect class="k" x="923.62" y="147" width="90" height="70"/><path class="x" d="M947.73,171.43h12.83v2.37h-10.2v7.27h9.36v2.34h-9.36v9.16h-2.64v-21.14Z"/><path class="x" d="M963,173.16c0-.89.72-1.6,1.6-1.6s1.6.7,1.6,1.6-.7,1.6-1.6,1.6-1.6-.72-1.6-1.6ZM963.33,177.33h2.55v15.23h-2.55v-15.23Z"/><path class="x" d="M969.35,177.33h2.55v2.58h.06c.51-1.76,1.83-2.87,3.54-2.87.44,0,.82.07,1.03.1v2.48c-.21-.07-.75-.15-1.36-.15-1.98,0-3.27,1.38-3.27,3.69v9.4h-2.55v-15.23Z"/><path class="x" d="M977.11,185.01h0c0-4.73,2.7-7.97,6.86-7.97s6.69,3.09,6.69,7.66v.94h-10.97c.06,3.13,1.79,4.97,4.5,4.97,1.93,0,3.3-.97,3.74-2.27l.04-.13h2.5l-.03.15c-.5,2.52-2.99,4.51-6.31,4.51-4.38,0-7.02-3.06-7.02-7.85ZM979.73,183.65h8.33c-.25-2.96-1.89-4.35-4.12-4.35s-3.94,1.51-4.22,4.35Z"/><rect class="k" x="923.62" y="347" width="90" height="70"/><path class="u" d="M932.32,371.43h2.75l4.26,17.36h.06l4.79-17.36h2.67l4.79,17.36h.06l4.26-17.36h2.75l-5.76,21.14h-2.49l-4.92-16.93h-.06l-4.92,16.93h-2.49l-5.76-21.14Z"/><path class="u" d="M958.36,388.26v-.03c0-2.59,2.02-4.22,5.52-4.42l4.37-.25v-1.27c0-1.86-1.22-2.99-3.34-2.99-1.96,0-3.19.94-3.49,2.3l-.03.13h-2.46v-.16c.23-2.5,2.42-4.53,6.01-4.53s5.86,1.95,5.86,5v10.53h-2.55v-2.48h-.06c-.89,1.67-2.72,2.77-4.76,2.77-3.03,0-5.07-1.83-5.07-4.6ZM964,390.65c2.4,0,4.25-1.66,4.25-3.87v-1.25l-4.07.25c-2.04.12-3.21,1.03-3.21,2.45v.03c0,1.46,1.2,2.39,3.03,2.39Z"/><path class="u" d="M974.81,388.69v-9.24h-2.23v-2.11h2.23v-4.12h2.64v4.12h2.9v2.11h-2.9v9.23c0,1.63.72,2.08,2.08,2.08.31,0,.6-.04.82-.06v2.07c-.32.04-.86.1-1.36.1-2.8,0-4.17-1.26-4.17-4.17Z"/><path class="u" d="M981.89,385.01h0c0-4.73,2.7-7.97,6.86-7.97s6.69,3.09,6.69,7.66v.94h-10.97c.06,3.13,1.79,4.97,4.5,4.97,1.93,0,3.3-.97,3.74-2.27l.04-.13h2.5l-.03.15c-.5,2.52-2.99,4.51-6.31,4.51-4.38,0-7.02-3.06-7.02-7.85ZM984.51,383.65h8.33c-.25-2.96-1.89-4.35-4.12-4.35s-3.94,1.51-4.22,4.35Z"/><path class="u" d="M998,377.33h2.55v2.58h.06c.51-1.76,1.83-2.87,3.54-2.87.44,0,.82.07,1.03.1v2.48c-.21-.07-.75-.15-1.36-.15-1.98,0-3.27,1.38-3.27,3.69v9.4h-2.55v-15.23Z"/><rect class="k" x="823.62" y="247" width="90" height="70"/><path class="t" d="M832,271.43h2.75l4.26,17.36h.06l4.79-17.36h2.67l4.79,17.36h.06l4.26-17.36h2.75l-5.76,21.14h-2.49l-4.92-16.93h-.06l-4.92,16.93h-2.49l-5.76-21.14Z"/><path class="t" d="M858.35,284.95v-.03c0-4.85,2.84-7.88,7.05-7.88s7.06,3.02,7.06,7.88v.03c0,4.86-2.84,7.91-7.05,7.91s-7.06-3.06-7.06-7.91ZM869.85,284.95v-.03c0-3.57-1.76-5.62-4.45-5.62s-4.44,2.07-4.44,5.62v.03c0,3.59,1.77,5.65,4.47,5.65s4.42-2.08,4.42-5.65Z"/><path class="t" d="M874.28,284.95v-.03c0-4.85,2.84-7.88,7.05-7.88s7.06,3.02,7.06,7.88v.03c0,4.86-2.84,7.91-7.05,7.91s-7.06-3.06-7.06-7.91ZM885.78,284.95v-.03c0-3.57-1.76-5.62-4.45-5.62s-4.44,2.07-4.44,5.62v.03c0,3.59,1.77,5.65,4.47,5.65s4.42-2.08,4.42-5.65Z"/><path class="t" d="M890.2,284.95h0c0-4.82,2.61-7.91,6.43-7.91,2.15,0,3.93,1.08,4.88,2.84h.06v-8.45h2.55v21.14h-2.55v-2.58h-.06c-.95,1.77-2.65,2.87-4.83,2.87-3.9,0-6.47-3.11-6.47-7.91ZM901.58,284.95h0c0-3.41-1.85-5.65-4.41-5.65-2.7,0-4.37,2.17-4.37,5.64h0c0,3.52,1.67,5.67,4.37,5.67s4.41-2.24,4.41-5.65Z"/><rect class="k" x="1023.62" y="247" width="90" height="70"/><path class="y" d="M1035.56,271.43h3.05l7.32,17.81h.09l7.32-17.81h3.05v21.14h-2.46v-16.33h-.09l-6.75,16.33h-2.23l-6.75-16.33h-.09v16.33h-2.46v-21.14Z"/><path class="y" d="M1059.35,285.01h0c0-4.73,2.7-7.97,6.86-7.97s6.69,3.09,6.69,7.66v.94h-10.97c.06,3.13,1.79,4.97,4.5,4.97,1.93,0,3.3-.97,3.74-2.27l.04-.13h2.5l-.03.15c-.5,2.52-2.99,4.51-6.31,4.51-4.38,0-7.02-3.06-7.02-7.85ZM1061.97,283.65h8.33c-.25-2.96-1.89-4.35-4.12-4.35s-3.94,1.51-4.22,4.35Z"/><path class="y" d="M1076.24,288.69v-9.24h-2.23v-2.11h2.23v-4.12h2.64v4.12h2.9v2.11h-2.9v9.23c0,1.63.72,2.08,2.08,2.08.31,0,.6-.04.82-.06v2.07c-.32.04-.86.1-1.36.1-2.8,0-4.17-1.26-4.17-4.17Z"/><path class="y" d="M1083.59,288.26v-.03c0-2.59,2.02-4.22,5.52-4.42l4.37-.25v-1.27c0-1.86-1.22-2.99-3.34-2.99-1.96,0-3.19.94-3.49,2.3l-.03.13h-2.46v-.16c.23-2.5,2.42-4.53,6.01-4.53s5.86,1.95,5.86,5v10.53h-2.55v-2.48h-.06c-.89,1.67-2.72,2.77-4.76,2.77-3.03,0-5.07-1.83-5.07-4.6ZM1089.23,290.65c2.4,0,4.25-1.66,4.25-3.87v-1.25l-4.07.25c-2.04.12-3.21,1.03-3.21,2.45v.03c0,1.46,1.2,2.39,3.03,2.39Z"/><path class="y" d="M1099.4,271.43h2.55v21.14h-2.55v-21.14Z"/><line class="m" x1="768.31" y1="281.38" x2="785.96" y2="281.38"/><polygon class="aa" points="783.04 291.35 800.31 281.38 783.04 271.41 783.04 291.35"/><line class="m" x1="399.69" y1="281.5" x2="417.34" y2="281.5"/><polygon class="aa" points="414.42 291.47 431.69 281.5 414.42 271.53 414.42 291.47"/></g></svg>