<?xml version="1.0" encoding="UTF-8"?><svg xmlns="http://www.w3.org/2000/svg" viewBox="0 0 1200 675"><defs><style>.k{stroke:#7a0000;}.k,.l,.m,.n,.o,.p,.q,.r,.s,.t,.u,.v,.w,.x,.y,.z,.aa,.ab,.ac,.ad,.ae,.af,.ag{stroke-miterlimit:10;}.k,.l,.m,.n,.o,.p,.q,.r,.s,.t,.u,.w,.x,.y,.z,.ab,.ac,.ad,.ag{fill:none;}.ah{fill:#1f2328;}.l{stroke:green;}.m{stroke:#300352;}.n{stroke:#670067;}.o{stroke:#003d00;}.p{stroke:#003a52;}.ai{fill:#30363d;}.q{stroke:#2f353d;stroke-width:3px;}.r{stroke:#f0f;}.s,.v,.aa,.ae,.af{stroke:#3d444d;}.t{stroke:#0067c0;}.u{stroke:#ffd400;}.v,.x,.z,.aa,.ae,.af{stroke-width:2px;}.v,.aj{fill:#fff;}.w{stroke:red;}.x{stroke-dasharray:4.03 4.03;}.x,.z{stroke:#f0883e;}.ak{fill:#21262d;}.al{fill:#0d1117;}.y{stroke:#f0f6fc;}.am{fill:#9199a1;}.an{fill:#484f58;}.ao{fill:#2f353d;}.aa{fill:#6a0dad;}.ab{stroke:#001f41;}.ac{stroke:#00aeef;}.ad{stroke:#6a0dad;}.af{fill:#0067c0;}.ap{fill:#c9d1d9;}.aq{fill:#f0883e;}.ag{stroke:#413500;}</style></defs><g id="a"><rect width="1200" height="675"/></g><g id="b"><rect class="al" x="108" y="132" width="432" height="432"/><rect class="al" x="108.89" y="132.78" width="430.23" height="430.23"/><rect class="ak" x="180.59" y="204.69" width="286.82" height="286.61"/><rect class="an" x="252.3" y="276.19" width="143.41" height="143.41"/><rect class="ai" x="324" y="276.19" width="23.9" height="23.9"/><rect class="ai" x="371.8" y="324" width="23.9" height="23.9"/><rect class="ai" x="371.8" y="371.8" width="23.9" height="23.9"/><rect class="ai" x="371.8" y="276.19" width="23.9" height="23.9"/><rect class="ai" x="347.9" y="395.7" width="23.9" height="23.9"/><rect class="ai" x="300.1" y="395.7" width="23.9" height="23.9"/><rect class="ai" x="276.2" y="276.19" width="23.9" height="23.9"/><rect class="ai" x="252.3" y="395.7" width="23.9" height="23.9"/><rect class="ai" x="252.3" y="347.9" width="23.9" height="23.9"/><rect class="ai" x="252.3" y="300.09" width="23.9" height="23.9"/><rect class="aj" x="276.2" y="300.09" width="95.61" height="95.61"/><rect class="ap" x="347.9" y="300.09" width="23.9" height="23.9"/><rect class="ap" x="300.1" y="300.09" width="23.9" height="23.9"/><rect class="ap" x="324" y="324" width="23.9" height="23.9"/><rect class="ap" x="276.2" y="324" width="23.9" height="23.9"/><rect class="ap" x="347.9" y="347.9" width="23.9" height="23.9"/><rect class="ap" x="300.1" y="347.9" width="23.9" height="23.9"/><rect class="ap" x="324" y="371.8" width="23.9" height="23.9"/><rect class="ap" x="276.2" y="371.8" width="23.9" height="23.9"/><line class="y" x1="395.7" y1="324" x2="467.41" y2="324"/><line class="y" x1="395.7" y1="347.9" x2="467.41" y2="347.9"/><line class="y" x1="395.7" y1="371.8" x2="467.41" y2="371.8"/><line class="y" x1="395.7" y1="300.09" x2="467.41" y2="300.09"/><line class="y" x1="395.7" y1="395.7" x2="467.41" y2="395.7"/><line class="m" x1="491.31" y1="563.01" x2="491.31" y2="419.6"/><line class="m" x1="515.21" y1="563.01" x2="515.21" y2="419.6"/><line class="m" x1="539.11" y1="539.11" x2="395.7" y2="539.11"/><line class="m" x1="539.11" y1="515.21" x2="395.7" y2="515.21"/><line class="s" x1="467.41" y1="324" x2="539.11" y2="324"/><line class="s" x1="467.41" y1="347.9" x2="539.11" y2="347.9"/><line class="s" x1="467.41" y1="371.8" x2="539.11" y2="371.8"/><line class="s" x1="467.41" y1="300.09" x2="539.11" y2="300.09"/><line class="s" x1="467.41" y1="395.7" x2="539.11" y2="395.7"/><line class="m" x1="467.41" y1="467.41" x2="539.11" y2="467.41"/><line class="m" x1="467.41" y1="491.31" x2="539.11" y2="491.31"/><line class="m" x1="467.41" y1="443.5" x2="539.11" y2="443.5"/><line class="y" x1="467.41" y1="419.6" x2="467.41" y2="276.19"/><line class="s" x1="491.31" y1="419.6" x2="491.31" y2="276.19"/><line class="s" x1="515.21" y1="419.6" x2="515.21" y2="276.19"/><line class="y" x1="443.51" y1="419.6" x2="443.51" y2="276.19"/><line class="y" x1="419.61" y1="419.6" x2="419.61" y2="276.19"/><line class="l" x1="252.3" y1="371.8" x2="180.59" y2="371.8"/><line class="l" x1="252.3" y1="347.9" x2="180.59" y2="347.9"/><line class="l" x1="252.3" y1="324" x2="180.59" y2="324"/><line class="l" x1="252.3" y1="395.7" x2="180.59" y2="395.7"/><line class="l" x1="252.3" y1="300.09" x2="180.59" y2="300.09"/><line class="o" x1="180.59" y1="371.8" x2="108.89" y2="371.8"/><line class="o" x1="180.59" y1="347.9" x2="108.89" y2="347.9"/><line class="o" x1="180.59" y1="324" x2="108.89" y2="324"/><line class="o" x1="180.59" y1="395.7" x2="108.89" y2="395.7"/><line class="o" x1="180.59" y1="300.09" x2="108.89" y2="300.09"/><line class="l" x1="180.59" y1="276.19" x2="180.59" y2="419.6"/><line class="o" x1="156.69" y1="276.19" x2="156.69" y2="419.6"/><line class="o" x1="132.79" y1="276.19" x2="132.79" y2="419.6"/><line class="l" x1="204.49" y1="276.19" x2="204.49" y2="419.6"/><line class="l" x1="228.39" y1="276.19" x2="228.39" y2="419.6"/><line class="w" x1="300.1" y1="276.19" x2="300.1" y2="204.49"/><line class="w" x1="324" y1="276.19" x2="324" y2="204.49"/><line class="w" x1="347.9" y1="276.19" x2="347.9" y2="204.49"/><line class="w" x1="276.2" y1="276.19" x2="276.2" y2="204.49"/><line class="w" x1="371.8" y1="276.19" x2="371.8" y2="204.49"/><line class="k" x1="300.1" y1="204.49" x2="300.1" y2="132.78"/><line class="k" x1="324" y1="204.49" x2="324" y2="132.78"/><line class="k" x1="347.9" y1="204.49" x2="347.9" y2="132.78"/><line class="k" x1="276.2" y1="204.49" x2="276.2" y2="132.78"/><line class="k" x1="371.8" y1="204.49" x2="371.8" y2="132.78"/><line class="w" x1="395.7" y1="204.49" x2="252.3" y2="204.49"/><line class="k" x1="395.7" y1="180.59" x2="252.3" y2="180.59"/><line class="k" x1="395.7" y1="156.68" x2="252.3" y2="156.68"/><line class="w" x1="395.7" y1="228.39" x2="252.3" y2="228.39"/><line class="w" x1="395.7" y1="252.29" x2="252.3" y2="252.29"/><line class="t" x1="347.9" y1="419.6" x2="347.9" y2="491.31"/><line class="t" x1="324" y1="419.6" x2="324" y2="491.31"/><line class="t" x1="300.1" y1="419.6" x2="300.1" y2="491.31"/><line class="t" x1="371.8" y1="419.6" x2="371.8" y2="491.31"/><line class="t" x1="276.2" y1="419.6" x2="276.2" y2="491.31"/><line class="ab" x1="347.9" y1="491.31" x2="347.9" y2="563.01"/><line class="ab" x1="324" y1="491.31" x2="324" y2="563.01"/><line class="ab" x1="300.1" y1="491.31" x2="300.1" y2="563.01"/><line class="ab" x1="371.8" y1="491.31" x2="371.8" y2="563.01"/><line class="m" x1="419.61" y1="491.51" x2="419.61" y2="563.22"/><line class="m" x1="443.51" y1="491.51" x2="443.51" y2="563.22"/><line class="m" x1="467.41" y1="491.51" x2="467.41" y2="563.22"/><line class="ab" x1="276.2" y1="491.31" x2="276.2" y2="563.01"/><line class="t" x1="252.3" y1="491.31" x2="395.7" y2="491.31"/><line class="ab" x1="252.3" y1="515.21" x2="395.7" y2="515.21"/><line class="ab" x1="252.3" y1="539.11" x2="395.7" y2="539.11"/><line class="t" x1="252.3" y1="467.41" x2="395.7" y2="467.41"/><line class="t" x1="252.3" y1="443.5" x2="395.7" y2="443.5"/><line class="ad" x1="395.7" y1="467.41" x2="467.41" y2="467.41"/><line class="ad" x1="395.7" y1="443.5" x2="467.41" y2="443.5"/><line class="ad" x1="443.51" y1="491.31" x2="443.51" y2="419.6"/><line class="ad" x1="419.61" y1="491.31" x2="419.61" y2="419.6"/><polyline class="ad" points="395.7 491.31 467.41 491.31 467.41 419.6"/><line class="ag" x1="156.69" y1="132.99" x2="156.69" y2="276.4"/><line class="ag" x1="132.79" y1="132.99" x2="132.79" y2="276.4"/><line class="ag" x1="108.89" y1="156.89" x2="252.3" y2="156.89"/><line class="ag" x1="108.89" y1="180.79" x2="252.3" y2="180.79"/><line class="ag" x1="180.59" y1="228.59" x2="108.89" y2="228.59"/><line class="ag" x1="180.59" y1="204.69" x2="108.89" y2="204.69"/><line class="ag" x1="180.59" y1="252.5" x2="108.89" y2="252.5"/><line class="ag" x1="228.39" y1="204.49" x2="228.39" y2="132.78"/><line class="ag" x1="204.49" y1="204.49" x2="204.49" y2="132.78"/><line class="ag" x1="180.59" y1="204.49" x2="180.59" y2="132.78"/><line class="u" x1="252.3" y1="228.59" x2="180.59" y2="228.59"/><line class="u" x1="252.3" y1="252.5" x2="180.59" y2="252.5"/><line class="u" x1="204.49" y1="204.69" x2="204.49" y2="276.4"/><line class="u" x1="228.39" y1="204.69" x2="228.39" y2="276.4"/><polyline class="u" points="252.3 204.69 180.59 204.69 180.59 276.4"/><line class="p" x1="156.69" y1="563.01" x2="156.69" y2="419.6"/><line class="p" x1="132.79" y1="563.01" x2="132.79" y2="419.6"/><line class="p" x1="108.89" y1="539.11" x2="252.3" y2="539.11"/><line class="p" x1="108.89" y1="515.21" x2="252.3" y2="515.21"/><line class="p" x1="180.59" y1="467.41" x2="108.89" y2="467.41"/><line class="p" x1="180.59" y1="491.31" x2="108.89" y2="491.31"/><line class="p" x1="180.59" y1="443.5" x2="108.89" y2="443.5"/><line class="p" x1="228.39" y1="491.51" x2="228.39" y2="563.22"/><line class="p" x1="204.49" y1="491.51" x2="204.49" y2="563.22"/><line class="p" x1="180.59" y1="491.51" x2="180.59" y2="563.22"/><line class="ac" x1="252.3" y1="467.41" x2="180.59" y2="467.41"/><line class="ac" x1="252.3" y1="443.5" x2="180.59" y2="443.5"/><line class="ac" x1="204.49" y1="491.31" x2="204.49" y2="419.6"/><line class="ac" x1="228.39" y1="491.31" x2="228.39" y2="419.6"/><polyline class="ac" points="252.3 491.31 180.59 491.31 180.59 419.6"/><line class="n" x1="491.31" y1="132.99" x2="491.31" y2="276.4"/><line class="n" x1="515.21" y1="132.99" x2="515.21" y2="276.4"/><line class="n" x1="539.11" y1="156.89" x2="395.7" y2="156.89"/><line class="n" x1="539.11" y1="180.79" x2="395.7" y2="180.79"/><line class="n" x1="467.41" y1="228.59" x2="539.11" y2="228.59"/><line class="n" x1="467.41" y1="204.69" x2="539.11" y2="204.69"/><line class="n" x1="467.41" y1="252.5" x2="539.11" y2="252.5"/><line class="n" x1="419.61" y1="204.49" x2="419.61" y2="132.78"/><line class="n" x1="443.51" y1="204.49" x2="443.51" y2="132.78"/><line class="n" x1="467.41" y1="204.49" x2="467.41" y2="132.78"/><line class="r" x1="395.7" y1="228.59" x2="467.41" y2="228.59"/><line class="r" x1="395.7" y1="252.5" x2="467.41" y2="252.5"/><line class="r" x1="443.51" y1="204.69" x2="443.51" y2="276.4"/><line class="r" x1="419.61" y1="204.69" x2="419.61" y2="276.4"/><polyline class="r" points="395.7 204.69 467.41 204.69 467.41 276.4"/><rect class="q" x="108.89" y="132.78" width="430.23" height="430.23"/><line class="q" x1="108.89" y1="276.19" x2="539.11" y2="276.19"/><line class="q" x1="108.89" y1="419.6" x2="539.11" y2="419.6"/><line class="q" x1="252.3" y1="563.01" x2="252.3" y2="132.78"/><line class="q" x1="395.7" y1="563.01" x2="395.7" y2="132.78"/><rect class="al" x="661" y="132" width="432" height="432"/><rect class="ak" x="708.88" y="180.1" width="336.24" height="336"/><rect class="aj" x="805" y="276" width="144" height="144"/><rect class="ap" x="853.44" y="276" width="48" height="48"/><rect class="ap" x="853.44" y="372" width="48" height="48"/><rect class="ap" x="805.44" y="324" width="48" height="48" transform="translate(481.44 1177.44) rotate(-90)"/><rect class="ap" x="901.44" y="324" width="48" height="48" transform="translate(577.44 1273.44) rotate(-90)"/><line class="y" x1="949" y1="324" x2="1045" y2="324"/><line class="y" x1="949" y1="372" x2="1045" y2="372"/><line class="s" x1="1045" y1="324" x2="1093" y2="324"/><line class="s" x1="1045" y1="372" x2="1093" y2="372"/><line class="m" x1="1045" y1="468" x2="1093" y2="468"/><line class="y" x1="1045" y1="420" x2="1045" y2="276"/><line class="y" x1="997" y1="420" x2="997" y2="276"/><line class="l" x1="805" y1="372" x2="709" y2="372"/><line class="l" x1="805" y1="324" x2="709" y2="324"/><line class="o" x1="709" y1="372" x2="661" y2="372"/><line class="o" x1="709" y1="324" x2="661" y2="324"/><line class="l" x1="709" y1="276" x2="709" y2="420"/><line class="l" x1="757" y1="276" x2="757" y2="420"/><line class="w" x1="853" y1="276" x2="853" y2="180.21"/><line class="w" x1="901" y1="276" x2="901" y2="180.21"/><line class="k" x1="853" y1="180.21" x2="853" y2="132"/><line class="k" x1="901" y1="180.21" x2="901" y2="132"/><line class="w" x1="949" y1="180" x2="805" y2="180"/><line class="w" x1="949" y1="228" x2="805" y2="228"/><line class="t" x1="901" y1="420" x2="901" y2="516"/><line class="t" x1="853" y1="420" x2="853" y2="516"/><line class="ab" x1="901" y1="516" x2="901" y2="564"/><line class="ab" x1="853" y1="516" x2="853" y2="564"/><line class="m" x1="997" y1="516" x2="997" y2="564.21"/><line class="t" x1="805" y1="516" x2="949" y2="516"/><line class="t" x1="805" y1="468" x2="949" y2="468"/><line class="ad" x1="949" y1="468" x2="1045" y2="468"/><line class="ad" x1="997" y1="516" x2="997" y2="420"/><polyline class="ag" points="661 180.21 709 180.21 709 132.21"/><polyline class="u" points="805 180.21 709 180.21 709 276.21"/><line class="ag" x1="709" y1="228.21" x2="661" y2="228.21"/><line class="ag" x1="757" y1="180.21" x2="757" y2="132"/><line class="u" x1="805" y1="228.21" x2="709" y2="228.21"/><line class="u" x1="757" y1="180.21" x2="757" y2="276.21"/><line class="p" x1="709" y1="468" x2="661" y2="468"/><line class="p" x1="757" y1="516" x2="757" y2="564.21"/><line class="ac" x1="805" y1="468" x2="709" y2="468"/><line class="ac" x1="757" y1="516" x2="757" y2="420"/><line class="n" x1="1045" y1="228.21" x2="1093" y2="228.21"/><line class="n" x1="997" y1="180.21" x2="997" y2="132"/><line class="r" x1="949" y1="228.21" x2="1045" y2="228.21"/><line class="r" x1="997" y1="180.21" x2="997" y2="276.21"/><polyline class="p" points="709 564.21 709 516.21 661 516.21"/><polyline class="ac" points="709 420.21 709 516.21 805 516.21"/><polyline class="n" points="1093 180.21 1045 180.21 1045 132.21"/><polyline class="r" points="949 180.21 1045 180.21 1045 276.21"/><polyline class="m" points="1045 564.21 1045 516.21 1093 516.21"/><polyline class="ad" points="1045 420.21 1045 516.21 949 516.21"/><rect class="q" x="661" y="132" width="432" height="432"/><line class="q" x1="661" y1="276" x2="1093" y2="276"/><line class="q" x1="661" y1="420" x2="1093" y2="420"/><line class="q" x1="805" y1="564" x2="805" y2="132"/><line class="q" x1="949" y1="564" x2="949" y2="132"/><path class="am" d="M112.07,95.28h-6.14l-1.65,5.18h-1.64l5.58-16.91h1.57l5.58,16.91h-1.64l-1.65-5.18ZM106.36,93.89h5.27l-2.62-8.25h-.02l-2.62,8.25Z"/><path class="am" d="M127.97,100.46v-16.91h5.2c3.07,0,4.91,1.56,4.91,4.17,0,1.89-1.17,3.41-2.86,3.73v.15c2.29.26,3.73,1.89,3.73,4.18,0,2.95-2.12,4.68-5.77,4.68h-5.21ZM129.58,91h2.91c2.6,0,3.98-1.05,3.98-3.02s-1.31-3.01-3.6-3.01h-3.29v6.04ZM132.96,99.04c2.82,0,4.35-1.17,4.35-3.34s-1.52-3.3-4.43-3.3h-3.3v6.64h3.39Z"/><path class="am" d="M161.45,95.64h1.61c0,3.01-2.37,5.17-5.67,5.17-3.89,0-6.14-2.71-6.14-7.41v-2.8c0-4.7,2.25-7.41,6.14-7.41,3.43,0,5.6,2.1,5.68,5.52h-1.61c-.09-2.4-1.75-4.03-4.08-4.03-2.98,0-4.54,2.04-4.54,5.92v2.8c0,3.88,1.56,5.92,4.54,5.92,2.45,0,4-1.39,4.07-3.68Z"/><path class="am" d="M180.11,83.54c4.8,0,7.21,2.81,7.21,8.46s-2.4,8.45-7.21,8.45h-4.49v-16.91h4.49ZM177.23,99h2.79c3.83,0,5.66-2.25,5.66-7s-1.83-7.01-5.66-7.01h-2.79v14Z"/><path class="am" d="M210.14,100.46h-9.73v-16.91h9.73v1.45h-8.12v6.08h7.69v1.43h-7.69v6.49h8.12v1.45Z"/><path class="am" d="M224.72,100.46v-16.91h9.71v1.45h-8.11v6.35h7.43v1.43h-7.43v7.68h-1.61Z"/><path class="am" d="M257.35,93.46h-4.17v-1.43h5.78v3.63c0,3.01-2.36,5.14-5.66,5.14-3.89,0-6.14-2.71-6.14-7.41v-2.8c0-4.7,2.25-7.41,6.14-7.41,3.43,0,5.59,2.1,5.67,5.52h-1.61c-.09-2.4-1.73-4.03-4.07-4.03-2.98,0-4.54,2.04-4.54,5.92v2.8c0,3.88,1.56,5.92,4.54,5.92,2.5,0,4.05-1.49,4.05-3.88v-1.98Z"/><path class="am" d="M280.87,100.46v-7.93h-7.73v7.93h-1.61v-16.91h1.61v7.52h7.73v-7.52h1.61v16.91h-1.61Z"/><path class="am" d="M296.8,100.46v-1.38h3.4v-14.14h-3.4v-1.38h8.39v1.38h-3.4v14.14h3.4v1.38h-8.39Z"/><path class="am" d="M319.8,96.59h1.59c.07,1.62,1.34,2.73,3.09,2.73,2.05,0,3.21-1.28,3.21-3.53v-10.86h-5.72v-1.38h7.32v12.3c0,3.08-1.83,4.96-4.8,4.96-2.74,0-4.68-1.73-4.7-4.22Z"/><path class="am" d="M344.37,100.46v-16.91h1.61v8.74h.14l7.18-8.74h2l-6.41,7.48,7.1,9.43h-2.07l-6.09-8.2-1.85,2.17v6.04h-1.61Z"/><path class="am" d="M378.64,100.46h-9.83v-16.91h1.59v15.46h8.24v1.45Z"/><path class="am" d="M392.49,100.46h-1.5v-16.91h1.89l4.07,10.88h.13l4.04-10.88h1.9v16.91h-1.5v-13.79h-.12l-3.7,9.82h-1.38l-3.7-9.82h-.12v13.79Z"/><path class="am" d="M415.48,100.46v-16.91h1.63l7.76,14.04h.15v-14.04h1.5v16.91h-1.59l-7.79-14.05h-.15v14.05h-1.5Z"/><path class="am" d="M445,100.81c-3.76,0-6.08-2.74-6.08-7.41v-2.8c0-4.66,2.32-7.41,6.08-7.41s6.08,2.74,6.08,7.41v2.8c0,4.66-2.32,7.41-6.08,7.41ZM449.48,93.4v-2.8c0-3.75-1.71-5.92-4.48-5.92s-4.48,2.17-4.48,5.92v2.8c0,3.75,1.71,5.92,4.48,5.92s4.48-2.17,4.48-5.92Z"/><path class="am" d="M469.53,83.54c3.18,0,5.3,2.11,5.3,5.26s-2.12,5.26-5.3,5.26h-3.81v6.39h-1.61v-16.91h5.41ZM465.72,92.64h3.42c2.57,0,4.05-1.41,4.05-3.83s-1.49-3.83-4.05-3.83h-3.42v7.66Z"/><path class="am" d="M495.85,100.15c-.82.43-1.77.66-2.85.66-3.76,0-6.08-2.74-6.08-7.41v-2.8c0-4.66,2.32-7.41,6.08-7.41s6.08,2.74,6.08,7.41v2.8c0,2.59-.71,4.58-1.99,5.85l2.11,3.19h-1.84l-1.51-2.29ZM494.99,98.86l-2.51-3.81h1.84l1.86,2.82c.83-1.01,1.29-2.53,1.29-4.48v-2.8c0-3.75-1.71-5.92-4.48-5.92s-4.48,2.17-4.48,5.92v2.8c0,3.75,1.71,5.92,4.48,5.92.75,0,1.42-.15,1.99-.46Z"/><path class="am" d="M513.45,93.48v6.97h-1.57v-16.91h5.51c3.22,0,5.26,1.91,5.26,4.95,0,2.23-1.25,4.04-3.21,4.63l3.47,7.34h-1.8l-3.21-6.97h-4.44ZM513.45,92.1h3.71c2.51,0,3.89-1.25,3.89-3.54s-1.36-3.59-3.77-3.59h-3.83v7.12Z"/><path class="am" d="M537,96.06c.22,2.03,1.83,3.28,4.2,3.28s4-1.31,4-3.32c0-1.62-1.07-2.62-3.48-3.25l-1.32-.34c-3.18-.83-4.57-2.27-4.57-4.7,0-2.75,2.12-4.55,5.38-4.55,3.07,0,5.18,1.77,5.34,4.49h-1.61c-.23-1.91-1.62-3.02-3.74-3.02-2.34,0-3.74,1.15-3.74,3.08,0,1.58,1.01,2.52,3.35,3.13l1.37.36c3.29.86,4.65,2.26,4.65,4.79,0,2.88-2.24,4.78-5.64,4.78s-5.6-1.83-5.8-4.75h1.61Z"/><path class="am" d="M655.17,100.46v-1.38h5.14v-13.62h-.18l-5.02,3.23v-1.78l5.2-3.36h1.58v15.53h4.91v1.38h-11.65Z"/><path class="am" d="M708.38,83.19c2.96,0,5,1.9,5,4.66,0,1.72-.73,3.04-3.36,6.07l-4.23,4.89v.19h7.88v1.45h-10.24v-1.02l5.8-6.77c2.07-2.45,2.55-3.35,2.55-4.78,0-1.99-1.35-3.28-3.43-3.28s-3.41,1.39-3.41,3.55v.07h-1.58v-.07c0-2.87,2.12-4.96,5.03-4.96Z"/><path class="am" d="M754.44,91.03h1.79c1.97,0,3.39-1.38,3.39-3.3s-1.35-3.13-3.34-3.13-3.29,1.2-3.49,3.16h-1.61c.23-2.82,2.21-4.57,5.18-4.57s4.96,1.82,4.96,4.34c0,2.05-1.04,3.5-2.84,3.97v.18c2.23.32,3.56,1.92,3.56,4.27,0,2.81-2.36,4.86-5.57,4.86s-5.47-1.88-5.62-4.68h1.54c.21,1.98,1.82,3.27,4.04,3.27,2.46,0,3.98-1.31,3.98-3.42s-1.58-3.56-4.08-3.56h-1.9v-1.38Z"/><path class="am" d="M806.71,96.72h-7.76v-1.23l5.96-11.94h1.64l-5.92,11.68v.12h6.07v-5.09h1.46v5.03h2.68v1.43h-2.71v3.74h-1.44v-3.74Z"/><path class="am" d="M846.99,96.08h1.54c.19,1.95,1.82,3.3,3.95,3.3,2.32,0,3.86-1.68,3.86-4.18s-1.56-4.25-3.86-4.25c-1.63,0-3,.76-3.69,2.04h-1.49l.88-9.45h8.84v1.44h-7.58l-.5,5.98h.18c.88-.98,2.05-1.48,3.5-1.48,3.13,0,5.32,2.34,5.32,5.68s-2.26,5.62-5.59,5.62c-3,0-5.14-1.89-5.34-4.71Z"/><path class="am" d="M900.49,100.81c-3.15,0-5.47-2.36-5.47-5.57,0-1.95.66-3.7,2.25-6.04l3.87-5.66h1.86l-4.75,6.66c-.52.75-.41.59-.48.73l.15.12c.46-.68,1.75-1.24,2.84-1.24,3.04,0,5.26,2.26,5.26,5.33,0,3.32-2.3,5.67-5.53,5.67ZM904.5,95.23c0-2.37-1.72-4.2-3.97-4.2s-3.97,1.83-3.97,4.2,1.72,4.2,3.97,4.2,3.97-1.83,3.97-4.2Z"/><path class="am" d="M952.45,85.12v-.13h-9.38v-1.44h11.02v1.5l-7.75,15.41h-1.71l7.82-15.34Z"/><path class="am" d="M990.88,95.94c0-2.11,1.32-3.83,3.35-4.32v-.18c-1.64-.49-2.67-1.96-2.67-3.81,0-2.62,2.09-4.48,5.02-4.48s5.02,1.85,5.02,4.48c0,1.86-1.01,3.3-2.68,3.81v.18c1.98.4,3.36,2.18,3.36,4.32,0,2.87-2.36,4.9-5.7,4.9s-5.7-2.03-5.7-4.9ZM1000.7,95.85c0-2.1-1.69-3.55-4.12-3.55s-4.12,1.45-4.12,3.55,1.69,3.55,4.12,3.55,4.12-1.45,4.12-3.55ZM1000.03,87.75c0-1.88-1.37-3.12-3.46-3.12s-3.46,1.24-3.46,3.12,1.37,3.12,3.46,3.12,3.46-1.24,3.46-3.12Z"/><path class="am" d="M1044.48,83.19c3.15,0,5.47,2.36,5.47,5.57,0,1.88-.67,3.62-2.31,6.04l-3.87,5.66h-1.86l4.75-6.66c.35-.49.41-.59.49-.73l-.15-.12c-.46.69-1.71,1.24-2.79,1.24-3.04,0-5.26-2.26-5.26-5.33,0-3.32,2.3-5.67,5.53-5.67ZM1040.47,88.77c0,2.37,1.72,4.2,3.97,4.2s3.97-1.83,3.97-4.2-1.72-4.2-3.97-4.2-3.97,1.83-3.97,4.2Z"/><path class="am" d="M1079.75,100.46v-1.38h5.14v-13.62h-.18l-5.02,3.23v-1.78l5.2-3.36h1.58v15.53h4.91v1.38h-11.65Z"/><path class="am" d="M1094.47,92.01c0-5.72,1.93-8.85,5.46-8.85s5.46,3.13,5.46,8.85-1.93,8.85-5.46,8.85-5.46-3.13-5.46-8.85ZM1096.21,94.51l7.15-6.54c-.57-2.25-1.72-3.41-3.43-3.41-2.53,0-3.86,2.55-3.86,7.44,0,.91.05,1.76.14,2.51ZM1103.79,92.01c0-.94-.05-1.78-.14-2.54l-7.14,6.62c.57,2.21,1.72,3.36,3.42,3.36,2.53,0,3.86-2.55,3.86-7.44Z"/><path class="ao" d="M41.07,631.42c0-3.63,2.8-6.43,6.35-6.43s6.35,2.8,6.35,6.43-2.8,6.43-6.35,6.43-6.35-2.8-6.35-6.43ZM52.53,631.42c0-2.95-2.24-5.29-5.11-5.29s-5.11,2.33-5.11,5.29,2.24,5.29,5.11,5.29,5.11-2.33,5.11-5.29ZM48.98,630.27c-.21-.64-.68-1.05-1.41-1.05-1.1,0-1.75.86-1.75,2.19s.64,2.19,1.75,2.19c.73,0,1.25-.39,1.41-.98h1.28c-.2,1.28-1.3,2.19-2.7,2.19-1.85,0-3.05-1.29-3.05-3.4s1.2-3.4,3.05-3.4c1.39,0,2.47.93,2.7,2.26h-1.28Z"/><path class="ao" d="M76.97,622.61c2.96,0,5,1.9,5,4.66,0,1.72-.73,3.04-3.36,6.07l-4.23,4.89v.19h7.88v1.45h-10.24v-1.02l5.8-6.77c2.07-2.45,2.55-3.35,2.55-4.78,0-1.99-1.35-3.28-3.43-3.28s-3.41,1.39-3.41,3.55v.07h-1.58v-.07c0-2.87,2.12-4.96,5.03-4.96Z"/><path class="ao" d="M86.48,631.42c0-5.72,1.93-8.85,5.46-8.85s5.46,3.13,5.46,8.85-1.93,8.85-5.46,8.85-5.46-3.13-5.46-8.85ZM88.22,633.93l7.15-6.54c-.57-2.25-1.72-3.41-3.43-3.41-2.53,0-3.86,2.55-3.86,7.44,0,.91.05,1.76.14,2.51ZM95.79,631.42c0-.94-.05-1.78-.14-2.54l-7.14,6.62c.57,2.21,1.72,3.36,3.42,3.36,2.53,0,3.86-2.55,3.86-7.44Z"/><path class="ao" d="M106.64,622.61c2.96,0,5,1.9,5,4.66,0,1.72-.73,3.04-3.36,6.07l-4.23,4.89v.19h7.88v1.45h-10.24v-1.02l5.8-6.77c2.07-2.45,2.55-3.35,2.55-4.78,0-1.99-1.35-3.28-3.43-3.28s-3.41,1.39-3.41,3.55v.07h-1.58v-.07c0-2.87,2.12-4.96,5.03-4.96Z"/><path class="ao" d="M116.09,635.5h1.54c.19,1.95,1.82,3.3,3.95,3.3,2.32,0,3.86-1.68,3.86-4.18s-1.56-4.25-3.86-4.25c-1.63,0-3,.76-3.69,2.04h-1.49l.88-9.45h8.84v1.44h-7.58l-.5,5.98h.18c.88-.98,2.05-1.48,3.5-1.48,3.13,0,5.32,2.34,5.32,5.68s-2.26,5.62-5.59,5.62c-3,0-5.14-1.89-5.34-4.71Z"/><path class="ao" d="M146.64,639.87v-16.91h1.61v8.74h.14l7.18-8.74h2l-6.41,7.48,7.1,9.43h-2.07l-6.09-8.2-1.85,2.17v6.04h-1.61Z"/><path class="ao" d="M160.76,634.5v-1.88c0-3.4,2.09-5.58,5.34-5.58s5.34,2.18,5.34,5.58v1.88c0,3.4-2.09,5.58-5.34,5.58s-5.34-2.18-5.34-5.58ZM162.3,632.83v1.48c0,2.73,1.46,4.41,3.81,4.41s3.81-1.68,3.81-4.41v-1.48c0-2.73-1.46-4.41-3.81-4.41s-3.81,1.68-3.81,4.41Z"/><path class="ao" d="M175.95,622.22h1.46v7.3h.15c.69-1.59,2.17-2.48,4.12-2.48,2.75,0,4.24,1.63,4.24,4.63v8.2h-1.54v-7.82c0-2.47-1-3.63-3.12-3.63-2.26,0-3.8,1.61-3.8,3.95v7.5h-1.54v-17.65Z"/><path class="ao" d="M200.97,636.75c-.42,2.02-2.34,3.33-4.89,3.33-3.4,0-5.37-2.1-5.37-5.7v-1.84c0-3.33,2.06-5.51,5.19-5.51s5.12,2.16,5.12,5.93v1h-8.78v.43c0,2.64,1.49,4.31,3.83,4.31,1.72,0,2.98-.73,3.36-1.96h1.52ZM192.25,632.7h7.22c0-2.68-1.34-4.3-3.56-4.3s-3.66,1.61-3.66,4.3Z"/><path class="ao" d="M205.62,627.25h1.46v2.27h.15c.69-1.59,2.17-2.48,4.12-2.48,2.75,0,4.24,1.63,4.24,4.63v8.2h-1.54v-7.82c0-2.47-1-3.63-3.12-3.63-2.26,0-3.8,1.61-3.8,3.95v7.5h-1.54v-12.62Z"/><path class="ao" d="M232.87,633.06v-1.36h14.84v1.36h-14.84Z"/><path class="ao" d="M265.45,639.87h-1.5v-16.91h1.89l4.07,10.88h.13l4.04-10.88h1.9v16.91h-1.5v-13.79h-.12l-3.7,9.82h-1.38l-3.7-9.82h-.12v13.79Z"/><path class="ao" d="M284,639.87v-15.46h-5.2v-1.45h12v1.45h-5.2v15.46h-1.59Z"/><path class="ao" d="M300.16,622.96c3.18,0,5.3,2.11,5.3,5.26s-2.12,5.26-5.3,5.26h-3.81v6.39h-1.61v-16.91h5.41ZM296.35,632.05h3.42c2.57,0,4.05-1.41,4.05-3.83s-1.49-3.83-4.05-3.83h-3.42v7.66Z"/><path class="ao" d="M321.88,633.06v-1.36h14.84v1.36h-14.84Z"/><path class="ao" d="M354.17,639.87v-1.24h4.44v-10.14h-4.46v-1.24h6v11.38h4.32v1.24h-10.3ZM357.75,622.46c0-.8.66-1.45,1.45-1.45s1.45.66,1.45,1.45-.66,1.45-1.45,1.45-1.45-.66-1.45-1.45Z"/><path class="ao" d="M379.79,639.87h-1.44v-8.71c0-1.82-.61-2.74-1.79-2.74-1.24,0-1.99,1.12-1.99,3v8.45h-1.44v-8.72c0-1.8-.61-2.73-1.8-2.73-1.27,0-2.04,1.14-2.04,3v8.45h-1.44v-12.62h1.39v1.69h.16c.33-1.17,1.25-1.9,2.41-1.9s2.06.7,2.33,1.9h.16c.34-1.15,1.41-1.9,2.71-1.9,1.84,0,2.78,1.28,2.78,3.77v9.06Z"/><path class="ao" d="M392.29,627.25h1.95l-4.99,4.89,5.34,7.73h-1.85l-4.57-6.68-1.95,1.9v4.78h-1.54v-17.65h1.54v10.97h.14l5.93-5.94Z"/><path class="ao" d="M398.14,634.5v-1.88c0-3.4,2.09-5.58,5.34-5.58s5.34,2.18,5.34,5.58v1.88c0,3.4-2.09,5.58-5.34,5.58s-5.34-2.18-5.34-5.58ZM399.67,632.83v1.48c0,2.73,1.46,4.41,3.81,4.41s3.81-1.68,3.81-4.41v-1.48c0-2.73-1.46-4.41-3.81-4.41s-3.81,1.68-3.81,4.41Z"/><path class="ao" d="M413.32,622.22h1.46v7.3h.15c.69-1.59,2.17-2.48,4.12-2.48,2.75,0,4.24,1.63,4.24,4.63v8.2h-1.54v-7.82c0-2.47-1-3.63-3.12-3.63-2.26,0-3.8,1.61-3.8,3.95v7.5h-1.54v-17.65Z"/><path class="ao" d="M438.34,636.75c-.42,2.02-2.34,3.33-4.89,3.33-3.4,0-5.37-2.1-5.37-5.7v-1.84c0-3.33,2.06-5.51,5.19-5.51s5.12,2.16,5.12,5.93v1h-8.78v.43c0,2.64,1.49,4.31,3.83,4.31,1.72,0,2.98-.73,3.36-1.96h1.52ZM429.62,632.7h7.22c0-2.68-1.34-4.3-3.56-4.3s-3.66,1.61-3.66,4.3Z"/><path class="ao" d="M443,627.25h1.46v2.27h.15c.69-1.59,2.17-2.48,4.12-2.48,2.75,0,4.24,1.63,4.24,4.63v8.2h-1.54v-7.82c0-2.47-1-3.63-3.12-3.63-2.26,0-3.8,1.61-3.8,3.95v7.5h-1.54v-12.62Z"/><path class="ao" d="M457.68,636.31c0-2.21,1.58-3.54,4.37-3.67l3.66-.16v-1.2c0-1.82-1.04-2.8-2.98-2.8-1.59,0-2.7.68-3.05,1.9h-1.52c.23-1.89,2.13-3.23,4.57-3.23,2.86,0,4.52,1.5,4.52,4.07v8.67h-1.48v-1.99h-.16c-.6,1.42-1.99,2.2-3.9,2.2-2.43,0-4.03-1.5-4.03-3.79ZM465.71,635.51v-1.76l-3.55.15c-1.89.08-2.89.93-2.89,2.4s1.08,2.43,2.82,2.43c2.04,0,3.62-1.41,3.62-3.22Z"/><path class="ao" d="M482.65,639.87h-1.46v-2.27h-.15c-.69,1.59-2.17,2.48-4.12,2.48-2.75,0-4.24-1.63-4.24-4.63v-8.2h1.54v7.82c0,2.47,1,3.63,3.12,3.63,2.26,0,3.8-1.61,3.8-3.95v-7.5h1.54v12.62Z"/><path class="ao" d="M492.57,627.04c2.47,0,4.22,1.28,4.49,3.27h-1.51c-.27-1.23-1.42-1.99-3.02-1.99-1.76,0-2.88.84-2.88,2.16,0,1.1.69,1.71,2.41,2.11l1.71.4c2.43.57,3.53,1.64,3.53,3.42,0,2.23-1.89,3.68-4.76,3.68s-4.59-1.3-4.83-3.38h1.59c.33,1.3,1.55,2.06,3.3,2.06,1.89,0,3.09-.89,3.09-2.27,0-1.15-.67-1.76-2.39-2.17l-1.86-.45c-2.25-.53-3.35-1.63-3.35-3.35,0-2.07,1.82-3.49,4.48-3.49Z"/><path class="ao" d="M512.52,636.75c-.42,2.02-2.34,3.33-4.89,3.33-3.4,0-5.37-2.1-5.37-5.7v-1.84c0-3.33,2.06-5.51,5.19-5.51s5.12,2.16,5.12,5.93v1h-8.78v.43c0,2.64,1.49,4.31,3.83,4.31,1.72,0,2.98-.73,3.36-1.96h1.52ZM503.8,632.7h7.22c0-2.68-1.34-4.3-3.56-4.3s-3.66,1.61-3.66,4.3Z"/><path class="ao" d="M521.57,638.63h4.01v1.24h-8.14v-1.24h2.6v-10.14h-2.86v-1.24h4.36v3.21h.16c.43-2.25,2.1-3.53,4.56-3.53.73,0,1.44.11,1.84.28v1.68c-.59-.21-1.39-.35-2.07-.35-2.72,0-4.45,2.2-4.45,5.66v4.43Z"/><path class="ao" d="M535.06,637.93c0-1.07.88-1.95,1.95-1.95s1.95.88,1.95,1.95-.88,1.95-1.95,1.95-1.95-.88-1.95-1.95Z"/><path class="ao" d="M555.4,630.96c-.26-1.5-1.65-2.54-3.38-2.54-2.4,0-3.74,1.61-3.74,4.5v1.28c0,2.89,1.34,4.5,3.74,4.5,1.72,0,3.12-1.04,3.38-2.54h1.52c-.33,2.37-2.25,3.93-4.86,3.93-3.32,0-5.31-2.11-5.31-5.62v-1.79c0-3.52,1.99-5.62,5.31-5.62,2.61,0,4.54,1.56,4.86,3.93h-1.52Z"/><path class="ao" d="M561.33,634.5v-1.88c0-3.4,2.09-5.58,5.34-5.58s5.34,2.18,5.34,5.58v1.88c0,3.4-2.09,5.58-5.34,5.58s-5.34-2.18-5.34-5.58ZM562.87,632.83v1.48c0,2.73,1.46,4.41,3.81,4.41s3.81-1.68,3.81-4.41v-1.48c0-2.73-1.46-4.41-3.81-4.41s-3.81,1.68-3.81,4.41Z"/><path class="ao" d="M587.49,639.87h-1.44v-8.71c0-1.82-.61-2.74-1.79-2.74-1.24,0-1.99,1.12-1.99,3v8.45h-1.44v-8.72c0-1.8-.61-2.73-1.8-2.73-1.27,0-2.04,1.14-2.04,3v8.45h-1.44v-12.62h1.39v1.69h.16c.33-1.17,1.25-1.9,2.41-1.9s2.06.7,2.33,1.9h.16c.34-1.15,1.41-1.9,2.71-1.9,1.84,0,2.78,1.28,2.78,3.77v9.06Z"/><path class="ao" d="M591.45,641.03l8.33-19.23h1.46l-8.33,19.23h-1.46Z"/><path class="ao" d="M617.16,639.87h-1.44v-8.71c0-1.82-.61-2.74-1.79-2.74-1.24,0-1.99,1.12-1.99,3v8.45h-1.44v-8.72c0-1.8-.61-2.73-1.8-2.73-1.27,0-2.04,1.14-2.04,3v8.45h-1.44v-12.62h1.39v1.69h.16c.33-1.17,1.25-1.9,2.41-1.9s2.06.7,2.33,1.9h.16c.34-1.15,1.41-1.9,2.71-1.9,1.84,0,2.78,1.28,2.78,3.77v9.06Z"/><path class="ao" d="M625.57,623.97v3.28h5.29v1.3h-5.29v7.63c0,1.56,1.08,2.4,3.08,2.4.87,0,1.79-.04,2.2-.09v1.31c-.38.07-1.56.14-2.29.14-3.04,0-4.54-1.23-4.54-3.71v-7.68h-3.4v-1.3h3.4v-3.28h1.54Z"/><path class="ao" d="M646.34,632.35v2.43c0,3.15-1.99,5.31-4.92,5.31-1.83,0-3.21-.75-3.81-2.07h-.21v6.14h-1.54v-16.9h1.46v1.82h.21c.74-1.32,2.09-2.03,3.88-2.03,2.93,0,4.92,2.16,4.92,5.31ZM637.36,632.72v1.69c0,2.61,1.46,4.3,3.71,4.3s3.73-1.7,3.73-4.3v-1.69c0-2.6-1.46-4.3-3.73-4.3s-3.71,1.69-3.71,4.3Z"/><rect class="v" x="212" y="376" width="80" height="80" rx="40" ry="40"/><path class="ah" d="M251.29,402.97h-.09l-8.95,6.23v-4.24l9-6.47h4.12v33.82h-4.08v-29.34Z"/><rect class="ae" x="1005" y="236" width="80" height="80" rx="40" ry="40"/><path class="aq" d="M834.12,602.88h-4.17v-1.43h5.78v3.63c0,3.01-2.36,5.14-5.66,5.14-3.89,0-6.14-2.71-6.14-7.41v-2.8c0-4.7,2.25-7.41,6.14-7.41,3.43,0,5.59,2.1,5.67,5.52h-1.61c-.09-2.4-1.73-4.03-4.07-4.03-2.98,0-4.54,2.04-4.54,5.92v2.8c0,3.88,1.56,5.92,4.54,5.92,2.5,0,4.05-1.49,4.05-3.88v-1.98Z"/><path class="aq" d="M839.8,609.87v-1.24h4.44v-10.14h-4.46v-1.24h6v11.38h4.32v1.24h-10.3ZM843.39,592.46c0-.8.66-1.45,1.45-1.45s1.45.66,1.45,1.45-.66,1.45-1.45,1.45-1.45-.66-1.45-1.45Z"/><path class="aq" d="M854.65,608.7l7.73-10.01v-.14h-7.72v-1.3h9.56v1.18l-7.71,10v.14h7.72v1.3h-9.59v-1.17Z"/><path class="aq" d="M880.26,609.87h-1.44v-8.71c0-1.82-.61-2.74-1.79-2.74-1.24,0-1.99,1.12-1.99,3v8.45h-1.44v-8.72c0-1.8-.61-2.73-1.8-2.73-1.27,0-2.04,1.14-2.04,3v8.45h-1.44v-12.62h1.39v1.69h.16c.33-1.17,1.25-1.9,2.41-1.9s2.06.7,2.33,1.9h.16c.34-1.15,1.41-1.9,2.71-1.9,1.84,0,2.78,1.28,2.78,3.77v9.06Z"/><path class="aq" d="M883.77,604.5v-1.88c0-3.4,2.09-5.58,5.34-5.58s5.34,2.18,5.34,5.58v1.88c0,3.4-2.09,5.58-5.34,5.58s-5.34-2.18-5.34-5.58ZM885.31,602.83v1.48c0,2.73,1.46,4.41,3.81,4.41s3.81-1.68,3.81-4.41v-1.48c0-2.73-1.46-4.41-3.81-4.41s-3.81,1.68-3.81,4.41Z"/><path class="aq" d="M986.09,592.96h1.63l-5.58,16.91h-1.57l-5.58-16.91h1.63l4.72,14.81h.02l4.72-14.81Z"/><path class="aq" d="M1001.38,606.75c-.42,2.02-2.34,3.33-4.89,3.33-3.4,0-5.37-2.1-5.37-5.7v-1.84c0-3.33,2.06-5.51,5.19-5.51s5.12,2.16,5.12,5.93v1h-8.78v.43c0,2.64,1.49,4.31,3.83,4.31,1.72,0,2.98-.73,3.36-1.96h1.52ZM992.66,602.7h7.22c0-2.68-1.34-4.3-3.56-4.3s-3.66,1.61-3.66,4.3Z"/><path class="aq" d="M1010.43,608.63h4.01v1.24h-8.14v-1.24h2.6v-10.14h-2.86v-1.24h4.36v3.21h.16c.43-2.25,2.1-3.53,4.56-3.53.73,0,1.44.11,1.84.28v1.68c-.59-.21-1.39-.35-2.07-.35-2.72,0-4.45,2.2-4.45,5.66v4.43Z"/><path class="aq" d="M1025.42,593.97v3.28h5.29v1.3h-5.29v7.63c0,1.56,1.08,2.4,3.08,2.4.87,0,1.79-.04,2.2-.09v1.31c-.38.07-1.56.14-2.29.14-3.04,0-4.54-1.23-4.54-3.71v-7.68h-3.4v-1.3h3.4v-3.28h1.54Z"/><path class="aq" d="M1045.89,606.75c-.42,2.02-2.34,3.33-4.89,3.33-3.4,0-5.37-2.1-5.37-5.7v-1.84c0-3.33,2.06-5.51,5.19-5.51s5.12,2.16,5.12,5.93v1h-8.78v.43c0,2.64,1.49,4.31,3.83,4.31,1.72,0,2.98-.73,3.36-1.96h1.52ZM1037.17,602.7h7.22c0-2.68-1.34-4.3-3.56-4.3s-3.66,1.61-3.66,4.3Z"/><path class="aq" d="M1055.45,604.71l-3.45,5.16h-1.76l4.45-6.35-4.49-6.27h1.85l3.43,5.04h.14l3.41-5.04h1.77l-4.43,6.21,4.48,6.41h-1.84l-3.43-5.16h-.14Z"/><circle class="aa" cx="996.5" cy="467.5" r="20"/><circle class="af" cx="901" cy="467" r="20"/><circle class="aa" cx="997" cy="516" r="20"/><rect class="v" x="909" y="447" width="80" height="80" rx="40" ry="40"/><line class="z" x1="864.5" y1="580.5" x2="920.01" y2="523.3"/><polygon class="aq" points="925.13 532.34 930 513 910.82 518.45 925.13 532.34"/><line class="z" x1="948.5" y1="487.5" x2="949.33" y2="485.68"/><line class="x" x1="951" y1="482.01" x2="1036.89" y2="293.22"/><line class="z" x1="1037.73" y1="291.38" x2="1038.56" y2="289.56"/><polygon class="aq" points="1046.43 296.35 1044.5 276.5 1028.27 288.09 1046.43 296.35"/><line class="z" x1="1018.5" y1="580.5" x2="1004.89" y2="538.16"/><polygon class="aq" points="1015.28 537.89 1000.5 524.5 996.29 543.99 1015.28 537.89"/></g></svg>