<?xml version="1.0" encoding="UTF-8"?><svg xmlns="http://www.w3.org/2000/svg" viewBox="0 0 1200 675"><defs><style>.k,.l,.m,.n,.o,.p,.q,.r,.s,.t,.u,.v,.w,.x,.y,.z,.aa,.ab,.ac,.ad,.ae,.af{fill:none;}.l{stroke:#7a0000;}.l,.m,.n,.o,.p,.q,.r,.s,.t,.u,.v,.w,.x,.ag,.y,.z,.aa,.ab,.ac,.ad,.ae,.ah,.af{stroke-miterlimit:10;}.m{stroke:green;}.ai{fill:#7a0000;}.aj{fill:#ffd400;}.n{stroke:#300352;}.o{stroke:#670067;}.p{stroke-dasharray:4.12 4.12;}.p,.t,.ag,.aa,.ab,.ah{stroke-width:2px;}.p,.t,.aa,.ab{stroke:#f0883e;}.ak{fill:#f0f;}.q{stroke:#003d00;}.r{stroke:#003a52;}.al{fill:#30363d;}.s{stroke:#2f353d;stroke-width:3px;}.t{stroke-dasharray:3.98 3.98;}.u{stroke:#f0f;}.v,.ag,.ah{stroke:#3d444d;}.w{stroke:#0067c0;}.x{stroke:#ffd400;}.ag,.am{fill:#fff;}.y{stroke:red;}.an{fill:#21262d;}.ao{fill:#0d1117;}.z{stroke:#f0f6fc;}.ap{fill:#9199a1;}.aq{fill:green;}.ar{fill:#484f58;}.as{fill:#2f353d;}.ab{stroke-dasharray:4.03 4.03;}.at{fill:red;}.ac{stroke:#001f41;}.ad{stroke:#00aeef;}.ae{stroke:#6a0dad;}.au{fill:#f0f6fc;}.av{fill:#c9d1d9;}.aw{fill:#f0883e;}.af{stroke:#413500;}</style></defs><g id="a"><rect width="1200" height="675"/></g><g id="b"><path class="as" d="M41.07,631.42c0-3.63,2.8-6.43,6.35-6.43s6.35,2.8,6.35,6.43-2.8,6.43-6.35,6.43-6.35-2.8-6.35-6.43ZM52.53,631.42c0-2.95-2.24-5.29-5.11-5.29s-5.11,2.33-5.11,5.29,2.24,5.29,5.11,5.29,5.11-2.33,5.11-5.29ZM48.98,630.27c-.21-.64-.68-1.05-1.41-1.05-1.1,0-1.75.86-1.75,2.19s.64,2.19,1.75,2.19c.73,0,1.25-.39,1.41-.98h1.28c-.2,1.28-1.3,2.19-2.7,2.19-1.85,0-3.05-1.29-3.05-3.4s1.2-3.4,3.05-3.4c1.39,0,2.47.93,2.7,2.26h-1.28Z"/><path class="as" d="M76.97,622.61c2.96,0,5,1.9,5,4.66,0,1.72-.73,3.04-3.36,6.07l-4.23,4.89v.19h7.88v1.45h-10.24v-1.02l5.8-6.77c2.07-2.45,2.55-3.35,2.55-4.78,0-1.99-1.35-3.28-3.43-3.28s-3.41,1.39-3.41,3.55v.07h-1.58v-.07c0-2.87,2.12-4.96,5.03-4.96Z"/><path class="as" d="M86.48,631.42c0-5.72,1.93-8.85,5.46-8.85s5.46,3.13,5.46,8.85-1.93,8.85-5.46,8.85-5.46-3.13-5.46-8.85ZM88.22,633.93l7.15-6.54c-.57-2.25-1.72-3.41-3.43-3.41-2.53,0-3.86,2.55-3.86,7.44,0,.91.05,1.76.14,2.51ZM95.79,631.42c0-.94-.05-1.78-.14-2.54l-7.14,6.62c.57,2.21,1.72,3.36,3.42,3.36,2.53,0,3.86-2.55,3.86-7.44Z"/><path class="as" d="M106.64,622.61c2.96,0,5,1.9,5,4.66,0,1.72-.73,3.04-3.36,6.07l-4.23,4.89v.19h7.88v1.45h-10.24v-1.02l5.8-6.77c2.07-2.45,2.55-3.35,2.55-4.78,0-1.99-1.35-3.28-3.43-3.28s-3.41,1.39-3.41,3.55v.07h-1.58v-.07c0-2.87,2.12-4.96,5.03-4.96Z"/><path class="as" d="M116.09,635.5h1.54c.19,1.95,1.82,3.3,3.95,3.3,2.32,0,3.86-1.68,3.86-4.18s-1.56-4.25-3.86-4.25c-1.63,0-3,.76-3.69,2.04h-1.49l.88-9.45h8.84v1.44h-7.58l-.5,5.98h.18c.88-.98,2.05-1.48,3.5-1.48,3.13,0,5.32,2.34,5.32,5.68s-2.26,5.62-5.59,5.62c-3,0-5.14-1.89-5.34-4.71Z"/><path class="as" d="M146.64,639.87v-16.91h1.61v8.74h.14l7.18-8.74h2l-6.41,7.48,7.1,9.43h-2.07l-6.09-8.2-1.85,2.17v6.04h-1.61Z"/><path class="as" d="M160.76,634.5v-1.88c0-3.4,2.09-5.58,5.34-5.58s5.34,2.18,5.34,5.58v1.88c0,3.4-2.09,5.58-5.34,5.58s-5.34-2.18-5.34-5.58ZM162.3,632.83v1.48c0,2.73,1.46,4.41,3.81,4.41s3.81-1.68,3.81-4.41v-1.48c0-2.73-1.46-4.41-3.81-4.41s-3.81,1.68-3.81,4.41Z"/><path class="as" d="M175.95,622.22h1.46v7.3h.15c.69-1.59,2.17-2.48,4.12-2.48,2.75,0,4.24,1.63,4.24,4.63v8.2h-1.54v-7.82c0-2.47-1-3.63-3.12-3.63-2.26,0-3.8,1.61-3.8,3.95v7.5h-1.54v-17.65Z"/><path class="as" d="M200.97,636.75c-.42,2.02-2.34,3.33-4.89,3.33-3.4,0-5.37-2.1-5.37-5.7v-1.84c0-3.33,2.06-5.51,5.19-5.51s5.12,2.16,5.12,5.93v1h-8.78v.43c0,2.64,1.49,4.31,3.83,4.31,1.72,0,2.98-.73,3.36-1.96h1.52ZM192.25,632.7h7.22c0-2.68-1.34-4.3-3.56-4.3s-3.66,1.61-3.66,4.3Z"/><path class="as" d="M205.62,627.25h1.46v2.27h.15c.69-1.59,2.17-2.48,4.12-2.48,2.75,0,4.24,1.63,4.24,4.63v8.2h-1.54v-7.82c0-2.47-1-3.63-3.12-3.63-2.26,0-3.8,1.61-3.8,3.95v7.5h-1.54v-12.62Z"/><path class="as" d="M232.87,633.06v-1.36h14.84v1.36h-14.84Z"/><path class="as" d="M265.45,639.87h-1.5v-16.91h1.89l4.07,10.88h.13l4.04-10.88h1.9v16.91h-1.5v-13.79h-.12l-3.7,9.82h-1.38l-3.7-9.82h-.12v13.79Z"/><path class="as" d="M284,639.87v-15.46h-5.2v-1.45h12v1.45h-5.2v15.46h-1.59Z"/><path class="as" d="M300.16,622.96c3.18,0,5.3,2.11,5.3,5.26s-2.12,5.26-5.3,5.26h-3.81v6.39h-1.61v-16.91h5.41ZM296.35,632.05h3.42c2.57,0,4.05-1.41,4.05-3.83s-1.49-3.83-4.05-3.83h-3.42v7.66Z"/><path class="as" d="M321.88,633.06v-1.36h14.84v1.36h-14.84Z"/><path class="as" d="M354.17,639.87v-1.24h4.44v-10.14h-4.46v-1.24h6v11.38h4.32v1.24h-10.3ZM357.75,622.46c0-.8.66-1.45,1.45-1.45s1.45.66,1.45,1.45-.66,1.45-1.45,1.45-1.45-.66-1.45-1.45Z"/><path class="as" d="M379.79,639.87h-1.44v-8.71c0-1.82-.61-2.74-1.79-2.74-1.24,0-1.99,1.12-1.99,3v8.45h-1.44v-8.72c0-1.8-.61-2.73-1.8-2.73-1.27,0-2.04,1.14-2.04,3v8.45h-1.44v-12.62h1.39v1.69h.16c.33-1.17,1.25-1.9,2.41-1.9s2.06.7,2.33,1.9h.16c.34-1.15,1.41-1.9,2.71-1.9,1.84,0,2.78,1.28,2.78,3.77v9.06Z"/><path class="as" d="M392.29,627.25h1.95l-4.99,4.89,5.34,7.73h-1.85l-4.57-6.68-1.95,1.9v4.78h-1.54v-17.65h1.54v10.97h.14l5.93-5.94Z"/><path class="as" d="M398.14,634.5v-1.88c0-3.4,2.09-5.58,5.34-5.58s5.34,2.18,5.34,5.58v1.88c0,3.4-2.09,5.58-5.34,5.58s-5.34-2.18-5.34-5.58ZM399.67,632.83v1.48c0,2.73,1.46,4.41,3.81,4.41s3.81-1.68,3.81-4.41v-1.48c0-2.73-1.46-4.41-3.81-4.41s-3.81,1.68-3.81,4.41Z"/><path class="as" d="M413.32,622.22h1.46v7.3h.15c.69-1.59,2.17-2.48,4.12-2.48,2.75,0,4.24,1.63,4.24,4.63v8.2h-1.54v-7.82c0-2.47-1-3.63-3.12-3.63-2.26,0-3.8,1.61-3.8,3.95v7.5h-1.54v-17.65Z"/><path class="as" d="M438.34,636.75c-.42,2.02-2.34,3.33-4.89,3.33-3.4,0-5.37-2.1-5.37-5.7v-1.84c0-3.33,2.06-5.51,5.19-5.51s5.12,2.16,5.12,5.93v1h-8.78v.43c0,2.64,1.49,4.31,3.83,4.31,1.72,0,2.98-.73,3.36-1.96h1.52ZM429.62,632.7h7.22c0-2.68-1.34-4.3-3.56-4.3s-3.66,1.61-3.66,4.3Z"/><path class="as" d="M443,627.25h1.46v2.27h.15c.69-1.59,2.17-2.48,4.12-2.48,2.75,0,4.24,1.63,4.24,4.63v8.2h-1.54v-7.82c0-2.47-1-3.63-3.12-3.63-2.26,0-3.8,1.61-3.8,3.95v7.5h-1.54v-12.62Z"/><path class="as" d="M457.68,636.31c0-2.21,1.58-3.54,4.37-3.67l3.66-.16v-1.2c0-1.82-1.04-2.8-2.98-2.8-1.59,0-2.7.68-3.05,1.9h-1.52c.23-1.89,2.13-3.23,4.57-3.23,2.86,0,4.52,1.5,4.52,4.07v8.67h-1.48v-1.99h-.16c-.6,1.42-1.99,2.2-3.9,2.2-2.43,0-4.03-1.5-4.03-3.79ZM465.71,635.51v-1.76l-3.55.15c-1.89.08-2.89.93-2.89,2.4s1.08,2.43,2.82,2.43c2.04,0,3.62-1.41,3.62-3.22Z"/><path class="as" d="M482.65,639.87h-1.46v-2.27h-.15c-.69,1.59-2.17,2.48-4.12,2.48-2.75,0-4.24-1.63-4.24-4.63v-8.2h1.54v7.82c0,2.47,1,3.63,3.12,3.63,2.26,0,3.8-1.61,3.8-3.95v-7.5h1.54v12.62Z"/><path class="as" d="M492.57,627.04c2.47,0,4.22,1.28,4.49,3.27h-1.51c-.27-1.23-1.42-1.99-3.02-1.99-1.76,0-2.88.84-2.88,2.16,0,1.1.69,1.71,2.41,2.11l1.71.4c2.43.57,3.53,1.64,3.53,3.42,0,2.23-1.89,3.68-4.76,3.68s-4.59-1.3-4.83-3.38h1.59c.33,1.3,1.55,2.06,3.3,2.06,1.89,0,3.09-.89,3.09-2.27,0-1.15-.67-1.76-2.39-2.17l-1.86-.45c-2.25-.53-3.35-1.63-3.35-3.35,0-2.07,1.82-3.49,4.48-3.49Z"/><path class="as" d="M512.52,636.75c-.42,2.02-2.34,3.33-4.89,3.33-3.4,0-5.37-2.1-5.37-5.7v-1.84c0-3.33,2.06-5.51,5.19-5.51s5.12,2.16,5.12,5.93v1h-8.78v.43c0,2.64,1.49,4.31,3.83,4.31,1.72,0,2.98-.73,3.36-1.96h1.52ZM503.8,632.7h7.22c0-2.68-1.34-4.3-3.56-4.3s-3.66,1.61-3.66,4.3Z"/><path class="as" d="M521.57,638.63h4.01v1.24h-8.14v-1.24h2.6v-10.14h-2.86v-1.24h4.36v3.21h.16c.43-2.25,2.1-3.53,4.56-3.53.73,0,1.44.11,1.84.28v1.68c-.59-.21-1.39-.35-2.07-.35-2.72,0-4.45,2.2-4.45,5.66v4.43Z"/><path class="as" d="M535.06,637.93c0-1.07.88-1.95,1.95-1.95s1.95.88,1.95,1.95-.88,1.95-1.95,1.95-1.95-.88-1.95-1.95Z"/><path class="as" d="M555.4,630.96c-.26-1.5-1.65-2.54-3.38-2.54-2.4,0-3.74,1.61-3.74,4.5v1.28c0,2.89,1.34,4.5,3.74,4.5,1.72,0,3.12-1.04,3.38-2.54h1.52c-.33,2.37-2.25,3.93-4.86,3.93-3.32,0-5.31-2.11-5.31-5.62v-1.79c0-3.52,1.99-5.62,5.31-5.62,2.61,0,4.54,1.56,4.86,3.93h-1.52Z"/><path class="as" d="M561.33,634.5v-1.88c0-3.4,2.09-5.58,5.34-5.58s5.34,2.18,5.34,5.58v1.88c0,3.4-2.09,5.58-5.34,5.58s-5.34-2.18-5.34-5.58ZM562.87,632.83v1.48c0,2.73,1.46,4.41,3.81,4.41s3.81-1.68,3.81-4.41v-1.48c0-2.73-1.46-4.41-3.81-4.41s-3.81,1.68-3.81,4.41Z"/><path class="as" d="M587.49,639.87h-1.44v-8.71c0-1.82-.61-2.74-1.79-2.74-1.24,0-1.99,1.12-1.99,3v8.45h-1.44v-8.72c0-1.8-.61-2.73-1.8-2.73-1.27,0-2.04,1.14-2.04,3v8.45h-1.44v-12.62h1.39v1.69h.16c.33-1.17,1.25-1.9,2.41-1.9s2.06.7,2.33,1.9h.16c.34-1.15,1.41-1.9,2.71-1.9,1.84,0,2.78,1.28,2.78,3.77v9.06Z"/><path class="as" d="M591.45,641.03l8.33-19.23h1.46l-8.33,19.23h-1.46Z"/><path class="as" d="M617.16,639.87h-1.44v-8.71c0-1.82-.61-2.74-1.79-2.74-1.24,0-1.99,1.12-1.99,3v8.45h-1.44v-8.72c0-1.8-.61-2.73-1.8-2.73-1.27,0-2.04,1.14-2.04,3v8.45h-1.44v-12.62h1.39v1.69h.16c.33-1.17,1.25-1.9,2.41-1.9s2.06.7,2.33,1.9h.16c.34-1.15,1.41-1.9,2.71-1.9,1.84,0,2.78,1.28,2.78,3.77v9.06Z"/><path class="as" d="M625.57,623.97v3.28h5.29v1.3h-5.29v7.63c0,1.56,1.08,2.4,3.08,2.4.87,0,1.79-.04,2.2-.09v1.31c-.38.07-1.56.14-2.29.14-3.04,0-4.54-1.23-4.54-3.71v-7.68h-3.4v-1.3h3.4v-3.28h1.54Z"/><path class="as" d="M646.34,632.35v2.43c0,3.15-1.99,5.31-4.92,5.31-1.83,0-3.21-.75-3.81-2.07h-.21v6.14h-1.54v-16.9h1.46v1.82h.21c.74-1.32,2.09-2.03,3.88-2.03,2.93,0,4.92,2.16,4.92,5.31ZM637.36,632.72v1.69c0,2.61,1.46,4.3,3.71,4.3s3.73-1.7,3.73-4.3v-1.69c0-2.6-1.46-4.3-3.73-4.3s-3.71,1.69-3.71,4.3Z"/><rect class="k" x="816" y="459.5" width="304" height="90"/><path class="ak" d="M883.59,459.5h12.68c6.52,0,10.78,3.98,10.78,10.08v.05c0,4.69-2.58,8.32-6.8,9.66l7.83,14.04h-4.95l-7.24-13.38h-8.09v13.38h-4.22v-33.82ZM895.89,476.21c4.34,0,6.8-2.34,6.8-6.49v-.05c0-4.03-2.65-6.42-6.98-6.42h-7.9v12.96h8.09Z"/><path class="ak" d="M911,481.23v-.02c0-7.55,4.31-12.73,10.97-12.73s10.71,4.95,10.71,12.26v1.5h-17.55c.09,5.02,2.86,7.95,7.2,7.95,3.09,0,5.27-1.55,5.98-3.63l.07-.21h4.01l-.05.23c-.8,4.03-4.78,7.22-10.1,7.22-7.01,0-11.23-4.9-11.23-12.56ZM915.19,479.05h13.34c-.4-4.73-3.02-6.96-6.59-6.96s-6.3,2.41-6.75,6.96Z"/><path class="ak" d="M938.5,487.11v-14.79h-3.56v-3.38h3.56v-6.59h4.22v6.59h4.64v3.38h-4.64v14.77c0,2.6,1.15,3.33,3.33,3.33.49,0,.96-.07,1.31-.09v3.3c-.52.07-1.38.16-2.18.16-4.48,0-6.68-2.02-6.68-6.68Z"/><path class="ak" d="M952.08,484.77v-15.82h4.08v15.09c0,3.96,1.85,6.14,5.6,6.14s6.35-2.74,6.35-6.89v-14.34h4.08v24.38h-4.08v-3.47h-.09c-1.31,2.27-3.8,3.94-7.5,3.94-5.34,0-8.44-3.47-8.44-9.02Z"/><path class="ak" d="M977.97,468.95h4.08v4.12h.09c.82-2.81,2.93-4.59,5.67-4.59.7,0,1.31.12,1.64.16v3.96c-.33-.12-1.2-.23-2.18-.23-3.16,0-5.23,2.2-5.23,5.91v15.05h-4.08v-24.38Z"/><path class="ak" d="M993.24,468.95h4.08v3.47h.09c1.31-2.27,3.8-3.94,7.5-3.94,5.34,0,8.44,3.47,8.44,9.02v15.82h-4.08v-15.09c0-3.96-1.85-6.14-5.6-6.14s-6.35,2.74-6.35,6.89v14.34h-4.08v-24.38Z"/><path class="ap" d="M1032.54,468.1l8.65,8.91,8.65-8.91,2.58,2.58-8.7,8.93,8.7,8.95-2.58,2.58-8.65-8.91-8.65,8.91-2.58-2.58,8.7-8.95-8.7-8.93,2.58-2.58Z"/><path class="au" d="M909.55,515.5h20.53v3.8h-16.31v11.62h14.98v3.75h-14.98v14.65h-4.22v-33.82Z"/><path class="au" d="M932.6,537.13v-.05c0-7.76,4.55-12.61,11.27-12.61s11.3,4.83,11.3,12.61v.05c0,7.78-4.55,12.66-11.27,12.66s-11.3-4.9-11.3-12.66ZM951,537.13v-.05c0-5.72-2.81-9-7.12-9s-7.1,3.3-7.1,9v.05c0,5.74,2.84,9.05,7.15,9.05s7.08-3.33,7.08-9.05Z"/><path class="au" d="M958.55,537.11v-.02c0-7.69,4.48-12.61,11.25-12.61,6.07,0,9.66,4.03,10.17,8.2l.02.19h-3.98l-.05-.19c-.61-2.44-2.58-4.59-6.16-4.59-4.24,0-7.08,3.52-7.08,9.05v.02c0,5.67,2.91,9.02,7.12,9.02,3.33,0,5.46-1.88,6.14-4.59l.05-.19h4.01l-.02.16c-.66,4.64-4.66,8.23-10.17,8.23-6.91,0-11.3-4.92-11.3-12.68Z"/><path class="au" d="M984.16,540.77v-15.82h4.08v15.09c0,3.96,1.85,6.14,5.6,6.14s6.35-2.74,6.35-6.89v-14.34h4.08v24.38h-4.08v-3.47h-.09c-1.31,2.27-3.8,3.94-7.5,3.94-5.34,0-8.44-3.47-8.44-9.02Z"/><path class="au" d="M1008.99,542.5l-.02-.21h4.08l.05.23c.49,2.44,2.3,3.87,5.62,3.87s5.27-1.38,5.27-3.59v-.02c0-1.76-.91-2.74-3.68-3.42l-3.87-.94c-4.59-1.1-6.82-3.23-6.82-6.75v-.02c0-4.2,3.68-7.17,8.95-7.17s8.74,3.12,9.05,7.2l.02.3h-3.89l-.02-.16c-.33-2.37-2.13-3.94-5.16-3.94s-4.78,1.43-4.78,3.59v.02c0,1.66,1.1,2.81,3.8,3.47l3.87.94c4.92,1.2,6.7,3.14,6.7,6.61v.02c0,4.27-4.03,7.27-9.47,7.27-5.74,0-9.21-2.93-9.7-7.29Z"/><rect class="ao" x="816" y="100" width="304" height="304"/><rect class="ao" x="816.62" y="100.55" width="302.75" height="302.75"/><rect class="an" x="867.08" y="151.15" width="201.84" height="201.69"/><rect class="ar" x="917.54" y="201.47" width="100.92" height="100.92"/><rect class="al" x="968" y="201.47" width="16.82" height="16.82"/><rect class="al" x="1001.64" y="235.11" width="16.82" height="16.82"/><rect class="al" x="1001.64" y="268.75" width="16.82" height="16.82"/><rect class="al" x="1001.64" y="201.47" width="16.82" height="16.82"/><rect class="al" x="984.82" y="285.57" width="16.82" height="16.82"/><rect class="al" x="951.18" y="285.57" width="16.82" height="16.82"/><rect class="al" x="934.36" y="201.47" width="16.82" height="16.82"/><rect class="al" x="917.54" y="285.57" width="16.82" height="16.82"/><rect class="al" x="917.54" y="251.93" width="16.82" height="16.82"/><rect class="al" x="917.54" y="218.29" width="16.82" height="16.82"/><rect class="am" x="934.36" y="218.29" width="67.28" height="67.28"/><rect class="av" x="984.82" y="218.29" width="16.82" height="16.82"/><rect class="av" x="951.18" y="218.29" width="16.82" height="16.82"/><rect class="av" x="968" y="235.11" width="16.82" height="16.82"/><rect class="av" x="934.36" y="235.11" width="16.82" height="16.82"/><rect class="av" x="984.82" y="251.93" width="16.82" height="16.82"/><rect class="av" x="951.18" y="251.93" width="16.82" height="16.82"/><rect class="av" x="968" y="268.75" width="16.82" height="16.82"/><rect class="av" x="934.36" y="268.75" width="16.82" height="16.82"/><line class="z" x1="1018.46" y1="235.11" x2="1068.92" y2="235.11"/><line class="z" x1="1018.46" y1="251.93" x2="1068.92" y2="251.93"/><line class="z" x1="1018.46" y1="268.75" x2="1068.92" y2="268.75"/><line class="z" x1="1018.46" y1="218.29" x2="1068.92" y2="218.29"/><line class="z" x1="1018.46" y1="285.57" x2="1068.92" y2="285.57"/><line class="n" x1="1085.74" y1="403.3" x2="1085.74" y2="302.39"/><line class="n" x1="1102.56" y1="403.3" x2="1102.56" y2="302.39"/><line class="n" x1="1119.38" y1="386.48" x2="1018.46" y2="386.48"/><line class="n" x1="1119.38" y1="369.67" x2="1018.46" y2="369.67"/><line class="v" x1="1068.92" y1="235.11" x2="1119.38" y2="235.11"/><line class="v" x1="1068.92" y1="251.93" x2="1119.38" y2="251.93"/><line class="v" x1="1068.92" y1="268.75" x2="1119.38" y2="268.75"/><line class="v" x1="1068.92" y1="218.29" x2="1119.38" y2="218.29"/><line class="v" x1="1068.92" y1="285.57" x2="1119.38" y2="285.57"/><line class="n" x1="1068.92" y1="336.03" x2="1119.38" y2="336.03"/><line class="n" x1="1068.92" y1="352.85" x2="1119.38" y2="352.85"/><line class="n" x1="1068.92" y1="319.21" x2="1119.38" y2="319.21"/><line class="z" x1="1068.92" y1="302.39" x2="1068.92" y2="201.47"/><line class="v" x1="1085.74" y1="302.39" x2="1085.74" y2="201.47"/><line class="v" x1="1102.56" y1="302.39" x2="1102.56" y2="201.47"/><line class="z" x1="1052.1" y1="302.39" x2="1052.1" y2="201.47"/><line class="z" x1="1035.28" y1="302.39" x2="1035.28" y2="201.47"/><line class="m" x1="917.54" y1="268.75" x2="867.08" y2="268.75"/><line class="m" x1="917.54" y1="251.93" x2="867.08" y2="251.93"/><line class="m" x1="917.54" y1="235.11" x2="867.08" y2="235.11"/><line class="m" x1="917.54" y1="285.57" x2="867.08" y2="285.57"/><line class="m" x1="917.54" y1="218.29" x2="867.08" y2="218.29"/><line class="q" x1="867.08" y1="268.75" x2="816.62" y2="268.75"/><line class="q" x1="867.08" y1="251.93" x2="816.62" y2="251.93"/><line class="q" x1="867.08" y1="235.11" x2="816.62" y2="235.11"/><line class="q" x1="867.08" y1="285.57" x2="816.62" y2="285.57"/><line class="q" x1="867.08" y1="218.29" x2="816.62" y2="218.29"/><line class="m" x1="867.08" y1="201.47" x2="867.08" y2="302.39"/><line class="q" x1="850.26" y1="201.47" x2="850.26" y2="302.39"/><line class="q" x1="833.44" y1="201.47" x2="833.44" y2="302.39"/><line class="m" x1="883.9" y1="201.47" x2="883.9" y2="302.39"/><line class="m" x1="900.72" y1="201.47" x2="900.72" y2="302.39"/><line class="y" x1="951.18" y1="201.47" x2="951.18" y2="151.01"/><line class="y" x1="968" y1="201.47" x2="968" y2="151.01"/><line class="y" x1="984.82" y1="201.47" x2="984.82" y2="151.01"/><line class="y" x1="934.36" y1="201.47" x2="934.36" y2="151.01"/><line class="y" x1="1001.64" y1="201.47" x2="1001.64" y2="151.01"/><line class="l" x1="951.18" y1="151.01" x2="951.18" y2="100.55"/><line class="l" x1="968" y1="151.01" x2="968" y2="100.55"/><line class="l" x1="984.82" y1="151.01" x2="984.82" y2="100.55"/><line class="l" x1="934.36" y1="151.01" x2="934.36" y2="100.55"/><line class="l" x1="1001.64" y1="151.01" x2="1001.64" y2="100.55"/><line class="y" x1="1018.46" y1="151.01" x2="917.54" y2="151.01"/><line class="l" x1="1018.46" y1="134.19" x2="917.54" y2="134.19"/><line class="l" x1="1018.46" y1="117.37" x2="917.54" y2="117.37"/><line class="y" x1="1018.46" y1="167.83" x2="917.54" y2="167.83"/><line class="y" x1="1018.46" y1="184.65" x2="917.54" y2="184.65"/><line class="w" x1="984.82" y1="302.39" x2="984.82" y2="352.85"/><line class="w" x1="968" y1="302.39" x2="968" y2="352.85"/><line class="w" x1="951.18" y1="302.39" x2="951.18" y2="352.85"/><line class="w" x1="1001.64" y1="302.39" x2="1001.64" y2="352.85"/><line class="w" x1="934.36" y1="302.39" x2="934.36" y2="352.85"/><line class="ac" x1="984.82" y1="352.85" x2="984.82" y2="403.3"/><line class="ac" x1="968" y1="352.85" x2="968" y2="403.3"/><line class="ac" x1="951.18" y1="352.85" x2="951.18" y2="403.3"/><line class="ac" x1="1001.64" y1="352.85" x2="1001.64" y2="403.3"/><line class="n" x1="1035.28" y1="352.99" x2="1035.28" y2="403.45"/><line class="n" x1="1052.1" y1="352.99" x2="1052.1" y2="403.45"/><line class="n" x1="1068.92" y1="352.99" x2="1068.92" y2="403.45"/><line class="ac" x1="934.36" y1="352.85" x2="934.36" y2="403.3"/><line class="w" x1="917.54" y1="352.85" x2="1018.46" y2="352.85"/><line class="ac" x1="917.54" y1="369.67" x2="1018.46" y2="369.67"/><line class="ac" x1="917.54" y1="386.48" x2="1018.46" y2="386.48"/><line class="w" x1="917.54" y1="336.03" x2="1018.46" y2="336.03"/><line class="w" x1="917.54" y1="319.21" x2="1018.46" y2="319.21"/><line class="ae" x1="1018.46" y1="336.03" x2="1068.92" y2="336.03"/><line class="ae" x1="1018.46" y1="319.21" x2="1068.92" y2="319.21"/><line class="ae" x1="1052.1" y1="352.85" x2="1052.1" y2="302.39"/><line class="ae" x1="1035.28" y1="352.85" x2="1035.28" y2="302.39"/><polyline class="ae" points="1018.46 352.85 1068.92 352.85 1068.92 302.39"/><line class="af" x1="850.26" y1="100.7" x2="850.26" y2="201.61"/><line class="af" x1="833.44" y1="100.7" x2="833.44" y2="201.61"/><line class="af" x1="816.62" y1="117.52" x2="917.54" y2="117.52"/><line class="af" x1="816.62" y1="134.33" x2="917.54" y2="134.33"/><line class="af" x1="867.08" y1="167.97" x2="816.62" y2="167.97"/><line class="af" x1="867.08" y1="151.15" x2="816.62" y2="151.15"/><line class="af" x1="867.08" y1="184.79" x2="816.62" y2="184.79"/><line class="af" x1="900.72" y1="151.01" x2="900.72" y2="100.55"/><line class="af" x1="883.9" y1="151.01" x2="883.9" y2="100.55"/><line class="af" x1="867.08" y1="151.01" x2="867.08" y2="100.55"/><line class="x" x1="917.54" y1="167.97" x2="867.08" y2="167.97"/><line class="x" x1="917.54" y1="184.79" x2="867.08" y2="184.79"/><line class="x" x1="883.9" y1="151.15" x2="883.9" y2="201.61"/><line class="x" x1="900.72" y1="151.15" x2="900.72" y2="201.61"/><polyline class="x" points="917.54 151.15 867.08 151.15 867.08 201.61"/><line class="r" x1="850.26" y1="403.3" x2="850.26" y2="302.39"/><line class="r" x1="833.44" y1="403.3" x2="833.44" y2="302.39"/><line class="r" x1="816.62" y1="386.48" x2="917.54" y2="386.48"/><line class="r" x1="816.62" y1="369.67" x2="917.54" y2="369.67"/><line class="r" x1="867.08" y1="336.03" x2="816.62" y2="336.03"/><line class="r" x1="867.08" y1="352.85" x2="816.62" y2="352.85"/><line class="r" x1="867.08" y1="319.21" x2="816.62" y2="319.21"/><line class="r" x1="900.72" y1="352.99" x2="900.72" y2="403.45"/><line class="r" x1="883.9" y1="352.99" x2="883.9" y2="403.45"/><line class="r" x1="867.08" y1="352.99" x2="867.08" y2="403.45"/><line class="ad" x1="917.54" y1="336.03" x2="867.08" y2="336.03"/><line class="ad" x1="917.54" y1="319.21" x2="867.08" y2="319.21"/><line class="ad" x1="883.9" y1="352.85" x2="883.9" y2="302.39"/><line class="ad" x1="900.72" y1="352.85" x2="900.72" y2="302.39"/><polyline class="ad" points="917.54 352.85 867.08 352.85 867.08 302.39"/><line class="o" x1="1085.74" y1="100.7" x2="1085.74" y2="201.61"/><line class="o" x1="1102.56" y1="100.7" x2="1102.56" y2="201.61"/><line class="o" x1="1119.38" y1="117.52" x2="1018.46" y2="117.52"/><line class="o" x1="1119.38" y1="134.33" x2="1018.46" y2="134.33"/><line class="o" x1="1068.92" y1="167.97" x2="1119.38" y2="167.97"/><line class="o" x1="1068.92" y1="151.15" x2="1119.38" y2="151.15"/><line class="o" x1="1068.92" y1="184.79" x2="1119.38" y2="184.79"/><line class="o" x1="1035.28" y1="151.01" x2="1035.28" y2="100.55"/><line class="o" x1="1052.1" y1="151.01" x2="1052.1" y2="100.55"/><line class="o" x1="1068.92" y1="151.01" x2="1068.92" y2="100.55"/><line class="u" x1="1018.46" y1="167.97" x2="1068.92" y2="167.97"/><line class="u" x1="1018.46" y1="184.79" x2="1068.92" y2="184.79"/><line class="u" x1="1052.1" y1="151.15" x2="1052.1" y2="201.61"/><line class="u" x1="1035.28" y1="151.15" x2="1035.28" y2="201.61"/><polyline class="u" points="1018.46 151.15 1068.92 151.15 1068.92 201.61"/><rect class="s" x="816.62" y="100.55" width="302.75" height="302.75"/><line class="s" x1="816.62" y1="201.47" x2="1119.38" y2="201.47"/><line class="s" x1="816.62" y1="302.39" x2="1119.38" y2="302.39"/><line class="s" x1="917.54" y1="403.3" x2="917.54" y2="100.55"/><line class="s" x1="1018.46" y1="403.3" x2="1018.46" y2="100.55"/><rect class="ag" x="877" y="259" width="80" height="80" rx="40" ry="40"/><rect class="ah" x="1029" y="145" width="80" height="80" rx="40" ry="40"/><line class="aa" x1="916.64" y1="301.25" x2="918.24" y2="300.04"/><line class="ab" x1="921.45" y1="297.61" x2="1054.86" y2="196.59"/><line class="aa" x1="1056.46" y1="195.37" x2="1058.06" y2="194.16"/><polygon class="aw" points="1061.75 203.88 1069.5 185.5 1049.71 187.98 1061.75 203.88"/><rect class="k" x="448" y="459.5" width="304" height="90"/><path class="at" d="M519.54,459.5h12.05c6.35,0,10.85,4.38,10.85,10.8v.05c0,6.42-4.5,10.9-10.85,10.9h-7.83v12.07h-4.22v-33.82ZM523.76,463.25v14.25h6.75c4.83,0,7.62-2.65,7.62-7.1v-.05c0-4.45-2.79-7.1-7.62-7.1h-6.75Z"/><path class="at" d="M544.75,481.13v-.05c0-7.76,4.55-12.61,11.27-12.61s11.3,4.83,11.3,12.61v.05c0,7.78-4.55,12.66-11.27,12.66s-11.3-4.9-11.3-12.66ZM563.15,481.13v-.05c0-5.72-2.81-9-7.12-9s-7.1,3.3-7.1,9v.05c0,5.74,2.84,9.05,7.15,9.05s7.08-3.33,7.08-9.05Z"/><path class="at" d="M569.91,468.95h4.05l4.88,19.83h.09l5.51-19.83h3.94l5.53,19.83h.09l4.88-19.83h4.03l-6.8,24.38h-4.15l-5.51-18.87h-.09l-5.48,18.87h-4.15l-6.82-24.38Z"/><path class="at" d="M605.52,481.23v-.02c0-7.55,4.31-12.73,10.97-12.73s10.71,4.95,10.71,12.26v1.5h-17.55c.09,5.02,2.86,7.95,7.2,7.95,3.09,0,5.27-1.55,5.98-3.63l.07-.21h4.01l-.05.23c-.8,4.03-4.78,7.22-10.1,7.22-7.01,0-11.23-4.9-11.23-12.56ZM609.71,479.05h13.34c-.4-4.73-3.02-6.96-6.59-6.96s-6.3,2.41-6.75,6.96Z"/><path class="at" d="M631.78,468.95h4.08v4.12h.09c.82-2.81,2.93-4.59,5.67-4.59.7,0,1.31.12,1.64.16v3.96c-.33-.12-1.2-.23-2.18-.23-3.16,0-5.23,2.2-5.23,5.91v15.05h-4.08v-24.38Z"/><path class="ap" d="M660.58,468.1l8.65,8.91,8.65-8.91,2.58,2.58-8.7,8.93,8.7,8.95-2.58,2.58-8.65-8.91-8.65,8.91-2.58-2.58,8.7-8.95-8.7-8.93,2.58-2.58Z"/><path class="ai" d="M555.39,515.5h4.43l10.08,28.76h.09l10.08-28.76h4.43l-12.47,33.82h-4.17l-12.47-33.82Z"/><path class="ai" d="M583.74,537.13v-.05c0-7.76,4.55-12.61,11.27-12.61s11.3,4.83,11.3,12.61v.05c0,7.78-4.55,12.66-11.27,12.66s-11.3-4.9-11.3-12.66ZM602.14,537.13v-.05c0-5.72-2.81-9-7.12-9s-7.1,3.3-7.1,9v.05c0,5.74,2.84,9.05,7.15,9.05s7.08-3.33,7.08-9.05Z"/><path class="ai" d="M610.63,518.27c0-1.43,1.15-2.55,2.55-2.55s2.55,1.12,2.55,2.55-1.12,2.55-2.55,2.55-2.55-1.15-2.55-2.55ZM611.15,524.95h4.08v24.38h-4.08v-24.38Z"/><path class="ai" d="M620.07,537.13v-.02c0-7.69,4.17-12.63,10.29-12.63,3.45,0,6.28,1.73,7.8,4.55h.09v-13.52h4.08v33.82h-4.08v-4.12h-.09c-1.52,2.84-4.24,4.59-7.73,4.59-6.23,0-10.36-4.97-10.36-12.66ZM638.28,537.13v-.02c0-5.44-2.95-9.02-7.05-9.02-4.31,0-6.98,3.47-6.98,9.02v.02c0,5.6,2.67,9.05,6.98,9.05s7.05-3.59,7.05-9.05Z"/><rect class="ao" x="448" y="100" width="304" height="304"/><rect class="ao" x="448.62" y="100.55" width="302.75" height="302.75"/><rect class="an" x="499.08" y="151.15" width="201.84" height="201.69"/><rect class="ar" x="549.54" y="201.47" width="100.92" height="100.92"/><rect class="al" x="600" y="201.47" width="16.82" height="16.82"/><rect class="al" x="633.64" y="235.11" width="16.82" height="16.82"/><rect class="al" x="633.64" y="268.75" width="16.82" height="16.82"/><rect class="al" x="633.64" y="201.47" width="16.82" height="16.82"/><rect class="al" x="616.82" y="285.57" width="16.82" height="16.82"/><rect class="al" x="583.18" y="285.57" width="16.82" height="16.82"/><rect class="al" x="566.36" y="201.47" width="16.82" height="16.82"/><rect class="al" x="549.54" y="285.57" width="16.82" height="16.82"/><rect class="al" x="549.54" y="251.93" width="16.82" height="16.82"/><rect class="al" x="549.54" y="218.29" width="16.82" height="16.82"/><rect class="am" x="566.36" y="218.29" width="67.28" height="67.28"/><rect class="av" x="616.82" y="218.29" width="16.82" height="16.82"/><rect class="av" x="583.18" y="218.29" width="16.82" height="16.82"/><rect class="av" x="600" y="235.11" width="16.82" height="16.82"/><rect class="av" x="566.36" y="235.11" width="16.82" height="16.82"/><rect class="av" x="616.82" y="251.93" width="16.82" height="16.82"/><rect class="av" x="583.18" y="251.93" width="16.82" height="16.82"/><rect class="av" x="600" y="268.75" width="16.82" height="16.82"/><rect class="av" x="566.36" y="268.75" width="16.82" height="16.82"/><line class="z" x1="650.46" y1="235.11" x2="700.92" y2="235.11"/><line class="z" x1="650.46" y1="251.93" x2="700.92" y2="251.93"/><line class="z" x1="650.46" y1="268.75" x2="700.92" y2="268.75"/><line class="z" x1="650.46" y1="218.29" x2="700.92" y2="218.29"/><line class="z" x1="650.46" y1="285.57" x2="700.92" y2="285.57"/><line class="n" x1="717.74" y1="403.3" x2="717.74" y2="302.39"/><line class="n" x1="734.56" y1="403.3" x2="734.56" y2="302.39"/><line class="n" x1="751.38" y1="386.48" x2="650.46" y2="386.48"/><line class="n" x1="751.38" y1="369.67" x2="650.46" y2="369.67"/><line class="v" x1="700.92" y1="235.11" x2="751.38" y2="235.11"/><line class="v" x1="700.92" y1="251.93" x2="751.38" y2="251.93"/><line class="v" x1="700.92" y1="268.75" x2="751.38" y2="268.75"/><line class="v" x1="700.92" y1="218.29" x2="751.38" y2="218.29"/><line class="v" x1="700.92" y1="285.57" x2="751.38" y2="285.57"/><line class="n" x1="700.92" y1="336.03" x2="751.38" y2="336.03"/><line class="n" x1="700.92" y1="352.85" x2="751.38" y2="352.85"/><line class="n" x1="700.92" y1="319.21" x2="751.38" y2="319.21"/><line class="z" x1="700.92" y1="302.39" x2="700.92" y2="201.47"/><line class="v" x1="717.74" y1="302.39" x2="717.74" y2="201.47"/><line class="v" x1="734.56" y1="302.39" x2="734.56" y2="201.47"/><line class="z" x1="684.1" y1="302.39" x2="684.1" y2="201.47"/><line class="z" x1="667.28" y1="302.39" x2="667.28" y2="201.47"/><line class="m" x1="549.54" y1="268.75" x2="499.08" y2="268.75"/><line class="m" x1="549.54" y1="251.93" x2="499.08" y2="251.93"/><line class="m" x1="549.54" y1="235.11" x2="499.08" y2="235.11"/><line class="m" x1="549.54" y1="285.57" x2="499.08" y2="285.57"/><line class="m" x1="549.54" y1="218.29" x2="499.08" y2="218.29"/><line class="q" x1="499.08" y1="268.75" x2="448.62" y2="268.75"/><line class="q" x1="499.08" y1="251.93" x2="448.62" y2="251.93"/><line class="q" x1="499.08" y1="235.11" x2="448.62" y2="235.11"/><line class="q" x1="499.08" y1="285.57" x2="448.62" y2="285.57"/><line class="q" x1="499.08" y1="218.29" x2="448.62" y2="218.29"/><line class="m" x1="499.08" y1="201.47" x2="499.08" y2="302.39"/><line class="q" x1="482.26" y1="201.47" x2="482.26" y2="302.39"/><line class="q" x1="465.44" y1="201.47" x2="465.44" y2="302.39"/><line class="m" x1="515.9" y1="201.47" x2="515.9" y2="302.39"/><line class="m" x1="532.72" y1="201.47" x2="532.72" y2="302.39"/><line class="y" x1="583.18" y1="201.47" x2="583.18" y2="151.01"/><line class="y" x1="600" y1="201.47" x2="600" y2="151.01"/><line class="y" x1="616.82" y1="201.47" x2="616.82" y2="151.01"/><line class="y" x1="566.36" y1="201.47" x2="566.36" y2="151.01"/><line class="y" x1="633.64" y1="201.47" x2="633.64" y2="151.01"/><line class="l" x1="583.18" y1="151.01" x2="583.18" y2="100.55"/><line class="l" x1="600" y1="151.01" x2="600" y2="100.55"/><line class="l" x1="616.82" y1="151.01" x2="616.82" y2="100.55"/><line class="l" x1="566.36" y1="151.01" x2="566.36" y2="100.55"/><line class="l" x1="633.64" y1="151.01" x2="633.64" y2="100.55"/><line class="y" x1="650.46" y1="151.01" x2="549.54" y2="151.01"/><line class="l" x1="650.46" y1="134.19" x2="549.54" y2="134.19"/><line class="l" x1="650.46" y1="117.37" x2="549.54" y2="117.37"/><line class="y" x1="650.46" y1="167.83" x2="549.54" y2="167.83"/><line class="y" x1="650.46" y1="184.65" x2="549.54" y2="184.65"/><line class="w" x1="616.82" y1="302.39" x2="616.82" y2="352.85"/><line class="w" x1="600" y1="302.39" x2="600" y2="352.85"/><line class="w" x1="583.18" y1="302.39" x2="583.18" y2="352.85"/><line class="w" x1="633.64" y1="302.39" x2="633.64" y2="352.85"/><line class="w" x1="566.36" y1="302.39" x2="566.36" y2="352.85"/><line class="ac" x1="616.82" y1="352.85" x2="616.82" y2="403.3"/><line class="ac" x1="600" y1="352.85" x2="600" y2="403.3"/><line class="ac" x1="583.18" y1="352.85" x2="583.18" y2="403.3"/><line class="ac" x1="633.64" y1="352.85" x2="633.64" y2="403.3"/><line class="n" x1="667.28" y1="352.99" x2="667.28" y2="403.45"/><line class="n" x1="684.1" y1="352.99" x2="684.1" y2="403.45"/><line class="n" x1="700.92" y1="352.99" x2="700.92" y2="403.45"/><line class="ac" x1="566.36" y1="352.85" x2="566.36" y2="403.3"/><line class="w" x1="549.54" y1="352.85" x2="650.46" y2="352.85"/><line class="ac" x1="549.54" y1="369.67" x2="650.46" y2="369.67"/><line class="ac" x1="549.54" y1="386.48" x2="650.46" y2="386.48"/><line class="w" x1="549.54" y1="336.03" x2="650.46" y2="336.03"/><line class="w" x1="549.54" y1="319.21" x2="650.46" y2="319.21"/><line class="ae" x1="650.46" y1="336.03" x2="700.92" y2="336.03"/><line class="ae" x1="650.46" y1="319.21" x2="700.92" y2="319.21"/><line class="ae" x1="684.1" y1="352.85" x2="684.1" y2="302.39"/><line class="ae" x1="667.28" y1="352.85" x2="667.28" y2="302.39"/><polyline class="ae" points="650.46 352.85 700.92 352.85 700.92 302.39"/><line class="af" x1="482.26" y1="100.7" x2="482.26" y2="201.61"/><line class="af" x1="465.44" y1="100.7" x2="465.44" y2="201.61"/><line class="af" x1="448.62" y1="117.52" x2="549.54" y2="117.52"/><line class="af" x1="448.62" y1="134.33" x2="549.54" y2="134.33"/><line class="af" x1="499.08" y1="167.97" x2="448.62" y2="167.97"/><line class="af" x1="499.08" y1="151.15" x2="448.62" y2="151.15"/><line class="af" x1="499.08" y1="184.79" x2="448.62" y2="184.79"/><line class="af" x1="532.72" y1="151.01" x2="532.72" y2="100.55"/><line class="af" x1="515.9" y1="151.01" x2="515.9" y2="100.55"/><line class="af" x1="499.08" y1="151.01" x2="499.08" y2="100.55"/><line class="x" x1="549.54" y1="167.97" x2="499.08" y2="167.97"/><line class="x" x1="549.54" y1="184.79" x2="499.08" y2="184.79"/><line class="x" x1="515.9" y1="151.15" x2="515.9" y2="201.61"/><line class="x" x1="532.72" y1="151.15" x2="532.72" y2="201.61"/><polyline class="x" points="549.54 151.15 499.08 151.15 499.08 201.61"/><line class="r" x1="482.26" y1="403.3" x2="482.26" y2="302.39"/><line class="r" x1="465.44" y1="403.3" x2="465.44" y2="302.39"/><line class="r" x1="448.62" y1="386.48" x2="549.54" y2="386.48"/><line class="r" x1="448.62" y1="369.67" x2="549.54" y2="369.67"/><line class="r" x1="499.08" y1="336.03" x2="448.62" y2="336.03"/><line class="r" x1="499.08" y1="352.85" x2="448.62" y2="352.85"/><line class="r" x1="499.08" y1="319.21" x2="448.62" y2="319.21"/><line class="r" x1="532.72" y1="352.99" x2="532.72" y2="403.45"/><line class="r" x1="515.9" y1="352.99" x2="515.9" y2="403.45"/><line class="r" x1="499.08" y1="352.99" x2="499.08" y2="403.45"/><line class="ad" x1="549.54" y1="336.03" x2="499.08" y2="336.03"/><line class="ad" x1="549.54" y1="319.21" x2="499.08" y2="319.21"/><line class="ad" x1="515.9" y1="352.85" x2="515.9" y2="302.39"/><line class="ad" x1="532.72" y1="352.85" x2="532.72" y2="302.39"/><polyline class="ad" points="549.54 352.85 499.08 352.85 499.08 302.39"/><line class="o" x1="717.74" y1="100.7" x2="717.74" y2="201.61"/><line class="o" x1="734.56" y1="100.7" x2="734.56" y2="201.61"/><line class="o" x1="751.38" y1="117.52" x2="650.46" y2="117.52"/><line class="o" x1="751.38" y1="134.33" x2="650.46" y2="134.33"/><line class="o" x1="700.92" y1="167.97" x2="751.38" y2="167.97"/><line class="o" x1="700.92" y1="151.15" x2="751.38" y2="151.15"/><line class="o" x1="700.92" y1="184.79" x2="751.38" y2="184.79"/><line class="o" x1="667.28" y1="151.01" x2="667.28" y2="100.55"/><line class="o" x1="684.1" y1="151.01" x2="684.1" y2="100.55"/><line class="o" x1="700.92" y1="151.01" x2="700.92" y2="100.55"/><line class="u" x1="650.46" y1="167.97" x2="700.92" y2="167.97"/><line class="u" x1="650.46" y1="184.79" x2="700.92" y2="184.79"/><line class="u" x1="684.1" y1="151.15" x2="684.1" y2="201.61"/><line class="u" x1="667.28" y1="151.15" x2="667.28" y2="201.61"/><polyline class="u" points="650.46 151.15 700.92 151.15 700.92 201.61"/><rect class="s" x="448.62" y="100.55" width="302.75" height="302.75"/><line class="s" x1="448.62" y1="201.47" x2="751.38" y2="201.47"/><line class="s" x1="448.62" y1="302.39" x2="751.38" y2="302.39"/><line class="s" x1="549.54" y1="403.3" x2="549.54" y2="100.55"/><line class="s" x1="650.46" y1="403.3" x2="650.46" y2="100.55"/><rect class="ag" x="509" y="259" width="80" height="80" rx="40" ry="40"/><rect class="ah" x="560" y="95" width="80" height="80" rx="40" ry="40"/><line class="aa" x1="548.64" y1="301.25" x2="549.24" y2="299.34"/><line class="t" x1="550.43" y1="295.54" x2="595.02" y2="153.01"/><line class="aa" x1="595.62" y1="151.11" x2="596.21" y2="149.2"/><polygon class="aw" points="604.86 154.96 600.5 135.5 585.83 149 604.86 154.96"/><rect class="k" x="80" y="459.5" width="304" height="90"/><path class="aj" d="M157.66,476.42v-.05c0-10.71,6.02-17.44,15.61-17.44s15.56,6.73,15.56,17.44v.05c0,10.73-5.98,17.46-15.56,17.46s-15.61-6.73-15.61-17.46ZM184.52,476.42v-.05c0-8.3-4.36-13.55-11.25-13.55s-11.3,5.23-11.3,13.55v.05c0,8.32,4.36,13.57,11.3,13.57s11.25-5.32,11.25-13.57Z"/><path class="aj" d="M193.93,468.95h4.08v4.12h.09c1.52-2.84,4.24-4.59,7.73-4.59,6.23,0,10.36,4.97,10.36,12.66v.02c0,7.69-4.17,12.63-10.29,12.63-3.45,0-6.28-1.73-7.8-4.55h-.09v12.28h-4.08v-32.58ZM212.03,481.16v-.02c0-5.6-2.67-9.05-6.98-9.05s-7.05,3.59-7.05,9.05v.02c0,5.44,2.95,9.02,7.05,9.02,4.31,0,6.98-3.47,6.98-9.02Z"/><path class="aj" d="M219.58,481.23v-.02c0-7.55,4.31-12.73,10.97-12.73s10.71,4.95,10.71,12.26v1.5h-17.55c.09,5.02,2.86,7.95,7.2,7.95,3.09,0,5.27-1.55,5.98-3.63l.07-.21h4.01l-.05.23c-.8,4.03-4.78,7.22-10.1,7.22-7.01,0-11.23-4.9-11.23-12.56ZM223.78,479.05h13.34c-.4-4.73-3.02-6.96-6.59-6.96s-6.3,2.41-6.75,6.96Z"/><path class="aj" d="M245.85,468.95h4.08v3.47h.09c1.31-2.27,3.8-3.94,7.5-3.94,5.34,0,8.44,3.47,8.44,9.02v15.82h-4.08v-15.09c0-3.96-1.85-6.14-5.6-6.14s-6.35,2.74-6.35,6.89v14.34h-4.08v-24.38Z"/><path class="ap" d="M285.15,468.1l8.65,8.91,8.65-8.91,2.58,2.58-8.7,8.93,8.7,8.95-2.58,2.58-8.65-8.91-8.65,8.91-2.58-2.58,8.7-8.95-8.7-8.93,2.58-2.58Z"/><path class="aq" d="M179.58,532.23v-.02c0-10.57,6.05-17.27,15.49-17.27,7.78,0,12.45,4.48,14.02,10.45l.12.45h-4.43l-.09-.26c-1.57-4.29-4.85-6.75-9.61-6.75-6.96,0-11.18,5.04-11.18,13.38v.02c0,8.51,4.29,13.76,11.18,13.76,6,0,10.12-3.89,10.12-9.56v-.61h-9.54v-3.7h13.76v3.21c0,9.14-5.32,14.55-14.34,14.55s-15.49-6.87-15.49-17.65Z"/><path class="aq" d="M214.65,524.95h4.08v4.12h.09c.82-2.81,2.93-4.59,5.67-4.59.7,0,1.31.12,1.64.16v3.96c-.33-.12-1.2-.23-2.18-.23-3.16,0-5.23,2.2-5.23,5.91v15.05h-4.08v-24.38Z"/><path class="aq" d="M227.55,537.13v-.05c0-7.76,4.55-12.61,11.27-12.61s11.3,4.83,11.3,12.61v.05c0,7.78-4.55,12.66-11.27,12.66s-11.3-4.9-11.3-12.66ZM245.95,537.13v-.05c0-5.72-2.81-9-7.12-9s-7.1,3.3-7.1,9v.05c0,5.74,2.84,9.05,7.15,9.05s7.08-3.33,7.08-9.05Z"/><path class="aq" d="M252.71,524.95h4.05l4.88,19.83h.09l5.51-19.83h3.94l5.53,19.83h.09l4.88-19.83h4.03l-6.8,24.38h-4.15l-5.51-18.87h-.09l-5.48,18.87h-4.15l-6.82-24.38Z"/><rect class="ao" x="80" y="100" width="304" height="304"/><rect class="ao" x="80.62" y="100.55" width="302.75" height="302.75"/><rect class="an" x="131.08" y="151.15" width="201.84" height="201.69"/><rect class="ar" x="181.54" y="201.47" width="100.92" height="100.92"/><rect class="al" x="232" y="201.47" width="16.82" height="16.82"/><rect class="al" x="265.64" y="235.11" width="16.82" height="16.82"/><rect class="al" x="265.64" y="268.75" width="16.82" height="16.82"/><rect class="al" x="265.64" y="201.47" width="16.82" height="16.82"/><rect class="al" x="248.82" y="285.57" width="16.82" height="16.82"/><rect class="al" x="215.18" y="285.57" width="16.82" height="16.82"/><rect class="al" x="198.36" y="201.47" width="16.82" height="16.82"/><rect class="al" x="181.54" y="285.57" width="16.82" height="16.82"/><rect class="al" x="181.54" y="251.93" width="16.82" height="16.82"/><rect class="al" x="181.54" y="218.29" width="16.82" height="16.82"/><rect class="am" x="198.36" y="218.29" width="67.28" height="67.28"/><rect class="av" x="248.82" y="218.29" width="16.82" height="16.82"/><rect class="av" x="215.18" y="218.29" width="16.82" height="16.82"/><rect class="av" x="232" y="235.11" width="16.82" height="16.82"/><rect class="av" x="198.36" y="235.11" width="16.82" height="16.82"/><rect class="av" x="248.82" y="251.93" width="16.82" height="16.82"/><rect class="av" x="215.18" y="251.93" width="16.82" height="16.82"/><rect class="av" x="232" y="268.75" width="16.82" height="16.82"/><rect class="av" x="198.36" y="268.75" width="16.82" height="16.82"/><line class="z" x1="282.46" y1="235.11" x2="332.92" y2="235.11"/><line class="z" x1="282.46" y1="251.93" x2="332.92" y2="251.93"/><line class="z" x1="282.46" y1="268.75" x2="332.92" y2="268.75"/><line class="z" x1="282.46" y1="218.29" x2="332.92" y2="218.29"/><line class="z" x1="282.46" y1="285.57" x2="332.92" y2="285.57"/><line class="n" x1="349.74" y1="403.3" x2="349.74" y2="302.39"/><line class="n" x1="366.56" y1="403.3" x2="366.56" y2="302.39"/><line class="n" x1="383.38" y1="386.48" x2="282.46" y2="386.48"/><line class="n" x1="383.38" y1="369.67" x2="282.46" y2="369.67"/><line class="v" x1="332.92" y1="235.11" x2="383.38" y2="235.11"/><line class="v" x1="332.92" y1="251.93" x2="383.38" y2="251.93"/><line class="v" x1="332.92" y1="268.75" x2="383.38" y2="268.75"/><line class="v" x1="332.92" y1="218.29" x2="383.38" y2="218.29"/><line class="v" x1="332.92" y1="285.57" x2="383.38" y2="285.57"/><line class="n" x1="332.92" y1="336.03" x2="383.38" y2="336.03"/><line class="n" x1="332.92" y1="352.85" x2="383.38" y2="352.85"/><line class="n" x1="332.92" y1="319.21" x2="383.38" y2="319.21"/><line class="z" x1="332.92" y1="302.39" x2="332.92" y2="201.47"/><line class="v" x1="349.74" y1="302.39" x2="349.74" y2="201.47"/><line class="v" x1="366.56" y1="302.39" x2="366.56" y2="201.47"/><line class="z" x1="316.1" y1="302.39" x2="316.1" y2="201.47"/><line class="z" x1="299.28" y1="302.39" x2="299.28" y2="201.47"/><line class="m" x1="181.54" y1="268.75" x2="131.08" y2="268.75"/><line class="m" x1="181.54" y1="251.93" x2="131.08" y2="251.93"/><line class="m" x1="181.54" y1="235.11" x2="131.08" y2="235.11"/><line class="m" x1="181.54" y1="285.57" x2="131.08" y2="285.57"/><line class="m" x1="181.54" y1="218.29" x2="131.08" y2="218.29"/><line class="q" x1="131.08" y1="268.75" x2="80.62" y2="268.75"/><line class="q" x1="131.08" y1="251.93" x2="80.62" y2="251.93"/><line class="q" x1="131.08" y1="235.11" x2="80.62" y2="235.11"/><line class="q" x1="131.08" y1="285.57" x2="80.62" y2="285.57"/><line class="q" x1="131.08" y1="218.29" x2="80.62" y2="218.29"/><line class="m" x1="131.08" y1="201.47" x2="131.08" y2="302.39"/><line class="q" x1="114.26" y1="201.47" x2="114.26" y2="302.39"/><line class="q" x1="97.44" y1="201.47" x2="97.44" y2="302.39"/><line class="m" x1="147.9" y1="201.47" x2="147.9" y2="302.39"/><line class="m" x1="164.72" y1="201.47" x2="164.72" y2="302.39"/><line class="y" x1="215.18" y1="201.47" x2="215.18" y2="151.01"/><line class="y" x1="232" y1="201.47" x2="232" y2="151.01"/><line class="y" x1="248.82" y1="201.47" x2="248.82" y2="151.01"/><line class="y" x1="198.36" y1="201.47" x2="198.36" y2="151.01"/><line class="y" x1="265.64" y1="201.47" x2="265.64" y2="151.01"/><line class="l" x1="215.18" y1="151.01" x2="215.18" y2="100.55"/><line class="l" x1="232" y1="151.01" x2="232" y2="100.55"/><line class="l" x1="248.82" y1="151.01" x2="248.82" y2="100.55"/><line class="l" x1="198.36" y1="151.01" x2="198.36" y2="100.55"/><line class="l" x1="265.64" y1="151.01" x2="265.64" y2="100.55"/><line class="y" x1="282.46" y1="151.01" x2="181.54" y2="151.01"/><line class="l" x1="282.46" y1="134.19" x2="181.54" y2="134.19"/><line class="l" x1="282.46" y1="117.37" x2="181.54" y2="117.37"/><line class="y" x1="282.46" y1="167.83" x2="181.54" y2="167.83"/><line class="y" x1="282.46" y1="184.65" x2="181.54" y2="184.65"/><line class="w" x1="248.82" y1="302.39" x2="248.82" y2="352.85"/><line class="w" x1="232" y1="302.39" x2="232" y2="352.85"/><line class="w" x1="215.18" y1="302.39" x2="215.18" y2="352.85"/><line class="w" x1="265.64" y1="302.39" x2="265.64" y2="352.85"/><line class="w" x1="198.36" y1="302.39" x2="198.36" y2="352.85"/><line class="ac" x1="248.82" y1="352.85" x2="248.82" y2="403.3"/><line class="ac" x1="232" y1="352.85" x2="232" y2="403.3"/><line class="ac" x1="215.18" y1="352.85" x2="215.18" y2="403.3"/><line class="ac" x1="265.64" y1="352.85" x2="265.64" y2="403.3"/><line class="n" x1="299.28" y1="352.99" x2="299.28" y2="403.45"/><line class="n" x1="316.1" y1="352.99" x2="316.1" y2="403.45"/><line class="n" x1="332.92" y1="352.99" x2="332.92" y2="403.45"/><line class="ac" x1="198.36" y1="352.85" x2="198.36" y2="403.3"/><line class="w" x1="181.54" y1="352.85" x2="282.46" y2="352.85"/><line class="ac" x1="181.54" y1="369.67" x2="282.46" y2="369.67"/><line class="ac" x1="181.54" y1="386.48" x2="282.46" y2="386.48"/><line class="w" x1="181.54" y1="336.03" x2="282.46" y2="336.03"/><line class="w" x1="181.54" y1="319.21" x2="282.46" y2="319.21"/><line class="ae" x1="282.46" y1="336.03" x2="332.92" y2="336.03"/><line class="ae" x1="282.46" y1="319.21" x2="332.92" y2="319.21"/><line class="ae" x1="316.1" y1="352.85" x2="316.1" y2="302.39"/><line class="ae" x1="299.28" y1="352.85" x2="299.28" y2="302.39"/><polyline class="ae" points="282.46 352.85 332.92 352.85 332.92 302.39"/><line class="af" x1="114.26" y1="100.7" x2="114.26" y2="201.61"/><line class="af" x1="97.44" y1="100.7" x2="97.44" y2="201.61"/><line class="af" x1="80.62" y1="117.52" x2="181.54" y2="117.52"/><line class="af" x1="80.62" y1="134.33" x2="181.54" y2="134.33"/><line class="af" x1="131.08" y1="167.97" x2="80.62" y2="167.97"/><line class="af" x1="131.08" y1="151.15" x2="80.62" y2="151.15"/><line class="af" x1="131.08" y1="184.79" x2="80.62" y2="184.79"/><line class="af" x1="164.72" y1="151.01" x2="164.72" y2="100.55"/><line class="af" x1="147.9" y1="151.01" x2="147.9" y2="100.55"/><line class="af" x1="131.08" y1="151.01" x2="131.08" y2="100.55"/><line class="x" x1="181.54" y1="167.97" x2="131.08" y2="167.97"/><line class="x" x1="181.54" y1="184.79" x2="131.08" y2="184.79"/><line class="x" x1="147.9" y1="151.15" x2="147.9" y2="201.61"/><line class="x" x1="164.72" y1="151.15" x2="164.72" y2="201.61"/><polyline class="x" points="181.54 151.15 131.08 151.15 131.08 201.61"/><line class="r" x1="114.26" y1="403.3" x2="114.26" y2="302.39"/><line class="r" x1="97.44" y1="403.3" x2="97.44" y2="302.39"/><line class="r" x1="80.62" y1="386.48" x2="181.54" y2="386.48"/><line class="r" x1="80.62" y1="369.67" x2="181.54" y2="369.67"/><line class="r" x1="131.08" y1="336.03" x2="80.62" y2="336.03"/><line class="r" x1="131.08" y1="352.85" x2="80.62" y2="352.85"/><line class="r" x1="131.08" y1="319.21" x2="80.62" y2="319.21"/><line class="r" x1="164.72" y1="352.99" x2="164.72" y2="403.45"/><line class="r" x1="147.9" y1="352.99" x2="147.9" y2="403.45"/><line class="r" x1="131.08" y1="352.99" x2="131.08" y2="403.45"/><line class="ad" x1="181.54" y1="336.03" x2="131.08" y2="336.03"/><line class="ad" x1="181.54" y1="319.21" x2="131.08" y2="319.21"/><line class="ad" x1="147.9" y1="352.85" x2="147.9" y2="302.39"/><line class="ad" x1="164.72" y1="352.85" x2="164.72" y2="302.39"/><polyline class="ad" points="181.54 352.85 131.08 352.85 131.08 302.39"/><line class="o" x1="349.74" y1="100.7" x2="349.74" y2="201.61"/><line class="o" x1="366.56" y1="100.7" x2="366.56" y2="201.61"/><line class="o" x1="383.38" y1="117.52" x2="282.46" y2="117.52"/><line class="o" x1="383.38" y1="134.33" x2="282.46" y2="134.33"/><line class="o" x1="332.92" y1="167.97" x2="383.38" y2="167.97"/><line class="o" x1="332.92" y1="151.15" x2="383.38" y2="151.15"/><line class="o" x1="332.92" y1="184.79" x2="383.38" y2="184.79"/><line class="o" x1="299.28" y1="151.01" x2="299.28" y2="100.55"/><line class="o" x1="316.1" y1="151.01" x2="316.1" y2="100.55"/><line class="o" x1="332.92" y1="151.01" x2="332.92" y2="100.55"/><line class="u" x1="282.46" y1="167.97" x2="332.92" y2="167.97"/><line class="u" x1="282.46" y1="184.79" x2="332.92" y2="184.79"/><line class="u" x1="316.1" y1="151.15" x2="316.1" y2="201.61"/><line class="u" x1="299.28" y1="151.15" x2="299.28" y2="201.61"/><polyline class="u" points="282.46 151.15 332.92 151.15 332.92 201.61"/><rect class="s" x="80.62" y="100.55" width="302.75" height="302.75"/><line class="s" x1="80.62" y1="201.47" x2="383.38" y2="201.47"/><line class="s" x1="80.62" y1="302.39" x2="383.38" y2="302.39"/><line class="s" x1="181.54" y1="403.3" x2="181.54" y2="100.55"/><line class="s" x1="282.46" y1="403.3" x2="282.46" y2="100.55"/><rect class="ag" x="141" y="259" width="80" height="80" rx="40" ry="40"/><rect class="ah" x="108" y="161" width="80" height="80" rx="40" ry="40"/><line class="aa" x1="180.64" y1="301.25" x2="180.03" y2="299.35"/><line class="p" x1="178.77" y1="295.43" x2="154.15" y2="219.02"/><line class="aa" x1="153.52" y1="217.06" x2="152.9" y2="215.16"/><polygon class="aw" points="163.29 214.88 148.5 201.5 144.31 221 163.29 214.88"/></g></svg>