<?xml version="1.0" encoding="UTF-8"?><svg xmlns="http://www.w3.org/2000/svg" viewBox="0 0 1200 675"><defs><style>.k,.l,.m,.n,.o,.p,.q,.r,.s,.t,.u,.v,.w,.x,.y,.z,.aa,.ab,.ac{fill:none;}.l{stroke:#7a0000;}.l,.m,.n,.o,.p,.q,.r,.s,.t,.u,.v,.w,.ad,.x,.y,.ae,.af,.z,.aa,.ab,.ag,.ah,.ai,.aj,.ak,.ac,.al{stroke-miterlimit:10;}.m{stroke:green;}.n{stroke:#300352;}.o{stroke:#670067;}.p{stroke:#003d00;}.q{stroke:#003a52;}.am{fill:#30363d;}.r{stroke-width:3px;}.r,.s{stroke:#2f353d;}.t{stroke:#f0f;}.u,.ad,.ae,.af,.ag,.ah,.ai,.aj,.ak,.al{stroke:#3d444d;}.v{stroke:#0067c0;}.w{stroke:#ffd400;}.ad,.an{fill:#fff;}.ad,.ae,.af,.ag,.ah,.ai,.aj,.ak,.al{stroke-width:2px;}.x{stroke:red;}.ao{fill:#21262d;}.ap{fill:#0d1117;}.y{stroke:#f0f6fc;}.aq{opacity:.08;}.aq,.ar,.aj{fill:green;}.ar{opacity:.1;}.as,.ae{fill:#484f58;}.at{fill:#2f353d;}.af{fill:red;}.z{stroke:#001f41;}.aa{stroke:#00aeef;}.ab{stroke:#6a0dad;}.ag{fill:#003d00;}.ah{fill:#f0f6fc;}.ai{fill:#0067c0;}.au{opacity:.06;}.au,.ak{fill:#ffd400;}.av{fill:#c9d1d9;}.ac{stroke:#413500;}.al{fill:#00aeef;}</style></defs><g id="a"><rect width="1200" height="675"/></g><g id="b"><polygon class="ap" points="568 468.47 328.98 372.6 328.98 85 568 180.87 568 468.47"/><polygon class="ap" points="567.51 467.61 329.47 372.14 329.47 85.72 567.51 181.19 567.51 467.61"/><polygon class="ao" points="527.84 403.96 369.15 340.31 369.15 149.5 527.84 213.15 527.84 403.96"/><polygon class="as" points="488.16 340.31 408.82 308.49 408.82 213.02 488.16 244.84 488.16 340.31"/><polygon class="am" points="461.72 250.14 448.49 244.84 448.49 228.93 461.72 234.23 461.72 250.14"/><polygon class="am" points="488.16 292.58 474.94 287.27 474.94 271.36 488.16 276.66 488.16 292.58"/><polygon class="am" points="488.16 324.4 474.94 319.1 474.94 303.18 488.16 308.49 488.16 324.4"/><polygon class="am" points="488.16 260.75 474.94 255.45 474.94 239.54 488.16 244.84 488.16 260.75"/><polygon class="am" points="474.94 335.01 461.72 329.7 461.72 313.79 474.94 319.1 474.94 335.01"/><polygon class="am" points="448.49 324.4 435.27 319.1 435.27 303.18 448.49 308.49 448.49 324.4"/><polygon class="am" points="435.27 239.54 422.04 234.23 422.04 218.32 435.27 223.62 435.27 239.54"/><polygon class="am" points="422.04 313.79 408.82 308.49 408.82 292.58 422.04 297.88 422.04 313.79"/><polygon class="am" points="422.04 281.97 408.82 276.66 408.82 260.75 422.04 266.06 422.04 281.97"/><polygon class="am" points="422.04 250.14 408.82 244.84 408.82 228.93 422.04 234.23 422.04 250.14"/><polygon class="an" points="474.94 319.1 422.04 297.88 422.04 234.23 474.94 255.45 474.94 319.1"/><polygon class="av" points="474.94 271.36 461.72 266.06 461.72 250.14 474.94 255.45 474.94 271.36"/><polygon class="av" points="448.49 260.75 435.27 255.45 435.27 239.54 448.49 244.84 448.49 260.75"/><polygon class="av" points="461.72 281.97 448.49 276.66 448.49 260.75 461.72 266.06 461.72 281.97"/><polygon class="av" points="435.27 271.36 422.04 266.06 422.04 250.14 435.27 255.45 435.27 271.36"/><polygon class="av" points="474.94 303.18 461.72 297.88 461.72 281.97 474.94 287.27 474.94 303.18"/><polygon class="av" points="448.49 292.58 435.27 287.27 435.27 271.36 448.49 276.66 448.49 292.58"/><polygon class="av" points="461.72 313.79 448.49 308.49 448.49 292.58 461.72 297.88 461.72 313.79"/><polygon class="av" points="435.27 303.18 422.04 297.88 422.04 281.97 435.27 287.27 435.27 303.18"/><line class="y" x1="488.16" y1="276.66" x2="527.84" y2="292.58"/><line class="y" x1="488.16" y1="292.58" x2="527.84" y2="308.49"/><line class="y" x1="488.16" y1="308.49" x2="527.84" y2="324.4"/><line class="y" x1="488.16" y1="260.75" x2="527.84" y2="276.66"/><line class="y" x1="488.16" y1="324.4" x2="527.84" y2="340.31"/><line class="n" x1="541.06" y1="457" x2="541.06" y2="361.53"/><line class="n" x1="554.29" y1="462.31" x2="554.29" y2="366.83"/><line class="n" x1="567.51" y1="451.7" x2="488.16" y2="419.87"/><line class="n" x1="567.51" y1="435.79" x2="488.16" y2="403.96"/><line class="u" x1="527.84" y1="292.58" x2="567.51" y2="308.49"/><line class="u" x1="527.84" y1="308.49" x2="567.51" y2="324.4"/><line class="u" x1="527.84" y1="324.4" x2="567.51" y2="340.31"/><line class="u" x1="527.84" y1="276.66" x2="567.51" y2="292.58"/><line class="u" x1="527.84" y1="340.31" x2="567.51" y2="356.23"/><line class="n" x1="527.84" y1="388.05" x2="567.51" y2="403.96"/><line class="n" x1="527.84" y1="403.96" x2="567.51" y2="419.87"/><line class="n" x1="527.84" y1="372.14" x2="567.51" y2="388.05"/><line class="y" x1="527.84" y1="356.23" x2="527.84" y2="260.75"/><line class="u" x1="541.06" y1="361.53" x2="541.06" y2="266.06"/><line class="u" x1="554.29" y1="366.83" x2="554.29" y2="271.36"/><line class="y" x1="514.61" y1="350.92" x2="514.61" y2="255.45"/><line class="y" x1="501.39" y1="345.62" x2="501.39" y2="250.14"/><line class="m" x1="408.82" y1="276.66" x2="369.15" y2="260.75"/><line class="m" x1="408.82" y1="260.75" x2="369.15" y2="244.84"/><line class="m" x1="408.82" y1="244.84" x2="369.15" y2="228.93"/><line class="m" x1="408.82" y1="292.58" x2="369.15" y2="276.66"/><line class="m" x1="408.82" y1="228.93" x2="369.15" y2="213.02"/><line class="p" x1="369.15" y1="260.75" x2="329.47" y2="244.84"/><line class="p" x1="369.15" y1="244.84" x2="329.47" y2="228.93"/><line class="p" x1="369.15" y1="228.93" x2="329.47" y2="213.02"/><line class="p" x1="369.15" y1="276.66" x2="329.47" y2="260.75"/><line class="p" x1="369.15" y1="213.02" x2="329.47" y2="197.1"/><line class="m" x1="369.15" y1="197.1" x2="369.15" y2="292.58"/><line class="p" x1="355.92" y1="191.8" x2="355.92" y2="287.27"/><line class="p" x1="342.7" y1="186.49" x2="342.7" y2="281.97"/><line class="m" x1="382.37" y1="202.41" x2="382.37" y2="297.88"/><line class="m" x1="395.59" y1="207.71" x2="395.59" y2="303.18"/><line class="x" x1="435.27" y1="223.62" x2="435.27" y2="175.89"/><line class="x" x1="448.49" y1="228.93" x2="448.49" y2="181.19"/><line class="x" x1="461.72" y1="234.23" x2="461.72" y2="186.49"/><line class="x" x1="422.04" y1="218.32" x2="422.04" y2="170.58"/><line class="x" x1="474.94" y1="239.54" x2="474.94" y2="191.8"/><line class="l" x1="435.27" y1="175.89" x2="435.27" y2="128.15"/><line class="l" x1="448.49" y1="181.19" x2="448.49" y2="133.45"/><line class="l" x1="461.72" y1="186.49" x2="461.72" y2="138.76"/><line class="l" x1="422.04" y1="170.58" x2="422.04" y2="122.85"/><line class="l" x1="474.94" y1="191.8" x2="474.94" y2="144.06"/><line class="x" x1="488.16" y1="197.1" x2="408.82" y2="165.28"/><line class="l" x1="488.16" y1="181.19" x2="408.82" y2="149.37"/><line class="l" x1="488.16" y1="165.28" x2="408.82" y2="133.45"/><line class="x" x1="488.16" y1="213.02" x2="408.82" y2="181.19"/><line class="x" x1="488.16" y1="228.93" x2="408.82" y2="197.1"/><line class="v" x1="461.72" y1="329.7" x2="461.72" y2="377.44"/><line class="v" x1="448.49" y1="324.4" x2="448.49" y2="372.14"/><line class="v" x1="435.27" y1="319.1" x2="435.27" y2="366.83"/><line class="v" x1="474.94" y1="335.01" x2="474.94" y2="382.75"/><line class="v" x1="422.04" y1="313.79" x2="422.04" y2="361.53"/><line class="z" x1="461.72" y1="377.44" x2="461.72" y2="425.18"/><line class="z" x1="448.49" y1="372.14" x2="448.49" y2="419.87"/><line class="z" x1="435.27" y1="366.83" x2="435.27" y2="414.57"/><line class="z" x1="474.94" y1="382.75" x2="474.94" y2="430.48"/><line class="n" x1="501.39" y1="393.49" x2="501.39" y2="441.23"/><line class="n" x1="514.61" y1="398.79" x2="514.61" y2="446.53"/><line class="n" x1="527.84" y1="404.1" x2="527.84" y2="451.84"/><line class="z" x1="422.04" y1="361.53" x2="422.04" y2="409.27"/><line class="v" x1="408.82" y1="356.23" x2="488.16" y2="388.05"/><line class="z" x1="408.82" y1="372.14" x2="488.16" y2="403.96"/><line class="z" x1="408.82" y1="388.05" x2="488.16" y2="419.87"/><line class="v" x1="408.82" y1="340.31" x2="488.16" y2="372.14"/><line class="v" x1="408.82" y1="324.4" x2="488.16" y2="356.23"/><line class="ab" x1="488.16" y1="372.14" x2="527.84" y2="388.05"/><line class="ab" x1="488.16" y1="356.23" x2="527.84" y2="372.14"/><line class="ab" x1="514.61" y1="398.66" x2="514.61" y2="350.92"/><line class="ab" x1="501.39" y1="393.35" x2="501.39" y2="345.62"/><polyline class="ab" points="488.16 388.05 527.84 403.96 527.84 356.23"/><line class="ac" x1="355.92" y1="96.46" x2="355.92" y2="191.94"/><line class="ac" x1="342.7" y1="91.16" x2="342.7" y2="186.63"/><line class="ac" x1="329.47" y1="101.77" x2="408.82" y2="133.59"/><line class="ac" x1="329.47" y1="117.68" x2="408.82" y2="149.5"/><line class="ac" x1="369.15" y1="165.42" x2="329.47" y2="149.5"/><line class="ac" x1="369.15" y1="149.5" x2="329.47" y2="133.59"/><line class="ac" x1="369.15" y1="181.33" x2="329.47" y2="165.42"/><line class="ac" x1="395.59" y1="159.97" x2="395.59" y2="112.24"/><line class="ac" x1="382.37" y1="154.67" x2="382.37" y2="106.93"/><line class="ac" x1="369.15" y1="149.37" x2="369.15" y2="101.63"/><line class="w" x1="408.82" y1="181.33" x2="369.15" y2="165.42"/><line class="w" x1="408.82" y1="197.24" x2="369.15" y2="181.33"/><line class="w" x1="382.37" y1="154.81" x2="382.37" y2="202.54"/><line class="w" x1="395.59" y1="160.11" x2="395.59" y2="207.85"/><polyline class="w" points="408.82 165.42 369.15 149.5 369.15 197.24"/><line class="q" x1="355.92" y1="382.75" x2="355.92" y2="287.27"/><line class="q" x1="342.7" y1="377.44" x2="342.7" y2="281.97"/><line class="q" x1="329.47" y1="356.23" x2="408.82" y2="388.05"/><line class="q" x1="329.47" y1="340.31" x2="408.82" y2="372.14"/><line class="q" x1="369.15" y1="324.4" x2="329.47" y2="308.49"/><line class="q" x1="369.15" y1="340.31" x2="329.47" y2="324.4"/><line class="q" x1="369.15" y1="308.49" x2="329.47" y2="292.58"/><line class="q" x1="395.59" y1="351.06" x2="395.59" y2="398.79"/><line class="q" x1="382.37" y1="345.75" x2="382.37" y2="393.49"/><line class="q" x1="369.15" y1="340.45" x2="369.15" y2="388.19"/><line class="aa" x1="408.82" y1="340.31" x2="369.15" y2="324.4"/><line class="aa" x1="408.82" y1="324.4" x2="369.15" y2="308.49"/><line class="aa" x1="382.37" y1="345.62" x2="382.37" y2="297.88"/><line class="aa" x1="395.59" y1="350.92" x2="395.59" y2="303.18"/><polyline class="aa" points="408.82 356.23 369.15 340.31 369.15 292.58"/><line class="o" x1="541.06" y1="170.72" x2="541.06" y2="266.19"/><line class="o" x1="554.29" y1="176.02" x2="554.29" y2="271.5"/><line class="o" x1="567.51" y1="197.24" x2="488.16" y2="165.42"/><line class="o" x1="567.51" y1="213.15" x2="488.16" y2="181.33"/><line class="o" x1="527.84" y1="229.06" x2="567.51" y2="244.98"/><line class="o" x1="527.84" y1="213.15" x2="567.51" y2="229.06"/><line class="o" x1="527.84" y1="244.98" x2="567.51" y2="260.89"/><line class="o" x1="501.39" y1="202.41" x2="501.39" y2="154.67"/><line class="o" x1="514.61" y1="207.71" x2="514.61" y2="159.97"/><line class="o" x1="527.84" y1="213.02" x2="527.84" y2="165.28"/><line class="t" x1="488.16" y1="213.15" x2="527.84" y2="229.06"/><line class="t" x1="488.16" y1="229.06" x2="527.84" y2="244.98"/><line class="t" x1="514.61" y1="207.85" x2="514.61" y2="255.58"/><line class="t" x1="501.39" y1="202.54" x2="501.39" y2="250.28"/><polyline class="t" points="488.16 197.24 527.84 213.15 527.84 260.89"/><polygon class="r" points="567.51 467.61 329.47 372.14 329.47 85.72 567.51 181.19 567.51 467.61"/><line class="r" x1="329.47" y1="181.19" x2="567.51" y2="276.66"/><line class="r" x1="329.47" y1="276.66" x2="567.51" y2="372.14"/><line class="r" x1="408.82" y1="403.96" x2="408.82" y2="117.54"/><line class="r" x1="488.16" y1="435.79" x2="488.16" y2="149.37"/><rect class="ap" x="661" y="111.5" width="432" height="432"/><rect class="ap" x="661.89" y="112.28" width="430.23" height="430.23"/><rect class="ao" x="733.59" y="184.19" width="286.82" height="286.61"/><rect class="as" x="805.3" y="255.69" width="143.41" height="143.41"/><rect class="am" x="877" y="255.69" width="23.9" height="23.9"/><rect class="am" x="924.8" y="303.5" width="23.9" height="23.9"/><rect class="am" x="924.8" y="351.3" width="23.9" height="23.9"/><rect class="am" x="924.8" y="255.69" width="23.9" height="23.9"/><rect class="am" x="900.9" y="375.2" width="23.9" height="23.9"/><rect class="am" x="853.1" y="375.2" width="23.9" height="23.9"/><rect class="am" x="829.2" y="255.69" width="23.9" height="23.9"/><rect class="am" x="805.3" y="375.2" width="23.9" height="23.9"/><rect class="am" x="805.3" y="327.4" width="23.9" height="23.9"/><rect class="am" x="805.3" y="279.59" width="23.9" height="23.9"/><rect class="an" x="829.2" y="279.59" width="95.61" height="95.61"/><rect class="av" x="900.9" y="279.59" width="23.9" height="23.9"/><rect class="av" x="853.1" y="279.59" width="23.9" height="23.9"/><rect class="av" x="877" y="303.5" width="23.9" height="23.9"/><rect class="av" x="829.2" y="303.5" width="23.9" height="23.9"/><rect class="av" x="900.9" y="327.4" width="23.9" height="23.9"/><rect class="av" x="853.1" y="327.4" width="23.9" height="23.9"/><rect class="av" x="877" y="351.3" width="23.9" height="23.9"/><rect class="av" x="829.2" y="351.3" width="23.9" height="23.9"/><line class="y" x1="948.7" y1="303.5" x2="1020.41" y2="303.5"/><line class="y" x1="948.7" y1="327.4" x2="1020.41" y2="327.4"/><line class="y" x1="948.7" y1="351.3" x2="1020.41" y2="351.3"/><line class="y" x1="948.7" y1="279.59" x2="1020.41" y2="279.59"/><line class="y" x1="948.7" y1="375.2" x2="1020.41" y2="375.2"/><line class="n" x1="1044.31" y1="542.51" x2="1044.31" y2="399.1"/><line class="n" x1="1068.21" y1="542.51" x2="1068.21" y2="399.1"/><line class="n" x1="1092.11" y1="518.61" x2="948.7" y2="518.61"/><line class="n" x1="1092.11" y1="494.71" x2="948.7" y2="494.71"/><line class="u" x1="1020.41" y1="303.5" x2="1092.11" y2="303.5"/><line class="u" x1="1020.41" y1="327.4" x2="1092.11" y2="327.4"/><line class="u" x1="1020.41" y1="351.3" x2="1092.11" y2="351.3"/><line class="u" x1="1020.41" y1="279.59" x2="1092.11" y2="279.59"/><line class="u" x1="1020.41" y1="375.2" x2="1092.11" y2="375.2"/><line class="n" x1="1020.41" y1="446.91" x2="1092.11" y2="446.91"/><line class="n" x1="1020.41" y1="470.81" x2="1092.11" y2="470.81"/><line class="n" x1="1020.41" y1="423" x2="1092.11" y2="423"/><line class="y" x1="1020.41" y1="399.1" x2="1020.41" y2="255.69"/><line class="u" x1="1044.31" y1="399.1" x2="1044.31" y2="255.69"/><line class="u" x1="1068.21" y1="399.1" x2="1068.21" y2="255.69"/><line class="y" x1="996.51" y1="399.1" x2="996.51" y2="255.69"/><line class="y" x1="972.61" y1="399.1" x2="972.61" y2="255.69"/><line class="m" x1="805.3" y1="351.3" x2="733.59" y2="351.3"/><line class="m" x1="805.3" y1="327.4" x2="733.59" y2="327.4"/><line class="m" x1="805.3" y1="303.5" x2="733.59" y2="303.5"/><line class="m" x1="805.3" y1="375.2" x2="733.59" y2="375.2"/><line class="m" x1="805.3" y1="279.59" x2="733.59" y2="279.59"/><line class="p" x1="733.59" y1="351.3" x2="661.89" y2="351.3"/><line class="p" x1="733.59" y1="327.4" x2="661.89" y2="327.4"/><line class="p" x1="733.59" y1="303.5" x2="661.89" y2="303.5"/><line class="p" x1="733.59" y1="375.2" x2="661.89" y2="375.2"/><line class="p" x1="733.59" y1="279.59" x2="661.89" y2="279.59"/><line class="m" x1="733.59" y1="255.69" x2="733.59" y2="399.1"/><line class="p" x1="709.69" y1="255.69" x2="709.69" y2="399.1"/><line class="p" x1="685.79" y1="255.69" x2="685.79" y2="399.1"/><line class="m" x1="757.49" y1="255.69" x2="757.49" y2="399.1"/><line class="m" x1="781.39" y1="255.69" x2="781.39" y2="399.1"/><line class="x" x1="853.1" y1="255.69" x2="853.1" y2="183.99"/><line class="x" x1="877" y1="255.69" x2="877" y2="183.99"/><line class="x" x1="900.9" y1="255.69" x2="900.9" y2="183.99"/><line class="x" x1="829.2" y1="255.69" x2="829.2" y2="183.99"/><line class="x" x1="924.8" y1="255.69" x2="924.8" y2="183.99"/><line class="l" x1="853.1" y1="183.99" x2="853.1" y2="112.28"/><line class="l" x1="877" y1="183.99" x2="877" y2="112.28"/><line class="l" x1="900.9" y1="183.99" x2="900.9" y2="112.28"/><line class="l" x1="829.2" y1="183.99" x2="829.2" y2="112.28"/><line class="l" x1="924.8" y1="183.99" x2="924.8" y2="112.28"/><line class="x" x1="948.7" y1="183.99" x2="805.3" y2="183.99"/><line class="l" x1="948.7" y1="160.09" x2="805.3" y2="160.09"/><line class="l" x1="948.7" y1="136.18" x2="805.3" y2="136.18"/><line class="x" x1="948.7" y1="207.89" x2="805.3" y2="207.89"/><line class="x" x1="948.7" y1="231.79" x2="805.3" y2="231.79"/><line class="v" x1="900.9" y1="399.1" x2="900.9" y2="470.81"/><line class="v" x1="877" y1="399.1" x2="877" y2="470.81"/><line class="v" x1="853.1" y1="399.1" x2="853.1" y2="470.81"/><line class="v" x1="924.8" y1="399.1" x2="924.8" y2="470.81"/><line class="v" x1="829.2" y1="399.1" x2="829.2" y2="470.81"/><line class="z" x1="900.9" y1="470.81" x2="900.9" y2="542.51"/><line class="z" x1="877" y1="470.81" x2="877" y2="542.51"/><line class="z" x1="853.1" y1="470.81" x2="853.1" y2="542.51"/><line class="z" x1="924.8" y1="470.81" x2="924.8" y2="542.51"/><line class="n" x1="972.61" y1="471.01" x2="972.61" y2="542.72"/><line class="n" x1="996.51" y1="471.01" x2="996.51" y2="542.72"/><line class="n" x1="1020.41" y1="471.01" x2="1020.41" y2="542.72"/><line class="z" x1="829.2" y1="470.81" x2="829.2" y2="542.51"/><line class="v" x1="805.3" y1="470.81" x2="948.7" y2="470.81"/><line class="z" x1="805.3" y1="494.71" x2="948.7" y2="494.71"/><line class="z" x1="805.3" y1="518.61" x2="948.7" y2="518.61"/><line class="v" x1="805.3" y1="446.91" x2="948.7" y2="446.91"/><line class="v" x1="805.3" y1="423" x2="948.7" y2="423"/><line class="ab" x1="948.7" y1="446.91" x2="1020.41" y2="446.91"/><line class="ab" x1="948.7" y1="423" x2="1020.41" y2="423"/><line class="ab" x1="996.51" y1="470.81" x2="996.51" y2="399.1"/><line class="ab" x1="972.61" y1="470.81" x2="972.61" y2="399.1"/><polyline class="ab" points="948.7 470.81 1020.41 470.81 1020.41 399.1"/><line class="ac" x1="709.69" y1="112.49" x2="709.69" y2="255.9"/><line class="ac" x1="685.79" y1="112.49" x2="685.79" y2="255.9"/><line class="ac" x1="661.89" y1="136.39" x2="805.3" y2="136.39"/><line class="ac" x1="661.89" y1="160.29" x2="805.3" y2="160.29"/><line class="ac" x1="733.59" y1="208.09" x2="661.89" y2="208.09"/><line class="ac" x1="733.59" y1="184.19" x2="661.89" y2="184.19"/><line class="ac" x1="733.59" y1="232" x2="661.89" y2="232"/><line class="ac" x1="781.39" y1="183.99" x2="781.39" y2="112.28"/><line class="ac" x1="757.49" y1="183.99" x2="757.49" y2="112.28"/><line class="ac" x1="733.59" y1="183.99" x2="733.59" y2="112.28"/><line class="w" x1="805.3" y1="208.09" x2="733.59" y2="208.09"/><line class="w" x1="805.3" y1="232" x2="733.59" y2="232"/><line class="w" x1="757.49" y1="184.19" x2="757.49" y2="255.9"/><line class="w" x1="781.39" y1="184.19" x2="781.39" y2="255.9"/><polyline class="w" points="805.3 184.19 733.59 184.19 733.59 255.9"/><line class="q" x1="709.69" y1="542.51" x2="709.69" y2="399.1"/><line class="q" x1="685.79" y1="542.51" x2="685.79" y2="399.1"/><line class="q" x1="661.89" y1="518.61" x2="805.3" y2="518.61"/><line class="q" x1="661.89" y1="494.71" x2="805.3" y2="494.71"/><line class="q" x1="733.59" y1="446.91" x2="661.89" y2="446.91"/><line class="q" x1="733.59" y1="470.81" x2="661.89" y2="470.81"/><line class="q" x1="733.59" y1="423" x2="661.89" y2="423"/><line class="q" x1="781.39" y1="471.01" x2="781.39" y2="542.72"/><line class="q" x1="757.49" y1="471.01" x2="757.49" y2="542.72"/><line class="q" x1="733.59" y1="471.01" x2="733.59" y2="542.72"/><line class="aa" x1="805.3" y1="446.91" x2="733.59" y2="446.91"/><line class="aa" x1="805.3" y1="423" x2="733.59" y2="423"/><line class="aa" x1="757.49" y1="470.81" x2="757.49" y2="399.1"/><line class="aa" x1="781.39" y1="470.81" x2="781.39" y2="399.1"/><polyline class="aa" points="805.3 470.81 733.59 470.81 733.59 399.1"/><line class="o" x1="1044.31" y1="112.49" x2="1044.31" y2="255.9"/><line class="o" x1="1068.21" y1="112.49" x2="1068.21" y2="255.9"/><line class="o" x1="1092.11" y1="136.39" x2="948.7" y2="136.39"/><line class="o" x1="1092.11" y1="160.29" x2="948.7" y2="160.29"/><line class="o" x1="1020.41" y1="208.09" x2="1092.11" y2="208.09"/><line class="o" x1="1020.41" y1="184.19" x2="1092.11" y2="184.19"/><line class="o" x1="1020.41" y1="232" x2="1092.11" y2="232"/><line class="o" x1="972.61" y1="183.99" x2="972.61" y2="112.28"/><line class="o" x1="996.51" y1="183.99" x2="996.51" y2="112.28"/><line class="o" x1="1020.41" y1="183.99" x2="1020.41" y2="112.28"/><line class="t" x1="948.7" y1="208.09" x2="1020.41" y2="208.09"/><line class="t" x1="948.7" y1="232" x2="1020.41" y2="232"/><line class="t" x1="996.51" y1="184.19" x2="996.51" y2="255.9"/><line class="t" x1="972.61" y1="184.19" x2="972.61" y2="255.9"/><polyline class="t" points="948.7 184.19 1020.41 184.19 1020.41 255.9"/><rect class="r" x="661.89" y="112.28" width="430.23" height="430.23"/><line class="r" x1="661.89" y1="255.69" x2="1092.11" y2="255.69"/><line class="r" x1="661.89" y1="399.1" x2="1092.11" y2="399.1"/><line class="r" x1="805.3" y1="542.51" x2="805.3" y2="112.28"/><line class="r" x1="948.7" y1="542.51" x2="948.7" y2="112.28"/><path class="at" d="M41.07,631.42c0-3.63,2.8-6.43,6.35-6.43s6.35,2.8,6.35,6.43-2.8,6.43-6.35,6.43-6.35-2.8-6.35-6.43ZM52.53,631.42c0-2.95-2.24-5.29-5.11-5.29s-5.11,2.33-5.11,5.29,2.24,5.29,5.11,5.29,5.11-2.33,5.11-5.29ZM48.98,630.27c-.21-.64-.68-1.05-1.41-1.05-1.1,0-1.75.86-1.75,2.19s.64,2.19,1.75,2.19c.73,0,1.25-.39,1.41-.98h1.28c-.2,1.28-1.3,2.19-2.7,2.19-1.85,0-3.05-1.29-3.05-3.4s1.2-3.4,3.05-3.4c1.39,0,2.47.93,2.7,2.26h-1.28Z"/><path class="at" d="M76.97,622.61c2.96,0,5,1.9,5,4.66,0,1.72-.73,3.04-3.36,6.07l-4.23,4.89v.19h7.88v1.45h-10.24v-1.02l5.8-6.77c2.07-2.45,2.55-3.35,2.55-4.78,0-1.99-1.35-3.28-3.43-3.28s-3.41,1.39-3.41,3.55v.07h-1.58v-.07c0-2.87,2.12-4.96,5.03-4.96Z"/><path class="at" d="M86.48,631.42c0-5.72,1.93-8.85,5.46-8.85s5.46,3.13,5.46,8.85-1.93,8.85-5.46,8.85-5.46-3.13-5.46-8.85ZM88.22,633.93l7.15-6.54c-.57-2.25-1.72-3.41-3.43-3.41-2.53,0-3.86,2.55-3.86,7.44,0,.91.05,1.76.14,2.51ZM95.79,631.42c0-.94-.05-1.78-.14-2.54l-7.14,6.62c.57,2.21,1.72,3.36,3.42,3.36,2.53,0,3.86-2.55,3.86-7.44Z"/><path class="at" d="M106.64,622.61c2.96,0,5,1.9,5,4.66,0,1.72-.73,3.04-3.36,6.07l-4.23,4.89v.19h7.88v1.45h-10.24v-1.02l5.8-6.77c2.07-2.45,2.55-3.35,2.55-4.78,0-1.99-1.35-3.28-3.43-3.28s-3.41,1.39-3.41,3.55v.07h-1.58v-.07c0-2.87,2.12-4.96,5.03-4.96Z"/><path class="at" d="M116.09,635.5h1.54c.19,1.95,1.82,3.3,3.95,3.3,2.32,0,3.86-1.68,3.86-4.18s-1.56-4.25-3.86-4.25c-1.63,0-3,.76-3.69,2.04h-1.49l.88-9.45h8.84v1.44h-7.58l-.5,5.98h.18c.88-.98,2.05-1.48,3.5-1.48,3.13,0,5.32,2.34,5.32,5.68s-2.26,5.62-5.59,5.62c-3,0-5.14-1.89-5.34-4.71Z"/><path class="at" d="M146.64,639.87v-16.91h1.61v8.74h.14l7.18-8.74h2l-6.41,7.48,7.1,9.43h-2.07l-6.09-8.2-1.85,2.17v6.04h-1.61Z"/><path class="at" d="M160.76,634.5v-1.88c0-3.4,2.09-5.58,5.34-5.58s5.34,2.18,5.34,5.58v1.88c0,3.4-2.09,5.58-5.34,5.58s-5.34-2.18-5.34-5.58ZM162.3,632.83v1.48c0,2.73,1.46,4.41,3.81,4.41s3.81-1.68,3.81-4.41v-1.48c0-2.73-1.46-4.41-3.81-4.41s-3.81,1.68-3.81,4.41Z"/><path class="at" d="M175.95,622.22h1.46v7.3h.15c.69-1.59,2.17-2.48,4.12-2.48,2.75,0,4.24,1.63,4.24,4.63v8.2h-1.54v-7.82c0-2.47-1-3.63-3.12-3.63-2.26,0-3.8,1.61-3.8,3.95v7.5h-1.54v-17.65Z"/><path class="at" d="M200.97,636.75c-.42,2.02-2.34,3.33-4.89,3.33-3.4,0-5.37-2.1-5.37-5.7v-1.84c0-3.33,2.06-5.51,5.19-5.51s5.12,2.16,5.12,5.93v1h-8.78v.43c0,2.64,1.49,4.31,3.83,4.31,1.72,0,2.98-.73,3.36-1.96h1.52ZM192.25,632.7h7.22c0-2.68-1.34-4.3-3.56-4.3s-3.66,1.61-3.66,4.3Z"/><path class="at" d="M205.62,627.25h1.46v2.27h.15c.69-1.59,2.17-2.48,4.12-2.48,2.75,0,4.24,1.63,4.24,4.63v8.2h-1.54v-7.82c0-2.47-1-3.63-3.12-3.63-2.26,0-3.8,1.61-3.8,3.95v7.5h-1.54v-12.62Z"/><path class="at" d="M232.87,633.06v-1.36h14.84v1.36h-14.84Z"/><path class="at" d="M265.45,639.87h-1.5v-16.91h1.89l4.07,10.88h.13l4.04-10.88h1.9v16.91h-1.5v-13.79h-.12l-3.7,9.82h-1.38l-3.7-9.82h-.12v13.79Z"/><path class="at" d="M284,639.87v-15.46h-5.2v-1.45h12v1.45h-5.2v15.46h-1.59Z"/><path class="at" d="M300.16,622.96c3.18,0,5.3,2.11,5.3,5.26s-2.12,5.26-5.3,5.26h-3.81v6.39h-1.61v-16.91h5.41ZM296.35,632.05h3.42c2.57,0,4.05-1.41,4.05-3.83s-1.49-3.83-4.05-3.83h-3.42v7.66Z"/><path class="at" d="M321.88,633.06v-1.36h14.84v1.36h-14.84Z"/><path class="at" d="M354.17,639.87v-1.24h4.44v-10.14h-4.46v-1.24h6v11.38h4.32v1.24h-10.3ZM357.75,622.46c0-.8.66-1.45,1.45-1.45s1.45.66,1.45,1.45-.66,1.45-1.45,1.45-1.45-.66-1.45-1.45Z"/><path class="at" d="M379.79,639.87h-1.44v-8.71c0-1.82-.61-2.74-1.79-2.74-1.24,0-1.99,1.12-1.99,3v8.45h-1.44v-8.72c0-1.8-.61-2.73-1.8-2.73-1.27,0-2.04,1.14-2.04,3v8.45h-1.44v-12.62h1.39v1.69h.16c.33-1.17,1.25-1.9,2.41-1.9s2.06.7,2.33,1.9h.16c.34-1.15,1.41-1.9,2.71-1.9,1.84,0,2.78,1.28,2.78,3.77v9.06Z"/><path class="at" d="M392.29,627.25h1.95l-4.99,4.89,5.34,7.73h-1.85l-4.57-6.68-1.95,1.9v4.78h-1.54v-17.65h1.54v10.97h.14l5.93-5.94Z"/><path class="at" d="M398.14,634.5v-1.88c0-3.4,2.09-5.58,5.34-5.58s5.34,2.18,5.34,5.58v1.88c0,3.4-2.09,5.58-5.34,5.58s-5.34-2.18-5.34-5.58ZM399.67,632.83v1.48c0,2.73,1.46,4.41,3.81,4.41s3.81-1.68,3.81-4.41v-1.48c0-2.73-1.46-4.41-3.81-4.41s-3.81,1.68-3.81,4.41Z"/><path class="at" d="M413.32,622.22h1.46v7.3h.15c.69-1.59,2.17-2.48,4.12-2.48,2.75,0,4.24,1.63,4.24,4.63v8.2h-1.54v-7.82c0-2.47-1-3.63-3.12-3.63-2.26,0-3.8,1.61-3.8,3.95v7.5h-1.54v-17.65Z"/><path class="at" d="M438.34,636.75c-.42,2.02-2.34,3.33-4.89,3.33-3.4,0-5.37-2.1-5.37-5.7v-1.84c0-3.33,2.06-5.51,5.19-5.51s5.12,2.16,5.12,5.93v1h-8.78v.43c0,2.64,1.49,4.31,3.83,4.31,1.72,0,2.98-.73,3.36-1.96h1.52ZM429.62,632.7h7.22c0-2.68-1.34-4.3-3.56-4.3s-3.66,1.61-3.66,4.3Z"/><path class="at" d="M443,627.25h1.46v2.27h.15c.69-1.59,2.17-2.48,4.12-2.48,2.75,0,4.24,1.63,4.24,4.63v8.2h-1.54v-7.82c0-2.47-1-3.63-3.12-3.63-2.26,0-3.8,1.61-3.8,3.95v7.5h-1.54v-12.62Z"/><path class="at" d="M457.68,636.31c0-2.21,1.58-3.54,4.37-3.67l3.66-.16v-1.2c0-1.82-1.04-2.8-2.98-2.8-1.59,0-2.7.68-3.05,1.9h-1.52c.23-1.89,2.13-3.23,4.57-3.23,2.86,0,4.52,1.5,4.52,4.07v8.67h-1.48v-1.99h-.16c-.6,1.42-1.99,2.2-3.9,2.2-2.43,0-4.03-1.5-4.03-3.79ZM465.71,635.51v-1.76l-3.55.15c-1.89.08-2.89.93-2.89,2.4s1.08,2.43,2.82,2.43c2.04,0,3.62-1.41,3.62-3.22Z"/><path class="at" d="M482.65,639.87h-1.46v-2.27h-.15c-.69,1.59-2.17,2.48-4.12,2.48-2.75,0-4.24-1.63-4.24-4.63v-8.2h1.54v7.82c0,2.47,1,3.63,3.12,3.63,2.26,0,3.8-1.61,3.8-3.95v-7.5h1.54v12.62Z"/><path class="at" d="M492.57,627.04c2.47,0,4.22,1.28,4.49,3.27h-1.51c-.27-1.23-1.42-1.99-3.02-1.99-1.76,0-2.88.84-2.88,2.16,0,1.1.69,1.71,2.41,2.11l1.71.4c2.43.57,3.53,1.64,3.53,3.42,0,2.23-1.89,3.68-4.76,3.68s-4.59-1.3-4.83-3.38h1.59c.33,1.3,1.55,2.06,3.3,2.06,1.89,0,3.09-.89,3.09-2.27,0-1.15-.67-1.76-2.39-2.17l-1.86-.45c-2.25-.53-3.35-1.63-3.35-3.35,0-2.07,1.82-3.49,4.48-3.49Z"/><path class="at" d="M512.52,636.75c-.42,2.02-2.34,3.33-4.89,3.33-3.4,0-5.37-2.1-5.37-5.7v-1.84c0-3.33,2.06-5.51,5.19-5.51s5.12,2.16,5.12,5.93v1h-8.78v.43c0,2.64,1.49,4.31,3.83,4.31,1.72,0,2.98-.73,3.36-1.96h1.52ZM503.8,632.7h7.22c0-2.68-1.34-4.3-3.56-4.3s-3.66,1.61-3.66,4.3Z"/><path class="at" d="M521.57,638.63h4.01v1.24h-8.14v-1.24h2.6v-10.14h-2.86v-1.24h4.36v3.21h.16c.43-2.25,2.1-3.53,4.56-3.53.73,0,1.44.11,1.84.28v1.68c-.59-.21-1.39-.35-2.07-.35-2.72,0-4.45,2.2-4.45,5.66v4.43Z"/><path class="at" d="M535.06,637.93c0-1.07.88-1.95,1.95-1.95s1.95.88,1.95,1.95-.88,1.95-1.95,1.95-1.95-.88-1.95-1.95Z"/><path class="at" d="M555.4,630.96c-.26-1.5-1.65-2.54-3.38-2.54-2.4,0-3.74,1.61-3.74,4.5v1.28c0,2.89,1.34,4.5,3.74,4.5,1.72,0,3.12-1.04,3.38-2.54h1.52c-.33,2.37-2.25,3.93-4.86,3.93-3.32,0-5.31-2.11-5.31-5.62v-1.79c0-3.52,1.99-5.62,5.31-5.62,2.61,0,4.54,1.56,4.86,3.93h-1.52Z"/><path class="at" d="M561.33,634.5v-1.88c0-3.4,2.09-5.58,5.34-5.58s5.34,2.18,5.34,5.58v1.88c0,3.4-2.09,5.58-5.34,5.58s-5.34-2.18-5.34-5.58ZM562.87,632.83v1.48c0,2.73,1.46,4.41,3.81,4.41s3.81-1.68,3.81-4.41v-1.48c0-2.73-1.46-4.41-3.81-4.41s-3.81,1.68-3.81,4.41Z"/><path class="at" d="M587.49,639.87h-1.44v-8.71c0-1.82-.61-2.74-1.79-2.74-1.24,0-1.99,1.12-1.99,3v8.45h-1.44v-8.72c0-1.8-.61-2.73-1.8-2.73-1.27,0-2.04,1.14-2.04,3v8.45h-1.44v-12.62h1.39v1.69h.16c.33-1.17,1.25-1.9,2.41-1.9s2.06.7,2.33,1.9h.16c.34-1.15,1.41-1.9,2.71-1.9,1.84,0,2.78,1.28,2.78,3.77v9.06Z"/><path class="at" d="M591.45,641.03l8.33-19.23h1.46l-8.33,19.23h-1.46Z"/><path class="at" d="M617.16,639.87h-1.44v-8.71c0-1.82-.61-2.74-1.79-2.74-1.24,0-1.99,1.12-1.99,3v8.45h-1.44v-8.72c0-1.8-.61-2.73-1.8-2.73-1.27,0-2.04,1.14-2.04,3v8.45h-1.44v-12.62h1.39v1.69h.16c.33-1.17,1.25-1.9,2.41-1.9s2.06.7,2.33,1.9h.16c.34-1.15,1.41-1.9,2.71-1.9,1.84,0,2.78,1.28,2.78,3.77v9.06Z"/><path class="at" d="M625.57,623.97v3.28h5.29v1.3h-5.29v7.63c0,1.56,1.08,2.4,3.08,2.4.87,0,1.79-.04,2.2-.09v1.31c-.38.07-1.56.14-2.29.14-3.04,0-4.54-1.23-4.54-3.71v-7.68h-3.4v-1.3h3.4v-3.28h1.54Z"/><path class="at" d="M646.34,632.35v2.43c0,3.15-1.99,5.31-4.92,5.31-1.83,0-3.21-.75-3.81-2.07h-.21v6.14h-1.54v-16.9h1.46v1.82h.21c.74-1.32,2.09-2.03,3.88-2.03,2.93,0,4.92,2.16,4.92,5.31ZM637.36,632.72v1.69c0,2.61,1.46,4.3,3.71,4.3s3.73-1.7,3.73-4.3v-1.69c0-2.6-1.46-4.3-3.73-4.3s-3.71,1.69-3.71,4.3Z"/></g><g id="c"><polygon class="aq" points="453.51 516.73 214.49 420.87 214.49 133.27 453.51 229.13 453.51 516.73"/><rect class="ah" x="817" y="339.61" width="24" height="24" rx="12" ry="12"/><rect class="ai" x="817" y="459.67" width="24" height="24" rx="12" ry="12"/><rect class="af" x="793" y="219.56" width="24" height="24" rx="12" ry="12"/><rect class="ae" x="793" y="291.59" width="24" height="24" rx="12" ry="12"/><rect class="al" x="769" y="411.65" width="24" height="24" rx="12" ry="12"/><rect class="al" x="769" y="435.66" width="24" height="24" rx="12" ry="12"/><rect class="aj" x="744.94" y="291.6" width="24" height="24" rx="12" ry="12" transform="translate(453.34 1060.55) rotate(-90)"/><rect class="aj" x="768.95" y="339.6" width="24" height="24" rx="12" ry="12" transform="translate(429.35 1132.56) rotate(-90)"/><rect class="aj" x="720.93" y="387.6" width="24" height="24" rx="12" ry="12" transform="translate(333.33 1132.53) rotate(-90)"/><rect class="aj" x="768.95" y="243.6" width="24" height="24" rx="12" ry="12" transform="translate(525.35 1036.56) rotate(-90)"/><rect class="k" x="661" y="111.5" width="432" height="432"/><path class="ah" d="M307.44,338.39h0c-3.67-1.47-6.64-6.24-6.64-10.65h0c0-4.41,2.97-6.8,6.64-5.33h0c3.67,1.47,6.64,6.24,6.64,10.65h0c0,4.41-2.97,6.8-6.64,5.33Z"/><path class="ai" d="M307.44,418.32h0c-3.67-1.47-6.64-6.24-6.64-10.65h0c0-4.41,2.97-6.8,6.64-5.33h0c3.67,1.47,6.64,6.24,6.64,10.65h0c0,4.41-2.97,6.8-6.64,5.33Z"/><path class="af" d="M294.16,253.14h0c-3.67-1.47-6.64-6.24-6.64-10.65h0c0-4.41,2.97-6.8,6.64-5.33h0c3.67,1.47,6.64,6.24,6.64,10.65h0c0,4.41-2.97,6.8-6.64,5.33Z"/><path class="ae" d="M294.16,301.09h0c-3.67-1.47-6.64-6.24-6.64-10.65h0c0-4.41,2.97-6.8,6.64-5.33h0c3.67,1.47,6.64,6.24,6.64,10.65h0c0,4.41-2.97,6.8-6.64,5.33Z"/><path class="al" d="M280.89,375.7h0c-3.67-1.47-6.64-6.24-6.64-10.65h0c0-4.41,2.97-6.8,6.64-5.33h0c3.67,1.47,6.64,6.24,6.64,10.65h0c0,4.41-2.97,6.8-6.64,5.33Z"/><path class="al" d="M280.89,391.68h0c-3.67-1.47-6.64-6.24-6.64-10.65h0c0-4.41,2.97-6.8,6.64-5.33h0c3.67,1.47,6.64,6.24,6.64,10.65h0c0,4.41-2.97,6.8-6.64,5.33Z"/><path class="aj" d="M274.21,285.11h0c0,4.41-2.97,6.8-6.64,5.33h0c-3.67-1.47-6.64-6.24-6.64-10.65h0c0-4.41,2.97-6.8,6.64-5.33h0c3.67,1.47,6.64,6.24,6.64,10.65Z"/><path class="aj" d="M287.5,322.4h0c0,4.41-2.97,6.8-6.64,5.33h0c-3.67-1.47-6.64-6.24-6.64-10.65h0c0-4.41,2.97-6.8,6.64-5.33h0c3.67,1.47,6.64,6.24,6.64,10.65Z"/><path class="aj" d="M260.93,343.69h0c0,4.41-2.97,6.8-6.64,5.33h0c-3.67-1.47-6.64-6.24-6.64-10.65h0c0-4.41,2.97-6.8,6.64-5.33h0c3.67,1.47,6.64,6.24,6.64,10.65Z"/><path class="aj" d="M287.5,258.48h0c0,4.41-2.97,6.8-6.64,5.33h0c-3.67-1.47-6.64-6.24-6.64-10.65h0c0-4.41,2.97-6.8,6.64-5.33h0c3.67,1.47,6.64,6.24,6.64,10.65Z"/></g><g id="d"><polygon class="ar" points="396.26 540.87 157.25 445 157.25 157.4 396.26 253.27 396.26 540.87"/><rect class="ae" x="817" y="363.63" width="24" height="24" rx="12" ry="12"/><rect class="ai" x="793" y="435.66" width="24" height="24" rx="12" ry="12"/><rect class="al" x="769" y="411.65" width="24" height="24" rx="12" ry="12"/><rect class="al" x="721" y="411.65" width="24" height="24" rx="12" ry="12"/><rect class="al" x="721" y="435.66" width="24" height="24" rx="12" ry="12"/><rect class="ag" x="696.92" y="339.6" width="24" height="24" rx="12" ry="12" transform="translate(357.32 1060.52) rotate(-90)"/><rect class="aj" x="768.95" y="339.6" width="24" height="24" rx="12" ry="12" transform="translate(429.35 1132.56) rotate(-90)"/><rect class="aj" x="720.93" y="363.6" width="24" height="24" rx="12" ry="12" transform="translate(357.33 1108.53) rotate(-90)"/><rect class="ag" x="672.91" y="387.6" width="24" height="24" rx="12" ry="12" transform="translate(285.3 1084.51) rotate(-90)"/><rect class="aj" x="744.94" y="387.6" width="24" height="24" rx="12" ry="12" transform="translate(357.34 1156.55) rotate(-90)"/><rect class="k" x="661" y="111.5" width="432" height="432"/><path class="ae" d="M250.2,378.51h0c-3.67-1.47-6.64-6.24-6.64-10.65h0c0-4.41,2.97-6.8,6.64-5.33h0c3.67,1.47,6.64,6.24,6.64,10.65h0c0,4.41-2.97,6.8-6.64,5.33Z"/><path class="ai" d="M236.92,421.14h0c-3.67-1.47-6.64-6.24-6.64-10.65h0c0-4.41,2.97-6.8,6.64-5.33h0c3.67,1.47,6.64,6.24,6.64,10.65h0c0,4.41-2.97,6.8-6.64,5.33Z"/><path class="al" d="M223.64,399.83h0c-3.67-1.47-6.64-6.24-6.64-10.65h0c0-4.41,2.97-6.8,6.64-5.33h0c3.67,1.47,6.64,6.24,6.64,10.65h0c0,4.41-2.97,6.8-6.64,5.33Z"/><path class="al" d="M197.08,389.18h0c-3.67-1.47-6.64-6.24-6.64-10.65h0c0-4.41,2.97-6.8,6.64-5.33h0c3.67,1.47,6.64,6.24,6.64,10.65h0c0,4.41-2.97,6.8-6.64,5.33Z"/><path class="al" d="M197.08,405.16h0c-3.67-1.47-6.64-6.24-6.64-10.65h0c0-4.41,2.97-6.8,6.64-5.33h0c3.67,1.47,6.64,6.24,6.64,10.65h0c0,4.41-2.97,6.8-6.64,5.33Z"/><path class="ag" d="M190.4,330.54h0c0,4.41-2.97,6.8-6.64,5.33h0c-3.67-1.47-6.64-6.24-6.64-10.65h0c0-4.41,2.97-6.8,6.64-5.33h0c3.67,1.47,6.64,6.24,6.64,10.65Z"/><path class="aj" d="M230.25,346.53h0c0,4.41-2.97,6.8-6.64,5.33h0c-3.67-1.47-6.64-6.24-6.64-10.65h0c0-4.41,2.97-6.8,6.64-5.33h0c3.67,1.47,6.64,6.24,6.64,10.65Z"/><path class="aj" d="M203.68,351.85h0c0,4.41-2.97,6.8-6.64,5.33h0c-3.67-1.47-6.64-6.24-6.64-10.65h0c0-4.41,2.97-6.8,6.64-5.33h0c3.67,1.47,6.64,6.24,6.64,10.65Z"/><path class="ag" d="M177.11,357.17h0c0,4.41-2.97,6.8-6.64,5.33h0c-3.67-1.47-6.64-6.24-6.64-10.65h0c0-4.41,2.97-6.8,6.64-5.33h0c3.67,1.47,6.64,6.24,6.64,10.65Z"/><path class="aj" d="M216.97,373.16h0c0,4.41-2.97,6.8-6.64,5.33h0c-3.67-1.47-6.64-6.24-6.64-10.65h0c0-4.41,2.97-6.8,6.64-5.33h0c3.67,1.47,6.64,6.24,6.64,10.65Z"/></g><g id="e"><polygon class="au" points="510.75 492.6 271.74 396.73 271.74 109.13 510.75 205 510.75 492.6"/><rect class="ah" x="817" y="291.59" width="24" height="24" rx="12" ry="12"/><rect class="ae" x="793" y="267.58" width="24" height="24" rx="12" ry="12"/><rect class="ae" x="793" y="315.6" width="24" height="24" rx="12" ry="12"/><rect class="aj" x="720.93" y="339.6" width="24" height="24" rx="12" ry="12" transform="translate(381.33 1084.53) rotate(-90)"/><rect class="ag" x="696.92" y="267.6" width="24" height="24" rx="12" ry="12" transform="translate(429.32 988.52) rotate(-90)"/><rect class="aj" x="744.94" y="267.6" width="24" height="24" rx="12" ry="12" transform="translate(477.34 1036.55) rotate(-90)"/><rect class="aj" x="744.94" y="243.6" width="24" height="24" rx="12" ry="12" transform="translate(501.34 1012.55) rotate(-90)"/><rect class="ak" x="744.94" y="219.6" width="24" height="24" rx="12" ry="12" transform="translate(525.34 988.55) rotate(-90)"/><rect class="ak" x="720.93" y="195.6" width="24" height="24" rx="12" ry="12" transform="translate(525.33 940.53) rotate(-90)"/><rect class="ak" x="768.95" y="195.6" width="24" height="24" rx="12" ry="12" transform="translate(573.35 988.56) rotate(-90)"/><rect class="k" x="661" y="111.5" width="432" height="432"/><path class="ah" d="M364.69,282.29h0c-3.67-1.47-6.64-6.24-6.64-10.65h0c0-4.41,2.97-6.8,6.64-5.33h0c3.67,1.47,6.64,6.24,6.64,10.65h0c0,4.41-2.97,6.8-6.64,5.33Z"/><path class="ae" d="M351.41,260.98h0c-3.67-1.47-6.64-6.24-6.64-10.65h0c0-4.41,2.97-6.8,6.64-5.33h0c3.67,1.47,6.64,6.24,6.64,10.65h0c0,4.41-2.97,6.8-6.64,5.33Z"/><path class="ae" d="M351.41,292.95h0c-3.67-1.47-6.64-6.24-6.64-10.65h0c0-4.41,2.97-6.8,6.64-5.33h0c3.67,1.47,6.64,6.24,6.64,10.65h0c0,4.41-2.97,6.8-6.64,5.33Z"/><path class="aj" d="M318.17,287.61h0c0,4.41-2.97,6.8-6.64,5.33h0c-3.67-1.47-6.64-6.24-6.64-10.65h0c0-4.41,2.97-6.8,6.64-5.33h0c3.67,1.47,6.64,6.24,6.64,10.65Z"/><path class="ag" d="M304.89,234.34h0c0,4.41-2.97,6.8-6.64,5.33h0c-3.67-1.47-6.64-6.24-6.64-10.65h0c0-4.41,2.97-6.8,6.64-5.33h0c3.67,1.47,6.64,6.24,6.64,10.65Z"/><path class="aj" d="M331.46,245h0c0,4.41-2.97,6.8-6.64,5.33h0c-3.67-1.47-6.64-6.24-6.64-10.65h0c0-4.41,2.97-6.8,6.64-5.33h0c3.67,1.47,6.64,6.24,6.64,10.65Z"/><path class="aj" d="M331.46,229.02h0c0,4.41-2.97,6.8-6.64,5.33h0c-3.67-1.47-6.64-6.24-6.64-10.65h0c0-4.41,2.97-6.8,6.64-5.33h0c3.67,1.47,6.64,6.24,6.64,10.65Z"/><path class="ak" d="M331.46,213.04h0c0,4.41-2.97,6.8-6.64,5.33h0c-3.67-1.47-6.64-6.24-6.64-10.65h0c0-4.41,2.97-6.8,6.64-5.33h0c3.67,1.47,6.64,6.24,6.64,10.65Z"/><path class="ak" d="M318.17,191.74h0c0,4.41-2.97,6.8-6.64,5.33h0c-3.67-1.47-6.64-6.24-6.64-10.65h0c0-4.41,2.97-6.8,6.64-5.33h0c3.67,1.47,6.64,6.24,6.64,10.65Z"/><path class="ak" d="M344.75,202.4h0c0,4.41-2.97,6.8-6.64,5.33h0c-3.67-1.47-6.64-6.24-6.64-10.65h0c0-4.41,2.97-6.8,6.64-5.33h0c3.67,1.47,6.64,6.24,6.64,10.65Z"/></g><g id="f"><polygon class="s" points="339.02 565 100 469.13 100 181.53 339.02 277.4 339.02 565"/><rect class="ad" x="717" y="288.5" width="80" height="80" rx="40" ry="40"/><rect class="k" x="661" y="111.5" width="432" height="432"/><path class="ad" d="M153.11,373.93h0c-12.22-4.9-22.13-20.8-22.13-35.51h0c0-14.71,9.91-22.66,22.13-17.75h0c12.22,4.9,22.13,20.8,22.13,35.51h0c0,14.71-9.91,22.66-22.13,17.75Z"/></g></svg>