<?xml version="1.0" encoding="UTF-8"?><svg xmlns="http://www.w3.org/2000/svg" viewBox="0 0 1200 630"><defs><style>.k,.l,.m,.n,.o,.p,.q,.r,.s,.t,.u,.v,.w,.x,.y,.z,.aa,.ab,.ac{fill:none;}.l{stroke:#7a0000;}.l,.m,.n,.o,.p,.q,.r,.s,.t,.u,.v,.w,.ad,.x,.y,.ae,.af,.z,.aa,.ab,.ag,.ah,.ai,.aj,.ak,.ac,.al{stroke-miterlimit:10;}.m{stroke:green;}.n{stroke:#300352;}.o{stroke:#670067;}.p{stroke:#003d00;}.q{stroke:#003a52;}.am{fill:#30363d;}.r{stroke-width:3px;}.r,.s{stroke:#2f353d;}.t{stroke:#f0f;}.u,.ad,.ae,.af,.ag,.ah,.ai,.aj,.ak,.al{stroke:#3d444d;}.v{stroke:#0067c0;}.w{stroke:#ffd400;}.ad,.an{fill:#fff;}.ad,.ae,.af,.ag,.ah,.ai,.aj,.ak,.al{stroke-width:2px;}.x{stroke:red;}.ao{fill:#21262d;}.ap{fill:#0d1117;}.y{stroke:#f0f6fc;}.aq{fill:#9199a1;}.ar{opacity:.08;}.ar,.as,.aj{fill:green;}.as{opacity:.1;}.at,.ae{fill:#484f58;}.au{fill:#2f353d;}.af{fill:red;}.z{stroke:#001f41;}.aa{stroke:#00aeef;}.ab{stroke:#6a0dad;}.av,.ah{fill:#f0f6fc;}.ag{fill:#003d00;}.ai{fill:#0067c0;}.aw{opacity:.06;}.aw,.ak{fill:#ffd400;}.ax{fill:#c9d1d9;}.ac{stroke:#413500;}.al{fill:#00aeef;}</style></defs><g id="a"><rect width="1200" height="630"/></g><g id="b"><path class="au" d="M41.07,586.42c0-3.63,2.8-6.43,6.35-6.43s6.35,2.8,6.35,6.43-2.8,6.43-6.35,6.43-6.35-2.8-6.35-6.43ZM52.53,586.42c0-2.95-2.24-5.29-5.11-5.29s-5.11,2.33-5.11,5.29,2.24,5.29,5.11,5.29,5.11-2.33,5.11-5.29ZM48.98,585.27c-.21-.64-.68-1.05-1.41-1.05-1.1,0-1.75.86-1.75,2.19s.64,2.19,1.75,2.19c.73,0,1.25-.39,1.41-.98h1.28c-.2,1.28-1.3,2.19-2.7,2.19-1.85,0-3.05-1.29-3.05-3.4s1.2-3.4,3.05-3.4c1.39,0,2.47.93,2.7,2.26h-1.28Z"/><path class="au" d="M76.97,577.61c2.96,0,5,1.9,5,4.66,0,1.72-.73,3.04-3.36,6.07l-4.23,4.89v.19h7.88v1.45h-10.24v-1.02l5.8-6.77c2.07-2.45,2.55-3.35,2.55-4.78,0-1.99-1.35-3.28-3.43-3.28s-3.41,1.39-3.41,3.55v.07h-1.58v-.07c0-2.87,2.12-4.96,5.03-4.96Z"/><path class="au" d="M86.48,586.42c0-5.72,1.93-8.85,5.46-8.85s5.46,3.13,5.46,8.85-1.93,8.85-5.46,8.85-5.46-3.13-5.46-8.85ZM88.22,588.93l7.15-6.54c-.57-2.25-1.72-3.41-3.43-3.41-2.53,0-3.86,2.55-3.86,7.44,0,.91.05,1.76.14,2.51ZM95.79,586.42c0-.94-.05-1.78-.14-2.54l-7.14,6.62c.57,2.21,1.72,3.36,3.42,3.36,2.53,0,3.86-2.55,3.86-7.44Z"/><path class="au" d="M106.64,577.61c2.96,0,5,1.9,5,4.66,0,1.72-.73,3.04-3.36,6.07l-4.23,4.89v.19h7.88v1.45h-10.24v-1.02l5.8-6.77c2.07-2.45,2.55-3.35,2.55-4.78,0-1.99-1.35-3.28-3.43-3.28s-3.41,1.39-3.41,3.55v.07h-1.58v-.07c0-2.87,2.12-4.96,5.03-4.96Z"/><path class="au" d="M116.09,590.5h1.54c.19,1.95,1.82,3.3,3.95,3.3,2.32,0,3.86-1.68,3.86-4.18s-1.56-4.25-3.86-4.25c-1.63,0-3,.76-3.69,2.04h-1.49l.88-9.45h8.84v1.44h-7.58l-.5,5.98h.18c.88-.98,2.05-1.48,3.5-1.48,3.13,0,5.32,2.34,5.32,5.68s-2.26,5.62-5.59,5.62c-3,0-5.14-1.89-5.34-4.71Z"/><path class="au" d="M146.64,594.87v-16.91h1.61v8.74h.14l7.18-8.74h2l-6.41,7.48,7.1,9.43h-2.07l-6.09-8.2-1.85,2.17v6.04h-1.61Z"/><path class="au" d="M160.76,589.5v-1.88c0-3.4,2.09-5.58,5.34-5.58s5.34,2.18,5.34,5.58v1.88c0,3.4-2.09,5.58-5.34,5.58s-5.34-2.18-5.34-5.58ZM162.3,587.83v1.48c0,2.73,1.46,4.41,3.81,4.41s3.81-1.68,3.81-4.41v-1.48c0-2.73-1.46-4.41-3.81-4.41s-3.81,1.68-3.81,4.41Z"/><path class="au" d="M175.95,577.22h1.46v7.3h.15c.69-1.59,2.17-2.48,4.12-2.48,2.75,0,4.24,1.63,4.24,4.63v8.2h-1.54v-7.82c0-2.47-1-3.63-3.12-3.63-2.26,0-3.8,1.61-3.8,3.95v7.5h-1.54v-17.65Z"/><path class="au" d="M200.97,591.75c-.42,2.02-2.34,3.33-4.89,3.33-3.4,0-5.37-2.1-5.37-5.7v-1.84c0-3.33,2.06-5.51,5.19-5.51s5.12,2.16,5.12,5.93v1h-8.78v.43c0,2.64,1.49,4.31,3.83,4.31,1.72,0,2.98-.73,3.36-1.96h1.52ZM192.25,587.7h7.22c0-2.68-1.34-4.3-3.56-4.3s-3.66,1.61-3.66,4.3Z"/><path class="au" d="M205.62,582.25h1.46v2.27h.15c.69-1.59,2.17-2.48,4.12-2.48,2.75,0,4.24,1.63,4.24,4.63v8.2h-1.54v-7.82c0-2.47-1-3.63-3.12-3.63-2.26,0-3.8,1.61-3.8,3.95v7.5h-1.54v-12.62Z"/><path class="au" d="M232.87,588.06v-1.36h14.84v1.36h-14.84Z"/><path class="au" d="M265.45,594.87h-1.5v-16.91h1.89l4.07,10.88h.13l4.04-10.88h1.9v16.91h-1.5v-13.79h-.12l-3.7,9.82h-1.38l-3.7-9.82h-.12v13.79Z"/><path class="au" d="M284,594.87v-15.46h-5.2v-1.45h12v1.45h-5.2v15.46h-1.59Z"/><path class="au" d="M300.16,577.96c3.18,0,5.3,2.11,5.3,5.26s-2.12,5.26-5.3,5.26h-3.81v6.39h-1.61v-16.91h5.41ZM296.35,587.05h3.42c2.57,0,4.05-1.41,4.05-3.83s-1.49-3.83-4.05-3.83h-3.42v7.66Z"/><path class="au" d="M321.88,588.06v-1.36h14.84v1.36h-14.84Z"/><path class="au" d="M354.17,594.87v-1.24h4.44v-10.14h-4.46v-1.24h6v11.38h4.32v1.24h-10.3ZM357.75,577.46c0-.8.66-1.45,1.45-1.45s1.45.66,1.45,1.45-.66,1.45-1.45,1.45-1.45-.66-1.45-1.45Z"/><path class="au" d="M379.79,594.87h-1.44v-8.71c0-1.82-.61-2.74-1.79-2.74-1.24,0-1.99,1.12-1.99,3v8.45h-1.44v-8.72c0-1.8-.61-2.73-1.8-2.73-1.27,0-2.04,1.14-2.04,3v8.45h-1.44v-12.62h1.39v1.69h.16c.33-1.17,1.25-1.9,2.41-1.9s2.06.7,2.33,1.9h.16c.34-1.15,1.41-1.9,2.71-1.9,1.84,0,2.78,1.28,2.78,3.77v9.06Z"/><path class="au" d="M392.29,582.25h1.95l-4.99,4.89,5.34,7.73h-1.85l-4.57-6.68-1.95,1.9v4.78h-1.54v-17.65h1.54v10.97h.14l5.93-5.94Z"/><path class="au" d="M398.14,589.5v-1.88c0-3.4,2.09-5.58,5.34-5.58s5.34,2.18,5.34,5.58v1.88c0,3.4-2.09,5.58-5.34,5.58s-5.34-2.18-5.34-5.58ZM399.67,587.83v1.48c0,2.73,1.46,4.41,3.81,4.41s3.81-1.68,3.81-4.41v-1.48c0-2.73-1.46-4.41-3.81-4.41s-3.81,1.68-3.81,4.41Z"/><path class="au" d="M413.32,577.22h1.46v7.3h.15c.69-1.59,2.17-2.48,4.12-2.48,2.75,0,4.24,1.63,4.24,4.63v8.2h-1.54v-7.82c0-2.47-1-3.63-3.12-3.63-2.26,0-3.8,1.61-3.8,3.95v7.5h-1.54v-17.65Z"/><path class="au" d="M438.34,591.75c-.42,2.02-2.34,3.33-4.89,3.33-3.4,0-5.37-2.1-5.37-5.7v-1.84c0-3.33,2.06-5.51,5.19-5.51s5.12,2.16,5.12,5.93v1h-8.78v.43c0,2.64,1.49,4.31,3.83,4.31,1.72,0,2.98-.73,3.36-1.96h1.52ZM429.62,587.7h7.22c0-2.68-1.34-4.3-3.56-4.3s-3.66,1.61-3.66,4.3Z"/><path class="au" d="M443,582.25h1.46v2.27h.15c.69-1.59,2.17-2.48,4.12-2.48,2.75,0,4.24,1.63,4.24,4.63v8.2h-1.54v-7.82c0-2.47-1-3.63-3.12-3.63-2.26,0-3.8,1.61-3.8,3.95v7.5h-1.54v-12.62Z"/><path class="au" d="M457.68,591.31c0-2.21,1.58-3.54,4.37-3.67l3.66-.16v-1.2c0-1.82-1.04-2.8-2.98-2.8-1.59,0-2.7.68-3.05,1.9h-1.52c.23-1.89,2.13-3.23,4.57-3.23,2.86,0,4.52,1.5,4.52,4.07v8.67h-1.48v-1.99h-.16c-.6,1.42-1.99,2.2-3.9,2.2-2.43,0-4.03-1.5-4.03-3.79ZM465.71,590.51v-1.76l-3.55.15c-1.89.08-2.89.93-2.89,2.4s1.08,2.43,2.82,2.43c2.04,0,3.62-1.41,3.62-3.22Z"/><path class="au" d="M482.65,594.87h-1.46v-2.27h-.15c-.69,1.59-2.17,2.48-4.12,2.48-2.75,0-4.24-1.63-4.24-4.63v-8.2h1.54v7.82c0,2.47,1,3.63,3.12,3.63,2.26,0,3.8-1.61,3.8-3.95v-7.5h1.54v12.62Z"/><path class="au" d="M492.57,582.04c2.47,0,4.22,1.28,4.49,3.27h-1.51c-.27-1.23-1.42-1.99-3.02-1.99-1.76,0-2.88.84-2.88,2.16,0,1.1.69,1.71,2.41,2.11l1.71.4c2.43.57,3.53,1.64,3.53,3.42,0,2.23-1.89,3.68-4.76,3.68s-4.59-1.3-4.83-3.38h1.59c.33,1.3,1.55,2.06,3.3,2.06,1.89,0,3.09-.89,3.09-2.27,0-1.15-.67-1.76-2.39-2.17l-1.86-.45c-2.25-.53-3.35-1.63-3.35-3.35,0-2.07,1.82-3.49,4.48-3.49Z"/><path class="au" d="M512.52,591.75c-.42,2.02-2.34,3.33-4.89,3.33-3.4,0-5.37-2.1-5.37-5.7v-1.84c0-3.33,2.06-5.51,5.19-5.51s5.12,2.16,5.12,5.93v1h-8.78v.43c0,2.64,1.49,4.31,3.83,4.31,1.72,0,2.98-.73,3.36-1.96h1.52ZM503.8,587.7h7.22c0-2.68-1.34-4.3-3.56-4.3s-3.66,1.61-3.66,4.3Z"/><path class="au" d="M521.57,593.63h4.01v1.24h-8.14v-1.24h2.6v-10.14h-2.86v-1.24h4.36v3.21h.16c.43-2.25,2.1-3.53,4.56-3.53.73,0,1.44.11,1.84.28v1.68c-.59-.21-1.39-.35-2.07-.35-2.72,0-4.45,2.2-4.45,5.66v4.43Z"/><path class="au" d="M535.06,592.93c0-1.07.88-1.95,1.95-1.95s1.95.88,1.95,1.95-.88,1.95-1.95,1.95-1.95-.88-1.95-1.95Z"/><path class="au" d="M555.4,585.96c-.26-1.5-1.65-2.54-3.38-2.54-2.4,0-3.74,1.61-3.74,4.5v1.28c0,2.89,1.34,4.5,3.74,4.5,1.72,0,3.12-1.04,3.38-2.54h1.52c-.33,2.37-2.25,3.93-4.86,3.93-3.32,0-5.31-2.11-5.31-5.62v-1.79c0-3.52,1.99-5.62,5.31-5.62,2.61,0,4.54,1.56,4.86,3.93h-1.52Z"/><path class="au" d="M561.33,589.5v-1.88c0-3.4,2.09-5.58,5.34-5.58s5.34,2.18,5.34,5.58v1.88c0,3.4-2.09,5.58-5.34,5.58s-5.34-2.18-5.34-5.58ZM562.87,587.83v1.48c0,2.73,1.46,4.41,3.81,4.41s3.81-1.68,3.81-4.41v-1.48c0-2.73-1.46-4.41-3.81-4.41s-3.81,1.68-3.81,4.41Z"/><path class="au" d="M587.49,594.87h-1.44v-8.71c0-1.82-.61-2.74-1.79-2.74-1.24,0-1.99,1.12-1.99,3v8.45h-1.44v-8.72c0-1.8-.61-2.73-1.8-2.73-1.27,0-2.04,1.14-2.04,3v8.45h-1.44v-12.62h1.39v1.69h.16c.33-1.17,1.25-1.9,2.41-1.9s2.06.7,2.33,1.9h.16c.34-1.15,1.41-1.9,2.71-1.9,1.84,0,2.78,1.28,2.78,3.77v9.06Z"/><path class="au" d="M591.45,596.03l8.33-19.23h1.46l-8.33,19.23h-1.46Z"/><path class="au" d="M617.16,594.87h-1.44v-8.71c0-1.82-.61-2.74-1.79-2.74-1.24,0-1.99,1.12-1.99,3v8.45h-1.44v-8.72c0-1.8-.61-2.73-1.8-2.73-1.27,0-2.04,1.14-2.04,3v8.45h-1.44v-12.62h1.39v1.69h.16c.33-1.17,1.25-1.9,2.41-1.9s2.06.7,2.33,1.9h.16c.34-1.15,1.41-1.9,2.71-1.9,1.84,0,2.78,1.28,2.78,3.77v9.06Z"/><path class="au" d="M625.57,578.97v3.28h5.29v1.3h-5.29v7.63c0,1.56,1.08,2.4,3.08,2.4.87,0,1.79-.04,2.2-.09v1.31c-.38.07-1.56.14-2.29.14-3.04,0-4.54-1.23-4.54-3.71v-7.68h-3.4v-1.3h3.4v-3.28h1.54Z"/><path class="au" d="M646.34,587.35v2.43c0,3.15-1.99,5.31-4.92,5.31-1.83,0-3.21-.75-3.81-2.07h-.21v6.14h-1.54v-16.9h1.46v1.82h.21c.74-1.32,2.09-2.03,3.88-2.03,2.93,0,4.92,2.16,4.92,5.31ZM637.36,587.72v1.69c0,2.61,1.46,4.3,3.71,4.3s3.73-1.7,3.73-4.3v-1.69c0-2.6-1.46-4.3-3.73-4.3s-3.71,1.69-3.71,4.3Z"/><rect class="k" x="80" y="79" width="430" height="120"/><path class="av" d="M84.1,79h6.09l14.65,35.62h.18l14.65-35.62h6.09v42.28h-4.92v-32.67h-.18l-13.51,32.67h-4.45l-13.51-32.67h-.18v32.67h-4.92v-42.28Z"/><path class="av" d="M131.66,112.66v-.06c0-5.19,4.04-8.44,11.04-8.85l8.73-.5v-2.55c0-3.72-2.43-5.98-6.68-5.98-3.93,0-6.39,1.88-6.97,4.6l-.06.26h-4.92l.03-.32c.44-5.01,4.8-9.05,11.98-9.05s11.72,3.9,11.72,9.99v21.06h-5.1v-4.95h-.12c-1.79,3.34-5.45,5.54-9.52,5.54-6.06,0-10.14-3.66-10.14-9.2ZM142.94,117.44c4.8,0,8.5-3.31,8.5-7.73v-2.49l-8.14.5c-4.07.23-6.42,2.05-6.42,4.89v.06c0,2.93,2.4,4.78,6.06,4.78Z"/><path class="av" d="M163.61,90.81h5.1v5.16h.12c1.9-3.54,5.3-5.74,9.67-5.74,7.79,0,12.95,6.21,12.95,15.82v.03c0,9.61-5.21,15.79-12.86,15.79-4.31,0-7.85-2.17-9.76-5.68h-.12v15.35h-5.1v-40.72ZM186.23,106.07v-.03c0-7-3.34-11.31-8.73-11.31s-8.82,4.48-8.82,11.31v.03c0,6.8,3.69,11.28,8.82,11.28,5.39,0,8.73-4.34,8.73-11.28Z"/><path class="av" d="M197.17,90.81h5.1v5.16h.12c1.9-3.54,5.3-5.74,9.67-5.74,7.79,0,12.95,6.21,12.95,15.82v.03c0,9.61-5.21,15.79-12.86,15.79-4.31,0-7.85-2.17-9.76-5.68h-.12v15.35h-5.1v-40.72ZM219.79,106.07v-.03c0-7-3.34-11.31-8.73-11.31s-8.82,4.48-8.82,11.31v.03c0,6.8,3.69,11.28,8.82,11.28,5.39,0,8.73-4.34,8.73-11.28Z"/><path class="av" d="M230.41,82.46c0-1.79,1.44-3.19,3.19-3.19s3.19,1.41,3.19,3.19-1.41,3.19-3.19,3.19-3.19-1.44-3.19-3.19ZM231.05,90.81h5.1v30.47h-5.1v-30.47Z"/><path class="av" d="M243.69,90.81h5.1v4.34h.12c1.64-2.84,4.75-4.92,9.38-4.92,6.68,0,10.55,4.34,10.55,11.28v19.78h-5.1v-18.87c0-4.95-2.31-7.68-7-7.68s-7.94,3.43-7.94,8.61v17.93h-5.1v-30.47Z"/><path class="av" d="M275.52,124.06l-.06-.26h5.13l.12.26c.97,2.2,3.87,3.54,8.03,3.54,5.36,0,8.41-2.96,8.41-7.68v-3.9h-.12c-1.82,3.37-5.33,5.54-9.7,5.54-7.68,0-12.92-6.18-12.92-15.7v-.03c0-9.46,5.3-15.62,13.04-15.62,4.31,0,7.71,2.34,9.58,5.74h.12v-5.16h5.1v29.62c0,7.06-5.19,11.69-13.45,11.69-7.53,0-12.28-3.54-13.27-8.06ZM297.15,105.87v-.03c0-6.71-3.54-11.1-8.7-11.1-5.42,0-8.82,4.34-8.82,11.1v.03c0,6.91,3.4,11.19,8.82,11.19s8.7-4.42,8.7-11.19Z"/><path class="av" d="M323.89,113.51v-18.49h-4.45v-4.22h4.45v-8.23h5.27v8.23h5.8v4.22h-5.8v18.46c0,3.25,1.44,4.16,4.16,4.16.62,0,1.2-.09,1.64-.12v4.13c-.64.09-1.73.21-2.72.21-5.6,0-8.35-2.52-8.35-8.35Z"/><path class="av" d="M341.28,79h5.1v16.67h.12c1.64-3.43,4.95-5.45,9.49-5.45,6.47,0,10.9,5.01,10.9,12.39v18.66h-5.1v-17.78c0-5.51-2.81-8.76-7.56-8.76s-7.85,3.57-7.85,8.76v17.78h-5.1v-42.28Z"/><path class="av" d="M372.46,106.16v-.03c0-9.43,5.39-15.91,13.71-15.91s13.39,6.18,13.39,15.32v1.88h-21.94c.12,6.27,3.57,9.93,8.99,9.93,3.87,0,6.59-1.93,7.47-4.54l.09-.26h5.01l-.06.29c-1,5.04-5.98,9.02-12.63,9.02-8.76,0-14.03-6.12-14.03-15.7ZM377.71,103.43h16.67c-.5-5.92-3.78-8.7-8.23-8.7s-7.88,3.02-8.44,8.7Z"/><path class="av" d="M84.1,139h15.06c7.94,0,13.56,5.48,13.56,13.51v.06c0,8.03-5.62,13.62-13.56,13.62h-9.79v15.09h-5.27v-42.28ZM89.38,143.69v17.81h8.44c6.04,0,9.52-3.31,9.52-8.88v-.06c0-5.57-3.49-8.88-9.52-8.88h-8.44Z"/><path class="av" d="M118.57,150.81h5.1v5.16h.12c1.03-3.52,3.66-5.74,7.09-5.74.88,0,1.64.15,2.05.21v4.95c-.41-.15-1.49-.29-2.72-.29-3.96,0-6.53,2.75-6.53,7.38v18.81h-5.1v-30.47Z"/><path class="av" d="M134.7,166.04v-.06c0-9.7,5.68-15.76,14.09-15.76s14.12,6.04,14.12,15.76v.06c0,9.73-5.68,15.82-14.09,15.82s-14.12-6.12-14.12-15.82ZM157.69,166.04v-.06c0-7.15-3.52-11.25-8.91-11.25s-8.88,4.13-8.88,11.25v.06c0,7.18,3.54,11.31,8.94,11.31s8.85-4.16,8.85-11.31Z"/><path class="av" d="M168.64,150.81h5.1v4.45h.12c1.38-3.02,4.42-5.04,8.35-5.04,4.16,0,7.24,2.14,8.55,5.86h.12c1.7-3.66,5.27-5.86,9.55-5.86,6.04,0,9.93,3.96,9.93,10.02v21.04h-5.1v-19.86c0-4.19-2.31-6.68-6.33-6.68s-6.88,3.02-6.88,7.18v19.37h-5.1v-20.42c0-3.69-2.46-6.12-6.24-6.12-4.04,0-6.97,3.19-6.97,7.44v19.1h-5.1v-30.47Z"/><path class="av" d="M217.43,150.81h5.1v5.16h.12c1.9-3.54,5.3-5.74,9.67-5.74,7.79,0,12.95,6.21,12.95,15.82v.03c0,9.61-5.21,15.79-12.86,15.79-4.31,0-7.85-2.17-9.76-5.68h-.12v15.35h-5.1v-40.72ZM240.05,166.07v-.03c0-7-3.34-11.31-8.73-11.31s-8.82,4.48-8.82,11.31v.03c0,6.8,3.69,11.28,8.82,11.28,5.39,0,8.73-4.34,8.73-11.28Z"/><path class="av" d="M252.54,173.51v-18.49h-4.45v-4.22h4.45v-8.23h5.27v8.23h5.8v4.22h-5.8v18.46c0,3.25,1.44,4.16,4.16,4.16.62,0,1.2-.09,1.64-.12v4.13c-.64.09-1.73.21-2.72.21-5.6,0-8.35-2.52-8.35-8.35Z"/><polygon class="ap" points="1080 458.47 840.98 362.6 840.98 75 1080 170.87 1080 458.47"/><polygon class="ap" points="1079.51 457.61 841.47 362.14 841.47 75.72 1079.51 171.19 1079.51 457.61"/><polygon class="ao" points="1039.84 393.96 881.15 330.31 881.15 139.5 1039.84 203.15 1039.84 393.96"/><polygon class="at" points="1000.16 330.31 920.82 298.49 920.82 203.02 1000.16 234.84 1000.16 330.31"/><polygon class="am" points="973.72 240.14 960.49 234.84 960.49 218.93 973.72 224.23 973.72 240.14"/><polygon class="am" points="1000.16 282.58 986.94 277.27 986.94 261.36 1000.16 266.66 1000.16 282.58"/><polygon class="am" points="1000.16 314.4 986.94 309.1 986.94 293.18 1000.16 298.49 1000.16 314.4"/><polygon class="am" points="1000.16 250.75 986.94 245.45 986.94 229.54 1000.16 234.84 1000.16 250.75"/><polygon class="am" points="986.94 325.01 973.72 319.7 973.72 303.79 986.94 309.1 986.94 325.01"/><polygon class="am" points="960.49 314.4 947.27 309.1 947.27 293.18 960.49 298.49 960.49 314.4"/><polygon class="am" points="947.27 229.54 934.04 224.23 934.04 208.32 947.27 213.62 947.27 229.54"/><polygon class="am" points="934.04 303.79 920.82 298.49 920.82 282.58 934.04 287.88 934.04 303.79"/><polygon class="am" points="934.04 271.97 920.82 266.66 920.82 250.75 934.04 256.06 934.04 271.97"/><polygon class="am" points="934.04 240.14 920.82 234.84 920.82 218.93 934.04 224.23 934.04 240.14"/><polygon class="an" points="986.94 309.1 934.04 287.88 934.04 224.23 986.94 245.45 986.94 309.1"/><polygon class="ax" points="986.94 261.36 973.72 256.06 973.72 240.14 986.94 245.45 986.94 261.36"/><polygon class="ax" points="960.49 250.75 947.27 245.45 947.27 229.54 960.49 234.84 960.49 250.75"/><polygon class="ax" points="973.72 271.97 960.49 266.66 960.49 250.75 973.72 256.06 973.72 271.97"/><polygon class="ax" points="947.27 261.36 934.04 256.06 934.04 240.14 947.27 245.45 947.27 261.36"/><polygon class="ax" points="986.94 293.18 973.72 287.88 973.72 271.97 986.94 277.27 986.94 293.18"/><polygon class="ax" points="960.49 282.58 947.27 277.27 947.27 261.36 960.49 266.66 960.49 282.58"/><polygon class="ax" points="973.72 303.79 960.49 298.49 960.49 282.58 973.72 287.88 973.72 303.79"/><polygon class="ax" points="947.27 293.18 934.04 287.88 934.04 271.97 947.27 277.27 947.27 293.18"/><line class="y" x1="1000.16" y1="266.66" x2="1039.84" y2="282.58"/><line class="y" x1="1000.16" y1="282.58" x2="1039.84" y2="298.49"/><line class="y" x1="1000.16" y1="298.49" x2="1039.84" y2="314.4"/><line class="y" x1="1000.16" y1="250.75" x2="1039.84" y2="266.66"/><line class="y" x1="1000.16" y1="314.4" x2="1039.84" y2="330.31"/><line class="n" x1="1053.06" y1="447" x2="1053.06" y2="351.53"/><line class="n" x1="1066.29" y1="452.31" x2="1066.29" y2="356.83"/><line class="n" x1="1079.51" y1="441.7" x2="1000.16" y2="409.87"/><line class="n" x1="1079.51" y1="425.79" x2="1000.16" y2="393.96"/><line class="u" x1="1039.84" y1="282.58" x2="1079.51" y2="298.49"/><line class="u" x1="1039.84" y1="298.49" x2="1079.51" y2="314.4"/><line class="u" x1="1039.84" y1="314.4" x2="1079.51" y2="330.31"/><line class="u" x1="1039.84" y1="266.66" x2="1079.51" y2="282.58"/><line class="u" x1="1039.84" y1="330.31" x2="1079.51" y2="346.23"/><line class="n" x1="1039.84" y1="378.05" x2="1079.51" y2="393.96"/><line class="n" x1="1039.84" y1="393.96" x2="1079.51" y2="409.87"/><line class="n" x1="1039.84" y1="362.14" x2="1079.51" y2="378.05"/><line class="y" x1="1039.84" y1="346.23" x2="1039.84" y2="250.75"/><line class="u" x1="1053.06" y1="351.53" x2="1053.06" y2="256.06"/><line class="u" x1="1066.29" y1="356.83" x2="1066.29" y2="261.36"/><line class="y" x1="1026.61" y1="340.92" x2="1026.61" y2="245.45"/><line class="y" x1="1013.39" y1="335.62" x2="1013.39" y2="240.14"/><line class="m" x1="920.82" y1="266.66" x2="881.15" y2="250.75"/><line class="m" x1="920.82" y1="250.75" x2="881.15" y2="234.84"/><line class="m" x1="920.82" y1="234.84" x2="881.15" y2="218.93"/><line class="m" x1="920.82" y1="282.58" x2="881.15" y2="266.66"/><line class="m" x1="920.82" y1="218.93" x2="881.15" y2="203.02"/><line class="p" x1="881.15" y1="250.75" x2="841.47" y2="234.84"/><line class="p" x1="881.15" y1="234.84" x2="841.47" y2="218.93"/><line class="p" x1="881.15" y1="218.93" x2="841.47" y2="203.02"/><line class="p" x1="881.15" y1="266.66" x2="841.47" y2="250.75"/><line class="p" x1="881.15" y1="203.02" x2="841.47" y2="187.1"/><line class="m" x1="881.15" y1="187.1" x2="881.15" y2="282.58"/><line class="p" x1="867.92" y1="181.8" x2="867.92" y2="277.27"/><line class="p" x1="854.7" y1="176.49" x2="854.7" y2="271.97"/><line class="m" x1="894.37" y1="192.41" x2="894.37" y2="287.88"/><line class="m" x1="907.59" y1="197.71" x2="907.59" y2="293.18"/><line class="x" x1="947.27" y1="213.62" x2="947.27" y2="165.89"/><line class="x" x1="960.49" y1="218.93" x2="960.49" y2="171.19"/><line class="x" x1="973.72" y1="224.23" x2="973.72" y2="176.49"/><line class="x" x1="934.04" y1="208.32" x2="934.04" y2="160.58"/><line class="x" x1="986.94" y1="229.54" x2="986.94" y2="181.8"/><line class="l" x1="947.27" y1="165.89" x2="947.27" y2="118.15"/><line class="l" x1="960.49" y1="171.19" x2="960.49" y2="123.45"/><line class="l" x1="973.72" y1="176.49" x2="973.72" y2="128.76"/><line class="l" x1="934.04" y1="160.58" x2="934.04" y2="112.85"/><line class="l" x1="986.94" y1="181.8" x2="986.94" y2="134.06"/><line class="x" x1="1000.16" y1="187.1" x2="920.82" y2="155.28"/><line class="l" x1="1000.16" y1="171.19" x2="920.82" y2="139.37"/><line class="l" x1="1000.16" y1="155.28" x2="920.82" y2="123.45"/><line class="x" x1="1000.16" y1="203.02" x2="920.82" y2="171.19"/><line class="x" x1="1000.16" y1="218.93" x2="920.82" y2="187.1"/><line class="v" x1="973.72" y1="319.7" x2="973.72" y2="367.44"/><line class="v" x1="960.49" y1="314.4" x2="960.49" y2="362.14"/><line class="v" x1="947.27" y1="309.1" x2="947.27" y2="356.83"/><line class="v" x1="986.94" y1="325.01" x2="986.94" y2="372.75"/><line class="v" x1="934.04" y1="303.79" x2="934.04" y2="351.53"/><line class="z" x1="973.72" y1="367.44" x2="973.72" y2="415.18"/><line class="z" x1="960.49" y1="362.14" x2="960.49" y2="409.87"/><line class="z" x1="947.27" y1="356.83" x2="947.27" y2="404.57"/><line class="z" x1="986.94" y1="372.75" x2="986.94" y2="420.48"/><line class="n" x1="1013.39" y1="383.49" x2="1013.39" y2="431.23"/><line class="n" x1="1026.61" y1="388.79" x2="1026.61" y2="436.53"/><line class="n" x1="1039.84" y1="394.1" x2="1039.84" y2="441.84"/><line class="z" x1="934.04" y1="351.53" x2="934.04" y2="399.27"/><line class="v" x1="920.82" y1="346.23" x2="1000.16" y2="378.05"/><line class="z" x1="920.82" y1="362.14" x2="1000.16" y2="393.96"/><line class="z" x1="920.82" y1="378.05" x2="1000.16" y2="409.87"/><line class="v" x1="920.82" y1="330.31" x2="1000.16" y2="362.14"/><line class="v" x1="920.82" y1="314.4" x2="1000.16" y2="346.23"/><line class="ab" x1="1000.16" y1="362.14" x2="1039.84" y2="378.05"/><line class="ab" x1="1000.16" y1="346.23" x2="1039.84" y2="362.14"/><line class="ab" x1="1026.61" y1="388.66" x2="1026.61" y2="340.92"/><line class="ab" x1="1013.39" y1="383.35" x2="1013.39" y2="335.62"/><polyline class="ab" points="1000.16 378.05 1039.84 393.96 1039.84 346.23"/><line class="ac" x1="867.92" y1="86.46" x2="867.92" y2="181.94"/><line class="ac" x1="854.7" y1="81.16" x2="854.7" y2="176.63"/><line class="ac" x1="841.47" y1="91.77" x2="920.82" y2="123.59"/><line class="ac" x1="841.47" y1="107.68" x2="920.82" y2="139.5"/><line class="ac" x1="881.15" y1="155.42" x2="841.47" y2="139.5"/><line class="ac" x1="881.15" y1="139.5" x2="841.47" y2="123.59"/><line class="ac" x1="881.15" y1="171.33" x2="841.47" y2="155.42"/><line class="ac" x1="907.59" y1="149.97" x2="907.59" y2="102.24"/><line class="ac" x1="894.37" y1="144.67" x2="894.37" y2="96.93"/><line class="ac" x1="881.15" y1="139.37" x2="881.15" y2="91.63"/><line class="w" x1="920.82" y1="171.33" x2="881.15" y2="155.42"/><line class="w" x1="920.82" y1="187.24" x2="881.15" y2="171.33"/><line class="w" x1="894.37" y1="144.81" x2="894.37" y2="192.54"/><line class="w" x1="907.59" y1="150.11" x2="907.59" y2="197.85"/><polyline class="w" points="920.82 155.42 881.15 139.5 881.15 187.24"/><line class="q" x1="867.92" y1="372.75" x2="867.92" y2="277.27"/><line class="q" x1="854.7" y1="367.44" x2="854.7" y2="271.97"/><line class="q" x1="841.47" y1="346.23" x2="920.82" y2="378.05"/><line class="q" x1="841.47" y1="330.31" x2="920.82" y2="362.14"/><line class="q" x1="881.15" y1="314.4" x2="841.47" y2="298.49"/><line class="q" x1="881.15" y1="330.31" x2="841.47" y2="314.4"/><line class="q" x1="881.15" y1="298.49" x2="841.47" y2="282.58"/><line class="q" x1="907.59" y1="341.06" x2="907.59" y2="388.79"/><line class="q" x1="894.37" y1="335.75" x2="894.37" y2="383.49"/><line class="q" x1="881.15" y1="330.45" x2="881.15" y2="378.19"/><line class="aa" x1="920.82" y1="330.31" x2="881.15" y2="314.4"/><line class="aa" x1="920.82" y1="314.4" x2="881.15" y2="298.49"/><line class="aa" x1="894.37" y1="335.62" x2="894.37" y2="287.88"/><line class="aa" x1="907.59" y1="340.92" x2="907.59" y2="293.18"/><polyline class="aa" points="920.82 346.23 881.15 330.31 881.15 282.58"/><line class="o" x1="1053.06" y1="160.72" x2="1053.06" y2="256.19"/><line class="o" x1="1066.29" y1="166.02" x2="1066.29" y2="261.5"/><line class="o" x1="1079.51" y1="187.24" x2="1000.16" y2="155.42"/><line class="o" x1="1079.51" y1="203.15" x2="1000.16" y2="171.33"/><line class="o" x1="1039.84" y1="219.06" x2="1079.51" y2="234.98"/><line class="o" x1="1039.84" y1="203.15" x2="1079.51" y2="219.06"/><line class="o" x1="1039.84" y1="234.98" x2="1079.51" y2="250.89"/><line class="o" x1="1013.39" y1="192.41" x2="1013.39" y2="144.67"/><line class="o" x1="1026.61" y1="197.71" x2="1026.61" y2="149.97"/><line class="o" x1="1039.84" y1="203.02" x2="1039.84" y2="155.28"/><line class="t" x1="1000.16" y1="203.15" x2="1039.84" y2="219.06"/><line class="t" x1="1000.16" y1="219.06" x2="1039.84" y2="234.98"/><line class="t" x1="1026.61" y1="197.85" x2="1026.61" y2="245.58"/><line class="t" x1="1013.39" y1="192.54" x2="1013.39" y2="240.28"/><polyline class="t" points="1000.16 187.24 1039.84 203.15 1039.84 250.89"/><polygon class="r" points="1079.51 457.61 841.47 362.14 841.47 75.72 1079.51 171.19 1079.51 457.61"/><line class="r" x1="841.47" y1="171.19" x2="1079.51" y2="266.66"/><line class="r" x1="841.47" y1="266.66" x2="1079.51" y2="362.14"/><line class="r" x1="920.82" y1="393.96" x2="920.82" y2="107.54"/><line class="r" x1="1000.16" y1="425.79" x2="1000.16" y2="139.37"/><polygon class="ar" points="965.51 506.73 726.49 410.87 726.49 123.27 965.51 219.13 965.51 506.73"/><path class="ah" d="M819.44,328.39h0c-3.67-1.47-6.64-6.24-6.64-10.65h0c0-4.41,2.97-6.8,6.64-5.33h0c3.67,1.47,6.64,6.24,6.64,10.65h0c0,4.41-2.97,6.8-6.64,5.33Z"/><path class="ai" d="M819.44,408.32h0c-3.67-1.47-6.64-6.24-6.64-10.65h0c0-4.41,2.97-6.8,6.64-5.33h0c3.67,1.47,6.64,6.24,6.64,10.65h0c0,4.41-2.97,6.8-6.64,5.33Z"/><path class="af" d="M806.16,243.14h0c-3.67-1.47-6.64-6.24-6.64-10.65h0c0-4.41,2.97-6.8,6.64-5.33h0c3.67,1.47,6.64,6.24,6.64,10.65h0c0,4.41-2.97,6.8-6.64,5.33Z"/><path class="ae" d="M806.16,291.09h0c-3.67-1.47-6.64-6.24-6.64-10.65h0c0-4.41,2.97-6.8,6.64-5.33h0c3.67,1.47,6.64,6.24,6.64,10.65h0c0,4.41-2.97,6.8-6.64,5.33Z"/><path class="al" d="M792.89,365.7h0c-3.67-1.47-6.64-6.24-6.64-10.65h0c0-4.41,2.97-6.8,6.64-5.33h0c3.67,1.47,6.64,6.24,6.64,10.65h0c0,4.41-2.97,6.8-6.64,5.33Z"/><path class="al" d="M792.89,381.68h0c-3.67-1.47-6.64-6.24-6.64-10.65h0c0-4.41,2.97-6.8,6.64-5.33h0c3.67,1.47,6.64,6.24,6.64,10.65h0c0,4.41-2.97,6.8-6.64,5.33Z"/><path class="aj" d="M786.21,275.11h0c0,4.41-2.97,6.8-6.64,5.33h0c-3.67-1.47-6.64-6.24-6.64-10.65h0c0-4.41,2.97-6.8,6.64-5.33h0c3.67,1.47,6.64,6.24,6.64,10.65Z"/><path class="aj" d="M799.5,312.4h0c0,4.41-2.97,6.8-6.64,5.33h0c-3.67-1.47-6.64-6.24-6.64-10.65h0c0-4.41,2.97-6.8,6.64-5.33h0c3.67,1.47,6.64,6.24,6.64,10.65Z"/><path class="aj" d="M772.93,333.69h0c0,4.41-2.97,6.8-6.64,5.33h0c-3.67-1.47-6.64-6.24-6.64-10.65h0c0-4.41,2.97-6.8,6.64-5.33h0c3.67,1.47,6.64,6.24,6.64,10.65Z"/><path class="aj" d="M799.5,248.48h0c0,4.41-2.97,6.8-6.64,5.33h0c-3.67-1.47-6.64-6.24-6.64-10.65h0c0-4.41,2.97-6.8,6.64-5.33h0c3.67,1.47,6.64,6.24,6.64,10.65Z"/><polygon class="as" points="908.26 530.87 669.25 435 669.25 147.4 908.26 243.27 908.26 530.87"/><path class="ae" d="M762.2,368.51h0c-3.67-1.47-6.64-6.24-6.64-10.65h0c0-4.41,2.97-6.8,6.64-5.33h0c3.67,1.47,6.64,6.24,6.64,10.65h0c0,4.41-2.97,6.8-6.64,5.33Z"/><path class="ai" d="M748.92,411.14h0c-3.67-1.47-6.64-6.24-6.64-10.65h0c0-4.41,2.97-6.8,6.64-5.33h0c3.67,1.47,6.64,6.24,6.64,10.65h0c0,4.41-2.97,6.8-6.64,5.33Z"/><path class="al" d="M735.64,389.83h0c-3.67-1.47-6.64-6.24-6.64-10.65h0c0-4.41,2.97-6.8,6.64-5.33h0c3.67,1.47,6.64,6.24,6.64,10.65h0c0,4.41-2.97,6.8-6.64,5.33Z"/><path class="al" d="M709.08,379.18h0c-3.67-1.47-6.64-6.24-6.64-10.65h0c0-4.41,2.97-6.8,6.64-5.33h0c3.67,1.47,6.64,6.24,6.64,10.65h0c0,4.41-2.97,6.8-6.64,5.33Z"/><path class="al" d="M709.08,395.16h0c-3.67-1.47-6.64-6.24-6.64-10.65h0c0-4.41,2.97-6.8,6.64-5.33h0c3.67,1.47,6.64,6.24,6.64,10.65h0c0,4.41-2.97,6.8-6.64,5.33Z"/><path class="ag" d="M702.4,320.54h0c0,4.41-2.97,6.8-6.64,5.33h0c-3.67-1.47-6.64-6.24-6.64-10.65h0c0-4.41,2.97-6.8,6.64-5.33h0c3.67,1.47,6.64,6.24,6.64,10.65Z"/><path class="aj" d="M742.25,336.53h0c0,4.41-2.97,6.8-6.64,5.33h0c-3.67-1.47-6.64-6.24-6.64-10.65h0c0-4.41,2.97-6.8,6.64-5.33h0c3.67,1.47,6.64,6.24,6.64,10.65Z"/><path class="aj" d="M715.68,341.85h0c0,4.41-2.97,6.8-6.64,5.33h0c-3.67-1.47-6.64-6.24-6.64-10.65h0c0-4.41,2.97-6.8,6.64-5.33h0c3.67,1.47,6.64,6.24,6.64,10.65Z"/><path class="ag" d="M689.11,347.17h0c0,4.41-2.97,6.8-6.64,5.33h0c-3.67-1.47-6.64-6.24-6.64-10.65h0c0-4.41,2.97-6.8,6.64-5.33h0c3.67,1.47,6.64,6.24,6.64,10.65Z"/><path class="aj" d="M728.97,363.16h0c0,4.41-2.97,6.8-6.64,5.33h0c-3.67-1.47-6.64-6.24-6.64-10.65h0c0-4.41,2.97-6.8,6.64-5.33h0c3.67,1.47,6.64,6.24,6.64,10.65Z"/><polygon class="aw" points="1022.75 482.6 783.74 386.73 783.74 99.13 1022.75 195 1022.75 482.6"/><path class="ah" d="M876.69,272.29h0c-3.67-1.47-6.64-6.24-6.64-10.65h0c0-4.41,2.97-6.8,6.64-5.33h0c3.67,1.47,6.64,6.24,6.64,10.65h0c0,4.41-2.97,6.8-6.64,5.33Z"/><path class="ae" d="M863.41,250.98h0c-3.67-1.47-6.64-6.24-6.64-10.65h0c0-4.41,2.97-6.8,6.64-5.33h0c3.67,1.47,6.64,6.24,6.64,10.65h0c0,4.41-2.97,6.8-6.64,5.33Z"/><path class="ae" d="M863.41,282.95h0c-3.67-1.47-6.64-6.24-6.64-10.65h0c0-4.41,2.97-6.8,6.64-5.33h0c3.67,1.47,6.64,6.24,6.64,10.65h0c0,4.41-2.97,6.8-6.64,5.33Z"/><path class="aj" d="M830.17,277.61h0c0,4.41-2.97,6.8-6.64,5.33h0c-3.67-1.47-6.64-6.24-6.64-10.65h0c0-4.41,2.97-6.8,6.64-5.33h0c3.67,1.47,6.64,6.24,6.64,10.65Z"/><path class="ag" d="M816.89,224.34h0c0,4.41-2.97,6.8-6.64,5.33h0c-3.67-1.47-6.64-6.24-6.64-10.65h0c0-4.41,2.97-6.8,6.64-5.33h0c3.67,1.47,6.64,6.24,6.64,10.65Z"/><path class="aj" d="M843.46,235h0c0,4.41-2.97,6.8-6.64,5.33h0c-3.67-1.47-6.64-6.24-6.64-10.65h0c0-4.41,2.97-6.8,6.64-5.33h0c3.67,1.47,6.64,6.24,6.64,10.65Z"/><path class="aj" d="M843.46,219.02h0c0,4.41-2.97,6.8-6.64,5.33h0c-3.67-1.47-6.64-6.24-6.64-10.65h0c0-4.41,2.97-6.8,6.64-5.33h0c3.67,1.47,6.64,6.24,6.64,10.65Z"/><path class="ak" d="M843.46,203.04h0c0,4.41-2.97,6.8-6.64,5.33h0c-3.67-1.47-6.64-6.24-6.64-10.65h0c0-4.41,2.97-6.8,6.64-5.33h0c3.67,1.47,6.64,6.24,6.64,10.65Z"/><path class="ak" d="M830.17,181.74h0c0,4.41-2.97,6.8-6.64,5.33h0c-3.67-1.47-6.64-6.24-6.64-10.65h0c0-4.41,2.97-6.8,6.64-5.33h0c3.67,1.47,6.64,6.24,6.64,10.65Z"/><path class="ak" d="M856.75,192.4h0c0,4.41-2.97,6.8-6.64,5.33h0c-3.67-1.47-6.64-6.24-6.64-10.65h0c0-4.41,2.97-6.8,6.64-5.33h0c3.67,1.47,6.64,6.24,6.64,10.65Z"/><polygon class="s" points="851.02 555 612 459.13 612 171.53 851.02 267.4 851.02 555"/><path class="ad" d="M665.11,363.93h0c-12.22-4.9-22.13-20.8-22.13-35.51h0c0-14.71,9.91-22.66,22.13-17.75h0c12.22,4.9,22.13,20.8,22.13,35.51h0c0,14.71-9.91,22.66-22.13,17.75Z"/><path class="aq" d="M82.46,264.37v-25.37h3.66l8.79,21.38h.11l8.79-21.38h3.66v25.37h-2.95v-19.6h-1.44l3.43-5.06-10.2,24.66h-2.67l-10.2-24.66,3.43,5.06h-1.44v19.6h-2.95Z"/><path class="aq" d="M118.79,264.37v-22.52h-8v-2.85h19.16v2.85h-8v22.52h-3.16Z"/><path class="aq" d="M133.3,264.37v-25.37h3.16v25.37h-3.16ZM134.88,255.31v-2.81h6.64c1.82,0,3.22-.47,4.22-1.42s1.49-2.25,1.49-3.91v-.04c0-1.68-.5-2.98-1.49-3.92s-2.4-1.41-4.22-1.41h-6.64v-2.81h7.45c1.59,0,3,.34,4.22,1.02s2.18,1.63,2.87,2.85,1.05,2.63,1.05,4.24v.04c0,1.61-.35,3.02-1.05,4.25s-1.66,2.19-2.87,2.88-2.62,1.04-4.22,1.04h-7.45Z"/><path class="aq" d="M162.72,242.99c-.53,0-.98-.19-1.35-.56s-.56-.83-.56-1.35.19-.99.56-1.36.83-.55,1.35-.55.99.18,1.36.55.55.82.55,1.36-.18.98-.55,1.35-.82.56-1.36.56ZM161.19,264.37v-18.28h3.06v18.28h-3.06Z"/><path class="aq" d="M174.9,264.72c-1.43,0-2.67-.23-3.71-.69s-1.87-1.1-2.47-1.92-.97-1.78-1.1-2.87l-.02-.16h3.06l.04.18c.19.91.63,1.63,1.32,2.14s1.66.76,2.9.76c.83,0,1.54-.11,2.13-.33s1.04-.53,1.35-.93.47-.88.47-1.43v-.02c0-.66-.2-1.18-.6-1.58s-1.12-.73-2.16-.98l-2.9-.7c-1.15-.28-2.1-.65-2.86-1.1s-1.32-1-1.7-1.66-.56-1.42-.56-2.3v-.02c0-1.05.28-1.99.85-2.79s1.36-1.44,2.37-1.9,2.18-.69,3.49-.69,2.5.24,3.49.71,1.77,1.12,2.34,1.93.89,1.73.96,2.75l.02.23h-2.92l-.02-.12c-.12-.89-.51-1.61-1.17-2.14s-1.56-.81-2.7-.81c-.74,0-1.38.11-1.92.33s-.95.54-1.24.94-.43.88-.43,1.42v.02c0,.41.1.78.29,1.12s.5.62.92.87.97.45,1.63.62l2.9.7c1.85.45,3.15,1.06,3.9,1.84s1.12,1.82,1.12,3.12v.02c0,1.07-.31,2.01-.92,2.83s-1.46,1.46-2.53,1.92-2.29.69-3.65.69Z"/><path class="aq" d="M197.9,264.72c-1.21,0-2.27-.23-3.18-.69s-1.63-1.1-2.14-1.93-.76-1.8-.76-2.9v-.04c0-1.04.26-1.95.78-2.71s1.28-1.37,2.27-1.81,2.18-.71,3.58-.79l6.77-.39v2.37l-6.42.39c-1.22.07-2.17.36-2.84.88s-1.01,1.2-1.01,2.06v.04c0,.88.33,1.58.99,2.09s1.54.77,2.65.77c.96,0,1.83-.2,2.59-.61s1.38-.96,1.83-1.66.68-1.49.68-2.37v-5.4c0-1.11-.35-1.99-1.05-2.63s-1.68-.96-2.96-.96c-1.17,0-2.12.25-2.84.76s-1.17,1.17-1.34,2l-.04.16h-2.95l.02-.19c.09-1.01.44-1.92,1.03-2.74s1.41-1.47,2.45-1.96,2.28-.73,3.71-.73,2.69.25,3.74.74,1.86,1.19,2.43,2.08.86,1.95.86,3.17v12.64h-3.06v-2.97h-.07c-.35.67-.82,1.25-1.41,1.75s-1.25.88-1.98,1.16-1.51.41-2.33.41Z"/><path class="aq" d="M218.16,264.37v-25.37h3.06v25.37h-3.06Z"/><path class="aq" d="M227.08,242.99c-.53,0-.98-.19-1.35-.56s-.56-.83-.56-1.35.19-.99.56-1.36.83-.55,1.35-.55.99.18,1.36.55.55.82.55,1.36-.18.98-.55,1.35-.82.56-1.36.56ZM225.55,264.37v-18.28h3.06v18.28h-3.06Z"/><path class="aq" d="M240.51,270.87c-1.5,0-2.81-.21-3.93-.64s-2.02-1.01-2.71-1.74-1.13-1.55-1.33-2.45l-.04-.16h3.08l.07.16c.29.66.86,1.17,1.7,1.56s1.88.57,3.12.57c1.61,0,2.85-.41,3.73-1.24s1.32-1.95,1.32-3.37v-2.34h-.07c-.36.68-.83,1.27-1.41,1.76s-1.23.88-1.98,1.15-1.56.41-2.43.41c-1.54,0-2.89-.39-4.05-1.17s-2.07-1.88-2.72-3.29-.98-3.07-.98-4.97v-.02c0-1.9.33-3.55.99-4.95s1.58-2.49,2.75-3.26,2.53-1.16,4.08-1.16c.87,0,1.66.15,2.39.44s1.37.7,1.94,1.21,1.04,1.11,1.42,1.79h.07v-3.09h3.06v17.77c0,1.42-.33,2.65-.98,3.7s-1.59,1.86-2.79,2.44-2.64.87-4.29.87ZM240.29,261.83c1.04,0,1.95-.28,2.73-.83s1.39-1.34,1.83-2.35.66-2.19.66-3.53v-.02c0-1.35-.22-2.52-.66-3.52s-1.05-1.77-1.84-2.32-1.69-.83-2.72-.83-2.02.27-2.81.82-1.41,1.32-1.84,2.31-.64,2.17-.64,3.53v.02c0,1.38.21,2.58.64,3.58s1.04,1.78,1.84,2.32,1.73.82,2.81.82Z"/><path class="aq" d="M252.69,264.37v-25.37h3.06v10h.07c.49-1.03,1.22-1.83,2.2-2.41s2.14-.86,3.5-.86,2.44.31,3.42.94,1.74,1.5,2.29,2.61.83,2.41.83,3.88v11.2h-3.06v-10.67c0-1.65-.4-2.94-1.2-3.87s-1.91-1.39-3.34-1.39c-.94,0-1.76.22-2.47.67s-1.26,1.06-1.65,1.85-.59,1.7-.59,2.74v10.67h-3.06Z"/><path class="aq" d="M277.88,264.72c-1.68,0-2.93-.4-3.76-1.2s-1.25-2.07-1.25-3.81v-11.09h-2.67v-2.53h2.67v-4.94h3.16v4.94h3.48v2.53h-3.48v11.07c0,.97.21,1.63.63,1.98s1.04.52,1.86.52c.19,0,.37,0,.54-.03s.32-.03.45-.04v2.48c-.19.02-.43.05-.73.08s-.6.04-.91.04Z"/><path class="aq" d="M286.4,264.37l-5.12-18.28h3.04l3.66,14.87h.07l4.13-14.87h2.95l4.15,14.87h.07l3.66-14.87h3.02l-5.1,18.28h-3.11l-4.13-14.15h-.07l-4.11,14.15h-3.11Z"/><path class="aq" d="M316.06,264.72c-1.75,0-3.25-.39-4.51-1.16s-2.23-1.87-2.9-3.28-1.01-3.07-1.01-4.98v-.02c0-1.89.34-3.55,1.02-4.98s1.63-2.55,2.87-3.36,2.68-1.2,4.34-1.2,3.1.38,4.3,1.15,2.12,1.84,2.77,3.23.97,2.99.97,4.82v1.12h-14.73v-2.39h13.22l-1.55,2.21v-1.18c0-1.42-.21-2.59-.64-3.52s-1.02-1.61-1.77-2.07-1.61-.68-2.58-.68-1.85.24-2.62.71-1.38,1.18-1.83,2.11-.67,2.08-.67,3.44v1.18c0,1.29.22,2.39.66,3.3s1.06,1.61,1.87,2.1,1.76.73,2.87.73c.77,0,1.46-.12,2.07-.35s1.12-.56,1.53-.97.7-.88.88-1.41l.05-.16h3.01l-.04.18c-.15.75-.44,1.45-.87,2.11s-.98,1.23-1.64,1.73-1.43.88-2.29,1.16-1.78.41-2.78.41Z"/><path class="aq" d="M328.7,242.99c-.53,0-.98-.19-1.35-.56s-.56-.83-.56-1.35.19-.99.56-1.36.83-.55,1.35-.55.99.18,1.36.55.55.82.55,1.36-.18.98-.55,1.35-.82.56-1.36.56ZM327.17,264.37v-18.28h3.06v18.28h-3.06Z"/><path class="aq" d="M342.12,270.87c-1.5,0-2.81-.21-3.93-.64s-2.02-1.01-2.71-1.74-1.13-1.55-1.33-2.45l-.04-.16h3.08l.07.16c.29.66.86,1.17,1.7,1.56s1.88.57,3.12.57c1.61,0,2.85-.41,3.73-1.24s1.32-1.95,1.32-3.37v-2.34h-.07c-.36.68-.83,1.27-1.41,1.76s-1.23.88-1.98,1.15-1.56.41-2.43.41c-1.54,0-2.89-.39-4.05-1.17s-2.07-1.88-2.72-3.29-.98-3.07-.98-4.97v-.02c0-1.9.33-3.55.99-4.95s1.58-2.49,2.75-3.26,2.53-1.16,4.08-1.16c.87,0,1.66.15,2.39.44s1.37.7,1.94,1.21,1.04,1.11,1.42,1.79h.07v-3.09h3.06v17.77c0,1.42-.33,2.65-.98,3.7s-1.59,1.86-2.79,2.44-2.64.87-4.29.87ZM341.91,261.83c1.04,0,1.95-.28,2.73-.83s1.39-1.34,1.83-2.35.66-2.19.66-3.53v-.02c0-1.35-.22-2.52-.66-3.52s-1.05-1.77-1.84-2.32-1.69-.83-2.72-.83-2.02.27-2.81.82-1.41,1.32-1.84,2.31-.64,2.17-.64,3.53v.02c0,1.38.21,2.58.64,3.58s1.04,1.78,1.84,2.32,1.73.82,2.81.82Z"/><path class="aq" d="M354.31,264.37v-25.37h3.06v10h.07c.49-1.03,1.22-1.83,2.2-2.41s2.14-.86,3.5-.86,2.44.31,3.42.94,1.74,1.5,2.29,2.61.83,2.41.83,3.88v11.2h-3.06v-10.67c0-1.65-.4-2.94-1.2-3.87s-1.91-1.39-3.34-1.39c-.94,0-1.76.22-2.47.67s-1.26,1.06-1.65,1.85-.59,1.7-.59,2.74v10.67h-3.06Z"/><path class="aq" d="M379.5,264.72c-1.68,0-2.93-.4-3.76-1.2s-1.25-2.07-1.25-3.81v-11.09h-2.67v-2.53h2.67v-4.94h3.16v4.94h3.48v2.53h-3.48v11.07c0,.97.21,1.63.63,1.98s1.04.52,1.86.52c.19,0,.37,0,.54-.03s.32-.03.45-.04v2.48c-.19.02-.43.05-.73.08s-.6.04-.91.04Z"/><path class="aq" d="M383.17,269.34l1.55-8.6h3.2l-2.57,8.6h-2.18Z"/><path class="aq" d="M88.23,309.72c-1.34,0-2.48-.28-3.42-.83s-1.66-1.33-2.16-2.35-.75-2.21-.75-3.59v-11.87h3.06v11.32c0,1.49.35,2.63,1.05,3.42s1.75,1.19,3.16,1.19c.73,0,1.38-.12,1.96-.37s1.08-.59,1.5-1.05.74-1,.97-1.63.33-1.34.33-2.12v-10.76h3.06v18.28h-3.06v-2.6h-.07c-.33.56-.75,1.07-1.27,1.51s-1.15.8-1.87,1.05-1.55.39-2.48.39Z"/><path class="aq" d="M100.95,309.37v-18.28h3.06v2.6h.07c.49-.86,1.21-1.56,2.14-2.12s2.1-.83,3.48-.83c2,0,3.56.61,4.67,1.82s1.66,2.86,1.66,4.95v11.87h-3.06v-11.32c0-1.49-.35-2.63-1.05-3.42s-1.75-1.19-3.16-1.19c-.96,0-1.8.21-2.51.64s-1.27,1.03-1.66,1.8-.59,1.68-.59,2.72v10.76h-3.06Z"/><path class="aq" d="M121.64,287.99c-.53,0-.98-.19-1.35-.56s-.56-.83-.56-1.35.19-.99.56-1.36.83-.55,1.35-.55.99.18,1.36.55.55.82.55,1.36-.18.98-.55,1.35-.82.56-1.36.56ZM120.11,309.37v-18.28h3.06v18.28h-3.06Z"/><path class="aq" d="M132.49,309.37l-6.73-18.28h3.22l5.04,15.03h.07l5.06-15.03h3.18l-6.71,18.28h-3.13Z"/><path class="aq" d="M151.54,309.72c-1.75,0-3.25-.39-4.51-1.16s-2.23-1.87-2.9-3.28-1.01-3.07-1.01-4.98v-.02c0-1.89.34-3.55,1.02-4.98s1.63-2.55,2.87-3.36,2.68-1.2,4.34-1.2,3.1.38,4.3,1.15,2.12,1.84,2.77,3.23.97,2.99.97,4.82v1.12h-14.73v-2.39h13.22l-1.55,2.21v-1.18c0-1.42-.21-2.59-.64-3.52s-1.02-1.61-1.77-2.07-1.61-.68-2.58-.68-1.85.24-2.62.71-1.38,1.18-1.83,2.11-.67,2.08-.67,3.44v1.18c0,1.29.22,2.39.66,3.3s1.06,1.61,1.87,2.1,1.76.73,2.87.73c.77,0,1.46-.12,2.07-.35s1.12-.56,1.53-.97.7-.88.88-1.41l.05-.16h3.01l-.04.18c-.15.75-.44,1.45-.87,2.11s-.98,1.23-1.64,1.73-1.43.88-2.29,1.16-1.78.41-2.78.41Z"/><path class="aq" d="M162.46,309.37v-18.28h3.06v3.09h.07c.3-1.05.83-1.89,1.58-2.51s1.64-.93,2.67-.93c.27,0,.51.01.73.04s.38.06.5.08v2.97c-.12-.05-.33-.09-.62-.12s-.64-.05-1.01-.05c-.79,0-1.47.18-2.07.53s-1.05.86-1.37,1.52-.48,1.46-.48,2.38v11.29h-3.06Z"/><path class="aq" d="M180.04,309.72c-1.43,0-2.67-.23-3.71-.69s-1.87-1.1-2.47-1.92-.97-1.78-1.1-2.87l-.02-.16h3.06l.04.18c.19.91.63,1.63,1.32,2.14s1.66.76,2.9.76c.83,0,1.54-.11,2.13-.33s1.04-.53,1.35-.93.47-.88.47-1.43v-.02c0-.66-.2-1.18-.6-1.58s-1.12-.73-2.16-.98l-2.9-.7c-1.15-.28-2.1-.65-2.86-1.1s-1.32-1-1.7-1.66-.56-1.42-.56-2.3v-.02c0-1.05.28-1.99.85-2.79s1.36-1.44,2.37-1.9,2.18-.69,3.49-.69,2.5.24,3.49.71,1.77,1.12,2.34,1.93.89,1.73.96,2.75l.02.23h-2.92l-.02-.12c-.12-.89-.51-1.61-1.17-2.14s-1.56-.81-2.7-.81c-.74,0-1.38.11-1.92.33s-.95.54-1.24.94-.43.88-.43,1.42v.02c0,.41.1.78.29,1.12s.5.62.92.87.97.45,1.63.62l2.9.7c1.85.45,3.15,1.06,3.9,1.84s1.12,1.82,1.12,3.12v.02c0,1.07-.31,2.01-.92,2.83s-1.46,1.46-2.53,1.92-2.29.69-3.65.69Z"/><path class="aq" d="M195.65,309.72c-1.21,0-2.27-.23-3.18-.69s-1.63-1.1-2.14-1.93-.76-1.8-.76-2.9v-.04c0-1.04.26-1.95.78-2.71s1.28-1.37,2.27-1.81,2.18-.71,3.58-.79l6.77-.39v2.37l-6.42.39c-1.22.07-2.17.36-2.84.88s-1.01,1.2-1.01,2.06v.04c0,.88.33,1.58.99,2.09s1.54.77,2.65.77c.96,0,1.83-.2,2.59-.61s1.38-.96,1.83-1.66.68-1.49.68-2.37v-5.4c0-1.11-.35-1.99-1.05-2.63s-1.68-.96-2.96-.96c-1.17,0-2.12.25-2.84.76s-1.17,1.17-1.34,2l-.04.16h-2.95l.02-.19c.09-1.01.44-1.92,1.03-2.74s1.41-1.47,2.45-1.96,2.28-.73,3.71-.73,2.69.25,3.74.74,1.86,1.19,2.43,2.08.86,1.95.86,3.17v12.64h-3.06v-2.97h-.07c-.35.67-.82,1.25-1.41,1.75s-1.25.88-1.98,1.16-1.51.41-2.33.41Z"/><path class="aq" d="M208.53,309.37v-25.37h3.06v25.37h-3.06Z"/><path class="aq" d="M224.09,309.37v-15.75h-2.55v-2.53h2.55v-2.25c0-1.17.18-2.14.55-2.91s.92-1.34,1.66-1.71,1.67-.56,2.79-.56c.34,0,.68.01,1.02.04s.62.05.84.09v2.48c-.19-.02-.4-.04-.62-.05s-.46-.02-.69-.02c-.84,0-1.48.22-1.9.66s-.63,1.11-.63,2.01v2.23h3.76v2.53h-3.73v15.75h-3.06Z"/><path class="aq" d="M234.04,309.37v-18.28h3.06v3.09h.07c.3-1.05.83-1.89,1.58-2.51s1.64-.93,2.67-.93c.27,0,.51.01.73.04s.38.06.5.08v2.97c-.12-.05-.33-.09-.62-.12s-.64-.05-1.01-.05c-.79,0-1.47.18-2.07.53s-1.05.86-1.37,1.52-.48,1.46-.48,2.38v11.29h-3.06Z"/><path class="aq" d="M250.12,309.72c-1.21,0-2.27-.23-3.18-.69s-1.63-1.1-2.14-1.93-.76-1.8-.76-2.9v-.04c0-1.04.26-1.95.78-2.71s1.28-1.37,2.27-1.81,2.18-.71,3.58-.79l6.77-.39v2.37l-6.42.39c-1.22.07-2.17.36-2.84.88s-1.01,1.2-1.01,2.06v.04c0,.88.33,1.58.99,2.09s1.54.77,2.65.77c.96,0,1.83-.2,2.59-.61s1.38-.96,1.83-1.66.68-1.49.68-2.37v-5.4c0-1.11-.35-1.99-1.05-2.63s-1.68-.96-2.96-.96c-1.17,0-2.12.25-2.84.76s-1.17,1.17-1.34,2l-.04.16h-2.95l.02-.19c.09-1.01.44-1.92,1.03-2.74s1.41-1.47,2.45-1.96,2.28-.73,3.71-.73,2.69.25,3.74.74,1.86,1.19,2.43,2.08.86,1.95.86,3.17v12.64h-3.06v-2.97h-.07c-.35.67-.82,1.25-1.41,1.75s-1.25.88-1.98,1.16-1.51.41-2.33.41Z"/><path class="aq" d="M262.85,309.37v-18.28h3.06v2.67h.07c.41-.9,1.05-1.63,1.93-2.19s1.9-.83,3.08-.83c.83,0,1.58.14,2.26.41s1.26.67,1.75,1.2.87,1.16,1.12,1.91h.07c.34-.74.79-1.37,1.36-1.89s1.22-.92,1.97-1.2,1.54-.42,2.4-.42c1.21,0,2.26.25,3.15.75s1.58,1.2,2.07,2.09.74,1.95.74,3.17v12.62h-3.06v-11.92c0-.84-.15-1.56-.45-2.16s-.73-1.05-1.29-1.37-1.25-.47-2.06-.47-1.52.18-2.14.55-1.11.88-1.46,1.53-.53,1.39-.53,2.22v11.62h-3.06v-12.25c0-.74-.16-1.38-.47-1.93s-.74-.98-1.3-1.28-1.22-.46-1.98-.46c-.81,0-1.53.2-2.15.59s-1.12.92-1.49,1.59-.54,1.43-.54,2.29v11.46h-3.06Z"/><path class="aq" d="M299.29,309.72c-1.75,0-3.25-.39-4.51-1.16s-2.23-1.87-2.9-3.28-1.01-3.07-1.01-4.98v-.02c0-1.89.34-3.55,1.02-4.98s1.63-2.55,2.87-3.36,2.68-1.2,4.34-1.2,3.1.38,4.3,1.15,2.12,1.84,2.77,3.23.97,2.99.97,4.82v1.12h-14.73v-2.39h13.22l-1.55,2.21v-1.18c0-1.42-.21-2.59-.64-3.52s-1.02-1.61-1.77-2.07-1.61-.68-2.58-.68-1.85.24-2.62.71-1.38,1.18-1.83,2.11-.67,2.08-.67,3.44v1.18c0,1.29.22,2.39.66,3.3s1.06,1.61,1.87,2.1,1.76.73,2.87.73c.77,0,1.46-.12,2.07-.35s1.12-.56,1.53-.97.7-.88.88-1.41l.05-.16h3.01l-.04.18c-.15.75-.44,1.45-.87,2.11s-.98,1.23-1.64,1.73-1.43.88-2.29,1.16-1.78.41-2.78.41Z"/><path class="aq" d="M313.82,309.37l-5.12-18.28h3.04l3.66,14.87h.07l4.13-14.87h2.95l4.15,14.87h.07l3.66-14.87h3.02l-5.1,18.28h-3.11l-4.13-14.15h-.07l-4.11,14.15h-3.11Z"/><path class="aq" d="M343.53,309.72c-1.69,0-3.17-.39-4.44-1.16s-2.26-1.87-2.97-3.3-1.06-3.1-1.06-5.04v-.04c0-1.95.35-3.62,1.06-5.04s1.7-2.5,2.97-3.27,2.75-1.15,4.42-1.15,3.17.38,4.44,1.15,2.26,1.86,2.97,3.27,1.06,3.09,1.06,5.04v.04c0,1.95-.35,3.63-1.06,5.04s-1.7,2.51-2.96,3.29-2.74,1.16-4.43,1.16ZM343.55,307.01c1.08,0,2.01-.27,2.8-.8s1.41-1.31,1.85-2.32.66-2.24.66-3.67v-.04c0-1.43-.22-2.65-.66-3.66s-1.06-1.78-1.86-2.3-1.74-.79-2.82-.79-1.98.27-2.79.8-1.43,1.3-1.87,2.3-.67,2.22-.67,3.65v.04c0,1.43.22,2.65.67,3.67s1.07,1.79,1.87,2.32,1.74.8,2.82.8Z"/><path class="aq" d="M355.06,309.37v-18.28h3.06v3.09h.07c.3-1.05.83-1.89,1.58-2.51s1.64-.93,2.67-.93c.27,0,.51.01.73.04s.38.06.5.08v2.97c-.12-.05-.33-.09-.62-.12s-.64-.05-1.01-.05c-.79,0-1.47.18-2.07.53s-1.05.86-1.37,1.52-.48,1.46-.48,2.38v11.29h-3.06Z"/><path class="aq" d="M366.4,309.37v-25.37h3.06v25.37h-3.06ZM368.77,303.12v-3.97h.76l8.02-8.07h3.71l-8.67,8.63h-.25l-3.57,3.41ZM377.95,309.37l-6.96-8.74,2.04-2.04,8.47,10.78h-3.55Z"/><path class="aq" d="M391.99,309.37v-15.75h-2.55v-2.53h2.55v-2.25c0-1.17.18-2.14.55-2.91s.92-1.34,1.66-1.71,1.67-.56,2.79-.56c.34,0,.68.01,1.02.04s.62.05.84.09v2.48c-.19-.02-.4-.04-.62-.05s-.46-.02-.69-.02c-.84,0-1.48.22-1.9.66s-.63,1.11-.63,2.01v2.23h3.76v2.53h-3.73v15.75h-3.06Z"/><path class="aq" d="M407.76,309.72c-1.69,0-3.17-.39-4.44-1.16s-2.26-1.87-2.97-3.3-1.06-3.1-1.06-5.04v-.04c0-1.95.35-3.62,1.06-5.04s1.7-2.5,2.97-3.27,2.75-1.15,4.42-1.15,3.17.38,4.44,1.15,2.26,1.86,2.97,3.27,1.06,3.09,1.06,5.04v.04c0,1.95-.35,3.63-1.06,5.04s-1.7,2.51-2.96,3.29-2.74,1.16-4.43,1.16ZM407.78,307.01c1.08,0,2.01-.27,2.8-.8s1.41-1.31,1.85-2.32.66-2.24.66-3.67v-.04c0-1.43-.22-2.65-.66-3.66s-1.06-1.78-1.86-2.3-1.74-.79-2.82-.79-1.98.27-2.79.8-1.43,1.3-1.87,2.3-.67,2.22-.67,3.65v.04c0,1.43.22,2.65.67,3.67s1.07,1.79,1.87,2.32,1.74.8,2.82.8Z"/><path class="aq" d="M419.29,309.37v-18.28h3.06v3.09h.07c.3-1.05.83-1.89,1.58-2.51s1.64-.93,2.67-.93c.27,0,.51.01.73.04s.38.06.5.08v2.97c-.12-.05-.33-.09-.62-.12s-.64-.05-1.01-.05c-.79,0-1.47.18-2.07.53s-1.05.86-1.37,1.52-.48,1.46-.48,2.38v11.29h-3.06Z"/><path class="aq" d="M87.14,354.37l-6.73-18.28h3.22l5.04,15.03h.07l5.06-15.03h3.18l-6.71,18.28h-3.13Z"/><path class="aq" d="M101.09,332.99c-.53,0-.98-.19-1.35-.56s-.56-.83-.56-1.35.19-.99.56-1.36.83-.55,1.35-.55.99.18,1.36.55.55.82.55,1.36-.18.98-.55,1.35-.82.56-1.36.56ZM99.56,354.37v-18.28h3.06v18.28h-3.06Z"/><path class="aq" d="M113.28,354.72c-1.43,0-2.67-.23-3.71-.69s-1.87-1.1-2.47-1.92-.97-1.78-1.1-2.87l-.02-.16h3.06l.04.18c.19.91.63,1.63,1.32,2.14s1.66.76,2.9.76c.83,0,1.54-.11,2.13-.33s1.04-.53,1.35-.93.47-.88.47-1.43v-.02c0-.66-.2-1.18-.6-1.58s-1.12-.73-2.16-.98l-2.9-.7c-1.15-.28-2.1-.65-2.86-1.1s-1.32-1-1.7-1.66-.56-1.42-.56-2.3v-.02c0-1.05.28-1.99.85-2.79s1.36-1.44,2.37-1.9,2.18-.69,3.49-.69,2.5.24,3.49.71,1.77,1.12,2.34,1.93.89,1.73.96,2.75l.02.23h-2.92l-.02-.12c-.12-.89-.51-1.61-1.17-2.14s-1.56-.81-2.7-.81c-.74,0-1.38.11-1.92.33s-.95.54-1.24.94-.43.88-.43,1.42v.02c0,.41.1.78.29,1.12s.5.62.92.87.97.45,1.63.62l2.9.7c1.85.45,3.15,1.06,3.9,1.84s1.12,1.82,1.12,3.12v.02c0,1.07-.31,2.01-.92,2.83s-1.46,1.46-2.53,1.92-2.29.69-3.65.69Z"/><path class="aq" d="M129.78,354.72c-1.34,0-2.48-.28-3.42-.83s-1.66-1.33-2.16-2.35-.75-2.21-.75-3.59v-11.87h3.06v11.32c0,1.49.35,2.63,1.05,3.42s1.75,1.19,3.16,1.19c.73,0,1.38-.12,1.96-.37s1.08-.59,1.5-1.05.74-1,.97-1.63.33-1.34.33-2.12v-10.76h3.06v18.28h-3.06v-2.6h-.07c-.33.56-.75,1.07-1.27,1.51s-1.15.8-1.87,1.05-1.55.39-2.48.39Z"/><path class="aq" d="M147.85,354.72c-1.21,0-2.27-.23-3.18-.69s-1.63-1.1-2.14-1.93-.76-1.8-.76-2.9v-.04c0-1.04.26-1.95.78-2.71s1.28-1.37,2.27-1.81,2.18-.71,3.58-.79l6.77-.39v2.37l-6.42.39c-1.22.07-2.17.36-2.84.88s-1.01,1.2-1.01,2.06v.04c0,.88.33,1.58.99,2.09s1.54.77,2.65.77c.96,0,1.83-.2,2.59-.61s1.38-.96,1.83-1.66.68-1.49.68-2.37v-5.4c0-1.11-.35-1.99-1.05-2.63s-1.68-.96-2.96-.96c-1.17,0-2.12.25-2.84.76s-1.17,1.17-1.34,2l-.04.16h-2.95l.02-.19c.09-1.01.44-1.92,1.03-2.74s1.41-1.47,2.45-1.96,2.28-.73,3.71-.73,2.69.25,3.74.74,1.86,1.19,2.43,2.08.86,1.95.86,3.17v12.64h-3.06v-2.97h-.07c-.35.67-.82,1.25-1.41,1.75s-1.25.88-1.98,1.16-1.51.41-2.33.41Z"/><path class="aq" d="M160.74,354.37v-25.37h3.06v25.37h-3.06Z"/><path class="aq" d="M169.65,332.99c-.53,0-.98-.19-1.35-.56s-.56-.83-.56-1.35.19-.99.56-1.36.83-.55,1.35-.55.99.18,1.36.55.55.82.55,1.36-.18.98-.55,1.35-.82.56-1.36.56ZM168.12,354.37v-18.28h3.06v18.28h-3.06Z"/><path class="aq" d="M174.96,354.37v-2.18l10.11-13.52v-.05h-10.09v-2.53h13.57v2.23l-10.04,13.46v.05h10.09v2.53h-13.64Z"/><path class="aq" d="M193.91,332.99c-.53,0-.98-.19-1.35-.56s-.56-.83-.56-1.35.19-.99.56-1.36.83-.55,1.35-.55.99.18,1.36.55.55.82.55,1.36-.18.98-.55,1.35-.82.56-1.36.56ZM192.38,354.37v-18.28h3.06v18.28h-3.06Z"/><path class="aq" d="M199.6,354.37v-18.28h3.06v2.6h.07c.49-.86,1.21-1.56,2.14-2.12s2.1-.83,3.48-.83c2,0,3.56.61,4.67,1.82s1.66,2.86,1.66,4.95v11.87h-3.06v-11.32c0-1.49-.35-2.63-1.05-3.42s-1.75-1.19-3.16-1.19c-.96,0-1.8.21-2.51.64s-1.27,1.03-1.66,1.8-.59,1.68-.59,2.72v10.76h-3.06Z"/><path class="aq" d="M226.3,360.87c-1.5,0-2.81-.21-3.93-.64s-2.02-1.01-2.71-1.74-1.13-1.55-1.33-2.45l-.04-.16h3.08l.07.16c.29.66.86,1.17,1.7,1.56s1.88.57,3.12.57c1.61,0,2.85-.41,3.73-1.24s1.32-1.95,1.32-3.37v-2.34h-.07c-.36.68-.83,1.27-1.41,1.76s-1.23.88-1.98,1.15-1.56.41-2.43.41c-1.54,0-2.89-.39-4.05-1.17s-2.07-1.88-2.72-3.29-.98-3.07-.98-4.97v-.02c0-1.9.33-3.55.99-4.95s1.58-2.49,2.75-3.26,2.53-1.16,4.08-1.16c.87,0,1.66.15,2.39.44s1.37.7,1.94,1.21,1.04,1.11,1.42,1.79h.07v-3.09h3.06v17.77c0,1.42-.33,2.65-.98,3.7s-1.59,1.86-2.79,2.44-2.64.87-4.29.87ZM226.09,351.83c1.04,0,1.95-.28,2.73-.83s1.39-1.34,1.83-2.35.66-2.19.66-3.53v-.02c0-1.35-.22-2.52-.66-3.52s-1.05-1.77-1.84-2.32-1.69-.83-2.72-.83-2.02.27-2.81.82-1.41,1.32-1.84,2.31-.64,2.17-.64,3.53v.02c0,1.38.21,2.58.64,3.58s1.04,1.78,1.84,2.32,1.73.82,2.81.82Z"/><path class="aq" d="M253.29,354.72c-1.72,0-3.22-.39-4.49-1.17s-2.25-1.88-2.94-3.3-1.04-3.1-1.04-5.04v-.02c0-1.92.35-3.59,1.05-5.01s1.69-2.51,2.95-3.29,2.74-1.16,4.43-1.16c1.52,0,2.83.3,3.92.89s1.95,1.36,2.58,2.29,1,1.93,1.13,2.97l.02.14h-2.99l-.04-.14c-.22-.91-.71-1.72-1.47-2.41s-1.81-1.04-3.16-1.04c-1.05,0-1.98.28-2.78.83s-1.42,1.34-1.86,2.36-.67,2.21-.67,3.59v.02c0,1.42.23,2.63.68,3.64s1.08,1.78,1.88,2.32,1.73.81,2.79.81c1.25,0,2.27-.32,3.05-.96s1.3-1.47,1.56-2.49l.04-.14h3.01l-.02.12c-.16,1.16-.59,2.21-1.27,3.14s-1.57,1.67-2.65,2.21-2.32.82-3.7.82Z"/><path class="aq" d="M271.32,354.72c-1.69,0-3.17-.39-4.44-1.16s-2.26-1.87-2.97-3.3-1.06-3.1-1.06-5.04v-.04c0-1.95.35-3.62,1.06-5.04s1.7-2.5,2.97-3.27,2.75-1.15,4.42-1.15,3.17.38,4.44,1.15,2.26,1.86,2.97,3.27,1.06,3.09,1.06,5.04v.04c0,1.95-.35,3.63-1.06,5.04s-1.7,2.51-2.96,3.29-2.74,1.16-4.43,1.16ZM271.34,352.01c1.08,0,2.01-.27,2.8-.8s1.41-1.31,1.85-2.32.66-2.24.66-3.67v-.04c0-1.43-.22-2.65-.66-3.66s-1.06-1.78-1.86-2.3-1.74-.79-2.82-.79-1.98.27-2.79.8-1.43,1.3-1.87,2.3-.67,2.22-.67,3.65v.04c0,1.43.22,2.65.67,3.67s1.07,1.79,1.87,2.32,1.74.8,2.82.8Z"/><path class="aq" d="M282.85,354.37v-18.28h3.06v2.6h.07c.49-.86,1.21-1.56,2.14-2.12s2.1-.83,3.48-.83c2,0,3.56.61,4.67,1.82s1.66,2.86,1.66,4.95v11.87h-3.06v-11.32c0-1.49-.35-2.63-1.05-3.42s-1.75-1.19-3.16-1.19c-.96,0-1.8.21-2.51.64s-1.27,1.03-1.66,1.8-.59,1.68-.59,2.72v10.76h-3.06Z"/><path class="aq" d="M306.97,354.37l-6.73-18.28h3.22l5.04,15.03h.07l5.06-15.03h3.18l-6.71,18.28h-3.13Z"/><path class="aq" d="M326.02,354.72c-1.75,0-3.25-.39-4.51-1.16s-2.23-1.87-2.9-3.28-1.01-3.07-1.01-4.98v-.02c0-1.89.34-3.55,1.02-4.98s1.63-2.55,2.87-3.36,2.68-1.2,4.34-1.2,3.1.38,4.3,1.15,2.12,1.84,2.77,3.23.97,2.99.97,4.82v1.12h-14.73v-2.39h13.22l-1.55,2.21v-1.18c0-1.42-.21-2.59-.64-3.52s-1.02-1.61-1.77-2.07-1.61-.68-2.58-.68-1.85.24-2.62.71-1.38,1.18-1.83,2.11-.67,2.08-.67,3.44v1.18c0,1.29.22,2.39.66,3.3s1.06,1.61,1.87,2.1,1.76.73,2.87.73c.77,0,1.46-.12,2.07-.35s1.12-.56,1.53-.97.7-.88.88-1.41l.05-.16h3.01l-.04.18c-.15.75-.44,1.45-.87,2.11s-.98,1.23-1.64,1.73-1.43.88-2.29,1.16-1.78.41-2.78.41Z"/><path class="aq" d="M336.94,354.37v-18.28h3.06v3.09h.07c.3-1.05.83-1.89,1.58-2.51s1.64-.93,2.67-.93c.27,0,.51.01.73.04s.38.06.5.08v2.97c-.12-.05-.33-.09-.62-.12s-.64-.05-1.01-.05c-.79,0-1.47.18-2.07.53s-1.05.86-1.37,1.52-.48,1.46-.48,2.38v11.29h-3.06Z"/><path class="aq" d="M354.52,354.72c-1.43,0-2.67-.23-3.71-.69s-1.87-1.1-2.47-1.92-.97-1.78-1.1-2.87l-.02-.16h3.06l.04.18c.19.91.63,1.63,1.32,2.14s1.66.76,2.9.76c.83,0,1.54-.11,2.13-.33s1.04-.53,1.35-.93.47-.88.47-1.43v-.02c0-.66-.2-1.18-.6-1.58s-1.12-.73-2.16-.98l-2.9-.7c-1.15-.28-2.1-.65-2.86-1.1s-1.32-1-1.7-1.66-.56-1.42-.56-2.3v-.02c0-1.05.28-1.99.85-2.79s1.36-1.44,2.37-1.9,2.18-.69,3.49-.69,2.5.24,3.49.71,1.77,1.12,2.34,1.93.89,1.73.96,2.75l.02.23h-2.92l-.02-.12c-.12-.89-.51-1.61-1.17-2.14s-1.56-.81-2.7-.81c-.74,0-1.38.11-1.92.33s-.95.54-1.24.94-.43.88-.43,1.42v.02c0,.41.1.78.29,1.12s.5.62.92.87.97.45,1.63.62l2.9.7c1.85.45,3.15,1.06,3.9,1.84s1.12,1.82,1.12,3.12v.02c0,1.07-.31,2.01-.92,2.83s-1.46,1.46-2.53,1.92-2.29.69-3.65.69Z"/><path class="aq" d="M370.13,354.72c-1.21,0-2.27-.23-3.18-.69s-1.63-1.1-2.14-1.93-.76-1.8-.76-2.9v-.04c0-1.04.26-1.95.78-2.71s1.28-1.37,2.27-1.81,2.18-.71,3.58-.79l6.77-.39v2.37l-6.42.39c-1.22.07-2.17.36-2.84.88s-1.01,1.2-1.01,2.06v.04c0,.88.33,1.58.99,2.09s1.54.77,2.65.77c.96,0,1.83-.2,2.59-.61s1.38-.96,1.83-1.66.68-1.49.68-2.37v-5.4c0-1.11-.35-1.99-1.05-2.63s-1.68-.96-2.96-.96c-1.17,0-2.12.25-2.84.76s-1.17,1.17-1.34,2l-.04.16h-2.95l.02-.19c.09-1.01.44-1.92,1.03-2.74s1.41-1.47,2.45-1.96,2.28-.73,3.71-.73,2.69.25,3.74.74,1.86,1.19,2.43,2.08.86,1.95.86,3.17v12.64h-3.06v-2.97h-.07c-.35.67-.82,1.25-1.41,1.75s-1.25.88-1.98,1.16-1.51.41-2.33.41Z"/><path class="aq" d="M388.79,354.72c-1.68,0-2.93-.4-3.76-1.2s-1.25-2.07-1.25-3.81v-11.09h-2.67v-2.53h2.67v-4.94h3.16v4.94h3.48v2.53h-3.48v11.07c0,.97.21,1.63.63,1.98s1.04.52,1.86.52c.19,0,.37,0,.54-.03s.32-.03.45-.04v2.48c-.19.02-.43.05-.73.08s-.6.04-.91.04Z"/><path class="aq" d="M395.42,332.99c-.53,0-.98-.19-1.35-.56s-.56-.83-.56-1.35.19-.99.56-1.36.83-.55,1.35-.55.99.18,1.36.55.55.82.55,1.36-.18.98-.55,1.35-.82.56-1.36.56ZM393.89,354.37v-18.28h3.06v18.28h-3.06Z"/><path class="aq" d="M408.69,354.72c-1.69,0-3.17-.39-4.44-1.16s-2.26-1.87-2.97-3.3-1.06-3.1-1.06-5.04v-.04c0-1.95.35-3.62,1.06-5.04s1.7-2.5,2.97-3.27,2.75-1.15,4.42-1.15,3.17.38,4.44,1.15,2.26,1.86,2.97,3.27,1.06,3.09,1.06,5.04v.04c0,1.95-.35,3.63-1.06,5.04s-1.7,2.51-2.96,3.29-2.74,1.16-4.43,1.16ZM408.71,352.01c1.08,0,2.01-.27,2.8-.8s1.41-1.31,1.85-2.32.66-2.24.66-3.67v-.04c0-1.43-.22-2.65-.66-3.66s-1.06-1.78-1.86-2.3-1.74-.79-2.82-.79-1.98.27-2.79.8-1.43,1.3-1.87,2.3-.67,2.22-.67,3.65v.04c0,1.43.22,2.65.67,3.67s1.07,1.79,1.87,2.32,1.74.8,2.82.8Z"/><path class="aq" d="M420.22,354.37v-18.28h3.06v2.6h.07c.49-.86,1.21-1.56,2.14-2.12s2.1-.83,3.48-.83c2,0,3.56.61,4.67,1.82s1.66,2.86,1.66,4.95v11.87h-3.06v-11.32c0-1.49-.35-2.63-1.05-3.42s-1.75-1.19-3.16-1.19c-.96,0-1.8.21-2.51.64s-1.27,1.03-1.66,1.8-.59,1.68-.59,2.72v10.76h-3.06Z"/><path class="aq" d="M88.47,399.72c-1.43,0-2.67-.23-3.71-.69s-1.87-1.1-2.47-1.92-.97-1.78-1.1-2.87l-.02-.16h3.06l.04.18c.19.91.63,1.63,1.32,2.14s1.66.76,2.9.76c.83,0,1.54-.11,2.13-.33s1.04-.53,1.35-.93.47-.88.47-1.43v-.02c0-.66-.2-1.18-.6-1.58s-1.12-.73-2.16-.98l-2.9-.7c-1.15-.28-2.1-.65-2.86-1.1s-1.32-1-1.7-1.66-.56-1.42-.56-2.3v-.02c0-1.05.28-1.99.85-2.79s1.36-1.44,2.37-1.9,2.18-.69,3.49-.69,2.5.24,3.49.71,1.77,1.12,2.34,1.93.89,1.73.96,2.75l.02.23h-2.92l-.02-.12c-.12-.89-.51-1.61-1.17-2.14s-1.56-.81-2.7-.81c-.74,0-1.38.11-1.92.33s-.95.54-1.24.94-.43.88-.43,1.42v.02c0,.41.1.78.29,1.12s.5.62.92.87.97.45,1.63.62l2.9.7c1.85.45,3.15,1.06,3.9,1.84s1.12,1.82,1.12,3.12v.02c0,1.07-.31,2.01-.92,2.83s-1.46,1.46-2.53,1.92-2.29.69-3.65.69Z"/><path class="aq" d="M104.68,399.72c-1.68,0-2.93-.4-3.76-1.2s-1.25-2.07-1.25-3.81v-11.09h-2.67v-2.53h2.67v-4.94h3.16v4.94h3.48v2.53h-3.48v11.07c0,.97.21,1.63.63,1.98s1.04.52,1.86.52c.19,0,.37,0,.54-.03s.32-.03.45-.04v2.48c-.19.02-.43.05-.73.08s-.6.04-.91.04Z"/><path class="aq" d="M114.58,399.72c-1.21,0-2.27-.23-3.18-.69s-1.63-1.1-2.14-1.93-.76-1.8-.76-2.9v-.04c0-1.04.26-1.95.78-2.71s1.28-1.37,2.27-1.81,2.18-.71,3.58-.79l6.77-.39v2.37l-6.42.39c-1.22.07-2.17.36-2.84.88s-1.01,1.2-1.01,2.06v.04c0,.88.33,1.58.99,2.09s1.54.77,2.65.77c.96,0,1.83-.2,2.59-.61s1.38-.96,1.83-1.66.68-1.49.68-2.37v-5.4c0-1.11-.35-1.99-1.05-2.63s-1.68-.96-2.96-.96c-1.17,0-2.12.25-2.84.76s-1.17,1.17-1.34,2l-.04.16h-2.95l.02-.19c.09-1.01.44-1.92,1.03-2.74s1.41-1.47,2.45-1.96,2.28-.73,3.71-.73,2.69.25,3.74.74,1.86,1.19,2.43,2.08.86,1.95.86,3.17v12.64h-3.06v-2.97h-.07c-.35.67-.82,1.25-1.41,1.75s-1.25.88-1.98,1.16-1.51.41-2.33.41Z"/><path class="aq" d="M133.24,399.72c-1.68,0-2.93-.4-3.76-1.2s-1.25-2.07-1.25-3.81v-11.09h-2.67v-2.53h2.67v-4.94h3.16v4.94h3.48v2.53h-3.48v11.07c0,.97.21,1.63.63,1.98s1.04.52,1.86.52c.19,0,.37,0,.54-.03s.32-.03.45-.04v2.48c-.19.02-.43.05-.73.08s-.6.04-.91.04Z"/><path class="aq" d="M145.14,399.72c-1.75,0-3.25-.39-4.51-1.16s-2.23-1.87-2.9-3.28-1.01-3.07-1.01-4.98v-.02c0-1.89.34-3.55,1.02-4.98s1.63-2.55,2.87-3.36,2.68-1.2,4.34-1.2,3.1.38,4.3,1.15,2.12,1.84,2.77,3.23.97,2.99.97,4.82v1.12h-14.73v-2.39h13.22l-1.55,2.21v-1.18c0-1.42-.21-2.59-.64-3.52s-1.02-1.61-1.77-2.07-1.61-.68-2.58-.68-1.85.24-2.62.71-1.38,1.18-1.83,2.11-.67,2.08-.67,3.44v1.18c0,1.29.22,2.39.66,3.3s1.06,1.61,1.87,2.1,1.76.73,2.87.73c.77,0,1.46-.12,2.07-.35s1.12-.56,1.53-.97.7-.88.88-1.41l.05-.16h3.01l-.04.18c-.15.75-.44,1.45-.87,2.11s-.98,1.23-1.64,1.73-1.43.88-2.29,1.16-1.78.41-2.78.41Z"/><path class="aq" d="M162.55,399.72c-1.43,0-2.67-.23-3.71-.69s-1.87-1.1-2.47-1.92-.97-1.78-1.1-2.87l-.02-.16h3.06l.04.18c.19.91.63,1.63,1.32,2.14s1.66.76,2.9.76c.83,0,1.54-.11,2.13-.33s1.04-.53,1.35-.93.47-.88.47-1.43v-.02c0-.66-.2-1.18-.6-1.58s-1.12-.73-2.16-.98l-2.9-.7c-1.15-.28-2.1-.65-2.86-1.1s-1.32-1-1.7-1.66-.56-1.42-.56-2.3v-.02c0-1.05.28-1.99.85-2.79s1.36-1.44,2.37-1.9,2.18-.69,3.49-.69,2.5.24,3.49.71,1.77,1.12,2.34,1.93.89,1.73.96,2.75l.02.23h-2.92l-.02-.12c-.12-.89-.51-1.61-1.17-2.14s-1.56-.81-2.7-.81c-.74,0-1.38.11-1.92.33s-.95.54-1.24.94-.43.88-.43,1.42v.02c0,.41.1.78.29,1.12s.5.62.92.87.97.45,1.63.62l2.9.7c1.85.45,3.15,1.06,3.9,1.84s1.12,1.82,1.12,3.12v.02c0,1.07-.31,2.01-.92,2.83s-1.46,1.46-2.53,1.92-2.29.69-3.65.69Z"/><path class="aq" d="M183.82,399.37l-5.12-18.28h3.04l3.66,14.87h.07l4.13-14.87h2.95l4.15,14.87h.07l3.66-14.87h3.02l-5.1,18.28h-3.11l-4.13-14.15h-.07l-4.11,14.15h-3.11Z"/><path class="aq" d="M207.67,377.99c-.53,0-.98-.19-1.35-.56s-.56-.83-.56-1.35.19-.99.56-1.36.83-.55,1.35-.55.99.18,1.36.55.55.82.55,1.36-.18.98-.55,1.35-.82.56-1.36.56ZM206.14,399.37v-18.28h3.06v18.28h-3.06Z"/><path class="aq" d="M219.31,399.72c-1.68,0-2.93-.4-3.76-1.2s-1.25-2.07-1.25-3.81v-11.09h-2.67v-2.53h2.67v-4.94h3.16v4.94h3.48v2.53h-3.48v11.07c0,.97.21,1.63.63,1.98s1.04.52,1.86.52c.19,0,.37,0,.54-.03s.32-.03.45-.04v2.48c-.19.02-.43.05-.73.08s-.6.04-.91.04Z"/><path class="aq" d="M224.37,399.37v-25.37h3.06v10h.07c.49-1.03,1.22-1.83,2.2-2.41s2.14-.86,3.5-.86,2.44.31,3.42.94,1.74,1.5,2.29,2.61.83,2.41.83,3.88v11.2h-3.06v-10.67c0-1.65-.4-2.94-1.2-3.87s-1.91-1.39-3.34-1.39c-.94,0-1.76.22-2.47.67s-1.26,1.06-1.65,1.85-.59,1.7-.59,2.74v10.67h-3.06Z"/><path class="aq" d="M262.11,399.79c-1.77,0-3.37-.31-4.8-.92s-2.65-1.5-3.67-2.66-1.79-2.55-2.34-4.18-.82-3.45-.82-5.47v-.02c0-2.65.48-4.94,1.43-6.87s2.3-3.43,4.04-4.49,3.79-1.59,6.14-1.59c1.95,0,3.63.34,5.05,1.03s2.59,1.62,3.51,2.79,1.56,2.52,1.95,4.02l.09.33h-3.32l-.07-.19c-.59-1.61-1.49-2.85-2.71-3.74s-2.72-1.33-4.5-1.33-3.23.4-4.48,1.2-2.22,1.95-2.89,3.45-1.01,3.29-1.01,5.38v.02c0,1.59.19,3.03.58,4.3s.95,2.36,1.68,3.25,1.61,1.58,2.65,2.06,2.19.71,3.48.71c1.5,0,2.82-.3,3.96-.91s2.03-1.44,2.67-2.52.96-2.33.96-3.74v-.46h-7.15v-2.78h10.32v2.41c0,1.71-.24,3.24-.73,4.59s-1.19,2.49-2.12,3.44-2.05,1.66-3.38,2.15-2.84.74-4.53.74Z"/><path class="aq" d="M283.96,399.72c-1.75,0-3.25-.39-4.51-1.16s-2.23-1.87-2.9-3.28-1.01-3.07-1.01-4.98v-.02c0-1.89.34-3.55,1.02-4.98s1.63-2.55,2.87-3.36,2.68-1.2,4.34-1.2,3.1.38,4.3,1.15,2.12,1.84,2.77,3.23.97,2.99.97,4.82v1.12h-14.73v-2.39h13.22l-1.55,2.21v-1.18c0-1.42-.21-2.59-.64-3.52s-1.02-1.61-1.77-2.07-1.61-.68-2.58-.68-1.85.24-2.62.71-1.38,1.18-1.83,2.11-.67,2.08-.67,3.44v1.18c0,1.29.22,2.39.66,3.3s1.06,1.61,1.87,2.1,1.76.73,2.87.73c.77,0,1.46-.12,2.07-.35s1.12-.56,1.53-.97.7-.88.88-1.41l.05-.16h3.01l-.04.18c-.15.75-.44,1.45-.87,2.11s-.98,1.23-1.64,1.73-1.43.88-2.29,1.16-1.78.41-2.78.41Z"/><path class="aq" d="M294.88,399.37v-18.28h3.06v2.6h.07c.49-.86,1.21-1.56,2.14-2.12s2.1-.83,3.48-.83c2,0,3.56.61,4.67,1.82s1.66,2.86,1.66,4.95v11.87h-3.06v-11.32c0-1.49-.35-2.63-1.05-3.42s-1.75-1.19-3.16-1.19c-.96,0-1.8.21-2.51.64s-1.27,1.03-1.66,1.8-.59,1.68-.59,2.72v10.76h-3.06Z"/><path class="aq" d="M321.37,399.72c-1.75,0-3.25-.39-4.51-1.16s-2.23-1.87-2.9-3.28-1.01-3.07-1.01-4.98v-.02c0-1.89.34-3.55,1.02-4.98s1.63-2.55,2.87-3.36,2.68-1.2,4.34-1.2,3.1.38,4.3,1.15,2.12,1.84,2.77,3.23.97,2.99.97,4.82v1.12h-14.73v-2.39h13.22l-1.55,2.21v-1.18c0-1.42-.21-2.59-.64-3.52s-1.02-1.61-1.77-2.07-1.61-.68-2.58-.68-1.85.24-2.62.71-1.38,1.18-1.83,2.11-.67,2.08-.67,3.44v1.18c0,1.29.22,2.39.66,3.3s1.06,1.61,1.87,2.1,1.76.73,2.87.73c.77,0,1.46-.12,2.07-.35s1.12-.56,1.53-.97.7-.88.88-1.41l.05-.16h3.01l-.04.18c-.15.75-.44,1.45-.87,2.11s-.98,1.23-1.64,1.73-1.43.88-2.29,1.16-1.78.41-2.78.41Z"/><path class="aq" d="M332.28,399.37v-18.28h3.06v3.09h.07c.3-1.05.83-1.89,1.58-2.51s1.64-.93,2.67-.93c.27,0,.51.01.73.04s.38.06.5.08v2.97c-.12-.05-.33-.09-.62-.12s-.64-.05-1.01-.05c-.79,0-1.47.18-2.07.53s-1.05.86-1.37,1.52-.48,1.46-.48,2.38v11.29h-3.06Z"/><path class="aq" d="M348.37,399.72c-1.21,0-2.27-.23-3.18-.69s-1.63-1.1-2.14-1.93-.76-1.8-.76-2.9v-.04c0-1.04.26-1.95.78-2.71s1.28-1.37,2.27-1.81,2.18-.71,3.58-.79l6.77-.39v2.37l-6.42.39c-1.22.07-2.17.36-2.84.88s-1.01,1.2-1.01,2.06v.04c0,.88.33,1.58.99,2.09s1.54.77,2.65.77c.96,0,1.83-.2,2.59-.61s1.38-.96,1.83-1.66.68-1.49.68-2.37v-5.4c0-1.11-.35-1.99-1.05-2.63s-1.68-.96-2.96-.96c-1.17,0-2.12.25-2.84.76s-1.17,1.17-1.34,2l-.04.16h-2.95l.02-.19c.09-1.01.44-1.92,1.03-2.74s1.41-1.47,2.45-1.96,2.28-.73,3.71-.73,2.69.25,3.74.74,1.86,1.19,2.43,2.08.86,1.95.86,3.17v12.64h-3.06v-2.97h-.07c-.35.67-.82,1.25-1.41,1.75s-1.25.88-1.98,1.16-1.51.41-2.33.41Z"/><path class="aq" d="M367.03,399.72c-1.68,0-2.93-.4-3.76-1.2s-1.25-2.07-1.25-3.81v-11.09h-2.67v-2.53h2.67v-4.94h3.16v4.94h3.48v2.53h-3.48v11.07c0,.97.21,1.63.63,1.98s1.04.52,1.86.52c.19,0,.37,0,.54-.03s.32-.03.45-.04v2.48c-.19.02-.43.05-.73.08s-.6.04-.91.04Z"/><path class="aq" d="M373.66,377.99c-.53,0-.98-.19-1.35-.56s-.56-.83-.56-1.35.19-.99.56-1.36.83-.55,1.35-.55.99.18,1.36.55.55.82.55,1.36-.18.98-.55,1.35-.82.56-1.36.56ZM372.13,399.37v-18.28h3.06v18.28h-3.06Z"/><path class="aq" d="M384.51,399.37l-6.73-18.28h3.22l5.04,15.03h.07l5.06-15.03h3.18l-6.71,18.28h-3.13Z"/><path class="aq" d="M403.56,399.72c-1.75,0-3.25-.39-4.51-1.16s-2.23-1.87-2.9-3.28-1.01-3.07-1.01-4.98v-.02c0-1.89.34-3.55,1.02-4.98s1.63-2.55,2.87-3.36,2.68-1.2,4.34-1.2,3.1.38,4.3,1.15,2.12,1.84,2.77,3.23.97,2.99.97,4.82v1.12h-14.73v-2.39h13.22l-1.55,2.21v-1.18c0-1.42-.21-2.59-.64-3.52s-1.02-1.61-1.77-2.07-1.61-.68-2.58-.68-1.85.24-2.62.71-1.38,1.18-1.83,2.11-.67,2.08-.67,3.44v1.18c0,1.29.22,2.39.66,3.3s1.06,1.61,1.87,2.1,1.76.73,2.87.73c.77,0,1.46-.12,2.07-.35s1.12-.56,1.53-.97.7-.88.88-1.41l.05-.16h3.01l-.04.18c-.15.75-.44,1.45-.87,2.11s-.98,1.23-1.64,1.73-1.43.88-2.29,1.16-1.78.41-2.78.41Z"/><path class="aq" d="M420.31,399.37l9.44-25.37h2.34v3.8h-.81l-7.65,21.57h-3.32ZM424.64,392.11l1.05-2.69h11.25l1.05,2.69h-13.36ZM438.98,399.37l-7.63-21.57v-3.8h1.53l9.42,25.37h-3.32Z"/><path class="aq" d="M445.2,399.37v-25.37h3.16v25.37h-3.16Z"/><path class="aq" d="M87.33,444.72c-1.21,0-2.27-.23-3.18-.69s-1.63-1.1-2.14-1.93-.76-1.8-.76-2.9v-.04c0-1.04.26-1.95.78-2.71s1.28-1.37,2.27-1.81,2.18-.71,3.58-.79l6.77-.39v2.37l-6.42.39c-1.22.07-2.17.36-2.84.88s-1.01,1.2-1.01,2.06v.04c0,.88.33,1.58.99,2.09s1.54.77,2.65.77c.96,0,1.83-.2,2.59-.61s1.38-.96,1.83-1.66.68-1.49.68-2.37v-5.4c0-1.11-.35-1.99-1.05-2.63s-1.68-.96-2.96-.96c-1.17,0-2.12.25-2.84.76s-1.17,1.17-1.34,2l-.04.16h-2.95l.02-.19c.09-1.01.44-1.92,1.03-2.74s1.41-1.47,2.45-1.96,2.28-.73,3.71-.73,2.69.25,3.74.74,1.86,1.19,2.43,2.08.86,1.95.86,3.17v12.64h-3.06v-2.97h-.07c-.35.67-.82,1.25-1.41,1.75s-1.25.88-1.98,1.16-1.51.41-2.33.41Z"/><path class="aq" d="M100.06,444.37v-18.28h3.06v2.6h.07c.49-.86,1.21-1.56,2.14-2.12s2.1-.83,3.48-.83c2,0,3.56.61,4.67,1.82s1.66,2.86,1.66,4.95v11.87h-3.06v-11.32c0-1.49-.35-2.63-1.05-3.42s-1.75-1.19-3.16-1.19c-.96,0-1.8.21-2.51.64s-1.27,1.03-1.66,1.8-.59,1.68-.59,2.72v10.76h-3.06Z"/><path class="aq" d="M125.9,444.72c-1.56,0-2.92-.39-4.09-1.17s-2.07-1.88-2.72-3.3-.97-3.1-.97-5.02v-.02c0-1.92.33-3.59.98-5.01s1.56-2.52,2.72-3.3,2.5-1.17,4.03-1.17c.87,0,1.67.14,2.42.41s1.41.67,2,1.18,1.07,1.12,1.44,1.82h.07v-10.14h3.06v25.37h-3.06v-3.09h-.07c-.38.71-.85,1.33-1.42,1.84s-1.23.91-1.96,1.19-1.54.42-2.42.42ZM126.49,442.01c1.03,0,1.95-.28,2.74-.84s1.42-1.35,1.87-2.37.68-2.21.68-3.57v-.02c0-1.36-.23-2.55-.69-3.56s-1.08-1.8-1.87-2.36-1.7-.84-2.73-.84-2.01.28-2.79.83-1.39,1.33-1.81,2.34-.63,2.21-.63,3.6v.02c0,1.39.21,2.6.63,3.62s1.03,1.8,1.81,2.35,1.72.82,2.79.82Z"/><path class="aq" d="M151.68,444.72c-1.21,0-2.27-.23-3.18-.69s-1.63-1.1-2.14-1.93-.76-1.8-.76-2.9v-.04c0-1.04.26-1.95.78-2.71s1.28-1.37,2.27-1.81,2.18-.71,3.58-.79l6.77-.39v2.37l-6.42.39c-1.22.07-2.17.36-2.84.88s-1.01,1.2-1.01,2.06v.04c0,.88.33,1.58.99,2.09s1.54.77,2.65.77c.96,0,1.83-.2,2.59-.61s1.38-.96,1.83-1.66.68-1.49.68-2.37v-5.4c0-1.11-.35-1.99-1.05-2.63s-1.68-.96-2.96-.96c-1.17,0-2.12.25-2.84.76s-1.17,1.17-1.34,2l-.04.16h-2.95l.02-.19c.09-1.01.44-1.92,1.03-2.74s1.41-1.47,2.45-1.96,2.28-.73,3.71-.73,2.69.25,3.74.74,1.86,1.19,2.43,2.08.86,1.95.86,3.17v12.64h-3.06v-2.97h-.07c-.35.67-.82,1.25-1.41,1.75s-1.25.88-1.98,1.16-1.51.41-2.33.41Z"/><path class="aq" d="M171.28,444.72c-1.56,0-2.92-.39-4.09-1.17s-2.07-1.88-2.72-3.3-.97-3.1-.97-5.02v-.02c0-1.92.33-3.59.98-5.01s1.56-2.52,2.72-3.3,2.5-1.17,4.03-1.17c.87,0,1.67.14,2.42.41s1.41.67,2,1.18,1.07,1.12,1.44,1.82h.07v-10.14h3.06v25.37h-3.06v-3.09h-.07c-.38.71-.85,1.33-1.42,1.84s-1.23.91-1.96,1.19-1.54.42-2.42.42ZM171.88,442.01c1.03,0,1.95-.28,2.74-.84s1.42-1.35,1.87-2.37.68-2.21.68-3.57v-.02c0-1.36-.23-2.55-.69-3.56s-1.08-1.8-1.87-2.36-1.7-.84-2.73-.84-2.01.28-2.79.83-1.39,1.33-1.81,2.34-.63,2.21-.63,3.6v.02c0,1.39.21,2.6.63,3.62s1.03,1.8,1.81,2.35,1.72.82,2.79.82Z"/><path class="aq" d="M181.9,450.54h-.29c-.1,0-.2,0-.29-.02v-2.69h.47c1,0,1.7-.19,2.1-.56s.61-1.07.61-2.09v-19.09h3.06v19.05c0,1.85-.45,3.21-1.36,4.09s-2.34,1.31-4.3,1.31ZM186.03,422.99c-.53,0-.98-.19-1.35-.56s-.56-.83-.56-1.35.19-.99.56-1.36.83-.55,1.35-.55.99.18,1.36.55.55.82.55,1.36-.18.98-.55,1.35-.82.56-1.36.56Z"/><path class="aq" d="M197.97,444.72c-1.34,0-2.48-.28-3.42-.83s-1.66-1.33-2.16-2.35-.75-2.21-.75-3.59v-11.87h3.06v11.32c0,1.49.35,2.63,1.05,3.42s1.75,1.19,3.16,1.19c.73,0,1.38-.12,1.96-.37s1.08-.59,1.5-1.05.74-1,.97-1.63.33-1.34.33-2.12v-10.76h3.06v18.28h-3.06v-2.6h-.07c-.33.56-.75,1.07-1.27,1.51s-1.15.8-1.87,1.05-1.55.39-2.48.39Z"/><path class="aq" d="M217.18,444.72c-1.43,0-2.67-.23-3.71-.69s-1.87-1.1-2.47-1.92-.97-1.78-1.1-2.87l-.02-.16h3.06l.04.18c.19.91.63,1.63,1.32,2.14s1.66.76,2.9.76c.83,0,1.54-.11,2.13-.33s1.04-.53,1.35-.93.47-.88.47-1.43v-.02c0-.66-.2-1.18-.6-1.58s-1.12-.73-2.16-.98l-2.9-.7c-1.15-.28-2.1-.65-2.86-1.1s-1.32-1-1.7-1.66-.56-1.42-.56-2.3v-.02c0-1.05.28-1.99.85-2.79s1.36-1.44,2.37-1.9,2.18-.69,3.49-.69,2.5.24,3.49.71,1.77,1.12,2.34,1.93.89,1.73.96,2.75l.02.23h-2.92l-.02-.12c-.12-.89-.51-1.61-1.17-2.14s-1.56-.81-2.7-.81c-.74,0-1.38.11-1.92.33s-.95.54-1.24.94-.43.88-.43,1.42v.02c0,.41.1.78.29,1.12s.5.62.92.87.97.45,1.63.62l2.9.7c1.85.45,3.15,1.06,3.9,1.84s1.12,1.82,1.12,3.12v.02c0,1.07-.31,2.01-.92,2.83s-1.46,1.46-2.53,1.92-2.29.69-3.65.69Z"/><path class="aq" d="M233.39,444.72c-1.68,0-2.93-.4-3.76-1.2s-1.25-2.07-1.25-3.81v-11.09h-2.67v-2.53h2.67v-4.94h3.16v4.94h3.48v2.53h-3.48v11.07c0,.97.21,1.63.63,1.98s1.04.52,1.86.52c.19,0,.37,0,.54-.03s.32-.03.45-.04v2.48c-.19.02-.43.05-.73.08s-.6.04-.91.04Z"/><path class="aq" d="M240.01,422.99c-.53,0-.98-.19-1.35-.56s-.56-.83-.56-1.35.19-.99.56-1.36.83-.55,1.35-.55.99.18,1.36.55.55.82.55,1.36-.18.98-.55,1.35-.82.56-1.36.56ZM238.48,444.37v-18.28h3.06v18.28h-3.06Z"/><path class="aq" d="M245.71,444.37v-18.28h3.06v2.6h.07c.49-.86,1.21-1.56,2.14-2.12s2.1-.83,3.48-.83c2,0,3.56.61,4.67,1.82s1.66,2.86,1.66,4.95v11.87h-3.06v-11.32c0-1.49-.35-2.63-1.05-3.42s-1.75-1.19-3.16-1.19c-.96,0-1.8.21-2.51.64s-1.27,1.03-1.66,1.8-.59,1.68-.59,2.72v10.76h-3.06Z"/><path class="aq" d="M272.41,450.87c-1.5,0-2.81-.21-3.93-.64s-2.02-1.01-2.71-1.74-1.13-1.55-1.33-2.45l-.04-.16h3.08l.07.16c.29.66.86,1.17,1.7,1.56s1.88.57,3.12.57c1.61,0,2.85-.41,3.73-1.24s1.32-1.95,1.32-3.37v-2.34h-.07c-.36.68-.83,1.27-1.41,1.76s-1.23.88-1.98,1.15-1.56.41-2.43.41c-1.54,0-2.89-.39-4.05-1.17s-2.07-1.88-2.72-3.29-.98-3.07-.98-4.97v-.02c0-1.9.33-3.55.99-4.95s1.58-2.49,2.75-3.26,2.53-1.16,4.08-1.16c.87,0,1.66.15,2.39.44s1.37.7,1.94,1.21,1.04,1.11,1.42,1.79h.07v-3.09h3.06v17.77c0,1.42-.33,2.65-.98,3.7s-1.59,1.86-2.79,2.44-2.64.87-4.29.87ZM272.2,441.83c1.04,0,1.95-.28,2.73-.83s1.39-1.34,1.83-2.35.66-2.19.66-3.53v-.02c0-1.35-.22-2.52-.66-3.52s-1.05-1.77-1.84-2.32-1.69-.83-2.72-.83-2.02.27-2.81.82-1.41,1.32-1.84,2.31-.64,2.17-.64,3.53v.02c0,1.38.21,2.58.64,3.58s1.04,1.78,1.84,2.32,1.73.82,2.81.82Z"/><path class="aq" d="M291.82,450.52v-24.43h3.06v3.09h.07c.39-.71.86-1.33,1.43-1.84s1.22-.91,1.96-1.19,1.54-.42,2.41-.42c1.56,0,2.92.39,4.09,1.17s2.07,1.88,2.72,3.3.97,3.1.97,5.02v.02c0,1.92-.33,3.59-.98,5.01s-1.55,2.52-2.71,3.3-2.5,1.17-4.03,1.17c-.86,0-1.66-.14-2.41-.41s-1.42-.67-2-1.18-1.06-1.12-1.45-1.82h-.07v9.21h-3.06ZM300.15,442.01c1.08,0,2.01-.28,2.79-.83s1.39-1.33,1.81-2.35.63-2.21.63-3.59v-.02c0-1.41-.21-2.62-.63-3.63s-1.03-1.79-1.81-2.34-1.72-.82-2.79-.82-1.95.28-2.74.84-1.42,1.35-1.87,2.36-.68,2.21-.68,3.58v.02c0,1.36.23,2.55.69,3.56s1.08,1.8,1.87,2.36,1.7.84,2.73.84Z"/><path class="aq" d="M311.59,444.37v-18.28h3.06v3.09h.07c.3-1.05.83-1.89,1.58-2.51s1.64-.93,2.67-.93c.27,0,.51.01.73.04s.38.06.5.08v2.97c-.12-.05-.33-.09-.62-.12s-.64-.05-1.01-.05c-.79,0-1.47.18-2.07.53s-1.05.86-1.37,1.52-.48,1.46-.48,2.38v11.29h-3.06Z"/><path class="aq" d="M329.38,444.72c-1.69,0-3.17-.39-4.44-1.16s-2.26-1.87-2.97-3.3-1.06-3.1-1.06-5.04v-.04c0-1.95.35-3.62,1.06-5.04s1.7-2.5,2.97-3.27,2.75-1.15,4.42-1.15,3.17.38,4.44,1.15,2.26,1.86,2.97,3.27,1.06,3.09,1.06,5.04v.04c0,1.95-.35,3.63-1.06,5.04s-1.7,2.51-2.96,3.29-2.74,1.16-4.43,1.16ZM329.4,442.01c1.08,0,2.01-.27,2.8-.8s1.41-1.31,1.85-2.32.66-2.24.66-3.67v-.04c0-1.43-.22-2.65-.66-3.66s-1.06-1.78-1.86-2.3-1.74-.79-2.82-.79-1.98.27-2.79.8-1.43,1.3-1.87,2.3-.67,2.22-.67,3.65v.04c0,1.43.22,2.65.67,3.67s1.07,1.79,1.87,2.32,1.74.8,2.82.8Z"/><path class="aq" d="M340.91,444.37v-18.28h3.06v2.67h.07c.41-.9,1.05-1.63,1.93-2.19s1.9-.83,3.08-.83c.83,0,1.58.14,2.26.41s1.26.67,1.75,1.2.87,1.16,1.12,1.91h.07c.34-.74.79-1.37,1.36-1.89s1.22-.92,1.97-1.2,1.54-.42,2.4-.42c1.21,0,2.26.25,3.15.75s1.58,1.2,2.07,2.09.74,1.95.74,3.17v12.62h-3.06v-11.92c0-.84-.15-1.56-.45-2.16s-.73-1.05-1.29-1.37-1.25-.47-2.06-.47-1.52.18-2.14.55-1.11.88-1.46,1.53-.53,1.39-.53,2.22v11.62h-3.06v-12.25c0-.74-.16-1.38-.47-1.93s-.74-.98-1.3-1.28-1.22-.46-1.98-.46c-.81,0-1.53.2-2.15.59s-1.12.92-1.49,1.59-.54,1.43-.54,2.29v11.46h-3.06Z"/><path class="aq" d="M369.83,450.52v-24.43h3.06v3.09h.07c.39-.71.86-1.33,1.43-1.84s1.22-.91,1.96-1.19,1.54-.42,2.41-.42c1.56,0,2.92.39,4.09,1.17s2.07,1.88,2.72,3.3.97,3.1.97,5.02v.02c0,1.92-.33,3.59-.98,5.01s-1.55,2.52-2.71,3.3-2.5,1.17-4.03,1.17c-.86,0-1.66-.14-2.41-.41s-1.42-.67-2-1.18-1.06-1.12-1.45-1.82h-.07v9.21h-3.06ZM378.16,442.01c1.08,0,2.01-.28,2.79-.83s1.39-1.33,1.81-2.35.63-2.21.63-3.59v-.02c0-1.41-.21-2.62-.63-3.63s-1.03-1.79-1.81-2.34-1.72-.82-2.79-.82-1.95.28-2.74.84-1.42,1.35-1.87,2.36-.68,2.21-.68,3.58v.02c0,1.36.23,2.55.69,3.56s1.08,1.8,1.87,2.36,1.7.84,2.73.84Z"/><path class="aq" d="M395.54,444.72c-1.68,0-2.93-.4-3.76-1.2s-1.25-2.07-1.25-3.81v-11.09h-2.67v-2.53h2.67v-4.94h3.16v4.94h3.48v2.53h-3.48v11.07c0,.97.21,1.63.63,1.98s1.04.52,1.86.52c.19,0,.37,0,.54-.03s.32-.03.45-.04v2.48c-.19.02-.43.05-.73.08s-.6.04-.91.04Z"/><path class="aq" d="M406.94,444.72c-1.43,0-2.67-.23-3.71-.69s-1.87-1.1-2.47-1.92-.97-1.78-1.1-2.87l-.02-.16h3.06l.04.18c.19.91.63,1.63,1.32,2.14s1.66.76,2.9.76c.83,0,1.54-.11,2.13-.33s1.04-.53,1.35-.93.47-.88.47-1.43v-.02c0-.66-.2-1.18-.6-1.58s-1.12-.73-2.16-.98l-2.9-.7c-1.15-.28-2.1-.65-2.86-1.1s-1.32-1-1.7-1.66-.56-1.42-.56-2.3v-.02c0-1.05.28-1.99.85-2.79s1.36-1.44,2.37-1.9,2.18-.69,3.49-.69,2.5.24,3.49.71,1.77,1.12,2.34,1.93.89,1.73.96,2.75l.02.23h-2.92l-.02-.12c-.12-.89-.51-1.61-1.17-2.14s-1.56-.81-2.7-.81c-.74,0-1.38.11-1.92.33s-.95.54-1.24.94-.43.88-.43,1.42v.02c0,.41.1.78.29,1.12s.5.62.92.87.97.45,1.63.62l2.9.7c1.85.45,3.15,1.06,3.9,1.84s1.12,1.82,1.12,3.12v.02c0,1.07-.31,2.01-.92,2.83s-1.46,1.46-2.53,1.92-2.29.69-3.65.69Z"/><path class="aq" d="M87.93,489.72c-1.68,0-2.93-.4-3.76-1.2s-1.25-2.07-1.25-3.81v-11.09h-2.67v-2.53h2.67v-4.94h3.16v4.94h3.48v2.53h-3.48v11.07c0,.97.21,1.63.63,1.98s1.04.52,1.86.52c.19,0,.37,0,.54-.03s.32-.03.45-.04v2.48c-.19.02-.43.05-.73.08s-.6.04-.91.04Z"/><path class="aq" d="M92.99,489.37v-25.37h3.06v10h.07c.49-1.03,1.22-1.83,2.2-2.41s2.14-.86,3.5-.86,2.44.31,3.42.94,1.74,1.5,2.29,2.61.83,2.41.83,3.88v11.2h-3.06v-10.67c0-1.65-.4-2.94-1.2-3.87s-1.91-1.39-3.34-1.39c-.94,0-1.76.22-2.47.67s-1.26,1.06-1.65,1.85-.59,1.7-.59,2.74v10.67h-3.06Z"/><path class="aq" d="M112.24,489.37v-18.28h3.06v3.09h.07c.3-1.05.83-1.89,1.58-2.51s1.64-.93,2.67-.93c.27,0,.51.01.73.04s.38.06.5.08v2.97c-.12-.05-.33-.09-.62-.12s-.64-.05-1.01-.05c-.79,0-1.47.18-2.07.53s-1.05.86-1.37,1.52-.48,1.46-.48,2.38v11.29h-3.06Z"/><path class="aq" d="M130.03,489.72c-1.69,0-3.17-.39-4.44-1.16s-2.26-1.87-2.97-3.3-1.06-3.1-1.06-5.04v-.04c0-1.95.35-3.62,1.06-5.04s1.7-2.5,2.97-3.27,2.75-1.15,4.42-1.15,3.17.38,4.44,1.15,2.26,1.86,2.97,3.27,1.06,3.09,1.06,5.04v.04c0,1.95-.35,3.63-1.06,5.04s-1.7,2.51-2.96,3.29-2.74,1.16-4.43,1.16ZM130.04,487.01c1.08,0,2.01-.27,2.8-.8s1.41-1.31,1.85-2.32.66-2.24.66-3.67v-.04c0-1.43-.22-2.65-.66-3.66s-1.06-1.78-1.86-2.3-1.74-.79-2.82-.79-1.98.27-2.79.8-1.43,1.3-1.87,2.3-.67,2.22-.67,3.65v.04c0,1.43.22,2.65.67,3.67s1.07,1.79,1.87,2.32,1.74.8,2.82.8Z"/><path class="aq" d="M147.8,489.72c-1.34,0-2.48-.28-3.42-.83s-1.66-1.33-2.16-2.35-.75-2.21-.75-3.59v-11.87h3.06v11.32c0,1.49.35,2.63,1.05,3.42s1.75,1.19,3.16,1.19c.73,0,1.38-.12,1.96-.37s1.08-.59,1.5-1.05.74-1,.97-1.63.33-1.34.33-2.12v-10.76h3.06v18.28h-3.06v-2.6h-.07c-.33.56-.75,1.07-1.27,1.51s-1.15.8-1.87,1.05-1.55.39-2.48.39Z"/><path class="aq" d="M168.26,495.87c-1.5,0-2.81-.21-3.93-.64s-2.02-1.01-2.71-1.74-1.13-1.55-1.33-2.45l-.04-.16h3.08l.07.16c.29.66.86,1.17,1.7,1.56s1.88.57,3.12.57c1.61,0,2.85-.41,3.73-1.24s1.32-1.95,1.32-3.37v-2.34h-.07c-.36.68-.83,1.27-1.41,1.76s-1.23.88-1.98,1.15-1.56.41-2.43.41c-1.54,0-2.89-.39-4.05-1.17s-2.07-1.88-2.72-3.29-.98-3.07-.98-4.97v-.02c0-1.9.33-3.55.99-4.95s1.58-2.49,2.75-3.26,2.53-1.16,4.08-1.16c.87,0,1.66.15,2.39.44s1.37.7,1.94,1.21,1.04,1.11,1.42,1.79h.07v-3.09h3.06v17.77c0,1.42-.33,2.65-.98,3.7s-1.59,1.86-2.79,2.44-2.64.87-4.29.87ZM168.05,486.83c1.04,0,1.95-.28,2.73-.83s1.39-1.34,1.83-2.35.66-2.19.66-3.53v-.02c0-1.35-.22-2.52-.66-3.52s-1.05-1.77-1.84-2.32-1.69-.83-2.72-.83-2.02.27-2.81.82-1.41,1.32-1.84,2.31-.64,2.17-.64,3.53v.02c0,1.38.21,2.58.64,3.58s1.04,1.78,1.84,2.32,1.73.82,2.81.82Z"/><path class="aq" d="M180.44,489.37v-25.37h3.06v10h.07c.49-1.03,1.22-1.83,2.2-2.41s2.14-.86,3.5-.86,2.44.31,3.42.94,1.74,1.5,2.29,2.61.83,2.41.83,3.88v11.2h-3.06v-10.67c0-1.65-.4-2.94-1.2-3.87s-1.91-1.39-3.34-1.39c-.94,0-1.76.22-2.47.67s-1.26,1.06-1.65,1.85-.59,1.7-.59,2.74v10.67h-3.06Z"/><path class="aq" d="M213.56,489.72c-1.43,0-2.67-.23-3.71-.69s-1.87-1.1-2.47-1.92-.97-1.78-1.1-2.87l-.02-.16h3.06l.04.18c.19.91.63,1.63,1.32,2.14s1.66.76,2.9.76c.83,0,1.54-.11,2.13-.33s1.04-.53,1.35-.93.47-.88.47-1.43v-.02c0-.66-.2-1.18-.6-1.58s-1.12-.73-2.16-.98l-2.9-.7c-1.15-.28-2.1-.65-2.86-1.1s-1.32-1-1.7-1.66-.56-1.42-.56-2.3v-.02c0-1.05.28-1.99.85-2.79s1.36-1.44,2.37-1.9,2.18-.69,3.49-.69,2.5.24,3.49.71,1.77,1.12,2.34,1.93.89,1.73.96,2.75l.02.23h-2.92l-.02-.12c-.12-.89-.51-1.61-1.17-2.14s-1.56-.81-2.7-.81c-.74,0-1.38.11-1.92.33s-.95.54-1.24.94-.43.88-.43,1.42v.02c0,.41.1.78.29,1.12s.5.62.92.87.97.45,1.63.62l2.9.7c1.85.45,3.15,1.06,3.9,1.84s1.12,1.82,1.12,3.12v.02c0,1.07-.31,2.01-.92,2.83s-1.46,1.46-2.53,1.92-2.29.69-3.65.69Z"/><path class="aq" d="M223.98,489.37v-25.37h3.06v10h.07c.49-1.03,1.22-1.83,2.2-2.41s2.14-.86,3.5-.86,2.44.31,3.42.94,1.74,1.5,2.29,2.61.83,2.41.83,3.88v11.2h-3.06v-10.67c0-1.65-.4-2.94-1.2-3.87s-1.91-1.39-3.34-1.39c-.94,0-1.76.22-2.47.67s-1.26,1.06-1.65,1.85-.59,1.7-.59,2.74v10.67h-3.06Z"/><path class="aq" d="M248.57,489.72c-1.21,0-2.27-.23-3.18-.69s-1.63-1.1-2.14-1.93-.76-1.8-.76-2.9v-.04c0-1.04.26-1.95.78-2.71s1.28-1.37,2.27-1.81,2.18-.71,3.58-.79l6.77-.39v2.37l-6.42.39c-1.22.07-2.17.36-2.84.88s-1.01,1.2-1.01,2.06v.04c0,.88.33,1.58.99,2.09s1.54.77,2.65.77c.96,0,1.83-.2,2.59-.61s1.38-.96,1.83-1.66.68-1.49.68-2.37v-5.4c0-1.11-.35-1.99-1.05-2.63s-1.68-.96-2.96-.96c-1.17,0-2.12.25-2.84.76s-1.17,1.17-1.34,2l-.04.16h-2.95l.02-.19c.09-1.01.44-1.92,1.03-2.74s1.41-1.47,2.45-1.96,2.28-.73,3.71-.73,2.69.25,3.74.74,1.86,1.19,2.43,2.08.86,1.95.86,3.17v12.64h-3.06v-2.97h-.07c-.35.67-.82,1.25-1.41,1.75s-1.25.88-1.98,1.16-1.51.41-2.33.41Z"/><path class="aq" d="M261.3,489.37v-18.28h3.06v3.09h.07c.3-1.05.83-1.89,1.58-2.51s1.64-.93,2.67-.93c.27,0,.51.01.73.04s.38.06.5.08v2.97c-.12-.05-.33-.09-.62-.12s-.64-.05-1.01-.05c-.79,0-1.47.18-2.07.53s-1.05.86-1.37,1.52-.48,1.46-.48,2.38v11.29h-3.06Z"/><path class="aq" d="M279.04,489.72c-1.75,0-3.25-.39-4.51-1.16s-2.23-1.87-2.9-3.28-1.01-3.07-1.01-4.98v-.02c0-1.89.34-3.55,1.02-4.98s1.63-2.55,2.87-3.36,2.68-1.2,4.34-1.2,3.1.38,4.3,1.15,2.12,1.84,2.77,3.23.97,2.99.97,4.82v1.12h-14.73v-2.39h13.22l-1.55,2.21v-1.18c0-1.42-.21-2.59-.64-3.52s-1.02-1.61-1.77-2.07-1.61-.68-2.58-.68-1.85.24-2.62.71-1.38,1.18-1.83,2.11-.67,2.08-.67,3.44v1.18c0,1.29.22,2.39.66,3.3s1.06,1.61,1.87,2.1,1.76.73,2.87.73c.77,0,1.46-.12,2.07-.35s1.12-.56,1.53-.97.7-.88.88-1.41l.05-.16h3.01l-.04.18c-.15.75-.44,1.45-.87,2.11s-.98,1.23-1.64,1.73-1.43.88-2.29,1.16-1.78.41-2.78.41Z"/><path class="aq" d="M296.83,489.72c-1.56,0-2.92-.39-4.09-1.17s-2.07-1.88-2.72-3.3-.97-3.1-.97-5.02v-.02c0-1.92.33-3.59.98-5.01s1.56-2.52,2.72-3.3,2.5-1.17,4.03-1.17c.87,0,1.67.14,2.42.41s1.41.67,2,1.18,1.07,1.12,1.44,1.82h.07v-10.14h3.06v25.37h-3.06v-3.09h-.07c-.38.71-.85,1.33-1.42,1.84s-1.23.91-1.96,1.19-1.54.42-2.42.42ZM297.42,487.01c1.03,0,1.95-.28,2.74-.84s1.42-1.35,1.87-2.37.68-2.21.68-3.57v-.02c0-1.36-.23-2.55-.69-3.56s-1.08-1.8-1.87-2.36-1.7-.84-2.73-.84-2.01.28-2.79.83-1.39,1.33-1.81,2.34-.63,2.21-.63,3.6v.02c0,1.39.21,2.6.63,3.62s1.03,1.8,1.81,2.35,1.72.82,2.79.82Z"/><path class="aq" d="M318.99,467.99c-.53,0-.98-.19-1.35-.56s-.56-.83-.56-1.35.19-.99.56-1.36.83-.55,1.35-.55.99.18,1.36.55.55.82.55,1.36-.18.98-.55,1.35-.82.56-1.36.56ZM317.46,489.37v-18.28h3.06v18.28h-3.06Z"/><path class="aq" d="M324.69,489.37v-18.28h3.06v2.6h.07c.49-.86,1.21-1.56,2.14-2.12s2.1-.83,3.48-.83c2,0,3.56.61,4.67,1.82s1.66,2.86,1.66,4.95v11.87h-3.06v-11.32c0-1.49-.35-2.63-1.05-3.42s-1.75-1.19-3.16-1.19c-.96,0-1.8.21-2.51.64s-1.27,1.03-1.66,1.8-.59,1.68-.59,2.72v10.76h-3.06Z"/><path class="aq" d="M349.6,489.72c-1.68,0-2.93-.4-3.76-1.2s-1.25-2.07-1.25-3.81v-11.09h-2.67v-2.53h2.67v-4.94h3.16v4.94h3.48v2.53h-3.48v11.07c0,.97.21,1.63.63,1.98s1.04.52,1.86.52c.19,0,.37,0,.54-.03s.32-.03.45-.04v2.48c-.19.02-.43.05-.73.08s-.6.04-.91.04Z"/><path class="aq" d="M361.5,489.72c-1.75,0-3.25-.39-4.51-1.16s-2.23-1.87-2.9-3.28-1.01-3.07-1.01-4.98v-.02c0-1.89.34-3.55,1.02-4.98s1.63-2.55,2.87-3.36,2.68-1.2,4.34-1.2,3.1.38,4.3,1.15,2.12,1.84,2.77,3.23.97,2.99.97,4.82v1.12h-14.73v-2.39h13.22l-1.55,2.21v-1.18c0-1.42-.21-2.59-.64-3.52s-1.02-1.61-1.77-2.07-1.61-.68-2.58-.68-1.85.24-2.62.71-1.38,1.18-1.83,2.11-.67,2.08-.67,3.44v1.18c0,1.29.22,2.39.66,3.3s1.06,1.61,1.87,2.1,1.76.73,2.87.73c.77,0,1.46-.12,2.07-.35s1.12-.56,1.53-.97.7-.88.88-1.41l.05-.16h3.01l-.04.18c-.15.75-.44,1.45-.87,2.11s-.98,1.23-1.64,1.73-1.43.88-2.29,1.16-1.78.41-2.78.41Z"/><path class="aq" d="M372.41,489.37v-18.28h3.06v2.6h.07c.49-.86,1.21-1.56,2.14-2.12s2.1-.83,3.48-.83c2,0,3.56.61,4.67,1.82s1.66,2.86,1.66,4.95v11.87h-3.06v-11.32c0-1.49-.35-2.63-1.05-3.42s-1.75-1.19-3.16-1.19c-.96,0-1.8.21-2.51.64s-1.27,1.03-1.66,1.8-.59,1.68-.59,2.72v10.76h-3.06Z"/><path class="aq" d="M397.32,489.72c-1.68,0-2.93-.4-3.76-1.2s-1.25-2.07-1.25-3.81v-11.09h-2.67v-2.53h2.67v-4.94h3.16v4.94h3.48v2.53h-3.48v11.07c0,.97.21,1.63.63,1.98s1.04.52,1.86.52c.19,0,.37,0,.54-.03s.32-.03.45-.04v2.48c-.19.02-.43.05-.73.08s-.6.04-.91.04Z"/><path class="aq" d="M404.11,489.61c-.56,0-1.04-.19-1.42-.58s-.58-.86-.58-1.42.19-1.04.58-1.42.86-.58,1.42-.58,1.04.19,1.42.58.58.86.58,1.42-.19,1.04-.58,1.42-.86.58-1.42.58Z"/></g></svg>